<svg width="201" height="122" viewBox="0 0 201 122" fill="none" xmlns="http://www.w3.org/2000/svg">
<g id="bike smoke 1" clip-path="url(#clip0_172_116)">
<g id="Layer 2">
<g id="OBJECTS">
<path id="Vector" d="M41.9871 113.975C43.6146 114.504 45.2112 115.123 46.7696 115.83H46.8427L46.9436 115.877C54.3891 119.369 62.5087 121.189 70.7325 121.21H86.6602L66.8728 30.6265L66.8674 30.6021L66.8646 30.5774L66.8646 30.5773L66.8645 30.5767L66.8641 30.573L66.862 30.5562C66.861 30.5484 66.8598 30.5385 66.8583 30.5264C66.8568 30.515 66.855 30.5016 66.853 30.4864C66.8448 30.4239 66.8318 30.33 66.8133 30.207C66.7764 29.9608 66.7174 29.5981 66.6298 29.1366C66.4546 28.2135 66.1651 26.8963 65.7092 25.3279C64.7968 22.1889 63.2212 18.0565 60.5698 14.0652C57.9197 10.0759 54.2004 6.23541 48.9988 3.6599C43.8001 1.08585 37.0881 -0.240899 28.4235 0.845905L28.4203 0.846281C23.3234 1.45266 18.4452 3.26874 14.1926 6.14311C6.00346 11.7206 0.760704 21.029 0.558655 31.989C0.356621 42.9482 5.19657 55.604 17.2672 67.8386L17.7237 68.3014L17.1593 68.6239C17.1586 68.6243 17.1562 68.6255 17.1521 68.6276C16.9777 68.7159 13.7652 70.3417 12.1807 74.481C10.5678 78.6945 10.5869 85.6768 17.6311 96.5682L17.6311 96.5683C22.1536 103.563 26.1948 107.217 30.0973 109.468C33.1115 111.206 36.0448 112.114 39.1322 113.069C40.0675 113.358 41.017 113.652 41.9871 113.975ZM41.9871 113.975C41.9867 113.975 41.9863 113.974 41.9858 113.974L41.8313 114.45M41.9871 113.975C41.9878 113.975 41.9884 113.975 41.989 113.975L41.8313 114.45M41.8313 114.45C40.8814 114.134 39.9445 113.844 39.0162 113.557C31.8908 111.353 25.2711 109.306 17.2112 96.8398L46.6612 116.33C45.0882 115.612 43.4756 114.984 41.8313 114.45Z" fill="#BDBDBD" stroke="black"/>
<path id="Vector_2" d="M17.6305 96.5682L17.6305 96.5683C22.153 103.563 26.1942 107.217 30.0967 109.468C32.4752 110.84 34.8034 111.694 37.1968 112.463C29.3826 107.502 23.369 100.08 19.9295 92.7765C17.8976 88.462 16.7515 84.1625 16.6777 80.4101C16.604 76.6608 17.6028 73.3994 19.9325 71.2614C22.4272 68.9715 26.3954 68.2534 30.8108 68.3831C35.2494 68.5135 40.2603 69.5048 44.9637 70.7643C52.4303 72.7636 59.1826 75.4553 61.7532 76.5278L51.2557 49.0478C51.2487 49.0571 51.2415 49.0664 51.2343 49.0759C50.8587 49.568 50.3018 50.2489 49.5722 51.0114C48.1151 52.5341 45.9575 54.3939 43.1673 55.7166C40.3717 57.0417 36.9418 57.8267 32.9604 57.1926C28.9818 56.5589 24.4923 54.5145 19.5634 50.2478C9.64539 41.6624 8.1335 30.4439 9.08086 21.4325C9.55455 16.9267 10.6434 12.9579 11.6127 10.1168C12.006 8.96405 12.3801 7.99564 12.6862 7.25077C5.35336 12.9088 0.727589 21.7371 0.53804 32.019C0.336002 42.9781 5.17596 55.634 17.2466 67.8686L17.8974 68.5283L17.0509 68.6976C17.0429 68.7017 17.0339 68.7064 17.024 68.7116C17.0082 68.7199 16.9899 68.7296 16.9693 68.7408C16.8784 68.7904 16.7442 68.8675 16.5767 68.9742C16.2416 69.1877 15.7754 69.5186 15.2579 69.9828C14.223 70.911 12.9873 72.368 12.1776 74.4847C10.5672 78.6944 10.5862 85.6767 17.6305 96.5682Z" fill="#9A9A9A" stroke="black"/>
<path id="Vector_3" d="M150.075 96.6516L150.558 96.7327C159.539 98.2412 168.117 101.568 175.767 106.508C182.017 110.634 187.171 111.652 191.28 112.015C192.272 112.103 193.202 112.152 194.064 112.198L194.144 112.202C195.032 112.249 195.842 112.293 196.588 112.372C197.624 112.482 198.504 112.655 199.256 112.975C193.99 114.623 188.318 114.504 183.111 112.619L183.101 112.616L183.101 112.616C179.483 111.386 176.634 110.136 174.045 109C173.093 108.583 172.177 108.181 171.27 107.801C167.899 106.388 164.701 105.298 160.464 104.931C158.366 104.75 156.867 104.914 155.942 105.46C155.46 105.745 155.128 106.138 154.969 106.629C154.813 107.108 154.838 107.632 154.974 108.162C155.241 109.21 155.976 110.423 156.968 111.705C157.968 112.999 159.268 114.409 160.718 115.854C161.045 116.18 161.199 116.443 161.256 116.639C161.306 116.816 161.283 116.955 161.202 117.09C161.11 117.242 160.924 117.417 160.6 117.594C160.28 117.768 159.856 117.927 159.331 118.064C157.216 118.614 153.742 118.725 149.835 118.299C145.938 117.873 141.666 116.919 137.964 115.374C134.251 113.825 131.179 111.71 129.592 109.006C127.9 106.126 126.29 104.402 124.572 103.389C122.849 102.373 121.073 102.106 119.128 102.035C118.381 102.008 117.607 102.009 116.794 102.009C113.414 102.013 109.361 102.018 103.833 100C104.425 100.17 104.948 100.322 105.335 100.435C105.463 100.472 105.577 100.506 105.673 100.534C105.738 100.553 105.795 100.57 105.843 100.584L105.981 100.625L106.016 100.635L106.025 100.638L106.027 100.639L106.028 100.639C106.028 100.639 106.028 100.639 106.17 100.16M150.075 96.6516L137.636 82.9669L137.575 82.5165C136.225 72.5172 128.862 65.7043 121.104 62.7519C117.226 61.2764 113.285 60.78 109.99 61.315C106.699 61.8497 104.101 63.4016 102.786 65.9863C101.433 68.6478 100.969 72.086 101.064 75.7921C101.158 79.4906 101.805 83.4092 102.631 86.9987C103.457 90.5861 104.459 93.8317 105.254 96.181C105.651 97.3553 105.997 98.3047 106.243 98.9598C106.366 99.2873 106.464 99.5412 106.531 99.7127C106.565 99.7985 106.591 99.8637 106.608 99.9073L106.628 99.9562L106.632 99.9682L106.634 99.971L106.634 99.9716C106.634 99.9717 106.634 99.9717 106.17 100.16M150.075 96.6516L150.146 96.1673C150.658 92.6614 150.141 90.1191 149.124 88.2676C148.106 86.4139 146.559 85.2025 144.925 84.4094C143.287 83.6147 141.576 83.2477 140.267 83.0809C139.614 82.9978 139.065 82.965 138.681 82.9529C138.489 82.9469 138.339 82.9461 138.238 82.9467C138.187 82.947 138.149 82.9477 138.124 82.9483L138.097 82.949L138.091 82.9492L138.09 82.9492L150.075 96.6516ZM106.17 100.16L106.028 100.639L107.024 100.935L106.634 99.9717L106.17 100.16Z" fill="#BDBDBD" stroke="black"/>
<path id="Vector_4" d="M53.1341 85.593L53.1342 85.5931L53.6312 85.8144L53.3688 86.2905L53.3687 86.2907L53.3685 86.291L53.3671 86.2936L53.3591 86.3087C53.3516 86.3229 53.3399 86.3453 53.3246 86.3757C53.294 86.4364 53.2488 86.5288 53.1936 86.6505C53.0829 86.8939 52.9319 87.2543 52.7747 87.7131C52.4602 88.6316 52.1236 89.9388 52.0361 91.4891C51.8619 94.5748 52.671 98.6507 56.6807 102.583C60.7311 106.555 65.6533 108.814 69.6592 110.213C71.4011 110.821 72.9614 111.263 74.2036 111.616C74.3895 111.669 74.5683 111.719 74.7395 111.768C75.3913 111.955 75.947 112.119 76.3592 112.273C76.5648 112.349 76.7523 112.429 76.905 112.516C77.0401 112.593 77.2265 112.717 77.3318 112.914C77.4257 113.091 77.5136 113.373 77.6013 113.654L77.6128 113.691L77.6183 113.708C77.7168 114.024 77.8351 114.403 77.9925 114.827C78.3131 115.688 78.7919 116.722 79.5669 117.704C81.0958 119.641 83.8413 121.464 89.0482 121.23L89.0579 121.23L89.0677 121.23L173.728 120.73H173.731L173.811 120.73L173.821 120.73L193.34 121.148C184.978 118.823 176.452 117.131 167.834 116.086C164.081 115.679 161.386 115.051 159.518 114.322C157.668 113.599 156.551 112.745 156.081 111.826C155.839 111.355 155.772 110.872 155.869 110.411C155.964 109.956 156.21 109.558 156.539 109.232C156.878 108.895 157.315 108.622 157.81 108.426C157.368 108.256 156.828 108.082 156.218 107.954C154.516 107.597 152.3 107.602 150.144 109.009C149.42 109.48 148.536 109.543 147.583 109.367C146.632 109.191 145.551 108.766 144.369 108.181C142.371 107.193 139.989 105.699 137.321 104.025C136.836 103.721 136.342 103.41 135.838 103.096C129.258 98.9898 121.067 94.1429 112.122 92.4918C112.121 92.4916 112.121 92.4915 112.12 92.4914L111.444 92.3721L111.209 92.3306L111.093 92.1215L111.531 91.8797C111.093 92.1215 111.093 92.1214 111.093 92.1212L111.093 92.1208L111.092 92.1195L111.089 92.115L111.081 92.0989C111.073 92.085 111.062 92.0649 111.049 92.0391C111.021 91.9873 110.982 91.9121 110.933 91.8164C110.836 91.6251 110.702 91.3511 110.552 91.0174C110.253 90.3522 109.887 89.4398 109.627 88.4659C109.37 87.4996 109.207 86.4313 109.348 85.4701C109.493 84.4887 109.965 83.5894 110.985 83.0736L111 83.0662L111.015 83.0597C112.046 82.62 113.185 82.4966 114.287 82.7052C117.391 83.0663 119.979 80.5736 120.954 76.8408C121.923 73.1355 121.217 68.3971 117.843 64.6983C116.704 63.4713 115.376 62.4346 113.91 61.6278L113.657 61.4887L113.651 61.2001C113.567 57.1837 111.911 53.3606 109.037 50.5533C106.735 48.4527 103.042 47.8922 99.8135 47.8947C98.2147 47.8959 96.7641 48.0349 95.7127 48.1738C95.1875 48.2432 94.7631 48.3125 94.471 48.3641C94.3251 48.39 94.2122 48.4114 94.1365 48.4262C94.0987 48.4336 94.0701 48.4394 94.0513 48.4432L94.0306 48.4475L94.0258 48.4485L94.0248 48.4487L94.0247 48.4488L93.5449 48.551L93.4337 48.0733L93.4336 48.073L93.4336 48.0729L93.433 48.0705L93.4303 48.0592L93.4183 48.0105C93.4074 47.9667 93.3904 47.9005 93.367 47.8135C93.3202 47.6394 93.2476 47.382 93.1456 47.0536C92.9416 46.3967 92.6203 45.4567 92.1531 44.3327C91.2182 42.0832 89.7026 39.1049 87.3805 36.1846C82.7487 30.3596 74.8989 24.7465 61.9546 25.6285C55.9148 26.0438 51.0191 27.7021 47.4103 30.2672L47.3707 30.2954L47.3264 30.3154L47.3173 30.3195C47.0438 30.4419 42.1531 32.6307 37.7756 37.1393C33.3447 41.7028 29.4626 48.6133 31.3908 58.1809L31.3908 58.1813C33.3434 67.9045 38.7749 74.7573 43.7337 79.1868C46.2126 81.4011 48.5691 83.0058 50.3042 84.056C51.1715 84.581 51.8828 84.9669 52.3755 85.2208C52.6218 85.3478 52.8134 85.4417 52.9425 85.5034C53.007 85.5343 53.0559 85.5571 53.0882 85.572L53.124 85.5884L53.1323 85.5922L53.1341 85.593Z" fill="#FBFBFB" stroke="black"/>
<path id="Vector_5" opacity="0.5" d="M101.693 76.6674C102.805 76.9082 104.184 77.0232 105.674 76.9087C109.018 76.6517 112.86 75.2472 115.507 71.6057L115.515 71.5941L115.524 71.5829C117.137 69.6134 117.925 67.0989 117.728 64.5654C116.798 63.5846 115.746 62.7289 114.598 62.0191C114.555 62.5091 114.478 63.1923 114.341 63.9976C114.061 65.6456 113.528 67.8231 112.512 69.9075C111.496 71.992 109.983 74.011 107.729 75.2955C106.098 76.225 104.109 76.7532 101.693 76.6674Z" fill="#BDBDBD" stroke="black"/>
<path id="Vector_6" opacity="0.5" d="M53.1342 85.5932L53.134 85.5931L53.1339 85.5931L53.1322 85.5923L53.1239 85.5885L53.0881 85.5721C53.0558 85.5573 53.007 85.5344 52.9424 85.5036C52.8134 85.4418 52.6218 85.3479 52.3755 85.2209C51.8828 84.9669 51.1714 84.5808 50.3041 84.0556C48.5688 83.0048 46.212 81.3988 43.7325 79.1821C38.7726 74.7477 33.3383 67.8848 31.3808 58.1413L31.3807 58.141C29.4525 48.5734 33.3347 41.6629 37.7655 37.0994C40.5346 34.2474 43.5091 32.3236 45.3902 31.264C39.0564 40.5427 42.0032 51.5342 46.5867 60.2586C49.0344 64.9179 51.9727 68.9811 54.296 71.8772C55.4584 73.3261 56.4684 74.485 57.1888 75.2824C57.549 75.6812 57.8369 75.9897 58.0352 76.1991C58.1344 76.3038 58.2113 76.3838 58.2636 76.4378L58.2985 76.4738C62.601 83.9471 70.7763 89.6924 76.507 92.2647C77.9474 92.9113 79.2517 93.3659 80.3173 93.5958C80.8497 93.7107 81.3361 93.7724 81.7577 93.7689C82.1714 93.7655 82.5686 93.6992 82.8863 93.5158C83.2306 93.3171 83.4525 92.9953 83.4946 92.5818C83.5333 92.202 83.4159 91.7921 83.2109 91.3759C82.7998 90.5409 81.93 89.4706 80.5573 88.1496L80.5482 88.1409L80.5481 88.141C80.3055 87.9189 80.0957 87.6781 79.8683 87.4171C79.8432 87.3882 79.8178 87.359 79.7921 87.3297C79.5422 87.0435 79.2661 86.7348 78.9321 86.4687L78.929 86.4663C75.1663 83.5164 73.1948 80.8427 72.3145 78.5204C71.4388 76.2104 71.6281 74.2108 72.2611 72.5615C72.8988 70.9 73.9939 69.5787 74.9437 68.6663C75.1664 68.4523 75.3801 68.2619 75.5765 68.0958C74.7078 71.9662 74.6337 75.2692 76.6059 78.6588C78.776 82.3886 83.3828 86.1463 91.853 90.9742L92.856 91.546L92.5868 90.4232C92.3386 89.3883 92.2949 88.1205 92.5302 86.9062C92.7657 85.6906 93.2725 84.5682 94.0878 83.7796L53.1342 85.5932ZM53.1342 85.5932L53.6311 85.8146L53.3687 86.2906L53.3686 86.2908M53.1342 85.5932L52.479 85.8338L52.4871 85.8187L52.4907 85.812L52.4919 85.8098L52.4923 85.8091C52.4924 85.8089 52.4925 85.8088 52.5357 85.8325C52.5861 85.8601 52.695 85.92 52.9305 86.0498C53.3684 86.2912 53.3686 86.291 53.3686 86.2908M53.3686 86.2908L53.3686 86.2909L53.3684 86.2912M53.3686 86.2908L53.3684 86.2912M53.3684 86.2912L53.3671 86.2937L53.359 86.3088C53.3515 86.323 53.3398 86.3455 53.3245 86.3758C53.2939 86.4365 53.2488 86.5289 53.1935 86.6506C53.0829 86.8941 52.9318 87.2544 52.7747 87.7132C52.4602 88.6317 52.1235 89.9389 52.036 91.4893C51.8618 94.5749 52.6709 98.6509 56.6806 102.583C60.7311 106.555 65.6532 108.814 69.6591 110.213C71.401 110.821 72.9613 111.264 74.2035 111.616C74.3894 111.669 74.5682 111.72 74.7394 111.768C75.3912 111.955 75.947 112.119 76.3591 112.273C76.5647 112.349 76.7522 112.43 76.9049 112.516C77.04 112.593 77.2264 112.717 77.3317 112.915C77.4257 113.091 77.5136 113.373 77.6012 113.654L77.6127 113.691L77.6182 113.708C77.7168 114.024 77.835 114.403 77.9925 114.827C78.313 115.689 78.7918 116.722 79.5668 117.704C81.0957 119.642 83.8412 121.464 89.0482 121.23L89.0579 121.23L89.0676 121.23L162.3 120.798M53.3684 86.2912L89.0705 121.73L166.496 121.273C165.214 121.15 163.804 120.995 162.3 120.798M162.3 120.798L166.519 120.773M162.3 120.798C160.922 120.617 159.465 120.402 157.957 120.145C149.705 118.741 139.813 116.084 132.69 111.034M166.519 120.773L109.901 100.8L109.57 101.175C109.57 101.175 109.57 101.175 109.571 101.176C111.781 103.122 114.738 105.103 117.515 106.928C117.779 107.101 118.042 107.274 118.302 107.444C120.795 109.079 123.058 110.563 124.473 111.788L124.474 111.788C127.475 114.382 129.481 115.642 130.809 115.994C131.485 116.173 132.084 116.143 132.539 115.813C132.986 115.49 133.165 114.97 133.226 114.473C133.345 113.487 133.044 112.202 132.748 111.223C132.728 111.159 132.709 111.096 132.69 111.034M166.519 120.773C157.479 119.906 142.085 117.405 132.413 110.216M166.519 120.773L132.413 110.216M132.69 111.034C132.594 110.73 132.498 110.452 132.413 110.216M132.69 111.034C132.454 110.867 132.222 110.698 131.993 110.526C132.915 113.134 134.753 120.012 124.801 111.41L132.413 110.216M111.058 92.0478C111.055 92.042 111.052 92.0358 111.048 92.0292C111.021 91.9774 110.982 91.9022 110.933 91.8065C110.9 91.7416 110.863 91.6671 110.822 91.584L111.058 92.0478ZM111.058 92.0478C111.127 92.0357 111.196 92.0251 111.266 92.0161C111.329 91.9814 111.414 91.9342 111.531 91.8698L111.058 92.0478ZM110.248 83.5851C109.186 83.0744 107.1 82.167 104.642 81.636C101.146 80.8806 97.0513 80.9201 94.0881 83.7793L110.248 83.5851Z" fill="#BDBDBD" stroke="black"/>
</g>
</g>
</g>
<defs>
<clipPath id="clip0_172_116">
<rect width="200.48" height="121.75" fill="white" transform="matrix(-1 0 0 1 200.48 0)"/>
</clipPath>
</defs>
</svg>
