<svg width="215" height="188" viewBox="0 0 215 188" fill="none" xmlns="http://www.w3.org/2000/svg">
<g filter="url(#filter0_dddddddd_1010_2834)">
<mask id="path-1-outside-1_1010_2834" maskUnits="userSpaceOnUse" x="71" y="70" width="74" height="48" fill="black">
<rect fill="white" x="71" y="70" width="74" height="48"/>
<path d="M73.6223 114V112.586H82.1085V74.9069H73.6223V73.4925H88.8409V112.586H96.7614V114H73.6223ZM110.886 114.679C109.34 114.679 107.831 114.415 106.36 113.887C104.927 113.359 103.758 112.661 102.852 111.794L102.004 114H100.363V105.344H102.174L102.456 106.419C102.984 108.456 103.927 110.002 105.285 111.058C106.681 112.114 108.529 112.642 110.829 112.642C112.715 112.642 114.035 112.322 114.79 111.68C115.544 111.002 115.921 110.04 115.921 108.795C115.921 107.55 115.412 106.645 114.394 106.08C113.375 105.476 111.81 104.948 109.698 104.495C107.888 104.118 106.303 103.647 104.946 103.081C103.626 102.478 102.588 101.648 101.834 100.592C101.08 99.498 100.703 98.0082 100.703 96.1224C100.703 93.4445 101.476 91.4078 103.022 90.0123C104.569 88.5791 106.775 87.8625 109.641 87.8625C111.263 87.8625 112.659 88.0888 113.828 88.5414C115.035 88.994 115.883 89.6163 116.374 90.4084L116.996 88.5414H118.467V96.7447H116.713L116.543 95.8961C116.129 93.784 115.393 92.2565 114.337 91.3136C113.319 90.3706 111.791 89.8992 109.755 89.8992C107.944 89.8992 106.586 90.2575 105.681 90.9741C104.814 91.653 104.38 92.6148 104.38 93.8594C104.38 94.4629 104.55 95.0098 104.889 95.5001C105.229 95.9527 105.851 96.3676 106.756 96.7447C107.699 97.1219 109 97.4991 110.66 97.8762C112.583 98.2911 114.205 98.8191 115.525 99.4603C116.845 100.101 117.845 100.95 118.524 102.006C119.24 103.062 119.599 104.439 119.599 106.136C119.599 108.739 118.806 110.813 117.222 112.359C115.638 113.906 113.526 114.679 110.886 114.679ZM133.702 114.735C131.741 114.735 130.27 114.339 129.289 113.547C128.346 112.755 127.875 111.567 127.875 109.983V90.0123H123.292V88.598C124.612 88.4848 125.838 87.9757 126.97 87.0705C128.139 86.1275 129.195 84.9395 130.138 83.5063C131.118 82.073 131.91 80.5078 132.514 78.8106H134.098V88.598H140.604V90.0123H134.098V109.587C134.098 111.284 134.796 112.133 136.191 112.133C136.983 112.133 137.7 111.869 138.341 111.341C139.02 110.775 139.718 109.851 140.434 108.569L141.566 109.191C140.623 111.266 139.548 112.718 138.341 113.547C137.134 114.339 135.588 114.735 133.702 114.735Z"/>
</mask>
<path d="M73.6223 114V112.586H82.1085V74.9069H73.6223V73.4925H88.8409V112.586H96.7614V114H73.6223ZM110.886 114.679C109.34 114.679 107.831 114.415 106.36 113.887C104.927 113.359 103.758 112.661 102.852 111.794L102.004 114H100.363V105.344H102.174L102.456 106.419C102.984 108.456 103.927 110.002 105.285 111.058C106.681 112.114 108.529 112.642 110.829 112.642C112.715 112.642 114.035 112.322 114.79 111.68C115.544 111.002 115.921 110.04 115.921 108.795C115.921 107.55 115.412 106.645 114.394 106.08C113.375 105.476 111.81 104.948 109.698 104.495C107.888 104.118 106.303 103.647 104.946 103.081C103.626 102.478 102.588 101.648 101.834 100.592C101.08 99.498 100.703 98.0082 100.703 96.1224C100.703 93.4445 101.476 91.4078 103.022 90.0123C104.569 88.5791 106.775 87.8625 109.641 87.8625C111.263 87.8625 112.659 88.0888 113.828 88.5414C115.035 88.994 115.883 89.6163 116.374 90.4084L116.996 88.5414H118.467V96.7447H116.713L116.543 95.8961C116.129 93.784 115.393 92.2565 114.337 91.3136C113.319 90.3706 111.791 89.8992 109.755 89.8992C107.944 89.8992 106.586 90.2575 105.681 90.9741C104.814 91.653 104.38 92.6148 104.38 93.8594C104.38 94.4629 104.55 95.0098 104.889 95.5001C105.229 95.9527 105.851 96.3676 106.756 96.7447C107.699 97.1219 109 97.4991 110.66 97.8762C112.583 98.2911 114.205 98.8191 115.525 99.4603C116.845 100.101 117.845 100.95 118.524 102.006C119.24 103.062 119.599 104.439 119.599 106.136C119.599 108.739 118.806 110.813 117.222 112.359C115.638 113.906 113.526 114.679 110.886 114.679ZM133.702 114.735C131.741 114.735 130.27 114.339 129.289 113.547C128.346 112.755 127.875 111.567 127.875 109.983V90.0123H123.292V88.598C124.612 88.4848 125.838 87.9757 126.97 87.0705C128.139 86.1275 129.195 84.9395 130.138 83.5063C131.118 82.073 131.91 80.5078 132.514 78.8106H134.098V88.598H140.604V90.0123H134.098V109.587C134.098 111.284 134.796 112.133 136.191 112.133C136.983 112.133 137.7 111.869 138.341 111.341C139.02 110.775 139.718 109.851 140.434 108.569L141.566 109.191C140.623 111.266 139.548 112.718 138.341 113.547C137.134 114.339 135.588 114.735 133.702 114.735Z" fill="#180013"/>
<path d="M73.6223 114H71.0507V116.572H73.6223V114ZM73.6223 112.586V110.014H71.0507V112.586H73.6223ZM82.1085 112.586V115.157H84.6801V112.586H82.1085ZM82.1085 74.9069H84.6801V72.3353H82.1085V74.9069ZM73.6223 74.9069H71.0507V77.4785H73.6223V74.9069ZM73.6223 73.4925V70.921H71.0507V73.4925H73.6223ZM88.8409 73.4925H91.4125V70.921H88.8409V73.4925ZM88.8409 112.586H86.2693V115.157H88.8409V112.586ZM96.7614 112.586H99.3329V110.014H96.7614V112.586ZM96.7614 114V116.572H99.3329V114H96.7614ZM76.1939 114V112.586H71.0507V114H76.1939ZM73.6223 115.157H82.1085V110.014H73.6223V115.157ZM84.6801 112.586V74.9069H79.5369V112.586H84.6801ZM82.1085 72.3353H73.6223V77.4785H82.1085V72.3353ZM76.1939 74.9069V73.4925H71.0507V74.9069H76.1939ZM73.6223 76.0641H88.8409V70.921H73.6223V76.0641ZM86.2693 73.4925V112.586H91.4125V73.4925H86.2693ZM88.8409 115.157H96.7614V110.014H88.8409V115.157ZM94.1898 112.586V114H99.3329V112.586H94.1898ZM96.7614 111.428H73.6223V116.572H96.7614V111.428ZM106.36 113.887L105.471 116.3L105.481 116.304L105.491 116.307L106.36 113.887ZM102.852 111.794L104.632 109.937L101.84 107.262L100.452 110.87L102.852 111.794ZM102.004 114V116.572H103.77L104.404 114.923L102.004 114ZM100.363 114H97.7916V116.572H100.363V114ZM100.363 105.344V102.772H97.7916V105.344H100.363ZM102.174 105.344L104.66 104.69L104.156 102.772H102.174V105.344ZM102.456 106.419L104.946 105.774L104.943 105.765L102.456 106.419ZM105.285 111.058L103.706 113.088L103.72 113.098L103.733 113.109L105.285 111.058ZM114.79 111.68L116.455 113.64L116.483 113.616L116.51 113.592L114.79 111.68ZM114.394 106.08L113.083 108.292L113.113 108.31L113.145 108.328L114.394 106.08ZM109.698 104.495L110.237 101.981L110.23 101.979L110.222 101.978L109.698 104.495ZM104.946 103.081L103.877 105.42L103.916 105.438L103.957 105.455L104.946 103.081ZM101.834 100.592L99.7171 102.052L99.7292 102.069L99.7415 102.087L101.834 100.592ZM103.022 90.0123L104.745 91.9215L104.758 91.91L104.77 91.8984L103.022 90.0123ZM113.828 88.5414L112.9 90.9396L112.912 90.9445L112.925 90.9492L113.828 88.5414ZM116.374 90.4084L114.187 91.7619L117.077 96.4302L118.813 91.2216L116.374 90.4084ZM116.996 88.5414V85.9698H115.143L114.556 87.7282L116.996 88.5414ZM118.467 88.5414H121.039V85.9698H118.467V88.5414ZM118.467 96.7447V99.3163H121.039V96.7447H118.467ZM116.713 96.7447L114.192 97.2491L114.605 99.3163H116.713V96.7447ZM116.543 95.8961L114.02 96.3918L114.022 96.4004L116.543 95.8961ZM114.337 91.3136L112.59 93.2005L112.607 93.2163L112.624 93.2318L114.337 91.3136ZM105.681 90.9741L107.266 92.9992L107.272 92.9948L107.277 92.9903L105.681 90.9741ZM104.889 95.5001L102.775 96.9639L102.803 97.004L102.832 97.043L104.889 95.5001ZM106.756 96.7447L105.767 99.1185L105.784 99.1256L105.801 99.1324L106.756 96.7447ZM110.66 97.8762L110.09 100.384L110.104 100.387L110.118 100.39L110.66 97.8762ZM115.525 99.4603L114.402 101.773L115.525 99.4603ZM118.524 102.006L116.36 103.397L116.378 103.424L116.396 103.45L118.524 102.006ZM117.222 112.359L115.426 110.519L117.222 112.359ZM110.886 112.107C109.639 112.107 108.424 111.896 107.229 111.466L105.491 116.307C107.238 116.934 109.04 117.25 110.886 117.25V112.107ZM107.249 111.474C106.077 111.042 105.232 110.512 104.632 109.937L101.073 113.65C102.283 114.81 103.777 115.676 105.471 116.3L107.249 111.474ZM100.452 110.87L99.6036 113.077L104.404 114.923L105.253 112.717L100.452 110.87ZM102.004 111.428H100.363V116.572H102.004V111.428ZM102.935 114V105.344H97.7916V114H102.935ZM100.363 107.916H102.174V102.772H100.363V107.916ZM99.6866 105.999L99.9695 107.073L104.943 105.765L104.66 104.69L99.6866 105.999ZM99.9671 107.064C100.605 109.525 101.808 111.611 103.706 113.088L106.864 109.028C106.047 108.393 105.364 107.387 104.946 105.774L99.9671 107.064ZM103.733 113.109C105.698 114.596 108.145 115.214 110.829 115.214V110.071C108.913 110.071 107.663 109.633 106.837 109.008L103.733 113.109ZM110.829 115.214C112.845 115.214 114.968 114.904 116.455 113.64L113.124 109.721C113.145 109.703 113.034 109.804 112.627 109.903C112.226 110 111.641 110.071 110.829 110.071V115.214ZM116.51 113.592C117.926 112.317 118.493 110.59 118.493 108.795H113.35C113.35 109.489 113.162 109.686 113.069 109.769L116.51 113.592ZM118.493 108.795C118.493 107.819 118.291 106.829 117.781 105.922C117.265 105.006 116.515 104.317 115.643 103.832L113.145 108.328C113.224 108.371 113.263 108.405 113.278 108.42C113.292 108.434 113.296 108.44 113.298 108.443C113.3 108.447 113.312 108.468 113.323 108.518C113.336 108.57 113.35 108.659 113.35 108.795H118.493ZM115.705 103.867C114.325 103.05 112.435 102.452 110.237 101.981L109.159 107.01C111.185 107.444 112.425 107.902 113.083 108.292L115.705 103.867ZM110.222 101.978C108.533 101.626 107.11 101.197 105.935 100.707L103.957 105.455C105.497 106.097 107.243 106.611 109.173 107.013L110.222 101.978ZM106.015 100.742C105.054 100.303 104.39 99.7453 103.927 99.0971L99.7415 102.087C100.787 103.55 102.197 104.652 103.877 105.42L106.015 100.742ZM103.951 99.1318C103.593 98.6129 103.274 97.697 103.274 96.1224H98.131C98.131 98.3194 98.5664 100.383 99.7171 102.052L103.951 99.1318ZM103.274 96.1224C103.274 93.9512 103.884 92.6986 104.745 91.9215L101.299 88.1032C99.0677 90.1171 98.131 92.9379 98.131 96.1224H103.274ZM104.77 91.8984C105.692 91.0438 107.187 90.4341 109.641 90.4341V85.2909C106.363 85.2909 103.445 86.1144 101.274 88.1263L104.77 91.8984ZM109.641 90.4341C111.034 90.4341 112.099 90.6298 112.9 90.9396L114.756 86.1432C113.218 85.5478 111.492 85.2909 109.641 85.2909V90.4341ZM112.925 90.9492C113.8 91.2775 114.093 91.609 114.187 91.7619L118.56 89.0548C117.674 87.6236 116.269 86.7105 114.731 86.1336L112.925 90.9492ZM118.813 91.2216L119.436 89.3546L114.556 87.7282L113.934 89.5952L118.813 91.2216ZM116.996 91.113H118.467V85.9698H116.996V91.113ZM115.895 88.5414V96.7447H121.039V88.5414H115.895ZM118.467 94.1732H116.713V99.3163H118.467V94.1732ZM119.235 96.2404L119.065 95.3918L114.022 96.4004L114.192 97.2491L119.235 96.2404ZM119.067 95.4004C118.597 93.0093 117.691 90.8609 116.05 89.3953L112.624 93.2318C113.095 93.6521 113.66 94.5587 114.02 96.3918L119.067 95.4004ZM116.084 89.4266C114.409 87.8759 112.141 87.3276 109.755 87.3276V92.4708C111.442 92.4708 112.228 92.8654 112.59 93.2005L116.084 89.4266ZM109.755 87.3276C107.674 87.3276 105.639 87.7278 104.085 88.9579L107.277 92.9903C107.534 92.7872 108.214 92.4708 109.755 92.4708V87.3276ZM104.096 88.949C102.519 90.183 101.808 91.9407 101.808 93.8594H106.952C106.952 93.2889 107.108 93.123 107.266 92.9992L104.096 88.949ZM101.808 93.8594C101.808 94.9793 102.134 96.038 102.775 96.9639L107.003 94.0363C106.965 93.9815 106.952 93.9465 106.952 93.8594H101.808ZM102.832 97.043C103.582 98.0427 104.709 98.6778 105.767 99.1185L107.745 94.371C107.401 94.2277 107.175 94.1033 107.037 94.011C106.895 93.9163 106.895 93.8887 106.946 93.9571L102.832 97.043ZM105.801 99.1324C106.924 99.5817 108.374 99.9939 110.09 100.384L111.23 95.3686C109.626 95.0042 108.474 94.6621 107.711 94.3571L105.801 99.1324ZM110.118 100.39C111.903 100.775 113.317 101.247 114.402 101.773L116.649 97.1472C115.093 96.3916 113.263 95.807 111.202 95.3624L110.118 100.39ZM114.402 101.773C115.37 102.244 115.977 102.801 116.36 103.397L120.687 100.616C119.712 99.0995 118.321 97.9593 116.649 97.1472L114.402 101.773ZM116.396 103.45C116.742 103.96 117.027 104.787 117.027 106.136H122.17C122.17 104.091 121.739 102.164 120.652 100.562L116.396 103.45ZM117.027 106.136C117.027 108.177 116.428 109.541 115.426 110.519L119.019 114.199C121.185 112.084 122.17 109.3 122.17 106.136H117.027ZM115.426 110.519C114.413 111.508 112.993 112.107 110.886 112.107V117.25C114.059 117.25 116.864 116.303 119.019 114.199L115.426 110.519ZM129.289 113.547L127.635 115.516L127.654 115.532L127.673 115.548L129.289 113.547ZM127.875 90.0123H130.446V87.4408H127.875V90.0123ZM123.292 90.0123H120.721V92.5839H123.292V90.0123ZM123.292 88.598L123.073 86.0358L120.721 86.2374V88.598H123.292ZM126.97 87.0705L128.576 89.0785L128.584 89.0722L126.97 87.0705ZM130.138 83.5063L128.015 82.0541L128.002 82.0734L127.989 82.0929L130.138 83.5063ZM132.514 78.8106V76.239H130.699L130.091 77.9491L132.514 78.8106ZM134.098 78.8106H136.67V76.239H134.098V78.8106ZM134.098 88.598H131.526V91.1695H134.098V88.598ZM140.604 88.598H143.176V86.0264H140.604V88.598ZM140.604 90.0123V92.5839H143.176V90.0123H140.604ZM134.098 90.0123V87.4408H131.526V90.0123H134.098ZM138.341 111.341L139.976 113.326L139.982 113.321L139.987 113.317L138.341 111.341ZM140.434 108.569L141.674 106.316L139.436 105.085L138.19 107.314L140.434 108.569ZM141.566 109.191L143.907 110.255L144.893 108.086L142.805 106.938L141.566 109.191ZM138.341 113.547L139.752 115.697L139.775 115.682L139.798 115.666L138.341 113.547ZM133.702 112.164C132.02 112.164 131.235 111.813 130.905 111.547L127.673 115.548C129.305 116.866 131.462 117.307 133.702 117.307V112.164ZM130.943 111.578C130.74 111.408 130.446 111.042 130.446 109.983H125.303C125.303 112.093 125.952 114.103 127.635 115.516L130.943 111.578ZM130.446 109.983V90.0123H125.303V109.983H130.446ZM127.875 87.4408H123.292V92.5839H127.875V87.4408ZM125.864 90.0123V88.598H120.721V90.0123H125.864ZM123.512 91.1602C125.386 90.9995 127.086 90.2705 128.576 89.0785L125.363 85.0624C124.59 85.6808 123.838 85.9702 123.073 86.0358L123.512 91.1602ZM128.584 89.0722C129.988 87.9402 131.217 86.5444 132.286 84.9196L127.989 82.0929C127.173 83.3346 126.29 84.3149 125.355 85.0687L128.584 89.0722ZM132.26 84.9584C133.371 83.3354 134.262 81.5705 134.937 79.6721L130.091 77.9491C129.559 79.4451 128.866 80.8107 128.015 82.0541L132.26 84.9584ZM132.514 81.3821H134.098V76.239H132.514V81.3821ZM131.526 78.8106V88.598H136.67V78.8106H131.526ZM134.098 91.1695H140.604V86.0264H134.098V91.1695ZM138.032 88.598V90.0123H143.176V88.598H138.032ZM140.604 87.4408H134.098V92.5839H140.604V87.4408ZM131.526 90.0123V109.587H136.67V90.0123H131.526ZM131.526 109.587C131.526 110.723 131.75 112.053 132.635 113.13C133.599 114.303 134.95 114.705 136.191 114.705V109.561C136.098 109.561 136.133 109.547 136.242 109.591C136.297 109.613 136.363 109.648 136.432 109.698C136.5 109.748 136.56 109.805 136.608 109.863C136.705 109.981 136.719 110.059 136.709 110.021C136.697 109.977 136.67 109.844 136.67 109.587H131.526ZM136.191 114.705C137.61 114.705 138.899 114.213 139.976 113.326L136.706 109.356C136.501 109.525 136.356 109.561 136.191 109.561V114.705ZM139.987 113.317C141.016 112.459 141.897 111.223 142.679 109.823L138.19 107.314C137.538 108.479 137.024 109.091 136.695 109.365L139.987 113.317ZM139.195 110.822L140.327 111.444L142.805 106.938L141.674 106.316L139.195 110.822ZM139.225 108.127C138.377 109.993 137.548 110.972 136.884 111.428L139.798 115.666C141.548 114.464 142.869 112.539 143.907 110.255L139.225 108.127ZM136.93 111.397C136.253 111.842 135.238 112.164 133.702 112.164V117.307C135.938 117.307 138.015 116.837 139.752 115.697L136.93 111.397Z" fill="white" mask="url(#path-1-outside-1_1010_2834)"/>
</g>
<defs>
<filter id="filter0_dddddddd_1010_2834" x="0.986435" y="0.856064" width="213.217" height="186.516" filterUnits="userSpaceOnUse" color-interpolation-filters="sRGB">
<feFlood flood-opacity="0" result="BackgroundImageFix"/>
<feColorMatrix in="SourceAlpha" type="matrix" values="0 0 0 0 0 0 0 0 0 0 0 0 0 0 0 0 0 0 127 0" result="hardAlpha"/>
<feOffset/>
<feGaussianBlur stdDeviation="36.3183"/>
<feComposite in2="hardAlpha" operator="out"/>
<feColorMatrix type="matrix" values="0 0 0 0 1 0 0 0 0 1 0 0 0 0 1 0 0 0 1 0"/>
<feBlend mode="normal" in2="BackgroundImageFix" result="effect1_dropShadow_1010_2834"/>
<feColorMatrix in="SourceAlpha" type="matrix" values="0 0 0 0 0 0 0 0 0 0 0 0 0 0 0 0 0 0 127 0" result="hardAlpha"/>
<feOffset/>
<feGaussianBlur stdDeviation="24.6964"/>
<feComposite in2="hardAlpha" operator="out"/>
<feColorMatrix type="matrix" values="0 0 0 0 1 0 0 0 0 1 0 0 0 0 1 0 0 0 0.25 0"/>
<feBlend mode="normal" in2="effect1_dropShadow_1010_2834" result="effect2_dropShadow_1010_2834"/>
<feColorMatrix in="SourceAlpha" type="matrix" values="0 0 0 0 0 0 0 0 0 0 0 0 0 0 0 0 0 0 127 0" result="hardAlpha"/>
<feOffset/>
<feGaussianBlur stdDeviation="24.6964"/>
<feComposite in2="hardAlpha" operator="out"/>
<feColorMatrix type="matrix" values="0 0 0 0 1 0 0 0 0 1 0 0 0 0 1 0 0 0 0.25 0"/>
<feBlend mode="normal" in2="effect2_dropShadow_1010_2834" result="effect3_dropShadow_1010_2834"/>
<feColorMatrix in="SourceAlpha" type="matrix" values="0 0 0 0 0 0 0 0 0 0 0 0 0 0 0 0 0 0 127 0" result="hardAlpha"/>
<feOffset/>
<feGaussianBlur stdDeviation="24.6964"/>
<feComposite in2="hardAlpha" operator="out"/>
<feColorMatrix type="matrix" values="0 0 0 0 1 0 0 0 0 1 0 0 0 0 1 0 0 0 0.25 0"/>
<feBlend mode="normal" in2="effect3_dropShadow_1010_2834" result="effect4_dropShadow_1010_2834"/>
<feColorMatrix in="SourceAlpha" type="matrix" values="0 0 0 0 0 0 0 0 0 0 0 0 0 0 0 0 0 0 127 0" result="hardAlpha"/>
<feOffset/>
<feGaussianBlur stdDeviation="24.6964"/>
<feComposite in2="hardAlpha" operator="out"/>
<feColorMatrix type="matrix" values="0 0 0 0 1 0 0 0 0 1 0 0 0 0 1 0 0 0 0.25 0"/>
<feBlend mode="normal" in2="effect4_dropShadow_1010_2834" result="effect5_dropShadow_1010_2834"/>
<feColorMatrix in="SourceAlpha" type="matrix" values="0 0 0 0 0 0 0 0 0 0 0 0 0 0 0 0 0 0 127 0" result="hardAlpha"/>
<feOffset/>
<feGaussianBlur stdDeviation="24.6964"/>
<feComposite in2="hardAlpha" operator="out"/>
<feColorMatrix type="matrix" values="0 0 0 0 1 0 0 0 0 1 0 0 0 0 1 0 0 0 0.25 0"/>
<feBlend mode="normal" in2="effect5_dropShadow_1010_2834" result="effect6_dropShadow_1010_2834"/>
<feColorMatrix in="SourceAlpha" type="matrix" values="0 0 0 0 0 0 0 0 0 0 0 0 0 0 0 0 0 0 127 0" result="hardAlpha"/>
<feOffset/>
<feGaussianBlur stdDeviation="24.6964"/>
<feComposite in2="hardAlpha" operator="out"/>
<feColorMatrix type="matrix" values="0 0 0 0 1 0 0 0 0 1 0 0 0 0 1 0 0 0 0.25 0"/>
<feBlend mode="normal" in2="effect6_dropShadow_1010_2834" result="effect7_dropShadow_1010_2834"/>
<feColorMatrix in="SourceAlpha" type="matrix" values="0 0 0 0 0 0 0 0 0 0 0 0 0 0 0 0 0 0 127 0" result="hardAlpha"/>
<feOffset/>
<feGaussianBlur stdDeviation="24.6964"/>
<feComposite in2="hardAlpha" operator="out"/>
<feColorMatrix type="matrix" values="0 0 0 0 1 0 0 0 0 1 0 0 0 0 1 0 0 0 0.25 0"/>
<feBlend mode="normal" in2="effect7_dropShadow_1010_2834" result="effect8_dropShadow_1010_2834"/>
<feBlend mode="normal" in="SourceGraphic" in2="effect8_dropShadow_1010_2834" result="shape"/>
</filter>
</defs>
</svg>
