<svg width="259" height="92" viewBox="0 0 259 92" fill="none" xmlns="http://www.w3.org/2000/svg">
<path d="M137.11 18.312H142.024C142.024 18.312 142.024 18.36 142.024 18.456C142.024 19.116 141.76 19.47 141.232 19.518L140.71 19.554H140.602V22.344C140.29 22.92 139.708 23.388 138.856 23.748C138.004 24.096 137.044 24.27 135.976 24.27C134.224 24.27 132.892 23.724 131.98 22.632C131.08 21.528 130.63 19.98 130.63 17.988C130.63 15.996 131.14 14.4 132.16 13.2C133.192 12 134.68 11.4 136.624 11.4C137.992 11.4 139.042 11.628 139.774 12.084C140.506 12.528 140.872 13.086 140.872 13.758C140.872 14.238 140.71 14.61 140.386 14.874C140.062 15.138 139.624 15.27 139.072 15.27C139.072 14.37 138.874 13.716 138.478 13.308C138.094 12.9 137.404 12.696 136.408 12.696C134.116 12.696 132.97 14.382 132.97 17.754C132.97 19.41 133.258 20.646 133.834 21.462C134.422 22.266 135.37 22.668 136.678 22.668C137.686 22.668 138.412 22.434 138.856 21.966V19.59L136.3 19.482C136.228 18.702 136.498 18.312 137.11 18.312ZM152.349 21.066V24H143.295C143.295 23.232 143.559 22.83 144.087 22.794L144.609 22.758V12.948L143.313 12.84C143.277 12.768 143.283 12.606 143.331 12.354C143.439 11.898 143.703 11.67 144.123 11.67H152.007V14.388C152.007 14.928 151.623 15.162 150.855 15.09L150.693 12.966L146.859 12.912V17.376L150.081 16.998C150.213 17.574 150.219 18.168 150.099 18.78L146.859 18.6V22.722L151.053 22.578L151.197 20.364C151.965 20.292 152.349 20.526 152.349 21.066ZM153.523 11.67H164.251V14.208C164.251 14.46 164.173 14.652 164.017 14.784C163.861 14.904 163.723 14.97 163.603 14.982C163.483 14.994 163.315 15 163.099 15L162.919 13.02H160.003V22.722L161.479 22.83C161.551 23.61 161.281 24 160.669 24H156.259C156.259 24 156.259 23.952 156.259 23.856C156.259 23.196 156.523 22.842 157.051 22.794L157.753 22.758V13.02H154.855L154.675 15C154.459 15 154.291 14.994 154.171 14.982C154.051 14.97 153.913 14.904 153.757 14.784C153.601 14.652 153.523 14.46 153.523 14.208V11.67ZM131.422 35.67H135.562C138.538 35.67 140.026 36.738 140.026 38.874C140.026 39.774 139.756 40.536 139.216 41.16C138.688 41.772 137.908 42.192 136.876 42.42C137.56 43.764 138.292 44.814 139.072 45.57C139.852 46.314 140.608 46.686 141.34 46.686C141.28 47.142 141.088 47.52 140.764 47.82C140.452 48.12 140.056 48.27 139.576 48.27C138.772 48.27 137.932 47.67 137.056 46.47C136.18 45.258 135.496 43.968 135.004 42.6H134.284V46.722L135.796 46.83C135.868 47.61 135.598 48 134.986 48H130.72C130.72 48 130.72 47.952 130.72 47.856C130.72 47.196 130.984 46.842 131.512 46.794L132.034 46.758V36.912L130.72 36.804C130.708 36.504 130.762 36.24 130.882 36.012C131.002 35.784 131.182 35.67 131.422 35.67ZM134.284 36.804V41.466C134.38 41.478 134.512 41.484 134.68 41.484C136.684 41.484 137.686 40.656 137.686 39C137.686 38.268 137.488 37.71 137.092 37.326C136.708 36.93 136.144 36.744 135.4 36.768L134.32 36.804H134.284ZM151.364 45.066V48H142.31C142.31 47.232 142.574 46.83 143.102 46.794L143.624 46.758V36.948L142.328 36.84C142.292 36.768 142.298 36.606 142.346 36.354C142.454 35.898 142.718 35.67 143.138 35.67H151.022V38.388C151.022 38.928 150.638 39.162 149.87 39.09L149.708 36.966L145.874 36.912V41.376L149.096 40.998C149.228 41.574 149.234 42.168 149.114 42.78L145.874 42.6V46.722L150.068 46.578L150.212 44.364C150.98 44.292 151.364 44.526 151.364 45.066ZM161.431 35.67V38.388C161.431 38.928 161.047 39.162 160.279 39.09L160.117 37.038L156.463 36.912V41.268L159.685 40.89C159.817 41.466 159.823 42.06 159.703 42.672L156.463 42.492V46.722L158.119 46.83C158.191 47.61 157.921 48 157.309 48H152.899C152.899 48 152.899 47.952 152.899 47.856C152.899 47.196 153.163 46.842 153.691 46.794L154.213 46.758V36.948L152.917 36.84C152.881 36.768 152.887 36.606 152.935 36.354C153.043 35.898 153.307 35.67 153.727 35.67H161.431ZM171.75 45.066V48H162.696C162.696 47.232 162.96 46.83 163.488 46.794L164.01 46.758V36.948L162.714 36.84C162.678 36.768 162.684 36.606 162.732 36.354C162.84 35.898 163.104 35.67 163.524 35.67H171.408V38.388C171.408 38.928 171.024 39.162 170.256 39.09L170.094 36.966L166.26 36.912V41.376L169.482 40.998C169.614 41.574 169.62 42.168 169.5 42.78L166.26 42.6V46.722L170.454 46.578L170.598 44.364C171.366 44.292 171.75 44.526 171.75 45.066ZM173.986 35.67H178.126C181.102 35.67 182.59 36.738 182.59 38.874C182.59 39.774 182.32 40.536 181.78 41.16C181.252 41.772 180.472 42.192 179.44 42.42C180.124 43.764 180.856 44.814 181.636 45.57C182.416 46.314 183.172 46.686 183.904 46.686C183.844 47.142 183.652 47.52 183.328 47.82C183.016 48.12 182.62 48.27 182.14 48.27C181.336 48.27 180.496 47.67 179.62 46.47C178.744 45.258 178.06 43.968 177.568 42.6H176.848V46.722L178.36 46.83C178.432 47.61 178.162 48 177.55 48H173.284C173.284 48 173.284 47.952 173.284 47.856C173.284 47.196 173.548 46.842 174.076 46.794L174.598 46.758V36.912L173.284 36.804C173.272 36.504 173.326 36.24 173.446 36.012C173.566 35.784 173.746 35.67 173.986 35.67ZM176.848 36.804V41.466C176.944 41.478 177.076 41.484 177.244 41.484C179.248 41.484 180.25 40.656 180.25 39C180.25 38.268 180.052 37.71 179.656 37.326C179.272 36.93 178.708 36.744 177.964 36.768L176.884 36.804H176.848ZM185.577 35.67H189.717C192.693 35.67 194.181 36.738 194.181 38.874C194.181 39.774 193.911 40.536 193.371 41.16C192.843 41.772 192.063 42.192 191.031 42.42C191.715 43.764 192.447 44.814 193.227 45.57C194.007 46.314 194.763 46.686 195.495 46.686C195.435 47.142 195.243 47.52 194.919 47.82C194.607 48.12 194.211 48.27 193.731 48.27C192.927 48.27 192.087 47.67 191.211 46.47C190.335 45.258 189.651 43.968 189.159 42.6H188.439V46.722L189.951 46.83C190.023 47.61 189.753 48 189.141 48H184.875C184.875 48 184.875 47.952 184.875 47.856C184.875 47.196 185.139 46.842 185.667 46.794L186.189 46.758V36.912L184.875 36.804C184.863 36.504 184.917 36.24 185.037 36.012C185.157 35.784 185.337 35.67 185.577 35.67ZM188.439 36.804V41.466C188.535 41.478 188.667 41.484 188.835 41.484C190.839 41.484 191.841 40.656 191.841 39C191.841 38.268 191.643 37.71 191.247 37.326C190.863 36.93 190.299 36.744 189.555 36.768L188.475 36.804H188.439ZM206.545 48H202.333V47.856C202.333 47.196 202.597 46.842 203.125 46.794L203.647 46.758H203.665L202.945 44.148H199.705L198.949 46.722L200.407 46.83C200.443 46.902 200.437 47.064 200.389 47.316C200.281 47.772 200.017 48 199.597 48H195.979V47.856C195.979 47.196 196.243 46.842 196.771 46.794L197.437 46.758L200.893 35.67C201.409 35.622 202.015 35.622 202.711 35.67L206.095 46.722L207.355 46.83C207.391 46.902 207.385 47.064 207.337 47.316C207.229 47.772 206.965 48 206.545 48ZM200.047 42.942H202.621L201.379 38.388L200.047 42.942ZM217.51 44.814V48H208.618V47.856C208.618 47.196 208.882 46.842 209.41 46.794L209.932 46.758V36.948L208.672 36.84C208.636 36.768 208.642 36.606 208.69 36.354C208.798 35.898 209.062 35.67 209.482 35.67H213.892V35.832C213.892 36.3 213.754 36.618 213.478 36.786C213.37 36.846 213.244 36.876 213.1 36.876L212.218 36.912H212.182V46.722L216.07 46.596L216.358 44.112C217.126 44.04 217.51 44.274 217.51 44.814ZM226.215 36.3C226.563 36.648 226.737 37.08 226.737 37.596C226.737 38.112 226.581 38.502 226.269 38.766C225.957 39.03 225.555 39.126 225.063 39.054C225.063 37.53 224.397 36.768 223.065 36.768C222.477 36.768 221.997 36.906 221.625 37.182C221.265 37.446 221.085 37.812 221.085 38.28C221.085 38.64 221.169 38.91 221.337 39.09C221.505 39.258 221.631 39.384 221.715 39.468C221.799 39.54 221.955 39.642 222.183 39.774C222.423 39.894 222.591 39.978 222.687 40.026C222.795 40.074 223.005 40.17 223.317 40.314C223.641 40.446 223.857 40.536 223.965 40.584C225.189 41.124 226.047 41.64 226.539 42.132C227.043 42.624 227.295 43.308 227.295 44.184C227.295 45.396 226.869 46.38 226.017 47.136C225.165 47.892 224.013 48.27 222.561 48.27C221.097 48.27 219.999 47.94 219.267 47.28C218.871 46.908 218.673 46.476 218.673 45.984C218.673 45.48 218.829 45.084 219.141 44.796C219.465 44.508 219.945 44.364 220.581 44.364C220.581 45.24 220.761 45.882 221.121 46.29C221.493 46.698 222.075 46.902 222.867 46.902C223.659 46.902 224.283 46.722 224.739 46.362C225.195 45.99 225.423 45.528 225.423 44.976C225.423 44.424 225.207 43.98 224.775 43.644C224.343 43.308 223.767 42.984 223.047 42.672C222.327 42.36 221.853 42.156 221.625 42.06C221.397 41.952 221.097 41.784 220.725 41.556C220.353 41.316 220.083 41.088 219.915 40.872C219.447 40.296 219.213 39.636 219.213 38.892C219.213 37.752 219.633 36.888 220.473 36.3C221.313 35.7 222.327 35.4 223.515 35.4C224.703 35.4 225.603 35.7 226.215 36.3Z" fill="#965BD6"/>
<path d="M12.2735 22.3388L28.0802 19.5948L30.2102 31.0884L26.4656 29.3554L13.9758 31.5238L12.2735 22.3388Z" fill="#68BEE2"/>
<path d="M35.336 11.467L37.4659 22.9605L40.3505 20.0774L52.845 17.908L51.1427 8.72301L35.336 11.467Z" fill="#68BEE2"/>
<path d="M9.91926 20.7217L12.3494 33.8363L26.1966 31.4324L32.9024 34.5188L29.709 17.2864L9.91926 20.7217ZM30.2111 31.0885L26.4668 29.3574L13.9769 31.5254L12.2746 22.3404L28.0814 19.5964L30.2111 31.088L30.2111 31.0885Z" fill="#1A1A1A"/>
<path d="M17.8301 27.1074L15.8816 27.4453L15.5257 25.5234L17.4737 25.185L17.8301 27.1074Z" fill="#1A1A1A"/>
<path d="M22.1855 26.3506L20.2375 26.6889L19.8811 24.7665L21.8296 24.4286L22.1855 26.3506Z" fill="#1A1A1A"/>
<path d="M26.541 25.5927L24.593 25.9306L24.2366 24.0087L26.1846 23.6703L26.541 25.5927Z" fill="#1A1A1A"/>
<path d="M32.9798 9.84794L36.1734 27.0828L41.3476 21.9317L55.1997 19.5273L52.7695 6.41265L32.9798 9.84794ZM35.3352 11.4671L51.1419 8.72311L52.8442 17.9081L40.3497 20.077L37.4652 22.9611L35.3352 11.4671Z" fill="#1A1A1A"/>
<path d="M47.6374 15.065L49.5859 14.727L49.2296 12.8046L47.2816 13.143L47.6374 15.065Z" fill="#1A1A1A"/>
<path d="M43.2824 15.821L45.2304 15.4826L44.8741 13.5607L42.9261 13.8986L43.2824 15.821Z" fill="#1A1A1A"/>
<path d="M38.925 16.5769L40.873 16.239L40.5171 14.317L38.5686 14.655L38.925 16.5769Z" fill="#1A1A1A"/>
<path d="M74.4562 37.7048C73.4926 37.0426 72.3603 36.6982 71.2285 36.6921L73.2351 47.5203C74.2941 47.1336 75.2326 46.4298 75.8978 45.485C76.7586 44.2633 77.0822 42.7807 76.8099 41.3114C76.5376 39.842 75.7016 38.5611 74.4557 37.7048L74.4562 37.7048Z" fill="#68BEE2"/>
<path d="M20.9965 56.82L18.7317 57.2134L16.6471 45.9649L18.9124 45.5719L20.9965 56.82Z" fill="white"/>
<path d="M48.0309 56.5666L23.7852 60.7755L20.1036 40.9072L44.3488 36.6983L48.0309 56.5666Z" fill="white"/>
<path d="M46.2913 36.0638L61.1199 23.7436L68.4069 63.0672L50.0786 56.5007L46.2913 36.0638Z" fill="white"/>
<path d="M74.3516 64.6697L70.8665 65.2747L62.6383 20.8714L66.1229 20.2664L74.3516 64.6697Z" fill="#ED2D34"/>
<path d="M25.4335 44.6447L23.4856 44.9831L23.1292 43.0612L25.0777 42.7228L25.4335 44.6447Z" fill="#1A1A1A"/>
<path d="M29.791 43.8911L27.8425 44.229L27.4866 42.3071L29.4346 41.9687L29.791 43.8911Z" fill="#1A1A1A"/>
<path d="M25.7537 57.9227L45.1697 54.552L44.8058 52.5872L25.3893 55.958L25.7537 57.9227Z" fill="#1A1A1A"/>
<path d="M70.8587 34.7035L67.7548 17.955L60.2872 19.2513L60.699 21.4726L44.9395 34.565L17.752 39.2847L18.5532 43.6071L14.2965 44.3463L17.1089 59.5239L21.3656 58.7847L22.162 63.0826L30.1203 61.7012L37.6871 78.2844L45.1399 76.9906L44.275 72.3244L41.3179 69.2613L40.5863 65.313C43.0753 64.1858 44.7607 61.8107 44.9934 59.1193L49.3495 58.3629L68.8264 65.3309L69.2438 67.5841L76.7114 66.2878L73.6015 49.5071C77.2214 48.3821 79.5041 44.7547 78.8016 40.9648C78.099 37.1744 74.6567 34.541 70.8582 34.704L70.8587 34.7035ZM21.0012 56.82L18.736 57.2135L16.6514 45.9655L18.9167 45.572L21.0012 56.82ZM42.3926 73.2594L42.784 75.3715L38.8722 76.0503L32.1648 61.3459L37.6199 60.3988L39.4356 70.1982L42.3926 73.2594ZM41.9926 61.6276C41.5159 62.3046 40.9018 62.857 40.2052 63.2577L39.6114 60.0537L42.902 59.4822C42.7583 60.2442 42.4534 60.9728 41.992 61.6272L41.9926 61.6276ZM48.0344 56.5638L23.7891 60.7727L20.1075 40.9044L44.3527 36.6955L48.0344 56.5638ZM64.045 39.5312L65.4795 47.2729L68.4056 63.0619L50.0776 56.4993L46.2902 36.0605L46.2897 36.0552L46.2882 36.0553L61.1194 23.7422L64.0455 39.5312L64.045 39.5312ZM74.356 64.6692L70.8709 65.2742L62.6427 20.8709L66.1278 20.2659L74.356 64.6692ZM75.8961 45.4843C75.2304 46.4291 74.2923 47.1329 73.2334 47.5196L71.2268 36.6914C72.3586 36.6975 73.4908 37.0419 74.4544 37.7041C75.7004 38.5603 76.5364 39.8412 76.8086 41.3106C77.0809 42.78 76.7568 44.2621 75.8966 45.4842L75.8961 45.4843Z" fill="#1A1A1A"/>
<path d="M32.1661 61.3462L38.8734 76.0501L42.7852 75.3713L42.3938 73.2592L39.4369 70.198L37.6212 60.3991L32.1661 61.3462Z" fill="#DB2A30"/>
<path opacity="0.1" d="M75.8983 45.491C76.7581 44.2704 77.0782 42.7769 76.8104 41.3282L72.234 42.1227L73.2345 47.5206C74.2934 47.1339 75.2331 46.4363 75.8983 45.4915L75.8983 45.491Z" fill="black"/>
<path opacity="0.1" d="M21.0032 56.8212L19.9607 51.1974L17.6959 51.5904L18.738 57.2147L21.0032 56.8212Z" fill="black"/>
<path opacity="0.1" d="M48.0353 56.5635L46.1969 46.6418L21.9512 50.8508L23.7901 60.7724L48.0353 56.5635Z" fill="black"/>
<path opacity="0.1" d="M68.4067 63.0667L64.7656 43.4194L48.1873 46.2975L50.0784 56.5002L68.4067 63.0667Z" fill="black"/>
<path opacity="0.1" d="M74.3566 64.6697L70.2425 42.4683L66.7574 43.0733L70.8715 65.2747L74.3566 64.6697Z" fill="black"/>
<path d="M105.17 33.4044L120.009 28.2963L99.1326 31.2959L101.946 35.2108L84.7518 40.2614L108.267 37.7132L105.17 33.4044Z" fill="#FFA500"/>
<path d="M98.5045 24.1232L95.466 21.8134L104.503 15.2215L90.8912 21.6251L93.652 23.7232L82.994 30.7661L98.5045 24.1232Z" fill="#FFA500"/>
<path d="M97.2951 47.5286L97.8727 50.9093L85.1564 48.8589L101.165 54.4631L100.53 50.7421L111.742 52.0305L97.2951 47.5286Z" fill="#FFA500"/>
<path opacity="0.1" d="M129.5 91.9981C201.021 91.9981 259 90.6428 259 88.9709C259 87.2989 201.021 85.9436 129.5 85.9436C57.9791 85.9436 0 87.2989 0 88.9709C0 90.6428 57.9791 91.9981 129.5 91.9981Z" fill="#1A1A1A"/>
<path d="M243.645 24.1763L248.219 27.943L236.521 33.8615L243.645 24.1763Z" fill="#FFA500"/>
<path d="M232 17L237.922 17.1863L232.28 29.0194L232 17Z" fill="#FFA500"/>
<path d="M251.001 38.7542L250.965 44.6787L238.992 39.3407L251.001 38.7542Z" fill="#FFA500"/>
</svg>
