<svg width="470" height="547" viewBox="0 0 470 547" fill="none" xmlns="http://www.w3.org/2000/svg">
<g style="mix-blend-mode:overlay">
<path d="M14.6433 336.052C81.1967 551.556 249.129 560.522 324.777 538.067C395.105 511.84 364.045 461.27 339.724 439.264C317.835 399.086 297.331 305.216 390.43 251.162C483.528 197.107 475.356 123.96 459.633 94.1434C408.62 -5.61361 280.709 -6.02415 223.13 6.24018C125.904 26.3838 -51.9101 120.547 14.6433 336.052Z" fill="#FF00C7"/>
<path d="M14.6433 336.052C81.1967 551.556 249.129 560.522 324.777 538.067C395.105 511.84 364.045 461.27 339.724 439.264C317.835 399.086 297.331 305.216 390.43 251.162C483.528 197.107 475.356 123.96 459.633 94.1434C408.62 -5.61361 280.709 -6.02415 223.13 6.24018C125.904 26.3838 -51.9101 120.547 14.6433 336.052Z" stroke="#434343"/>
</g>
</svg>
