<svg width="43" height="43" viewBox="0 0 43 43" fill="none" xmlns="http://www.w3.org/2000/svg">
<g id="Capa_1">
<g clip-path="url(#clip0_1010_2839)">
<g id="Clip path group">
<mask id="mask0_1010_2839" style="mask-type:luminance" maskUnits="userSpaceOnUse" x="0" y="0" width="43" height="43">
<g id="clippath">
<path id="Vector" d="M36.2068 36.2131C44.3975 28.0158 44.3975 14.7254 36.2068 6.52816C28.016 -1.6691 14.7362 -1.6691 6.54548 6.52816C-1.64525 14.7254 -1.64525 28.0158 6.54548 36.2131C14.7362 44.4103 28.016 44.4103 36.2068 36.2131Z" fill="white"/>
</g>
</mask>
<g mask="url(#mask0_1010_2839)">
<g id="Group">
<path id="Vector_2" d="M36.2068 36.2131C44.3975 28.0158 44.3975 14.7254 36.2068 6.52816C28.016 -1.6691 14.7362 -1.6691 6.54548 6.52816C-1.64525 14.7254 -1.64525 28.0158 6.54548 36.2131C14.7362 44.4103 28.016 44.4103 36.2068 36.2131Z" fill="#FFB8B3"/>
<g id="Group_2">
<g id="Group_3">
<g id="Group_4">
<g id="Group_5">
<path id="Vector_3" d="M29.6813 49.3405H35.3911C34.9284 43.4771 34.4928 38.3909 34.4836 38.2878C34.6523 35.1955 34.1056 31.2335 34.0522 30.8629C34.4544 29.8864 33.9964 28.884 33.9771 28.8414C33.9682 28.8234 33.9556 28.8094 33.9393 28.7982C33.1315 28.2888 28.542 26.7815 28.3465 26.7172C28.3363 26.7141 28.3261 26.7124 28.3152 26.7124C28.2941 26.7124 28.2727 26.7195 28.2557 26.7321C28.2288 26.7515 28.2139 26.7832 28.2149 26.8162L28.7718 44.1028C28.9843 45.3574 29.31 47.223 29.682 49.3405H29.6813Z" fill="#26678A"/>
<path id="Vector_4" d="M28.6716 44.1193C28.8834 45.3697 29.2074 47.2289 29.5783 49.3399H29.7823C29.4097 47.2194 29.0833 45.348 28.8695 44.0856L28.3143 26.8126C28.3143 26.8126 33.0779 28.3747 33.885 28.8834C33.885 28.8834 34.3566 29.8947 33.9486 30.8494C33.9486 30.8494 34.5606 35.0231 34.3824 38.2821C34.3824 38.2821 34.8234 43.4136 35.2909 49.3403H35.4908C35.0383 43.597 34.6106 38.5955 34.5834 38.279C34.7472 35.2425 34.2257 31.3809 34.1553 30.8753C34.5555 29.8664 34.0876 28.8419 34.0672 28.798C34.0509 28.7636 34.0247 28.734 33.9918 28.7136C33.1737 28.1978 28.5723 26.6857 28.3772 26.622C28.3568 26.6149 28.3357 26.6118 28.3143 26.6118C28.2718 26.6118 28.2296 26.6251 28.1942 26.652C28.1415 26.6911 28.112 26.754 28.1133 26.8194L28.6685 44.0924C28.6692 44.1019 28.6702 44.1104 28.6716 44.12V44.1193Z" fill="black"/>
</g>
<path id="Vector_5" d="M29.7806 49.3403H31.8028L33.0227 44.7291L34.3076 37.1362L30.4123 44.7291L31.7535 39.8484L29.5331 28.5949L28.7014 26.9416C28.459 26.8606 28.3125 26.813 28.3125 26.813L28.8677 44.086C29.0819 45.3484 29.4083 47.2198 29.7806 49.3403Z" fill="#185773"/>
</g>
<path id="Vector_6" d="M33.3749 38.9419C33.0853 39.7538 32.7958 40.566 32.5059 41.3778" stroke="black" stroke-width="0.206037" stroke-linecap="round" stroke-linejoin="round"/>
</g>
<g id="Group_6">
<path id="Vector_7" d="M3.02784 49.3363C3.51505 48.1706 4.59214 45.5533 5.09397 44.0174L13.0684 36.8657C13.0912 36.8453 13.1038 36.815 13.1011 36.7841L12.4408 27.1605C12.4384 27.1315 12.4235 27.104 12.3993 27.0859C12.382 27.074 12.3616 27.0669 12.3405 27.0669C12.332 27.0669 12.3242 27.0686 12.3154 27.0703C12.2906 27.0764 9.79672 27.7413 8.41194 30.0901C8.34462 30.182 1.65734 39.2704 0.038642 42.738C0.0284424 42.7649 -0.99527 45.5006 -1.2965 48.1059C-1.3577 48.2162 -1.63751 48.7558 -1.63275 49.3363H3.02818H3.02784Z" fill="#26678A"/>
<path id="Vector_8" d="M-1.53009 49.3365C-1.53485 48.7185 -1.19928 48.1377 -1.19928 48.1377C-0.898725 45.5085 0.132807 42.7735 0.132807 42.7735C1.76374 39.2817 8.49284 30.1501 8.49284 30.1501C9.8783 27.8017 12.3405 27.1677 12.3405 27.1677L13.0011 36.7917L5.00725 43.9613C4.50203 45.514 3.4008 48.1864 2.92005 49.3365H3.13731C3.62995 48.1564 4.6812 45.598 5.18167 44.075L13.1354 36.9404C13.1817 36.8992 13.2061 36.839 13.2021 36.7771L12.5408 27.1538C12.537 27.0942 12.5061 27.0395 12.4585 27.0048C12.4242 26.9796 12.3823 26.9663 12.3409 26.9663C12.3245 26.9663 12.3072 26.9687 12.2909 26.9728C12.1872 26.9997 9.73755 27.6526 8.32625 30.0392C7.97401 30.5173 1.56145 39.2406 -0.0490881 42.6878C-0.0654078 42.7293 -1.08776 45.4636 -1.39341 48.0748C-1.47263 48.2224 -1.73612 48.758 -1.73238 49.3365H-1.53009Z" fill="black"/>
</g>
<g id="Group_7">
<g id="Group_8">
<g id="Group_9">
<g id="Group_10">
<path id="Vector_9" d="M20.7035 29.8843C20.6712 29.8843 20.6399 29.8683 20.6202 29.8401L17.5619 25.3592C17.547 25.3364 17.5415 25.3088 17.547 25.2813C18.0546 22.9331 17.5511 19.5087 17.5463 19.4743C17.5409 19.4413 17.5534 19.407 17.5786 19.3849C17.5973 19.3685 17.6211 19.359 17.6452 19.359C17.6537 19.359 17.6633 19.3607 17.6718 19.3631L20.6644 20.1749L23.7668 19.3335C23.7753 19.3311 23.7848 19.3301 23.7933 19.3301C23.8174 19.3301 23.8412 19.3389 23.8599 19.3556C23.8851 19.3784 23.8973 19.4121 23.8919 19.4458C23.8871 19.4798 23.3836 22.9038 23.8912 25.2527C23.895 25.2707 23.8936 25.2901 23.8871 25.3085C23.8283 25.4677 22.4337 29.2276 20.7392 29.8772C20.7276 29.8823 20.7147 29.8847 20.7031 29.8847L20.7035 29.8843Z" fill="#FAB18C"/>
<path id="Vector_10" d="M23.7928 19.4312C23.7928 19.4312 23.2753 22.8798 23.7928 25.2742C23.7928 25.2742 22.3747 29.143 20.7029 29.7844L17.6444 25.3035C18.1618 22.909 17.6444 19.4605 17.6444 19.4605L20.6863 20.2853V20.2737L23.7924 19.4316M23.7924 19.2305C23.7751 19.2305 23.7571 19.2329 23.7397 19.2376L20.6632 20.0713L17.6964 19.2665C17.6791 19.2618 17.661 19.2594 17.644 19.2594C17.5954 19.2594 17.5475 19.2774 17.5108 19.3104C17.4598 19.356 17.4353 19.4234 17.4458 19.4901C17.4506 19.5245 17.9514 22.9312 17.4479 25.2609C17.4363 25.315 17.4472 25.3715 17.4785 25.4174L20.537 29.8973C20.5754 29.9541 20.638 29.9855 20.7026 29.9855C20.7271 29.9855 20.7512 29.9807 20.7747 29.9722C22.5107 29.3056 23.922 25.5052 23.9808 25.3436C23.994 25.3075 23.9964 25.2694 23.9886 25.232C23.4851 22.9005 23.9855 19.4952 23.991 19.4612C24.0012 19.3938 23.977 19.3261 23.926 19.2815C23.8893 19.2478 23.8414 19.2305 23.7928 19.2305H23.7924Z" fill="black"/>
</g>
<path id="Vector_11" opacity="0.8" d="M23.688 24.677C23.3848 22.5432 23.7217 19.9266 23.7822 19.4976L23.3681 19.5452L20.6852 20.273V20.2846L19.5687 19.9824L17.7324 20.1937C17.8028 20.861 17.8861 21.9035 17.8698 23.0026C18.5742 23.7114 20.2834 24.889 23.6877 24.677H23.688Z" fill="#F4816C"/>
<g id="Group_11">
<g id="Group_12">
<g id="Group_13">
<path id="Vector_12" d="M14.8948 17.9331C14.3781 17.9331 13.883 17.291 13.6899 16.371C13.4764 15.31 13.7481 14.2981 14.308 14.0654C14.3842 14.0337 14.4627 14.0181 14.5426 14.0181C15.0621 14.0181 15.5561 14.6601 15.7445 15.5792C15.9617 16.6428 15.6918 17.6558 15.1294 17.8858C15.0543 17.9171 14.9747 17.9328 14.8948 17.9328V17.9331Z" fill="#FAB18C"/>
<path id="Vector_13" d="M14.5428 14.1184C14.9977 14.1184 15.4662 14.7231 15.6464 15.5996C15.8521 16.6085 15.6042 17.5826 15.0918 17.7933C15.0266 17.8201 14.9609 17.8327 14.895 17.8327C14.4384 17.8327 13.9716 17.2274 13.7883 16.3505C13.5867 15.3488 13.8298 14.3729 14.3469 14.1579C14.4112 14.131 14.4771 14.1184 14.5431 14.1184M14.5431 13.9173C14.4496 13.9173 14.3581 13.9354 14.2711 13.9714C13.6578 14.2266 13.3657 15.2661 13.5918 16.3893C13.7951 17.3584 14.3306 18.0331 14.8957 18.0331C14.9881 18.0331 15.0799 18.0151 15.1687 17.979C15.7837 17.7269 16.0741 16.6871 15.8442 15.5594C15.6457 14.5924 15.1109 13.917 14.5434 13.917L14.5431 13.9173Z" fill="black"/>
</g>
<path id="Vector_14" opacity="0.8" d="M14.2637 14.9263C14.2637 14.9263 14.0864 17.2602 15.0095 17.2098C15.0095 17.2098 15.6648 15.7889 14.493 14.8501L14.2637 14.9263Z" fill="#F4816C"/>
<g id="Group_14">
<path id="Vector_15" d="M14.3401 16.1627C14.3401 16.1627 14.3214 16.0797 14.3095 15.9517C14.301 15.8235 14.2898 15.6486 14.3504 15.4737C14.3762 15.3859 14.4351 15.3001 14.5144 15.2437C14.5947 15.1885 14.6916 15.1668 14.7634 15.1722C14.9142 15.1722 14.9989 15.214 15.002 15.2079L14.9288 15.3998C14.9295 15.4063 14.8584 15.3614 14.7546 15.3457C14.7012 15.3325 14.6433 15.3396 14.5872 15.3638C14.5331 15.3913 14.4783 15.4424 14.4449 15.5145C14.3704 15.6537 14.3507 15.8272 14.3415 15.9511C14.3337 16.0773 14.3398 16.1627 14.3398 16.1627H14.3401Z" fill="black"/>
<path id="Vector_16" d="M14.0529 16.3229C14.0529 16.3229 14.0349 16.2538 14.0036 16.132C13.9785 16.0112 13.9455 15.8288 13.9496 15.6093C13.9686 15.3939 13.9771 15.1183 14.1882 14.8737C14.3113 14.7536 14.5068 14.7168 14.6768 14.8179C14.8298 14.9012 14.9155 15.034 15.0018 15.1602C15.077 15.2929 15.1351 15.431 15.18 15.5709C15.2201 15.706 15.2551 15.8581 15.2687 15.9877C15.3065 16.2555 15.2922 16.5263 15.2453 16.738C15.231 16.8472 15.1871 16.9432 15.1542 17.0255C15.1093 17.1051 15.0739 17.1745 15.0239 17.2191C14.9855 17.2715 14.9362 17.2923 14.9056 17.3069C14.8757 17.3219 14.8601 17.3304 14.8601 17.3304C14.8536 17.3232 14.9304 17.2974 14.9927 17.1929C15.0318 17.1466 15.0539 17.0752 15.0828 16.9973C15.0991 16.9142 15.1253 16.8237 15.1314 16.7196C15.1565 16.5097 15.1378 16.2752 15.0892 16.0153C15.0695 15.8795 15.0287 15.7648 14.991 15.6315C14.9478 15.5042 14.892 15.3803 14.8254 15.265C14.7557 15.1575 14.6771 15.0411 14.5792 14.9901C14.5102 14.9383 14.3878 14.9336 14.3123 15.005C14.1576 15.1629 14.0944 15.4181 14.0645 15.6182C14.059 15.7216 14.04 15.8176 14.0424 15.9023C14.0414 15.9877 14.0356 16.0632 14.0431 16.1262C14.0492 16.2511 14.0533 16.3225 14.0533 16.3225L14.0529 16.3229Z" fill="black"/>
</g>
</g>
<g id="Group_15">
<g id="Group_16">
<path id="Vector_17" d="M26.4386 17.9308C26.3587 17.9308 26.2795 17.9152 26.2033 17.8839C25.6417 17.6538 25.3717 16.6409 25.5883 15.5783C25.7773 14.6582 26.2717 14.0161 26.7901 14.0161C26.87 14.0161 26.9496 14.0314 27.0247 14.0624C27.5847 14.2961 27.857 15.3081 27.6435 16.3683C27.4504 17.2891 26.9547 17.9312 26.4386 17.9312V17.9308Z" fill="#FAB18C"/>
<path id="Vector_18" d="M26.7886 14.1166C26.8546 14.1166 26.9202 14.1292 26.9848 14.1561C27.5016 14.3711 27.745 15.347 27.5431 16.3487C27.3595 17.2256 26.8937 17.8309 26.4371 17.8309C26.3705 17.8309 26.3045 17.8187 26.2396 17.7914C25.7272 17.5812 25.4797 16.607 25.685 15.5978C25.8656 14.7213 26.3337 14.1166 26.7886 14.1166ZM26.7886 13.9155C26.2215 13.9155 25.6874 14.5906 25.4889 15.558C25.2583 16.6853 25.5494 17.7254 26.1634 17.9776C26.2521 18.0136 26.3439 18.0317 26.4371 18.0317C27.0011 18.0317 27.537 17.3566 27.7399 16.3896C27.9667 15.2653 27.675 14.2252 27.062 13.97C26.9733 13.9339 26.8818 13.9159 26.7883 13.9159L26.7886 13.9155Z" fill="black"/>
</g>
<g id="Group_17" opacity="0.8">
<path id="Vector_19" d="M25.6835 15.5993C25.4782 16.6081 25.7257 17.5823 26.2381 17.7929C26.7511 18.0018 27.3315 17.354 27.5419 16.3502C27.7435 15.3485 27.5004 14.3726 26.9837 14.1576C26.4754 13.948 25.8902 14.5955 25.6839 15.5993H25.6835Z" fill="#F4816C"/>
</g>
<g id="Group_18">
<path id="Vector_20" d="M26.9945 16.1578C26.9945 16.1578 27 16.0724 26.9921 15.9462C26.983 15.8223 26.9639 15.6488 26.8887 15.5096C26.8557 15.4375 26.8009 15.3864 26.7465 15.3589C26.6907 15.3347 26.6325 15.3276 26.5791 15.3408C26.4756 15.3565 26.4042 15.4014 26.4048 15.3949L26.332 15.203C26.3351 15.2092 26.4198 15.1673 26.5706 15.1673C26.642 15.1619 26.7393 15.184 26.8203 15.2388C26.8989 15.2952 26.9578 15.381 26.9836 15.4688C27.0442 15.6437 27.033 15.8189 27.0245 15.9468C27.0132 16.0748 26.9949 16.1578 26.9949 16.1578H26.9945Z" fill="black"/>
<path id="Vector_21" d="M27.2792 16.3178C27.2792 16.3178 27.2833 16.2463 27.2894 16.1215C27.2972 16.0588 27.2911 15.9833 27.2901 15.8976C27.2925 15.8128 27.2738 15.7169 27.268 15.6134C27.2384 15.4134 27.1755 15.1582 27.0201 15.0003C26.9457 14.9288 26.8226 14.9336 26.7536 14.9853C26.6557 15.0364 26.5778 15.1527 26.5071 15.2603C26.4405 15.3756 26.3854 15.4995 26.3425 15.6267C26.3041 15.7601 26.2633 15.8748 26.2436 16.0105C26.195 16.2705 26.1763 16.5049 26.2021 16.7149C26.2076 16.8193 26.2334 16.9095 26.2507 16.9925C26.279 17.0701 26.3017 17.1419 26.3402 17.1882C26.402 17.2926 26.4789 17.3185 26.4728 17.3256C26.4728 17.3256 26.4571 17.3168 26.4272 17.3022C26.3973 17.2872 26.348 17.2668 26.3085 17.2144C26.2586 17.1698 26.2232 17.1004 26.179 17.0208C26.146 16.9384 26.1022 16.8425 26.0872 16.7332C26.041 16.5216 26.027 16.2508 26.0644 15.983C26.077 15.8533 26.1124 15.7012 26.1532 15.5661C26.1977 15.4263 26.2552 15.2885 26.3303 15.1555C26.4167 15.0292 26.502 14.8965 26.6553 14.8132C26.8253 14.7118 27.0215 14.7488 27.1439 14.869C27.355 15.1136 27.3646 15.3892 27.3829 15.6046C27.387 15.8241 27.354 16.0064 27.3282 16.1272C27.2966 16.2491 27.2789 16.3181 27.2789 16.3181L27.2792 16.3178Z" fill="black"/>
</g>
</g>
<g id="Group_19">
<path id="Vector_22" d="M20.7183 23.3534C18.2584 23.3534 15.3474 19.8287 15.3474 16.8511L15.1309 8.23291H26.3064L26.0405 16.8545C26.0405 19.8287 23.1553 23.3534 20.7183 23.3534Z" fill="#FAB18C"/>
<path id="Vector_23" d="M26.2028 8.33342L25.94 16.8512C25.94 19.8792 23.0025 23.2532 20.7185 23.2532C18.4344 23.2532 15.4479 19.8788 15.4479 16.8512L15.2337 8.33342H26.2028ZM26.4099 8.13232H15.0273L15.0328 8.33784L15.247 16.8556C15.247 19.8751 18.2127 23.454 20.7185 23.454C23.2242 23.454 26.141 19.8751 26.141 16.8508L26.4038 8.33954L26.4102 8.13232H26.4099Z" fill="black"/>
</g>
<path id="Vector_24" d="M19.834 20.7261C19.834 20.7261 20.8931 21.4046 21.9661 20.7261C21.9661 20.7261 21.0512 22.3403 19.834 20.7261Z" fill="#F4816C"/>
<path id="Vector_25" opacity="0.8" d="M15.2422 8.65234L15.385 14.318C15.7733 13.6555 16.2285 11.9008 16.5093 10.7579C16.5093 10.7579 21.6792 11.7627 24.7697 11.2935C24.7697 11.2935 24.7109 13.7311 25.514 14.8475C25.514 14.8475 25.3437 20.2485 22.3936 22.7364C23.913 21.8586 25.3532 19.9783 25.7989 18.0385C25.806 18.0065 25.8132 17.9748 25.8193 17.9428C25.8489 17.8023 25.872 17.6611 25.8917 17.5196C25.8978 17.4716 25.906 17.4239 25.9104 17.3766C25.9295 17.2007 25.941 17.0258 25.941 16.8513L26.1647 9.60235L15.2425 8.65234H15.2422Z" fill="#F4816C"/>
<path id="Vector_26" d="M19.8605 18.0239C19.8163 18.1236 19.7836 18.2342 19.8078 18.3274C19.8217 18.372 19.8462 18.4071 19.8805 18.4339C19.8931 18.4513 19.9128 18.4544 19.9404 18.47C19.9655 18.4843 19.9897 18.4952 20.0118 18.4986C20.0957 18.5268 20.209 18.5316 20.3161 18.5449C20.3701 18.5503 20.4293 18.5598 20.4881 18.5717C20.5483 18.5843 20.6119 18.6095 20.6741 18.6527L20.6567 18.6418C20.7132 18.666 20.7876 18.684 20.8515 18.6871C20.9165 18.6871 20.9746 18.6755 21.0249 18.6473L21.1368 18.5864C21.1698 18.5663 21.2113 18.5496 21.2582 18.537C21.3486 18.5044 21.4339 18.4955 21.5196 18.486C21.5628 18.4789 21.6043 18.4853 21.6461 18.4853L21.7573 18.4877C21.7967 18.484 21.8453 18.4809 21.8515 18.4656C21.8719 18.4632 21.8868 18.4326 21.9025 18.4098C21.9229 18.354 21.9218 18.2788 21.8946 18.2097C21.8664 18.1393 21.8147 18.0811 21.7532 18.0246C21.7886 18.0443 21.8263 18.0631 21.8617 18.0859C21.8899 18.1165 21.9252 18.143 21.9487 18.1798C21.9953 18.2512 22.032 18.3438 22.0068 18.4445C21.9868 18.4908 21.9701 18.5435 21.9144 18.5748C21.8579 18.618 21.8232 18.6163 21.7835 18.6275C21.7175 18.6391 21.6988 18.6384 21.6532 18.6439C21.6155 18.6493 21.5747 18.6493 21.5387 18.6582C21.4649 18.6714 21.3904 18.6851 21.3309 18.7123C21.2993 18.7225 21.2667 18.7337 21.2306 18.7568L21.1317 18.8127C21.0423 18.8685 20.9389 18.8919 20.8424 18.8865C20.7451 18.878 20.6611 18.8565 20.5711 18.8154L20.5537 18.8035C20.5238 18.7844 20.4888 18.7643 20.4415 18.7507C20.3936 18.7375 20.3443 18.7259 20.2902 18.7164C20.1821 18.6946 20.0736 18.6759 19.9546 18.619C19.9234 18.6065 19.8999 18.5918 19.8788 18.5751C19.8608 18.5609 19.8268 18.5445 19.8064 18.5156C19.787 18.488 19.7595 18.4669 19.7493 18.4346C19.7422 18.4016 19.7258 18.371 19.7289 18.339C19.7279 18.2107 19.7884 18.1073 19.8615 18.0249L19.8605 18.0239Z" fill="black"/>
<path id="Vector_27" d="M19.9551 20.7801C19.9551 20.7801 20.072 20.8288 20.2515 20.8696C20.4328 20.9033 20.6752 20.9489 20.92 20.9298C21.0424 20.9353 21.1637 20.923 21.277 20.9016C21.3915 20.8866 21.499 20.8771 21.5877 20.8475C21.7672 20.8043 21.892 20.7798 21.892 20.7798C21.892 20.7798 21.7791 20.8312 21.6027 20.9016C21.5156 20.94 21.4089 20.969 21.2912 20.988C21.1753 21.0139 21.0495 21.0312 20.9217 21.0306C20.7945 21.0377 20.6684 21.0214 20.5497 21.0047C20.4314 20.9918 20.326 20.9489 20.2352 20.9237C20.0571 20.8543 19.9551 20.7798 19.9551 20.7798V20.7801Z" fill="black"/>
<path id="Vector_28" d="M22.1898 13.2885C22.1898 13.2885 22.2894 13.1071 22.5468 12.9428C22.6729 12.8594 22.8368 12.7812 23.0234 12.7379C23.2104 12.6838 23.4182 12.6815 23.6235 12.6906C23.8265 12.7189 24.0257 12.7669 24.1991 12.8431C24.3725 12.9193 24.5218 13.0088 24.6367 13.1037C24.7591 13.1861 24.8376 13.2864 24.8971 13.347C24.9543 13.4113 24.9842 13.4508 24.9842 13.4508C24.9842 13.4508 24.9339 13.4389 24.8533 13.4137C24.77 13.3919 24.6636 13.3429 24.5286 13.3072C24.462 13.2885 24.3912 13.2653 24.3192 13.2395C24.243 13.2215 24.1641 13.2034 24.0856 13.1782C24.0064 13.1548 23.921 13.15 23.8384 13.1265C23.7555 13.1085 23.6691 13.1037 23.5851 13.0905C23.2455 13.0574 22.9021 13.0894 22.6382 13.1531C22.3747 13.2136 22.1895 13.2881 22.1895 13.2881L22.1898 13.2885Z" fill="black"/>
<path id="Vector_29" d="M19.6 13.312C19.6 13.312 19.5514 13.2851 19.4644 13.2555C19.3858 13.2171 19.2566 13.1919 19.12 13.1456C19.0462 13.1354 18.967 13.1252 18.8871 13.1089C18.8085 13.0861 18.7191 13.0929 18.6307 13.0874C18.5413 13.0857 18.4509 13.0752 18.3577 13.0789C18.2635 13.0891 18.1687 13.0993 18.0738 13.1096C17.979 13.1143 17.8824 13.115 17.7903 13.1473C17.6985 13.1732 17.6043 13.1871 17.5142 13.2069C17.4254 13.2304 17.333 13.2327 17.2514 13.2596C17.1711 13.2885 17.0929 13.3124 17.0192 13.3334C16.7281 13.4199 16.5078 13.4505 16.5078 13.4505C16.5078 13.4505 16.6591 13.3028 16.9257 13.1221C16.9916 13.0769 17.0637 13.0272 17.1429 12.9799C17.2221 12.9323 17.3173 12.904 17.4118 12.8683C17.5077 12.8363 17.6063 12.7962 17.709 12.7673C17.8093 12.7285 17.9201 12.72 18.0306 12.7101C18.1411 12.7036 18.2509 12.6975 18.3601 12.691C18.4685 12.6887 18.5767 12.723 18.6787 12.7383C18.8864 12.7611 19.0628 12.8663 19.2087 12.9347C19.3461 13.032 19.4535 13.1136 19.513 13.1929C19.5766 13.2637 19.5993 13.312 19.5993 13.312H19.6Z" fill="black"/>
</g>
<path id="Vector_30" d="M18.5586 22.8511C18.5586 22.8511 18.6762 23.0018 18.834 23.2366C18.9931 23.4714 19.1893 23.7926 19.3783 24.1158C19.5707 24.4377 19.7309 24.7817 19.8703 25.0226C20.0039 25.269 20.0814 25.4473 20.0814 25.4473C20.0814 25.4473 19.9526 25.3098 19.7761 25.0852C19.5911 24.863 19.3963 24.5412 19.2042 24.2162C19.0121 23.8913 18.853 23.5483 18.735 23.2907C18.6198 23.0324 18.5586 22.8511 18.5586 22.8511Z" fill="black"/>
</g>
<g id="Group_20">
<g id="Group_21">
<g id="Group_22">
<path id="Vector_31" d="M12.3983 49.333H29.238C29.4804 46.7361 30.0044 43.8251 30.395 41.6621C30.6561 40.2129 30.8455 39.1659 30.8465 38.7763C30.8734 33.1072 29.6841 27.2983 29.6715 27.2401C29.6674 27.2187 29.6559 27.1993 29.6395 27.185C29.2322 26.8294 24.7416 25.4871 24.231 25.3353C24.2215 25.3323 24.2116 25.3306 24.2021 25.3306C24.162 25.3306 24.1235 25.3557 24.1086 25.3956C23.2419 27.6627 21.17 29.6056 20.8243 29.92C20.8212 29.919 20.8117 29.919 20.8103 29.919C20.4629 29.6036 18.3927 27.6614 17.5267 25.3956C17.5117 25.3557 17.4733 25.3306 17.4325 25.3306C17.423 25.3306 17.4138 25.3323 17.4043 25.3353C16.8936 25.4867 12.402 26.8301 11.9957 27.185C11.9794 27.1989 11.9675 27.2187 11.9638 27.2401C11.9512 27.2983 10.765 33.1072 10.7894 38.7763C10.7911 39.1639 10.9785 40.2034 11.2389 41.6424C11.6302 43.8109 12.1559 46.7296 12.3983 49.333Z" fill="#26678A"/>
<path id="Vector_32" d="M12.2967 49.3334H12.4983C12.0927 44.9709 10.8942 39.7292 10.8895 38.7771C10.865 33.0532 12.0614 27.2613 12.0614 27.2613C12.4334 26.9367 16.7162 25.6457 17.4323 25.4321C18.3948 27.9513 20.7941 30.0406 20.7941 30.0406C20.8002 30.0341 20.8104 30.031 20.8175 30.0239C20.8277 30.0307 20.8339 30.0341 20.8403 30.0406C20.8403 30.0406 23.239 27.9513 24.2015 25.4321C24.9182 25.6457 29.2014 26.937 29.573 27.2613C29.573 27.2613 30.7721 33.0532 30.7456 38.7771C30.7422 39.7292 29.5431 44.9709 29.1368 49.3334H29.3384C29.5801 46.7436 30.103 43.8399 30.493 41.6809C30.7558 40.227 30.9445 39.1759 30.9462 38.7778C30.9731 33.0988 29.7814 27.2783 29.7695 27.2201C29.76 27.1779 29.7375 27.1385 29.7046 27.1095C29.2905 26.7489 25.0953 25.4885 24.2583 25.2398C24.2396 25.2344 24.2198 25.231 24.2011 25.231C24.1202 25.231 24.0444 25.2813 24.0138 25.3606C23.1965 27.4998 21.2918 29.3508 20.8165 29.7905C20.3419 29.3508 18.4366 27.4998 17.6193 25.3606C17.5893 25.2813 17.5132 25.231 17.4316 25.231C17.4129 25.231 17.3938 25.234 17.3745 25.2398C16.5381 25.4889 12.3423 26.7489 11.9288 27.1095C11.8952 27.1385 11.8724 27.1779 11.8639 27.2201C11.852 27.279 10.6637 33.0985 10.6879 38.7778C10.6892 39.1742 10.8776 40.2174 11.1387 41.6612C11.5293 43.8245 12.0539 46.7372 12.2957 49.3334H12.2967Z" fill="black"/>
</g>
<path id="Vector_33" d="M18.1899 49.3353L17.495 38.0557C17.495 38.0557 17.2471 43.4903 16.9395 49.3353H18.1899Z" fill="#185773"/>
<g id="Group_23">
<path id="Vector_34" d="M17.6876 47.3018C17.6461 47.3018 17.6083 47.2759 17.5951 47.2351L14.2244 37.0861C14.2186 37.0704 14.2173 37.0531 14.2203 37.0374L16.3667 25.7271C16.3728 25.6921 16.3987 25.6632 16.4344 25.6519L16.9692 25.4886C16.9787 25.4862 16.9879 25.4849 16.9974 25.4849C17.0147 25.4849 17.0327 25.4896 17.0477 25.4992C17.0712 25.5131 17.0878 25.5366 17.0933 25.5641L17.7834 29.092L17.8746 38.5618L17.7851 47.2051C17.7851 47.2531 17.7498 47.2929 17.7029 47.3007C17.6981 47.3014 17.6927 47.3014 17.6879 47.3014L17.6876 47.3018Z" fill="#31789A"/>
<path id="Vector_35" d="M16.9967 25.5824L17.6872 29.1102L17.7766 38.562L17.6872 47.2036L14.3165 37.0546L16.4622 25.7443C16.6611 25.6838 16.8416 25.629 16.997 25.582M16.997 25.3867C16.9783 25.3867 16.9586 25.3891 16.9406 25.3945L16.4047 25.5579C16.3357 25.579 16.283 25.6372 16.2698 25.7086L14.1244 37.0179C14.1183 37.0509 14.1207 37.0846 14.1309 37.1159L17.5016 47.2649C17.5291 47.3465 17.6042 47.3989 17.6875 47.3989C17.6971 47.3989 17.7069 47.3982 17.7175 47.3969C17.8123 47.3819 17.882 47.3009 17.883 47.2053L17.9724 38.5637L17.883 29.1082C17.883 29.0962 17.8813 29.0847 17.8789 29.0724L17.1884 25.5446C17.1782 25.4905 17.1452 25.4435 17.0977 25.4146C17.0671 25.3966 17.0327 25.3871 16.997 25.3871V25.3867Z" fill="black"/>
</g>
<path id="Vector_36" d="M25.8803 49.3344L25.3588 44.7368L24.7243 26.3735L23.7829 32.5282L21.2812 49.3344H25.8803Z" fill="#185773"/>
<g id="Group_24">
<path id="Vector_37" d="M24.0955 47.3007C24.0486 47.2929 24.0132 47.2531 24.0132 47.2051L23.9238 38.5635L24.0132 29.11L24.7051 25.5641C24.7106 25.5366 24.7269 25.5131 24.7507 25.4992C24.7656 25.4896 24.7837 25.4849 24.8007 25.4849C24.8102 25.4849 24.8194 25.4866 24.8289 25.4886L25.364 25.6519C25.3994 25.6632 25.4252 25.6921 25.4317 25.7271L27.5777 37.0374C27.5808 37.0531 27.5791 37.0704 27.5736 37.0861L24.203 47.2351C24.1897 47.2755 24.152 47.3018 24.1105 47.3018C24.1057 47.3018 24.1003 47.3017 24.0955 47.3011V47.3007Z" fill="#31789A"/>
<path id="Vector_38" d="M24.8009 25.5817C24.9563 25.629 25.1365 25.6838 25.3361 25.744L27.4814 37.0543L24.1111 47.2033L24.0217 38.5616L24.1111 29.1099L24.8013 25.582M24.8013 25.3867C24.7659 25.3867 24.7316 25.3959 24.701 25.4143C24.653 25.4432 24.6201 25.4902 24.6099 25.5443L23.9193 29.0721C23.917 29.084 23.9156 29.0956 23.9156 29.1078L23.8262 38.5596L23.9156 47.2053C23.9163 47.3009 23.9863 47.3819 24.0812 47.3969C24.0914 47.3986 24.1005 47.3989 24.1111 47.3989C24.194 47.3989 24.2695 47.3465 24.2971 47.2649L27.6677 37.1159C27.6779 37.0846 27.6803 37.0509 27.6738 37.0179L25.5285 25.7086C25.5146 25.6371 25.4625 25.579 25.3935 25.5579L24.8577 25.3945C24.8397 25.3891 24.82 25.3867 24.8013 25.3867Z" fill="black"/>
</g>
<g id="Group_25">
<path id="Vector_39" d="M17.6036 45.2619C17.6029 45.2987 17.5723 46.9302 17.5448 49.3345H24.1818C24.0947 46.1895 24.0107 43.9193 24.009 43.876C24.0162 43.7488 24.7495 31.0594 24.8186 28.6245C24.842 27.8048 24.6499 26.7606 24.247 25.5203C24.2345 25.4812 24.1984 25.4536 24.1576 25.4529H24.1542C24.1144 25.4529 24.0784 25.4764 24.0634 25.5142C23.1717 27.734 21.1603 29.6191 20.824 29.9243H20.8084C20.4687 29.615 18.4417 27.7153 17.5564 25.4812C17.5414 25.4444 17.5054 25.4199 17.4652 25.4199H17.4564C17.4132 25.4237 17.3779 25.4553 17.3694 25.4978C17.2075 26.2835 17.0314 27.5027 17.1052 28.8474C17.1814 30.237 17.6002 45.1166 17.604 45.2619H17.6036Z" fill="#8ABEE6"/>
<path id="Vector_40" d="M17.5055 45.2689C17.5044 45.3026 17.4732 46.9308 17.4456 49.3347H17.6411C17.6693 46.9001 17.7006 45.2635 17.7006 45.2635C17.7006 45.2635 17.2787 30.2491 17.2008 28.8421C17.1264 27.4784 17.3147 26.2422 17.4636 25.5174C18.4472 27.999 20.7918 30.0419 20.7918 30.0419C20.7979 30.0354 20.8081 30.0324 20.8153 30.0252C20.8255 30.032 20.8316 30.0354 20.838 30.0419C20.838 30.0419 23.1615 28.017 24.153 25.5504C24.4443 26.447 24.7486 27.6308 24.7204 28.6223C24.6497 31.0834 23.9109 43.8708 23.9109 43.8708C23.9109 43.8708 23.9955 46.1546 24.0833 49.3347H24.2788C24.1914 46.1859 24.1074 43.9109 24.106 43.8636C24.1132 43.7544 24.8455 31.0633 24.9156 28.6278C24.9394 27.7962 24.7456 26.7413 24.3389 25.4899C24.3131 25.4119 24.2417 25.3582 24.1594 25.3548H24.153C24.0731 25.3548 24.001 25.4034 23.9711 25.4773C23.1286 27.574 21.276 29.3733 20.8146 29.7989C20.3519 29.3709 18.4816 27.5559 17.6455 25.4453C17.6156 25.3704 17.5435 25.3218 17.4636 25.3218C17.4582 25.3218 17.4528 25.3218 17.4463 25.3225C17.361 25.3303 17.2896 25.3932 17.2722 25.478C17.1101 26.2694 16.9312 27.4971 17.0057 28.8523C17.0825 30.2409 17.5004 45.1189 17.5055 45.2689Z" fill="black"/>
</g>
<path id="Vector_41" opacity="0.6" d="M17.7333 32.956C18.3395 33.2071 19.2432 31.323 19.4941 31.2478C19.7451 31.1723 21.5487 31.4105 21.5487 31.4105C21.5487 31.4105 23.502 32.5289 23.7828 32.5289H24.0629C24.0629 32.5289 22.8832 45.3986 23.0338 45.8594C23.0807 46.0029 23.1429 47.4351 23.2055 49.3348H24.0854C23.9977 46.1547 23.913 43.8709 23.913 43.8709C23.913 43.8709 24.6518 31.0835 24.7225 28.6224C24.7256 28.5036 24.7239 28.3815 24.7178 28.2583H22.5099C21.646 29.3376 20.8405 30.042 20.8405 30.042C20.8344 30.0355 20.8279 30.0324 20.8177 30.0253C20.8106 30.0321 20.8004 30.0355 20.7943 30.042C20.7943 30.042 19.9888 29.3376 19.1242 28.2583H17.3859L17.207 28.9256C17.2298 29.3982 17.2754 30.7572 17.3294 32.5109C17.4505 32.727 17.5851 32.8947 17.7333 32.9563V32.956Z" fill="#63A0CA"/>
<g id="Group_26">
<path id="Vector_42" d="M20.8482 49.2063C20.82 49.2063 20.7924 49.1941 20.7744 49.172C20.1658 48.4578 19.6079 47.47 19.1159 46.2376C19.054 43.0269 20.0975 31.0503 20.1077 30.9292C20.1114 30.8822 20.1492 30.8445 20.1964 30.8407C20.1964 30.8407 21.4608 30.7227 21.4632 30.7227C21.5112 30.7227 21.5526 30.7574 21.5598 30.805C22.1167 34.3236 22.3741 41.7413 22.4839 44.9088C22.5036 45.4937 22.5186 45.9242 22.5294 46.143C22.5301 46.1586 22.5271 46.1736 22.5209 46.1875C21.6893 48.0763 20.9366 49.1536 20.9284 49.1645C20.9111 49.19 20.8839 49.2046 20.8533 49.206H20.8485L20.8482 49.2063Z" fill="#1A2A3F"/>
<path id="Vector_43" d="M21.4629 30.8205C22.1235 34.9952 22.3653 44.7641 22.4309 46.1476C21.5931 48.0496 20.8479 49.1079 20.8479 49.1079C20.207 48.3549 19.6633 47.3463 19.2067 46.2007C19.151 42.992 20.2046 30.9372 20.2046 30.9372L21.4629 30.8202M21.4636 30.6245C21.4575 30.6245 21.451 30.6245 21.4449 30.6252L20.1869 30.7422C20.0928 30.7507 20.019 30.8256 20.0105 30.9195C20.0003 31.0403 18.9562 43.0219 19.0119 46.2044C19.0119 46.2279 19.0167 46.2514 19.0252 46.2735C19.5209 47.5154 20.0843 48.5117 20.7 49.2344C20.7367 49.2787 20.7918 49.3035 20.8482 49.3035C20.8513 49.3035 20.8543 49.3028 20.8574 49.3028C20.9179 49.3004 20.9733 49.2698 21.008 49.2205C21.0386 49.1762 21.7743 48.1245 22.6097 46.2262C22.6223 46.1983 22.6277 46.168 22.626 46.1377C22.6158 45.9189 22.6009 45.4895 22.5805 44.9043C22.4706 41.7351 22.2133 34.3133 21.6564 30.7895C21.6407 30.6936 21.5585 30.6245 21.4633 30.6245H21.4636Z" fill="black"/>
</g>
<path id="Vector_44" opacity="0.3" d="M22.4311 46.1469C22.3654 44.7634 22.1237 34.9945 21.4631 30.8198L20.2048 30.9369C20.2048 30.9369 20.1773 31.2577 20.131 31.8035L21.2017 32.4953L21.849 45.5252L20.8426 46.6872L19.209 45.5072C19.2049 45.7696 19.2035 46.002 19.2073 46.2003C19.6639 47.3456 20.2075 48.3545 20.8484 49.1075C20.8484 49.1075 21.5937 48.0493 22.4314 46.1472L22.4311 46.1469Z" fill="#00051B"/>
<g id="Group_27">
<path id="Vector_45" d="M20.8405 31.0329C20.4026 31.0329 20.1181 30.9135 20.1062 30.9081C20.0882 30.9013 20.0732 30.8877 20.0623 30.8713C19.86 30.5562 19.6268 29.2673 19.6009 29.122C19.5962 29.0931 19.6043 29.0639 19.6227 29.0417C19.6407 29.0189 19.6683 29.0063 19.6972 29.0063H21.9367C21.9632 29.0063 21.9884 29.0172 22.0064 29.0363C22.0251 29.0553 22.0343 29.0802 22.0339 29.1071C22.0118 29.9264 21.6769 30.8152 21.662 30.8529C21.6518 30.8805 21.629 30.9023 21.6008 30.9111C21.3512 30.9921 21.0955 31.0329 20.8399 31.0329H20.8405Z" fill="#1A2A3F"/>
<path id="Vector_46" d="M21.9371 29.1055C21.915 29.918 21.5713 30.8194 21.5713 30.8194C21.3006 30.9072 21.0521 30.9364 20.8403 30.9364C20.4177 30.9364 20.1447 30.8194 20.1447 30.8194C19.9471 30.5114 19.6972 29.1055 19.6972 29.1055H21.9368M21.9368 28.9102H19.6972C19.6391 28.9102 19.5844 28.935 19.5473 28.9799C19.5106 29.0238 19.4946 29.083 19.5051 29.1392C19.5473 29.3811 19.7717 30.6009 19.9805 30.9252C20.0008 30.9582 20.0314 30.9834 20.0675 30.999C20.0801 31.0045 20.3827 31.1317 20.8399 31.1317C21.1058 31.1317 21.372 31.0892 21.6314 31.0051C21.6872 30.9875 21.7328 30.9439 21.7538 30.8891C21.7681 30.8507 22.1091 29.9473 22.1319 29.1113C22.1336 29.0578 22.1132 29.0068 22.0765 28.969C22.0405 28.9313 21.9891 28.9102 21.9368 28.9102Z" fill="black"/>
</g>
</g>
<g id="Group_28">
<path id="Vector_47" d="M17.7006 31.1834C17.6455 31.1828 17.5941 31.1521 17.5421 31.0902C17.1593 30.6295 16.4691 27.9282 16.8526 25.5674C16.8557 25.5484 16.8645 25.5307 16.8778 25.5164L17.5533 24.7865C17.572 24.7661 17.5979 24.7549 17.6254 24.7549H17.6326C17.6621 24.7573 17.689 24.7729 17.7063 24.7974C18.4482 25.8791 20.465 28.7485 20.873 29.0289C20.9084 29.0531 20.924 29.097 20.9114 29.1388C20.8989 29.1796 20.8611 29.2072 20.8183 29.2072C20.8118 29.2072 20.2128 29.2103 19.8898 29.412C19.7657 29.49 19.4685 29.7656 19.154 30.0575C18.4207 30.738 17.9233 31.1838 17.706 31.1838H17.7012L17.7006 31.1834Z" fill="#8ABEE6"/>
<path id="Vector_48" d="M17.6257 24.8524C17.6257 24.8524 20.3051 28.7569 20.8182 29.1087C20.8182 29.1087 20.1889 29.1087 19.8376 29.3275C19.4871 29.5466 18.0194 31.0853 17.7059 31.0853H17.7035C17.3945 31.0785 16.538 28.1189 16.9498 25.5822L17.626 24.8524M17.626 24.6567C17.572 24.6567 17.5193 24.6789 17.4825 24.7187L16.8066 25.4489C16.7805 25.4771 16.7635 25.5125 16.757 25.5509C16.3694 27.9372 17.0769 30.6811 17.4686 31.1523C17.5376 31.2354 17.6151 31.2796 17.6991 31.2809C17.9368 31.2809 18.304 30.9788 19.2202 30.1285C19.5184 29.8522 19.8257 29.5664 19.942 29.4942C20.1899 29.3391 20.6591 29.3044 20.8192 29.3044C20.9049 29.3044 20.9807 29.2486 21.0059 29.1662C21.031 29.0846 21.0004 28.9961 20.9297 28.9474C20.5751 28.7048 18.8564 26.2995 17.7872 24.7418C17.7535 24.6921 17.7001 24.6615 17.6406 24.6571H17.6263L17.626 24.6567Z" fill="black"/>
</g>
<g id="Group_29">
<path id="Vector_49" d="M24.1592 30.9192C23.9175 30.9192 23.1685 30.3996 22.2876 29.7708C22.0543 29.6044 21.8646 29.4693 21.7708 29.4105C21.4475 29.2087 20.8474 29.2056 20.8419 29.2056C20.8021 29.2056 20.7658 29.1811 20.7511 29.1444C20.7362 29.1066 20.7457 29.0641 20.7746 29.0369C22.4157 27.4856 23.7577 24.6747 23.7716 24.6461C23.7852 24.6172 23.8124 24.5968 23.844 24.592C23.8495 24.5914 23.8549 24.5903 23.8597 24.5903C23.8862 24.5903 23.912 24.6012 23.9304 24.621L24.7814 25.5141C24.7947 25.5284 24.8042 25.5461 24.8072 25.5659C25.1955 27.9603 24.6529 30.4292 24.3194 30.8304C24.2707 30.8886 24.2191 30.9182 24.164 30.9192H24.1592Z" fill="#8ABEE6"/>
<path id="Vector_50" d="M23.8595 24.6875L24.7105 25.581C25.1223 28.1177 24.4705 30.8139 24.1614 30.8214H24.1591C23.8439 30.8214 22.1722 29.5457 21.8223 29.3266C21.4711 29.1078 20.8418 29.1078 20.8418 29.1078C22.5149 27.5253 23.8595 24.6882 23.8595 24.6882M23.8595 24.4925C23.8493 24.4925 23.8391 24.4932 23.8289 24.4949C23.7654 24.5055 23.7103 24.5459 23.6831 24.6041C23.6698 24.6324 22.334 27.4269 20.7078 28.9659C20.6497 29.0207 20.631 29.1055 20.6599 29.18C20.6898 29.2548 20.7619 29.3031 20.8418 29.3031C21.0012 29.3031 21.4711 29.3379 21.719 29.493C21.8084 29.5488 22.0045 29.6887 22.2303 29.8503C23.3397 30.6404 23.9105 31.0167 24.1591 31.0167C24.2498 31.0153 24.327 30.9728 24.3937 30.8918C24.788 30.4178 25.2746 27.8356 24.9033 25.5497C24.8972 25.5106 24.8792 25.4745 24.8516 25.4463L24.0013 24.5528C23.9636 24.5136 23.9126 24.4922 23.8592 24.4922L23.8595 24.4925Z" fill="black"/>
</g>
</g>
</g>
<g id="Group_30">
<path id="Vector_51" d="M19.2994 14.7261C19.2994 14.7261 18.2641 13.7533 17.084 14.7707C17.084 14.7707 18.1522 15.7118 19.2994 14.7261Z" fill="white" stroke="black" stroke-width="0.132939" stroke-linejoin="round"/>
<path id="Vector_52" d="M17.8242 14.7237C17.8242 14.9418 18.0008 15.119 18.2193 15.119C18.4377 15.119 18.614 14.9418 18.614 14.7237C18.614 14.5055 18.4374 14.3286 18.2193 14.3286C18.0012 14.3286 17.8242 14.5052 17.8242 14.7237Z" fill="black"/>
<path id="Vector_53" d="M17.0273 14.6768C17.0273 14.6768 17.9185 13.5652 19.0795 14.212" stroke="black" stroke-width="0.105706" stroke-linecap="round" stroke-linejoin="round"/>
</g>
<g id="Group_31">
<path id="Vector_54" d="M22.2402 14.7261C22.2402 14.7261 23.2758 13.7533 24.4553 14.7707C24.4553 14.7707 23.387 15.7118 22.2402 14.7261Z" fill="white" stroke="black" stroke-width="0.132939" stroke-linejoin="round"/>
<path id="Vector_55" d="M23.7155 14.7237C23.7155 14.9418 23.5389 15.119 23.3205 15.119C23.102 15.119 22.9258 14.9418 22.9258 14.7237C22.9258 14.5055 23.1024 14.3286 23.3205 14.3286C23.5386 14.3286 23.7155 14.5052 23.7155 14.7237Z" fill="black"/>
<path id="Vector_56" d="M24.5131 14.6768C24.5131 14.6768 23.622 13.5652 22.4609 14.212" stroke="black" stroke-width="0.105706" stroke-linecap="round" stroke-linejoin="round"/>
</g>
<path id="Vector_57" d="M21.6777 14.1191C21.6777 14.1191 21.1724 15.7755 21.2003 17.2114" stroke="black" stroke-width="0.169488" stroke-linecap="round" stroke-linejoin="round"/>
</g>
<g id="Vector_58">
<path d="M5.00787 43.9614L5.55525 41.6802C5.55525 41.6802 5.21016 40.0174 3.6037 40.6077C1.93129 41.2226 1.30469 41.6462 1.30469 41.6462" fill="#26678A"/>
<path d="M5.00787 43.9614L5.55525 41.6802C5.55525 41.6802 5.21016 40.0174 3.6037 40.6077C1.93129 41.2226 1.30469 41.6462 1.30469 41.6462" stroke="black" stroke-width="0.21177" stroke-linecap="round" stroke-linejoin="round"/>
</g>
<g id="Vector_59">
<path d="M5.55469 43.2537C5.55469 43.2537 6.15763 40.5408 6.15763 39.5356L5.55469 43.2537Z" fill="#26678A"/>
<path d="M5.55469 43.2537C5.55469 43.2537 6.15763 40.5408 6.15763 39.5356" stroke="black" stroke-width="0.21177" stroke-linecap="round" stroke-linejoin="round"/>
</g>
<path id="Vector_60" d="M2.07227 40.5396C2.07227 40.5396 5.90396 38.8699 8.46511 39.3697" stroke="black" stroke-width="0.21177" stroke-linecap="round" stroke-linejoin="round"/>
<path id="Vector_61" d="M3.42773 39.275L8.9672 37.4253" stroke="black" stroke-width="0.21177" stroke-linecap="round" stroke-linejoin="round"/>
<path id="Vector_62" d="M15.1923 14.3419C15.1923 14.3419 15.6183 13.9533 15.7193 12.8801C15.8206 11.8063 15.6652 10.091 15.9076 9.85689C15.9076 9.85689 21.1194 11.6052 25.7527 11.1366C25.7527 11.1366 25.9734 14.4252 26.1182 14.7407C26.1182 14.7407 27.7373 11.4377 26.7255 7.65336C25.7137 3.86795 17.6396 3.03091 15.2409 6.9497C15.2409 6.9497 13.3914 7.78606 15.1923 14.3419Z" fill="black" stroke="black" stroke-width="0.21177" stroke-linejoin="round"/>
<g id="Group_32">
<path id="Vector_63" opacity="0.5" d="M21.6777 14.2039C21.6777 14.2039 21.7053 14.0501 22.0708 13.7636C22.5736 13.371 25.658 12.8521 25.6515 14.3298C25.6515 14.3298 25.6141 15.7906 25.2626 16.1989C25.0045 16.4997 23.0265 16.8158 22.3666 16.2343C21.7066 15.6524 21.725 14.518 21.6777 14.2039Z" fill="#54B8E3"/>
<g id="Group_33">
<path id="Vector_64" d="M19.8594 13.6611C19.8594 13.6611 21.0079 13.9194 22.0275 13.6611L21.4951 14.7649C21.4951 14.7649 20.913 13.8534 20.2272 14.8442L19.8594 13.6611Z" fill="black"/>
<path id="Vector_65" d="M19.8592 13.6614C19.3863 13.2909 16.8816 12.823 16.0799 13.6529V13.6522C16.0799 13.6522 15.5417 13.7584 15.4006 13.7934C15.4006 13.7934 15.2595 14.1551 15.4006 14.4032L15.8626 14.5958C15.9177 15.0864 16.0588 16.0426 16.3475 16.378C16.6375 16.7163 18.7821 17.0365 19.5233 16.3828C20.2655 15.7295 20.2472 14.5097 20.3009 14.1565C20.3009 14.1565 20.2703 13.9829 19.8592 13.6617V13.6614ZM19.3652 16.2763C18.7053 16.8582 16.7272 16.5421 16.4692 16.2409C16.1176 15.8326 16.0802 14.3725 16.0802 14.3725C16.0741 12.8948 19.1582 13.413 19.661 13.8064C20.0272 14.0922 20.0541 14.246 20.0541 14.246C20.0068 14.5607 20.0252 15.6945 19.3656 16.276L19.3652 16.2763Z" fill="black"/>
<path id="Vector_66" d="M26.331 13.7705C26.1899 13.7351 25.6507 13.6283 25.6507 13.6283V13.629C24.849 12.7994 22.3443 13.268 21.8713 13.6378C21.4603 13.959 21.4297 14.1326 21.4297 14.1326C21.4831 14.4858 21.465 15.7056 22.2069 16.3596C22.9481 17.0136 25.0927 16.6934 25.3831 16.3548C25.6718 16.0197 25.8128 15.0635 25.8686 14.5718L26.3307 14.3796C26.4718 14.1322 26.3307 13.7705 26.3307 13.7705H26.331ZM25.2624 16.2174C25.0037 16.5181 23.0253 16.8346 22.3664 16.2534C21.7068 15.6719 21.7248 14.5375 21.6779 14.2234C21.6779 14.2234 21.7044 14.0686 22.0702 13.7831C22.5731 13.3898 25.6575 12.8716 25.651 14.349C25.651 14.349 25.6133 15.8101 25.2627 16.2174H25.2624Z" fill="black"/>
</g>
<path id="Vector_67" opacity="0.5" d="M19.3651 16.2758C18.7052 16.8577 16.7271 16.5416 16.469 16.2405C16.1175 15.8321 16.0801 14.3721 16.0801 14.3721C16.074 12.8943 19.158 13.4125 19.6609 13.8059C20.027 14.0917 20.0539 14.2455 20.0539 14.2455C20.0066 14.5602 20.025 15.694 19.3654 16.2755L19.3651 16.2758Z" fill="#54B8E3"/>
</g>
<path id="Vector_68" d="M19.0979 19.4455C19.0979 19.4455 19.3189 19.5084 19.6616 19.5642C19.7456 19.584 19.8397 19.5901 19.9376 19.6044C20.0366 19.6146 20.1393 19.635 20.2484 19.6398C20.464 19.6469 20.6948 19.6752 20.9253 19.6592C21.0406 19.6575 21.1558 19.6568 21.2687 19.6554C21.3826 19.6578 21.4931 19.6357 21.6005 19.6279C21.8154 19.602 22.0187 19.5949 22.1857 19.5476C22.526 19.4802 22.7528 19.4356 22.7528 19.4356L22.7596 19.4339C22.7949 19.4268 22.8286 19.4496 22.8357 19.485C22.8425 19.5187 22.8214 19.5517 22.7878 19.5605C22.7878 19.5605 22.5597 19.6177 22.2159 19.7048C22.0449 19.7548 21.8372 19.766 21.6175 19.7956C21.5077 19.8058 21.3938 19.83 21.2779 19.83C21.1609 19.8324 21.0433 19.8348 20.925 19.8371C20.6877 19.8473 20.4527 19.8123 20.2321 19.7987C20.1216 19.7919 20.0165 19.7681 19.9159 19.7548C19.8156 19.7374 19.7201 19.7283 19.6337 19.7061C19.2869 19.634 19.0635 19.55 19.0635 19.55C19.0353 19.5397 19.0204 19.5084 19.0306 19.4802C19.0401 19.4526 19.0697 19.4387 19.0972 19.4455H19.0979Z" fill="black"/>
<path id="Vector_69" d="M24.2227 5.70981C24.2227 5.70981 26.4065 6.88167 26.3687 10.1312C26.3687 10.1312 25.7999 8.35603 25.2957 8.15527C24.7915 7.95452 25.5657 9.69632 25.2957 9.86338C25.0261 10.0308 24.3264 7.61902 24.0235 7.7194L24.1891 9.36082C24.1891 9.36082 23.386 8.02087 23.0848 7.92049C22.7835 7.82011 23.7624 10.0308 23.3231 10.1312C22.8838 10.2315 22.1967 7.08277 21.938 7.11645C21.6789 7.15014 22.2436 9.12638 22.2436 9.12638C22.2436 9.12638 20.6984 6.17937 20.7031 5.97828C20.7086 5.77718 22.2436 7.08277 22.4633 7.11645C22.6829 7.15014 22.0281 5.70981 22.0281 5.70981C22.0281 5.70981 24.0599 6.94905 24.459 7.5183C24.8582 8.08824 23.691 6.64791 24.0235 6.5472C24.3563 6.44682 24.9867 7.18383 24.9867 7.18383L24.2227 5.70947V5.70981Z" fill="#2A5EAB"/>
<path id="Vector_70" d="M19.2033 5.84507C19.2033 5.84507 21.0756 9.29464 20.9651 10.1344L19.8333 7.98974V9.26163C19.8333 9.26163 18.9649 7.92372 18.6144 7.92304C18.2639 7.92134 19.3603 9.76386 19.0805 9.83089C18.7997 9.89758 17.7328 7.98974 17.7328 7.98974C17.7328 7.98974 17.9586 9.12723 17.7767 9.19392C17.5948 9.26163 16.5078 7.9227 16.5078 7.9227L17.1854 8.3334C17.1854 8.3334 16.7414 6.71546 17.0841 6.61508L18.0537 7.35209L17.777 6.48068C17.777 6.48068 18.9724 7.58619 19.2039 7.58619C19.4355 7.58619 18.8282 6.51436 18.8282 6.51436L19.3209 6.91621L19.2043 5.84473L19.2033 5.84507Z" fill="#2A5EAB"/>
</g>
</g>
</g>
</g>
<path id="Vector_71" d="M36.2048 36.2111C44.3955 28.0138 44.3955 14.7235 36.2048 6.52621C28.0141 -1.67105 14.7343 -1.67105 6.54353 6.52621C-1.64721 14.7235 -1.64721 28.0138 6.54353 36.2111C14.7343 44.4084 28.0141 44.4084 36.2048 36.2111Z" stroke="#231F20" stroke-width="0.796199" stroke-linecap="round" stroke-linejoin="round"/>
</g>
</g>
<defs>
<clipPath id="clip0_1010_2839">
<rect width="42.7368" height="42.7368" rx="8.21862" fill="white"/>
</clipPath>
</defs>
</svg>
