<svg width="293" height="28" viewBox="0 0 293 28" fill="none" xmlns="http://www.w3.org/2000/svg">
<path d="M10.36 1.35801C11.984 1.35801 13.3 1.72201 14.308 2.45001C15.3347 3.15934 15.848 4.01801 15.848 5.02601C15.848 5.77267 15.596 6.35134 15.092 6.76201C14.588 7.17267 13.9067 7.37801 13.048 7.37801C13.048 4.97001 12.04 3.76601 10.024 3.76601C8.30667 3.76601 6.972 4.46601 6.02 5.86601C5.08667 7.24734 4.62 9.13267 4.62 11.522C4.62 13.8927 5.07733 15.7127 5.992 16.982C6.90667 18.2513 8.35333 18.886 10.332 18.886C12.3107 18.886 14.056 18.3167 15.568 17.178C15.8667 17.3647 16.016 17.6633 16.016 18.074C16.016 18.8393 15.3533 19.586 14.028 20.314C12.7027 21.0233 11.144 21.378 9.352 21.378C6.58933 21.378 4.49867 20.5287 3.08 18.83C1.68 17.1127 0.98 14.7047 0.98 11.606C0.98 8.50734 1.77333 6.02467 3.36 4.15801C4.96533 2.29134 7.29867 1.35801 10.36 1.35801ZM32.5518 19.698C32.5518 20.818 31.8238 21.378 30.3678 21.378C28.9118 21.378 27.9691 20.8927 27.5398 19.922C26.3638 20.8927 25.0664 21.378 23.6477 21.378C22.2291 21.378 21.1091 21.0327 20.2877 20.342C19.4851 19.6327 19.0837 18.6713 19.0837 17.458C19.0837 16.226 19.5597 15.218 20.5117 14.434C21.4637 13.65 22.9664 13.258 25.0197 13.258C25.8224 13.258 26.5878 13.314 27.3157 13.426V12.194C27.3157 10.906 27.1011 9.99134 26.6718 9.45001C26.2611 8.90867 25.6917 8.63801 24.9637 8.63801C24.2357 8.63801 23.6477 8.87134 23.1997 9.33801C22.7704 9.80467 22.5558 10.4393 22.5558 11.242C21.8091 11.3167 21.1837 11.2047 20.6797 10.906C20.1944 10.5887 19.9517 10.1127 19.9517 9.47801C19.9517 8.58201 20.4184 7.84467 21.3517 7.26601C22.2851 6.68734 23.4891 6.39801 24.9637 6.39801C28.8091 6.39801 30.7317 8.26467 30.7317 11.998V19.474L32.5518 19.698ZM27.3157 15.526C26.6437 15.2833 25.9344 15.162 25.1877 15.162C24.4597 15.162 23.8531 15.3393 23.3677 15.694C22.8824 16.03 22.6397 16.5153 22.6397 17.15C22.6397 18.4567 23.3117 19.11 24.6558 19.11C25.6077 19.11 26.4944 18.8393 27.3157 18.298V15.526ZM59.3893 20.958H53.2013V20.734C53.2013 19.7073 53.612 19.1567 54.4333 19.082L55.2453 19.026V12.138C55.2453 11.0553 55.0213 10.2993 54.5733 9.87001C54.1253 9.42201 53.4066 9.19801 52.4173 9.19801C51.4466 9.19801 50.4666 9.62734 49.4773 10.486C49.608 11.0647 49.6733 11.662 49.6733 12.278V18.97L51.6613 19.138C51.7733 20.3513 51.3533 20.958 50.4013 20.958H44.1573V20.734C44.1573 19.7073 44.568 19.1567 45.3893 19.082L46.2573 19.026V12.138C46.2573 11.0553 46.0333 10.2993 45.5853 9.87001C45.1373 9.42201 44.456 9.19801 43.5413 9.19801C42.6266 9.19801 41.6653 9.62734 40.6573 10.486V18.97L42.6453 19.138C42.7573 20.3513 42.3373 20.958 41.3853 20.958H35.1413V20.734C35.1413 19.7073 35.552 19.1567 36.3733 19.082L37.2413 19.026V9.03001L36.1493 8.91801C35.384 8.84334 35.0386 8.26467 35.1133 7.18201L40.1813 6.56601L40.3773 8.27401H40.4613C40.9466 7.84467 41.3293 7.52734 41.6093 7.32201C41.8893 7.11667 42.3093 6.91134 42.8693 6.70601C43.448 6.50067 44.092 6.39801 44.8013 6.39801C45.5293 6.39801 46.2573 6.58467 46.9853 6.95801C47.7133 7.31267 48.3106 7.86334 48.7773 8.61001C50.3266 7.13534 51.8573 6.39801 53.3693 6.39801C54.9 6.39801 56.16 6.88334 57.1493 7.85401C58.1573 8.80601 58.6613 10.2807 58.6613 12.278V18.97L60.6493 19.138C60.7053 19.25 60.696 19.502 60.6213 19.894C60.4533 20.6033 60.0426 20.958 59.3893 20.958ZM68.2349 8.02201C69.4482 6.93934 70.8202 6.39801 72.3509 6.39801C73.9002 6.39801 75.2256 6.94867 76.3269 8.05001C77.4282 9.13267 77.9976 10.8687 78.0349 13.258C78.0722 15.6473 77.4936 17.598 76.2989 19.11C75.1229 20.622 73.3869 21.378 71.0909 21.378C70.0642 21.378 69.1776 21.2193 68.4309 20.902V25.074H68.4589L70.4189 25.242C70.5309 26.4553 70.1109 27.062 69.1589 27.062H62.9149V26.838C62.9149 25.8113 63.3256 25.2607 64.1469 25.186L65.0149 25.13V9.03001L63.8109 8.89001C63.2322 8.81534 62.9429 8.25534 62.9429 7.21001L67.9829 6.56601L68.2349 8.02201ZM71.3149 19.11C73.4242 19.11 74.4789 17.3647 74.4789 13.874C74.4789 12.2687 74.1989 11.0273 73.6389 10.15C73.0976 9.27267 72.3229 8.83401 71.3149 8.83401C70.3069 8.83401 69.3456 9.25401 68.4309 10.094V17.99C69.3269 18.7367 70.2882 19.11 71.3149 19.11ZM89.3725 8.58201C89.3725 7.40601 89.7832 6.81801 90.6045 6.81801H94.9725V19.082H95.5885C96.2232 19.1007 96.5405 19.6887 96.5405 20.846L92.5645 21.238L91.9765 19.67C90.6512 20.8087 89.2792 21.378 87.8605 21.378C86.4605 21.378 85.2565 20.902 84.2485 19.95C83.2405 18.9793 82.7365 17.4953 82.7365 15.498V8.80601H80.6925V8.58201C80.6925 7.40601 81.1032 6.81801 81.9245 6.81801H86.1525V15.638C86.1525 16.7953 86.3765 17.6167 86.8245 18.102C87.2725 18.5873 87.9632 18.83 88.8965 18.83C89.8298 18.83 90.7165 18.5127 91.5565 17.878V8.80601H89.3725V8.58201ZM108.653 7.43401C109.12 7.84467 109.353 8.37667 109.353 9.03001C109.353 9.68334 109.138 10.1873 108.709 10.542C108.298 10.8967 107.766 11.0273 107.113 10.934C107.113 10.2433 106.842 9.66467 106.301 9.19801C105.76 8.71267 105.153 8.47001 104.481 8.47001C103.828 8.47001 103.324 8.60067 102.969 8.86201C102.614 9.10467 102.437 9.43134 102.437 9.84201C102.437 10.2527 102.689 10.626 103.193 10.962C103.716 11.2793 104.444 11.6247 105.377 11.998C106.329 12.3713 107.01 12.67 107.421 12.894C107.832 13.0993 108.27 13.3793 108.737 13.734C109.633 14.406 110.081 15.4047 110.081 16.73C110.081 18.0367 109.549 19.138 108.485 20.034C107.421 20.93 106.002 21.378 104.229 21.378C102.922 21.378 101.774 21.1353 100.785 20.65C99.8142 20.1647 99.3289 19.4367 99.3289 18.466C99.3289 17.8127 99.5622 17.3087 100.029 16.954C100.496 16.5807 101.046 16.394 101.681 16.394C101.924 18.298 103.006 19.25 104.929 19.25C106.478 19.25 107.253 18.7367 107.253 17.71C107.253 17.038 106.842 16.4967 106.021 16.086C105.573 15.8433 105.032 15.6007 104.397 15.358C103.762 15.1153 103.258 14.91 102.885 14.742C102.53 14.5553 102.138 14.322 101.709 14.042C101.28 13.762 100.925 13.4727 100.645 13.174C100.029 12.4833 99.7209 11.6433 99.7209 10.654C99.7209 9.31001 100.262 8.26467 101.345 7.51801C102.428 6.77134 103.725 6.39801 105.237 6.39801C106.749 6.39801 107.888 6.74334 108.653 7.43401ZM137.862 20.958H131.31V20.734C131.31 19.7073 131.72 19.1567 132.542 19.082L133.354 19.026H133.382L132.262 14.966H127.222L126.046 18.97L128.314 19.138C128.37 19.25 128.36 19.502 128.286 19.894C128.118 20.6033 127.707 20.958 127.054 20.958H121.426V20.734C121.426 19.7073 121.836 19.1567 122.658 19.082L123.694 19.026L129.07 1.77801C129.872 1.70334 130.815 1.70334 131.898 1.77801L137.162 18.97L139.122 19.138C139.178 19.25 139.168 19.502 139.094 19.894C138.926 20.6033 138.515 20.958 137.862 20.958ZM127.754 13.09H131.758L129.826 6.00601L127.754 13.09ZM166.09 20.958H159.902V20.734C159.902 19.7073 160.313 19.1567 161.134 19.082L161.946 19.026V12.138C161.946 11.0553 161.722 10.2993 161.274 9.87001C160.826 9.42201 160.107 9.19801 159.118 9.19801C158.147 9.19801 157.167 9.62734 156.178 10.486C156.309 11.0647 156.374 11.662 156.374 12.278V18.97L158.362 19.138C158.474 20.3513 158.054 20.958 157.102 20.958H150.858V20.734C150.858 19.7073 151.269 19.1567 152.09 19.082L152.958 19.026V12.138C152.958 11.0553 152.734 10.2993 152.286 9.87001C151.838 9.42201 151.157 9.19801 150.242 9.19801C149.327 9.19801 148.366 9.62734 147.358 10.486V18.97L149.346 19.138C149.458 20.3513 149.038 20.958 148.086 20.958H141.842V20.734C141.842 19.7073 142.253 19.1567 143.074 19.082L143.942 19.026V9.03001L142.85 8.91801C142.085 8.84334 141.739 8.26467 141.814 7.18201L146.882 6.56601L147.078 8.27401H147.162C147.647 7.84467 148.03 7.52734 148.31 7.32201C148.59 7.11667 149.01 6.91134 149.57 6.70601C150.149 6.50067 150.793 6.39801 151.502 6.39801C152.23 6.39801 152.958 6.58467 153.686 6.95801C154.414 7.31267 155.011 7.86334 155.478 8.61001C157.027 7.13534 158.558 6.39801 160.07 6.39801C161.601 6.39801 162.861 6.88334 163.85 7.85401C164.858 8.80601 165.362 10.2807 165.362 12.278V18.97L167.35 19.138C167.406 19.25 167.397 19.502 167.322 19.894C167.154 20.6033 166.743 20.958 166.09 20.958ZM175.132 7.82601C176.27 6.87401 177.596 6.39801 179.108 6.39801C180.62 6.39801 181.926 6.94867 183.028 8.05001C184.129 9.13267 184.698 10.8687 184.736 13.258C184.773 15.6473 184.194 17.598 183 19.11C181.824 20.622 180.088 21.378 177.792 21.378C176.765 21.378 175.878 21.2193 175.132 20.902L171.716 19.838V3.40201L170.624 3.29001C169.858 3.21534 169.513 2.63667 169.588 1.55401L175.132 0.938007V7.82601ZM178.016 19.11C180.125 19.11 181.18 17.3647 181.18 13.874C181.18 12.2687 180.9 11.0273 180.34 10.15C179.798 9.27267 179.024 8.83401 178.016 8.83401C177.008 8.83401 176.046 9.25401 175.132 10.094V17.99C176.028 18.7367 176.989 19.11 178.016 19.11ZM201.421 19.698C201.421 20.818 200.693 21.378 199.237 21.378C197.781 21.378 196.839 20.8927 196.409 19.922C195.233 20.8927 193.936 21.378 192.517 21.378C191.099 21.378 189.979 21.0327 189.157 20.342C188.355 19.6327 187.953 18.6713 187.953 17.458C187.953 16.226 188.429 15.218 189.381 14.434C190.333 13.65 191.836 13.258 193.889 13.258C194.692 13.258 195.457 13.314 196.185 13.426V12.194C196.185 10.906 195.971 9.99134 195.541 9.45001C195.131 8.90867 194.561 8.63801 193.833 8.63801C193.105 8.63801 192.517 8.87134 192.069 9.33801C191.64 9.80467 191.425 10.4393 191.425 11.242C190.679 11.3167 190.053 11.2047 189.549 10.906C189.064 10.5887 188.821 10.1127 188.821 9.47801C188.821 8.58201 189.288 7.84467 190.221 7.26601C191.155 6.68734 192.359 6.39801 193.833 6.39801C197.679 6.39801 199.601 8.26467 199.601 11.998V19.474L201.421 19.698ZM196.185 15.526C195.513 15.2833 194.804 15.162 194.057 15.162C193.329 15.162 192.723 15.3393 192.237 15.694C191.752 16.03 191.509 16.5153 191.509 17.15C191.509 18.4567 192.181 19.11 193.525 19.11C194.477 19.11 195.364 18.8393 196.185 18.298V15.526ZM213.139 7.43401C213.606 7.84467 213.839 8.37667 213.839 9.03001C213.839 9.68334 213.624 10.1873 213.195 10.542C212.784 10.8967 212.252 11.0273 211.599 10.934C211.599 10.2433 211.328 9.66467 210.787 9.19801C210.246 8.71267 209.639 8.47001 208.967 8.47001C208.314 8.47001 207.81 8.60067 207.455 8.86201C207.1 9.10467 206.923 9.43134 206.923 9.84201C206.923 10.2527 207.175 10.626 207.679 10.962C208.202 11.2793 208.93 11.6247 209.863 11.998C210.815 12.3713 211.496 12.67 211.907 12.894C212.318 13.0993 212.756 13.3793 213.223 13.734C214.119 14.406 214.567 15.4047 214.567 16.73C214.567 18.0367 214.035 19.138 212.971 20.034C211.907 20.93 210.488 21.378 208.715 21.378C207.408 21.378 206.26 21.1353 205.271 20.65C204.3 20.1647 203.815 19.4367 203.815 18.466C203.815 17.8127 204.048 17.3087 204.515 16.954C204.982 16.5807 205.532 16.394 206.167 16.394C206.41 18.298 207.492 19.25 209.415 19.25C210.964 19.25 211.739 18.7367 211.739 17.71C211.739 17.038 211.328 16.4967 210.507 16.086C210.059 15.8433 209.518 15.6007 208.883 15.358C208.248 15.1153 207.744 14.91 207.371 14.742C207.016 14.5553 206.624 14.322 206.195 14.042C205.766 13.762 205.411 13.4727 205.131 13.174C204.515 12.4833 204.207 11.6433 204.207 10.654C204.207 9.31001 204.748 8.26467 205.831 7.51801C206.914 6.77134 208.211 6.39801 209.723 6.39801C211.235 6.39801 212.374 6.74334 213.139 7.43401ZM226.679 7.43401C227.146 7.84467 227.379 8.37667 227.379 9.03001C227.379 9.68334 227.165 10.1873 226.735 10.542C226.325 10.8967 225.793 11.0273 225.139 10.934C225.139 10.2433 224.869 9.66467 224.327 9.19801C223.786 8.71267 223.179 8.47001 222.507 8.47001C221.854 8.47001 221.35 8.60067 220.995 8.86201C220.641 9.10467 220.463 9.43134 220.463 9.84201C220.463 10.2527 220.715 10.626 221.219 10.962C221.742 11.2793 222.47 11.6247 223.403 11.998C224.355 12.3713 225.037 12.67 225.447 12.894C225.858 13.0993 226.297 13.3793 226.763 13.734C227.659 14.406 228.107 15.4047 228.107 16.73C228.107 18.0367 227.575 19.138 226.511 20.034C225.447 20.93 224.029 21.378 222.255 21.378C220.949 21.378 219.801 21.1353 218.811 20.65C217.841 20.1647 217.355 19.4367 217.355 18.466C217.355 17.8127 217.589 17.3087 218.055 16.954C218.522 16.5807 219.073 16.394 219.707 16.394C219.95 18.298 221.033 19.25 222.955 19.25C224.505 19.25 225.279 18.7367 225.279 17.71C225.279 17.038 224.869 16.4967 224.047 16.086C223.599 15.8433 223.058 15.6007 222.423 15.358C221.789 15.1153 221.285 14.91 220.911 14.742C220.557 14.5553 220.165 14.322 219.735 14.042C219.306 13.762 218.951 13.4727 218.671 13.174C218.055 12.4833 217.747 11.6433 217.747 10.654C217.747 9.31001 218.289 8.26467 219.371 7.51801C220.454 6.77134 221.751 6.39801 223.263 6.39801C224.775 6.39801 225.914 6.74334 226.679 7.43401ZM244.504 19.698C244.504 20.818 243.776 21.378 242.32 21.378C240.864 21.378 239.921 20.8927 239.492 19.922C238.316 20.8927 237.019 21.378 235.6 21.378C234.181 21.378 233.061 21.0327 232.24 20.342C231.437 19.6327 231.036 18.6713 231.036 17.458C231.036 16.226 231.512 15.218 232.464 14.434C233.416 13.65 234.919 13.258 236.972 13.258C237.775 13.258 238.54 13.314 239.268 13.426V12.194C239.268 10.906 239.053 9.99134 238.624 9.45001C238.213 8.90867 237.644 8.63801 236.916 8.63801C236.188 8.63801 235.6 8.87134 235.152 9.33801C234.723 9.80467 234.508 10.4393 234.508 11.242C233.761 11.3167 233.136 11.2047 232.632 10.906C232.147 10.5887 231.904 10.1127 231.904 9.47801C231.904 8.58201 232.371 7.84467 233.304 7.26601C234.237 6.68734 235.441 6.39801 236.916 6.39801C240.761 6.39801 242.684 8.26467 242.684 11.998V19.474L244.504 19.698ZM239.268 15.526C238.596 15.2833 237.887 15.162 237.14 15.162C236.412 15.162 235.805 15.3393 235.32 15.694C234.835 16.03 234.592 16.5153 234.592 17.15C234.592 18.4567 235.264 19.11 236.608 19.11C237.56 19.11 238.447 18.8393 239.268 18.298V15.526ZM262.074 19.614C262.074 20.8087 261.28 21.406 259.694 21.406C258.126 21.406 257.192 20.8927 256.894 19.866C255.699 20.874 254.336 21.378 252.806 21.378C251.294 21.378 249.987 20.8367 248.886 19.754C247.784 18.6527 247.215 16.9073 247.178 14.518C247.14 12.1287 247.71 10.178 248.886 8.66601C250.08 7.15401 251.826 6.39801 254.122 6.39801C255.148 6.39801 256.035 6.55667 256.782 6.87401V3.40201L255.69 3.29001C254.924 3.21534 254.579 2.63667 254.654 1.55401L260.198 0.938007V19.446L262.074 19.614ZM253.898 8.66601C251.788 8.66601 250.734 10.4113 250.734 13.902C250.734 15.5073 251.004 16.7487 251.546 17.626C252.106 18.5033 252.88 18.942 253.87 18.942C254.878 18.942 255.848 18.522 256.782 17.682V9.78601C255.886 9.03934 254.924 8.66601 253.898 8.66601ZM273.586 10.038C273.063 9.04867 272.316 8.55401 271.346 8.55401C270.375 8.55401 269.619 9.03934 269.078 10.01C268.555 10.9807 268.294 12.306 268.294 13.986C268.294 15.6473 268.555 16.9447 269.078 17.878C269.619 18.7927 270.375 19.25 271.346 19.25C272.316 19.25 273.063 18.802 273.586 17.906C274.127 16.9913 274.398 15.7033 274.398 14.042C274.398 12.362 274.127 11.0273 273.586 10.038ZM264.738 14.126C264.738 11.7367 265.326 9.85134 266.502 8.47001C267.696 7.08867 269.348 6.39801 271.458 6.39801C273.567 6.39801 275.172 7.06067 276.274 8.38601C277.394 9.71134 277.954 11.55 277.954 13.902C277.954 16.2353 277.356 18.0647 276.162 19.39C274.967 20.7153 273.296 21.378 271.15 21.378C269.022 21.378 267.416 20.762 266.334 19.53C265.27 18.298 264.738 16.4967 264.738 14.126ZM286.578 8.86201C287.026 8.26467 287.66 7.70467 288.482 7.18201C289.322 6.65934 290.04 6.39801 290.638 6.39801C291.254 6.39801 291.767 6.59401 292.178 6.98601C292.588 7.37801 292.794 8.03134 292.794 8.94601C292.794 9.84201 292.486 10.5607 291.87 11.102C291.552 11.3447 291.02 11.4193 290.274 11.326C290.274 10.71 290.218 10.2433 290.106 9.92601C289.994 9.59001 289.872 9.39401 289.742 9.33801C289.611 9.26334 289.434 9.22601 289.21 9.22601C288.276 9.22601 287.436 9.83267 286.69 11.046V18.97L288.958 19.138C289.07 20.3513 288.65 20.958 287.698 20.958H281.23C281.23 20.958 281.23 20.8833 281.23 20.734C281.23 19.7073 281.64 19.1567 282.462 19.082L283.274 19.026V9.00201L282.042 8.86201C281.463 8.80601 281.174 8.24601 281.174 7.18201L286.242 6.53801L286.494 8.86201H286.578Z" fill="#575757"/>
</svg>
