<svg width="1224" height="196" viewBox="0 0 1224 196" fill="none" xmlns="http://www.w3.org/2000/svg">
<path d="M72.323 146.675C70.4941 146.676 68.6752 146.879 66.9243 147.28C66.9377 147.077 66.9645 146.88 66.9645 146.675C66.962 143.728 65.5471 140.882 62.9826 138.666C60.4181 136.449 56.8783 135.012 53.0206 134.623C49.1628 134.233 45.2493 134.916 42.0067 136.546C38.7642 138.176 36.413 140.641 35.3898 143.484C33.5022 142.913 31.4881 142.619 29.4553 142.618C25.1918 142.618 21.103 143.9 18.0883 146.183C15.0735 148.465 13.3799 151.561 13.3799 154.789C13.3799 158.017 15.0735 161.113 18.0883 163.396C21.103 165.678 25.1918 166.961 29.4553 166.961C32.9827 166.959 36.4114 166.079 39.2124 164.455C42.0135 162.832 44.0313 160.556 44.9546 157.978C46.842 158.55 48.8561 158.845 50.8891 158.847C51.8938 158.847 52.8718 158.767 53.8256 158.636C53.6702 159.366 53.5684 160.11 53.5684 160.875C53.5684 168.716 61.9678 175.075 72.323 175.075C82.6782 175.075 91.0776 168.716 91.0776 160.875C91.0776 157.109 89.1017 153.497 85.5845 150.834C82.0673 148.171 77.297 146.675 72.323 146.675Z" fill="#BABABA"/>
<path d="M83.0396 175.076C81.7884 175.076 80.6015 175.248 79.4521 175.49C80.0308 174.423 80.3603 173.258 80.3603 172.033C80.3603 169.612 79.0901 167.29 76.8291 165.578C74.568 163.866 71.5014 162.904 68.3038 162.904C65.6864 162.91 63.144 163.566 61.0672 164.773C60.126 161.923 57.9541 159.392 54.8965 157.584C51.8389 155.775 48.0708 154.792 44.1907 154.79C40.5802 154.791 37.0596 155.643 34.1165 157.227C31.1735 158.81 28.9536 161.047 27.7643 163.629C24.8173 162.939 21.7082 162.738 18.6496 163.042C15.591 163.345 12.6549 164.145 10.0418 165.386C7.42877 166.627 5.20037 168.281 3.50885 170.234C1.81734 172.187 0.702555 174.394 0.240664 176.703C-0.221227 179.012 -0.0193426 181.37 0.832525 183.615C1.68439 185.859 3.16617 187.938 5.17663 189.71C7.18709 191.481 9.67887 192.903 12.4817 193.879C15.2846 194.854 18.3325 195.36 21.4172 195.361H83.0396C90.4396 195.361 96.4357 190.822 96.4357 185.219C96.4357 179.616 90.4396 175.076 83.0396 175.076Z" fill="#919194"/>
<path d="M256.118 16.1595C254.289 16.16 252.47 16.3637 250.719 16.764C250.733 16.5611 250.759 16.3644 250.759 16.1595C250.757 13.2127 249.342 10.3667 246.778 8.15011C244.213 5.93349 240.673 4.49685 236.816 4.10699C232.958 3.71712 229.044 4.40053 225.802 6.03029C222.559 7.66005 220.208 10.1254 219.185 12.9685C217.297 12.3971 215.283 12.1031 213.25 12.1023C208.987 12.1023 204.898 13.3847 201.883 15.6673C198.868 17.9499 197.175 21.0457 197.175 24.2738C197.175 27.5018 198.868 30.5977 201.883 32.8803C204.898 35.1629 208.987 36.4452 213.25 36.4452C216.778 36.4435 220.206 35.5631 223.007 33.9397C225.808 32.3164 227.826 30.0404 228.75 27.4627C230.637 28.0348 232.651 28.3295 234.684 28.3309C235.689 28.3309 236.667 28.2518 237.62 28.1199C237.465 28.8502 237.363 29.5947 237.363 30.3595C237.363 38.1999 245.763 44.5595 256.118 44.5595C266.473 44.5595 274.873 38.1999 274.873 30.3595C274.873 26.5934 272.897 22.9816 269.379 20.3186C265.862 17.6556 261.092 16.1595 256.118 16.1595Z" fill="#BABABA"/>
<path d="M266.835 44.5601C265.583 44.5601 264.396 44.7326 263.247 44.974C263.826 43.9069 264.155 42.7425 264.155 41.5173C264.155 39.0962 262.885 36.7743 260.624 35.0624C258.363 33.3505 255.296 32.3887 252.099 32.3887C249.481 32.3944 246.939 33.0508 244.862 34.257C243.921 31.407 241.749 28.8767 238.691 27.0681C235.634 25.2595 231.866 24.2762 227.986 24.2744C224.375 24.2759 220.855 25.1273 217.911 26.7109C214.968 28.2945 212.749 30.5318 211.559 33.1129C208.612 32.423 205.503 32.2228 202.445 32.5261C199.386 32.8294 196.45 33.629 193.837 34.8702C191.224 36.1115 188.995 37.7652 187.304 39.7183C185.612 41.6715 184.497 43.878 184.036 46.1873C183.574 48.4966 183.776 50.8541 184.627 53.0989C185.479 55.3437 186.961 57.4228 188.972 59.1942C190.982 60.9656 193.474 62.3876 196.277 63.3629C199.08 64.3383 202.127 64.8442 205.212 64.8459H266.835C274.235 64.8459 280.231 60.3059 280.231 54.703C280.231 49.1001 274.235 44.5601 266.835 44.5601Z" fill="#919194"/>
<path d="M759.554 125.051C758.263 125.051 756.98 125.195 755.744 125.477C755.754 125.334 755.773 125.195 755.773 125.051C755.771 122.971 754.773 120.963 752.963 119.399C751.153 117.835 748.656 116.821 745.934 116.546C743.211 116.271 740.45 116.753 738.162 117.903C735.874 119.053 734.215 120.793 733.493 122.799C732.161 122.396 730.74 122.188 729.305 122.188C726.297 122.188 723.412 123.093 721.284 124.703C719.157 126.314 717.962 128.499 717.962 130.776C717.962 133.054 719.157 135.239 721.284 136.849C723.412 138.46 726.297 139.365 729.305 139.365C731.794 139.364 734.214 138.742 736.19 137.597C738.167 136.452 739.59 134.846 740.242 133.027C741.574 133.43 742.995 133.638 744.429 133.639C745.138 133.639 745.828 133.583 746.502 133.49C746.392 134.006 746.32 134.531 746.32 135.071C746.32 140.603 752.247 145.091 759.554 145.091C766.861 145.091 772.788 140.603 772.788 135.071C772.788 132.413 771.393 129.865 768.912 127.986C766.43 126.106 763.064 125.051 759.554 125.051Z" fill="#BABABA"/>
<path d="M767.115 145.091C766.232 145.091 765.394 145.212 764.583 145.383C764.992 144.63 765.224 143.808 765.224 142.944C765.224 141.235 764.328 139.597 762.732 138.389C761.137 137.181 758.973 136.502 756.717 136.502C754.87 136.506 753.076 136.97 751.61 137.821C750.946 135.81 749.414 134.024 747.256 132.748C745.099 131.472 742.44 130.778 739.702 130.777C737.154 130.778 734.67 131.378 732.593 132.496C730.517 133.613 728.95 135.192 728.111 137.013C726.031 136.526 723.838 136.385 721.679 136.599C719.521 136.813 717.449 137.377 715.606 138.253C713.762 139.129 712.189 140.296 710.996 141.674C709.802 143.052 709.015 144.609 708.69 146.239C708.364 147.868 708.506 149.532 709.107 151.116C709.708 152.7 710.754 154.167 712.173 155.417C713.591 156.667 715.349 157.67 717.327 158.359C719.305 159.047 721.456 159.404 723.632 159.405H767.115C772.336 159.405 776.568 156.201 776.568 152.248C776.568 148.294 772.336 145.091 767.115 145.091Z" fill="#919194"/>
<path d="M1202.76 145.707C1200.84 145.707 1199.02 145.973 1197.25 146.344C1198.14 144.703 1198.64 142.913 1198.64 141.029C1198.64 137.306 1196.69 133.736 1193.21 131.103C1189.74 128.471 1185.02 126.992 1180.11 126.992C1176.08 127.001 1172.17 128.01 1168.98 129.865C1167.53 125.483 1164.19 121.592 1159.49 118.811C1154.79 116.03 1149 114.518 1143.03 114.516C1137.48 114.518 1132.06 115.827 1127.54 118.262C1123.01 120.697 1119.6 124.137 1117.77 128.106C1113.24 127.045 1108.46 126.737 1103.76 127.204C1099.05 127.67 1094.54 128.899 1090.52 130.808C1086.5 132.717 1083.08 135.259 1080.48 138.263C1077.87 141.266 1076.16 144.659 1075.45 148.209C1074.74 151.76 1075.05 155.385 1076.36 158.837C1077.67 162.288 1079.95 165.485 1083.04 168.209C1086.13 170.933 1089.96 173.119 1094.27 174.619C1098.58 176.119 1103.27 176.897 1108.01 176.899H1202.76C1214.14 176.899 1223.36 169.918 1223.36 161.303C1223.36 152.688 1214.14 145.707 1202.76 145.707Z" fill="#919194"/>
<path d="M968.479 31.1918C966.555 31.1918 964.73 31.4569 962.963 31.8281C963.853 30.1874 964.359 28.397 964.359 26.513C964.359 22.7903 962.406 19.2202 958.929 16.5878C955.453 13.9555 950.738 12.4767 945.821 12.4767C941.796 12.4855 937.887 13.4948 934.694 15.3495C933.246 10.9672 929.907 7.07659 925.205 4.29563C920.504 1.51466 914.71 0.00274955 908.744 0C903.192 0.0022287 897.779 1.31147 893.254 3.74639C888.728 6.18131 885.315 9.62142 883.486 13.5903C878.955 12.5294 874.174 12.2216 869.471 12.688C864.768 13.1543 860.254 14.3838 856.236 16.2924C852.218 18.201 848.792 20.7437 846.191 23.7469C843.59 26.7501 841.876 30.143 841.165 33.6937C840.455 37.2445 840.766 40.8695 842.076 44.3212C843.385 47.7728 845.664 50.9696 848.755 53.6934C851.846 56.4172 855.678 58.6036 859.988 60.1034C864.297 61.6031 868.984 62.3809 873.727 62.3835H968.479C979.857 62.3835 989.077 55.4028 989.077 46.7877C989.077 38.1725 979.857 31.1918 968.479 31.1918Z" fill="#919194"/>
</svg>
