<svg width="17" height="16" viewBox="0 0 17 16" fill="none" xmlns="http://www.w3.org/2000/svg">
<path d="M4.68941 11.6C4.71941 11.6 4.74941 11.597 4.77941 11.5925L7.30241 11.15C7.33241 11.144 7.36091 11.1305 7.38191 11.108L13.7404 4.7495C13.7543 4.73562 13.7653 4.71914 13.7729 4.70099C13.7804 4.68285 13.7843 4.6634 13.7843 4.64375C13.7843 4.6241 13.7804 4.60465 13.7729 4.58651C13.7653 4.56836 13.7543 4.55188 13.7404 4.538L11.2474 2.0435C11.2189 2.015 11.1814 2 11.1409 2C11.1004 2 11.0629 2.015 11.0344 2.0435L4.67591 8.402C4.65341 8.4245 4.63991 8.4515 4.63391 8.4815L4.19141 11.0045C4.17681 11.0849 4.18203 11.1676 4.2066 11.2454C4.23117 11.3233 4.27435 11.3941 4.33241 11.4515C4.43141 11.5475 4.55591 11.6 4.68941 11.6ZM5.70041 8.984L11.1409 3.545L12.2404 4.6445L6.79991 10.0835L5.46641 10.319L5.70041 8.984ZM14.0239 12.86H2.98391C2.71841 12.86 2.50391 13.0745 2.50391 13.34V13.88C2.50391 13.946 2.55791 14 2.62391 14H14.3839C14.4499 14 14.5039 13.946 14.5039 13.88V13.34C14.5039 13.0745 14.2894 12.86 14.0239 12.86Z" fill="#212121"/>
</svg>
