<svg width="33" height="24" viewBox="0 0 33 24" fill="none" xmlns="http://www.w3.org/2000/svg">
<rect x="1.11523" y="0.5" width="31" height="23" rx="3.5" stroke="#212121"/>
<path d="M12.6894 15.6C12.7194 15.6 12.7494 15.597 12.7794 15.5925L15.3024 15.15C15.3324 15.144 15.3609 15.1305 15.3819 15.108L21.7404 8.7495C21.7543 8.73562 21.7653 8.71914 21.7729 8.70099C21.7804 8.68285 21.7843 8.6634 21.7843 8.64375C21.7843 8.6241 21.7804 8.60465 21.7729 8.58651C21.7653 8.56836 21.7543 8.55188 21.7404 8.538L19.2474 6.0435C19.2189 6.015 19.1814 6 19.1409 6C19.1004 6 19.0629 6.015 19.0344 6.0435L12.6759 12.402C12.6534 12.4245 12.6399 12.4515 12.6339 12.4815L12.1914 15.0045C12.1768 15.0849 12.182 15.1676 12.2066 15.2454C12.2312 15.3233 12.2743 15.3941 12.3324 15.4515C12.4314 15.5475 12.5559 15.6 12.6894 15.6ZM13.7004 12.984L19.1409 7.545L20.2404 8.6445L14.7999 14.0835L13.4664 14.319L13.7004 12.984ZM22.0239 16.86H10.9839C10.7184 16.86 10.5039 17.0745 10.5039 17.34V17.88C10.5039 17.946 10.5579 18 10.6239 18H22.3839C22.4499 18 22.5039 17.946 22.5039 17.88V17.34C22.5039 17.0745 22.2894 16.86 22.0239 16.86Z" fill="#212121"/>
</svg>
