<svg width="176" height="176" viewBox="0 0 176 176" fill="none" xmlns="http://www.w3.org/2000/svg">
<mask id="mask0_969_1071" style="mask-type:luminance" maskUnits="userSpaceOnUse" x="1" y="1" width="174" height="174">
<path d="M149.107 149.126C182.838 115.368 182.838 60.6355 149.107 26.8773C115.375 -6.88083 60.6861 -6.88083 26.9548 26.8773C-6.77647 60.6355 -6.77647 115.368 26.9548 149.126C60.6861 182.885 115.375 182.885 149.107 149.126Z" fill="white"/>
</mask>
<g mask="url(#mask0_969_1071)">
<path d="M149.107 149.126C182.838 115.368 182.838 60.6355 149.107 26.8773C115.375 -6.88083 60.6861 -6.88083 26.9548 26.8773C-6.77647 60.6355 -6.77647 115.368 26.9548 149.126C60.6861 182.885 115.375 182.885 149.107 149.126Z" fill="#FFB8B3"/>
<path d="M122.211 203.173H145.725C143.82 179.026 142.026 158.08 141.988 157.655C142.683 144.921 140.431 128.604 140.211 127.078C141.868 123.057 139.982 118.928 139.902 118.753C139.866 118.679 139.814 118.622 139.747 118.575C136.42 116.478 117.519 110.27 116.714 110.005C116.672 109.992 116.63 109.985 116.585 109.985C116.498 109.985 116.41 110.015 116.34 110.067C116.229 110.147 116.168 110.277 116.172 110.413L118.466 181.603C119.341 186.77 120.682 194.453 122.214 203.173H122.211Z" fill="#26678A"/>
<path d="M118.057 181.672C118.929 186.822 120.264 194.478 121.791 203.172H122.631C121.097 194.439 119.753 186.732 118.872 181.533L116.585 110.399C116.585 110.399 136.203 116.832 139.527 118.927C139.527 118.927 141.469 123.092 139.789 127.024C139.789 127.024 142.309 144.212 141.576 157.633C141.576 157.633 143.392 178.766 145.317 203.173H146.14C144.276 179.521 142.515 158.924 142.403 157.62C143.078 145.116 140.93 129.212 140.64 127.13C142.288 122.975 140.362 118.756 140.278 118.575C140.21 118.434 140.103 118.312 139.967 118.228C136.598 116.104 117.648 109.876 116.845 109.614C116.761 109.585 116.674 109.572 116.585 109.572C116.41 109.572 116.237 109.627 116.091 109.738C115.874 109.899 115.752 110.158 115.758 110.427L118.044 181.561C118.047 181.6 118.051 181.636 118.057 181.675V181.672Z" fill="#010000"/>
<path d="M122.632 203.174H130.96L135.984 184.184L141.275 152.914L125.233 184.184L130.757 164.084L121.613 117.74L118.188 110.931C117.189 110.597 116.586 110.401 116.586 110.401L118.872 181.535C119.754 186.734 121.099 194.441 122.632 203.174Z" fill="#185773"/>
<path d="M137.428 160.363C136.236 163.707 135.044 167.051 133.852 170.395" stroke="#010000" stroke-width="0.576711" stroke-linecap="round" stroke-linejoin="round"/>
<path d="M12.4651 203.175C14.4715 198.374 18.9072 187.595 20.9739 181.27L53.8146 151.818C53.9084 151.734 53.9602 151.609 53.949 151.482L51.2299 111.85C51.2201 111.73 51.1585 111.617 51.0591 111.543C50.9877 111.494 50.9037 111.464 50.8169 111.464C50.7819 111.464 50.7497 111.471 50.7133 111.478C50.6111 111.503 40.3409 114.241 34.638 123.914C34.3608 124.293 6.82107 161.721 0.154914 176.001C0.112909 176.112 -4.10297 187.378 -5.34351 198.108C-5.59554 198.562 -6.74787 200.784 -6.72827 203.175H12.4665H12.4651Z" fill="#26678A"/>
<path d="M-6.30737 203.175C-6.32697 200.63 -4.94501 198.238 -4.94501 198.238C-3.70727 187.411 0.540811 176.147 0.540811 176.147C7.25737 161.767 34.9693 124.161 34.9693 124.161C40.675 114.49 50.8149 111.879 50.8149 111.879L53.5354 151.513L20.6149 181.039C18.5343 187.433 13.9991 198.439 12.0193 203.175H12.914C14.9428 198.315 19.2721 187.779 21.3332 181.507L54.0885 152.125C54.2789 151.956 54.3797 151.708 54.3629 151.452L51.6396 111.822C51.6242 111.576 51.4968 111.351 51.3008 111.208C51.1594 111.104 50.9871 111.05 50.8163 111.05C50.7491 111.05 50.6777 111.059 50.6105 111.076C50.1835 111.187 40.0953 113.876 34.2832 123.704C32.8327 125.673 6.42428 161.598 -0.208275 175.794C-0.275483 175.965 -4.48576 187.226 -5.7445 197.979C-6.07074 198.587 -7.15586 200.793 -7.14046 203.175H-6.30737Z" fill="#010000"/>
<path d="M85.2556 123.062C85.1226 123.062 84.9938 122.997 84.9126 122.88L72.3181 104.427C72.2565 104.333 72.2341 104.22 72.2565 104.106C74.347 94.4358 72.2733 80.3334 72.2537 80.1919C72.2313 80.0559 72.2831 79.9144 72.3868 79.8233C72.4638 79.7561 72.5618 79.7168 72.6612 79.7168C72.6962 79.7168 72.7354 79.7238 72.7704 79.7336L85.0946 83.0771L97.871 79.6117C97.906 79.6019 97.9453 79.5977 97.9803 79.5977C98.0797 79.5977 98.1777 79.6342 98.2547 79.7028C98.3583 79.7967 98.4087 79.9354 98.3863 80.0742C98.3667 80.2143 96.2931 94.3153 98.3835 103.988C98.3989 104.063 98.3933 104.142 98.3667 104.218C98.1245 104.874 92.381 120.358 85.4026 123.033C85.355 123.054 85.3018 123.064 85.2542 123.064L85.2556 123.062Z" fill="#FAB18C"/>
<path d="M97.9803 80.0127C97.9803 80.0127 95.8493 94.2146 97.9803 104.075C97.9803 104.075 92.1403 120.008 85.2557 122.649L72.6599 104.196C74.7909 94.3351 72.6599 80.1332 72.6599 80.1332L85.1871 83.5299V83.4823L97.9789 80.0141M97.9789 79.186C97.9075 79.186 97.8333 79.1958 97.7619 79.2154L85.0919 82.6485L72.8741 79.3345C72.8027 79.3149 72.7285 79.3051 72.6585 79.3051C72.4582 79.3051 72.2608 79.3793 72.1096 79.5153C71.8996 79.703 71.7988 79.9805 71.8422 80.2551C71.8618 80.3967 73.9242 94.4262 71.8506 104.021C71.803 104.244 71.8478 104.476 71.9766 104.665L84.5724 123.115C84.7306 123.349 84.9883 123.477 85.2543 123.477C85.3551 123.477 85.4545 123.458 85.5511 123.423C92.7003 120.678 98.5124 105.027 98.7546 104.361C98.8092 104.213 98.819 104.056 98.7868 103.902C96.7132 94.3001 98.7742 80.2762 98.7966 80.136C98.8386 79.8586 98.7392 79.5797 98.5292 79.3962C98.378 79.2574 98.1806 79.186 97.9803 79.186H97.9789Z" fill="#010000"/>
<path opacity="0.8" d="M97.5539 101.616C96.305 92.8281 97.6925 82.0523 97.9418 80.2853L96.2364 80.4815L85.1877 83.4788V83.5265L80.5896 82.2822L73.0273 83.1523C73.3172 85.9002 73.6602 90.1937 73.593 94.7199C76.4941 97.6387 83.5327 102.489 97.5525 101.616H97.5539Z" fill="#F4816C"/>
<path d="M61.3456 73.843C59.2174 73.843 57.1788 71.1988 56.3835 67.4097C55.5042 63.0405 56.6229 58.8732 58.929 57.9147C59.2426 57.7844 59.566 57.7199 59.8951 57.7199C62.0345 57.7199 64.069 60.3641 64.8446 64.149C65.7393 68.5293 64.6276 72.7009 62.3118 73.6482C62.0023 73.7771 61.6747 73.8416 61.3456 73.8416V73.843Z" fill="#FAB18C"/>
<path d="M59.894 58.1347C61.7674 58.1347 63.6968 60.6248 64.4389 64.2345C65.286 68.3893 64.2653 72.4011 62.1553 73.2685C61.8864 73.3792 61.6162 73.431 61.3446 73.431C59.4642 73.431 57.5417 70.9382 56.7871 67.3271C55.9568 63.2017 56.9579 59.1829 59.0875 58.2973C59.3522 58.1866 59.6238 58.1347 59.8954 58.1347M59.8954 57.3066C59.5104 57.3066 59.1337 57.3808 58.7753 57.5294C56.2494 58.5803 55.0467 62.8612 55.9778 67.4868C56.8151 71.4777 59.0203 74.2564 61.3474 74.2564C61.7282 74.2564 62.1063 74.1821 62.4717 74.0336C65.0046 72.9952 66.2003 68.7129 65.2538 64.0691C64.4361 60.0867 62.2337 57.3052 59.8968 57.3052L59.8954 57.3066Z" fill="#010000"/>
<path opacity="0.8" d="M58.7456 61.4592C58.7456 61.4592 58.0161 71.0705 61.8148 70.8632C61.8148 70.8632 64.5115 65.0114 59.6893 61.1453L58.7456 61.4592Z" fill="#F4816C"/>
<path d="M59.0543 66.5391C59.0543 66.5391 58.9773 66.1972 58.9283 65.6703C58.8933 65.142 58.8471 64.4218 59.0963 63.7015C59.2028 63.34 59.445 62.9869 59.7712 62.7543C60.1017 62.5273 60.5007 62.4376 60.7961 62.46C61.4164 62.46 61.765 62.6324 61.7776 62.6071L61.4766 63.3975C61.4794 63.4241 61.1868 63.2391 60.7597 63.1747C60.5399 63.12 60.3019 63.1494 60.0709 63.2489C59.8482 63.3624 59.6228 63.5726 59.4856 63.8697C59.179 64.4428 59.0977 65.1575 59.0599 65.6675C59.0277 66.1874 59.0529 66.5391 59.0529 66.5391H59.0543Z" fill="#010000"/>
<path d="M57.8743 67.1988C57.8743 67.1988 57.8001 66.9144 57.6713 66.4127C57.5677 65.9153 57.4319 65.1642 57.4487 64.2604C57.5271 63.3734 57.5621 62.2383 58.4316 61.2308C58.9385 60.7362 59.7435 60.5848 60.4436 61.001C61.0737 61.3443 61.4265 61.8908 61.7822 62.4107C62.0916 62.9572 62.331 63.5261 62.5159 64.102C62.6811 64.6583 62.8253 65.2847 62.8813 65.8186C63.0367 66.9214 62.9779 68.0368 62.7847 68.9084C62.7259 69.3582 62.5453 69.7534 62.4095 70.0925C62.2246 70.4204 62.079 70.7062 61.8732 70.8898C61.715 71.1056 61.512 71.1911 61.3859 71.2513C61.2627 71.313 61.1983 71.348 61.1983 71.348C61.1717 71.3186 61.4881 71.2121 61.7444 70.7819C61.9054 70.5913 61.9964 70.2971 62.1154 69.9762C62.1826 69.6343 62.2904 69.2615 62.3156 68.8327C62.4193 67.9681 62.3422 67.0027 62.142 65.9321C62.0608 65.373 61.8928 64.9008 61.7374 64.3515C61.5596 63.8274 61.3299 63.3173 61.0555 62.8423C60.7685 62.3995 60.445 61.9202 60.0418 61.71C59.7576 61.4971 59.2535 61.4774 58.9427 61.7717C58.3056 62.4219 58.0452 63.4729 57.9219 64.2968C57.8995 64.7228 57.8211 65.1179 57.8309 65.4669C57.8267 65.8186 57.8029 66.1297 57.8337 66.3889C57.8589 66.9032 57.8757 67.1974 57.8757 67.1974L57.8743 67.1988Z" fill="#010000"/>
<path d="M108.877 73.8359C108.548 73.8359 108.222 73.7714 107.909 73.6425C105.595 72.6953 104.484 68.5237 105.376 64.1475C106.154 60.3584 108.19 57.7142 110.325 57.7142C110.654 57.7142 110.982 57.7773 111.291 57.9048C113.597 58.8675 114.719 63.0349 113.84 67.4012C113.044 71.1931 111.003 73.8373 108.877 73.8373V73.8359Z" fill="#FAB18C"/>
<path d="M110.323 58.1277C110.595 58.1277 110.865 58.1795 111.131 58.2902C113.26 59.1758 114.262 63.1947 113.43 67.32C112.674 70.9311 110.756 73.424 108.876 73.424C108.601 73.424 108.33 73.3735 108.062 73.2614C105.952 72.3954 104.933 68.3836 105.778 64.2274C106.522 60.6177 108.45 58.1277 110.323 58.1277ZM110.323 57.2995C107.988 57.2995 105.788 60.0796 104.971 64.0634C104.021 68.7059 105.22 72.9896 107.749 74.0279C108.114 74.1764 108.492 74.2507 108.876 74.2507C111.199 74.2507 113.405 71.4706 114.241 67.4882C115.175 62.8584 113.974 58.5747 111.449 57.5237C111.084 57.3752 110.707 57.3009 110.322 57.3009L110.323 57.2995Z" fill="#010000"/>
<g opacity="0.8">
<path d="M105.776 64.2299C104.93 68.3847 105.949 72.3966 108.06 73.2639C110.172 74.1243 112.562 71.4563 113.429 67.3225C114.259 63.1972 113.258 59.1783 111.13 58.2927C109.037 57.4295 106.627 60.0962 105.777 64.2299H105.776Z" fill="#F4816C"/>
</g>
<path d="M111.166 66.5365C111.166 66.5365 111.188 66.1848 111.156 65.6649C111.118 65.1549 111.04 64.4402 110.73 63.8671C110.594 63.57 110.369 63.3598 110.145 63.2463C109.915 63.1468 109.676 63.1174 109.456 63.1721C109.03 63.2365 108.736 63.4215 108.739 63.3949L108.439 62.6045C108.452 62.6298 108.801 62.4574 109.421 62.4574C109.715 62.435 110.115 62.5261 110.449 62.7517C110.772 62.9843 111.014 63.3374 111.121 63.6989C111.37 64.4192 111.324 65.1408 111.289 65.6677C111.243 66.1946 111.167 66.5365 111.167 66.5365H111.166Z" fill="#010000"/>
<path d="M112.341 67.1966C112.341 67.1966 112.358 66.9023 112.383 66.388C112.415 66.1302 112.39 65.8191 112.386 65.466C112.396 65.1171 112.319 64.7219 112.295 64.2959C112.173 63.472 111.914 62.421 111.274 61.7708C110.968 61.4766 110.461 61.4962 110.177 61.7092C109.773 61.9194 109.453 62.3986 109.161 62.8414C108.887 63.3165 108.66 63.8265 108.484 64.3506C108.325 64.8999 108.157 65.3721 108.076 65.9312C107.876 67.0018 107.799 67.9673 107.905 68.8319C107.928 69.2621 108.034 69.6334 108.106 69.9753C108.222 70.2948 108.316 70.5905 108.474 70.781C108.729 71.2112 109.045 71.3177 109.02 71.3472C109.02 71.3472 108.956 71.3107 108.832 71.2505C108.709 71.1888 108.506 71.1047 108.344 70.8889C108.138 70.7054 107.992 70.4195 107.81 70.0916C107.674 69.7525 107.494 69.3573 107.432 68.9075C107.242 68.0359 107.184 66.9205 107.338 65.8177C107.39 65.2838 107.536 64.6575 107.704 64.1012C107.887 63.5252 108.124 62.9577 108.433 62.4098C108.789 61.89 109.14 61.3435 109.772 61.0001C110.472 60.5826 111.28 60.7353 111.784 61.23C112.653 62.2375 112.693 63.3725 112.768 64.2595C112.785 65.1633 112.649 65.9144 112.543 66.4119C112.413 66.9135 112.34 67.198 112.34 67.198L112.341 67.1966Z" fill="#010000"/>
<path d="M85.3208 96.1604C75.1906 96.1604 63.2024 81.6446 63.2024 69.3821L62.3105 33.8906H108.334L107.239 69.3961C107.239 81.6446 95.3571 96.1604 85.3208 96.1604Z" fill="#FAB18C"/>
<path d="M107.908 34.3041L106.826 69.3822C106.826 81.8521 94.7283 95.7472 85.322 95.7472C75.9158 95.7472 63.6168 81.8507 63.6168 69.3822L62.7347 34.3041H107.908ZM108.761 33.476H61.8848L61.9072 34.3223L62.7893 69.4004C62.7893 81.8353 75.0029 96.5739 85.322 96.5739C95.6412 96.5739 107.653 81.8353 107.653 69.3808L108.735 34.3293L108.762 33.476H108.761Z" fill="#010000"/>
<path d="M81.6816 85.345C81.6816 85.345 86.0431 88.1391 90.462 85.345C90.462 85.345 86.6942 91.9926 81.6816 85.345Z" fill="#F4816C"/>
<path opacity="0.8" d="M62.7656 35.619L63.3537 58.9516C64.9527 56.2233 66.8275 48.997 67.984 44.2901C67.984 44.2901 89.2748 48.4281 102.002 46.4957C102.002 46.4957 101.76 56.5344 105.067 61.132C105.067 61.132 104.366 83.3744 92.2166 93.6205C98.4739 90.0053 104.405 82.2618 106.241 74.2732C106.27 74.1414 106.299 74.0111 106.325 73.8794C106.446 73.3007 106.542 72.7192 106.623 72.1362C106.648 71.9386 106.682 71.7425 106.7 71.5477C106.778 70.8232 106.826 70.103 106.826 69.3841L107.747 39.5314L62.767 35.619H62.7656Z" fill="#F4816C"/>
<path d="M81.7856 74.217C81.6036 74.6276 81.4692 75.083 81.5686 75.467C81.626 75.6505 81.7268 75.7949 81.8682 75.9056C81.92 75.977 82.0012 75.9897 82.1146 76.0541C82.2183 76.113 82.3177 76.1578 82.4087 76.1718C82.7545 76.2881 83.2208 76.3077 83.6618 76.3624C83.8844 76.3848 84.1281 76.424 84.3703 76.4731C84.6181 76.5249 84.88 76.6286 85.1362 76.8066L85.0648 76.7618C85.2972 76.8612 85.6038 76.9355 85.8671 76.9481C86.1345 76.9481 86.3739 76.9005 86.5812 76.7842L87.0418 76.5333C87.1776 76.4507 87.3484 76.382 87.5417 76.3302C87.9141 76.1956 88.2655 76.1592 88.6184 76.12C88.7962 76.0905 88.967 76.1172 89.1392 76.1172L89.5971 76.127C89.7595 76.1116 89.9597 76.0989 89.9849 76.0359C90.069 76.0261 90.1306 75.9 90.195 75.8061C90.279 75.5763 90.2748 75.2666 90.1628 74.9821C90.0465 74.6921 89.8337 74.4525 89.5803 74.2198C89.7259 74.3011 89.8813 74.3782 90.0269 74.4721C90.1432 74.5982 90.2888 74.7075 90.3854 74.8588C90.5772 75.1531 90.7284 75.5342 90.6248 75.949C90.5422 76.1396 90.4736 76.3568 90.244 76.4857C90.0115 76.6637 89.8687 76.6567 89.7049 76.7029C89.4333 76.7505 89.3563 76.7477 89.1686 76.7702C89.0132 76.7926 88.8452 76.7926 88.6968 76.829C88.393 76.8837 88.0863 76.9397 87.8413 77.0518C87.7111 77.0939 87.5767 77.1401 87.4283 77.2354L87.0208 77.4652C86.6526 77.695 86.2269 77.7917 85.8293 77.7693C85.4288 77.7342 85.083 77.646 84.7119 77.4764L84.6405 77.4274C84.5173 77.3489 84.3731 77.2662 84.1785 77.2102C83.9811 77.1555 83.778 77.1079 83.5554 77.0686C83.1102 76.9789 82.6635 76.9019 82.1735 76.6679C82.0446 76.616 81.948 76.5558 81.8612 76.4871C81.787 76.4283 81.647 76.361 81.563 76.2419C81.4832 76.1284 81.3698 76.0415 81.3278 75.9084C81.2984 75.7725 81.2311 75.6463 81.2437 75.5146C81.2395 74.9863 81.4888 74.5603 81.7898 74.2212L81.7856 74.217Z" fill="#010000"/>
<path d="M82.1875 85.5646C82.1875 85.5646 82.6692 85.765 83.4084 85.9332C84.1547 86.0719 85.153 86.2597 86.1612 86.1812C86.6652 86.2036 87.1651 86.1532 87.6313 86.0649C88.1032 86.0032 88.5456 85.964 88.9111 85.8421C89.6503 85.6641 90.1642 85.5632 90.1642 85.5632C90.1642 85.5632 89.6993 85.7748 88.9727 86.0649C88.6142 86.2232 88.1746 86.3423 87.6901 86.4208C87.2127 86.5273 86.6946 86.5988 86.1682 86.596C85.6445 86.6254 85.125 86.5581 84.6364 86.4895C84.1491 86.4362 83.7151 86.2597 83.3412 86.156C82.6075 85.8701 82.1875 85.5632 82.1875 85.5632V85.5646Z" fill="#010000"/>
<path d="M91.3862 54.71C91.3862 54.71 91.7964 53.9631 92.8563 53.2863C93.3758 52.943 94.0507 52.6207 94.8194 52.4428C95.5894 52.22 96.4449 52.2102 97.2906 52.248C98.1265 52.3643 98.947 52.5619 99.6611 52.8758C100.375 53.1896 100.99 53.5582 101.463 53.9491C101.967 54.2882 102.291 54.7016 102.536 54.951C102.771 55.2159 102.894 55.3784 102.894 55.3784C102.894 55.3784 102.687 55.3294 102.355 55.2257C102.012 55.136 101.574 54.9342 101.018 54.7871C100.743 54.71 100.452 54.6147 100.155 54.5082C99.8417 54.434 99.5169 54.3597 99.1934 54.256C98.8672 54.1593 98.5158 54.1397 98.1755 54.043C97.8339 53.9688 97.4783 53.9491 97.1324 53.8945C95.7337 53.7586 94.3195 53.8903 93.233 54.1523C92.1478 54.4017 91.3848 54.7086 91.3848 54.7086L91.3862 54.71Z" fill="#010000"/>
<path d="M80.7169 54.8096C80.7169 54.8096 80.5166 54.6989 80.1582 54.577C79.8348 54.4186 79.3027 54.3149 78.7398 54.1244C78.436 54.0823 78.1098 54.0403 77.7807 53.973C77.4573 53.8791 77.0891 53.9072 76.725 53.8847C76.3568 53.8777 75.9843 53.8343 75.6007 53.8497C75.2128 53.8917 74.8222 53.9338 74.4316 53.9758C74.0409 53.9954 73.6433 53.9982 73.2638 54.1314C72.8858 54.2379 72.4979 54.2953 72.1269 54.3766C71.7614 54.4733 71.3806 54.4831 71.0446 54.5938C70.7141 54.7129 70.3921 54.811 70.0883 54.8979C68.8897 55.2538 67.9824 55.3799 67.9824 55.3799C67.9824 55.3799 68.6055 54.7717 69.7032 54.0277C69.9748 53.8413 70.2717 53.6367 70.5979 53.4419C70.9242 53.2458 71.3162 53.1295 71.7054 52.9823C72.1003 52.8506 72.5063 52.6852 72.9292 52.5661C73.3422 52.4064 73.7987 52.3714 74.2537 52.3307C74.7088 52.3041 75.161 52.2789 75.6105 52.2523C76.0571 52.2424 76.5024 52.384 76.9224 52.447C77.7779 52.5409 78.5046 52.9739 79.1053 53.2556C79.6709 53.6563 80.1134 53.9926 80.3584 54.3191C80.6203 54.6106 80.7141 54.8096 80.7141 54.8096H80.7169Z" fill="#010000"/>
<path d="M76.4336 94.0961C76.4336 94.0961 76.9181 94.7169 77.5677 95.6838C78.223 96.6507 79.0309 97.9735 79.8094 99.3047C80.6019 100.63 81.2613 102.047 81.8354 103.039C82.3857 104.054 82.7049 104.788 82.7049 104.788C82.7049 104.788 82.1742 104.222 81.4476 103.297C80.6859 102.382 79.8836 101.056 79.0925 99.718C78.3014 98.3798 77.6461 96.9673 77.1603 95.9066C76.6856 94.843 76.4336 94.0961 76.4336 94.0961Z" fill="#010000"/>
<path d="M51.0548 203.168H120.405C121.403 192.474 123.561 180.486 125.169 171.578C126.245 165.61 127.025 161.298 127.029 159.694C127.139 136.347 122.242 112.424 122.19 112.185C122.173 112.097 122.125 112.017 122.058 111.958C120.381 110.493 101.888 104.965 99.7846 104.34C99.7454 104.328 99.7047 104.321 99.6655 104.321C99.5003 104.321 99.3421 104.425 99.2805 104.589C95.7115 113.925 87.1789 121.926 85.755 123.221C85.7424 123.217 85.7032 123.217 85.6976 123.217C84.2666 121.918 75.741 113.92 72.1748 104.589C72.1132 104.425 71.955 104.321 71.787 104.321C71.7478 104.321 71.71 104.328 71.6708 104.34C69.5677 104.964 51.0702 110.496 49.397 111.958C49.3298 112.015 49.2808 112.097 49.2654 112.185C49.2136 112.424 44.3285 136.347 44.4293 159.694C44.4363 161.29 45.2078 165.571 46.2803 171.497C47.8919 180.427 50.0565 192.447 51.0548 203.168Z" fill="#26678A"/>
<path d="M50.6388 203.168H51.4691C49.7987 185.203 44.8631 163.616 44.8435 159.695C44.7427 136.123 49.6699 112.27 49.6699 112.27C51.2016 110.934 68.8394 105.617 71.7882 104.737C75.752 115.112 85.6329 123.716 85.6329 123.716C85.6581 123.689 85.7002 123.677 85.7296 123.647C85.7716 123.675 85.7968 123.689 85.8234 123.716C85.8234 123.716 95.7015 115.112 99.6653 104.737C102.617 105.617 120.256 110.935 121.786 112.27C121.786 112.27 126.725 136.123 126.616 159.695C126.602 163.616 121.663 185.203 119.99 203.168H120.82C121.816 192.503 123.969 180.545 125.575 171.654C126.658 165.666 127.435 161.337 127.442 159.698C127.552 136.311 122.645 112.341 122.596 112.101C122.557 111.927 122.464 111.765 122.328 111.645C120.623 110.16 103.346 104.97 99.8992 103.945C99.8222 103.923 99.741 103.909 99.6639 103.909C99.3307 103.909 99.0185 104.116 98.8925 104.443C95.5265 113.253 87.6828 120.876 85.7254 122.686C83.7707 120.876 75.9242 113.253 72.5583 104.443C72.435 104.116 72.1214 103.909 71.7854 103.909C71.7084 103.909 71.6299 103.922 71.5501 103.945C68.1057 104.971 50.8264 110.16 49.1238 111.645C48.9852 111.765 48.8914 111.927 48.8564 112.101C48.8074 112.343 43.9138 136.309 44.0132 159.698C44.0188 161.33 44.7945 165.627 45.8698 171.572C47.4786 180.482 49.6391 192.477 50.6346 203.168H50.6388Z" fill="#010000"/>
<path d="M74.9115 203.17L72.0496 156.718C72.0496 156.718 71.0289 179.099 69.7617 203.17H74.9115Z" fill="#185773"/>
<path d="M72.844 194.794C72.6731 194.794 72.5177 194.688 72.4631 194.52L58.5819 152.724C58.5581 152.66 58.5525 152.588 58.5651 152.524L67.4043 105.945C67.4295 105.801 67.536 105.682 67.683 105.636L69.8854 104.963C69.9246 104.953 69.9624 104.948 70.0016 104.948C70.073 104.948 70.1473 104.967 70.2089 105.006C70.3055 105.064 70.3741 105.161 70.3965 105.274L73.2388 119.802L73.614 158.801L73.2458 194.396C73.2458 194.594 73.1002 194.758 72.907 194.79C72.8874 194.793 72.865 194.793 72.8454 194.793L72.844 194.794Z" fill="#31789A"/>
<path d="M70.0005 105.353L72.8442 119.881L73.2125 158.806L72.8442 194.394L58.963 152.598L67.7994 106.02C68.6185 105.77 69.362 105.545 70.0019 105.351M70.0019 104.547C69.9249 104.547 69.8437 104.557 69.7695 104.579L67.5628 105.252C67.2786 105.339 67.0616 105.578 67.007 105.872L58.1719 152.447C58.1467 152.582 58.1565 152.721 58.1985 152.85L72.0797 194.646C72.1931 194.982 72.5026 195.198 72.8456 195.198C72.8848 195.198 72.9254 195.195 72.9688 195.19C73.3595 195.128 73.6465 194.794 73.6507 194.401L74.0189 158.813L73.6507 119.873C73.6507 119.824 73.6437 119.776 73.6339 119.725L70.7902 105.197C70.7482 104.974 70.6124 104.781 70.4163 104.662C70.2903 104.587 70.1489 104.548 70.0019 104.548V104.547Z" fill="#010000"/>
<path d="M106.579 203.17L104.431 184.236L101.818 108.612L97.941 133.958L87.6387 203.17H106.579Z" fill="#185773"/>
<path d="M99.2364 194.789C99.0432 194.757 98.8975 194.593 98.8975 194.395L98.5293 158.807L98.8975 119.876L101.747 105.273C101.769 105.16 101.836 105.063 101.934 105.005C101.996 104.966 102.07 104.947 102.14 104.947C102.18 104.947 102.217 104.954 102.257 104.962L104.46 105.635C104.606 105.681 104.712 105.8 104.739 105.944L113.577 152.523C113.589 152.587 113.582 152.658 113.56 152.723L99.6788 194.519C99.6242 194.686 99.4688 194.793 99.298 194.793C99.2784 194.793 99.256 194.793 99.2364 194.791V194.789Z" fill="#31789A"/>
<path d="M102.139 105.35C102.779 105.545 103.521 105.771 104.343 106.019L113.178 152.597L99.2983 194.393L98.9301 158.805L99.2983 119.88L102.141 105.352M102.141 104.547C101.995 104.547 101.854 104.585 101.728 104.661C101.53 104.78 101.394 104.973 101.352 105.196L98.5087 119.724C98.4988 119.773 98.4932 119.821 98.4932 119.872L98.125 158.796L98.4932 194.401C98.496 194.795 98.7845 195.128 99.1751 195.19C99.2171 195.197 99.2549 195.198 99.2983 195.198C99.64 195.198 99.9508 194.983 100.064 194.646L113.945 152.851C113.987 152.722 113.997 152.583 113.971 152.447L105.136 105.873C105.078 105.579 104.864 105.339 104.58 105.252L102.373 104.579C102.299 104.557 102.218 104.547 102.141 104.547Z" fill="#010000"/>
<path d="M72.4989 186.397C72.4961 186.548 72.3701 193.267 72.2567 203.169H99.5892C99.2307 190.217 98.8849 180.867 98.8779 180.689C98.9073 180.165 101.927 127.908 102.212 117.88C102.308 114.504 101.517 110.204 99.858 105.096C99.8062 104.935 99.6578 104.822 99.4898 104.819H99.4758C99.3119 104.819 99.1635 104.916 99.1019 105.071C95.4293 114.213 87.146 121.976 85.7612 123.233H85.6968C84.298 121.959 75.9503 114.136 72.3043 104.935C72.2427 104.784 72.0943 104.683 71.929 104.683H71.8926C71.7148 104.698 71.5692 104.829 71.5342 105.004C70.8677 108.239 70.1424 113.26 70.4463 118.798C70.7599 124.521 72.4849 185.798 72.5003 186.397H72.4989Z" fill="#8ABEE6"/>
<path d="M72.0986 186.426C72.0944 186.565 71.9656 193.27 71.8522 203.17H72.6573C72.7735 193.144 72.9023 186.404 72.9023 186.404C72.9023 186.404 71.1647 124.571 70.8441 118.777C70.5374 113.161 71.3131 108.07 71.9264 105.085C75.977 115.305 85.6325 123.718 85.6325 123.718C85.6578 123.691 85.6998 123.679 85.7292 123.649C85.7712 123.677 85.7964 123.691 85.823 123.718C85.823 123.718 95.3917 115.379 99.4745 105.221C100.674 108.913 101.928 113.788 101.811 117.872C101.52 128.007 98.4776 180.668 98.4776 180.668C98.4776 180.668 98.8263 190.074 99.1875 203.17H99.9926C99.6327 190.203 99.2869 180.834 99.2813 180.639C99.3107 180.189 102.327 127.924 102.615 117.894C102.713 114.469 101.915 110.125 100.24 104.972C100.134 104.651 99.84 104.429 99.5011 104.415H99.4745C99.1455 104.415 98.8487 104.616 98.7254 104.92C95.2558 113.554 87.6264 120.964 85.7264 122.717C83.8207 120.954 76.1185 113.48 72.6755 104.788C72.5523 104.48 72.2554 104.279 71.9264 104.279C71.904 104.279 71.8816 104.279 71.855 104.282C71.5035 104.314 71.2095 104.574 71.1381 104.922C70.4702 108.182 69.7337 113.238 70.0404 118.819C70.3568 124.538 72.0776 185.808 72.0986 186.426Z" fill="#010000"/>
<path opacity="0.6" d="M73.0288 135.717C75.5253 136.751 79.2469 128.992 80.2802 128.683C81.3135 128.371 88.7414 129.352 88.7414 129.352C88.7414 129.352 96.7853 133.958 97.9418 133.958H99.0955C99.0955 133.958 94.237 186.959 94.8573 188.856C95.0505 189.447 95.3067 195.345 95.5643 203.169H99.1879C98.8267 190.072 98.4781 180.667 98.4781 180.667C98.4781 180.667 101.521 128.006 101.812 117.87C101.824 117.381 101.817 116.878 101.792 116.371H92.6996C89.1418 120.816 85.8248 123.716 85.8248 123.716C85.7996 123.69 85.773 123.677 85.731 123.648C85.7016 123.676 85.6596 123.69 85.6344 123.716C85.6344 123.716 82.3174 120.816 78.7568 116.371H71.5978L70.8613 119.119C70.9551 121.065 71.1428 126.662 71.3654 133.884C71.8638 134.774 72.4183 135.465 73.0288 135.718V135.717Z" fill="#63A0CA"/>
<path d="M85.8517 202.634C85.7355 202.634 85.6221 202.584 85.5479 202.493C83.0416 199.552 80.744 195.484 78.7179 190.408C78.4631 177.186 82.7602 127.864 82.8022 127.365C82.8176 127.172 82.973 127.016 83.1676 127.001C83.1676 127.001 88.3748 126.514 88.3846 126.514C88.5821 126.514 88.7529 126.657 88.7823 126.853C91.0757 141.344 92.1357 171.892 92.5879 184.936C92.6691 187.345 92.7307 189.118 92.7755 190.019C92.7783 190.083 92.7657 190.145 92.7405 190.202C89.3157 197.981 86.2158 202.417 86.1822 202.462C86.1108 202.567 85.9988 202.627 85.8727 202.633H85.8531L85.8517 202.634Z" fill="#1A2A3F"/>
<path d="M88.3839 126.919C91.1044 144.112 92.0999 184.342 92.3701 190.04C88.9201 197.873 85.851 202.231 85.851 202.231C83.2117 199.13 80.9728 194.976 79.0924 190.258C78.8628 177.044 83.2019 127.4 83.2019 127.4L88.3839 126.918M88.3867 126.112C88.3615 126.112 88.3349 126.112 88.3097 126.115L83.1291 126.597C82.7412 126.632 82.4374 126.94 82.4024 127.327C82.3604 127.825 78.0605 177.168 78.2901 190.274C78.2901 190.37 78.3097 190.467 78.3447 190.558C80.3862 195.673 82.7062 199.776 85.2419 202.752C85.3931 202.934 85.62 203.037 85.8524 203.037C85.865 203.037 85.8776 203.034 85.8902 203.034C86.1394 203.024 86.3676 202.898 86.5105 202.695C86.6365 202.512 89.6664 198.181 93.1066 190.363C93.1584 190.249 93.1808 190.124 93.1738 189.999C93.1318 189.098 93.0702 187.33 92.9862 184.919C92.5339 171.868 91.474 141.303 89.1806 126.792C89.1162 126.397 88.7773 126.112 88.3853 126.112H88.3867Z" fill="#010000"/>
<path opacity="0.3" d="M92.3713 190.04C92.101 184.342 91.1055 144.112 88.385 126.92L83.203 127.402C83.203 127.402 83.0896 128.723 82.8992 130.971L87.3083 133.819L89.9742 187.48L85.8297 192.265L79.102 187.406C79.0852 188.486 79.0796 189.443 79.095 190.26C80.9754 194.977 83.2142 199.131 85.8535 202.232C85.8535 202.232 88.9227 197.874 92.3727 190.041L92.3713 190.04Z" fill="#00051B"/>
<path d="M85.8234 127.804C84.02 127.804 82.848 127.313 82.799 127.29C82.7248 127.262 82.6632 127.206 82.6184 127.139C81.7853 125.841 80.8248 120.533 80.7184 119.935C80.6988 119.816 80.7324 119.695 80.808 119.604C80.8822 119.51 80.9956 119.458 81.1146 119.458H90.3375C90.4467 119.458 90.5503 119.503 90.6245 119.582C90.7015 119.66 90.7393 119.762 90.7379 119.873C90.6469 123.247 89.2678 126.908 89.2062 127.063C89.1641 127.177 89.0703 127.266 88.9541 127.303C87.9264 127.636 86.8735 127.804 85.8206 127.804H85.8234Z" fill="#1A2A3F"/>
<path d="M90.341 119.865C90.25 123.211 88.8344 126.923 88.8344 126.923C87.7199 127.285 86.6964 127.405 85.8241 127.405C84.0837 127.405 82.9593 126.923 82.9593 126.923C82.1458 125.655 81.1167 119.865 81.1167 119.865H90.3396M90.3396 119.061H81.1167C80.8773 119.061 80.6519 119.163 80.4993 119.348C80.348 119.529 80.2822 119.772 80.3256 120.004C80.4993 121 81.4234 126.023 82.2831 127.359C82.3671 127.495 82.4931 127.599 82.6415 127.663C82.6933 127.685 83.9394 128.209 85.8227 128.209C86.9176 128.209 88.0139 128.034 89.0822 127.688C89.3119 127.615 89.4995 127.436 89.5863 127.21C89.6451 127.052 91.0495 123.332 91.1433 119.889C91.1503 119.669 91.0663 119.459 90.915 119.303C90.7666 119.147 90.5552 119.061 90.3396 119.061Z" fill="#010000"/>
<path d="M72.8904 128.407C72.6636 128.404 72.4521 128.278 72.2379 128.023C70.6613 126.125 67.819 115.001 69.3984 105.279C69.411 105.2 69.4474 105.127 69.502 105.069L72.2841 102.063C72.3611 101.979 72.4676 101.932 72.581 101.932H72.6104C72.7322 101.942 72.8428 102.007 72.9142 102.108C75.9693 106.562 84.2751 118.379 85.9553 119.534C86.1009 119.633 86.1653 119.814 86.1135 119.987C86.0617 120.155 85.9063 120.268 85.7299 120.268C85.7033 120.268 83.2362 120.281 81.906 121.112C81.395 121.433 80.1712 122.568 78.8761 123.77C75.8559 126.573 73.8075 128.408 72.9128 128.408H72.8932L72.8904 128.407Z" fill="#8ABEE6"/>
<path d="M72.5816 102.336C72.5816 102.336 83.6162 118.416 85.7291 119.865C85.7291 119.865 83.1374 119.865 81.691 120.766C80.2474 121.668 74.2029 128.005 72.912 128.005H72.9022C71.6295 127.977 68.1025 115.788 69.798 105.342L72.583 102.336M72.583 101.53C72.3603 101.53 72.1433 101.621 71.9921 101.785L69.2086 104.792C69.1008 104.909 69.0308 105.055 69.0042 105.213C67.408 115.04 70.3217 126.34 71.9347 128.281C72.2189 128.623 72.5382 128.805 72.884 128.81C73.8627 128.81 75.3749 127.566 79.1483 124.064C80.3763 122.926 81.642 121.749 82.1208 121.452C83.1416 120.813 85.0738 120.67 85.7333 120.67C86.0861 120.67 86.3983 120.441 86.5019 120.101C86.6056 119.765 86.4795 119.401 86.1883 119.2C84.7279 118.201 77.6501 108.296 73.2466 101.881C73.108 101.676 72.8882 101.55 72.6432 101.532H72.5844L72.583 101.53Z" fill="#010000"/>
<path d="M99.4918 127.321C98.4963 127.321 95.4117 125.181 91.7839 122.591C90.8234 121.906 90.0421 121.35 89.6557 121.108C88.3241 120.277 85.8528 120.264 85.8304 120.264C85.6666 120.264 85.5168 120.163 85.4566 120.012C85.395 119.856 85.4342 119.681 85.5532 119.569C92.3118 113.181 97.8382 101.605 97.8956 101.487C97.9516 101.368 98.0636 101.284 98.1939 101.264C98.2163 101.261 98.2387 101.257 98.2583 101.257C98.3675 101.257 98.4739 101.302 98.5495 101.383L102.054 105.062C102.109 105.12 102.148 105.193 102.16 105.275C103.759 115.135 101.525 125.303 100.151 126.955C99.951 127.195 99.7382 127.317 99.5114 127.321H99.4918Z" fill="#8ABEE6"/>
<path d="M98.2594 101.661L101.764 105.34C103.46 115.787 100.775 126.891 99.5028 126.921H99.4929C98.195 126.921 91.3104 121.668 89.8697 120.766C88.4233 119.865 85.8316 119.865 85.8316 119.865C92.7218 113.347 98.2594 101.664 98.2594 101.664M98.2594 100.858C98.2174 100.858 98.1754 100.861 98.1334 100.868C97.8716 100.911 97.6447 101.078 97.5327 101.317C97.4781 101.434 91.9769 112.942 85.2799 119.28C85.0405 119.506 84.9635 119.855 85.0825 120.162C85.2057 120.47 85.5026 120.669 85.8316 120.669C86.4883 120.669 88.4233 120.812 89.444 121.451C89.8123 121.681 90.6201 122.257 91.5498 122.922C96.1186 126.176 98.4694 127.726 99.4929 127.726C99.8668 127.72 100.185 127.545 100.459 127.212C102.083 125.26 104.087 114.625 102.558 105.212C102.533 105.05 102.458 104.902 102.345 104.786L98.8433 101.106C98.6879 100.945 98.4778 100.856 98.258 100.856L98.2594 100.858Z" fill="#010000"/>
<path d="M79.4789 60.6347C79.4789 60.6347 75.2154 56.6284 70.3555 60.8182C70.3555 60.8182 74.7548 64.6942 79.4789 60.6347Z" fill="white" stroke="#010000" stroke-width="0.372104" stroke-linejoin="round"/>
<path d="M73.4062 60.6205C73.4062 61.5188 74.1329 62.2488 75.0318 62.2488C75.9307 62.2488 76.656 61.5188 76.656 60.6205C76.656 59.7223 75.9293 58.9937 75.0318 58.9937C74.1343 58.9937 73.4062 59.7209 73.4062 60.6205Z" fill="#010000"/>
<path d="M70.123 60.4299C70.123 60.4299 73.7929 55.8519 78.5744 58.5157" stroke="#010000" stroke-width="0.295878" stroke-linecap="round" stroke-linejoin="round"/>
<path d="M91.5996 60.6347C91.5996 60.6347 95.8645 56.6284 100.722 60.8182C100.722 60.8182 96.3223 64.6942 91.5996 60.6347Z" fill="white" stroke="#010000" stroke-width="0.372104" stroke-linejoin="round"/>
<path d="M97.6697 60.6206C97.6697 61.5188 96.943 62.2489 96.0441 62.2489C95.1452 62.2489 94.4199 61.5188 94.4199 60.6206C94.4199 59.7224 95.1466 58.9937 96.0441 58.9937C96.9416 58.9937 97.6697 59.721 97.6697 60.6206Z" fill="#010000"/>
<path d="M100.953 60.4299C100.953 60.4299 97.2835 55.852 92.502 58.5158" stroke="#010000" stroke-width="0.295878" stroke-linecap="round" stroke-linejoin="round"/>
<path d="M89.2737 58.1367C89.2737 58.1367 87.1945 64.9581 87.3093 70.8714" stroke="#010000" stroke-width="0.474407" stroke-linecap="round" stroke-linejoin="round"/>
<path d="M20.6158 181.038L22.87 171.644C22.87 171.644 21.4489 164.796 14.8331 167.227C7.94573 169.759 5.36523 171.504 5.36523 171.504" fill="#26678A"/>
<path d="M20.6158 181.038L22.87 171.644C22.87 171.644 21.4489 164.796 14.8331 167.227C7.94573 169.759 5.36523 171.504 5.36523 171.504" stroke="#010000" stroke-width="0.592758" stroke-linecap="round" stroke-linejoin="round"/>
<path d="M22.8691 178.127C22.8691 178.127 25.3502 166.954 25.3502 162.815L22.8691 178.127Z" fill="#26678A"/>
<path d="M22.8691 178.127C22.8691 178.127 25.3502 166.954 25.3502 162.815" stroke="#010000" stroke-width="0.592758" stroke-linecap="round" stroke-linejoin="round"/>
<path d="M8.53711 166.943C8.53711 166.943 24.3169 160.067 34.8643 162.126" stroke="#010000" stroke-width="0.592758" stroke-linecap="round" stroke-linejoin="round"/>
<path d="M14.1152 161.741L36.928 154.124" stroke="#010000" stroke-width="0.592758" stroke-linecap="round" stroke-linejoin="round"/>
<path d="M62.5596 59.0604C62.5596 59.0604 64.314 57.4601 64.7299 53.0405C65.1471 48.6181 64.5072 41.5543 65.5056 40.5902C65.5056 40.5902 86.9686 47.7899 106.05 45.8604C106.05 45.8604 106.959 59.4037 107.555 60.7027C107.555 60.7027 114.223 47.1005 110.056 31.5155C105.889 15.9264 72.638 12.4792 62.7598 28.6177C62.7598 28.6177 55.143 32.062 62.5596 59.0604Z" fill="#010000" stroke="#010000" stroke-width="0.592758" stroke-linejoin="round"/>
<path opacity="0.5" d="M89.2734 58.4862C89.2734 58.4862 89.3869 57.8528 90.892 56.6729C92.9629 55.0559 105.665 52.9189 105.638 59.0046C105.638 59.0046 105.484 65.0203 104.037 66.7018C102.974 67.9406 94.8279 69.2424 92.1102 66.8476C89.3925 64.4514 89.4681 59.7795 89.2734 58.4862Z" fill="#54B8E3"/>
<path d="M81.7812 56.248C81.7812 56.248 86.511 57.3116 90.7101 56.248L88.5174 60.7938C88.5174 60.7938 86.1203 57.0398 83.2962 61.1203L81.7812 56.248Z" fill="#010000"/>
<path d="M81.782 56.2477C79.8344 54.7217 69.5195 52.795 66.2179 56.2127V56.2099C66.2179 56.2099 64.0014 56.6471 63.4204 56.7914C63.4204 56.7914 62.8393 58.281 63.4204 59.3025L65.3232 60.0956C65.55 62.1163 66.1311 66.0539 67.3198 67.4355C68.5141 68.8284 77.3463 70.147 80.3987 67.4551C83.4552 64.7647 83.3796 59.7411 83.6009 58.2866C83.6009 58.2866 83.4748 57.5719 81.782 56.2491V56.2477ZM79.7476 67.0165C77.0299 69.4127 68.8838 68.1109 67.8211 66.8708C66.3733 65.1893 66.2193 59.1764 66.2193 59.1764C66.1941 53.0907 78.8949 55.2248 80.9658 56.8447C82.4737 58.0217 82.5843 58.6551 82.5843 58.6551C82.3897 59.9513 82.4653 64.6203 79.749 67.0151L79.7476 67.0165Z" fill="#010000"/>
<path d="M108.431 56.7005C107.85 56.5548 105.629 56.1148 105.629 56.1148V56.1176C102.327 52.7012 92.0125 54.6308 90.0649 56.154C88.3721 57.4768 88.2461 58.1914 88.2461 58.1914C88.4659 59.646 88.3917 64.6695 91.4469 67.3628C94.4992 70.056 103.331 68.7374 104.527 67.3432C105.716 65.9629 106.297 62.0253 106.527 60.0005L108.429 59.2088C109.01 58.19 108.429 56.7005 108.429 56.7005H108.431ZM104.03 66.777C102.965 68.0158 94.817 69.319 92.1035 66.9256C89.3872 64.5308 89.4614 59.859 89.2682 58.5656C89.2682 58.5656 89.3774 57.928 90.884 56.7523C92.9548 55.1325 105.657 52.9983 105.63 59.0827C105.63 59.0827 105.475 65.0997 104.031 66.777H104.03Z" fill="#010000"/>
<path opacity="0.5" d="M79.7452 67.0158C77.0275 69.412 68.8813 68.1102 67.8186 66.8701C66.3709 65.1886 66.2168 59.1757 66.2168 59.1757C66.1916 53.09 78.8925 55.2241 80.9633 56.844C82.4713 58.021 82.5819 58.6544 82.5819 58.6544C82.3873 59.9506 82.4629 64.6196 79.7466 67.0144L79.7452 67.0158Z" fill="#54B8E3"/>
<path d="M78.6459 80.0768C78.6459 80.0768 79.556 80.336 80.9674 80.5658C81.3132 80.6471 81.7011 80.6723 82.1043 80.7312C82.5118 80.7732 82.9346 80.8573 83.3841 80.8769C84.2718 80.9063 85.2225 81.0226 86.1718 80.9568C86.6464 80.9498 87.1211 80.947 87.5859 80.9414C88.055 80.9512 88.51 80.8601 88.9525 80.8279C89.8374 80.7214 90.6747 80.6919 91.3622 80.4972C92.7637 80.2197 93.6976 80.0361 93.6976 80.0361L93.7256 80.0291C93.8712 79.9997 94.0099 80.0936 94.0393 80.2393C94.0673 80.3781 93.9805 80.514 93.8418 80.5504C93.8418 80.5504 92.9023 80.7858 91.4868 81.1446C90.7825 81.3505 89.927 81.3968 89.0225 81.5187C88.5702 81.5607 88.1012 81.6602 87.6237 81.6602C87.1421 81.67 86.6576 81.6798 86.1704 81.6897C85.1931 81.7317 84.2256 81.5874 83.3168 81.5313C82.8618 81.5033 82.4291 81.4052 82.0147 81.3505C81.6016 81.2791 81.2082 81.2412 80.8526 81.1502C79.4244 80.8531 78.5045 80.507 78.5045 80.507C78.3883 80.4649 78.3267 80.336 78.3687 80.2197C78.4079 80.1062 78.5297 80.0488 78.6431 80.0768H78.6459Z" fill="#010000"/>
<path d="M99.7484 23.513C99.7484 23.513 108.742 28.339 108.586 41.7212C108.586 41.7212 106.244 34.4107 104.167 33.584C102.091 32.7572 105.279 39.9303 104.167 40.6183C103.057 41.3078 100.175 31.3755 98.9279 31.7889L99.6098 38.5487C99.6098 38.5487 96.3026 33.0304 95.0621 32.6171C93.8215 32.2037 97.8526 41.3078 96.0436 41.7212C94.2346 42.1345 91.4049 29.1671 90.3393 29.3059C89.2724 29.4446 91.5981 37.5832 91.5981 37.5832C91.5981 37.5832 85.2343 25.4468 85.254 24.6186C85.2764 23.7904 91.5981 29.1671 92.5026 29.3059C93.4071 29.4446 90.7104 23.513 90.7104 23.513C90.7104 23.513 99.0777 28.6164 100.722 30.9608C102.365 33.3079 97.5586 27.3763 98.9279 26.9615C100.299 26.5482 102.895 29.5833 102.895 29.5833L99.7484 23.5116V23.513Z" fill="#2A5EAB"/>
<path d="M79.0809 24.0663C79.0809 24.0663 86.7916 38.2724 86.3365 41.7307L81.6754 32.8985V38.1365C81.6754 38.1365 78.0994 32.6267 76.6558 32.6239C75.2123 32.6169 79.7278 40.2048 78.5755 40.4808C77.4189 40.7555 73.0252 32.8985 73.0252 32.8985C73.0252 32.8985 73.9549 37.583 73.2059 37.8576C72.4568 38.1365 67.9805 32.6225 67.9805 32.6225L70.771 34.3138C70.771 34.3138 68.9424 27.6507 70.3537 27.2374L74.347 30.2725L73.2073 26.6839C73.2073 26.6839 78.1302 31.2366 79.0837 31.2366C80.0372 31.2366 77.5366 26.8226 77.5366 26.8226L79.5654 28.4775L79.0851 24.0649L79.0809 24.0663Z" fill="#2A5EAB"/>
</g>
</svg>
