<svg width="35" height="35" viewBox="0 0 35 35" fill="none" xmlns="http://www.w3.org/2000/svg">
<path fill-rule="evenodd" clip-rule="evenodd" d="M5.25 8.75C5.25 7.7835 6.0335 7 7 7H28C28.9665 7 29.75 7.7835 29.75 8.75C29.75 9.7165 28.9665 10.5 28 10.5H7C6.0335 10.5 5.25 9.7165 5.25 8.75Z" fill="#202020"/>
<path fill-rule="evenodd" clip-rule="evenodd" d="M5.25 17.5C5.25 16.5335 6.0335 15.75 7 15.75H28C28.9665 15.75 29.75 16.5335 29.75 17.5C29.75 18.4665 28.9665 19.25 28 19.25H7C6.0335 19.25 5.25 18.4665 5.25 17.5Z" fill="#202020"/>
<path fill-rule="evenodd" clip-rule="evenodd" d="M5.25 26.25C5.25 25.2835 6.0335 24.5 7 24.5H28C28.9665 24.5 29.75 25.2835 29.75 26.25C29.75 27.2165 28.9665 28 28 28H7C6.0335 28 5.25 27.2165 5.25 26.25Z" fill="#202020"/>
</svg>
