<svg width="84" height="54" viewBox="0 0 84 54" fill="none" xmlns="http://www.w3.org/2000/svg">
<path fill-rule="evenodd" clip-rule="evenodd" d="M24.4032 12.3479C23.996 12.0604 23.5301 11.8988 23.0555 11.7768C21.2959 11.3229 19.5054 11.0132 17.7275 10.6405C17.0989 10.5089 17.1066 10.5224 17.121 9.87784C17.1345 9.30292 17.1701 8.71832 16.9843 8.16276C16.3933 6.38863 15.6348 4.69 14.6856 3.07849C14.3593 2.52486 13.9049 2.15706 13.2687 2.04576C13.0386 2.00608 12.8037 1.9993 12.5717 1.97704C11.8546 1.91026 11.124 1.96058 10.428 1.72249C9.78689 1.40599 9.12942 1.13208 8.43345 0.963669C8.35452 0.923986 8.27462 0.883335 8.19569 0.843652C7.8607 0.679112 7.53437 0.501991 7.29757 0.200012H7.07039C6.81434 0.401331 6.55828 0.601682 6.30223 0.803001C5.96339 0.933665 5.716 1.13886 5.69578 1.53762C5.69289 1.58795 5.66979 1.64022 5.64573 1.68764C5.3348 2.28966 5.11436 2.94298 4.63883 3.45209C4.57915 3.51693 4.53583 3.60308 4.50695 3.68728C4.46749 3.79956 4.46749 3.92635 4.58108 3.99313C4.78419 4.11315 4.82173 4.31447 4.85157 4.51482C4.89489 4.80809 4.9382 5.07812 5.19907 5.28719C5.38678 5.43624 5.34154 5.62401 5.14228 5.7779C5.02965 5.86598 4.91029 5.94631 4.80055 6.03923C4.48578 6.30636 4.11806 6.50575 3.82831 6.80482C3.76959 6.79805 3.72916 6.83095 3.68777 6.86483C3.12368 7.33619 2.60291 7.854 2.18032 8.45602C1.73559 9.08805 1.21771 9.6378 0.561203 10.0472C0.386008 10.1566 0.229102 10.3163 0 10.3173V10.4547C0.0943361 10.4228 0.188672 10.3976 0.288784 10.4082C0.365793 10.416 0.473606 10.3666 0.506334 10.4741C0.539063 10.5844 0.413924 10.5863 0.36098 10.6396C0.293597 10.7063 0.108775 10.6918 0.164607 10.8331C0.219476 10.9735 0.378307 10.8951 0.491895 10.898C0.532325 10.899 0.576605 10.868 0.614147 10.8438C0.822071 10.7063 1.02422 10.5631 1.21289 10.3986C1.57195 10.0859 1.93293 9.76944 2.41135 9.65039C2.69532 9.57876 2.80024 9.67458 2.74056 9.95817C2.69435 10.1837 2.75307 10.3792 2.87051 10.5621C2.92346 10.6444 2.99276 10.7509 3.09095 10.7363C3.18529 10.7228 3.18432 10.5921 3.20261 10.5099C3.33064 9.94269 3.46348 9.37454 3.56552 8.80156C3.61654 8.517 3.73205 8.306 3.98522 8.17243C4.4415 7.96337 4.90451 7.76883 5.35213 7.54235C5.71407 7.36038 6.08371 7.18713 6.39656 6.92C6.7046 6.74868 6.71326 6.74965 6.97991 7.0013C7.10601 7.12035 7.23404 7.23843 7.35918 7.35942C7.43041 7.4291 7.49394 7.4775 7.52186 7.32941C7.55555 7.14068 7.63641 7.21617 7.71149 7.2965C7.88188 7.48137 7.88573 7.69333 7.71245 7.96434C7.34185 8.5412 7.02322 9.14999 6.88365 9.82073C6.78257 10.3076 6.38982 10.7489 6.65166 11.3093C6.72096 11.4555 6.80567 11.5058 6.92311 11.5329C7.07328 11.5678 7.05788 11.4197 7.08291 11.3393C7.12045 11.2251 7.13681 11.1041 7.15992 10.9851C7.20131 10.778 7.23115 10.566 7.33896 10.3782C7.544 10.0182 7.6778 10.0124 7.88188 10.356C7.88958 10.3686 7.89439 10.384 7.90305 10.3957C7.9483 10.4499 7.956 10.565 8.05033 10.5389C8.13697 10.5147 8.11675 10.414 8.11579 10.3405C8.11194 9.96882 8.08595 9.59909 8.02915 9.23129C7.98391 8.93803 7.99835 8.66799 8.29772 8.50055C8.36222 8.46377 8.41228 8.40279 8.43249 8.32439C8.58362 8.26922 8.80983 8.42021 8.86182 8.20341C9.08899 8.41053 9.32676 8.62927 9.56837 8.84608C9.60399 8.87802 9.66271 8.96126 9.68196 8.92544C9.83983 8.64766 9.88989 8.9719 10.0073 8.97093C10.0506 8.67186 10.2326 8.89931 10.3664 8.89544C10.4126 8.63411 10.3028 8.37956 10.35 8.08436C10.5551 8.41537 10.7399 8.71154 10.9257 9.01352C10.9796 8.96416 10.9796 8.93319 10.9651 8.90609C10.6118 8.24212 10.4164 7.51428 10.1334 6.82224C10.015 6.53381 10.0112 6.28023 10.2316 6.04407C10.3134 5.95599 10.3943 5.86501 10.4752 5.77597C10.5897 5.73628 10.6802 5.80113 10.7707 5.85243C11.4022 6.21151 12.0163 6.59769 12.5939 7.03711C13.2109 7.50847 13.4285 8.14824 13.2456 8.89351C13.0299 9.77621 12.7527 10.6425 12.7132 11.56C12.6795 12.343 12.8008 13.0815 13.3139 13.6952C13.6277 14.0717 13.7326 14.4772 13.6999 14.9573C13.6633 15.4954 13.5372 16.02 13.5016 16.5572C13.4458 17.3886 13.441 18.2239 13.3264 19.0514C13.1993 19.9786 12.9346 20.8526 12.3888 21.6298C12.0394 22.1273 11.7728 22.6713 11.5542 23.2394C11.1143 24.3883 10.8602 25.5914 10.5127 26.7673C10.4116 27.1071 10.35 27.4623 10.144 27.7613C9.96882 27.924 9.76475 28.0265 9.53276 28.0914C9.23916 28.1737 9.12076 28.3237 9.11209 28.6102C9.09477 29.2364 8.97252 29.8433 8.80502 30.4433C8.71261 30.7734 8.63753 31.1044 8.7001 31.4509C8.78481 31.9106 8.9061 32.353 9.25841 32.6917C9.38933 32.8175 9.51254 32.833 9.60977 32.6646C9.85812 32.2329 10.1305 31.811 10.2807 31.3289C10.5175 30.7879 10.7033 30.2256 10.9776 29.701C12.5255 26.7499 14.0715 23.7979 15.6136 20.8439C15.7503 20.5797 15.937 20.3793 16.1767 20.207C18.126 18.8104 20.185 17.5822 22.193 16.2755C23.0344 15.7277 23.919 15.2428 24.665 14.5546C24.8653 14.3698 25.0289 14.1665 25.0655 13.8887C25.1502 13.2432 24.9336 12.7234 24.4032 12.3479ZM20.0012 15.1992C19.2648 15.7906 18.5284 16.383 17.7689 16.9434C17.43 17.1931 17.0354 17.2908 16.6426 17.3925C16.4838 17.4341 16.4299 17.3257 16.4616 17.1931C16.6417 16.4575 16.8149 15.7209 17.02 14.9921C17.1278 14.6108 17.4502 14.4433 17.8209 14.4327C18.7787 14.4075 19.7365 14.4298 20.6923 14.484C20.7116 14.4859 20.7308 14.5024 20.7809 14.5266C20.5133 14.7589 20.264 14.9873 20.0012 15.1992Z" fill="white"/>
<path fill-rule="evenodd" clip-rule="evenodd" d="M28.8345 41.581C28.77 41.8413 28.6535 42.0785 28.5467 42.3214C28.5274 42.3659 28.5178 42.4347 28.4466 42.4259C28.3609 42.4163 28.3724 42.3427 28.3657 42.2856C28.3234 41.8714 28.2848 41.4561 28.2386 41.0419C28.1915 40.6199 28.0856 40.2182 27.7612 39.9162C27.3829 39.5659 26.9247 39.5591 26.4597 39.6539C25.6309 39.8233 24.9917 40.3179 24.445 40.9325C23.0482 42.5024 22.2666 44.3782 21.8681 46.4184C21.7063 47.246 21.8921 48.0793 22.0548 48.8982C22.3888 50.5919 23.132 52.0921 24.1841 53.4472C24.264 53.5498 24.3564 53.6524 24.3901 53.7917C24.3016 53.8227 24.2669 53.7588 24.2303 53.7221C22.9924 52.5045 21.8238 51.224 20.839 49.7867C20.043 48.6242 19.629 47.3224 19.4875 45.9229C19.4355 45.4099 19.3441 44.9027 19.269 44.3927C19.2594 44.3288 19.2671 44.232 19.1718 44.2475C19.0977 44.2601 19.1381 44.3501 19.1314 44.4043C19.0582 44.9705 19.0418 45.5464 19.0948 46.1087C19.1872 47.1105 19.2729 48.1142 19.425 49.1101C19.5154 49.7092 19.5674 50.3151 19.734 50.9007C19.9351 51.614 20.2971 52.2567 20.6042 52.9236C20.6648 53.0532 20.7149 53.1888 20.7601 53.3243C20.7745 53.3678 20.814 53.4317 20.7495 53.4675C20.6898 53.5014 20.6552 53.4423 20.6167 53.4104C20.1873 53.0523 19.8543 52.6109 19.5539 52.1454C19.2334 51.6489 18.9523 51.1291 18.7636 50.5648C18.6087 50.2445 18.4951 49.9067 18.3978 49.5641C18.1909 49.0453 18.033 48.511 17.905 47.9661C17.6923 47.3263 17.5758 46.6643 17.4516 46.0042C17.4275 45.8793 17.4102 45.7535 17.3794 45.557C17.2263 45.9084 17.1984 46.221 17.1811 46.5288C17.132 47.4018 17.2822 48.2574 17.4218 49.114C17.5488 49.9009 17.6913 50.681 17.9984 51.4195C18.0792 51.615 18.1793 51.8028 18.2689 51.9954C18.29 52.0399 18.3439 52.0921 18.2948 52.1376C18.2352 52.1928 18.1813 52.1309 18.1389 52.0951C17.8251 51.8279 17.5777 51.5037 17.3727 51.1475C17.0271 50.5484 16.7701 49.9106 16.5881 49.2437C16.3523 48.6833 16.2377 48.089 16.0924 47.5034C15.8729 46.6207 15.769 45.7196 15.6409 44.8214C15.5841 44.4169 15.5062 44.0162 15.4311 43.6155C15.3695 43.2835 15.4831 43.1257 15.8123 43.1431C16.1049 43.1596 16.3956 43.208 16.6863 43.2428C17.1214 43.2999 17.5594 43.2748 17.9964 43.2738C18.1428 43.2351 18.29 43.1973 18.4364 43.1586C18.5451 43.1044 18.6529 43.0512 18.7608 42.996C19.2632 42.6282 19.5616 42.1269 19.7378 41.5336C19.9419 40.8454 20.3866 40.3982 21.0778 40.1718C22.2185 39.7991 23.3861 39.5068 24.5124 39.1052C26.53 38.3841 27.8729 36.9632 28.4379 34.8542C28.487 34.6723 28.4918 34.4797 28.5217 34.2929C28.5332 34.2174 28.5005 34.1245 28.6006 34.0635C28.7623 34.2716 28.7382 34.5232 28.7662 34.7555C28.9154 35.9663 29.0954 37.1752 29.1358 38.3976C29.1676 39.47 29.0906 40.5337 28.8345 41.581Z" fill="white"/>
<path fill-rule="evenodd" clip-rule="evenodd" d="M83.1974 52.2412C83.189 52.306 83.2016 52.3786 83.1446 52.4522C82.9894 52.0341 82.9248 51.5966 82.8116 51.1785C82.4593 49.8815 82.3209 48.5478 82.2421 47.1947C82.1683 45.9239 81.9838 44.6666 81.7875 43.4122C81.3127 40.3905 80.6006 37.4462 79.6067 34.5948C78.2991 30.8453 76.5612 27.3851 74.3486 24.2482C71.4834 20.185 67.9296 17.2407 63.6595 15.4444C61.3244 14.4629 58.9306 13.7544 56.4755 13.3189C56.0754 13.2473 55.6745 13.1737 55.2736 13.1002C54.6554 13.0227 54.0364 12.9463 53.4174 12.8698C52.9276 12.8379 52.4369 12.803 51.9471 12.775C51.3449 12.7411 50.7435 12.712 50.1404 12.6811C49.3939 12.6849 48.6466 12.684 47.9001 12.6946C47.4354 12.7014 46.9716 12.7246 46.5069 12.7401C46.2863 12.8321 46.0523 12.7943 45.8275 12.8098C45.1196 12.8592 44.4142 12.9288 43.7114 13.0169C42.9305 13.1147 42.1546 13.2618 41.3771 13.3896C41.1523 13.4263 40.9284 13.4738 40.6826 13.4699C40.915 13.255 41.1473 13.0411 41.3788 12.8253C41.747 12.4827 42.1228 12.1526 42.4784 11.7945C43.0144 11.2534 43.4077 10.5788 43.7533 9.87035C43.9512 9.46577 44.2087 9.29252 44.6155 9.31381C45.2454 9.34769 45.8779 9.32833 46.5094 9.3322C47.2232 9.31575 47.937 9.30123 48.6516 9.35253C49.05 9.38157 49.4493 9.39318 49.8494 9.4106C49.9483 9.41447 50.0465 9.41931 50.1404 9.45609C50.7032 9.46287 51.2618 9.55385 51.8221 9.60708C52.291 9.6516 52.759 9.71742 53.227 9.77549C53.2916 9.7842 53.3545 9.80453 53.4183 9.82002C54.0549 9.8868 54.6865 9.99617 55.3139 10.1423C56.3405 10.3214 57.3529 10.5875 58.3585 10.8789C60.8253 11.5932 63.2191 12.5475 65.4997 13.858C68.0302 15.3137 70.3376 17.1343 72.3641 19.4223C73.4872 20.6912 74.4425 22.1189 75.4079 23.5416C76.8875 25.7261 78.1733 28.0481 79.2343 30.5365C80.7265 34.0383 81.811 37.6998 82.492 41.5219C82.8267 43.3967 83.0657 45.286 83.1832 47.1927C83.2461 48.2226 83.2352 49.2563 83.2452 50.288C83.2519 50.9404 83.2838 51.5927 83.1974 52.2412Z" fill="white"/>
<path fill-rule="evenodd" clip-rule="evenodd" d="M30.8479 33.0781C30.7872 34.4428 30.6351 35.7978 30.277 37.1209C30.2019 37.3987 30.1095 37.6716 29.9854 37.933C29.9459 38.0162 29.9276 38.1227 29.8073 38.1662C29.7553 38.0714 29.7803 37.9727 29.7794 37.8807C29.7611 36.6505 29.7033 35.4262 29.3722 34.2308C29.2153 33.6656 28.9727 33.1371 28.7263 32.6077C28.6521 32.5109 28.5867 32.4083 28.5511 32.2902C28.4606 32.178 28.3807 32.0579 28.3258 31.9234C28.2055 31.8073 28.1333 31.6572 28.0544 31.513C27.7203 31.1743 27.5817 30.7939 27.6828 30.3022C27.8108 29.675 27.8772 29.0362 27.9725 28.4032C27.9812 28.3442 28.0033 28.2861 28.0187 28.228C28.1092 27.6512 28.1997 27.0743 28.2902 26.4975C28.3662 26.0116 28.4423 25.5257 28.5183 25.0398C28.5867 24.5879 28.6271 24.132 28.7436 23.6819C28.8379 23.7158 28.8581 23.7787 28.8764 23.8445C29.7697 25.185 30.2308 26.692 30.5408 28.2532C30.8575 29.8463 30.9191 31.4598 30.8479 33.0781Z" fill="white"/>
<path fill-rule="evenodd" clip-rule="evenodd" d="M45.6287 5.59594C45.5546 6.84935 45.0791 7.97015 44.4736 9.04547C44.1819 9.62523 43.8171 10.1566 43.3916 10.6444C42.739 11.4681 41.9631 12.1504 41.0736 12.705C40.756 12.886 40.4595 13.1018 40.1332 13.2703C39.545 13.5722 38.927 13.7387 38.2647 13.7368C38.13 13.7358 37.9942 13.7368 37.82 13.6623C38.8827 12.7931 39.9329 11.951 41.0217 11.1554C41.6108 10.6889 42.1421 10.1682 42.5551 9.53134C42.84 9.08902 43.0441 8.61186 43.226 8.12211C43.3916 7.54235 43.4532 6.9413 43.5841 6.35476C43.6034 6.26668 43.6496 6.15828 43.5841 6.09537C43.509 6.02181 43.4214 6.12053 43.3387 6.14183C43.2607 6.16119 43.1952 6.2241 43.1076 6.21151C42.6485 6.46897 42.1527 6.64222 41.6733 6.85322C41.3538 6.99453 41.0284 7.12326 40.705 7.25683C40.2477 7.4988 39.7452 7.56558 39.2437 7.62462C38.4361 7.71947 37.6669 7.96047 36.8988 8.20922C36.7563 8.25471 36.6581 8.3573 36.5648 8.47055C35.5203 9.73073 34.5317 11.0345 33.5046 12.3082C32.3139 13.7871 30.9883 15.1344 29.5021 16.3181C29.426 16.3781 29.3548 16.4468 29.2402 16.4662C29.22 16.3626 29.2826 16.2929 29.3288 16.2213C30.9027 13.7474 32.4756 11.2745 34.0523 8.80253C34.1784 8.60508 34.3305 8.42409 34.4624 8.23051C34.5644 8.07952 34.652 7.92176 34.6857 7.73786C34.755 7.36136 34.9841 7.14358 35.3471 7.04389C36.4011 6.75256 37.4658 6.50478 38.5083 6.17086C39.2129 5.94632 39.9021 5.67821 40.5981 5.43044C41.398 5.06651 42.198 4.70259 42.9979 4.33867C43.4417 4.09476 43.9018 3.88764 44.3764 3.71148C44.5477 3.63599 44.7152 3.55081 44.8914 3.485C45.1522 3.38821 45.2302 3.42886 45.3313 3.70471C45.5527 4.31447 45.6663 4.94553 45.6287 5.59594Z" fill="white"/>
<path fill-rule="evenodd" clip-rule="evenodd" d="M11.0801 22.1943C11.0002 22.8921 10.7306 23.5387 10.5391 24.2055C10.4496 24.5162 10.3417 24.823 10.2426 25.1318C10.1175 25.6351 10.0096 26.1432 9.83637 26.633C9.76899 26.8246 9.68139 27.0085 9.52063 27.144C9.41859 27.3018 9.26554 27.4015 9.1096 27.4934C8.49545 27.8544 8.31159 28.2629 8.45598 28.9772C8.54262 29.4088 8.50315 29.8212 8.28849 30.2112C8.22014 30.3351 8.14024 30.4551 7.98526 30.4513C7.81873 30.4474 7.77349 30.3003 7.72536 30.1725C7.59926 29.8386 7.4385 29.4843 7.4616 29.1466C7.48663 28.7884 7.54631 28.4168 7.6291 28.0558C7.83798 27.1469 8.24709 26.3165 8.5869 25.4589C8.73129 25.0931 8.9113 24.7408 8.99408 24.3517C9.02104 24.2268 9.06917 24.0865 8.95943 23.9858C8.85065 23.8861 8.71685 23.9432 8.59556 23.9839C7.99489 24.1852 7.49241 24.5704 6.9466 24.8772C6.76948 24.9769 6.59717 25.0873 6.42583 25.1976C6.0841 25.4173 6.01191 25.6022 6.0918 26.0068C6.18133 26.4675 6.26122 26.9301 6.35556 27.3908C6.39791 27.5989 6.41717 27.8999 6.28721 27.9599C6.13705 28.0296 5.94837 27.8041 5.81553 27.6492C5.30246 27.0472 4.91838 26.3765 4.74414 25.5954C4.66425 25.2392 4.75858 24.9189 4.96169 24.6275C5.11379 24.4078 5.30342 24.221 5.5229 24.07C6.73387 23.2415 7.9843 22.4808 9.34159 21.9097C9.38298 21.8923 9.4263 21.8787 9.46865 21.8642C9.68909 21.7645 9.9076 21.661 10.1492 21.6203C10.2233 21.5555 10.3206 21.5681 10.4082 21.5535C10.8818 21.4703 11.1359 21.7181 11.0801 22.1943Z" fill="white"/>
<path fill-rule="evenodd" clip-rule="evenodd" d="M83.2562 36.7997V37.2092C83.1363 37.213 83.1403 37.0853 83.111 37.0059C82.548 35.4534 81.9923 33.8971 81.4276 32.3456C80.5081 29.8204 79.3902 27.4229 78.0945 25.1436C78.0594 25.0807 78.0292 25.0139 77.9974 24.949C77.5339 24.1979 77.0868 23.4333 76.5972 22.7055C76.0203 21.8479 75.4336 21.0001 74.789 20.2113C74.758 20.1745 74.7393 20.1241 74.7148 20.0806C74.266 19.5502 73.8254 19.0101 73.366 18.4933C71.659 16.5749 69.7921 14.9073 67.7702 13.4855C67.7269 13.4545 67.6878 13.4158 67.6462 13.3819C66.9803 12.9657 66.3308 12.5137 65.6536 12.1217C63.0784 10.6302 60.3809 9.57813 57.5756 8.90255C55.7299 8.45829 53.8663 8.18438 51.9888 8.05275C50.9288 7.97919 49.8665 7.93854 48.8049 7.96274C47.8152 7.98403 46.8238 8.02371 45.8356 8.11566C45.5941 8.13889 45.5884 8.12921 45.657 7.86498C45.7467 7.51751 45.8487 7.17391 45.927 6.82257C45.9809 6.57867 46.1041 6.48962 46.3024 6.4993C47.0441 6.53511 47.7858 6.55931 48.5259 6.6048C49.1639 6.64448 49.8012 6.70546 50.4393 6.7616C51.4282 6.84774 52.4106 7.00066 53.3947 7.14294C54.5868 7.31716 55.7773 7.50686 56.9596 7.76722C59.4303 8.31117 61.8341 9.12613 64.1645 10.2392C65.084 10.6786 65.9938 11.1529 66.8579 11.7317C67.1533 11.9301 67.4732 12.0762 67.749 12.3153C68.2638 12.6221 68.7461 12.9947 69.2283 13.3664C71.2486 14.9257 73.0747 16.7617 74.7303 18.8398C74.7605 18.8775 74.7833 18.924 74.8094 18.9666C75.3382 19.5812 75.8073 20.2606 76.2765 20.9391C76.9219 21.876 77.5347 22.8449 78.1124 23.8427C78.1304 23.8737 78.1434 23.9076 78.1597 23.9405C78.6518 24.7371 79.0916 25.5743 79.5167 26.4212C80.81 28.9996 81.9033 31.6913 82.7283 34.531C82.9208 35.1911 83.0392 35.8754 83.1803 36.5529C83.1983 36.6362 83.1942 36.733 83.2562 36.7997Z" fill="white"/>
<path fill-rule="evenodd" clip-rule="evenodd" d="M27.2443 35.1987C27.1211 35.4048 27.0133 35.6236 26.8449 35.8007C26.5811 36.2159 26.2548 36.575 25.8813 36.8915C25.4799 37.2748 25.0303 37.5835 24.5221 37.8032C24.0369 38.0752 23.5017 38.2049 22.9713 38.3491C21.924 38.6327 20.9267 39.0354 19.9853 39.5764C19.5136 39.8474 19.2104 40.2413 19.0785 40.7708C19.0275 40.9769 18.9562 41.1763 18.8629 41.3679C18.6116 41.8838 18.2006 42.1723 17.6394 42.2739C16.7653 42.4316 15.925 42.2419 15.0817 42.0571C14.6562 41.9632 14.3001 41.7696 13.9795 41.4696C13.5156 41.035 13.4164 40.523 13.5675 39.9345C13.6994 39.4186 14.0103 39.0276 14.4377 38.7256C14.6014 38.6105 14.7467 38.6559 14.8892 38.7769C15.2771 39.106 15.7267 39.2899 16.2349 39.2976C16.9213 39.3083 17.4988 39.045 17.9705 38.5495C18.2324 38.2746 18.4778 37.9862 18.6992 37.6794C19.0564 37.1838 19.5444 36.8663 20.0883 36.6166C20.7332 36.3214 21.3705 36.0078 22.0154 35.7136C22.9559 35.2829 23.7857 34.7089 24.4277 33.8824C24.4537 33.8369 24.4768 33.7885 24.5067 33.7469C24.7175 33.4507 24.7098 33.1594 24.4932 32.87C24.4528 32.8158 24.4171 32.7577 24.3796 32.7016C23.9349 32.1954 23.4603 31.7221 22.9203 31.3155C21.7093 30.4048 20.3694 29.734 18.9649 29.1862C18.6482 29.0633 18.3382 28.9268 18.0697 28.711C17.5999 28.3325 17.4401 27.7818 17.675 27.2243C17.8223 26.8769 18.0033 26.5429 18.1804 26.209C18.2901 26.0019 18.4538 25.9012 18.7137 25.908C19.6898 25.9322 20.5802 26.2458 21.4244 26.6988C22.2753 27.1556 23.0935 27.6657 23.8271 28.3054C24.059 28.5068 24.3093 28.6878 24.524 28.9094C25.0323 29.3604 25.4905 29.855 25.8861 30.4086C26.2384 30.8316 26.5416 31.2875 26.7929 31.7782C27.1394 32.3473 27.4609 32.9329 27.5851 33.5939C27.6929 34.165 27.5408 34.7022 27.2443 35.1987Z" fill="white"/>
<path fill-rule="evenodd" clip-rule="evenodd" d="M37.4435 1.09103C36.9968 1.22846 36.5396 1.32622 36.1064 1.50818C35.4239 1.70176 34.7645 1.95631 34.1253 2.26216C33.4592 2.58156 33.284 3.45846 33.7634 4.01402C33.9694 4.25309 33.9713 4.30342 33.7855 4.56184C33.3004 5.23645 32.8142 5.91106 32.3291 6.58471C31.919 7.14705 31.507 7.70745 31.0989 8.27075C29.732 10.1552 28.365 12.0397 27.0001 13.9251C26.8845 14.0848 26.7517 14.2174 26.5476 14.23C26.4032 14.2387 26.2897 14.3006 26.1751 14.3761C22.9282 16.5084 19.6823 18.6396 16.4344 20.7699C16.2467 20.8929 16.1014 21.0506 15.9974 21.251C14.7652 23.6049 13.5312 25.9578 12.3 28.3126C12.2682 28.3736 12.2028 28.4356 12.2547 28.5256C12.2817 28.5101 12.3096 28.4985 12.3318 28.481C13.228 27.7348 14.1549 27.0302 15.0723 26.313C15.7163 25.8097 16.4123 25.4148 17.1978 25.1796C18.1921 24.8815 19.1952 24.9251 20.2011 25.0983C21.0011 25.2357 21.7865 25.4264 22.4806 25.8687C23.0793 26.2501 23.6771 26.6372 24.2422 27.066C25.2722 27.848 26.0673 28.8488 26.744 29.9474C26.7921 30.0248 26.8191 30.1235 26.9173 30.1777C26.9356 30.1139 26.9567 30.0645 26.9644 30.0122C27.1647 28.663 27.3639 27.3118 27.5622 25.9626C27.6691 25.2406 27.7856 24.5195 27.8751 23.7946C27.9174 23.4481 27.9925 23.1064 28.0262 22.7609C28.0705 22.3118 28.1667 21.8714 28.213 21.4223C28.2572 20.9829 28.3776 20.5512 28.4305 20.1118C28.4844 19.6559 28.5605 19.203 28.6201 18.749C28.6981 18.1605 28.6384 17.6176 28.3208 17.123C28.1706 16.8888 28.1677 16.6807 28.3015 16.4571C28.4729 16.1696 28.6548 15.8899 28.8242 15.6024C29.447 14.5465 30.0679 13.4886 30.6878 12.4297C31.2943 11.3941 31.8969 10.3556 32.5014 9.31897C32.5409 9.26477 32.5832 9.2125 32.6188 9.15443C33.3437 7.93103 34.0628 6.70279 34.7934 5.48229C35.2314 4.74961 35.6501 4.00241 36.2257 3.36264C36.4058 3.21358 36.5704 3.03937 36.7687 2.92032C37.0555 2.74707 37.2047 2.49155 37.3174 2.19538C37.4396 1.87404 37.5003 1.53915 37.5561 1.20233C37.5715 1.09683 37.559 1.05521 37.4435 1.09103ZM25.9277 21.6536C25.9104 21.7088 25.8988 21.7717 25.8055 21.7978C25.817 21.6788 25.8276 21.5714 25.8363 21.462C25.9056 20.5367 25.8209 19.6133 25.7968 18.689C25.792 18.5216 25.6976 18.4587 25.5417 18.4858C25.3559 18.5187 25.1788 18.5748 25.0103 18.6687C23.0187 19.7846 21.0627 20.9567 19.2019 22.2856C19.1172 22.3457 19.0344 22.4202 18.9257 22.4337C18.7707 22.455 18.4838 22.2982 18.4357 22.1608C18.3673 21.9653 18.4857 21.8336 18.6234 21.7388C20.4543 20.4931 22.2958 19.262 24.3481 18.4006C24.6879 18.2573 25.045 18.1547 25.3983 18.0492C25.9181 17.8934 26.1761 18.0638 26.2492 18.6C26.3888 19.6453 26.2367 20.6577 25.9277 21.6536Z" fill="white"/>
<path fill-rule="evenodd" clip-rule="evenodd" d="M19.2119 30.1428C19.1714 30.2386 19.0656 30.2203 18.9741 30.2028C18.6439 30.1428 18.307 30.1167 17.9826 30.0218C17.38 29.9628 16.7996 29.7963 16.2095 29.6705C15.5299 29.5273 15.0226 29.7489 14.677 30.348C14.4161 30.8 14.1687 31.2607 13.9108 31.7147C13.88 31.7698 13.8569 31.8647 13.7847 31.8569C13.7048 31.8492 13.6826 31.7514 13.6566 31.6837C13.5248 31.3478 13.5065 30.9878 13.4709 30.6355C13.4323 30.2541 13.3091 29.9473 12.9809 29.7121C12.4784 29.3511 12.4851 28.9562 12.9645 28.5652C13.389 28.2197 13.8752 27.9709 14.3391 27.6873C15.2036 27.1598 16.0747 26.6449 16.9449 26.129C17.1779 25.9906 17.4137 25.8561 17.7169 25.859C17.6476 26.1387 17.5013 26.3681 17.3935 26.613C17.3049 26.8143 17.2048 27.0098 17.1192 27.2121C16.8997 27.7309 17.0027 28.1926 17.3925 28.5865C17.5995 28.7955 17.8248 28.9862 18.0423 29.1846C18.3908 29.4314 18.7412 29.6773 19.0896 29.9251C19.1657 29.9793 19.2513 30.047 19.2119 30.1428Z" fill="white"/>
<path fill-rule="evenodd" clip-rule="evenodd" d="M29.568 9.40906C29.3601 9.67523 29.1483 9.93946 28.9385 10.2047C28.8971 10.2569 28.8644 10.3208 28.7874 10.3285C28.7912 10.405 28.7383 10.4544 28.6969 10.5057C28.0654 11.2897 27.432 12.0707 26.8005 12.8547C26.6561 13.0338 26.479 13.1751 26.3009 13.3145C26.1758 13.4122 26.0285 13.4654 25.8783 13.3832C25.7407 13.3077 25.6906 13.1673 25.7012 13.0144C25.7407 12.4608 25.4529 12.1172 24.9918 11.882C24.1553 11.4552 23.2523 11.2529 22.3369 11.0932C22.204 11.069 22.0712 11.0428 21.9374 11.0157C21.9172 11.0119 21.8999 10.9964 21.8633 10.977C24.1129 10.1301 26.3876 9.45068 28.7806 9.24355C29.0761 9.21161 29.3717 9.16709 29.672 9.18935C29.6864 9.29291 29.6162 9.34712 29.568 9.40906Z" fill="white"/>
<path fill-rule="evenodd" clip-rule="evenodd" d="M13.3825 36.5292C13.2872 36.5282 13.1842 36.5485 13.0995 36.4779C12.9686 36.4605 12.8482 36.4101 12.7375 36.3385C12.1571 36.111 11.6748 35.7384 11.2541 35.2874C10.7055 34.6979 10.1895 34.0824 9.99023 33.2703C9.90552 32.9229 9.94114 32.6083 10.2347 32.3634C10.331 32.2831 10.383 32.2705 10.4388 32.4176C10.5129 32.6151 10.5023 32.8193 10.5341 33.0206C10.6506 33.7397 11.0472 34.2885 11.5853 34.7473C11.798 34.9293 12.0233 35.0948 12.2466 35.2632C12.3169 35.3155 12.4016 35.3784 12.494 35.3184C12.5739 35.2661 12.5652 35.1712 12.5585 35.089C12.4921 34.3118 12.4035 33.5346 12.3583 32.7564C12.314 32.0005 12.1032 31.2823 11.9511 30.5486C11.8779 30.1973 11.9212 29.8382 12.0021 29.4879C12.0262 29.3833 12.0743 29.2575 12.1811 29.2556C12.2803 29.2546 12.3669 29.3543 12.3987 29.4637C12.5662 30.0357 12.7895 30.5951 12.854 31.1952C12.9416 31.6433 12.9358 32.0982 12.9204 32.5493C12.8925 33.339 12.9368 34.1182 13.1611 34.8799C13.3132 35.3377 13.5076 35.7829 13.6097 36.2562C13.6693 36.5282 13.6597 36.534 13.3825 36.5292Z" fill="white"/>
<path fill-rule="evenodd" clip-rule="evenodd" d="M23.9202 33.4922C23.8528 33.6094 23.7748 33.7168 23.6689 33.8029C23.1896 34.3537 22.5764 34.7311 21.9661 35.1057C20.9178 35.7493 19.7886 36.211 18.6104 36.5527C18.4728 36.5924 18.3332 36.6282 18.1878 36.6204C18.0713 36.6146 17.951 36.5953 17.9067 36.4714C17.8644 36.3504 17.9298 36.2507 18.0213 36.1723C18.1946 36.0252 18.3784 35.8926 18.5844 35.7948C19.9282 35.158 20.9669 34.1601 21.8669 32.9977C21.9786 32.8544 22.0826 32.7025 22.2096 32.5747C22.6447 32.1353 23.3676 32.2195 23.6651 32.7363C24.0193 32.9047 24.1079 33.1651 23.9202 33.4922Z" fill="white"/>
<path fill-rule="evenodd" clip-rule="evenodd" d="M17.9501 37.9121C17.8528 37.9324 17.8143 37.8646 17.7672 37.8114C16.7035 37.1707 15.9719 36.2376 15.4511 35.052C15.2981 35.4585 15.2663 35.8001 15.2567 36.1476C15.2365 36.8493 15.3741 37.5375 15.427 38.2315C15.4309 38.2769 15.4357 38.3215 15.4396 38.367C15.4434 38.4144 15.4453 38.4618 15.3905 38.4802C15.3356 38.4996 15.3096 38.456 15.2836 38.4183C15.1373 38.2082 15.0786 37.9663 15.0266 37.7204C14.7657 36.4825 14.7128 35.2436 14.9525 33.996C15.0102 33.6979 15.1527 33.4424 15.2923 33.184C15.3462 33.0843 15.4492 32.9914 15.5377 33.0127C15.6446 33.0388 15.6773 33.1782 15.6754 33.2943C15.6639 33.7289 15.7072 34.1596 15.8304 34.5758C16.0951 35.4662 16.5851 36.2037 17.3234 36.7729C17.5053 36.9132 17.7075 37.0458 17.7729 37.2926C17.9472 37.4668 17.9347 37.6904 17.9501 37.9121Z" fill="white"/>
<path fill-rule="evenodd" clip-rule="evenodd" d="M12.2147 28.5755L12.2119 28.5618L12.222 28.5637L12.2147 28.5755Z" fill="white"/>
<path d="M44.867 27.9851C45.1803 27.9851 45.4094 28.0574 45.5543 28.203C45.6632 28.3126 45.7048 28.439 45.6812 28.5847C45.6689 28.7055 45.6419 28.8004 45.6004 28.867C45.5577 28.9336 45.5128 28.9855 45.4645 29.0217C45.4038 29.0578 45.3342 29.0973 45.2567 29.1402C45.1781 29.1831 45.0905 29.2102 44.9939 29.2227C44.6806 29.2475 44.4268 29.2678 44.2336 29.2859C44.0405 29.304 43.8777 29.3164 43.7451 29.322C43.6126 29.3288 43.4891 29.3344 43.3745 29.3401C43.26 29.3469 43.1308 29.3525 42.986 29.3582C42.8411 29.3649 42.6659 29.3762 42.4615 29.3943C42.256 29.4124 41.991 29.4338 41.6653 29.4575C41.6047 29.846 41.5294 30.3552 41.4396 30.9853C41.3486 31.6165 41.2498 32.3979 41.1409 33.3317C40.8028 36.0123 40.5861 38.2548 40.4895 40.0626C40.4772 40.3053 40.4828 40.5933 40.5075 40.9264C40.5322 41.2595 40.5737 41.6389 40.6344 42.0634C40.6467 42.1481 40.622 42.2204 40.5625 42.2814C40.5142 42.3299 40.4536 42.3536 40.3806 42.3536H40.3435C40.1358 42.3175 39.9213 42.2384 39.7023 42.1176C39.6776 42.1052 39.663 42.0962 39.6562 42.0905C39.6495 42.0837 39.6349 42.0747 39.6102 42.0634C39.2924 41.6998 39.134 41.0935 39.134 40.2444C39.134 38.9345 39.2441 37.0793 39.4642 34.6776C39.6843 32.3132 39.7944 30.8091 39.7944 30.1666C39.7944 30.0695 39.791 29.9758 39.7854 29.8843C39.7787 29.7929 39.7764 29.7059 39.7764 29.6201C39.4586 29.6201 39.1307 29.6292 38.7926 29.6472C38.4535 29.6653 38.1155 29.6992 37.7786 29.7477C37.4405 29.7963 37.1216 29.8663 36.8195 29.9566C36.5174 30.0481 36.2591 30.1655 36.0413 30.3112C35.9211 30.3959 35.8605 30.4625 35.8605 30.511C35.8605 30.5359 35.8728 30.572 35.8964 30.6206C35.92 30.6691 36.0109 30.7233 36.1682 30.7843C36.3007 30.8453 36.4781 30.8938 36.7016 30.9299C36.9251 30.9661 37.1867 30.9729 37.4888 30.948C37.6337 30.9356 37.8201 30.9119 38.0492 30.8757C38.2783 30.8396 38.495 30.8091 38.7006 30.7843C38.9049 30.7606 39.0846 30.7538 39.2362 30.7662C39.3878 30.7786 39.4642 30.8272 39.4642 30.9119C39.4642 30.9604 39.4519 31.009 39.4271 31.0575C39.28 31.3003 39.1194 31.4877 38.9443 31.621C38.7691 31.7542 38.5793 31.857 38.3738 31.9304C38.2412 31.9789 38.102 32.0218 37.9582 32.058C37.8134 32.0941 37.5663 32.1189 37.2171 32.1302C36.7824 32.1427 36.4119 32.1088 36.1042 32.0297C35.7964 31.9507 35.5404 31.8389 35.3349 31.6933C35.1294 31.5239 34.9665 31.3172 34.8464 31.0745C34.7262 30.8317 34.6768 30.5347 34.7015 30.1836C34.7015 30.0989 34.7195 29.9871 34.7554 29.8471C34.7913 29.7082 34.8554 29.5648 34.9452 29.4191C35.0362 29.2735 35.1653 29.1368 35.3338 29.0104C35.5022 28.8828 35.7201 28.7834 35.9851 28.71C36.2625 28.6378 36.66 28.5644 37.1789 28.4921C37.6977 28.4198 38.3008 28.3532 38.988 28.2922C39.2194 28.2798 39.3923 28.2685 39.5091 28.2561C39.6248 28.2437 39.7259 28.2347 39.8112 28.229C39.8966 28.2234 39.9819 28.22 40.0684 28.22C40.1537 28.22 40.2784 28.2166 40.4424 28.2109C40.6063 28.2053 40.8332 28.1963 41.1229 28.1838C41.4126 28.1714 41.7978 28.1534 42.2807 28.1296C42.8714 28.1059 43.2971 28.0845 43.5565 28.0664C43.8159 28.0483 44.0057 28.0337 44.1258 28.0212C44.246 28.0088 44.3426 27.9998 44.4156 27.9941C44.4863 27.9874 44.6368 27.9851 44.867 27.9851Z" fill="white"/>
<path d="M66.1866 38.5109C66.1136 38.127 65.9867 37.6414 65.8048 37.0746C65.6408 36.5439 65.5139 36.0775 65.4319 35.6936C65.3499 35.3097 65.305 34.989 65.305 34.7237C65.305 34.5961 65.3409 34.403 65.405 34.1478C65.46 33.9558 65.4869 33.8271 65.5049 33.7639C65.5139 33.6995 65.5229 33.6544 65.5229 33.6261C65.5229 33.581 65.5139 33.5166 65.4869 33.4432C65.469 33.3788 65.4319 33.3066 65.378 33.2332C65.323 33.1598 65.232 33.1056 65.1051 33.0503C64.9872 33.0051 64.8322 32.9769 64.6413 32.9769C64.3864 32.9769 64.1865 33.0503 64.0405 33.1959C63.9035 33.3427 63.8316 33.5437 63.8316 33.8C63.8316 34.2393 63.8137 34.6503 63.7766 35.0444C63.7407 35.4373 63.6677 35.8031 63.5677 36.1509C63.5408 36.2605 63.5127 36.37 63.4857 36.4897C63.4217 36.7279 63.3588 36.965 63.2948 37.2123C63.2679 37.3128 63.2499 37.4133 63.2218 37.5048C63.1769 37.6425 63.1488 37.7701 63.1129 37.8706C63.0579 38.0716 63.0129 38.2184 62.995 38.3008C62.968 38.3833 62.9501 38.4386 62.931 38.4476V38.4657C62.7951 38.8959 62.6671 39.2245 62.5491 39.4627C62.4312 39.701 62.3403 39.8749 62.2493 39.9844C62.1673 40.0939 62.1033 40.1583 62.0584 40.1854C62.0123 40.2125 61.9854 40.2215 61.9764 40.2215C61.9405 40.1854 61.8944 40.112 61.8585 40.0115C61.8315 39.9201 61.8136 39.7925 61.7945 39.6186C61.7765 39.4447 61.7675 39.2064 61.7675 38.914C61.7675 37.8706 61.9315 36.545 62.2684 34.9439C62.3043 34.8253 62.2684 34.7248 62.1505 34.6514C61.7507 34.3951 61.4407 34.2675 61.2139 34.2675C60.941 34.2675 60.7591 34.3228 60.6771 34.4324C60.5861 34.5419 60.5221 34.6424 60.5041 34.7248V34.9721C60.5041 35.0455 60.4862 35.1731 60.4401 35.365C60.4042 35.557 60.3492 35.8223 60.2672 36.143C60.1942 36.4727 60.0852 36.9018 59.9482 37.4235C59.7663 38.11 59.6113 38.6125 59.4934 38.9332C59.3755 39.2538 59.2756 39.4639 59.1936 39.5644C59.1936 39.5 59.1936 39.4277 59.1846 39.3453C59.1846 39.2629 59.1756 39.1534 59.1756 39.0066C59.1756 38.6588 59.1936 38.2568 59.2396 37.7814C59.2755 37.3151 59.3216 36.7844 59.3856 36.1995V36.1724C59.3856 35.6597 59.3216 35.2758 59.1947 35.0195C59.0947 34.8005 58.9768 34.6627 58.8398 34.5983C58.7129 34.534 58.5939 34.4978 58.485 34.4978C58.321 34.4978 58.1761 34.543 58.0571 34.6356C57.9392 34.7271 57.8291 34.8276 57.7483 34.9563C57.6663 35.0748 57.6023 35.1945 57.5484 35.3221C57.5034 35.4407 57.4574 35.5321 57.4394 35.5965C57.3125 35.9172 57.1755 36.3553 57.0486 36.9233C56.9217 37.4811 56.7847 38.1857 56.6297 39.0269C56.6028 39.1184 56.5747 39.2098 56.5567 39.2922C56.5298 39.3747 56.5017 39.4571 56.4748 39.5486C56.4658 39.421 56.4568 39.2922 56.4568 39.1556V38.7435C56.4568 38.1484 56.5017 37.655 56.5938 37.253C56.6937 36.7866 56.7488 36.274 56.7488 35.7343C56.7488 35.5051 56.7218 35.3131 56.6578 35.1765C56.6028 35.0297 56.5399 34.9292 56.4579 34.8467C56.3849 34.7734 56.294 34.7192 56.203 34.6909C56.103 34.6638 56.0211 34.6548 55.9391 34.6548C55.7661 34.6548 55.6112 34.7192 55.4843 34.8467C55.2473 35.1031 55.1653 35.6146 55.2114 36.3745C55.2114 36.4106 55.2204 36.4389 55.2293 36.4479V36.4569C55.2293 36.475 55.2204 36.484 55.2204 36.4931C55.1563 36.7223 55.1024 36.8679 55.0744 36.9504C54.9385 37.2428 54.7925 37.4257 54.6465 37.4901C54.5005 37.5545 54.3736 37.5816 54.2557 37.5816C54.1647 37.5816 54.0917 37.5545 54.0277 37.5082C54.0277 36.9504 54.0187 36.5021 54.0008 36.1362C53.9918 35.7794 53.9828 35.496 53.9648 35.286C53.9558 35.0669 53.9379 34.9111 53.9199 34.8106C53.9019 34.7101 53.884 34.6277 53.875 34.5814C53.729 34.1794 53.4381 33.8226 52.9923 33.5019C52.5465 33.1632 52.1276 32.9983 51.7368 32.9983C51.6638 32.9983 51.5818 33.0074 51.4908 33.0254C51.3999 33.0435 51.3089 33.0898 51.2179 33.153C51.136 33.2174 51.045 33.3088 50.963 33.4184C50.881 33.5369 50.817 33.6928 50.7811 33.8847C50.7171 34.141 50.6721 34.324 50.6441 34.4425C50.6261 34.5611 50.6081 34.6435 50.589 34.6898C50.516 34.7722 50.4621 34.8998 50.4341 35.0918V35.2837C50.4341 35.3391 50.443 35.4023 50.461 35.4847V35.5943C50.2881 35.9962 50.1971 36.6557 50.1702 37.5703C50.1522 37.6346 50.1342 37.6979 50.1151 37.7532C50.0062 38.1653 49.8872 38.5312 49.7513 38.8327C49.6244 39.1432 49.5053 39.3995 49.4054 39.6107C49.2875 39.867 49.1965 40.0217 49.1235 40.0951C49.0505 40.1594 49.0056 40.1956 48.9966 40.1956C48.8877 40.1956 48.7967 40.077 48.7327 39.8388C48.6687 39.6005 48.6328 39.281 48.6328 38.8778C48.6328 37.6979 48.8057 36.1611 49.1606 34.2946L49.1785 34.1478L49.0696 34.0563C48.7698 33.791 48.5418 33.6261 48.4059 33.5719C48.2689 33.5076 48.16 33.4805 48.069 33.4805C47.9511 33.4805 47.8231 33.5256 47.7051 33.6171C47.5782 33.7086 47.4772 33.9005 47.4233 34.202C47.3963 34.3488 47.3233 34.6593 47.2054 35.1437C47.0875 35.6191 46.9235 36.2684 46.7146 37.1017C46.6237 37.4495 46.5327 37.769 46.4507 38.0626C46.3777 38.355 46.3047 38.6204 46.2419 38.8586V38.8225C46.2329 38.7582 46.2239 38.6949 46.2149 38.6396C46.2149 38.5843 46.2059 38.5391 46.2059 38.5018C46.2059 38.4657 46.2059 38.4284 46.1969 38.4104C46.1969 37.4777 46.2699 36.3068 46.4148 34.9156C46.5698 33.5166 46.7966 31.8884 47.0976 30.0038C47.1335 29.7384 47.2065 29.446 47.3155 29.1343C47.3974 28.86 47.4424 28.6127 47.4424 28.3846C47.4424 28.0097 47.2335 27.8087 46.8056 27.7805H46.7506C46.5136 27.7805 46.3317 27.8358 46.2048 27.9273C46.0869 28.0278 46.0049 28.1283 45.9589 28.2197L45.9409 28.2751V28.8792C45.9409 29.2269 45.896 29.8028 45.823 30.6169C45.741 31.422 45.6321 32.4462 45.4861 33.6995C45.3311 34.971 45.2132 35.9951 45.1402 36.7641C45.0672 37.5319 45.0312 38.0716 45.0312 38.3923C45.0312 39.5813 45.1132 40.4508 45.2862 40.9995C45.4591 41.5483 45.714 41.8317 46.0689 41.8317C46.2048 41.8317 46.3508 41.7854 46.4788 41.7041L46.5698 41.6488L46.5877 41.5393C46.8157 40.5332 47.0156 39.701 47.1695 39.0416C47.3244 38.3923 47.4603 37.8526 47.5693 37.4224V38.7209L47.5872 38.9862V39.0043C47.7332 40.6235 48.233 41.4286 49.1067 41.4286C49.5615 41.4286 49.9253 41.0899 50.1893 40.4225C50.2162 40.3491 50.2622 40.2215 50.3162 40.0386C50.3802 40.2949 50.4621 40.523 50.5531 40.7251C50.844 41.3383 51.2988 41.6488 51.9086 41.6488C52.3993 41.6488 52.8182 41.3744 53.1461 40.8347C53.2191 40.7071 53.3101 40.5332 53.3921 40.313C53.483 40.103 53.583 39.8196 53.7009 39.4898V39.4537C53.7368 39.2979 53.7739 39.1522 53.8009 39.0145C53.8368 38.8767 53.8649 38.7491 53.8918 38.6215C54.0738 38.6859 54.1917 38.731 54.2557 38.7491C54.3197 38.7672 54.3736 38.7762 54.4107 38.7762C54.7655 38.7762 55.0833 38.6396 55.3562 38.3641C55.3473 38.547 55.3472 38.7028 55.3383 38.8395C55.3293 39.0687 55.3293 39.2516 55.3293 39.3882C55.3293 39.6445 55.3383 39.9099 55.3562 40.1843C55.3742 40.4496 55.4202 40.6969 55.4831 40.925C55.5471 41.1441 55.6381 41.3371 55.747 41.4828C55.865 41.6296 56.0199 41.7019 56.2288 41.7019C56.7656 41.7019 57.2025 41.1531 57.5484 40.0646C57.6663 39.6807 57.8673 38.7841 58.1492 37.3659C58.1851 37.1468 58.2222 36.982 58.2581 36.8623C58.2491 37.0723 58.2401 37.2925 58.2311 37.5206C58.2222 37.7498 58.2132 37.996 58.1862 38.2523C58.1043 39.1759 58.0683 39.7247 58.0683 39.8896C58.0683 40.2001 58.1042 40.4564 58.1683 40.6484C58.2323 40.8493 58.3053 41.0052 58.4052 41.1237C58.5052 41.2423 58.6051 41.3157 58.7242 41.353C58.8331 41.3891 58.9521 41.4173 59.07 41.4173C59.5428 41.4173 59.9527 40.96 60.2896 40.0454C60.3346 39.9539 60.3806 39.8162 60.4356 39.6332C60.4996 39.4413 60.5726 39.2121 60.6636 38.9287V39.386C60.6636 39.404 60.6636 39.404 60.6816 39.404C60.8276 40.7489 61.2633 41.4162 61.982 41.4162C62.3919 41.4162 62.7558 41.1508 63.0826 40.6292C63.1376 40.8121 63.2465 40.986 63.4195 41.1599C63.8013 41.5901 64.2382 41.8001 64.7199 41.8001C65.1837 41.8001 65.5745 41.5618 65.8935 41.0865C66.1753 40.6743 66.3124 40.1346 66.3124 39.4673C66.3045 39.2245 66.2686 38.9038 66.1866 38.5109ZM52.7407 38.8033C52.6857 39.0416 52.5588 39.3702 52.3679 39.8004C52.259 40.0386 52.168 40.2023 52.113 40.2848C52.0579 40.3672 52.013 40.4214 51.9861 40.4496C51.8592 40.4406 51.7581 40.3672 51.6862 40.2306C51.6042 40.0928 51.5402 39.9291 51.5043 39.727C51.4594 39.526 51.4223 39.325 51.4133 39.1048C51.4044 38.8857 51.3954 38.6836 51.3954 38.5007C51.3954 38.2083 51.4223 37.8605 51.4684 37.4574C51.5234 37.0452 51.5953 36.5789 51.7053 36.0391C51.7693 35.6914 51.8232 35.4079 51.8872 35.1889C51.9423 34.9698 51.9962 34.805 52.0422 34.6762C52.0782 34.5577 52.1242 34.4662 52.1512 34.4199C52.1871 34.3646 52.2062 34.3375 52.2242 34.3194C52.3241 34.3194 52.4061 34.3465 52.4701 34.4109C52.5341 34.4662 52.5611 34.5848 52.5611 34.7677V34.9326C52.5611 34.9969 52.5611 35.0884 52.5431 35.1889C52.5251 35.2894 52.5071 35.3808 52.5071 35.4633V35.6733C52.5071 35.7377 52.5161 35.8472 52.5341 36.003C52.5521 36.1498 52.6071 36.4332 52.6801 36.8442C52.7351 37.1457 52.7711 37.4111 52.798 37.6583C52.825 37.8966 52.8339 38.1157 52.8339 38.2896C52.8317 38.3912 52.8047 38.5651 52.7407 38.8033ZM64.8311 40.4135C64.7491 40.5513 64.6761 40.6427 64.5852 40.6698C64.5032 40.7059 64.4302 40.7251 64.3673 40.7251C64.2123 40.7251 64.0484 40.5332 63.8664 40.1673C63.8574 39.911 63.8024 39.7462 63.6935 39.692C63.6385 39.6649 63.6025 39.6366 63.5565 39.6276C63.7025 39.2347 63.8473 38.8225 63.9843 38.3923C63.9933 38.3652 64.0023 38.3471 64.0023 38.3189C64.0023 38.3099 64.0113 38.3099 64.0113 38.3008C64.0753 38.2184 64.1202 38.1179 64.1573 38.0265C64.1932 37.926 64.2303 37.8435 64.2572 37.7882V37.7701C64.3022 37.6143 64.3482 37.4596 64.3841 37.3038C64.4291 37.1389 64.4661 36.9831 64.52 36.8284C64.547 36.9109 64.5649 36.9842 64.584 37.0667C64.611 37.1581 64.629 37.2315 64.657 37.2959V37.314C64.912 38.2015 65.0389 38.8959 65.0389 39.3905C65.04 39.8184 64.967 40.1572 64.8311 40.4135Z" fill="white"/>
<path d="M73.0099 34.7878C72.755 34.7878 72.591 34.9798 72.5191 35.3637C72.4012 35.8944 72.3103 36.2693 72.2373 36.4883C72.1643 36.7176 72.1193 36.8632 72.0913 36.9456C71.9542 37.2381 71.8094 37.421 71.6634 37.4854C71.5174 37.5497 71.3815 37.5768 71.2726 37.5768C71.1816 37.5768 71.0996 37.5497 71.0356 37.5034C71.0356 36.9456 71.0356 36.4974 71.0177 36.1315C71.0087 35.7747 70.9907 35.4913 70.9817 35.2813C70.9727 35.0622 70.9548 34.9064 70.9357 34.8059C70.9177 34.7054 70.8997 34.623 70.8908 34.5767C70.7448 34.1747 70.4539 33.8179 70.0081 33.4972C69.5622 33.1585 69.1433 32.9936 68.7525 32.9936C68.6706 32.9936 68.5886 33.0026 68.5066 33.0207C68.4156 33.0388 68.3247 33.0851 68.2337 33.1483C68.1427 33.2127 68.0608 33.3041 67.9788 33.4136C67.8968 33.5322 67.8328 33.688 67.7969 33.88C67.7328 34.1363 67.6879 34.3192 67.6598 34.4378C67.6318 34.5563 67.6149 34.6388 67.6048 34.6851C67.5318 34.7675 67.4779 34.8951 67.4498 35.087V35.279C67.4498 35.3343 67.4588 35.3976 67.4678 35.48V35.5895C67.2679 36.0931 67.168 36.9885 67.168 38.2701C67.168 39.3496 67.2949 40.1637 67.5678 40.7215C67.8586 41.3347 68.3134 41.6452 68.9232 41.6452C69.414 41.6452 69.8329 41.3708 70.1608 40.8311C70.2338 40.7035 70.3158 40.5296 70.4067 40.3094C70.4977 40.0994 70.5976 39.816 70.7156 39.4862V39.4501C70.7515 39.2943 70.7886 39.1486 70.8155 39.0109C70.8515 38.8731 70.8795 38.7455 70.9065 38.6179C71.0794 38.6823 71.2063 38.7275 71.2703 38.7455C71.3343 38.7636 71.3793 38.7726 71.4253 38.7726C72.0441 38.7726 72.5438 38.3514 72.9178 37.5193C73.1087 37.0981 73.2457 36.6961 73.3367 36.3122C73.4276 35.9373 73.4737 35.5805 73.4737 35.2417C73.4737 34.9425 73.3187 34.7878 73.0099 34.7878ZM69.7621 38.8031C69.7071 39.0414 69.5802 39.3699 69.3893 39.8001C69.2804 40.0384 69.1894 40.2021 69.1344 40.2846C69.0704 40.367 69.0344 40.4212 69.0075 40.4494C68.8806 40.4404 68.7795 40.367 68.6986 40.2304C68.6256 40.0926 68.5616 39.9289 68.5167 39.7268C68.4718 39.5258 68.4437 39.3248 68.4347 39.1046C68.4168 38.8855 68.4168 38.6834 68.4168 38.5005C68.4168 38.208 68.4437 37.8603 68.4898 37.4571C68.5448 37.045 68.6167 36.5787 68.7177 36.0389C68.7817 35.6911 68.8446 35.4077 68.8997 35.1887C68.9637 34.9696 69.0086 34.8048 69.0546 34.676C69.0996 34.5575 69.1366 34.466 69.1725 34.4197C69.1995 34.3644 69.2276 34.3373 69.2366 34.3192C69.3455 34.3192 69.4275 34.3463 69.4915 34.4107C69.5555 34.466 69.5824 34.5846 69.5824 34.7675V34.9324C69.5824 34.9967 69.5824 35.0882 69.5645 35.1887C69.5375 35.2892 69.5285 35.3806 69.5285 35.4631V35.6731C69.5285 35.7374 69.5375 35.847 69.5555 36.0028C69.5735 36.1496 69.6195 36.433 69.7015 36.844C69.7565 37.1455 69.7925 37.4109 69.8194 37.6581C69.8374 37.8964 69.8553 38.1154 69.8553 38.2893C69.8531 38.391 69.825 38.5649 69.7621 38.8031Z" fill="white"/>
</svg>
