<svg width="90" height="90" viewBox="0 0 90 90" fill="none" xmlns="http://www.w3.org/2000/svg">
<g clip-path="url(#clip0_1028_2453)">
<mask id="mask0_1028_2453" style="mask-type:luminance" maskUnits="userSpaceOnUse" x="0" y="0" width="90" height="90">
<path d="M76.2478 76.2579C93.4968 58.9952 93.4968 31.0068 76.2478 13.7441C58.9988 -3.5186 31.0327 -3.5186 13.7838 13.7441C-3.46519 31.0068 -3.46519 58.9952 13.7838 76.2579C31.0327 93.5206 58.9988 93.5206 76.2478 76.2579Z" fill="white"/>
</mask>
<g mask="url(#mask0_1028_2453)">
<path d="M76.2478 76.2579C93.4968 58.9952 93.4968 31.0068 76.2478 13.7441C58.9988 -3.5186 31.0327 -3.5186 13.7838 13.7441C-3.46519 31.0068 -3.46519 58.9952 13.7838 76.2579C31.0327 93.5206 58.9988 93.5206 76.2478 76.2579Z" fill="#FFB8B3"/>
<path d="M62.4964 103.895H74.5207C73.5463 91.5476 72.6291 80.8364 72.6097 80.6193C72.9649 74.1072 71.8136 65.7636 71.7011 64.9832C72.5482 62.9267 71.5837 60.8157 71.5429 60.7261C71.5243 60.6882 71.4978 60.6588 71.4634 60.6351C69.7622 59.5624 60.0971 56.3881 59.6854 56.2526C59.6639 56.2462 59.6424 56.2426 59.6195 56.2426C59.5751 56.2426 59.53 56.2577 59.4942 56.2842C59.4377 56.325 59.4062 56.3917 59.4083 56.4612L60.5811 92.8653C61.0286 95.5073 61.7145 99.4362 62.4978 103.895H62.4964Z" fill="#26678A"/>
<path d="M60.372 92.9005C60.8181 95.5339 61.5004 99.4491 62.2816 103.895H62.7112C61.9265 99.4291 61.2391 95.488 60.7887 92.8296L59.6195 56.4541C59.6195 56.4541 69.6513 59.7438 71.351 60.8151C71.351 60.8151 72.3441 62.9447 71.4849 64.9554C71.4849 64.9554 72.7737 73.7447 72.3985 80.6079C72.3985 80.6079 73.3272 91.4143 74.3117 103.895H74.7327C73.7797 91.8006 72.879 81.2678 72.8217 80.6014C73.1668 74.2069 72.0685 66.0746 71.9202 65.0098C72.763 62.8852 71.7778 60.7276 71.7348 60.6352C71.7004 60.5628 71.6453 60.5005 71.5759 60.4575C69.8532 59.3712 60.163 56.1868 59.752 56.0528C59.709 56.0378 59.6646 56.0313 59.6195 56.0313C59.53 56.0313 59.4413 56.0593 59.3668 56.1159C59.2558 56.1983 59.1935 56.3308 59.1964 56.4684L60.3656 92.8439C60.367 92.8639 60.3692 92.8819 60.372 92.9019V92.9005Z" fill="#010000"/>
<path d="M62.7108 103.896H66.9695L69.5385 94.185L72.2442 78.1949L64.0411 94.185L66.8657 83.9066L62.1895 60.2078L60.4382 56.7261C59.9277 56.5555 59.6191 56.4552 59.6191 56.4552L60.7883 92.8307C61.2394 95.4891 61.9268 99.4302 62.7108 103.896Z" fill="#185773"/>
<path d="M70.2769 82.004C69.6676 83.7137 69.0583 85.4241 68.4482 87.1338" stroke="#010000" stroke-width="0.294909" stroke-linecap="round" stroke-linejoin="round"/>
<path d="M6.37254 103.896C7.39856 101.441 9.66681 95.9295 10.7236 92.695L27.5172 77.6343C27.5651 77.5913 27.5916 77.5275 27.5859 77.4623L26.1955 57.1958C26.1904 57.1349 26.1589 57.0769 26.1081 57.0389C26.0716 57.0138 26.0286 56.9988 25.9842 56.9988C25.9663 56.9988 25.9499 57.0024 25.9313 57.0059C25.879 57.0188 20.6272 58.419 17.711 63.3654C17.5692 63.5589 3.48638 82.6982 0.077553 90.0007C0.0560734 90.0573 -2.09977 95.8184 -2.73414 101.305C-2.86302 101.537 -3.45228 102.674 -3.44226 103.896H6.37326H6.37254Z" fill="#26678A"/>
<path d="M-3.22625 103.896C-3.23627 102.595 -2.52959 101.372 -2.52959 101.372C-1.89665 95.835 0.275663 90.0753 0.275663 90.0753C3.71027 82.7219 17.8812 63.4916 17.8812 63.4916C20.7988 58.5459 25.984 57.2109 25.984 57.2109L27.3752 77.4781L10.5408 92.5768C9.47686 95.8465 7.15776 101.474 6.14535 103.896H6.60287C7.64034 101.411 9.85418 96.0234 10.9081 92.8161L27.658 77.7913C27.7554 77.7046 27.8069 77.5777 27.7983 77.4473L26.4057 57.1816C26.3979 57.0562 26.3327 56.9408 26.2325 56.8677C26.1602 56.8147 26.0721 56.7867 25.9847 56.7867C25.9504 56.7867 25.9138 56.7918 25.8795 56.8004C25.6611 56.857 20.5024 58.232 17.5303 63.258C16.7886 64.2648 3.28425 82.6352 -0.107392 89.8947C-0.14176 89.9821 -2.29474 95.7404 -2.93842 101.239C-3.10524 101.55 -3.66014 102.678 -3.65226 103.896H-3.22625Z" fill="#010000"/>
<path d="M43.5989 62.9296C43.5308 62.9296 43.465 62.8959 43.4234 62.8364L36.9831 53.4C36.9516 53.352 36.9402 53.294 36.9516 53.236C38.0206 48.291 36.9602 41.0795 36.9502 41.0071C36.9387 40.9376 36.9652 40.8652 37.0182 40.8187C37.0576 40.7843 37.1077 40.7642 37.1585 40.7642C37.1764 40.7642 37.1965 40.7678 37.2144 40.7728L43.5165 42.4825L50.0499 40.7105C50.0678 40.7055 50.0879 40.7033 50.1058 40.7033C50.1566 40.7033 50.2067 40.7219 50.2461 40.7571C50.2991 40.8051 50.3249 40.876 50.3134 40.9469C50.3034 41.0186 49.243 48.2293 50.312 53.1758C50.3199 53.2137 50.317 53.2546 50.3034 53.2933C50.1795 53.6286 47.2425 61.5466 43.674 62.9145C43.6497 62.9253 43.6225 62.9303 43.5981 62.9303L43.5989 62.9296Z" fill="#FAB18C"/>
<path d="M50.1057 40.9155C50.1057 40.9155 49.0159 48.1778 50.1057 53.2203C50.1057 53.2203 47.1193 61.3676 43.5987 62.7183L37.1577 53.2819C38.2474 48.2395 37.1577 40.9771 37.1577 40.9771L43.5637 42.7141V42.6897L50.105 40.9162M50.105 40.4927C50.0684 40.4927 50.0305 40.4978 49.994 40.5078L43.515 42.2634L37.2672 40.5687C37.2307 40.5587 37.1928 40.5536 37.157 40.5536C37.0546 40.5536 36.9536 40.5916 36.8763 40.6611C36.7689 40.7571 36.7174 40.899 36.7396 41.0395C36.7496 41.1118 37.8042 48.286 36.7439 53.1923C36.7195 53.3063 36.7424 53.4252 36.8083 53.522L43.2493 62.9562C43.3302 63.0759 43.462 63.1418 43.598 63.1418C43.6496 63.1418 43.7004 63.1317 43.7498 63.1138C47.4057 61.7101 50.3777 53.7068 50.5016 53.3665C50.5295 53.2905 50.5345 53.2103 50.5181 53.1314C49.4577 48.2216 50.5116 41.0502 50.5231 40.9786C50.5446 40.8367 50.4937 40.6941 50.3863 40.6002C50.309 40.5293 50.2081 40.4927 50.1057 40.4927H50.105Z" fill="#010000"/>
<path opacity="0.8" d="M49.8867 51.9624C49.2481 47.4689 49.9576 41.9585 50.0851 41.0549L49.213 41.1553L43.5631 42.688V42.7123L41.2118 42.076L37.3447 42.521C37.4929 43.9262 37.6684 46.1217 37.634 48.4362C39.1175 49.9288 42.7168 52.4088 49.886 51.9624H49.8867Z" fill="#F4816C"/>
<path d="M31.3732 37.7606C30.2849 37.7606 29.2425 36.4085 28.8358 34.4709C28.3861 32.2366 28.9582 30.1056 30.1374 29.6155C30.2978 29.5488 30.4632 29.5159 30.6315 29.5159C31.7255 29.5159 32.7658 30.868 33.1625 32.8034C33.62 35.0434 33.0515 37.1766 31.8673 37.661C31.709 37.7269 31.5415 37.7599 31.3732 37.7599V37.7606Z" fill="#FAB18C"/>
<path d="M30.6318 29.728C31.5898 29.728 32.5764 31.0013 32.9559 32.8472C33.3891 34.9718 32.8671 37.0233 31.7881 37.4668C31.6506 37.5234 31.5125 37.5499 31.3736 37.5499C30.412 37.5499 29.4289 36.2752 29.043 34.4286C28.6184 32.3191 29.1304 30.264 30.2194 29.8111C30.3547 29.7545 30.4936 29.728 30.6325 29.728M30.6325 29.3045C30.4356 29.3045 30.243 29.3425 30.0597 29.4184C28.7681 29.9558 28.153 32.1449 28.6292 34.5103C29.0573 36.5511 30.185 37.972 31.375 37.972C31.5697 37.972 31.7631 37.934 31.9499 37.8581C33.2452 37.3271 33.8566 35.1373 33.3726 32.7626C32.9545 30.7261 31.8282 29.3038 30.6332 29.3038L30.6325 29.3045Z" fill="#010000"/>
<path opacity="0.8" d="M30.0434 31.428C30.0434 31.428 29.6703 36.3429 31.6128 36.2368C31.6128 36.2368 32.9918 33.2444 30.526 31.2675L30.0434 31.428Z" fill="#F4816C"/>
<path d="M30.2018 34.0257C30.2018 34.0257 30.1624 33.8509 30.1373 33.5815C30.1194 33.3113 30.0958 32.943 30.2233 32.5747C30.2777 32.3898 30.4015 32.2092 30.5684 32.0903C30.7373 31.9742 30.9414 31.9284 31.0925 31.9398C31.4096 31.9398 31.5879 32.028 31.5944 32.0151L31.4404 32.4192C31.4419 32.4328 31.2922 32.3382 31.0738 32.3053C30.9614 32.2773 30.8397 32.2924 30.7216 32.3432C30.6077 32.4013 30.4925 32.5088 30.4223 32.6607C30.2655 32.9538 30.224 33.3192 30.2046 33.58C30.1882 33.8459 30.2011 34.0257 30.2011 34.0257H30.2018Z" fill="#010000"/>
<path d="M29.5992 34.3631C29.5992 34.3631 29.5613 34.2176 29.4954 33.9611C29.4424 33.7067 29.373 33.3226 29.3816 32.8605C29.4217 32.4069 29.4396 31.8265 29.8842 31.3113C30.1434 31.0583 30.5551 30.9809 30.9131 31.1937C31.2353 31.3693 31.4157 31.6488 31.5976 31.9146C31.7558 32.1941 31.8782 32.485 31.9728 32.7795C32.0572 33.064 32.131 33.3843 32.1596 33.6573C32.2391 34.2212 32.209 34.7916 32.1102 35.2373C32.0802 35.4673 31.9878 35.6694 31.9183 35.8428C31.8238 36.0105 31.7494 36.1566 31.6441 36.2505C31.5632 36.3609 31.4594 36.4046 31.395 36.4354C31.3319 36.4669 31.299 36.4848 31.299 36.4848C31.2854 36.4698 31.4472 36.4153 31.5782 36.1953C31.6606 36.0979 31.7071 35.9474 31.768 35.7833C31.8024 35.6085 31.8575 35.4179 31.8704 35.1986C31.9234 34.7565 31.884 34.2628 31.7816 33.7153C31.7401 33.4294 31.6541 33.1879 31.5747 32.907C31.4837 32.639 31.3663 32.3782 31.226 32.1353C31.0792 31.9089 30.9138 31.6638 30.7076 31.5563C30.5623 31.4474 30.3045 31.4374 30.1455 31.5878C29.8198 31.9203 29.6866 32.4577 29.6236 32.8791C29.6121 33.0969 29.572 33.299 29.5771 33.4774C29.5749 33.6573 29.5627 33.8163 29.5785 33.9489C29.5914 34.2119 29.6 34.3624 29.6 34.3624L29.5992 34.3631Z" fill="#010000"/>
<path d="M55.6773 37.7569C55.509 37.7569 55.3422 37.7239 55.1818 37.658C53.999 37.1736 53.4305 35.0404 53.8866 32.8026C54.2847 30.865 55.3258 29.5129 56.4176 29.5129C56.5859 29.5129 56.7534 29.5451 56.9117 29.6103C58.0909 30.1026 58.6644 32.2337 58.2148 34.4665C57.8081 36.4055 56.7642 37.7576 55.6773 37.7576V37.7569Z" fill="#FAB18C"/>
<path d="M56.4176 29.7243C56.5565 29.7243 56.6947 29.7508 56.8307 29.8074C57.9191 30.2603 58.4317 32.3154 58.0064 34.4249C57.6198 36.2715 56.6389 37.5462 55.6773 37.5462C55.537 37.5462 55.398 37.5204 55.2613 37.4631C54.1823 37.0203 53.6611 34.9688 54.0935 32.8435C54.4737 30.9976 55.4596 29.7243 56.4176 29.7243ZM56.4176 29.3008C55.2233 29.3008 54.0985 30.7224 53.6804 32.7596C53.1949 35.1336 53.8078 37.3241 55.1009 37.8551C55.2878 37.931 55.4811 37.969 55.6773 37.969C56.8651 37.969 57.9935 36.5474 58.421 34.5109C58.8985 32.1434 58.2842 29.9528 56.9933 29.4154C56.8064 29.3395 56.6138 29.3015 56.4169 29.3015L56.4176 29.3008Z" fill="#010000"/>
<g opacity="0.8">
<path d="M54.0935 32.8448C53.661 34.9694 54.1822 37.0209 55.2612 37.4644C56.3417 37.9044 57.5639 36.5401 58.0071 34.4262C58.4316 32.3167 57.9197 30.2616 56.8314 29.8087C55.761 29.3673 54.5288 30.7309 54.0942 32.8448H54.0935Z" fill="#F4816C"/>
</g>
<path d="M56.8481 34.0242C56.8481 34.0242 56.8596 33.8444 56.8431 33.5785C56.8238 33.3177 56.7837 32.9523 56.6255 32.6592C56.556 32.5073 56.4407 32.3998 56.3262 32.3418C56.2088 32.2909 56.0863 32.2758 55.9739 32.3038C55.7563 32.3367 55.6059 32.4313 55.6073 32.4177L55.4541 32.0136C55.4605 32.0265 55.6388 31.9383 55.956 31.9383C56.1064 31.9269 56.3111 31.9734 56.4815 32.0888C56.6469 32.2078 56.7708 32.3883 56.8252 32.5732C56.9527 32.9415 56.929 33.3105 56.9111 33.58C56.8875 33.8494 56.8488 34.0242 56.8488 34.0242H56.8481Z" fill="#010000"/>
<path d="M57.4491 34.3618C57.4491 34.3618 57.4577 34.2113 57.4706 33.9484C57.4871 33.8165 57.4742 33.6574 57.472 33.4769C57.4771 33.2984 57.4377 33.0964 57.4255 32.8785C57.3632 32.4572 57.2308 31.9198 56.9035 31.5873C56.7467 31.4368 56.4876 31.4469 56.3422 31.5558C56.136 31.6633 55.972 31.9083 55.8231 32.1348C55.6828 32.3777 55.5668 32.6385 55.4766 32.9065C55.3957 33.1874 55.3098 33.4289 55.2682 33.7148C55.1658 34.2622 55.1265 34.7559 55.1809 35.198C55.1923 35.418 55.2467 35.6079 55.2833 35.7828C55.3427 35.9461 55.3907 36.0973 55.4716 36.1948C55.6019 36.4148 55.7637 36.4692 55.7508 36.4843C55.7508 36.4843 55.7179 36.4656 55.6549 36.4348C55.5919 36.4033 55.488 36.3603 55.405 36.25C55.2997 36.1561 55.2253 36.0099 55.1322 35.8422C55.0627 35.6688 54.9704 35.4668 54.9389 35.2367C54.8415 34.791 54.8121 34.2207 54.8909 33.6567C54.9174 33.3837 54.9919 33.0634 55.0778 32.7789C55.1716 32.4844 55.2926 32.1942 55.4508 31.9141C55.6327 31.6482 55.8124 31.3687 56.1353 31.1932C56.4933 30.9797 56.9064 31.0578 57.1642 31.3107C57.6088 31.8259 57.6288 32.4063 57.6675 32.8599C57.6761 33.3221 57.6067 33.7062 57.5522 33.9605C57.4856 34.2171 57.4484 34.3625 57.4484 34.3625L57.4491 34.3618Z" fill="#010000"/>
<path d="M43.6338 49.1729C38.4536 49.1729 32.3233 41.7501 32.3233 35.4794L31.8672 17.3304H55.4018L54.8419 35.4866C54.8419 41.75 48.766 49.1729 43.6338 49.1729Z" fill="#FAB18C"/>
<path d="M55.184 17.5418L54.6306 35.4795C54.6306 41.8562 48.4444 48.9616 43.6344 48.9616C38.8244 48.9616 32.5351 41.8554 32.5351 35.4795L32.084 17.5418H55.184ZM55.6201 17.1183H31.6494L31.6609 17.5511L32.1119 35.4888C32.1119 41.8476 38.3575 49.3843 43.6344 49.3843C48.9112 49.3843 55.0537 41.8476 55.0537 35.4788L55.6072 17.5547L55.6208 17.1183H55.6201Z" fill="#010000"/>
<path d="M41.7715 43.6422C41.7715 43.6422 44.0018 45.071 46.2615 43.6422C46.2615 43.6422 44.3347 47.0416 41.7715 43.6422Z" fill="#F4816C"/>
<path opacity="0.8" d="M32.0996 18.2142L32.4003 30.1456C33.218 28.7505 34.1767 25.0552 34.7681 22.6482C34.7681 22.6482 45.6555 24.7643 52.1638 23.7761C52.1638 23.7761 52.0399 28.9096 53.7311 31.2606C53.7311 31.2606 53.3724 42.6346 47.1598 47.874C50.3595 46.0253 53.3924 42.0656 54.3311 37.9805C54.3461 37.9131 54.3612 37.8465 54.3741 37.7791C54.4364 37.4832 54.485 37.1858 54.5266 36.8877C54.5395 36.7867 54.5567 36.6864 54.566 36.5868C54.6061 36.2163 54.6304 35.848 54.6304 35.4804L55.1015 20.2148L32.1003 18.2142H32.0996Z" fill="#F4816C"/>
<path d="M41.8248 37.9518C41.7317 38.1618 41.6629 38.3947 41.7138 38.591C41.7431 38.6849 41.7947 38.7587 41.867 38.8153C41.8935 38.8518 41.935 38.8583 41.993 38.8913C42.046 38.9213 42.0968 38.9443 42.1434 38.9514C42.3202 39.0109 42.5587 39.021 42.7842 39.0489C42.898 39.0604 43.0226 39.0804 43.1465 39.1055C43.2732 39.132 43.4071 39.185 43.5381 39.276L43.5016 39.2531C43.6205 39.304 43.7773 39.342 43.9119 39.3484C44.0486 39.3484 44.1711 39.3241 44.277 39.2646L44.5126 39.1363C44.582 39.094 44.6694 39.0589 44.7682 39.0324C44.9587 38.9636 45.1384 38.945 45.3188 38.9249C45.4097 38.9099 45.4971 38.9235 45.5851 38.9235L45.8193 38.9285C45.9023 38.9206 46.0047 38.9142 46.0176 38.8819C46.0606 38.8769 46.0921 38.8124 46.125 38.7644C46.168 38.6469 46.1658 38.4885 46.1085 38.3431C46.0491 38.1948 45.9403 38.0722 45.8107 37.9533C45.8851 37.9948 45.9646 38.0342 46.0391 38.0823C46.0985 38.1467 46.173 38.2026 46.2224 38.28C46.3205 38.4305 46.3978 38.6254 46.3448 38.8375C46.3026 38.935 46.2675 39.046 46.1501 39.112C46.0312 39.203 45.9582 39.1994 45.8744 39.223C45.7355 39.2474 45.6961 39.2459 45.6002 39.2574C45.5207 39.2689 45.4348 39.2689 45.3589 39.2875C45.2035 39.3155 45.0467 39.3441 44.9214 39.4014C44.8548 39.4229 44.7861 39.4466 44.7102 39.4953L44.5018 39.6128C44.3135 39.7303 44.0959 39.7798 43.8925 39.7683C43.6878 39.7504 43.5109 39.7053 43.3212 39.6186L43.2847 39.5935C43.2217 39.5534 43.1479 39.5111 43.0484 39.4824C42.9474 39.4545 42.8436 39.4301 42.7298 39.41C42.5021 39.3642 42.2737 39.3248 42.0231 39.2051C41.9572 39.1786 41.9078 39.1478 41.8634 39.1127C41.8255 39.0826 41.7539 39.0482 41.7109 38.9873C41.6701 38.9292 41.6121 38.8848 41.5906 38.8167C41.5756 38.7472 41.5412 38.6827 41.5477 38.6154C41.5455 38.3452 41.673 38.1274 41.8269 37.954L41.8248 37.9518Z" fill="#010000"/>
<path d="M42.0303 43.7546C42.0303 43.7546 42.2766 43.857 42.6546 43.943C43.0362 44.014 43.5467 44.11 44.0623 44.0699C44.32 44.0813 44.5756 44.0555 44.814 44.0104C45.0553 43.9788 45.2816 43.9588 45.4685 43.8964C45.8465 43.8054 46.1093 43.7538 46.1093 43.7538C46.1093 43.7538 45.8716 43.862 45.5 44.0104C45.3167 44.0913 45.0918 44.1523 44.8441 44.1924C44.6 44.2468 44.335 44.2834 44.0658 44.282C43.7981 44.297 43.5324 44.2626 43.2825 44.2275C43.0334 44.2003 42.8114 44.11 42.6202 44.057C42.2451 43.9108 42.0303 43.7538 42.0303 43.7538V43.7546Z" fill="#010000"/>
<path d="M46.7341 27.9767C46.7341 27.9767 46.9439 27.5947 47.4859 27.2486C47.7515 27.0731 48.0966 26.9083 48.4897 26.8173C48.8835 26.7033 49.321 26.6983 49.7534 26.7177C50.1809 26.7771 50.6005 26.8782 50.9656 27.0387C51.3308 27.1992 51.6451 27.3876 51.8871 27.5876C52.1449 27.761 52.3102 27.9724 52.4355 28.0999C52.5558 28.2353 52.6188 28.3185 52.6188 28.3185C52.6188 28.3185 52.5129 28.2934 52.3432 28.2404C52.1678 28.1945 51.9437 28.0913 51.6594 28.0161C51.5191 27.9767 51.3701 27.9279 51.2184 27.8735C51.058 27.8355 50.8919 27.7975 50.7265 27.7445C50.5596 27.6951 50.3799 27.685 50.206 27.6356C50.0312 27.5976 49.8494 27.5876 49.6725 27.5596C48.9573 27.4901 48.2341 27.5575 47.6785 27.6915C47.1236 27.819 46.7334 27.9759 46.7334 27.9759L46.7341 27.9767Z" fill="#010000"/>
<path d="M41.2795 28.0276C41.2795 28.0276 41.1771 27.971 40.9938 27.9086C40.8284 27.8277 40.5564 27.7746 40.2685 27.6772C40.1132 27.6557 39.9463 27.6342 39.7781 27.5998C39.6127 27.5518 39.4244 27.5661 39.2382 27.5546C39.0499 27.5511 38.8595 27.5288 38.6633 27.5367C38.465 27.5582 38.2652 27.5797 38.0654 27.6012C37.8657 27.6113 37.6623 27.6127 37.4683 27.6808C37.275 27.7352 37.0766 27.7646 36.8869 27.8062C36.7 27.8556 36.5053 27.8606 36.3334 27.9172C36.1645 27.9781 35.9998 28.0283 35.8444 28.0727C35.2315 28.2547 34.7676 28.3192 34.7676 28.3192C34.7676 28.3192 35.0862 28.0082 35.6475 27.6277C35.7864 27.5324 35.9382 27.4278 36.105 27.3282C36.2719 27.2279 36.4724 27.1684 36.6714 27.0932C36.8733 27.0258 37.0809 26.9413 37.2972 26.8804C37.5084 26.7987 37.7418 26.7808 37.9745 26.76C38.2072 26.7464 38.4385 26.7335 38.6683 26.7199C38.8967 26.7148 39.1244 26.7872 39.3392 26.8195C39.7766 26.8675 40.1482 27.0889 40.4554 27.2329C40.7447 27.4378 40.9709 27.6098 41.0962 27.7768C41.2301 27.9258 41.2781 28.0276 41.2781 28.0276H41.2795Z" fill="#010000"/>
<path d="M39.0869 48.1172C39.0869 48.1172 39.3346 48.4347 39.6669 48.9291C40.002 49.4235 40.4151 50.1 40.8132 50.7807C41.2184 51.4586 41.5557 52.183 41.8492 52.6903C42.1306 53.2091 42.2938 53.5846 42.2938 53.5846C42.2938 53.5846 42.0225 53.2951 41.6509 52.8222C41.2614 52.3543 40.8511 51.6764 40.4466 50.9921C40.042 50.3078 39.707 49.5855 39.4585 49.043C39.2158 48.4992 39.0869 48.1172 39.0869 48.1172Z" fill="#010000"/>
<path d="M26.1096 103.893H61.5726C62.0831 98.424 63.1864 92.2938 64.0091 87.7386C64.559 84.6868 64.9578 82.482 64.9599 81.6615C65.0165 69.7229 62.5119 57.4898 62.4855 57.3672C62.4769 57.3221 62.4525 57.2812 62.4181 57.2511C61.5604 56.5023 52.1036 53.6755 51.0282 53.3559C51.0081 53.3495 50.9874 53.3459 50.9673 53.3459C50.8828 53.3459 50.8019 53.3989 50.7704 53.4827C48.9454 58.2572 44.5821 62.3488 43.8539 63.0109C43.8475 63.0087 43.8275 63.0087 43.8246 63.0087C43.0929 62.3445 38.7332 58.2543 36.9096 53.4827C36.8781 53.3989 36.7971 53.3459 36.7112 53.3459C36.6912 53.3459 36.6718 53.3495 36.6518 53.3559C35.5764 53.6748 26.1174 56.5038 25.2618 57.2511C25.2275 57.2805 25.2024 57.3221 25.1945 57.3672C25.168 57.4898 22.6699 69.7229 22.7215 81.6615C22.7251 82.4777 23.1196 84.6667 23.668 87.6971C24.4921 92.2637 25.5991 98.4104 26.1096 103.893Z" fill="#26678A"/>
<path d="M25.8966 103.893H26.3212C25.467 94.7058 22.9432 83.6672 22.9332 81.6622C22.8816 69.6083 25.4012 57.411 25.4012 57.411C26.1845 56.7274 35.2038 54.0087 36.7117 53.5587C38.7386 58.8642 43.7914 63.2638 43.7914 63.2638C43.8043 63.2502 43.8258 63.2438 43.8408 63.2287C43.8623 63.2431 43.8752 63.2502 43.8888 63.2638C43.8888 63.2638 48.9401 58.8642 50.9671 53.5587C52.4764 54.0087 61.4964 56.7281 62.279 57.411C62.279 57.411 64.8043 69.6083 64.7484 81.6622C64.7413 83.6672 62.216 94.7058 61.3604 103.893H61.785C62.294 98.4391 63.3952 92.3239 64.2165 87.7774C64.7699 84.7155 65.1673 82.502 65.1709 81.6637C65.2274 69.7043 62.7179 57.4468 62.6928 57.3243C62.6728 57.2354 62.6255 57.1523 62.5561 57.0914C61.684 56.3318 52.8494 53.6777 51.0866 53.1539C51.0472 53.1424 51.0057 53.1353 50.9663 53.1353C50.7959 53.1353 50.6363 53.2413 50.5718 53.4083C48.8506 57.9133 44.8396 61.8114 43.8386 62.7372C42.8391 61.8114 38.8267 57.9133 37.1055 53.4083C37.0425 53.2413 36.8821 53.1353 36.7102 53.1353C36.6709 53.1353 36.6308 53.1417 36.59 53.1539C34.8286 53.6784 25.9926 56.3318 25.1219 57.0914C25.0511 57.1523 25.0031 57.2354 24.9852 57.3243C24.9601 57.4482 22.4577 69.7036 22.5086 81.6637C22.5114 82.4985 22.9081 84.6954 23.458 87.7358C24.2807 92.2917 25.3854 98.4255 25.8945 103.893H25.8966Z" fill="#010000"/>
<path d="M38.3082 103.894L36.8447 80.1396C36.8447 80.1396 36.3228 91.5846 35.6748 103.894H38.3082Z" fill="#185773"/>
<path d="M37.2503 99.6107C37.163 99.6107 37.0835 99.5563 37.0556 99.4703L29.9573 78.0975C29.9451 78.0645 29.9422 78.0279 29.9487 77.995L34.4687 54.1765C34.4816 54.1027 34.536 54.0418 34.6112 54.0182L35.7374 53.6742C35.7575 53.6692 35.7768 53.6663 35.7969 53.6663C35.8334 53.6663 35.8713 53.6764 35.9028 53.6964C35.9522 53.7258 35.9873 53.7752 35.9988 53.8333L37.4522 61.2626L37.6441 81.2052L37.4558 99.4072C37.4558 99.5083 37.3814 99.5921 37.2825 99.6086C37.2725 99.61 37.2611 99.61 37.251 99.61L37.2503 99.6107Z" fill="#31789A"/>
<path d="M35.7969 53.8734L37.2511 61.3027L37.4394 81.2074L37.2511 99.4059L30.1528 78.033L34.6714 54.2145C35.0902 54.087 35.4704 53.9716 35.7976 53.8727M35.7976 53.4614C35.7583 53.4614 35.7167 53.4664 35.6788 53.4779L34.5504 53.8219C34.405 53.8663 34.2941 53.9888 34.2661 54.1393L29.7482 77.9556C29.7354 78.0251 29.7404 78.0961 29.7618 78.162L36.8602 99.5348C36.9182 99.7068 37.0764 99.8172 37.2518 99.8172C37.2719 99.8172 37.2926 99.8157 37.3148 99.8129C37.5146 99.7813 37.6614 99.6108 37.6635 99.4094L37.8518 81.2109L37.6635 61.2984C37.6635 61.2734 37.6599 61.249 37.6549 61.2232L36.2007 53.7939C36.1793 53.68 36.1098 53.5811 36.0096 53.5202C35.9451 53.4822 35.8728 53.4621 35.7976 53.4621V53.4614Z" fill="#010000"/>
<path d="M54.5026 103.894L53.4043 94.2115L52.0682 55.5402L50.0856 68.5013L44.8174 103.894H54.5026Z" fill="#185773"/>
<path d="M50.7473 99.608C50.6485 99.5916 50.574 99.5077 50.574 99.4067L50.3857 81.2082L50.574 61.3L52.0311 53.8327C52.0425 53.7747 52.0769 53.7252 52.127 53.6959C52.1585 53.6758 52.1965 53.6658 52.2323 53.6658C52.2523 53.6658 52.2717 53.6694 52.2917 53.6737L53.4187 54.0176C53.4931 54.0413 53.5476 54.1022 53.5612 54.176L58.0805 77.9944C58.0869 78.0274 58.0834 78.0639 58.0719 78.0969L50.9736 99.4697C50.9456 99.555 50.8662 99.6102 50.7788 99.6102C50.7688 99.6102 50.7573 99.6102 50.7473 99.6088V99.608Z" fill="#31789A"/>
<path d="M52.2315 53.8722C52.5587 53.9718 52.9381 54.0872 53.3584 54.214L57.8763 78.0325L50.7787 99.4053L50.5904 81.2068L50.7787 61.3022L52.2322 53.8729M52.2322 53.4616C52.1577 53.4616 52.0854 53.481 52.021 53.5197C51.92 53.5806 51.8506 53.6794 51.8291 53.7934L50.3749 61.2227C50.3699 61.2478 50.367 61.2721 50.367 61.2979L50.1787 81.2025L50.367 99.4096C50.3684 99.611 50.5159 99.7815 50.7157 99.813C50.7372 99.8166 50.7565 99.8173 50.7787 99.8173C50.9534 99.8173 51.1124 99.707 51.1704 99.535L58.2687 78.1622C58.2902 78.0962 58.2952 78.0253 58.2816 77.9558L53.7637 54.1395C53.7343 53.989 53.6248 53.8665 53.4794 53.822L52.351 53.4781C52.3131 53.4666 52.2716 53.4616 52.2322 53.4616Z" fill="#010000"/>
<path d="M37.0744 95.3165C37.0729 95.3939 37.0085 98.8298 36.9505 103.893H50.9273C50.7441 97.2699 50.5672 92.489 50.5636 92.398C50.5787 92.13 52.1231 65.4073 52.2684 60.2796C52.3178 58.5534 51.9133 56.3543 51.0648 53.7424C51.0383 53.66 50.9624 53.6019 50.8765 53.6005H50.8694C50.7856 53.6005 50.7097 53.65 50.6782 53.7295C48.8001 58.4043 44.5643 62.3741 43.8562 63.0168H43.8233C43.108 62.3655 38.8393 58.3649 36.9748 53.66C36.9433 53.5826 36.8674 53.531 36.783 53.531H36.7643C36.6734 53.5389 36.5989 53.6055 36.581 53.6951C36.2402 55.3496 35.8694 57.9171 36.0247 60.7489C36.1851 63.6754 37.0672 95.0105 37.0751 95.3165H37.0744Z" fill="#8ABEE6"/>
<path d="M36.8694 95.3316C36.8673 95.4025 36.8014 98.8313 36.7434 103.894H37.1551C37.2145 98.7668 37.2804 95.3201 37.2804 95.3201C37.2804 95.3201 36.3918 63.7012 36.2279 60.7382C36.0711 57.8662 36.4677 55.2629 36.7813 53.7367C38.8527 58.9625 43.7902 63.2648 43.7902 63.2648C43.8031 63.2512 43.8245 63.2447 43.8396 63.2297C43.8611 63.244 43.8739 63.2512 43.8875 63.2648C43.8875 63.2648 48.7806 59.0005 50.8685 53.8062C51.4821 55.6943 52.1229 58.1872 52.0634 60.2753C51.9145 65.4582 50.3587 92.3872 50.3587 92.3872C50.3587 92.3872 50.537 97.1968 50.7217 103.894H51.1334C50.9494 97.2627 50.7725 92.4718 50.7696 92.3722C50.7847 92.1422 52.3269 65.4159 52.4744 60.2867C52.5245 58.5355 52.1164 56.3141 51.2601 53.6786C51.2057 53.5145 51.0553 53.4013 50.8821 53.3942H50.8685C50.7002 53.3942 50.5484 53.4966 50.4854 53.6521C48.7112 58.0676 44.8097 61.8567 43.8381 62.7531C42.8637 61.8517 38.925 58.0296 37.1644 53.5848C37.1014 53.4271 36.9496 53.3246 36.7813 53.3246C36.7699 53.3246 36.7584 53.3246 36.7448 53.3261C36.5651 53.3426 36.4148 53.4751 36.3782 53.6535C36.0367 55.3203 35.6601 57.9056 35.8169 60.7597C35.9787 63.684 36.8587 95.0156 36.8694 95.3316Z" fill="#010000"/>
<path opacity="0.6" d="M37.3457 69.4006C38.6223 69.9294 40.5254 65.9618 41.0538 65.8035C41.5822 65.6444 45.3805 66.146 45.3805 66.146C45.3805 66.146 49.4939 68.5013 50.0853 68.5013H50.6753C50.6753 68.5013 48.1908 95.6038 48.5079 96.574C48.6068 96.8764 48.7378 99.8924 48.8695 103.893H50.7225C50.5378 97.196 50.3595 92.3864 50.3595 92.3864C50.3595 92.3864 51.9153 65.4574 52.0643 60.2745C52.0707 60.0244 52.0671 59.7671 52.0542 59.5078H47.4046C45.5853 61.7807 43.8891 63.264 43.8891 63.264C43.8762 63.2503 43.8626 63.2439 43.8411 63.2288C43.8261 63.2432 43.8046 63.2503 43.7917 63.264C43.7917 63.264 42.0955 61.7807 40.2748 59.5078H36.6139L36.2373 60.9129C36.2853 61.9082 36.3812 64.7702 36.4951 68.4633C36.75 68.9183 37.0335 69.2716 37.3457 69.4013V69.4006Z" fill="#63A0CA"/>
<path d="M43.9035 103.62C43.8441 103.62 43.7861 103.594 43.7482 103.547C42.4666 102.043 41.2916 99.9632 40.2556 97.3678C40.1253 90.6064 42.3226 65.3849 42.3441 65.1298C42.352 65.0309 42.4315 64.9514 42.531 64.9435C42.531 64.9435 45.1938 64.6948 45.1988 64.6948C45.2997 64.6948 45.3871 64.7679 45.4021 64.8682C46.5749 72.2782 47.1169 87.8992 47.3482 94.5697C47.3897 95.8014 47.4212 96.7079 47.4441 97.1686C47.4456 97.2016 47.4391 97.2331 47.4262 97.2625C45.6749 101.24 44.0897 103.509 44.0725 103.532C44.036 103.585 43.9787 103.616 43.9143 103.619H43.9043L43.9035 103.62Z" fill="#1A2A3F"/>
<path d="M45.1974 64.9019C46.5885 73.6934 47.0976 94.2659 47.2358 97.1794C45.4716 101.185 43.9021 103.413 43.9021 103.413C42.5525 101.828 41.4076 99.7038 40.4461 97.2912C40.3286 90.534 42.5475 65.1477 42.5475 65.1477L45.1974 64.9012M45.1988 64.4892C45.1859 64.4892 45.1723 64.4892 45.1594 64.4906L42.5103 64.7371C42.3119 64.755 42.1566 64.9127 42.1387 65.1105C42.1172 65.3648 39.9184 90.5971 40.0358 97.2991C40.0358 97.3485 40.0458 97.398 40.0637 97.4445C41.1076 100.06 42.294 102.158 43.5907 103.68C43.668 103.773 43.784 103.825 43.9029 103.825C43.9093 103.825 43.9157 103.824 43.9222 103.824C44.0496 103.819 44.1663 103.755 44.2394 103.651C44.3038 103.558 45.8532 101.343 47.6124 97.3449C47.6389 97.2862 47.6503 97.2224 47.6468 97.1586C47.6253 96.6979 47.5938 95.7936 47.5508 94.5611C47.3196 87.887 46.7776 72.2574 45.6048 64.8367C45.5718 64.6347 45.3986 64.4892 45.1981 64.4892H45.1988Z" fill="#010000"/>
<path opacity="0.3" d="M47.237 97.1794C47.0988 94.2659 46.5897 73.6935 45.1986 64.902L42.5487 65.1485C42.5487 65.1485 42.4907 65.8242 42.3933 66.9736L44.648 68.4303L46.0112 95.8703L43.8919 98.3173L40.4516 95.8323C40.443 96.3848 40.4401 96.8742 40.448 97.2919C41.4096 99.7039 42.5544 101.828 43.9041 103.414C43.9041 103.414 45.4735 101.186 47.2377 97.1802L47.237 97.1794Z" fill="#00051B"/>
<path d="M43.8887 65.3544C42.9665 65.3544 42.3672 65.1029 42.3422 65.0915C42.3042 65.0771 42.2727 65.0485 42.2498 65.0141C41.8238 64.3505 41.3326 61.6362 41.2782 61.3302C41.2682 61.2693 41.2854 61.2077 41.324 61.1611C41.362 61.1131 41.42 61.0866 41.4808 61.0866H46.1971C46.2529 61.0866 46.3059 61.1095 46.3438 61.1497C46.3832 61.1898 46.4025 61.2421 46.4018 61.2987C46.3553 63.0242 45.65 64.8958 45.6185 64.9754C45.5971 65.0334 45.5491 65.0793 45.4897 65.0979C44.9641 65.2685 44.4257 65.3544 43.8873 65.3544H43.8887Z" fill="#1A2A3F"/>
<path d="M46.1985 61.2945C46.152 63.0056 45.4281 64.9038 45.4281 64.9038C44.8582 65.0887 44.3348 65.1503 43.8887 65.1503C42.9987 65.1503 42.4238 64.9038 42.4238 64.9038C42.0078 64.2553 41.4816 61.2945 41.4816 61.2945H46.1978M46.1978 60.8832H41.4816C41.3591 60.8832 41.2439 60.9355 41.1658 61.0301C41.0885 61.1225 41.0548 61.2472 41.077 61.3654C41.1658 61.8749 41.6384 64.4438 42.078 65.1267C42.1209 65.1962 42.1854 65.2492 42.2613 65.2821C42.2878 65.2936 42.925 65.5616 43.888 65.5616C44.4479 65.5616 45.0085 65.472 45.5548 65.295C45.6723 65.2578 45.7682 65.1661 45.8126 65.0507C45.8427 64.9697 46.5608 63.0673 46.6088 61.3067C46.6123 61.1942 46.5694 61.0867 46.4921 61.0071C46.4162 60.9276 46.3081 60.8832 46.1978 60.8832Z" fill="#010000"/>
<path d="M37.2733 65.6625C37.1574 65.6611 37.0492 65.5966 36.9397 65.4662C36.1335 64.4959 34.68 58.8072 35.4877 53.8357C35.4941 53.7955 35.5127 53.7583 35.5406 53.7282L36.9633 52.1912C37.0027 52.1482 37.0571 52.1245 37.1151 52.1245H37.1301C37.1924 52.1295 37.249 52.1625 37.2855 52.2141C38.8478 54.492 43.0951 60.5348 43.9543 61.1252C44.0287 61.1761 44.0617 61.2685 44.0352 61.3567C44.0087 61.4427 43.9292 61.5007 43.839 61.5007C43.8254 61.5007 42.5638 61.5072 41.8836 61.9321C41.6223 62.0962 40.9965 62.6766 40.3342 63.2914C38.7898 64.7245 37.7423 65.6632 37.2848 65.6632H37.2748L37.2733 65.6625Z" fill="#8ABEE6"/>
<path d="M37.116 52.3309C37.116 52.3309 42.7587 60.5534 43.8391 61.2944C43.8391 61.2944 42.5138 61.2944 41.7742 61.7551C41.036 62.2166 37.9451 65.4569 37.285 65.4569H37.28C36.6291 65.4425 34.8255 59.2099 35.6926 53.8679L37.1167 52.3309M37.1167 51.9189C37.0029 51.9189 36.8919 51.9655 36.8146 52.0493L35.3912 53.587C35.336 53.6465 35.3002 53.721 35.2866 53.802C34.4704 58.8272 35.9604 64.6056 36.7852 65.598C36.9306 65.7729 37.0938 65.866 37.2706 65.8689C37.7711 65.8689 38.5444 65.2326 40.474 63.4419C41.1019 62.86 41.7492 62.2581 41.994 62.1062C42.516 61.7795 43.5041 61.7064 43.8413 61.7064C44.0217 61.7064 44.1814 61.5889 44.2344 61.4155C44.2874 61.2435 44.2229 61.0572 44.074 60.9547C43.3272 60.4438 39.7079 55.3784 37.4561 52.098C37.3852 51.9934 37.2728 51.9289 37.1475 51.9196H37.1174L37.1167 51.9189Z" fill="#010000"/>
<path d="M50.8784 65.1072C50.3693 65.1072 48.792 64.013 46.9368 62.6888C46.4457 62.3384 46.0462 62.0539 45.8485 61.93C45.1676 61.505 43.9039 61.4986 43.8925 61.4986C43.8087 61.4986 43.7321 61.447 43.7013 61.3696C43.6698 61.2901 43.6898 61.2005 43.7507 61.1432C47.2068 57.8764 50.0328 51.9569 50.0621 51.8967C50.0908 51.8358 50.1481 51.7928 50.2147 51.7828C50.2261 51.7813 50.2376 51.7792 50.2476 51.7792C50.3034 51.7792 50.3578 51.8021 50.3965 51.8437L52.1886 53.7246C52.2166 53.7547 52.2366 53.792 52.243 53.8336C53.0607 58.876 51.918 64.0754 51.2156 64.9202C51.1132 65.0427 51.0044 65.1051 50.8884 65.1072H50.8784Z" fill="#8ABEE6"/>
<path d="M50.2478 51.9855L52.04 53.8672C52.907 59.2092 51.5345 64.8872 50.8836 64.903H50.8786C50.2149 64.903 46.6944 62.2166 45.9576 61.7551C45.218 61.2944 43.8927 61.2944 43.8927 61.2944C47.4161 57.9616 50.2478 51.987 50.2478 51.987M50.2478 51.5749C50.2264 51.5749 50.2049 51.5764 50.1834 51.5799C50.0495 51.6022 49.9335 51.6874 49.8762 51.81C49.8483 51.8694 47.0352 57.7546 43.6106 60.9956C43.4882 61.1109 43.4488 61.2893 43.5097 61.4463C43.5727 61.6039 43.7245 61.7057 43.8927 61.7057C44.2285 61.7057 45.218 61.7788 45.74 62.1055C45.9283 62.223 46.3414 62.5175 46.8168 62.8579C49.1531 64.5217 50.3552 65.3143 50.8786 65.3143C51.0698 65.3114 51.2323 65.2218 51.3727 65.0513C52.2032 64.0531 53.2278 58.6151 52.4459 53.8013C52.433 53.7189 52.3951 53.6429 52.3371 53.5835L50.5464 51.7018C50.4669 51.6194 50.3595 51.5742 50.2471 51.5742L50.2478 51.5749Z" fill="#010000"/>
<path d="M40.642 31.0063C40.642 31.0063 38.4618 28.9577 35.9766 31.1002C35.9766 31.1002 38.2262 33.0822 40.642 31.0063Z" fill="white" stroke="#010000" stroke-width="0.19028" stroke-linejoin="round"/>
<path d="M37.5361 30.999C37.5361 31.4584 37.9077 31.8317 38.3674 31.8317C38.8271 31.8317 39.1979 31.4584 39.1979 30.999C39.1979 30.5397 38.8263 30.1671 38.3674 30.1671C37.9084 30.1671 37.5361 30.539 37.5361 30.999Z" fill="#010000"/>
<path d="M35.8574 30.9015C35.8574 30.9015 37.734 28.5605 40.1791 29.9227" stroke="#010000" stroke-width="0.151301" stroke-linecap="round" stroke-linejoin="round"/>
<path d="M46.8398 31.0063C46.8398 31.0063 49.0208 28.9577 51.5045 31.1002C51.5045 31.1002 49.2549 33.0822 46.8398 31.0063Z" fill="white" stroke="#010000" stroke-width="0.19028" stroke-linejoin="round"/>
<path d="M49.944 30.9991C49.944 31.4584 49.5724 31.8317 49.1128 31.8317C48.6531 31.8317 48.2822 31.4584 48.2822 30.9991C48.2822 30.5398 48.6538 30.1672 49.1128 30.1672C49.5717 30.1672 49.944 30.5391 49.944 30.9991Z" fill="#010000"/>
<path d="M51.6235 30.9016C51.6235 30.9016 49.7469 28.5606 47.3018 29.9228" stroke="#010000" stroke-width="0.151301" stroke-linecap="round" stroke-linejoin="round"/>
<path d="M45.6514 29.729C45.6514 29.729 44.5882 33.2172 44.6469 36.2411" stroke="#010000" stroke-width="0.242595" stroke-linecap="round" stroke-linejoin="round"/>
<path d="M10.5417 92.5764L11.6945 87.7726C11.6945 87.7726 10.9677 84.2708 7.58469 85.514C4.06273 86.8088 2.74316 87.701 2.74316 87.701" fill="#26678A"/>
<path d="M10.5417 92.5764L11.6945 87.7726C11.6945 87.7726 10.9677 84.2708 7.58469 85.514C4.06273 86.8088 2.74316 87.701 2.74316 87.701" stroke="#010000" stroke-width="0.303115" stroke-linecap="round" stroke-linejoin="round"/>
<path d="M11.6943 91.0875C11.6943 91.0875 12.9631 85.3743 12.9631 83.2576L11.6943 91.0875Z" fill="#26678A"/>
<path d="M11.6943 91.0875C11.6943 91.0875 12.9631 85.3743 12.9631 83.2576" stroke="#010000" stroke-width="0.303115" stroke-linecap="round" stroke-linejoin="round"/>
<path d="M4.36426 85.3687C4.36426 85.3687 12.4335 81.8526 17.827 82.9052" stroke="#010000" stroke-width="0.303115" stroke-linecap="round" stroke-linejoin="round"/>
<path d="M7.21777 82.7087L18.8834 78.8135" stroke="#010000" stroke-width="0.303115" stroke-linecap="round" stroke-linejoin="round"/>
<path d="M31.9905 30.2014C31.9905 30.2014 32.8877 29.3831 33.1003 27.123C33.3137 24.8616 32.9865 21.2494 33.497 20.7564C33.497 20.7564 44.4724 24.4381 54.2299 23.4514C54.2299 23.4514 54.6946 30.3769 54.9996 31.0412C54.9996 31.0412 58.4091 24.0855 56.2783 16.116C54.1476 8.14422 37.1442 6.38148 32.0929 14.6341C32.0929 14.6341 28.1979 16.3954 31.9905 30.2014Z" fill="#010000" stroke="#010000" stroke-width="0.303115" stroke-linejoin="round"/>
<path opacity="0.5" d="M45.6504 29.9078C45.6504 29.9078 45.7084 29.5839 46.4781 28.9805C47.537 28.1536 54.0325 27.0609 54.0189 30.1729C54.0189 30.1729 53.9401 33.2491 53.1998 34.1089C52.6564 34.7424 48.4907 35.4081 47.101 34.1835C45.7113 32.9582 45.7499 30.5691 45.6504 29.9078Z" fill="#54B8E3"/>
<path d="M41.8213 28.7632C41.8213 28.7632 44.2399 29.3071 46.3872 28.7632L45.2659 31.0877C45.2659 31.0877 44.0401 29.168 42.596 31.2547L41.8213 28.7632Z" fill="#010000"/>
<path d="M41.8204 28.7631C40.8244 27.9827 35.5497 26.9975 33.8614 28.7452V28.7437C33.8614 28.7437 32.728 28.9673 32.4309 29.0411C32.4309 29.0411 32.1338 29.8028 32.4309 30.3252L33.4039 30.7307C33.5199 31.764 33.817 33.7776 34.4249 34.4841C35.0357 35.1963 39.5521 35.8706 41.113 34.4941C42.676 33.1183 42.6373 30.5494 42.7505 29.8057C42.7505 29.8057 42.686 29.4402 41.8204 28.7638V28.7631ZM40.7801 34.2698C39.3903 35.4951 35.2247 34.8295 34.6812 34.1953C33.9409 33.3354 33.8622 30.2607 33.8622 30.2607C33.8493 27.1487 40.344 28.24 41.403 29.0683C42.1741 29.6702 42.2306 29.9941 42.2306 29.9941C42.1311 30.6569 42.1698 33.0445 40.7808 34.2691L40.7801 34.2698Z" fill="#010000"/>
<path d="M55.4477 28.9946C55.1506 28.9201 54.015 28.6951 54.015 28.6951V28.6965C52.3267 26.9495 47.052 27.9362 46.056 28.7151C45.1904 29.3916 45.126 29.757 45.126 29.757C45.2384 30.5008 45.2004 33.0697 46.7627 34.4469C48.3236 35.8241 52.8401 35.1498 53.4515 34.4369C54.0594 33.731 54.3565 31.7175 54.4739 30.6821L55.447 30.2772C55.7441 29.7563 55.447 28.9946 55.447 28.9946H55.4477ZM53.1973 34.1474C52.6525 34.7808 48.4861 35.4472 47.0985 34.2233C45.7095 32.9987 45.7475 30.6097 45.6487 29.9483C45.6487 29.9483 45.7045 29.6223 46.4749 29.0211C47.5339 28.1927 54.0293 27.1014 54.0157 30.2127C54.0157 30.2127 53.9362 33.2896 53.1981 34.1474H53.1973Z" fill="#010000"/>
<path opacity="0.5" d="M40.7792 34.2696C39.3895 35.4949 35.2239 34.8292 34.6804 34.195C33.9401 33.3352 33.8613 30.2604 33.8613 30.2604C33.8485 27.1484 40.3432 28.2397 41.4022 29.068C42.1733 29.67 42.2298 29.9938 42.2298 29.9938C42.1303 30.6567 42.169 33.0442 40.78 34.2688L40.7792 34.2696Z" fill="#54B8E3"/>
<path d="M40.2159 40.9484C40.2159 40.9484 40.6813 41.081 41.403 41.1985C41.5799 41.24 41.7782 41.2529 41.9844 41.283C42.1928 41.3045 42.409 41.3475 42.6388 41.3575C43.0928 41.3726 43.5789 41.4321 44.0644 41.3984C44.3071 41.3948 44.5498 41.3934 44.7875 41.3905C45.0274 41.3955 45.2601 41.3489 45.4863 41.3325C45.9388 41.278 46.367 41.263 46.7185 41.1634C47.4352 41.0215 47.9128 40.9276 47.9128 40.9276L47.9271 40.924C48.0016 40.909 48.0725 40.957 48.0875 41.0315C48.1018 41.1024 48.0574 41.172 47.9866 41.1906C47.9866 41.1906 47.5061 41.311 46.7823 41.4944C46.4221 41.5997 45.9846 41.6234 45.5221 41.6857C45.2908 41.7072 45.051 41.7581 44.8068 41.7581C44.5605 41.7631 44.3128 41.7681 44.0636 41.7732C43.5639 41.7946 43.0691 41.7208 42.6045 41.6922C42.3718 41.6778 42.1505 41.6277 41.9386 41.5997C41.7274 41.5632 41.5262 41.5438 41.3443 41.4973C40.614 41.3454 40.1436 41.1684 40.1436 41.1684C40.0842 41.1469 40.0527 41.0809 40.0741 41.0215C40.0942 40.9634 40.1565 40.9341 40.2145 40.9484H40.2159Z" fill="#010000"/>
<path d="M51.0067 12.0237C51.0067 12.0237 55.6055 14.4916 55.526 21.3347C55.526 21.3347 54.3282 17.5964 53.2663 17.1736C52.2045 16.7509 53.8348 20.4189 53.2663 20.7708C52.6986 21.1233 51.2251 16.0443 50.5871 16.2557L50.9358 19.7124C50.9358 19.7124 49.2446 16.8906 48.6103 16.6792C47.9759 16.4678 50.0372 21.1233 49.1122 21.3347C48.1871 21.5461 46.7401 14.915 46.1952 14.986C45.6496 15.0569 46.8389 19.2187 46.8389 19.2187C46.8389 19.2187 43.5847 13.0126 43.5947 12.5891C43.6062 12.1656 46.8389 14.915 47.3014 14.986C47.764 15.0569 46.385 12.0237 46.385 12.0237C46.385 12.0237 50.6637 14.6334 51.5043 15.8322C52.3449 17.0325 49.8869 13.9993 50.5871 13.7872C51.2881 13.5758 52.6155 15.1279 52.6155 15.1279L51.0067 12.023V12.0237Z" fill="#2A5EAB"/>
<path d="M40.44 12.3066C40.44 12.3066 44.383 19.5711 44.1503 21.3396L41.7668 16.8231V19.5016C41.7668 19.5016 39.9381 16.6841 39.1999 16.6827C38.4618 16.6791 40.7708 20.5593 40.1816 20.7004C39.5902 20.8409 37.3434 16.8231 37.3434 16.8231C37.3434 16.8231 37.8188 19.2186 37.4357 19.359C37.0527 19.5016 34.7637 16.6819 34.7637 16.6819L36.1906 17.5468C36.1906 17.5468 35.2556 14.1396 35.9773 13.9282L38.0193 15.4803L37.4365 13.6452C37.4365 13.6452 39.9539 15.9733 40.4415 15.9733C40.9291 15.9733 39.6503 13.7161 39.6503 13.7161L40.6878 14.5624L40.4422 12.3059L40.44 12.3066Z" fill="#2A5EAB"/>
</g>
<path d="M45.0154 3.15541C68.1254 3.17381 86.8597 21.9231 86.8597 45.033C86.8597 68.143 68.1254 86.8624 45.0154 86.844C21.9054 86.8256 3.17111 68.0764 3.17111 44.9664C3.17111 21.8564 21.9054 3.13702 45.0154 3.15541Z" stroke="#3C002F" stroke-width="4.68401" stroke-linecap="round" stroke-linejoin="round"/>
</g>
<defs>
<clipPath id="clip0_1028_2453">
<rect width="90" height="90" fill="white"/>
</clipPath>
</defs>
</svg>
