<svg width="100" height="64" viewBox="0 0 100 64" fill="none" xmlns="http://www.w3.org/2000/svg">
<path d="M49.896 36.5C50.1387 36.5 50.316 36.556 50.428 36.668C50.512 36.752 50.5447 36.85 50.526 36.962C50.5167 37.0553 50.4933 37.13 50.456 37.186C50.428 37.2327 50.3953 37.27 50.358 37.298C50.3113 37.326 50.2553 37.3587 50.19 37.396C50.134 37.424 50.0687 37.4427 49.994 37.452C49.7513 37.4707 49.5553 37.4893 49.406 37.508C49.2567 37.5173 49.1307 37.5267 49.028 37.536C48.9253 37.536 48.8273 37.5407 48.734 37.55C48.65 37.55 48.552 37.5547 48.44 37.564C48.328 37.564 48.1927 37.5733 48.034 37.592C47.8753 37.6013 47.67 37.6153 47.418 37.634C47.3713 37.9327 47.3107 38.3247 47.236 38.81C47.1707 39.2953 47.096 39.8973 47.012 40.616C46.7507 42.6787 46.5827 44.4053 46.508 45.796C46.4987 45.9827 46.5033 46.2067 46.522 46.468C46.5407 46.72 46.5733 47.0093 46.62 47.336C46.6293 47.4013 46.6107 47.4573 46.564 47.504C46.5267 47.5413 46.48 47.56 46.424 47.56H46.396C46.2373 47.532 46.074 47.4713 45.906 47.378C45.8873 47.3687 45.8733 47.3593 45.864 47.35C45.864 47.35 45.8547 47.3453 45.836 47.336C45.5933 47.056 45.472 46.5893 45.472 45.936C45.472 44.928 45.556 43.5 45.724 41.652C45.892 39.832 45.976 38.6747 45.976 38.18C45.976 38.1053 45.9713 38.0353 45.962 37.97C45.962 37.8953 45.962 37.8253 45.962 37.76C45.7193 37.76 45.4673 37.7693 45.206 37.788C44.9447 37.7973 44.6833 37.8207 44.422 37.858C44.1607 37.8953 43.9133 37.9513 43.68 38.026C43.4467 38.0913 43.246 38.18 43.078 38.292C42.9847 38.3573 42.938 38.4087 42.938 38.446C42.938 38.4647 42.9473 38.4927 42.966 38.53C42.9847 38.5673 43.0547 38.6093 43.176 38.656C43.2787 38.7027 43.414 38.74 43.582 38.768C43.7593 38.796 43.9647 38.8007 44.198 38.782C44.31 38.7727 44.4547 38.754 44.632 38.726C44.8093 38.698 44.9773 38.6747 45.136 38.656C45.2947 38.6373 45.43 38.6327 45.542 38.642C45.6633 38.6513 45.724 38.6887 45.724 38.754C45.724 38.7913 45.7147 38.8287 45.696 38.866C45.584 39.0527 45.458 39.1973 45.318 39.3C45.1873 39.4027 45.0427 39.482 44.884 39.538C44.7813 39.5753 44.674 39.608 44.562 39.636C44.45 39.664 44.2587 39.6827 43.988 39.692C43.652 39.7013 43.3627 39.678 43.12 39.622C42.8867 39.5567 42.6907 39.468 42.532 39.356C42.3733 39.2253 42.2473 39.0667 42.154 38.88C42.0607 38.6933 42.0233 38.4647 42.042 38.194C42.042 38.1287 42.056 38.0447 42.084 37.942C42.112 37.83 42.1587 37.718 42.224 37.606C42.2987 37.494 42.4013 37.3913 42.532 37.298C42.6627 37.1953 42.8307 37.116 43.036 37.06C43.2507 37.004 43.5587 36.948 43.96 36.892C44.3613 36.836 44.828 36.7847 45.36 36.738C45.5373 36.7287 45.668 36.7193 45.752 36.71C45.8453 36.7007 45.9247 36.696 45.99 36.696C46.0553 36.6867 46.1207 36.682 46.186 36.682C46.2513 36.682 46.3447 36.682 46.466 36.682C46.5967 36.6727 46.774 36.6633 46.998 36.654C47.222 36.6447 47.5207 36.6307 47.894 36.612C48.3513 36.5933 48.678 36.5793 48.874 36.57C49.0793 36.5513 49.2287 36.5373 49.322 36.528C49.4153 36.5187 49.49 36.514 49.546 36.514C49.602 36.5047 49.7187 36.5 49.896 36.5ZM54.7574 42.156C54.9067 42.156 54.9814 42.2913 54.9814 42.562C54.9814 42.5807 54.9767 42.6087 54.9674 42.646C54.9674 42.6833 54.9487 42.772 54.9114 42.912C54.8834 43.052 54.8321 43.2573 54.7574 43.528C54.6921 43.7893 54.5941 44.1533 54.4634 44.62C54.2394 45.432 54.0947 45.9173 54.0294 46.076C53.8241 46.5893 53.5441 46.846 53.1894 46.846C52.5174 46.846 52.1254 46.2253 52.0134 44.984V44.97L51.9994 44.76V43.766C51.9154 44.0927 51.8127 44.508 51.6914 45.012C51.5701 45.516 51.4207 46.1553 51.2434 46.93L51.2294 47.014L51.1594 47.056C51.0567 47.1213 50.9494 47.154 50.8374 47.154C50.5667 47.154 50.3661 46.944 50.2354 46.524C50.1047 46.0947 50.0394 45.4227 50.0394 44.508C50.0394 44.2653 50.0674 43.85 50.1234 43.262C50.1794 42.6647 50.2681 41.876 50.3894 40.896C50.5014 39.9347 50.5854 39.146 50.6414 38.53C50.7067 37.9047 50.7394 37.4567 50.7394 37.186V36.724L50.7534 36.682C50.7907 36.6073 50.8561 36.5327 50.9494 36.458C51.0427 36.3833 51.1827 36.346 51.3694 36.346H51.4114C51.7381 36.3647 51.9014 36.5187 51.9014 36.808C51.9014 36.9853 51.8687 37.1767 51.8034 37.382C51.7194 37.6247 51.6634 37.8487 51.6354 38.054C51.4021 39.5007 51.2247 40.7607 51.1034 41.834C50.9914 42.9073 50.9354 43.8033 50.9354 44.522C50.9447 44.5407 50.9494 44.564 50.9494 44.592C50.9494 44.62 50.9494 44.6573 50.9494 44.704C50.9587 44.7413 50.9681 44.788 50.9774 44.844V44.872C51.0241 44.6853 51.0754 44.48 51.1314 44.256C51.1967 44.032 51.2667 43.7847 51.3414 43.514C51.5001 42.8793 51.6261 42.38 51.7194 42.016C51.8127 41.6427 51.8687 41.4 51.8874 41.288C51.9341 41.0547 52.0041 40.9053 52.0974 40.84C52.2001 40.7653 52.2981 40.728 52.3914 40.728C52.4567 40.728 52.5407 40.7513 52.6434 40.798C52.7554 40.8447 52.9281 40.9707 53.1614 41.176L53.2454 41.246L53.2314 41.358C52.9607 42.7953 52.8254 43.9713 52.8254 44.886C52.8254 45.194 52.8487 45.4413 52.8954 45.628C52.9514 45.8053 53.0214 45.894 53.1054 45.894C53.1147 45.894 53.1474 45.8707 53.2034 45.824C53.2594 45.768 53.3341 45.642 53.4274 45.446C53.5021 45.2873 53.5907 45.0913 53.6934 44.858C53.7961 44.6153 53.8894 44.3353 53.9734 44.018C54.0201 43.85 54.0807 43.654 54.1554 43.43C54.2301 43.1967 54.3047 42.9353 54.3794 42.646C54.3981 42.5713 54.4307 42.4733 54.4774 42.352C54.5334 42.2213 54.6267 42.156 54.7574 42.156ZM58.452 42.03C58.676 42.03 58.788 42.142 58.788 42.366C58.788 42.6087 58.7553 42.87 58.69 43.15C58.6246 43.4207 58.522 43.71 58.382 44.018C58.1113 44.6247 57.7473 44.928 57.29 44.928C57.262 44.928 57.2246 44.9233 57.178 44.914C57.1313 44.8953 57.0426 44.8627 56.912 44.816C56.8933 44.9093 56.87 45.0073 56.842 45.11C56.8233 45.2033 56.8 45.306 56.772 45.418V45.446C56.688 45.6887 56.6133 45.8893 56.548 46.048C56.4826 46.2067 56.422 46.3327 56.366 46.426C56.1233 46.818 55.82 47.014 55.456 47.014C55.008 47.014 54.6766 46.79 54.462 46.342C54.266 45.9407 54.168 45.348 54.168 44.564C54.168 43.6307 54.2426 42.982 54.392 42.618V42.534C54.3826 42.478 54.378 42.4313 54.378 42.394C54.378 42.3473 54.378 42.3053 54.378 42.268V42.254C54.3966 42.114 54.434 42.016 54.49 41.96C54.4993 41.9227 54.5133 41.862 54.532 41.778C54.5506 41.694 54.5833 41.5587 54.63 41.372C54.658 41.232 54.7 41.12 54.756 41.036C54.8213 40.952 54.8866 40.8867 54.952 40.84C55.0173 40.7933 55.0826 40.7653 55.148 40.756C55.2133 40.7373 55.274 40.728 55.33 40.728C55.6193 40.728 55.9273 40.8493 56.254 41.092C56.5806 41.3253 56.7953 41.5867 56.898 41.876C56.9073 41.9133 56.9166 41.9693 56.926 42.044C56.9446 42.1187 56.9586 42.2353 56.968 42.394C56.9773 42.5433 56.9866 42.7487 56.996 43.01C57.0053 43.2713 57.01 43.6027 57.01 44.004C57.0566 44.0413 57.1126 44.06 57.178 44.06C57.262 44.06 57.3553 44.0367 57.458 43.99C57.57 43.9433 57.6773 43.8127 57.78 43.598C57.7986 43.542 57.8313 43.4347 57.878 43.276C57.934 43.108 58.004 42.8327 58.088 42.45C58.144 42.17 58.2653 42.03 58.452 42.03ZM55.792 45.67C55.932 45.362 56.0206 45.124 56.058 44.956C56.1046 44.7787 56.128 44.6527 56.128 44.578C56.128 44.4473 56.1186 44.2933 56.1 44.116C56.0813 43.9387 56.0533 43.7427 56.016 43.528C55.96 43.2293 55.9226 43.024 55.904 42.912C55.8946 42.8 55.89 42.7207 55.89 42.674C55.89 42.6273 55.89 42.576 55.89 42.52C55.89 42.464 55.8993 42.3987 55.918 42.324C55.9273 42.2493 55.932 42.1887 55.932 42.142C55.932 42.086 55.932 42.044 55.932 42.016C55.932 41.8853 55.9086 41.8013 55.862 41.764C55.8153 41.7173 55.7546 41.694 55.68 41.694C55.6706 41.7033 55.652 41.7267 55.624 41.764C55.6053 41.8013 55.5773 41.8667 55.54 41.96C55.512 42.044 55.4746 42.1653 55.428 42.324C55.3906 42.4827 55.3486 42.688 55.302 42.94C55.2273 43.332 55.1713 43.6773 55.134 43.976C55.0966 44.2653 55.078 44.5173 55.078 44.732C55.078 44.8627 55.0826 45.0073 55.092 45.166C55.1013 45.3247 55.12 45.4787 55.148 45.628C55.1853 45.768 55.232 45.8893 55.288 45.992C55.344 46.0853 55.4186 46.1367 55.512 46.146C55.5306 46.1273 55.5586 46.09 55.596 46.034C55.6426 45.9687 55.708 45.8473 55.792 45.67ZM64.5517 41.932C64.6264 41.932 64.6964 41.96 64.7617 42.016C64.827 42.072 64.8597 42.17 64.8597 42.31C64.8597 42.338 64.855 42.38 64.8457 42.436C64.8457 42.492 64.8364 42.5713 64.8177 42.674C64.799 42.7767 64.771 42.9073 64.7337 43.066C64.6964 43.2247 64.645 43.4207 64.5797 43.654C64.477 43.9993 64.3744 44.3307 64.2717 44.648C64.169 44.9653 64.0617 45.2687 63.9497 45.558C63.6324 46.4167 63.2497 46.846 62.8017 46.846C62.279 46.846 61.9617 46.3607 61.8497 45.39C61.8404 45.39 61.8357 45.3853 61.8357 45.376V45.04C61.7704 45.2453 61.7144 45.418 61.6677 45.558C61.6304 45.6887 61.5977 45.7867 61.5697 45.852C61.3177 46.5147 61.019 46.846 60.6737 46.846C60.5897 46.846 60.5057 46.832 60.4217 46.804C60.3377 46.776 60.2584 46.72 60.1837 46.636C60.1184 46.552 60.0624 46.44 60.0157 46.3C59.969 46.1507 59.9457 45.964 59.9457 45.74C59.9457 45.6187 59.9737 45.222 60.0297 44.55C60.0484 44.3633 60.0577 44.186 60.0577 44.018C60.067 43.85 60.0764 43.6913 60.0857 43.542C60.0577 43.626 60.0297 43.7473 60.0017 43.906C59.7964 44.9327 59.6517 45.586 59.5677 45.866C59.3157 46.6593 58.9937 47.056 58.6017 47.056C58.4524 47.056 58.3357 47.0047 58.2517 46.902C58.1677 46.79 58.1024 46.6547 58.0557 46.496C58.009 46.328 57.9764 46.146 57.9577 45.95C57.9484 45.754 57.9437 45.5627 57.9437 45.376C57.9437 45.2733 57.9437 45.1427 57.9437 44.984C57.953 44.816 57.9624 44.6153 57.9717 44.382C57.981 44.186 57.9857 44.0227 57.9857 43.892C57.9857 43.752 57.9857 43.6353 57.9857 43.542L57.8737 43.234C57.8644 43.2247 57.8597 43.206 57.8597 43.178C57.8224 42.6273 57.8877 42.2587 58.0557 42.072C58.149 41.9787 58.261 41.932 58.3917 41.932C58.4477 41.932 58.5084 41.9413 58.5737 41.96C58.6484 41.9787 58.7137 42.016 58.7697 42.072C58.8257 42.128 58.8724 42.2073 58.9097 42.31C58.9564 42.4127 58.9797 42.548 58.9797 42.716C58.9797 43.108 58.9424 43.4767 58.8677 43.822C58.8024 44.1113 58.7697 44.4707 58.7697 44.9C58.7697 45.0027 58.7697 45.1053 58.7697 45.208C58.7697 45.3013 58.7744 45.3947 58.7837 45.488C58.8024 45.4227 58.821 45.362 58.8397 45.306C58.8584 45.2407 58.877 45.1753 58.8957 45.11C59.0077 44.494 59.1104 43.9853 59.2037 43.584C59.297 43.1733 59.3904 42.8513 59.4837 42.618C59.5024 42.5713 59.5304 42.506 59.5677 42.422C59.605 42.3287 59.6517 42.24 59.7077 42.156C59.773 42.0627 59.8477 41.9833 59.9317 41.918C60.025 41.8527 60.1324 41.82 60.2537 41.82C60.3284 41.82 60.4124 41.8433 60.5057 41.89C60.6084 41.9367 60.697 42.0393 60.7717 42.198C60.865 42.3847 60.9117 42.6647 60.9117 43.038V43.052C60.865 43.4813 60.8277 43.8687 60.7997 44.214C60.7717 44.55 60.7577 44.844 60.7577 45.096C60.7577 45.1987 60.7577 45.2827 60.7577 45.348C60.767 45.404 60.7717 45.4553 60.7717 45.502C60.8277 45.4273 60.8977 45.2733 60.9817 45.04C61.075 44.8067 61.187 44.4427 61.3177 43.948C61.4204 43.5653 61.4997 43.2573 61.5557 43.024C61.6117 42.7813 61.6537 42.59 61.6817 42.45C61.7097 42.31 61.7237 42.2167 61.7237 42.17C61.7237 42.114 61.7237 42.0767 61.7237 42.058V41.988C61.7424 41.9227 61.7844 41.8527 61.8497 41.778C61.915 41.694 62.0457 41.652 62.2417 41.652C62.4097 41.652 62.6384 41.7453 62.9277 41.932C63.0117 41.988 63.0397 42.058 63.0117 42.142C62.769 43.3087 62.6477 44.27 62.6477 45.026C62.6477 45.2407 62.6524 45.4133 62.6617 45.544C62.6804 45.6653 62.699 45.7587 62.7177 45.824C62.7457 45.8987 62.7737 45.95 62.8017 45.978C62.811 45.978 62.8297 45.9687 62.8577 45.95C62.895 45.9313 62.9417 45.8847 62.9977 45.81C63.063 45.726 63.1377 45.6 63.2217 45.432C63.3057 45.2547 63.399 45.012 63.5017 44.704V44.69C63.511 44.6807 63.525 44.648 63.5437 44.592C63.5624 44.5267 63.5904 44.4193 63.6277 44.27C63.6744 44.1207 63.7304 43.9153 63.7957 43.654C63.8704 43.3927 63.9637 43.0567 64.0757 42.646C64.0944 42.5993 64.1084 42.548 64.1177 42.492C64.1364 42.436 64.155 42.38 64.1737 42.324L64.2017 42.198V42.184C64.267 42.016 64.3837 41.932 64.5517 41.932ZM65.2317 41.988C65.2317 42.1747 65.2597 42.408 65.3157 42.688C65.381 42.968 65.4744 43.304 65.5957 43.696C65.7264 44.1067 65.8197 44.4567 65.8757 44.746C65.9317 45.026 65.9597 45.2547 65.9597 45.432C65.9597 45.9173 65.857 46.3093 65.6517 46.608C65.4184 46.9533 65.1337 47.126 64.7977 47.126C64.443 47.126 64.1257 46.972 63.8457 46.664C63.6497 46.4587 63.5517 46.2533 63.5517 46.048C63.5517 45.7587 63.645 45.5907 63.8317 45.544C63.841 45.544 63.8504 45.544 63.8597 45.544C63.8597 45.5347 63.8644 45.53 63.8737 45.53C63.9204 45.53 63.981 45.5533 64.0557 45.6C64.1304 45.6373 64.1724 45.7493 64.1817 45.936C64.3124 46.2067 64.4337 46.342 64.5457 46.342C64.5924 46.342 64.6437 46.3327 64.6997 46.314C64.765 46.286 64.8257 46.2207 64.8817 46.118C64.9844 45.9313 65.0357 45.684 65.0357 45.376C65.0357 45.012 64.9424 44.508 64.7557 43.864V43.85C64.737 43.8033 64.7184 43.752 64.6997 43.696C64.6904 43.6307 64.6764 43.57 64.6577 43.514C64.6204 43.626 64.5877 43.7427 64.5597 43.864C64.5317 43.976 64.499 44.088 64.4617 44.2V44.214C64.443 44.2513 64.4197 44.3073 64.3917 44.382C64.3637 44.4567 64.3264 44.5313 64.2797 44.606C64.233 44.6713 64.177 44.732 64.1117 44.788C64.0464 44.8347 63.967 44.858 63.8737 44.858C63.799 44.858 63.729 44.8393 63.6637 44.802C63.561 44.7553 63.5284 44.6807 63.5657 44.578C63.631 44.3167 63.6964 44.0553 63.7617 43.794C63.827 43.5327 63.8924 43.276 63.9577 43.024C64.0324 42.772 64.0837 42.506 64.1117 42.226C64.1397 41.9367 64.1537 41.6333 64.1537 41.316C64.1537 41.1293 64.205 40.9847 64.3077 40.882C64.4104 40.77 64.555 40.714 64.7417 40.714C64.8817 40.714 64.9937 40.7327 65.0777 40.77C65.171 40.8073 65.2364 40.854 65.2737 40.91C65.3204 40.9567 65.3484 41.008 65.3577 41.064C65.3764 41.1107 65.3857 41.1527 65.3857 41.19C65.3857 41.2087 65.381 41.2413 65.3717 41.288C65.3624 41.3347 65.339 41.428 65.3017 41.568C65.255 41.7547 65.2317 41.8947 65.2317 41.988ZM70.8797 42.03C71.1037 42.03 71.2157 42.142 71.2157 42.366C71.2157 42.6087 71.183 42.87 71.1177 43.15C71.0524 43.4207 70.9497 43.71 70.8097 44.018C70.539 44.6247 70.175 44.928 69.7177 44.928C69.6897 44.928 69.6524 44.9233 69.6057 44.914C69.559 44.8953 69.4704 44.8627 69.3397 44.816C69.321 44.9093 69.2977 45.0073 69.2697 45.11C69.251 45.2033 69.2277 45.306 69.1997 45.418V45.446C69.1157 45.6887 69.041 45.8893 68.9757 46.048C68.9104 46.2067 68.8497 46.3327 68.7937 46.426C68.551 46.818 68.2477 47.014 67.8837 47.014C67.4357 47.014 67.1044 46.79 66.8897 46.342C66.6937 45.9407 66.5957 45.348 66.5957 44.564C66.5957 43.6307 66.6704 42.982 66.8197 42.618V42.534C66.8104 42.478 66.8057 42.4313 66.8057 42.394C66.8057 42.3473 66.8057 42.3053 66.8057 42.268V42.254C66.8244 42.114 66.8617 42.016 66.9177 41.96C66.927 41.9227 66.941 41.862 66.9597 41.778C66.9784 41.694 67.011 41.5587 67.0577 41.372C67.0857 41.232 67.1277 41.12 67.1837 41.036C67.249 40.952 67.3144 40.8867 67.3797 40.84C67.445 40.7933 67.5104 40.7653 67.5757 40.756C67.641 40.7373 67.7017 40.728 67.7577 40.728C68.047 40.728 68.355 40.8493 68.6817 41.092C69.0084 41.3253 69.223 41.5867 69.3257 41.876C69.335 41.9133 69.3444 41.9693 69.3537 42.044C69.3724 42.1187 69.3864 42.2353 69.3957 42.394C69.405 42.5433 69.4144 42.7487 69.4237 43.01C69.433 43.2713 69.4377 43.6027 69.4377 44.004C69.4844 44.0413 69.5404 44.06 69.6057 44.06C69.6897 44.06 69.783 44.0367 69.8857 43.99C69.9977 43.9433 70.105 43.8127 70.2077 43.598C70.2264 43.542 70.259 43.4347 70.3057 43.276C70.3617 43.108 70.4317 42.8327 70.5157 42.45C70.5717 42.17 70.693 42.03 70.8797 42.03ZM68.2197 45.67C68.3597 45.362 68.4484 45.124 68.4857 44.956C68.5324 44.7787 68.5557 44.6527 68.5557 44.578C68.5557 44.4473 68.5464 44.2933 68.5277 44.116C68.509 43.9387 68.481 43.7427 68.4437 43.528C68.3877 43.2293 68.3504 43.024 68.3317 42.912C68.3224 42.8 68.3177 42.7207 68.3177 42.674C68.3177 42.6273 68.3177 42.576 68.3177 42.52C68.3177 42.464 68.327 42.3987 68.3457 42.324C68.355 42.2493 68.3597 42.1887 68.3597 42.142C68.3597 42.086 68.3597 42.044 68.3597 42.016C68.3597 41.8853 68.3364 41.8013 68.2897 41.764C68.243 41.7173 68.1824 41.694 68.1077 41.694C68.0984 41.7033 68.0797 41.7267 68.0517 41.764C68.033 41.8013 68.005 41.8667 67.9677 41.96C67.9397 42.044 67.9024 42.1653 67.8557 42.324C67.8184 42.4827 67.7764 42.688 67.7297 42.94C67.655 43.332 67.599 43.6773 67.5617 43.976C67.5244 44.2653 67.5057 44.5173 67.5057 44.732C67.5057 44.8627 67.5104 45.0073 67.5197 45.166C67.529 45.3247 67.5477 45.4787 67.5757 45.628C67.613 45.768 67.6597 45.8893 67.7157 45.992C67.7717 46.0853 67.8464 46.1367 67.9397 46.146C67.9584 46.1273 67.9864 46.09 68.0237 46.034C68.0704 45.9687 68.1357 45.8473 68.2197 45.67ZM72.3093 37.158C72.2253 37.4847 72.118 37.8393 71.9873 38.222C71.8567 38.6047 71.712 38.9873 71.5533 39.37C71.404 39.7433 71.2547 40.098 71.1053 40.434H70.1953C70.2607 40.1727 70.326 39.8927 70.3913 39.594C70.466 39.2953 70.5313 38.9967 70.5873 38.698C70.6527 38.39 70.7087 38.0913 70.7553 37.802C70.8113 37.5127 70.858 37.2467 70.8953 37.004H72.2113L72.3093 37.158ZM80.0906 46.342C80.1746 46.3607 80.2726 46.3933 80.3846 46.44C80.4966 46.4773 80.5526 46.5613 80.5526 46.692C80.5526 46.8693 80.5106 47.0233 80.4266 47.154C80.3893 47.2007 80.3333 47.2427 80.2586 47.28C80.1933 47.3173 80.1093 47.336 80.0066 47.336C79.9786 47.3267 79.9459 47.3173 79.9086 47.308C79.8713 47.308 79.8013 47.3033 79.6986 47.294C79.5679 47.2753 79.3579 47.2613 79.0686 47.252C78.7886 47.2427 78.4246 47.238 77.9766 47.238C77.2859 47.238 76.6046 47.322 75.9326 47.49C75.2513 47.6673 74.7893 47.756 74.5466 47.756C74.2106 47.756 73.9633 47.6813 73.8046 47.532C73.6179 47.364 73.5246 47.1353 73.5246 46.846C73.5246 46.7433 73.5666 46.6453 73.6506 46.552C73.7346 46.4493 73.8839 46.3327 74.0986 46.202C74.3133 46.0807 74.4719 45.9827 74.5746 45.908C74.6773 45.8333 74.7473 45.7727 74.7846 45.726C75.2699 45.1473 75.7319 44.55 76.1706 43.934C76.6093 43.318 76.9779 42.66 77.2766 41.96C77.5753 41.26 77.8039 40.616 77.9626 40.028C78.1306 39.4307 78.2146 38.866 78.2146 38.334C78.2146 38.1567 78.1679 37.9793 78.0746 37.802C77.9906 37.6153 77.8739 37.4567 77.7246 37.326C77.5753 37.186 77.4073 37.0787 77.2206 37.004C77.0433 36.9293 76.8566 36.906 76.6606 36.934C76.3899 36.962 76.1473 37.046 75.9326 37.186C75.7273 37.3167 75.5499 37.4707 75.4006 37.648C75.2606 37.8253 75.1439 38.012 75.0506 38.208C74.9666 38.3947 74.9199 38.558 74.9106 38.698C74.8919 38.894 74.8826 39.0713 74.8826 39.23C74.8826 39.3793 74.8919 39.524 74.9106 39.664C74.9293 39.7947 74.9526 39.93 74.9806 40.07C75.0086 40.21 75.0459 40.364 75.0926 40.532C75.1206 40.672 75.1486 40.8167 75.1766 40.966C75.2046 41.1153 75.2186 41.2507 75.2186 41.372C75.2186 41.484 75.1953 41.5773 75.1486 41.652C75.1019 41.7267 75.0179 41.764 74.8966 41.764C74.7099 41.764 74.5279 41.652 74.3506 41.428C74.1826 41.204 74.0426 40.9053 73.9306 40.532C73.8279 40.1493 73.7673 39.7107 73.7486 39.216C73.7393 38.712 73.8093 38.18 73.9586 37.62C74.0053 37.4707 74.0846 37.3027 74.1966 37.116C74.3179 36.92 74.4766 36.738 74.6726 36.57C74.8686 36.3927 75.1066 36.2433 75.3866 36.122C75.6666 35.9913 75.9886 35.9167 76.3526 35.898C76.7353 35.8793 77.1179 35.9307 77.5006 36.052C77.8926 36.164 78.2426 36.3413 78.5506 36.584C78.8586 36.8173 79.1106 37.1113 79.3066 37.466C79.5026 37.8207 79.6006 38.2313 79.6006 38.698C79.6006 38.9407 79.5726 39.202 79.5166 39.482C79.4699 39.762 79.3953 40.0513 79.2926 40.35C79.0966 40.9753 78.8026 41.6567 78.4106 42.394C78.0653 43.0473 77.6779 43.6867 77.2486 44.312C76.8286 44.9373 76.3666 45.544 75.8626 46.132C76.1986 46.1133 76.5299 46.104 76.8566 46.104C77.1833 46.104 77.5006 46.104 77.8086 46.104C77.9766 46.104 78.1773 46.1133 78.4106 46.132C78.6533 46.1507 78.9379 46.1787 79.2646 46.216C79.4513 46.244 79.6099 46.2673 79.7406 46.286C79.8713 46.3047 79.9879 46.3233 80.0906 46.342ZM86.5725 43.458C86.5725 43.5327 86.5538 43.6213 86.5165 43.724C86.4792 43.8173 86.3812 43.9013 86.2225 43.976C86.1385 44.0227 86.0358 44.0413 85.9145 44.032C85.7932 44.0227 85.6532 44.018 85.4945 44.018H85.3265H85.2005H85.0465C85.0278 44.1767 85.0092 44.3587 84.9905 44.564C84.9812 44.76 84.9718 44.956 84.9625 45.152C84.9532 45.348 84.9438 45.5533 84.9345 45.768C84.9252 45.9827 84.9205 46.1273 84.9205 46.202C84.9205 46.3047 84.9298 46.4167 84.9485 46.538C84.9765 46.6593 85.0232 46.7993 85.0885 46.958C85.1632 47.1353 85.2098 47.2473 85.2285 47.294C85.2565 47.35 85.2705 47.3827 85.2705 47.392C85.2705 47.4013 85.2752 47.4153 85.2845 47.434C85.2938 47.4527 85.2985 47.4667 85.2985 47.476C85.2985 47.4853 85.3032 47.4993 85.3125 47.518C85.3125 47.5647 85.2938 47.6207 85.2565 47.686C85.2285 47.7513 85.1492 47.8073 85.0185 47.854C84.9718 47.8633 84.9158 47.868 84.8505 47.868C84.7852 47.8773 84.7105 47.882 84.6265 47.882C84.5145 47.882 84.3932 47.854 84.2625 47.798C84.1412 47.742 84.0338 47.616 83.9405 47.42C83.8192 47.1773 83.7585 46.8133 83.7585 46.328C83.7585 46.2627 83.7632 46.118 83.7725 45.894C83.7818 45.67 83.7958 45.362 83.8145 44.97C83.8425 44.5687 83.8425 44.256 83.8145 44.032H83.7585C83.3572 44.032 82.8858 44.088 82.3445 44.2C81.8778 44.312 81.4858 44.4007 81.1685 44.466C80.8605 44.5313 80.6365 44.536 80.4965 44.48L80.4265 44.452C80.2678 44.3493 80.1372 44.2327 80.0345 44.102C79.9412 43.9713 79.8525 43.8407 79.7685 43.71C79.6472 43.514 79.5865 43.3413 79.5865 43.192C79.5865 43.1547 79.5912 43.1127 79.6005 43.066C79.6192 43.01 79.6518 42.9353 79.6985 42.842C79.7452 42.7487 79.8105 42.6273 79.8945 42.478C79.9785 42.3287 80.0952 42.142 80.2445 41.918C80.5152 41.498 80.7532 41.12 80.9585 40.784C81.1638 40.448 81.3365 40.14 81.4765 39.86C81.6818 39.468 81.9198 39.048 82.1905 38.6C82.4612 38.1427 82.7692 37.662 83.1145 37.158C83.2172 36.9993 83.3198 36.8407 83.4225 36.682C83.5252 36.5233 83.6278 36.3647 83.7305 36.206H83.7445C83.9778 35.8607 84.2205 35.6787 84.4725 35.66H84.4865H84.5145C84.7758 35.688 85.0792 35.8373 85.4245 36.108C85.7698 36.3973 85.9425 36.654 85.9425 36.878C85.9425 36.9247 85.9332 36.9993 85.9145 37.102C85.8958 37.1953 85.8538 37.3493 85.7885 37.564C85.7418 37.732 85.7045 37.8767 85.6765 37.998C85.6578 38.1193 85.6392 38.222 85.6205 38.306C85.4618 39.5287 85.3358 40.5227 85.2425 41.288C85.1585 42.0533 85.1072 42.59 85.0885 42.898C85.2192 42.9167 85.2985 42.9307 85.3265 42.94C85.3545 42.94 85.4338 42.94 85.5645 42.94C85.6485 42.94 85.7045 42.94 85.7325 42.94C85.7698 42.94 85.7978 42.94 85.8165 42.94C85.8445 42.94 85.8725 42.9447 85.9005 42.954C85.9378 42.954 85.9985 42.954 86.0825 42.954H86.0965C86.2552 42.9727 86.3718 43.0287 86.4465 43.122C86.5305 43.2153 86.5725 43.3273 86.5725 43.458ZM84.1365 40.056C84.1552 39.8133 84.1832 39.566 84.2205 39.314C84.2672 39.0527 84.3092 38.8053 84.3465 38.572C84.3838 38.3293 84.4118 38.1053 84.4305 37.9C84.4585 37.6853 84.4725 37.508 84.4725 37.368C84.4445 37.4053 84.3932 37.466 84.3185 37.55C84.2532 37.6247 84.1785 37.7133 84.0945 37.816C84.0198 37.9093 83.9405 38.012 83.8565 38.124C83.7725 38.2267 83.7025 38.3247 83.6465 38.418V38.432C83.3385 38.908 83.0958 39.272 82.9185 39.524C82.7505 39.776 82.6432 39.93 82.5965 39.986C82.4285 40.2193 82.2558 40.4947 82.0785 40.812C81.9012 41.1293 81.7238 41.484 81.5465 41.876C81.3598 42.2867 81.2198 42.5947 81.1265 42.8C81.0425 42.996 80.9958 43.122 80.9865 43.178C81.0052 43.1873 81.0285 43.1967 81.0565 43.206C81.0938 43.206 81.1452 43.206 81.2105 43.206C81.3412 43.206 81.5698 43.192 81.8965 43.164C82.0645 43.136 82.2185 43.108 82.3585 43.08C82.5078 43.0427 82.6152 43.024 82.6805 43.024C82.9885 43.024 83.2825 43.01 83.5625 42.982C83.6372 42.9727 83.6978 42.968 83.7445 42.968C83.7912 42.9587 83.8378 42.954 83.8845 42.954C83.9032 42.6367 83.9358 42.2447 83.9825 41.778C84.0385 41.3113 84.0898 40.7373 84.1365 40.056Z" fill="#545454"/>
<path fill-rule="evenodd" clip-rule="evenodd" d="M29.1382 14.5049C28.652 14.1617 28.0957 13.9687 27.5291 13.8231C25.428 13.2811 23.2901 12.9112 21.1672 12.4663C20.4166 12.3091 20.4258 12.3253 20.4431 11.5556C20.4592 10.8692 20.5017 10.1711 20.2798 9.50777C19.5741 7.38941 18.6684 5.36119 17.5351 3.43699C17.1455 2.77594 16.6029 2.33678 15.8432 2.20388C15.5685 2.1565 15.288 2.14841 15.011 2.12183C14.1547 2.04208 13.2824 2.10218 12.4513 1.81788C11.6859 1.43998 10.9008 1.11292 10.0698 0.911831C9.97556 0.864448 9.88016 0.815909 9.78591 0.768526C9.38592 0.572061 8.99628 0.360572 8.71353 0H8.44227C8.13654 0.240381 7.8308 0.479607 7.52506 0.719988C7.12047 0.876005 6.82508 1.12101 6.80094 1.59715C6.7975 1.65724 6.76991 1.71965 6.74118 1.77628C6.36992 2.49511 6.10671 3.27519 5.53891 3.88308C5.46765 3.96051 5.41593 4.06337 5.38145 4.16391C5.33432 4.29797 5.33432 4.44936 5.46995 4.52911C5.71247 4.67241 5.7573 4.91279 5.79293 5.15202C5.84465 5.50219 5.89637 5.82462 6.20786 6.07425C6.43199 6.25222 6.37797 6.47642 6.14004 6.66018C6.00557 6.76534 5.86304 6.86127 5.73201 6.97221C5.35616 7.29118 4.91709 7.52925 4.57113 7.88635C4.50101 7.87826 4.45274 7.91756 4.40332 7.958C3.72977 8.52082 3.10795 9.13911 2.60337 9.85794C2.07235 10.6126 1.45398 11.269 0.670095 11.7579C0.460906 11.8885 0.273555 12.0792 0 12.0803V12.2444C0.11264 12.2063 0.225281 12.1762 0.344817 12.1889C0.436768 12.1982 0.5655 12.1392 0.604579 12.2675C0.643659 12.3993 0.494238 12.4016 0.431021 12.4652C0.350564 12.5449 0.129881 12.5276 0.196546 12.6963C0.262061 12.8639 0.45171 12.7703 0.587339 12.7737C0.635613 12.7749 0.688485 12.7379 0.733311 12.709C0.981579 12.5449 1.22295 12.3739 1.44823 12.1774C1.87695 11.8041 2.30798 11.4262 2.87922 11.284C3.21829 11.1985 3.34358 11.3129 3.27231 11.6516C3.21714 11.9208 3.28726 12.1543 3.42748 12.3727C3.4907 12.4709 3.57346 12.5981 3.69069 12.5807C3.80333 12.5645 3.80218 12.4085 3.82402 12.3103C3.97689 11.6331 4.13551 10.9547 4.25734 10.2705C4.31826 9.93075 4.45619 9.67881 4.75848 9.51933C5.30329 9.2697 5.85615 9.03741 6.39061 8.76698C6.82278 8.54971 7.26415 8.34284 7.6377 8.02388C8.0055 7.81932 8.01585 7.82048 8.33423 8.12095C8.4848 8.2631 8.63767 8.4041 8.78709 8.54856C8.87215 8.63177 8.94801 8.68955 8.98134 8.51273C9.02157 8.28737 9.11812 8.37752 9.20777 8.47344C9.41121 8.69417 9.41581 8.94727 9.20892 9.27085C8.7664 9.95964 8.38595 10.6866 8.21929 11.4874C8.09861 12.0688 7.62965 12.5957 7.94229 13.2649C8.02504 13.4394 8.12619 13.4995 8.26642 13.5318C8.44572 13.5734 8.42733 13.3966 8.45722 13.3007C8.50204 13.1643 8.52158 13.0199 8.54917 12.8777C8.59859 12.6304 8.63422 12.3773 8.76295 12.1531C9.00777 11.7232 9.16754 11.7163 9.41121 12.1265C9.4204 12.1416 9.42615 12.1601 9.4365 12.1739C9.49052 12.2386 9.49971 12.3762 9.61235 12.345C9.7158 12.3161 9.69166 12.1959 9.69051 12.108C9.68591 11.6643 9.65488 11.2228 9.58707 10.7836C9.53304 10.4335 9.55029 10.111 9.90775 9.9111C9.98476 9.86719 10.0445 9.79438 10.0687 9.70077C10.2491 9.63489 10.5192 9.81518 10.5813 9.55631C10.8525 9.80362 11.1364 10.0648 11.4249 10.3237C11.4675 10.3618 11.5376 10.4612 11.5606 10.4184C11.7491 10.0868 11.8088 10.4739 11.9491 10.4728C12.0008 10.1157 12.218 10.3872 12.3778 10.3826C12.433 10.0706 12.3019 9.76664 12.3582 9.41416C12.6031 9.8094 12.8238 10.163 13.0456 10.5236C13.1099 10.4647 13.1099 10.4277 13.0927 10.3953C12.6709 9.60253 12.4376 8.73346 12.0996 7.90715C11.9583 7.56276 11.9537 7.25997 12.2169 6.97799C12.3146 6.87282 12.4111 6.76419 12.5077 6.65787C12.6444 6.61048 12.7525 6.68791 12.8605 6.74916C13.6145 7.17792 14.3478 7.63904 15.0375 8.16371C15.7742 8.72653 16.034 9.49043 15.8156 10.3803C15.5582 11.4343 15.2271 12.4686 15.18 13.5642C15.1398 14.4991 15.2846 15.3809 15.8972 16.1136C16.2719 16.5632 16.3972 17.0474 16.3581 17.6206C16.3145 18.2632 16.1639 18.8896 16.1214 19.531C16.0547 20.5237 16.0489 21.5211 15.9122 22.5092C15.7604 23.6163 15.4444 24.6599 14.7927 25.5879C14.3754 26.1819 14.057 26.8314 13.7961 27.5098C13.2709 28.8816 12.9674 30.3181 12.5525 31.7222C12.4318 32.1279 12.3582 32.552 12.1123 32.9091C11.9031 33.1033 11.6594 33.2258 11.3824 33.3032C11.0319 33.4014 10.8905 33.5806 10.8801 33.9226C10.8594 34.6704 10.7135 35.395 10.5135 36.1115C10.4031 36.5056 10.3135 36.9008 10.3882 37.3146C10.4893 37.8635 10.6342 38.3917 11.0548 38.7961C11.2112 38.9464 11.3583 38.9649 11.4744 38.7638C11.7709 38.2483 12.0962 37.7445 12.2755 37.1689C12.5582 36.5229 12.7801 35.8515 13.1076 35.2251C14.9559 31.7014 16.8018 28.1766 18.6431 24.6495C18.8063 24.334 19.0293 24.0947 19.3155 23.889C21.643 22.2214 24.1016 20.7548 26.4992 19.1947C27.5038 18.5406 28.5601 17.9616 29.4508 17.1399C29.6899 16.9191 29.8853 16.6764 29.929 16.3448C30.0301 15.5739 29.7715 14.9533 29.1382 14.5049ZM23.882 17.9096C23.0028 18.6157 22.1235 19.323 21.2166 19.9921C20.812 20.2903 20.3408 20.407 19.8718 20.5283C19.6822 20.578 19.6178 20.4486 19.6557 20.2903C19.8707 19.4119 20.0776 18.5325 20.3224 17.6622C20.4511 17.2069 20.8362 17.007 21.2787 16.9943C22.4223 16.9642 23.566 16.9908 24.7073 17.0555C24.7303 17.0578 24.7533 17.0775 24.813 17.1064C24.4935 17.3837 24.1958 17.6565 23.882 17.9096Z" fill="#545454"/>
<path fill-rule="evenodd" clip-rule="evenodd" d="M34.4295 49.41C34.3525 49.7209 34.2134 50.004 34.0858 50.2941C34.0629 50.3472 34.0514 50.4293 33.9663 50.4189C33.864 50.4073 33.8778 50.3195 33.8698 50.2513C33.8192 49.7567 33.7732 49.2609 33.718 48.7663C33.6617 48.2624 33.5353 47.7828 33.1479 47.4222C32.6962 47.0039 32.1491 46.9958 31.594 47.109C30.6043 47.3113 29.8411 47.9018 29.1883 48.6357C27.5205 50.5102 26.5872 52.7499 26.1114 55.1861C25.9183 56.1742 26.1401 57.1692 26.3344 58.1469C26.7332 60.1693 27.6205 61.9606 28.8768 63.5786C28.9722 63.7011 29.0825 63.8236 29.1228 63.99C29.017 64.027 28.9757 63.9507 28.932 63.9068C27.4539 62.453 26.0585 60.924 24.8827 59.2078C23.9321 57.8199 23.4379 56.2655 23.2689 54.5944C23.2069 53.9818 23.0977 53.3763 23.008 52.7672C22.9965 52.691 23.0057 52.5754 22.8919 52.5939C22.8034 52.6089 22.8517 52.7164 22.8437 52.7811C22.7563 53.4572 22.7368 54.1448 22.8 54.8162C22.9103 56.0124 23.0126 57.2108 23.1942 58.4C23.3023 59.1154 23.3643 59.8388 23.5632 60.538C23.8034 61.3897 24.2356 62.1571 24.6022 62.9534C24.6746 63.1082 24.7344 63.27 24.7884 63.4318C24.8057 63.4838 24.8528 63.5601 24.7758 63.6029C24.7045 63.6433 24.6631 63.5728 24.6172 63.5347C24.1045 63.1071 23.7068 62.5801 23.3482 62.0242C22.9655 61.4313 22.6299 60.8107 22.4046 60.137C22.2195 59.7545 22.0839 59.3511 21.9678 58.942C21.7207 58.3226 21.5322 57.6846 21.3793 57.034C21.1253 56.2701 20.9862 55.4796 20.838 54.6914C20.8092 54.5424 20.7885 54.3921 20.7518 54.1575C20.569 54.577 20.5357 54.9503 20.515 55.3178C20.4564 56.3602 20.6357 57.3818 20.8023 58.4046C20.9541 59.3442 21.1242 60.2757 21.4908 61.1574C21.5874 61.3909 21.7069 61.6151 21.8138 61.8451C21.8391 61.8982 21.9035 61.9606 21.8448 62.015C21.7736 62.0808 21.7092 62.0069 21.6586 61.9641C21.2839 61.6451 20.9885 61.258 20.7437 60.8327C20.3311 60.1173 20.0242 59.3557 19.807 58.5595C19.5254 57.8903 19.3886 57.1808 19.215 56.4816C18.953 55.4276 18.8288 54.3517 18.676 53.2792C18.6081 52.7961 18.515 52.3177 18.4254 51.8392C18.3518 51.4428 18.4875 51.2544 18.8806 51.2753C19.23 51.2949 19.5771 51.3527 19.9242 51.3943C20.4437 51.4625 20.9667 51.4324 21.4885 51.4313C21.6632 51.385 21.8391 51.34 22.0138 51.2937C22.1437 51.229 22.2724 51.1655 22.4011 51.0996C23.0011 50.6604 23.3574 50.0618 23.5678 49.3534C23.8114 48.5317 24.3425 47.9977 25.1677 47.7273C26.5298 47.2824 27.924 46.9334 29.2687 46.4538C31.6779 45.5928 33.2813 43.8962 33.956 41.378C34.0146 41.1608 34.0203 40.9308 34.056 40.7077C34.0698 40.6176 34.0307 40.5066 34.1502 40.4338C34.3433 40.6823 34.3146 40.9828 34.3479 41.2602C34.5261 42.7059 34.741 44.1493 34.7893 45.609C34.8272 46.8895 34.7353 48.1595 34.4295 49.41Z" fill="#545454"/>
<path fill-rule="evenodd" clip-rule="evenodd" d="M99.3422 62.1389C99.3321 62.2163 99.3472 62.303 99.2791 62.3908C99.0938 61.8916 99.0167 61.3692 98.8815 60.8699C98.4608 59.3213 98.2956 57.7288 98.2015 56.1132C98.1133 54.5958 97.893 53.0945 97.6586 51.5968C97.0918 47.9887 96.2415 44.4732 95.0547 41.0685C93.4934 36.5914 91.4183 32.4599 88.7763 28.7143C85.3552 23.8628 81.1119 20.3472 76.0132 18.2023C73.225 17.0304 70.3668 16.1845 67.4354 15.6644C66.9577 15.5789 66.4789 15.4911 66.0002 15.4032C65.2621 15.3108 64.523 15.2195 63.7839 15.1282C63.199 15.09 62.6131 15.0484 62.0283 15.0149C61.3092 14.9745 60.5911 14.9398 59.871 14.9028C58.9797 14.9074 58.0874 14.9063 57.196 14.919C56.6412 14.9271 56.0874 14.9548 55.5325 14.9733C55.2691 15.0831 54.9897 15.038 54.7213 15.0565C53.8761 15.1155 53.0338 15.1987 52.1945 15.3038C51.2621 15.4206 50.3358 15.5962 49.4074 15.7488C49.139 15.7927 48.8716 15.8493 48.5781 15.8447C48.8555 15.5881 49.133 15.3327 49.4094 15.075C49.849 14.6659 50.2977 14.2718 50.7223 13.8442C51.3623 13.1982 51.832 12.3927 52.2446 11.5467C52.481 11.0636 52.7884 10.8568 53.2742 10.8822C54.0263 10.9227 54.7814 10.8995 55.5355 10.9042C56.3878 10.8845 57.2401 10.8672 58.0934 10.9284C58.5691 10.9631 59.0458 10.977 59.5235 10.9978C59.6417 11.0024 59.7589 11.0082 59.871 11.0521C60.543 11.0602 61.21 11.1688 61.879 11.2324C62.4389 11.2855 62.9977 11.3641 63.5566 11.4335C63.6337 11.4439 63.7088 11.4681 63.7849 11.4866C64.545 11.5664 65.2992 11.697 66.0483 11.8715C67.2741 12.0853 68.4829 12.4031 69.6837 12.7509C72.6291 13.6038 75.4874 14.7433 78.2105 16.3081C81.232 18.0463 83.9872 20.2201 86.4068 22.9521C87.7478 24.4672 88.8885 26.1718 90.0412 27.8707C91.8079 30.4791 93.3432 33.2515 94.6101 36.2228C96.3917 40.404 97.6867 44.776 98.4999 49.3397C98.8995 51.5783 99.1849 53.8342 99.3251 56.1109C99.4002 57.3405 99.3872 58.5748 99.3992 59.8067C99.4073 60.5856 99.4453 61.3646 99.3422 62.1389Z" fill="#545454"/>
<path fill-rule="evenodd" clip-rule="evenodd" d="M36.8335 39.2574C36.7611 40.8869 36.5795 42.5049 36.1519 44.0847C36.0623 44.4164 35.9519 44.7423 35.8037 45.0543C35.7565 45.1537 35.7347 45.2808 35.591 45.3328C35.529 45.2196 35.5588 45.1017 35.5577 44.9919C35.5358 43.523 35.4669 42.0611 35.0715 40.6338C34.8841 39.9589 34.5945 39.3279 34.3002 38.6958C34.2117 38.5802 34.1336 38.4577 34.0911 38.3167C33.983 38.1826 33.8876 38.0393 33.8221 37.8787C33.6784 37.74 33.5922 37.5609 33.498 37.3887C33.0991 36.9842 32.9336 36.53 33.0543 35.9429C33.2072 35.194 33.2865 34.4313 33.4003 33.6755C33.4106 33.605 33.4371 33.5356 33.4554 33.4663C33.5635 32.7775 33.6715 32.0887 33.7796 31.4C33.8704 30.8198 33.9612 30.2397 34.052 29.6595C34.1336 29.1198 34.1819 28.5755 34.3209 28.0381C34.4336 28.0785 34.4577 28.1537 34.4796 28.2322C35.5462 29.8329 36.0968 31.6322 36.4669 33.4964C36.845 35.3986 36.9186 37.3251 36.8335 39.2574Z" fill="#545454"/>
<path fill-rule="evenodd" clip-rule="evenodd" d="M54.4812 6.44346C54.3927 7.94007 53.8249 9.27834 53.102 10.5623C52.7537 11.2546 52.3181 11.889 51.8101 12.4715C51.0308 13.455 50.1044 14.2697 49.0423 14.9319C48.663 15.148 48.309 15.4058 47.9194 15.6068C47.2171 15.9674 46.4792 16.1662 45.6884 16.1639C45.5275 16.1627 45.3654 16.1639 45.1574 16.0749C46.4263 15.0371 47.6803 14.0316 48.9803 13.0817C49.6837 12.5246 50.3181 11.9029 50.8112 11.1425C51.1515 10.6143 51.3951 10.0446 51.6124 9.45978C51.8101 8.76753 51.8836 8.04985 52.0399 7.34951C52.0629 7.24435 52.1181 7.11491 52.0399 7.03979C51.9503 6.95196 51.8457 7.06984 51.7468 7.09526C51.6537 7.11838 51.5756 7.1935 51.471 7.17847C50.9227 7.48588 50.3308 7.69275 49.7584 7.94469C49.3768 8.11342 48.9883 8.26712 48.6021 8.42661C48.0561 8.71553 47.4562 8.79527 46.8573 8.86576C45.893 8.97902 44.9746 9.26678 44.0574 9.56379C43.8873 9.61811 43.7701 9.74061 43.6586 9.87583C42.4115 11.3805 41.2311 12.9372 40.0047 14.4581C38.5829 16.224 37.0002 17.8327 35.2255 19.2461C35.1347 19.3177 35.0496 19.3998 34.9129 19.4229C34.8887 19.2992 34.9634 19.216 35.0186 19.1305C36.8979 16.1766 38.776 13.2238 40.6587 10.2722C40.8092 10.0365 40.9908 9.82035 41.1483 9.58922C41.2701 9.40893 41.3747 9.22056 41.415 9.00098C41.4977 8.55142 41.7713 8.29139 42.2046 8.17236C43.4632 7.8245 44.7344 7.52864 45.9792 7.12993C46.8205 6.86182 47.6435 6.54169 48.4745 6.24584C49.4297 5.8113 50.3848 5.37677 51.34 4.94223C51.8698 4.651 52.4192 4.40369 52.9859 4.19335C53.1905 4.10321 53.3905 4.00151 53.6008 3.92293C53.9123 3.80736 54.0054 3.8559 54.1261 4.18526C54.3904 4.91334 54.5261 5.66684 54.4812 6.44346Z" fill="#545454"/>
<path fill-rule="evenodd" clip-rule="evenodd" d="M13.23 26.2621C13.1346 27.0953 12.8127 27.8673 12.584 28.6636C12.4771 29.0346 12.3484 29.4009 12.23 29.7696C12.0806 30.3705 11.9518 30.9773 11.745 31.562C11.6645 31.7909 11.5599 32.0104 11.368 32.1722C11.2461 32.3606 11.0634 32.4796 10.8772 32.5894C10.1439 33.0205 9.92432 33.5082 10.0967 34.3611C10.2002 34.8765 10.1531 35.3688 9.89674 35.8346C9.81513 35.9825 9.71973 36.1258 9.53468 36.1212C9.33583 36.1166 9.28181 35.9409 9.22434 35.7883C9.07377 35.3896 8.88182 34.9667 8.90941 34.5633C8.93929 34.1357 9.01056 33.6919 9.1094 33.2609C9.35882 32.1757 9.84731 31.1841 10.253 30.1602C10.4255 29.7233 10.6404 29.3027 10.7392 28.8381C10.7714 28.689 10.8289 28.5214 10.6979 28.4012C10.568 28.2822 10.4082 28.3504 10.2634 28.3989C9.54617 28.6393 8.94619 29.0993 8.29449 29.4656C8.083 29.5847 7.87726 29.7164 7.67266 29.8482C7.26463 30.1105 7.17843 30.3312 7.27383 30.8143C7.38072 31.3644 7.47612 31.9168 7.58876 32.4669C7.63933 32.7154 7.66232 33.0748 7.50715 33.1465C7.32785 33.2297 7.10257 32.9604 6.94395 32.7755C6.33133 32.0567 5.87272 31.2558 5.66468 30.3231C5.56928 29.8978 5.68192 29.5153 5.92444 29.1675C6.10604 28.9051 6.33247 28.6821 6.59454 28.5018C8.04047 27.5125 9.53353 26.6042 11.1542 25.9223C11.2036 25.9015 11.2553 25.8853 11.3059 25.868C11.5691 25.749 11.83 25.6253 12.1185 25.5768C12.207 25.4993 12.3231 25.5144 12.4277 25.497C12.9932 25.3976 13.2966 25.6935 13.23 26.2621Z" fill="#545454"/>
<path fill-rule="evenodd" clip-rule="evenodd" d="M99.4106 43.701V44.1899C99.2673 44.1945 99.2722 44.042 99.2371 43.9472C98.5649 42.0935 97.9014 40.2352 97.2272 38.3826C96.1292 35.3674 94.7944 32.5048 93.2473 29.7832C93.2054 29.7081 93.1693 29.6283 93.1313 29.5509C92.5779 28.6541 92.044 27.7411 91.4595 26.872C90.7707 25.8481 90.0702 24.8357 89.3005 23.8939C89.2635 23.8499 89.2411 23.7898 89.2118 23.7378C88.676 23.1045 88.1499 22.4597 87.6013 21.8425C85.5632 19.552 83.334 17.5607 80.9197 15.863C80.8681 15.8261 80.8213 15.7798 80.7717 15.7394C79.9766 15.2424 79.2011 14.7027 78.3925 14.2347C75.3177 12.4538 72.0967 11.1976 68.7471 10.3909C66.5433 9.86044 64.3181 9.53339 62.0762 9.37621C60.8107 9.28838 59.5421 9.23984 58.2746 9.26874C57.0928 9.29416 55.9091 9.34154 54.7292 9.45133C54.4408 9.47907 54.434 9.46751 54.5159 9.15201C54.623 8.73712 54.7448 8.32686 54.8383 7.90735C54.9026 7.61612 55.0498 7.50979 55.2865 7.52135C56.1721 7.56411 57.0577 7.593 57.9414 7.64732C58.7033 7.6947 59.4642 7.76751 60.2261 7.83454C61.4069 7.93739 62.5799 8.11999 63.7549 8.28988C65.1783 8.4979 66.5998 8.72441 68.0115 9.03529C70.9617 9.68478 73.8319 10.6579 76.6144 11.9869C77.7124 12.5116 78.7987 13.0779 79.8305 13.769C80.1832 14.0059 80.5651 14.1804 80.8944 14.4658C81.5092 14.8322 82.085 15.2771 82.6608 15.7209C85.0731 17.5827 87.2535 19.775 89.2303 22.2563C89.2664 22.3013 89.2937 22.3568 89.3248 22.4076C89.9562 23.1415 90.5164 23.9528 91.0766 24.7629C91.8472 25.8816 92.5789 27.0385 93.2687 28.23C93.2901 28.2669 93.3057 28.3074 93.3252 28.3467C93.9127 29.2978 94.4378 30.2975 94.9454 31.3087C96.4897 34.3874 97.7952 37.6014 98.7802 40.9921C99.0101 41.7803 99.1514 42.5974 99.32 43.4063C99.3414 43.5057 99.3365 43.6213 99.4106 43.701Z" fill="#545454"/>
<path fill-rule="evenodd" clip-rule="evenodd" d="M32.5319 41.7898C32.3848 42.0359 32.256 42.2971 32.0549 42.5086C31.74 43.0044 31.3503 43.4332 30.9044 43.8111C30.4251 44.2687 29.8883 44.6374 29.2814 44.8997C28.7021 45.2245 28.0631 45.3793 27.4297 45.5515C26.1792 45.8901 24.9884 46.3709 23.8643 47.0169C23.3011 47.3405 22.9391 47.8109 22.7816 48.443C22.7207 48.6892 22.6356 48.9273 22.5241 49.1561C22.2242 49.7721 21.7334 50.1165 21.0633 50.2378C20.0196 50.4262 19.0162 50.1997 18.0093 49.9789C17.5013 49.8668 17.076 49.6357 16.6933 49.2774C16.1393 48.7585 16.0209 48.1472 16.2014 47.4445C16.3588 46.8285 16.7301 46.3617 17.2404 46.0011C17.4358 45.8636 17.6094 45.9179 17.7795 46.0623C18.2427 46.4553 18.7794 46.6748 19.3863 46.6841C20.2058 46.6968 20.8955 46.3825 21.4587 45.7907C21.7713 45.4625 22.0644 45.1181 22.3288 44.7518C22.7552 44.1601 23.3379 43.781 23.9873 43.4829C24.7574 43.1304 25.5183 42.7559 26.2884 42.4046C27.4114 41.8903 28.4021 41.205 29.1688 40.2181C29.1998 40.1637 29.2274 40.106 29.263 40.0563C29.5147 39.7026 29.5055 39.3548 29.2469 39.0092C29.1987 38.9445 29.1561 38.8752 29.1113 38.8081C28.5803 38.2037 28.0136 37.6386 27.3688 37.1532C25.9229 36.0657 24.3229 35.2648 22.646 34.6107C22.2678 34.4639 21.8977 34.301 21.577 34.0433C21.0161 33.5914 20.8253 32.9338 21.1058 32.2682C21.2817 31.8533 21.4977 31.4546 21.7092 31.0558C21.8403 30.8085 22.0357 30.6883 22.346 30.6964C23.5115 30.7253 24.5747 31.0998 25.5827 31.6406C26.5987 32.1861 27.5757 32.7951 28.4516 33.559C28.7286 33.7994 29.0274 34.0155 29.2837 34.2802C29.8906 34.8187 30.4377 35.4093 30.9101 36.0703C31.3308 36.5754 31.6928 37.1197 31.9928 37.7056C32.4066 38.3852 32.7905 39.0843 32.9388 39.8737C33.0675 40.5555 32.8859 41.1969 32.5319 41.7898Z" fill="#545454"/>
<path fill-rule="evenodd" clip-rule="evenodd" d="M44.7087 1.06387C44.1753 1.22797 43.6294 1.3447 43.1121 1.56196C42.2972 1.7931 41.5099 2.09704 40.7467 2.46224C39.9513 2.84361 39.7421 3.89066 40.3145 4.55402C40.5605 4.83947 40.5628 4.89956 40.341 5.20813C39.7617 6.01364 39.1812 6.81915 38.6019 7.6235C38.1123 8.29495 37.6204 8.96409 37.133 9.63669C35.5009 11.8868 33.8687 14.1369 32.2389 16.3882C32.101 16.5789 31.9424 16.7372 31.6987 16.7522C31.5263 16.7626 31.3907 16.8366 31.2539 16.9267C27.377 19.4727 23.5012 22.0175 19.6232 24.5611C19.3991 24.7079 19.2255 24.8963 19.1014 25.1355C17.6301 27.9461 16.1566 30.7556 14.6866 33.5673C14.6486 33.6401 14.5705 33.7141 14.6325 33.8216C14.6647 33.8031 14.6981 33.7892 14.7245 33.7684C15.7946 32.8774 16.9014 32.0361 17.9968 31.1797C18.7657 30.5787 19.5968 30.1072 20.5347 29.8264C21.722 29.4704 22.9196 29.5225 24.1208 29.7293C25.0759 29.8934 26.0138 30.1211 26.8425 30.6492C27.5574 31.1046 28.2712 31.5668 28.9459 32.0788C30.1758 33.0126 31.1251 34.2076 31.9332 35.5193C31.9906 35.6117 32.0228 35.7296 32.1401 35.7943C32.1619 35.718 32.1872 35.6591 32.1964 35.5967C32.4355 33.9857 32.6734 32.3724 32.9102 30.7613C33.0377 29.8992 33.1768 29.0382 33.2837 28.1726C33.3343 27.7589 33.4239 27.3509 33.4642 26.9384C33.517 26.4021 33.632 25.8763 33.6871 25.3401C33.74 24.8154 33.8837 24.2999 33.9469 23.7753C34.0113 23.2309 34.1021 22.6901 34.1733 22.1481C34.2664 21.4454 34.1952 20.7971 33.8159 20.2065C33.6366 19.9269 33.6331 19.6784 33.7929 19.4114C33.9975 19.0682 34.2147 18.7342 34.417 18.391C35.1607 17.1301 35.902 15.867 36.6422 14.6026C37.3663 13.3661 38.0859 12.126 38.8077 10.8883C38.8548 10.8236 38.9054 10.7612 38.9479 10.6918C39.8134 9.23105 40.672 7.76449 41.5444 6.30718C42.0674 5.43233 42.5673 4.54015 43.2547 3.77624C43.4696 3.59827 43.6662 3.39025 43.9029 3.2481C44.2454 3.04123 44.4236 2.73613 44.5581 2.3825C44.7041 1.99881 44.7765 1.59895 44.8431 1.19677C44.8615 1.0708 44.8466 1.02111 44.7087 1.06387ZM30.9585 25.6163C30.9378 25.6821 30.924 25.7573 30.8125 25.7885C30.8263 25.6463 30.8389 25.518 30.8493 25.3874C30.9321 24.2826 30.8309 23.1801 30.8022 22.0764C30.7964 21.8765 30.6838 21.8014 30.4976 21.8337C30.2757 21.873 30.0643 21.94 29.8631 22.0521C27.485 23.3846 25.1495 24.7842 22.9277 26.3709C22.8265 26.4426 22.7277 26.5316 22.5978 26.5477C22.4128 26.5732 22.0702 26.3859 22.0128 26.2218C21.9312 25.9884 22.0725 25.8312 22.2369 25.718C24.423 24.2306 26.6218 22.7606 29.0723 21.732C29.4781 21.561 29.9045 21.4385 30.3263 21.3125C30.947 21.1264 31.255 21.3298 31.3424 21.9701C31.509 23.2182 31.3274 24.4271 30.9585 25.6163Z" fill="#545454"/>
<path fill-rule="evenodd" clip-rule="evenodd" d="M22.9402 35.7528C22.8919 35.8672 22.7655 35.8452 22.6563 35.8244C22.2621 35.7528 21.8598 35.7216 21.4724 35.6083C20.7529 35.5378 20.0598 35.3391 19.3553 35.1888C18.5438 35.0178 17.9381 35.2824 17.5254 35.9978C17.2139 36.5375 16.9186 37.0876 16.6105 37.6296C16.5737 37.6955 16.5461 37.8087 16.4599 37.7995C16.3645 37.7902 16.3381 37.6735 16.3071 37.5926C16.1496 37.1916 16.1278 36.7617 16.0852 36.341C16.0393 35.8857 15.8921 35.5193 15.5002 35.2385C14.9002 34.8074 14.9083 34.3359 15.4807 33.869C15.9875 33.4565 16.568 33.1594 17.122 32.8208C18.1541 32.191 19.1943 31.5762 20.2334 30.9602C20.5115 30.7949 20.7931 30.6343 21.1552 30.6378C21.0725 30.9717 20.8977 31.2456 20.769 31.538C20.6633 31.7784 20.5437 32.0119 20.4414 32.2534C20.1794 32.8728 20.3024 33.4241 20.7679 33.8945C21.015 34.1441 21.2839 34.3718 21.5437 34.6087C21.9598 34.9034 22.3782 35.1969 22.7942 35.4928C22.885 35.5575 22.9873 35.6384 22.9402 35.7528Z" fill="#545454"/>
<path fill-rule="evenodd" clip-rule="evenodd" d="M35.3052 10.9961C35.0569 11.3139 34.8041 11.6294 34.5535 11.946C34.5041 12.0084 34.465 12.0847 34.373 12.094C34.3776 12.1853 34.3144 12.2442 34.265 12.3055C33.511 13.2416 32.7547 14.1742 32.0007 15.1103C31.8283 15.3241 31.6168 15.4928 31.4042 15.6592C31.2547 15.776 31.0789 15.8395 30.8996 15.7413C30.7352 15.6511 30.6754 15.4836 30.6881 15.301C30.7352 14.6399 30.3915 14.2297 29.841 13.9488C28.8422 13.4392 27.764 13.1976 26.671 13.0069C26.5124 12.9781 26.3537 12.9469 26.194 12.9145C26.1698 12.9099 26.1491 12.8914 26.1055 12.8683C28.7916 11.857 31.5076 11.0458 34.365 10.7984C34.7179 10.7603 35.0707 10.7071 35.4293 10.7337C35.4466 10.8574 35.3627 10.9221 35.3052 10.9961Z" fill="#545454"/>
<path fill-rule="evenodd" clip-rule="evenodd" d="M15.9791 43.378C15.8653 43.3769 15.7423 43.4012 15.6412 43.3168C15.4849 43.296 15.3412 43.2359 15.209 43.1504C14.5159 42.8788 13.9401 42.4339 13.4378 41.8953C12.7827 41.1915 12.1666 40.4565 11.9287 39.4869C11.8275 39.072 11.87 38.6964 12.2206 38.404C12.3355 38.3081 12.3976 38.2931 12.4643 38.4687C12.5528 38.7045 12.5401 38.9483 12.5781 39.1887C12.7171 40.0474 13.1907 40.7027 13.8332 41.2504C14.0872 41.4677 14.3562 41.6653 14.6228 41.8664C14.7067 41.9288 14.8079 42.0039 14.9182 41.9323C15.0136 41.8699 15.0033 41.7566 14.9952 41.6584C14.9159 40.7304 14.8102 39.8024 14.7562 38.8732C14.7033 37.9706 14.4516 37.1131 14.27 36.2371C14.1826 35.8176 14.2343 35.3888 14.3309 34.9705C14.3596 34.8457 14.4171 34.6954 14.5447 34.6931C14.6631 34.692 14.7665 34.811 14.8044 34.9416C15.0044 35.6246 15.2711 36.2926 15.3481 37.0091C15.4527 37.5442 15.4458 38.0874 15.4274 38.6259C15.3941 39.5689 15.4469 40.4993 15.7148 41.4088C15.8964 41.9554 16.1285 42.487 16.2504 43.0521C16.3216 43.3769 16.3101 43.3838 15.9791 43.378Z" fill="#545454"/>
<path fill-rule="evenodd" clip-rule="evenodd" d="M28.5612 39.7522C28.4808 39.892 28.3877 40.0203 28.2612 40.1232C27.6888 40.7807 26.9567 41.2314 26.228 41.6787C24.9763 42.4472 23.628 42.9985 22.2212 43.4064C22.0568 43.4538 21.8902 43.4966 21.7166 43.4873C21.5775 43.4804 21.4338 43.4573 21.381 43.3094C21.3304 43.1649 21.4086 43.0459 21.5178 42.9523C21.7246 42.7766 21.9442 42.6183 22.1901 42.5015C23.7947 41.7411 25.0349 40.5496 26.1096 39.1616C26.2429 38.9906 26.367 38.8091 26.5188 38.6566C27.0383 38.1319 27.9015 38.2325 28.2566 38.8496C28.6796 39.0507 28.7854 39.3616 28.5612 39.7522Z" fill="#545454"/>
<path fill-rule="evenodd" clip-rule="evenodd" d="M21.4326 45.0292C21.3165 45.0535 21.2705 44.9726 21.2142 44.9091C19.9441 44.144 19.0706 43.0299 18.4488 41.6142C18.266 42.0996 18.2281 42.5076 18.2166 42.9224C18.1925 43.7603 18.3568 44.582 18.42 45.4106C18.4246 45.4649 18.4304 45.5181 18.435 45.5724C18.4396 45.629 18.4419 45.6857 18.3764 45.7076C18.3108 45.7307 18.2798 45.6787 18.2488 45.6337C18.0741 45.3829 18.004 45.094 17.9419 44.8004C17.6304 43.3223 17.5672 41.843 17.8534 40.3534C17.9224 39.9974 18.0925 39.6923 18.2591 39.3838C18.3235 39.2647 18.4465 39.1538 18.5522 39.1792C18.6798 39.2104 18.7189 39.3768 18.7166 39.5155C18.7028 40.0344 18.7545 40.5487 18.9016 41.0456C19.2177 42.1088 19.8028 42.9895 20.6843 43.669C20.9016 43.8366 21.1429 43.9949 21.2211 44.2896C21.4291 44.4976 21.4142 44.7646 21.4326 45.0292Z" fill="#545454"/>
<path fill-rule="evenodd" clip-rule="evenodd" d="M14.5856 33.883L14.582 33.8652L14.5951 33.8676L14.5856 33.883Z" fill="#545454"/>
</svg>
