<svg width="70" height="56" viewBox="0 0 70 56" fill="none" xmlns="http://www.w3.org/2000/svg">
<g filter="url(#filter0_d_1502_1673)">
<path fill-rule="evenodd" clip-rule="evenodd" d="M62.3851 40.7636C60.7215 38.4404 58.7538 36.5119 57.4666 34.65C59.23 29.3842 57.6007 23.3292 57.6007 16.1746C57.6007 13.6084 57.4491 10.8642 57.3344 8.33401C57.2279 5.99188 57.4824 2.18044 56.5375 0.890431C55.6707 -0.292309 53.5114 0.0172367 51.8846 0.0928402C44.0855 0.456212 36.1531 -0.0100796 28.2286 0.358438C20.4608 0.719831 12.6927 0.315684 5.36861 1.42242C4.62524 3.04849 4.8378 5.02092 4.8378 7.00403C4.8378 8.97486 4.6482 11.148 4.8378 13.1196C4.91182 13.8752 5.27559 14.5956 5.36861 15.3778C5.75455 18.6379 5.46717 22.1572 5.63461 25.612C5.79967 28.9876 5.95602 32.3593 6.1666 35.5798C5.37692 37.0273 4.04021 38.3249 2.97701 39.9652C1.48552 42.2645 -0.855813 44.5829 0.318615 48.0734C4.9423 48.7518 10.5853 48.7368 16.0022 48.7368C29.8665 48.7368 43.3667 49.0811 57.8667 49.0024C60.0478 48.9913 64.9517 49.0756 65.7085 48.0734C66.5334 46.9769 65.4101 44.8335 64.7763 43.9528C63.8647 42.6806 63.0454 41.6866 62.3851 40.7636Z" fill="#0F0D0E"/>
<path fill-rule="evenodd" clip-rule="evenodd" d="M30.0883 2.48572C30.0032 2.49363 29.9133 2.49839 29.8267 2.5063C29.8904 2.5732 29.9747 2.58824 30.0883 2.48572Z" fill="#6E6D6D"/>
<path fill-rule="evenodd" clip-rule="evenodd" d="M51.3527 0.890894C46.5505 1.11493 40.7868 1.28949 35.9363 1.28949C34.3304 1.28949 31.6914 0.612233 31.6831 2.35349C37.636 3.00186 45.6139 1.92045 51.3527 2.48609C37.0937 3.35454 22.1068 2.73665 8.15893 3.54889C14.1142 1.9719 23.2543 3.07667 29.8267 2.50667C29.6596 2.33092 29.6465 1.76766 29.6905 1.82268C29.2986 1.33422 29.4324 1.47593 28.7583 1.42329C28.3985 1.39558 27.9829 1.42329 27.4299 1.42329C20.4661 1.42329 12.1125 1.28395 6.16553 2.08709C6.46359 11.3495 6.89029 21.6249 7.22912 30.6632C7.29127 32.3146 6.87446 33.7658 7.62693 35.0482C11.0049 35.6163 14.4712 34.9243 17.9937 34.6504C19.4523 34.536 20.8975 34.7906 22.3803 34.783C25.4128 34.766 28.4824 34.6504 31.5501 34.6504C40.1455 34.6504 48.8265 34.618 56.8017 33.5864C56.4656 23.287 56.6885 11.2858 55.6051 1.28989C54.4156 0.438063 52.8707 0.820436 51.3527 0.890894ZM55.3403 3.9471C54.8415 3.47131 54.4892 2.85065 54.0119 2.35349C55.0517 2.43068 55.3248 3.17127 55.3403 3.9471ZM40.1903 33.586C31.0426 33.586 21.6357 34.4304 12.2791 33.9854C10.1088 33.8813 7.16816 34.4838 7.36093 32.6562C7.7916 32.5363 7.54935 33.0897 7.76112 33.1878C22.6637 33.7697 39.1579 32.7477 54.0123 33.0548C50.6742 34.1295 45.0705 33.586 40.1903 33.586ZM56.5373 32.5228C56.3476 32.9978 55.9107 33.2246 55.2077 33.1874C55.0101 32.7679 56.1264 31.582 56.5373 32.5228ZM55.7381 31.7256C53.8603 32.7944 51.5823 32.4223 49.3597 32.5228C36.2035 33.1205 21.331 32.6748 8.15853 32.9211C8.2092 23.3808 7.13016 13.0243 7.89214 4.08088C14.3172 3.51841 21.4659 3.74166 28.6257 3.41629C35.9391 3.08379 43.0751 3.6047 49.6261 3.01808C50.9485 2.89933 53.7759 2.74219 54.4105 3.54849C55.3232 4.71223 55.1123 8.41007 55.2069 10.1941C55.5821 17.2497 56.0163 24.6541 55.7381 31.7256Z" fill="#6E6D6D"/>
<path fill-rule="evenodd" clip-rule="evenodd" d="M30.3538 2.08659C30.5101 2.24176 30.8228 2.23741 31.1506 2.21959C31.1506 2.04345 31.1506 1.86493 31.1506 1.68878C30.6811 1.61714 30.4666 1.80239 30.3538 2.08659Z" fill="#A0A0A0"/>
<path fill-rule="evenodd" clip-rule="evenodd" d="M8.42513 5.01143C7.8678 7.66586 8.53912 11.1135 8.55773 14.0478C23.8783 13.6433 39.6442 13.6809 54.4111 12.7198C54.1874 9.88647 54.4831 6.53299 53.7468 4.21382C39.5401 3.52706 23.1029 4.47666 8.42513 5.01143ZM13.6077 11.7892C12.4887 10.5166 11.4643 9.14705 10.8179 7.40303C12.2093 5.93252 12.9396 8.74766 13.8741 9.39722C14.5462 8.4302 15.0921 7.33613 15.8675 6.47282C16.4644 6.58603 16.9343 6.82432 17.0637 7.40303C16.0393 8.99228 15.0541 10.6211 13.6077 11.7892ZM17.8613 11.1246C17.3618 11.2905 17.5193 12.1126 17.0637 12.3204C16.5571 12.3849 16.2158 12.2836 16.0013 12.054C16.521 9.83026 17.7513 8.31027 18.7919 6.60662C18.9463 6.71745 19.1486 6.78039 19.4561 6.73804C20.3725 8.39102 21.1851 10.1489 21.9815 11.9226C20.285 12.8833 20.1441 10.4157 17.8613 11.1246ZM24.2397 9.79542C25.0555 9.9023 25.445 9.58088 25.9679 9.39722C26.4049 9.58167 26.5993 10.0076 26.8997 10.3282C26.2901 10.9615 25.8978 11.6697 25.0385 11.7892C20.4401 12.4293 22.1343 3.96207 26.6321 6.60701C26.8083 7.00679 27.0632 7.32703 27.0311 7.93384C26.7402 8.13136 26.3174 8.1935 26.1005 8.46663C25.1901 7.3963 23.3974 8.72273 24.2397 9.79542ZM31.2843 10.593C30.518 10.9702 29.8732 10.5368 29.2917 10.726C28.5186 10.9778 28.367 12.2797 27.1653 11.923C27.7396 9.75109 28.9315 8.19667 29.9559 6.47322C30.5065 6.4372 30.4732 6.64778 30.8869 6.47322C31.7213 8.29602 32.8142 9.86271 33.5445 11.7896C32.3226 12.3655 31.7399 11.2212 31.2843 10.593ZM38.1951 11.7892C37.1533 12.1419 36.2532 11.3918 35.5371 10.9908C35.2671 11.5189 34.9378 11.9863 33.9423 11.7892C33.5374 10.2304 33.4261 7.87011 33.6775 6.07423C34.1913 6.04771 34.658 6.06988 35.0071 6.20762C35.0411 7.81192 35.3265 9.16526 36.7357 9.39722C36.7614 8.22754 36.59 6.86154 37.1335 6.20762C37.4426 6.20762 37.7549 6.20762 38.0633 6.20762C38.414 7.68011 38.4449 10.1552 38.1951 11.7892ZM39.1269 7.53603C39.7887 6.1427 42.8366 4.74582 43.3785 7.53603C42.7701 8.14956 42.4657 7.66625 41.5185 7.66862C40.8072 8.184 40.7533 9.49222 41.5185 9.79542C42.44 10.1608 42.5698 9.09203 43.5135 9.13042C43.5487 9.40354 43.8673 9.39682 44.0439 9.52982C43.2083 13.6706 37.2269 11.5284 39.1269 7.53603ZM47.7639 11.7892C47.3803 12.077 46.5728 11.8985 46.3021 11.6566C46.8618 8.57191 44.3423 8.56796 44.0439 6.33904C45.3319 5.63328 46.194 7.04203 47.1009 7.53563C48.2318 7.24034 48.7883 5.59171 50.2905 6.47282C49.7422 8.53945 47.5141 8.92539 47.7639 11.7892ZM53.4805 11.1246C52.969 9.59316 53.4318 6.85758 53.4805 5.01143C54.1482 6.66243 53.5074 9.2852 53.4805 11.1246Z" fill="#D5D1CE"/>
<path fill-rule="evenodd" clip-rule="evenodd" d="M42.8484 7.13799C39.7629 4.61379 38.0652 11.5167 41.7852 11.1244C42.3631 11.063 43.3341 10.4867 43.2458 9.9286C40.6598 12.969 38.6486 5.67026 42.8484 7.13799Z" fill="#6E6D6D"/>
<path fill-rule="evenodd" clip-rule="evenodd" d="M47.2329 8.33431C46.1614 7.98914 45.8546 6.87607 44.7095 6.6073C45.986 7.78569 47.0647 8.9043 47.2329 11.1249C46.9249 8.6007 48.7006 8.16172 49.4939 6.73872C48.7058 6.72724 48.1259 8.01289 47.2329 8.33431Z" fill="#6E6D6D"/>
<path fill-rule="evenodd" clip-rule="evenodd" d="M37.5305 6.73828C37.0191 7.60119 37.483 9.43864 37.1327 10.4591C35.6147 9.89503 34.2594 9.16828 34.6073 6.73828C34.4747 6.73828 34.3413 6.73828 34.2087 6.73828C34.3896 8.24164 34.2095 10.1036 34.7399 11.2579C34.8939 10.8343 34.964 10.3285 35.5368 10.3277C36.3039 10.6257 36.7812 11.21 37.6643 11.3897C37.4866 9.87286 37.9723 7.63879 37.5305 6.73828Z" fill="#6E6D6D"/>
<path fill-rule="evenodd" clip-rule="evenodd" d="M16.7949 11.6567C17.355 10.7522 18.2809 10.2155 19.9881 10.4597C20.5201 10.5503 20.676 11.7145 21.1843 11.3903C20.1741 10.2289 20.0035 8.22918 18.9225 7.13867C18.1696 8.59968 17.3515 9.99379 16.7949 11.6567ZM19.4553 9.92927C19.1109 10.2582 18.803 9.80023 18.2595 9.92927C18.2334 9.15146 18.5318 8.69468 18.9225 8.33447C19.5123 8.41047 19.7288 9.41667 19.4553 9.92927Z" fill="#6E6D6D"/>
<path fill-rule="evenodd" clip-rule="evenodd" d="M13.7405 10.194C12.7272 9.56979 12.5855 8.07157 11.4819 7.53602C12.0492 8.87511 12.865 9.96364 13.7405 10.9908C14.0821 10.4438 14.6122 9.81678 15.0689 9.13081C15.481 8.51332 16.2505 7.75531 16.0007 7.27002C15.306 8.30472 14.8077 9.53496 13.7405 10.194Z" fill="#6E6D6D"/>
<path fill-rule="evenodd" clip-rule="evenodd" d="M30.0881 7.26965C29.4532 8.76193 28.4696 9.9039 27.8291 11.3898C28.4862 10.409 29.5838 9.8667 31.4189 10.0618C31.9101 10.3223 31.9778 11.0063 32.4797 11.2584C31.9315 9.90034 31.2269 8.70019 30.7535 7.27005C30.5318 7.26966 30.3106 7.26965 30.0881 7.26965ZM29.5553 9.52984C29.6828 8.94757 29.9777 8.53512 30.2207 8.06804C30.9146 8.17214 30.8904 8.99388 31.1513 9.52984C30.7618 9.59475 30.1768 9.69569 29.5553 9.52984Z" fill="#6E6D6D"/>
<path fill-rule="evenodd" clip-rule="evenodd" d="M48.0303 13.6511C48.1902 19.7833 48.3465 25.8019 48.2967 31.7259C50.7168 31.6653 53.1737 31.6404 54.9423 30.9267C55.2831 25.1333 55.063 19.1238 54.4111 13.3839C52.4279 13.6171 50.1143 13.5189 48.0303 13.6511Z" fill="#D5D1CE"/>
<path fill-rule="evenodd" clip-rule="evenodd" d="M47.6316 13.783C36.92 13.9247 26.7864 14.6451 15.8674 14.5802C16.2407 21.0025 16.0677 26.058 16.2652 32.1249C26.959 31.9808 37.4956 32.0169 47.898 31.8577C47.6573 26.5473 47.6162 20.0751 47.6316 13.783ZM45.7712 16.5744C43.5063 17.4143 40.6765 16.99 37.9294 17.1052C36.5123 17.1653 35.0763 17.3723 33.6766 17.3723C31.1995 17.3723 28.1924 17.651 25.9674 17.3723C25.572 17.3221 24.9743 17.4373 24.7716 16.8399C31.4513 16.5158 38.9293 16.2894 45.7712 16.5744ZM44.309 18.0361C44.8608 18.0856 45.5535 18.0009 45.9054 18.5677C40.266 18.6465 34.3448 18.966 28.3598 18.966C27.113 18.966 25.7351 19.2723 24.7724 18.5677C30.9066 18.6924 37.6361 17.4274 44.309 18.0361ZM34.7402 19.4991C34.6927 19.7596 33.529 20.026 33.5444 19.4991C33.9208 19.3353 34.365 19.3353 34.7402 19.4991ZM16.7957 21.3599C16.4537 19.7473 16.2498 17.3106 16.5316 15.5108C16.9271 17.0735 17.0217 19.6183 16.7957 21.3599ZM18.1264 16.4414C19.4881 16.1374 21.8397 16.1144 22.912 16.3087C23.543 17.3743 22.9951 20.2572 23.1772 22.1552C21.7328 22.4778 19.986 22.4508 18.3928 22.2897C18.1787 20.5362 18.0528 18.048 18.1264 16.4414ZM23.1772 30.2641C21.9905 30.0547 20.1103 30.0547 18.9232 30.2641C18.1526 29.083 18.2305 25.9452 18.6592 24.4165C20.5085 24.1078 21.7993 24.2907 23.4424 24.4165C23.6356 26.1226 23.7991 28.929 23.1772 30.2641ZM28.8926 20.4285C33.8512 20.2041 39.6315 20.5497 44.309 20.4285C44.7401 20.4179 45.8448 19.8815 46.038 20.6949C39.4727 21.561 31.5399 20.9079 24.772 21.0927C25.9278 20.4349 27.4827 20.4931 28.8926 20.4285ZM26.9 29.8643C28.3491 29.7891 29.1697 29.7891 30.6212 29.8643C29.8418 30.217 27.5298 30.6303 26.9 29.8643ZM42.05 29.0675C36.6002 29.2967 30.107 29.3929 24.9046 29.3339C25.4137 28.6626 26.4214 28.8613 27.1648 28.8023C33.0666 28.3265 40.338 28.6428 46.1714 28.5355C45.3603 29.499 43.2945 29.0157 42.05 29.0675ZM25.171 27.0745C30.5179 26.1178 38.2579 26.6688 44.1764 26.5421C44.8418 26.5275 45.66 26.1499 46.1714 26.8073C39.7273 27.2463 32.0727 27.3033 25.171 27.0745ZM38.8604 25.0803C34.3721 25.2775 29.5544 25.4465 25.1714 25.2141C28.0143 24.3457 31.5755 24.6932 35.007 24.5487C38.913 24.3837 42.7645 24.0551 46.1718 24.4161C43.9872 25.0795 41.3965 24.9695 38.8604 25.0803Z" fill="#D5D1CE"/>
<path fill-rule="evenodd" clip-rule="evenodd" d="M8.69092 14.5799C8.42888 14.9397 8.61135 15.7428 8.55752 16.3085C10.8616 16.3979 12.8618 16.1826 15.0693 16.1747C15.0693 15.5991 15.0693 15.0232 15.0693 14.4473C13.0957 14.6448 10.8518 14.5696 8.69092 14.5799Z" fill="#D5D1CE"/>
<path fill-rule="evenodd" clip-rule="evenodd" d="M8.69067 16.9734C8.69067 17.5489 8.69067 18.1248 8.69067 18.7007C10.7818 18.5329 13.1818 18.6738 15.2033 18.4344C15.2033 17.902 15.2033 17.3716 15.2033 16.8396C12.9771 16.8293 11.0019 17.0684 8.69067 16.9734Z" fill="#D5D1CE"/>
<path fill-rule="evenodd" clip-rule="evenodd" d="M18.9229 16.8395C19.8724 18.6829 20.9958 20.3497 22.5126 21.6243C21.1866 20.1597 20.4373 18.1172 18.9229 16.8395Z" fill="#A0A0A0"/>
<path fill-rule="evenodd" clip-rule="evenodd" d="M19.989 17.1046C20.9802 18.2394 21.7026 19.6446 22.5132 20.9595C22.4447 18.9903 20.8013 18.5953 20.3856 16.9731C20.2293 16.9945 20.0088 16.949 19.989 17.1046Z" fill="#A0A0A0"/>
<path fill-rule="evenodd" clip-rule="evenodd" d="M20.9177 17.2387C21.6912 17.7932 21.9018 18.9134 22.6443 19.4989C22.8858 18.1491 21.7434 18.1839 21.7149 17.1049C21.4814 17.1817 20.9343 16.9454 20.9177 17.2387Z" fill="#A0A0A0"/>
<path fill-rule="evenodd" clip-rule="evenodd" d="M21.8472 17.2385C22.2628 17.3549 22.2842 17.8651 22.644 18.0361C22.7695 17.4618 22.2014 16.8934 21.8472 17.2385Z" fill="#A0A0A0"/>
<path fill-rule="evenodd" clip-rule="evenodd" d="M21.715 21.7568C21.0956 20.6841 19.6607 19.2991 18.9229 17.9022C19.3919 19.6498 20.3696 20.8884 21.715 21.7568Z" fill="#A0A0A0"/>
<path fill-rule="evenodd" clip-rule="evenodd" d="M8.69114 19.2319C8.75486 19.921 8.54824 20.8809 8.82413 21.3595C10.9949 21.3595 13.166 21.3595 15.3359 21.3595C15.3359 20.605 15.3359 19.8525 15.3359 19.0989C13.1304 19.1519 11.0202 19.3027 8.69114 19.2319Z" fill="#D5D1CE"/>
<path fill-rule="evenodd" clip-rule="evenodd" d="M20.7844 21.6247C20.0478 20.9886 19.5823 20.0818 18.9229 19.3657C19.0428 20.533 19.5586 22.0091 20.7844 21.6247Z" fill="#A0A0A0"/>
<path fill-rule="evenodd" clip-rule="evenodd" d="M19.0567 21.0924C19.1536 21.4985 18.9205 21.5769 18.9229 21.8908C19.1441 21.8908 19.367 21.8908 19.5883 21.8908C19.5079 21.5286 19.3238 21.2674 19.0567 21.0924Z" fill="#A0A0A0"/>
<path fill-rule="evenodd" clip-rule="evenodd" d="M8.82397 22.023C8.82397 22.5985 8.82397 23.1741 8.82397 23.7512C11.077 23.8347 12.9351 23.52 15.2032 23.6186C15.3924 23.2275 15.4466 22.0072 15.2032 21.6244C13.3645 22.0456 10.9108 21.8508 8.82397 22.023Z" fill="#D5D1CE"/>
<path fill-rule="evenodd" clip-rule="evenodd" d="M8.82372 24.149C8.86568 24.9933 8.7113 26.0347 8.95672 26.6744C10.9644 26.4242 13.1098 26.3086 15.3355 26.2761C15.286 25.473 15.3735 24.8076 15.4681 24.149C13.7091 24.0061 10.8642 24.5701 8.82372 24.149Z" fill="#D5D1CE"/>
<path fill-rule="evenodd" clip-rule="evenodd" d="M22.113 24.8134C22.2492 25.343 22.5144 25.7408 22.911 26.0096C22.8825 25.3731 22.7206 24.8719 22.113 24.8134Z" fill="#A0A0A0"/>
<path fill-rule="evenodd" clip-rule="evenodd" d="M19.1902 24.9463C19.1902 25.124 19.1902 25.3005 19.1902 25.4791C20.8016 26.4825 21.165 28.7332 22.9126 29.5989C21.5438 28.1763 20.722 26.2074 19.1902 24.9463Z" fill="#A0A0A0"/>
<path fill-rule="evenodd" clip-rule="evenodd" d="M20.3856 24.9463C20.2839 24.9772 20.124 24.9502 20.1216 25.0801C21.1116 26.171 21.8597 27.5061 22.7784 28.6683C22.6577 26.7517 21.2572 26.116 20.3856 24.9463Z" fill="#A0A0A0"/>
<path fill-rule="evenodd" clip-rule="evenodd" d="M21.3162 24.9463C21.7532 25.7506 22.1973 26.547 22.9121 27.0743C22.6438 26.1009 22.1039 25.4003 21.3162 24.9463Z" fill="#A0A0A0"/>
<path fill-rule="evenodd" clip-rule="evenodd" d="M21.7156 29.3331C20.7751 28.2786 19.9973 27.0634 19.1902 25.8771C19.4692 27.1714 20.844 29.2666 21.7156 29.3331Z" fill="#A0A0A0"/>
<path fill-rule="evenodd" clip-rule="evenodd" d="M8.95726 27.074C8.85316 28.0628 9.14409 28.6585 9.09026 29.5986C11.2495 29.4984 13.3763 29.3662 15.4683 29.1992C15.4683 28.4024 15.4683 27.6048 15.4683 26.8068C13.6486 26.7233 11.2099 27.1496 8.95726 27.074Z" fill="#D5D1CE"/>
<path fill-rule="evenodd" clip-rule="evenodd" d="M19.4553 28.802C19.4553 29.0672 19.4553 29.3336 19.4553 29.5992C19.6469 29.5264 20.1421 29.7536 20.1207 29.4662C19.736 29.4068 19.8056 28.8942 19.4553 28.802Z" fill="#A0A0A0"/>
<path fill-rule="evenodd" clip-rule="evenodd" d="M15.6024 29.7313C13.8599 29.7269 11.2585 29.9881 9.09058 29.9973C9.20458 30.7885 9.15549 31.6043 9.22239 32.1248C11.0879 32.3275 13.5072 31.9954 15.7354 32.1248C15.767 31.2504 15.5006 30.6745 15.6024 29.7313Z" fill="#D5D1CE"/>
<path fill-rule="evenodd" clip-rule="evenodd" d="M46.9688 35.979C47.2007 36.1001 47.213 36.4437 47.3677 36.644C48.3423 36.5553 49.6695 36.8193 50.4224 36.511C50.4829 35.1695 47.9061 35.6548 46.9688 35.979Z" fill="#6E6D6D"/>
<path fill-rule="evenodd" clip-rule="evenodd" d="M50.2903 35.5801C50.3805 36.0654 50.7946 36.2277 50.9549 36.6433C51.6215 36.557 52.636 36.8171 53.0801 36.5103C52.809 36.251 52.6459 35.8841 52.4171 35.5797C51.7089 35.5801 51 35.5801 50.2903 35.5801Z" fill="#6E6D6D"/>
<path fill-rule="evenodd" clip-rule="evenodd" d="M53.2139 35.5802C53.3639 36.2753 54.2058 36.9767 54.9421 36.6434C54.4405 36.2136 54.3044 35.4195 53.2139 35.5802Z" fill="#6E6D6D"/>
<path fill-rule="evenodd" clip-rule="evenodd" d="M55.3408 35.9788C55.6523 36.4771 56.4254 36.4102 56.8026 35.9788C56.4559 35.6475 55.8028 35.7528 55.3408 35.9788Z" fill="#6E6D6D"/>
<path fill-rule="evenodd" clip-rule="evenodd" d="M31.1514 35.9789C31.1514 36.3775 31.1514 36.7765 31.1514 37.1751C32.1718 37.1307 33.0719 36.9668 34.2088 37.0417C34.4712 36.9486 34.1767 36.2999 34.4748 36.2437C34.5116 36.6055 34.6465 36.8707 34.8726 37.0417C35.6468 36.9736 36.3597 36.8461 37.2654 36.9087C37.3445 36.6723 36.877 36.3569 37.2654 36.2437C37.6964 36.2555 37.3588 37.0365 37.9296 36.9087C39.978 36.5548 41.021 36.7776 43.2456 36.7761C43.2115 36.3672 42.957 36.178 42.8481 35.8451C38.8036 35.7426 35.1603 36.0442 31.1514 35.9789Z" fill="#6E6D6D"/>
<path fill-rule="evenodd" clip-rule="evenodd" d="M43.3781 35.8457C43.2919 36.3326 43.6671 36.3559 43.6434 36.7767C44.8502 36.8749 45.708 36.6235 46.8341 36.6441C46.844 35.2175 44.5625 36.08 43.3781 35.8457Z" fill="#6E6D6D"/>
<path fill-rule="evenodd" clip-rule="evenodd" d="M11.2171 37.3073C13.0897 37.0445 15.4418 38.0158 16.5311 36.9087C16.562 37.1608 16.3823 37.202 16.3989 37.4403C17.3295 37.4403 18.2601 37.4403 19.1895 37.4403C19.3454 37.0199 19.4321 36.5311 19.7223 36.2437C20.0362 36.5742 19.7223 37.0267 19.7223 37.4403C20.8211 37.3595 21.6571 37.5444 22.6443 37.5729C22.8727 37.0476 23.1308 36.5524 23.3097 35.9789C19.5283 36.2294 15.2621 35.9947 11.4819 36.2441C11.5056 36.7128 10.9194 36.9712 11.2171 37.3073Z" fill="#6E6D6D"/>
<path fill-rule="evenodd" clip-rule="evenodd" d="M22.912 39.0363C23.3937 39.4899 24.2974 38.705 24.772 39.1673C24.0745 39.1808 23.5762 39.3894 22.7778 39.3011C22.6206 39.6744 22.4797 40.0654 22.3804 40.4969C24.3081 40.521 25.9575 40.2653 27.9628 40.3647C27.9628 39.9653 27.9628 39.5675 27.9628 39.1673C27.5186 39.0343 26.516 39.4618 26.5006 38.9029C27.0971 38.9678 27.4953 38.8344 27.9628 38.7687C27.848 38.2399 28.1607 37.787 27.9628 37.5729C27.1624 37.4862 26.0141 37.749 25.4362 37.4403C26.7646 37.4391 28.2881 37.6335 28.4944 36.5105C28.49 36.822 28.7231 36.9012 28.6262 37.3073C29.4254 37.3956 29.9249 37.187 30.6212 37.1751C30.5788 36.6906 30.6425 36.3106 30.7538 35.9789C28.3598 35.9789 25.9678 35.9789 23.5762 35.9789C23.3573 37.0001 22.9911 37.8753 22.912 39.0363Z" fill="#6E6D6D"/>
<path fill-rule="evenodd" clip-rule="evenodd" d="M10.6835 36.2434C10.543 36.545 9.84874 36.2949 9.48775 36.3768C9.33812 36.7152 9.16 37.0256 8.95654 37.307C9.44381 37.307 9.92989 37.307 10.4183 37.307C10.3942 36.9409 11.3193 36.3657 10.6835 36.2434Z" fill="#6E6D6D"/>
<path fill-rule="evenodd" clip-rule="evenodd" d="M41.1196 37.0413C41.1196 37.2626 41.1196 37.4839 41.1196 37.7059C41.6607 37.8908 43.1657 38.0143 43.5136 37.5726C43.4059 36.7049 41.9924 37.1439 41.1196 37.0413Z" fill="#6E6D6D"/>
<path fill-rule="evenodd" clip-rule="evenodd" d="M43.7773 37.0414C43.6672 37.4171 43.9653 37.385 43.9095 37.706C45.019 37.6186 46.4784 37.8818 47.3667 37.5727C46.8105 36.4718 44.9351 37.383 43.7773 37.0414Z" fill="#6E6D6D"/>
<path fill-rule="evenodd" clip-rule="evenodd" d="M47.6314 37.0413C47.5225 37.417 47.8198 37.3849 47.764 37.7059C48.8568 37.723 49.7601 37.9256 50.9551 37.8381C50.8799 36.541 48.8438 37.2032 47.6314 37.0413Z" fill="#6E6D6D"/>
<path fill-rule="evenodd" clip-rule="evenodd" d="M37.7961 37.3071C37.8587 37.7789 38.0922 38.0746 38.0625 38.6371C39.0367 38.6371 40.0124 38.6371 40.9869 38.6371C40.9149 38.09 40.6057 37.7762 40.5891 37.1749C39.6031 37.1638 38.6096 37.144 37.7961 37.3071Z" fill="#6E6D6D"/>
<path fill-rule="evenodd" clip-rule="evenodd" d="M51.4848 37.1752C51.4127 38.0655 53.454 38.0409 53.8791 37.5731C53.6377 36.8847 52.3152 37.2754 51.4848 37.1752Z" fill="#6E6D6D"/>
<path fill-rule="evenodd" clip-rule="evenodd" d="M54.4111 37.3073C54.5912 37.6406 55.1533 38.0637 55.6057 37.7063C55.7209 37.1438 54.7286 36.9985 54.4111 37.3073Z" fill="#6E6D6D"/>
<path fill-rule="evenodd" clip-rule="evenodd" d="M34.8729 38.6373C35.8035 38.6373 36.7352 38.6373 37.6646 38.6373C37.6646 38.1045 37.3986 37.8381 37.3986 37.3073C36.1858 37.3774 34.327 36.8042 34.8729 38.6373Z" fill="#6E6D6D"/>
<path fill-rule="evenodd" clip-rule="evenodd" d="M31.1514 37.5727C31.1514 37.9277 31.1514 38.282 31.1514 38.637C32.2146 38.637 33.279 38.637 34.3414 38.637C34.3414 38.2373 34.3414 37.8379 34.3414 37.4401C33.292 37.4963 32.3278 37.6427 31.1514 37.5727Z" fill="#6E6D6D"/>
<path fill-rule="evenodd" clip-rule="evenodd" d="M28.6255 37.7061C28.7225 38.0089 28.7438 38.385 28.8919 38.6375C29.4579 38.5829 30.2607 38.7654 30.6205 38.5037C30.6205 38.1934 30.6205 37.8846 30.6205 37.5727C29.9713 37.6345 29.0637 37.4338 28.6255 37.7061Z" fill="#6E6D6D"/>
<path fill-rule="evenodd" clip-rule="evenodd" d="M19.855 37.9715C19.855 38.2378 19.855 38.5038 19.855 38.7691C20.3723 39.0493 21.3837 38.8371 22.114 38.9032C22.2418 38.4987 22.6412 38.3681 22.513 37.7067C21.5444 37.7134 20.4804 37.6211 19.855 37.9715Z" fill="#6E6D6D"/>
<path fill-rule="evenodd" clip-rule="evenodd" d="M8.02534 38.9027C8.70657 38.7982 8.99156 39.0883 9.62014 39.0361C9.81568 38.7424 10.0239 38.4649 10.0191 37.9713C8.95752 37.885 8.00951 37.9111 8.02534 38.9027Z" fill="#6E6D6D"/>
<path fill-rule="evenodd" clip-rule="evenodd" d="M10.4192 39.0363C12.0635 38.9077 13.9258 38.9979 15.4684 38.7688C15.5119 38.4592 15.6291 38.2213 15.7348 37.9712C14.0082 38.3733 10.509 36.9986 10.4192 39.0363Z" fill="#6E6D6D"/>
<path fill-rule="evenodd" clip-rule="evenodd" d="M15.8667 38.9028C16.7949 38.9028 17.7279 38.9028 18.6589 38.9028C18.8045 38.6503 18.8283 38.2731 18.9229 37.9714C17.9484 37.9714 16.975 37.9714 16.0009 37.9714C16.0781 38.4033 15.9098 38.5897 15.8667 38.9028Z" fill="#6E6D6D"/>
<path fill-rule="evenodd" clip-rule="evenodd" d="M41.3855 37.9715C41.3855 38.1493 41.3855 38.3258 41.3855 38.5039C42.0853 38.6908 42.8806 38.7822 43.7771 38.7691C43.9398 37.5448 42.3315 38.0895 41.3855 37.9715Z" fill="#6E6D6D"/>
<path fill-rule="evenodd" clip-rule="evenodd" d="M44.1763 37.9714C44.0805 38.378 44.3125 38.4571 44.3089 38.769C45.4619 38.769 46.613 38.769 47.7637 38.769C47.616 37.4577 45.1508 38.4607 44.1763 37.9714Z" fill="#6E6D6D"/>
<path fill-rule="evenodd" clip-rule="evenodd" d="M48.0296 38.1046C48.0094 38.4355 48.2394 38.5163 48.296 38.7688C49.4538 38.7771 50.6341 38.8056 51.4844 38.5036C50.9544 37.7499 49.1711 38.2491 48.0296 38.1046Z" fill="#6E6D6D"/>
<path fill-rule="evenodd" clip-rule="evenodd" d="M52.0181 38.2375C52.2017 38.8324 54.1848 38.8094 54.5435 38.3713C54.1559 37.9564 52.5896 38.0225 52.0181 38.2375Z" fill="#6E6D6D"/>
<path fill-rule="evenodd" clip-rule="evenodd" d="M55.208 38.1049C55.039 38.6376 56.1065 38.6127 56.2712 38.3716C56.0571 38.1421 55.7159 38.0407 55.208 38.1049Z" fill="#6E6D6D"/>
<path fill-rule="evenodd" clip-rule="evenodd" d="M55.873 38.9026C56.0805 39.7133 56.5396 40.2718 57.6008 40.2306C57.3067 39.5066 56.9754 38.8195 55.873 38.9026Z" fill="#6E6D6D"/>
<path fill-rule="evenodd" clip-rule="evenodd" d="M28.8925 40.3649C29.4253 40.3649 29.9557 40.3649 30.4873 40.3649C30.4873 39.9216 30.4873 39.4786 30.4873 39.0365C29.3552 38.8785 28.5738 39.0705 28.8925 40.3649Z" fill="#6E6D6D"/>
<path fill-rule="evenodd" clip-rule="evenodd" d="M30.8863 40.3648C32.0821 40.3648 33.2787 40.3648 34.4745 40.3648C34.5149 39.8803 34.4519 39.4991 34.3411 39.1674C33.0812 39.1587 30.4778 38.3354 30.8863 40.3648Z" fill="#6E6D6D"/>
<path fill-rule="evenodd" clip-rule="evenodd" d="M34.8731 39.167C34.6577 39.3832 34.9914 39.7236 34.8731 40.231C35.8923 40.231 36.9108 40.231 37.93 40.231C37.9882 39.6871 37.8069 39.3804 37.6648 39.036C36.6064 38.9517 35.9469 39.2664 34.8731 39.167Z" fill="#6E6D6D"/>
<path fill-rule="evenodd" clip-rule="evenodd" d="M38.1948 39.1674C38.1663 39.596 38.4303 39.7302 38.3286 40.2313C39.3482 40.2313 40.3671 40.2313 41.3856 40.2313C41.4921 39.7706 41.1869 39.7207 41.253 39.3011C40.5025 39.0545 39.0569 38.8697 38.1948 39.1674Z" fill="#6E6D6D"/>
<path fill-rule="evenodd" clip-rule="evenodd" d="M48.5626 39.1669C48.5567 39.6605 48.7665 39.9384 48.9616 40.2309C50.1265 40.3148 51.643 40.1066 52.4164 40.2309C52.574 38.7481 50.1911 39.032 48.5626 39.1669Z" fill="#6E6D6D"/>
<path fill-rule="evenodd" clip-rule="evenodd" d="M52.6836 39.0362C52.7544 39.5828 53.1004 39.8599 53.3474 40.2312C54.3314 40.3301 54.9042 40.0151 55.8728 40.0994C55.8946 39.1886 54.2254 38.8236 52.6836 39.0362Z" fill="#6E6D6D"/>
<path fill-rule="evenodd" clip-rule="evenodd" d="M41.6511 39.1671C41.7897 39.4723 41.7378 39.9703 41.9179 40.2311C42.7147 40.2311 43.5139 40.2311 44.3091 40.2311C44.397 39.7462 44.0217 39.7225 44.0439 39.3009C43.4415 39.061 42.4562 39.2063 41.6511 39.1671Z" fill="#6E6D6D"/>
<path fill-rule="evenodd" clip-rule="evenodd" d="M44.5751 39.3009C44.4782 39.707 44.8039 39.692 44.7089 40.0993C45.6953 40.3954 47.2236 40.1515 48.4293 40.2311C48.3676 39.762 48.0941 39.5044 47.8977 39.1671C46.7752 39.1968 45.8089 39.382 44.5751 39.3009Z" fill="#6E6D6D"/>
<path fill-rule="evenodd" clip-rule="evenodd" d="M15.7347 39.5675C15.6175 39.9368 15.4149 40.2226 15.3357 40.6303C16.355 40.6303 17.3734 40.6303 18.3927 40.6303C18.4651 40.2158 18.5015 39.7626 18.6591 39.4341C17.544 39.3379 16.7646 39.5777 15.7347 39.5675Z" fill="#6E6D6D"/>
<path fill-rule="evenodd" clip-rule="evenodd" d="M19.7221 40.6304C20.4085 40.607 21.2211 40.7127 21.7151 40.497C21.8972 40.2358 21.8414 39.7366 21.9811 39.4342C21.2718 39.4342 20.5641 39.4342 19.8547 39.4342C19.9588 39.9808 19.6513 40.1166 19.7221 40.6304Z" fill="#6E6D6D"/>
<path fill-rule="evenodd" clip-rule="evenodd" d="M6.69653 40.6304C7.49532 40.6304 8.29212 40.6304 9.09051 40.6304C9.26824 40.3656 9.34345 39.9975 9.48872 39.7002C8.07363 39.3155 7.18301 39.7493 6.69653 40.6304Z" fill="#6E6D6D"/>
<path fill-rule="evenodd" clip-rule="evenodd" d="M10.0199 39.7003C9.87144 40.038 9.69293 40.3491 9.48828 40.6306C11.2173 40.6306 12.9431 40.6306 14.6713 40.6306C14.8015 40.3174 14.9044 39.9774 14.9365 39.5677C13.4529 39.7657 11.6907 39.6881 10.0199 39.7003Z" fill="#6E6D6D"/>
<path fill-rule="evenodd" clip-rule="evenodd" d="M35.0063 41.2953C35.2241 41.9172 35.3721 42.6123 35.5368 43.2883C36.4678 43.2883 37.3983 43.2883 38.3285 43.2883C38.1069 42.5351 37.6988 41.969 37.5306 41.1616C36.5477 41.0642 35.9073 41.31 35.0063 41.2953Z" fill="#91BCB4"/>
<path fill-rule="evenodd" clip-rule="evenodd" d="M25.4359 41.6928C25.5234 42.1797 25.1485 42.203 25.1707 42.6242C27.4238 42.7184 30.1011 42.3891 31.9489 42.889C29.7429 43.1661 26.815 42.718 24.9043 43.2888C27.7946 43.2979 31.9263 43.398 35.0063 43.1558C34.5776 42.7425 34.58 41.8978 34.3409 41.2958C31.58 41.6346 28.2669 41.422 25.4359 41.6928Z" fill="#91BCB4"/>
<path fill-rule="evenodd" clip-rule="evenodd" d="M57.4668 42.889C57.8211 43.0232 57.905 43.4266 58.1326 43.687C59.3141 43.7614 60.1133 43.4527 61.321 43.5548C61.4417 42.4073 58.8498 42.6832 57.4668 42.889Z" fill="#91BCB4"/>
<path fill-rule="evenodd" clip-rule="evenodd" d="M4.43799 43.6862C5.43904 43.4713 7.30736 44.1022 7.49498 43.4214C6.85255 42.9539 4.48588 42.4338 4.43799 43.6862Z" fill="#91BCB4"/>
<path fill-rule="evenodd" clip-rule="evenodd" d="M9.48871 45.5464C9.34898 45.5548 9.3846 45.7182 9.62091 45.6802C27.6518 46.137 46.0341 45.7558 63.5808 45.415C45.744 45.3572 27.5488 45.1918 9.48871 45.5464Z" fill="#6E6D6D"/>
<path fill-rule="evenodd" clip-rule="evenodd" d="M61.3205 46.4788C60.6852 46.4495 59.9315 46.4788 59.3279 46.4788C51.7624 46.4788 44.4332 46.4534 37.1329 46.7432C29.8844 47.0341 22.4701 46.7175 14.9363 46.6118C11.1894 46.5579 7.30987 46.0691 3.90533 46.4788C3.37492 46.5417 1.80506 46.3945 1.64673 47.0092C2.84134 47.9156 4.54222 47.3722 6.03173 47.4086C12.3381 47.5602 18.7015 47.4086 25.4361 47.4086C37.0794 47.4086 48.8791 47.5412 60.1247 47.5412C60.9994 47.5412 62.8915 48.0102 62.7834 46.8762C62.6675 46.1384 61.6906 46.4946 61.3205 46.4788Z" fill="#6E6D6D"/>
<path fill-rule="evenodd" clip-rule="evenodd" d="M63.3146 46.4786C63.3313 46.8617 63.2414 47.3478 63.4484 47.541C63.8973 47.3704 64.7175 47.5699 64.7756 47.009C64.7756 46.876 64.7756 46.743 64.7756 46.6116C64.4914 46.3634 63.8035 46.5213 63.3146 46.4786Z" fill="#6E6D6D"/>
<path fill-rule="evenodd" clip-rule="evenodd" d="M23.8423 10.8589C24.1653 10.9464 25.7648 10.5886 24.9043 10.5929C22.5479 10.6052 22.9695 7.98361 24.9043 7.40293C25.6148 7.24222 25.6999 8.20567 26.2339 7.80192C25.7027 4.08072 20.5712 9.97859 23.8423 10.8589Z" fill="#6E6D6D"/>
<path fill-rule="evenodd" clip-rule="evenodd" d="M19.3232 27.7377C19.8667 28.2143 20.0844 29.7216 20.918 29.4655C20.3002 29.0617 19.8347 27.8042 19.3232 27.7377Z" fill="#A0A0A0"/>
<path fill-rule="evenodd" clip-rule="evenodd" d="M56.4053 36.9084C56.7165 38.1042 58.4878 38.9885 58.7966 40.63C52.4918 41.295 44.1433 40.5595 37.93 41.1612C38.3812 41.9509 38.8277 42.7453 38.992 43.82C34.3236 44.2617 28.6996 43.9763 24.2398 43.953C24.3107 42.9139 24.7726 42.2683 24.9052 41.295C19.9728 41.2455 14.2459 41.6865 8.95761 41.5602C7.77329 41.5317 6.24341 41.7621 5.50123 40.8948C6.76907 40.0078 7.58804 37.7179 8.82461 36.3768C8.15922 36.4671 7.79704 36.2537 7.22982 36.2434C5.14023 38.8484 3.49199 41.8986 1.78003 44.8824C13.5995 45.1805 26.4054 44.1521 36.8672 44.6172C36.7362 44.6172 36.6024 44.6172 36.4686 44.6172C44.4639 44.7494 54.3138 44.6746 63.0501 44.6172C62.5823 42.9353 61.3643 41.3722 60.2595 39.965C59.321 38.7716 58.2155 36.3206 56.4053 36.9084ZM7.62762 44.2174C6.2917 44.1802 4.98744 44.1121 3.77383 43.953C3.57393 42.0645 6.9464 42.4944 8.15962 42.8882C8.21424 43.5627 7.89046 43.8616 7.62762 44.2174ZM9.62102 44.3512C13.0901 43.7448 17.3262 43.9059 21.3162 43.82C18.3352 44.8278 13.3157 44.4996 9.62102 44.3512ZM40.721 43.6862C45.3221 43.5465 50.3349 43.1138 54.9428 43.4214C50.6852 43.8631 45.1289 44.2617 40.721 43.6862ZM62.2525 43.554C61.7043 43.3929 61.5139 42.8755 61.0567 42.6234C61.2974 43.1799 61.8809 43.3925 62.1191 43.9526C60.8299 44.1232 59.3333 44.0915 57.866 44.086C57.5441 43.6086 57.2219 43.1356 56.9365 42.6234C58.5824 42.338 61.8547 41.8191 62.2525 43.554Z" fill="#6E6D6D"/>
</g>
<defs>
<filter id="filter0_d_1502_1673" x="0" y="0" width="70" height="55.014" filterUnits="userSpaceOnUse" color-interpolation-filters="sRGB">
<feFlood flood-opacity="0" result="BackgroundImageFix"/>
<feColorMatrix in="SourceAlpha" type="matrix" values="0 0 0 0 0 0 0 0 0 0 0 0 0 0 0 0 0 0 127 0" result="hardAlpha"/>
<feOffset dx="2" dy="4"/>
<feGaussianBlur stdDeviation="1"/>
<feComposite in2="hardAlpha" operator="out"/>
<feColorMatrix type="matrix" values="0 0 0 0 0 0 0 0 0 0 0 0 0 0 0 0 0 0 0.25 0"/>
<feBlend mode="normal" in2="BackgroundImageFix" result="effect1_dropShadow_1502_1673"/>
<feBlend mode="normal" in="SourceGraphic" in2="effect1_dropShadow_1502_1673" result="shape"/>
</filter>
</defs>
</svg>
