<svg width="465" height="57" viewBox="0 0 465 57" fill="none" xmlns="http://www.w3.org/2000/svg">
<g style="mix-blend-mode:hard-light" filter="url(#filter0_d_743_2105)">
<mask id="path-1-outside-1_743_2105" maskUnits="userSpaceOnUse" x="-5.51367" y="-3" width="471" height="55" fill="black">
<rect fill="white" x="-5.51367" y="-3" width="471" height="55"/>
<path d="M0.286322 0.855999H14.4303L14.3663 2.264C14.3663 2.904 14.473 3.8 14.6863 4.952C14.8997 6.06133 15.1983 7.17066 15.5823 8.28L24.7343 36.824L29.9183 20.76L25.8223 8.216C25.737 7.87467 25.5663 7.384 25.3103 6.744C25.097 6.104 24.8623 5.528 24.6063 5.016C24.393 4.46133 24.1583 3.94933 23.9023 3.48C23.689 2.968 23.2197 2.09333 22.4943 0.855999H36.3823V1.304V2.648C36.553 3.672 36.7237 4.58933 36.8943 5.4C37.065 6.168 37.3423 7.128 37.7263 8.28L46.9423 36.888L50.3343 26.008C50.9317 24.0453 51.4223 21.6347 51.8063 18.776C52.1903 15.9173 52.3823 13.208 52.3823 10.648C52.3823 8.68533 52.297 7.17066 52.1263 6.104C51.9557 5.03733 51.4863 3.288 50.7183 0.855999H61.8543C60.9157 2.81867 60.1263 4.52533 59.4863 5.976C58.5477 8.152 57.737 10.328 57.0543 12.504L54.4303 20.44L45.6623 47H38.3663L30.9423 24.024L23.3903 47H16.2223L3.67832 8.28C3.46499 7.55466 3.29432 7.02133 3.16632 6.68C2.82499 5.912 2.59032 5.35733 2.46232 5.016C1.95032 3.82133 1.22499 2.43467 0.286322 0.855999ZM72.9713 32.728C73.4407 34.648 73.8887 36.0773 74.3153 37.016C74.742 37.9547 75.3607 38.9147 76.1713 39.896C77.75 41.7733 79.6913 42.712 81.9953 42.712C83.4887 42.712 84.7047 42.456 85.6433 41.944C86.582 41.432 87.6273 40.4293 88.7793 38.936C88.054 40.6 87.35 41.9227 86.6673 42.904C85.7287 44.44 84.3207 45.656 82.4433 46.552C80.566 47.448 78.518 47.896 76.2993 47.896C71.8193 47.896 68.2353 46.2533 65.5473 42.968C62.8593 39.6827 61.5153 35.288 61.5153 29.784C61.5153 24.152 63.03 19.608 66.0593 16.152C69.0887 12.696 73.078 10.968 78.0273 10.968C81.4407 10.968 84.15 11.864 86.1553 13.656C88.2033 15.4053 89.2273 17.7733 89.2273 20.76C89.2273 24.984 87.2007 28.248 83.1473 30.552C81.6113 31.4053 80.1607 31.9813 78.7953 32.28C77.43 32.5787 75.4887 32.728 72.9713 32.728ZM76.9393 12.568C75.446 12.568 74.2087 13.528 73.2273 15.448C72.2887 17.368 71.8193 19.928 71.8193 23.128V24.152C71.8193 26.7973 72.0113 28.5893 72.3953 29.528C72.822 30.4667 73.59 30.936 74.6993 30.936C76.4487 30.936 77.814 30.04 78.7953 28.248C79.7767 26.4133 80.2673 23.8107 80.2673 20.44C80.2673 17.6667 80.0113 15.6613 79.4993 14.424C78.9873 13.1867 78.134 12.568 76.9393 12.568ZM97.6173 47L98.1293 45.4C98.4707 43.864 98.6413 42.008 98.6413 39.832L98.5773 8.28C98.5773 6.44533 98.5347 5.144 98.4493 4.376C98.364 3.608 98.0867 2.43467 97.6173 0.855999H109.265V39.704L109.393 43.032C109.521 44.056 109.607 44.76 109.649 45.144C109.735 45.528 109.927 46.1467 110.225 47H97.6173ZM137.085 12.632L135.677 12.504C133.8 12.504 132.285 13.656 131.133 15.96C129.981 18.2213 129.405 21.2507 129.405 25.048C129.405 29.6987 130.216 33.4747 131.837 36.376C133.459 39.2773 135.592 40.728 138.237 40.728C139.261 40.728 140.349 40.3867 141.501 39.704C142.227 39.32 142.824 38.8933 143.293 38.424C143.763 37.9547 144.317 37.1867 144.957 36.12C144.701 37.9973 144.403 39.4053 144.061 40.344C143.763 41.24 143.229 42.2213 142.461 43.288C140.115 46.4027 136.936 47.96 132.925 47.96C128.787 47.96 125.459 46.296 122.941 42.968C120.424 39.64 119.165 35.224 119.165 29.72C119.165 24.088 120.659 19.5867 123.645 16.216C126.675 12.8027 130.685 11.096 135.677 11.096C138.451 11.096 140.669 11.608 142.333 12.632C143.997 13.656 144.829 15.0427 144.829 16.792C144.829 18.0293 144.403 19.0747 143.549 19.928C142.696 20.7813 141.608 21.208 140.285 21.208C139.091 21.208 138.024 20.76 137.085 19.864C136.147 18.968 135.677 17.944 135.677 16.792C135.677 16.28 135.784 15.6827 135.997 15C136.253 14.3173 136.616 13.528 137.085 12.632ZM166.972 11.16C165.735 12.5253 164.882 13.6987 164.412 14.68C163.943 15.6187 163.516 16.984 163.132 18.776C162.962 19.672 162.812 20.7387 162.684 21.976C162.556 23.2133 162.492 24.3653 162.492 25.432C162.492 30.3813 163.239 34.392 164.732 37.464C166.226 40.4933 168.21 42.008 170.684 42.008C172.391 42.008 173.778 41.1973 174.844 39.576C175.911 37.9547 176.444 35.8 176.444 33.112C176.444 32.088 176.402 31.2773 176.316 30.68C176.231 30.04 176.082 29.144 175.868 27.992C175.527 26.6267 175.228 25.6667 174.972 25.112C174.759 24.5147 174.226 23.512 173.372 22.104C172.391 22.7867 171.559 23.128 170.876 23.128C169.682 23.128 168.615 22.5093 167.676 21.272C166.738 20.0347 166.268 18.584 166.268 16.92C166.268 15.256 166.716 13.8693 167.612 12.76C168.508 11.6507 169.639 11.096 171.004 11.096C173.266 11.096 175.186 12.8027 176.764 16.216C178.386 19.5867 179.196 23.6827 179.196 28.504C179.196 34.6053 177.98 39.384 175.548 42.84C173.116 46.296 169.767 48.024 165.5 48.024C161.362 48.024 158.034 46.3387 155.516 42.968C152.999 39.5973 151.74 35.16 151.74 29.656C151.74 23.8533 153.404 19.1813 156.732 15.64C157.97 14.3173 159.314 13.336 160.764 12.696C162.258 12.056 164.327 11.544 166.972 11.16ZM187.902 47L188.478 45.4C188.819 43.7787 188.99 41.9227 188.99 39.832V19.352L188.798 16.088C188.798 15.2773 188.691 14.4667 188.478 13.656C188.435 13.4853 188.243 12.9093 187.902 11.928H199.614V20.44C200.168 19.1173 200.638 18.0933 201.022 17.368C201.448 16.6 201.982 15.8533 202.622 15.128C204.926 12.4827 207.699 11.16 210.942 11.16C214.056 11.16 216.232 12.2693 217.47 14.488C217.939 15.4267 218.259 16.2373 218.43 16.92C218.6 17.56 218.686 18.6693 218.686 20.248C219.923 17.7733 221.075 15.96 222.142 14.808C224.446 12.376 227.219 11.16 230.462 11.16C233.363 11.16 235.496 12.0773 236.862 13.912C238.227 15.7467 238.91 18.648 238.91 22.616V39.704L239.102 43.032C239.102 43.8427 239.144 44.4613 239.23 44.888C239.358 45.272 239.614 45.976 239.998 47H227.39L227.838 45.4C227.966 44.888 228.072 44.0773 228.158 42.968C228.243 41.8587 228.286 40.8133 228.286 39.832V22.936C228.286 21.0587 228.03 19.736 227.518 18.968C227.048 18.1573 226.216 17.752 225.022 17.752C223.827 17.752 222.803 18.1573 221.95 18.968C221.096 19.736 220.328 20.9307 219.646 22.552C218.963 24.1307 218.622 25.5173 218.622 26.712V39.832L218.75 43.032C218.75 43.7147 218.792 44.2693 218.878 44.696C218.963 45.1227 219.198 45.8907 219.582 47H208.254L208.766 45.4C209.064 44.248 209.214 42.392 209.214 39.832V22.936C209.214 21.016 208.979 19.6933 208.51 18.968C208.04 18.2427 207.187 17.88 205.95 17.88C204.584 17.88 203.475 18.264 202.622 19.032C201.768 19.7573 201.043 20.888 200.446 22.424C199.848 23.96 199.55 25.4533 199.55 26.904V39.832L199.742 43.032C199.87 44.0987 199.955 44.824 199.998 45.208C200.083 45.5493 200.275 46.1467 200.574 47H187.902ZM260.284 32.728C260.753 34.648 261.201 36.0773 261.628 37.016C262.054 37.9547 262.673 38.9147 263.484 39.896C265.062 41.7733 267.004 42.712 269.308 42.712C270.801 42.712 272.017 42.456 272.956 41.944C273.894 41.432 274.94 40.4293 276.092 38.936C275.366 40.6 274.662 41.9227 273.98 42.904C273.041 44.44 271.633 45.656 269.756 46.552C267.878 47.448 265.83 47.896 263.612 47.896C259.132 47.896 255.548 46.2533 252.86 42.968C250.172 39.6827 248.828 35.288 248.828 29.784C248.828 24.152 250.342 19.608 253.372 16.152C256.401 12.696 260.39 10.968 265.34 10.968C268.753 10.968 271.462 11.864 273.468 13.656C275.516 15.4053 276.54 17.7733 276.54 20.76C276.54 24.984 274.513 28.248 270.46 30.552C268.924 31.4053 267.473 31.9813 266.108 32.28C264.742 32.5787 262.801 32.728 260.284 32.728ZM264.252 12.568C262.758 12.568 261.521 13.528 260.54 15.448C259.601 17.368 259.132 19.928 259.132 23.128V24.152C259.132 26.7973 259.324 28.5893 259.708 29.528C260.134 30.4667 260.902 30.936 262.012 30.936C263.761 30.936 265.126 30.04 266.108 28.248C267.089 26.4133 267.58 23.8107 267.58 20.44C267.58 17.6667 267.324 15.6613 266.812 14.424C266.3 13.1867 265.446 12.568 264.252 12.568ZM306.564 0.855999H326.852C329.284 0.855999 331.183 0.983999 332.548 1.24C333.914 1.496 335.3 1.98666 336.708 2.712C340.036 4.504 341.7 7.256 341.7 10.968C341.7 14.424 340.143 17.1333 337.028 19.096C335.919 19.8213 334.852 20.3333 333.828 20.632C332.847 20.9307 331.396 21.1867 329.476 21.4C331.866 21.6987 333.679 22.0187 334.916 22.36C336.196 22.6587 337.455 23.128 338.692 23.768C340.442 24.7067 341.828 26.0293 342.852 27.736C343.876 29.4427 344.388 31.32 344.388 33.368C344.388 35.544 343.834 37.6133 342.724 39.576C341.615 41.496 340.122 43.0107 338.244 44.12C334.831 46.04 330.244 47 324.484 47H306.564L307.14 45.4C307.226 44.9733 307.332 44.0987 307.46 42.776C307.588 41.4533 307.652 40.472 307.652 39.832V8.216L307.524 4.952C307.354 3.71466 307.247 3.032 307.204 2.904C307.204 2.776 306.991 2.09333 306.564 0.855999ZM319.428 3.096V20.824H323.652C325.828 20.824 327.535 20.0133 328.772 18.392C330.01 16.7707 330.628 14.552 330.628 11.736C330.628 8.92 330.031 6.76533 328.836 5.272C327.684 3.736 326.02 2.968 323.844 2.968L319.428 3.096ZM319.364 22.872V44.952H323.14C329.199 44.952 332.228 41.1973 332.228 33.688C332.228 30.4027 331.439 27.7787 329.86 25.816C328.282 23.8533 326.148 22.872 323.46 22.872H319.364ZM371.006 24.536V18.84C371.006 16.8347 370.707 15.448 370.11 14.68C369.171 13.528 367.72 12.952 365.758 12.952C364.862 12.952 364.115 13.0373 363.518 13.208C362.92 13.3787 362.067 13.7627 360.958 14.36C361.896 14.872 362.558 15.4053 362.942 15.96C363.326 16.472 363.518 17.1547 363.518 18.008C363.518 19.16 363.112 20.1413 362.302 20.952C361.491 21.7627 360.51 22.168 359.358 22.168C358.206 22.168 357.224 21.7627 356.414 20.952C355.646 20.0987 355.262 19.096 355.262 17.944C355.262 15.9387 356.435 14.296 358.782 13.016C361.128 11.736 364.2 11.096 367.998 11.096C372.99 11.096 376.702 12.3547 379.134 14.872C380.03 15.8533 380.648 16.9627 380.99 18.2C381.331 19.3947 381.502 21.1867 381.502 23.576V39.832L381.694 43.032C381.694 43.8427 381.715 44.3547 381.758 44.568C381.8 44.7813 382.056 45.592 382.526 47H370.942V41.176C369.491 43.736 367.763 45.5493 365.758 46.616C364.947 47 364.03 47.2987 363.006 47.512C361.982 47.768 361.043 47.896 360.19 47.896C357.374 47.896 355.155 47.0853 353.534 45.464C351.955 43.8 351.166 41.5387 351.166 38.68C351.166 34.4987 352.915 31.2773 356.414 29.016C357.95 28.0347 359.614 27.2667 361.406 26.712C362.856 26.2 364.136 25.816 365.246 25.56C366.355 25.304 368.275 24.9627 371.006 24.536ZM370.878 34.392V26.2C367.763 26.6267 365.416 27.5653 363.838 29.016C363.112 29.6133 362.515 30.552 362.046 31.832C361.576 33.112 361.342 34.392 361.342 35.672C361.342 37.592 361.768 39.2133 362.622 40.536C363.518 41.816 364.627 42.456 365.95 42.456C369.235 42.456 370.878 39.768 370.878 34.392ZM409.298 12.632L407.89 12.504C406.012 12.504 404.498 13.656 403.346 15.96C402.194 18.2213 401.618 21.2507 401.618 25.048C401.618 29.6987 402.428 33.4747 404.05 36.376C405.671 39.2773 407.804 40.728 410.45 40.728C411.474 40.728 412.562 40.3867 413.714 39.704C414.439 39.32 415.036 38.8933 415.506 38.424C415.975 37.9547 416.53 37.1867 417.17 36.12C416.914 37.9973 416.615 39.4053 416.274 40.344C415.975 41.24 415.442 42.2213 414.674 43.288C412.327 46.4027 409.148 47.96 405.138 47.96C400.999 47.96 397.671 46.296 395.154 42.968C392.636 39.64 391.378 35.224 391.378 29.72C391.378 24.088 392.871 19.5867 395.858 16.216C398.887 12.8027 402.898 11.096 407.89 11.096C410.663 11.096 412.882 11.608 414.546 12.632C416.21 13.656 417.042 15.0427 417.042 16.792C417.042 18.0293 416.615 19.0747 415.762 19.928C414.908 20.7813 413.82 21.208 412.498 21.208C411.303 21.208 410.236 20.76 409.298 19.864C408.359 18.968 407.89 17.944 407.89 16.792C407.89 16.28 407.996 15.6827 408.21 15C408.466 14.3173 408.828 13.528 409.298 12.632ZM424.977 47L425.553 45.4C425.894 43.864 426.065 41.9653 426.065 39.704V8.28L425.873 5.016C425.702 3.608 425.404 2.22133 424.977 0.855999H436.625V27.224L437.713 25.944C438.268 25.2613 438.716 24.6 439.057 23.96C439.398 23.32 440.188 21.656 441.425 18.968C441.766 18.2853 442.022 17.7733 442.193 17.432C442.534 16.7493 442.982 16.0027 443.537 15.192C445.372 12.4613 447.74 11.096 450.641 11.096C452.049 11.096 453.201 11.48 454.097 12.248C454.993 13.016 455.441 14.0187 455.441 15.256C455.441 16.3653 455.036 17.304 454.225 18.072C453.414 18.84 452.454 19.224 451.345 19.224C450.15 19.224 449.148 18.84 448.337 18.072C447.526 17.304 447.121 16.3867 447.121 15.32L447.185 14.04C445.99 15.1067 445.18 15.896 444.753 16.408C444.369 16.92 443.9 17.752 443.345 18.904L441.937 21.656L440.337 24.28C441.404 23.7253 442.236 23.3627 442.833 23.192C443.473 23.0213 444.198 22.936 445.009 22.936C447.526 22.936 449.596 23.9387 451.217 25.944C452.07 27.0107 452.796 28.2693 453.393 29.72C454.033 31.128 454.652 32.984 455.249 35.288L456.721 40.536C457.02 41.7307 457.361 42.776 457.745 43.672C458.129 44.5253 458.726 45.6347 459.537 47H448.593C447.825 46.0613 447.292 45.2933 446.993 44.696C446.694 44.056 446.417 43.096 446.161 41.816L445.201 37.4C444.817 35.608 444.497 34.2853 444.241 33.432C443.985 32.5787 443.665 31.7467 443.281 30.936C442.684 29.4427 441.574 28.696 439.953 28.696C438.844 28.696 437.734 29.1867 436.625 30.168V39.704L436.817 43.032C436.817 43.8 436.838 44.312 436.881 44.568C436.924 44.824 437.18 45.6347 437.649 47H424.977Z"/>
</mask>
<path d="M0.286322 0.855999H14.4303L14.3663 2.264C14.3663 2.904 14.473 3.8 14.6863 4.952C14.8997 6.06133 15.1983 7.17066 15.5823 8.28L24.7343 36.824L29.9183 20.76L25.8223 8.216C25.737 7.87467 25.5663 7.384 25.3103 6.744C25.097 6.104 24.8623 5.528 24.6063 5.016C24.393 4.46133 24.1583 3.94933 23.9023 3.48C23.689 2.968 23.2197 2.09333 22.4943 0.855999H36.3823V1.304V2.648C36.553 3.672 36.7237 4.58933 36.8943 5.4C37.065 6.168 37.3423 7.128 37.7263 8.28L46.9423 36.888L50.3343 26.008C50.9317 24.0453 51.4223 21.6347 51.8063 18.776C52.1903 15.9173 52.3823 13.208 52.3823 10.648C52.3823 8.68533 52.297 7.17066 52.1263 6.104C51.9557 5.03733 51.4863 3.288 50.7183 0.855999H61.8543C60.9157 2.81867 60.1263 4.52533 59.4863 5.976C58.5477 8.152 57.737 10.328 57.0543 12.504L54.4303 20.44L45.6623 47H38.3663L30.9423 24.024L23.3903 47H16.2223L3.67832 8.28C3.46499 7.55466 3.29432 7.02133 3.16632 6.68C2.82499 5.912 2.59032 5.35733 2.46232 5.016C1.95032 3.82133 1.22499 2.43467 0.286322 0.855999ZM72.9713 32.728C73.4407 34.648 73.8887 36.0773 74.3153 37.016C74.742 37.9547 75.3607 38.9147 76.1713 39.896C77.75 41.7733 79.6913 42.712 81.9953 42.712C83.4887 42.712 84.7047 42.456 85.6433 41.944C86.582 41.432 87.6273 40.4293 88.7793 38.936C88.054 40.6 87.35 41.9227 86.6673 42.904C85.7287 44.44 84.3207 45.656 82.4433 46.552C80.566 47.448 78.518 47.896 76.2993 47.896C71.8193 47.896 68.2353 46.2533 65.5473 42.968C62.8593 39.6827 61.5153 35.288 61.5153 29.784C61.5153 24.152 63.03 19.608 66.0593 16.152C69.0887 12.696 73.078 10.968 78.0273 10.968C81.4407 10.968 84.15 11.864 86.1553 13.656C88.2033 15.4053 89.2273 17.7733 89.2273 20.76C89.2273 24.984 87.2007 28.248 83.1473 30.552C81.6113 31.4053 80.1607 31.9813 78.7953 32.28C77.43 32.5787 75.4887 32.728 72.9713 32.728ZM76.9393 12.568C75.446 12.568 74.2087 13.528 73.2273 15.448C72.2887 17.368 71.8193 19.928 71.8193 23.128V24.152C71.8193 26.7973 72.0113 28.5893 72.3953 29.528C72.822 30.4667 73.59 30.936 74.6993 30.936C76.4487 30.936 77.814 30.04 78.7953 28.248C79.7767 26.4133 80.2673 23.8107 80.2673 20.44C80.2673 17.6667 80.0113 15.6613 79.4993 14.424C78.9873 13.1867 78.134 12.568 76.9393 12.568ZM97.6173 47L98.1293 45.4C98.4707 43.864 98.6413 42.008 98.6413 39.832L98.5773 8.28C98.5773 6.44533 98.5347 5.144 98.4493 4.376C98.364 3.608 98.0867 2.43467 97.6173 0.855999H109.265V39.704L109.393 43.032C109.521 44.056 109.607 44.76 109.649 45.144C109.735 45.528 109.927 46.1467 110.225 47H97.6173ZM137.085 12.632L135.677 12.504C133.8 12.504 132.285 13.656 131.133 15.96C129.981 18.2213 129.405 21.2507 129.405 25.048C129.405 29.6987 130.216 33.4747 131.837 36.376C133.459 39.2773 135.592 40.728 138.237 40.728C139.261 40.728 140.349 40.3867 141.501 39.704C142.227 39.32 142.824 38.8933 143.293 38.424C143.763 37.9547 144.317 37.1867 144.957 36.12C144.701 37.9973 144.403 39.4053 144.061 40.344C143.763 41.24 143.229 42.2213 142.461 43.288C140.115 46.4027 136.936 47.96 132.925 47.96C128.787 47.96 125.459 46.296 122.941 42.968C120.424 39.64 119.165 35.224 119.165 29.72C119.165 24.088 120.659 19.5867 123.645 16.216C126.675 12.8027 130.685 11.096 135.677 11.096C138.451 11.096 140.669 11.608 142.333 12.632C143.997 13.656 144.829 15.0427 144.829 16.792C144.829 18.0293 144.403 19.0747 143.549 19.928C142.696 20.7813 141.608 21.208 140.285 21.208C139.091 21.208 138.024 20.76 137.085 19.864C136.147 18.968 135.677 17.944 135.677 16.792C135.677 16.28 135.784 15.6827 135.997 15C136.253 14.3173 136.616 13.528 137.085 12.632ZM166.972 11.16C165.735 12.5253 164.882 13.6987 164.412 14.68C163.943 15.6187 163.516 16.984 163.132 18.776C162.962 19.672 162.812 20.7387 162.684 21.976C162.556 23.2133 162.492 24.3653 162.492 25.432C162.492 30.3813 163.239 34.392 164.732 37.464C166.226 40.4933 168.21 42.008 170.684 42.008C172.391 42.008 173.778 41.1973 174.844 39.576C175.911 37.9547 176.444 35.8 176.444 33.112C176.444 32.088 176.402 31.2773 176.316 30.68C176.231 30.04 176.082 29.144 175.868 27.992C175.527 26.6267 175.228 25.6667 174.972 25.112C174.759 24.5147 174.226 23.512 173.372 22.104C172.391 22.7867 171.559 23.128 170.876 23.128C169.682 23.128 168.615 22.5093 167.676 21.272C166.738 20.0347 166.268 18.584 166.268 16.92C166.268 15.256 166.716 13.8693 167.612 12.76C168.508 11.6507 169.639 11.096 171.004 11.096C173.266 11.096 175.186 12.8027 176.764 16.216C178.386 19.5867 179.196 23.6827 179.196 28.504C179.196 34.6053 177.98 39.384 175.548 42.84C173.116 46.296 169.767 48.024 165.5 48.024C161.362 48.024 158.034 46.3387 155.516 42.968C152.999 39.5973 151.74 35.16 151.74 29.656C151.74 23.8533 153.404 19.1813 156.732 15.64C157.97 14.3173 159.314 13.336 160.764 12.696C162.258 12.056 164.327 11.544 166.972 11.16ZM187.902 47L188.478 45.4C188.819 43.7787 188.99 41.9227 188.99 39.832V19.352L188.798 16.088C188.798 15.2773 188.691 14.4667 188.478 13.656C188.435 13.4853 188.243 12.9093 187.902 11.928H199.614V20.44C200.168 19.1173 200.638 18.0933 201.022 17.368C201.448 16.6 201.982 15.8533 202.622 15.128C204.926 12.4827 207.699 11.16 210.942 11.16C214.056 11.16 216.232 12.2693 217.47 14.488C217.939 15.4267 218.259 16.2373 218.43 16.92C218.6 17.56 218.686 18.6693 218.686 20.248C219.923 17.7733 221.075 15.96 222.142 14.808C224.446 12.376 227.219 11.16 230.462 11.16C233.363 11.16 235.496 12.0773 236.862 13.912C238.227 15.7467 238.91 18.648 238.91 22.616V39.704L239.102 43.032C239.102 43.8427 239.144 44.4613 239.23 44.888C239.358 45.272 239.614 45.976 239.998 47H227.39L227.838 45.4C227.966 44.888 228.072 44.0773 228.158 42.968C228.243 41.8587 228.286 40.8133 228.286 39.832V22.936C228.286 21.0587 228.03 19.736 227.518 18.968C227.048 18.1573 226.216 17.752 225.022 17.752C223.827 17.752 222.803 18.1573 221.95 18.968C221.096 19.736 220.328 20.9307 219.646 22.552C218.963 24.1307 218.622 25.5173 218.622 26.712V39.832L218.75 43.032C218.75 43.7147 218.792 44.2693 218.878 44.696C218.963 45.1227 219.198 45.8907 219.582 47H208.254L208.766 45.4C209.064 44.248 209.214 42.392 209.214 39.832V22.936C209.214 21.016 208.979 19.6933 208.51 18.968C208.04 18.2427 207.187 17.88 205.95 17.88C204.584 17.88 203.475 18.264 202.622 19.032C201.768 19.7573 201.043 20.888 200.446 22.424C199.848 23.96 199.55 25.4533 199.55 26.904V39.832L199.742 43.032C199.87 44.0987 199.955 44.824 199.998 45.208C200.083 45.5493 200.275 46.1467 200.574 47H187.902ZM260.284 32.728C260.753 34.648 261.201 36.0773 261.628 37.016C262.054 37.9547 262.673 38.9147 263.484 39.896C265.062 41.7733 267.004 42.712 269.308 42.712C270.801 42.712 272.017 42.456 272.956 41.944C273.894 41.432 274.94 40.4293 276.092 38.936C275.366 40.6 274.662 41.9227 273.98 42.904C273.041 44.44 271.633 45.656 269.756 46.552C267.878 47.448 265.83 47.896 263.612 47.896C259.132 47.896 255.548 46.2533 252.86 42.968C250.172 39.6827 248.828 35.288 248.828 29.784C248.828 24.152 250.342 19.608 253.372 16.152C256.401 12.696 260.39 10.968 265.34 10.968C268.753 10.968 271.462 11.864 273.468 13.656C275.516 15.4053 276.54 17.7733 276.54 20.76C276.54 24.984 274.513 28.248 270.46 30.552C268.924 31.4053 267.473 31.9813 266.108 32.28C264.742 32.5787 262.801 32.728 260.284 32.728ZM264.252 12.568C262.758 12.568 261.521 13.528 260.54 15.448C259.601 17.368 259.132 19.928 259.132 23.128V24.152C259.132 26.7973 259.324 28.5893 259.708 29.528C260.134 30.4667 260.902 30.936 262.012 30.936C263.761 30.936 265.126 30.04 266.108 28.248C267.089 26.4133 267.58 23.8107 267.58 20.44C267.58 17.6667 267.324 15.6613 266.812 14.424C266.3 13.1867 265.446 12.568 264.252 12.568ZM306.564 0.855999H326.852C329.284 0.855999 331.183 0.983999 332.548 1.24C333.914 1.496 335.3 1.98666 336.708 2.712C340.036 4.504 341.7 7.256 341.7 10.968C341.7 14.424 340.143 17.1333 337.028 19.096C335.919 19.8213 334.852 20.3333 333.828 20.632C332.847 20.9307 331.396 21.1867 329.476 21.4C331.866 21.6987 333.679 22.0187 334.916 22.36C336.196 22.6587 337.455 23.128 338.692 23.768C340.442 24.7067 341.828 26.0293 342.852 27.736C343.876 29.4427 344.388 31.32 344.388 33.368C344.388 35.544 343.834 37.6133 342.724 39.576C341.615 41.496 340.122 43.0107 338.244 44.12C334.831 46.04 330.244 47 324.484 47H306.564L307.14 45.4C307.226 44.9733 307.332 44.0987 307.46 42.776C307.588 41.4533 307.652 40.472 307.652 39.832V8.216L307.524 4.952C307.354 3.71466 307.247 3.032 307.204 2.904C307.204 2.776 306.991 2.09333 306.564 0.855999ZM319.428 3.096V20.824H323.652C325.828 20.824 327.535 20.0133 328.772 18.392C330.01 16.7707 330.628 14.552 330.628 11.736C330.628 8.92 330.031 6.76533 328.836 5.272C327.684 3.736 326.02 2.968 323.844 2.968L319.428 3.096ZM319.364 22.872V44.952H323.14C329.199 44.952 332.228 41.1973 332.228 33.688C332.228 30.4027 331.439 27.7787 329.86 25.816C328.282 23.8533 326.148 22.872 323.46 22.872H319.364ZM371.006 24.536V18.84C371.006 16.8347 370.707 15.448 370.11 14.68C369.171 13.528 367.72 12.952 365.758 12.952C364.862 12.952 364.115 13.0373 363.518 13.208C362.92 13.3787 362.067 13.7627 360.958 14.36C361.896 14.872 362.558 15.4053 362.942 15.96C363.326 16.472 363.518 17.1547 363.518 18.008C363.518 19.16 363.112 20.1413 362.302 20.952C361.491 21.7627 360.51 22.168 359.358 22.168C358.206 22.168 357.224 21.7627 356.414 20.952C355.646 20.0987 355.262 19.096 355.262 17.944C355.262 15.9387 356.435 14.296 358.782 13.016C361.128 11.736 364.2 11.096 367.998 11.096C372.99 11.096 376.702 12.3547 379.134 14.872C380.03 15.8533 380.648 16.9627 380.99 18.2C381.331 19.3947 381.502 21.1867 381.502 23.576V39.832L381.694 43.032C381.694 43.8427 381.715 44.3547 381.758 44.568C381.8 44.7813 382.056 45.592 382.526 47H370.942V41.176C369.491 43.736 367.763 45.5493 365.758 46.616C364.947 47 364.03 47.2987 363.006 47.512C361.982 47.768 361.043 47.896 360.19 47.896C357.374 47.896 355.155 47.0853 353.534 45.464C351.955 43.8 351.166 41.5387 351.166 38.68C351.166 34.4987 352.915 31.2773 356.414 29.016C357.95 28.0347 359.614 27.2667 361.406 26.712C362.856 26.2 364.136 25.816 365.246 25.56C366.355 25.304 368.275 24.9627 371.006 24.536ZM370.878 34.392V26.2C367.763 26.6267 365.416 27.5653 363.838 29.016C363.112 29.6133 362.515 30.552 362.046 31.832C361.576 33.112 361.342 34.392 361.342 35.672C361.342 37.592 361.768 39.2133 362.622 40.536C363.518 41.816 364.627 42.456 365.95 42.456C369.235 42.456 370.878 39.768 370.878 34.392ZM409.298 12.632L407.89 12.504C406.012 12.504 404.498 13.656 403.346 15.96C402.194 18.2213 401.618 21.2507 401.618 25.048C401.618 29.6987 402.428 33.4747 404.05 36.376C405.671 39.2773 407.804 40.728 410.45 40.728C411.474 40.728 412.562 40.3867 413.714 39.704C414.439 39.32 415.036 38.8933 415.506 38.424C415.975 37.9547 416.53 37.1867 417.17 36.12C416.914 37.9973 416.615 39.4053 416.274 40.344C415.975 41.24 415.442 42.2213 414.674 43.288C412.327 46.4027 409.148 47.96 405.138 47.96C400.999 47.96 397.671 46.296 395.154 42.968C392.636 39.64 391.378 35.224 391.378 29.72C391.378 24.088 392.871 19.5867 395.858 16.216C398.887 12.8027 402.898 11.096 407.89 11.096C410.663 11.096 412.882 11.608 414.546 12.632C416.21 13.656 417.042 15.0427 417.042 16.792C417.042 18.0293 416.615 19.0747 415.762 19.928C414.908 20.7813 413.82 21.208 412.498 21.208C411.303 21.208 410.236 20.76 409.298 19.864C408.359 18.968 407.89 17.944 407.89 16.792C407.89 16.28 407.996 15.6827 408.21 15C408.466 14.3173 408.828 13.528 409.298 12.632ZM424.977 47L425.553 45.4C425.894 43.864 426.065 41.9653 426.065 39.704V8.28L425.873 5.016C425.702 3.608 425.404 2.22133 424.977 0.855999H436.625V27.224L437.713 25.944C438.268 25.2613 438.716 24.6 439.057 23.96C439.398 23.32 440.188 21.656 441.425 18.968C441.766 18.2853 442.022 17.7733 442.193 17.432C442.534 16.7493 442.982 16.0027 443.537 15.192C445.372 12.4613 447.74 11.096 450.641 11.096C452.049 11.096 453.201 11.48 454.097 12.248C454.993 13.016 455.441 14.0187 455.441 15.256C455.441 16.3653 455.036 17.304 454.225 18.072C453.414 18.84 452.454 19.224 451.345 19.224C450.15 19.224 449.148 18.84 448.337 18.072C447.526 17.304 447.121 16.3867 447.121 15.32L447.185 14.04C445.99 15.1067 445.18 15.896 444.753 16.408C444.369 16.92 443.9 17.752 443.345 18.904L441.937 21.656L440.337 24.28C441.404 23.7253 442.236 23.3627 442.833 23.192C443.473 23.0213 444.198 22.936 445.009 22.936C447.526 22.936 449.596 23.9387 451.217 25.944C452.07 27.0107 452.796 28.2693 453.393 29.72C454.033 31.128 454.652 32.984 455.249 35.288L456.721 40.536C457.02 41.7307 457.361 42.776 457.745 43.672C458.129 44.5253 458.726 45.6347 459.537 47H448.593C447.825 46.0613 447.292 45.2933 446.993 44.696C446.694 44.056 446.417 43.096 446.161 41.816L445.201 37.4C444.817 35.608 444.497 34.2853 444.241 33.432C443.985 32.5787 443.665 31.7467 443.281 30.936C442.684 29.4427 441.574 28.696 439.953 28.696C438.844 28.696 437.734 29.1867 436.625 30.168V39.704L436.817 43.032C436.817 43.8 436.838 44.312 436.881 44.568C436.924 44.824 437.18 45.6347 437.649 47H424.977Z" fill="#2D2D2D"/>
<path d="M0.286322 0.855999V-2.28104H-5.22863L-2.41007 2.45926L0.286322 0.855999ZM14.4303 0.855999L17.5641 0.998446L17.7132 -2.28104H14.4303V0.855999ZM14.3663 2.264L11.2325 2.12155L11.2293 2.19274V2.264H14.3663ZM14.6863 4.952L11.6017 5.52322L11.6037 5.53383L11.6057 5.54442L14.6863 4.952ZM15.5823 8.28L18.5696 7.3222L18.5586 7.28789L18.5468 7.25384L15.5823 8.28ZM24.7343 36.824L21.7471 37.7818L24.7247 47.0685L27.7198 37.7874L24.7343 36.824ZM29.9183 20.76L32.9038 21.7234L33.2165 20.7543L32.9004 19.7863L29.9183 20.76ZM25.8223 8.216L22.7789 8.97684L22.8058 9.08438L22.8402 9.18974L25.8223 8.216ZM25.3103 6.744L22.3343 7.73601L22.3634 7.82347L22.3977 7.90906L25.3103 6.744ZM24.6063 5.016L21.6784 6.14213L21.7327 6.28348L21.8005 6.41893L24.6063 5.016ZM23.9023 3.48L21.0066 4.68655L21.0697 4.83807L21.1483 4.98218L23.9023 3.48ZM22.4943 0.855999V-2.28104H17.0191L19.788 2.44246L22.4943 0.855999ZM36.3823 0.855999H39.5194V-2.28104H36.3823V0.855999ZM36.3823 2.648H33.2453V2.90763L33.288 3.16372L36.3823 2.648ZM36.8943 5.4L33.8246 6.04626L33.8282 6.06341L33.832 6.08051L36.8943 5.4ZM37.7263 8.28L40.7122 7.31809L40.7074 7.30301L40.7024 7.28798L37.7263 8.28ZM46.9423 36.888L43.9564 37.8499L46.9913 47.2708L49.9372 37.8217L46.9423 36.888ZM50.3343 26.008L53.3292 26.9417L53.3324 26.9315L53.3354 26.9214L50.3343 26.008ZM52.1263 6.104L55.224 5.60837L52.1263 6.104ZM50.7183 0.855999V-2.28104H46.4379L47.7269 1.80066L50.7183 0.855999ZM61.8543 0.855999L64.6843 2.20949L66.832 -2.28104H61.8543V0.855999ZM59.4863 5.976L56.6162 4.70976L56.611 4.72158L56.6059 4.73344L59.4863 5.976ZM57.0543 12.504L60.0328 13.4888L60.0403 13.466L60.0475 13.443L57.0543 12.504ZM54.4303 20.44L51.4519 19.4552L51.4514 19.4566L54.4303 20.44ZM45.6623 47V50.137H47.9303L48.6412 47.9834L45.6623 47ZM38.3663 47L35.3813 47.9645L36.0832 50.137H38.3663V47ZM30.9423 24.024L33.9274 23.0595L30.9678 13.9001L27.9621 23.0444L30.9423 24.024ZM23.3903 47V50.137H25.6614L26.3705 47.9796L23.3903 47ZM16.2223 47L13.238 47.9668L13.9411 50.137H16.2223V47ZM3.67832 8.28L0.668756 9.16516L0.680817 9.20617L0.693989 9.24682L3.67832 8.28ZM3.16632 6.68L6.10362 5.57851L6.07087 5.49117L6.03298 5.40592L3.16632 6.68ZM2.46232 5.016L5.39962 3.91451L5.37422 3.84677L5.34571 3.78026L2.46232 5.016ZM0.286322 3.99304H14.4303V-2.28104H0.286322V3.99304ZM11.2965 0.713552L11.2325 2.12155L17.5001 2.40644L17.5641 0.998446L11.2965 0.713552ZM11.2293 2.264C11.2293 3.19213 11.3771 4.31036 11.6017 5.52322L17.7709 4.38078C17.5689 3.28964 17.5034 2.61586 17.5034 2.264H11.2293ZM11.6057 5.54442C11.8484 6.80654 12.1868 8.06072 12.6179 9.30616L18.5468 7.25384C18.2099 6.28061 17.9509 5.31612 17.7669 4.35958L11.6057 5.54442ZM12.5951 9.23779L21.7471 37.7818L27.7216 35.8662L18.5696 7.3222L12.5951 9.23779ZM27.7198 37.7874L32.9038 21.7234L26.9329 19.7966L21.7489 35.8606L27.7198 37.7874ZM32.9004 19.7863L28.8044 7.24226L22.8402 9.18974L26.9362 21.7337L32.9004 19.7863ZM28.8657 7.45516C28.7272 6.90133 28.4919 6.25109 28.223 5.57894L22.3977 7.90906C22.6408 8.51691 22.7467 8.848 22.7789 8.97684L28.8657 7.45516ZM28.2864 5.75199C28.0341 4.99527 27.745 4.27879 27.4122 3.61307L21.8005 6.41893C21.9796 6.77721 22.1598 7.21272 22.3343 7.73601L28.2864 5.75199ZM27.5343 3.88987C27.2767 3.2202 26.9854 2.58106 26.6563 1.97782L21.1483 4.98218C21.3313 5.3176 21.5093 5.70246 21.6784 6.14213L27.5343 3.88987ZM26.798 2.27345C26.4926 1.54032 25.92 0.496696 25.2006 -0.730462L19.788 2.44246C20.5193 3.68997 20.8854 4.39568 21.0066 4.68655L26.798 2.27345ZM22.4943 3.99304H36.3823V-2.28104H22.4943V3.99304ZM33.2453 0.855999V1.304H39.5194V0.855999H33.2453ZM33.2453 1.304V2.648H39.5194V1.304H33.2453ZM33.288 3.16372C33.4642 4.22104 33.6429 5.18307 33.8246 6.04626L39.9641 4.75373C39.8045 3.99559 39.6418 3.12296 39.4767 2.13227L33.288 3.16372ZM33.832 6.08051C34.035 6.99401 34.3483 8.06621 34.7503 9.27202L40.7024 7.28798C40.3363 6.18979 40.095 5.34199 39.9567 4.71949L33.832 6.08051ZM34.7404 9.24191L43.9564 37.8499L49.9282 35.9261L40.7122 7.31809L34.7404 9.24191ZM49.9372 37.8217L53.3292 26.9417L47.3395 25.0743L43.9475 35.9543L49.9372 37.8217ZM53.3354 26.9214C53.9974 24.7463 54.5172 22.1585 54.9154 19.1936L48.6972 18.3584C48.3275 21.1109 47.8659 23.3443 47.3332 25.0946L53.3354 26.9214ZM54.9154 19.1936C55.3157 16.2136 55.5194 13.3639 55.5194 10.648H49.2453C49.2453 13.0521 49.0649 15.6211 48.6972 18.3584L54.9154 19.1936ZM55.5194 10.648C55.5194 8.63007 55.4339 6.92059 55.224 5.60837L49.0287 6.59962C49.1601 7.42074 49.2453 8.7406 49.2453 10.648H55.5194ZM55.224 5.60837C55.0132 4.29103 54.4788 2.34667 53.7097 -0.0886621L47.7269 1.80066C48.4939 4.22933 48.8981 5.78363 49.0287 6.59962L55.224 5.60837ZM50.7183 3.99304H61.8543V-2.28104H50.7183V3.99304ZM59.0243 -0.497494C58.0765 1.48428 57.2729 3.22134 56.6162 4.70976L62.3565 7.24223C62.9798 5.82932 63.7548 4.15305 64.6843 2.20949L59.0243 -0.497494ZM56.6059 4.73344C55.6261 7.00476 54.7774 9.28199 54.0611 11.565L60.0475 13.443C60.6966 11.374 61.4692 9.29924 62.3668 7.21855L56.6059 4.73344ZM54.0759 11.5192L51.4519 19.4552L57.4088 21.4248L60.0328 13.4888L54.0759 11.5192ZM51.4514 19.4566L42.6834 46.0166L48.6412 47.9834L57.4092 21.4234L51.4514 19.4566ZM45.6623 43.863H38.3663V50.137H45.6623V43.863ZM41.3514 46.0355L33.9274 23.0595L27.9572 24.9885L35.3813 47.9645L41.3514 46.0355ZM27.9621 23.0444L20.4101 46.0204L26.3705 47.9796L33.9225 25.0036L27.9621 23.0444ZM23.3903 43.863H16.2223V50.137H23.3903V43.863ZM19.2067 46.0332L6.66265 7.31317L0.693989 9.24682L13.238 47.9668L19.2067 46.0332ZM6.68789 7.39483C6.47073 6.65648 6.27374 6.03215 6.10362 5.57851L0.229023 7.78148C0.314907 8.01051 0.459253 8.45285 0.668756 9.16516L6.68789 7.39483ZM6.03298 5.40592C5.693 4.64097 5.49194 4.16071 5.39962 3.91451L-0.474977 6.11748C-0.311298 6.55396 -0.0430241 7.18303 0.299664 7.95407L6.03298 5.40592ZM5.34571 3.78026C4.76249 2.4194 3.96549 0.905579 2.98272 -0.747263L-2.41007 2.45926C-1.51551 3.96375 -0.861843 5.22327 -0.42107 6.25174L5.34571 3.78026ZM72.9713 32.728V29.591H68.9751L69.924 33.4729L72.9713 32.728ZM74.3153 37.016L77.1712 35.7179L74.3153 37.016ZM76.1713 39.896L73.7528 41.8939L73.7615 41.9045L73.7703 41.915L76.1713 39.896ZM85.6433 41.944L84.1411 39.19L85.6433 41.944ZM88.7793 38.936L91.655 40.1895L86.2955 37.0199L88.7793 38.936ZM86.6673 42.904L84.0921 41.1125L84.039 41.1889L83.9905 41.2682L86.6673 42.904ZM65.5473 42.968L67.9753 40.9815L65.5473 42.968ZM66.0593 16.152L68.4184 18.2198L66.0593 16.152ZM86.1553 13.656L84.065 15.9951L84.0912 16.0185L84.1179 16.0413L86.1553 13.656ZM83.1473 30.552L84.6708 33.2943L84.6842 33.2868L84.6975 33.2792L83.1473 30.552ZM78.7953 32.28L79.4657 35.3446L78.7953 32.28ZM73.2273 15.448L70.434 14.0203L70.4213 14.0451L70.4091 14.0702L73.2273 15.448ZM72.3953 29.528L69.4918 30.7158L69.5146 30.7714L69.5395 30.8261L72.3953 29.528ZM78.7953 28.248L81.5468 29.7548L81.5542 29.7412L81.5615 29.7276L78.7953 28.248ZM79.4993 14.424L76.6006 15.6234V15.6235L79.4993 14.424ZM69.924 33.4729C70.4058 35.4438 70.9087 37.1025 71.4595 38.3141L77.1712 35.7179C76.8686 35.0522 76.4755 33.8522 76.0186 31.9831L69.924 33.4729ZM71.4595 38.3141C72.0235 39.555 72.8055 40.7473 73.7528 41.8939L78.5899 37.8981C77.9158 37.0821 77.4605 36.3544 77.1712 35.7179L71.4595 38.3141ZM73.7703 41.915C75.9011 44.4489 78.699 45.849 81.9953 45.849V39.575C80.6836 39.575 79.5989 39.0978 78.5723 37.877L73.7703 41.915ZM81.9953 45.849C83.8165 45.849 85.5995 45.5413 87.1455 44.698L84.1411 39.19C83.8098 39.3707 83.1608 39.575 81.9953 39.575V45.849ZM87.1455 44.698C88.6535 43.8754 90.0179 42.4664 91.2632 40.8521L86.2955 37.0199C85.2368 38.3923 84.5105 38.9886 84.1411 39.19L87.1455 44.698ZM85.9036 37.6825C85.2229 39.2441 84.6135 40.3631 84.0921 41.1125L89.2425 44.6954C90.0865 43.4822 90.885 41.9559 91.655 40.1895L85.9036 37.6825ZM83.9905 41.2682C83.4156 42.209 82.5085 43.0449 81.0921 43.7209L83.7945 49.3831C86.1328 48.2671 88.0417 46.671 89.3441 44.5398L83.9905 41.2682ZM81.0921 43.7209C79.6645 44.4022 78.0822 44.759 76.2993 44.759V51.033C78.9538 51.033 81.4675 50.4938 83.7945 49.3831L81.0921 43.7209ZM76.2993 44.759C72.7003 44.759 70.0305 43.4935 67.9753 40.9815L63.1194 44.9545C66.4401 49.0132 70.9383 51.033 76.2993 51.033V44.759ZM67.9753 40.9815C65.867 38.4047 64.6524 34.7816 64.6524 29.784H58.3783C58.3783 35.7944 59.8517 40.9606 63.1194 44.9545L67.9753 40.9815ZM64.6524 29.784C64.6524 24.734 65.9971 20.9822 68.4184 18.2198L63.7003 14.0842C60.0629 18.2338 58.3783 23.57 58.3783 29.784H64.6524ZM68.4184 18.2198C70.8022 15.5003 73.9031 14.105 78.0273 14.105V7.83096C72.2529 7.83096 67.3751 9.89174 63.7003 14.0842L68.4184 18.2198ZM78.0273 14.105C80.884 14.105 82.7768 14.8439 84.065 15.9951L88.2456 11.3168C85.5232 8.88405 81.9973 7.83096 78.0273 7.83096V14.105ZM84.1179 16.0413C85.3869 17.1253 86.0903 18.5786 86.0903 20.76H92.3644C92.3644 16.9681 91.0197 13.6854 88.1928 11.2707L84.1179 16.0413ZM86.0903 20.76C86.0903 23.7203 84.7932 26.008 81.5971 27.8248L84.6975 33.2792C89.6081 30.488 92.3644 26.2477 92.3644 20.76H86.0903ZM81.6238 27.8097C80.2896 28.551 79.1265 28.9963 78.1249 29.2154L79.4657 35.3446C81.1948 34.9663 82.933 34.2597 84.6708 33.2943L81.6238 27.8097ZM78.1249 29.2154C77.0887 29.4421 75.4118 29.591 72.9713 29.591V35.865C75.5655 35.865 77.7713 35.7152 79.4657 35.3446L78.1249 29.2154ZM76.9393 9.43096C73.7751 9.43096 71.6827 11.5772 70.434 14.0203L76.0206 16.8757C76.3761 16.1802 76.6694 15.879 76.8143 15.7665C76.9116 15.691 76.9245 15.705 76.9393 15.705V9.43096ZM70.4091 14.0702C69.1825 16.579 68.6823 19.6677 68.6823 23.128H74.9564C74.9564 20.1883 75.3948 18.1569 76.0456 16.8258L70.4091 14.0702ZM68.6823 23.128V24.152H74.9564V23.128H68.6823ZM68.6823 24.152C68.6823 25.5399 68.7322 26.769 68.8441 27.8142C68.9512 28.8137 69.1337 29.8402 69.4918 30.7158L75.2988 28.3402C75.2989 28.3404 75.2886 28.3151 75.2719 28.2576C75.2553 28.2009 75.235 28.1217 75.2128 28.0165C75.1679 27.8034 75.1223 27.5171 75.0825 27.1458C75.0025 26.399 74.9564 25.4095 74.9564 24.152H68.6823ZM69.5395 30.8261C69.9735 31.7809 70.661 32.653 71.6555 33.2608C72.635 33.8594 73.7013 34.073 74.6993 34.073V27.799C74.588 27.799 74.7156 27.778 74.9271 27.9072C75.0274 27.9685 75.1103 28.0425 75.1713 28.1144C75.2301 28.1837 75.2516 28.2308 75.2512 28.2299L69.5395 30.8261ZM74.6993 34.073C77.809 34.073 80.1262 32.3489 81.5468 29.7548L76.0438 26.7412C75.5018 27.7311 75.0883 27.799 74.6993 27.799V34.073ZM81.5615 29.7276C82.8925 27.2392 83.4044 24.0414 83.4044 20.44H77.1303C77.1303 23.58 76.6608 25.5874 76.0291 26.7684L81.5615 29.7276ZM83.4044 20.44C83.4044 17.6013 83.1605 15.0672 82.398 13.2245L76.6006 15.6235C76.8622 16.2555 77.1303 17.732 77.1303 20.44H83.4044ZM82.398 13.2246C81.9795 12.2132 81.3243 11.2228 80.3167 10.4922C79.2846 9.74395 78.1061 9.43096 76.9393 9.43096V15.705C76.9661 15.705 76.9344 15.7082 76.8642 15.687C76.7902 15.6647 76.7083 15.6256 76.634 15.5718C76.4797 15.4599 76.5071 15.3974 76.6006 15.6234L82.398 13.2246ZM97.6173 47L94.6295 46.0439L93.3197 50.137H97.6173V47ZM98.1293 45.4L101.117 46.3561L101.161 46.22L101.192 46.0805L98.1293 45.4ZM98.6413 39.832H101.778L101.778 39.8256L98.6413 39.832ZM98.5773 8.28H95.4403L95.4403 8.28636L98.5773 8.28ZM98.4493 4.376L95.3315 4.72243L98.4493 4.376ZM97.6173 0.855999V-2.28104H93.412L94.6104 1.74996L97.6173 0.855999ZM109.265 0.855999H112.402V-2.28104H109.265V0.855999ZM109.265 39.704H106.128V39.7643L106.131 39.8246L109.265 39.704ZM109.393 43.032L106.259 43.1526L106.264 43.2873L106.281 43.4211L109.393 43.032ZM109.649 45.144L106.531 45.4904L106.55 45.659L106.587 45.8245L109.649 45.144ZM110.225 47V50.137H114.647L113.186 45.9637L110.225 47ZM100.605 47.9561L101.117 46.3561L95.1415 44.4439L94.6295 46.0439L100.605 47.9561ZM101.192 46.0805C101.597 44.2545 101.778 42.1567 101.778 39.832H95.5043C95.5043 41.8593 95.3439 43.4735 95.067 44.7195L101.192 46.0805ZM101.778 39.8256L101.714 8.27364L95.4403 8.28636L95.5043 39.8384L101.778 39.8256ZM101.714 8.28C101.714 6.4433 101.674 4.98738 101.567 4.02957L95.3315 4.72243C95.3957 5.30062 95.4403 6.44737 95.4403 8.28H101.714ZM101.567 4.02957C101.449 2.96572 101.101 1.56614 100.624 -0.0379639L94.6104 1.74996C95.0721 3.30319 95.279 4.25027 95.3315 4.72243L101.567 4.02957ZM97.6173 3.99304H109.265V-2.28104H97.6173V3.99304ZM106.128 0.855999V39.704H112.402V0.855999H106.128ZM106.131 39.8246L106.259 43.1526L112.528 42.9114L112.4 39.5834L106.131 39.8246ZM106.281 43.4211C106.409 44.4468 106.492 45.1307 106.531 45.4904L112.767 44.7976C112.722 44.3893 112.634 43.6652 112.506 42.6429L106.281 43.4211ZM106.587 45.8245C106.716 46.4054 106.963 47.1765 107.264 48.0363L113.186 45.9637C112.89 45.1168 112.753 44.6506 112.712 44.4635L106.587 45.8245ZM110.225 43.863H97.6173V50.137H110.225V43.863ZM137.085 12.632L139.864 14.0876L142.041 9.93252L137.369 9.50785L137.085 12.632ZM135.677 12.504L135.961 9.37984L135.82 9.36696H135.677V12.504ZM131.133 15.96L133.929 17.384L133.934 17.3735L133.939 17.3629L131.133 15.96ZM141.501 39.704L140.034 36.9315L139.967 36.9668L139.902 37.0052L141.501 39.704ZM143.293 38.424L145.512 40.6422L143.293 38.424ZM144.957 36.12L148.066 36.5439L142.267 34.506L144.957 36.12ZM144.061 40.344L141.113 39.2719L141.099 39.3118L141.085 39.352L144.061 40.344ZM142.461 43.288L144.967 45.1757L144.987 45.1486L145.007 45.121L142.461 43.288ZM122.941 42.968L120.439 44.8605L122.941 42.968ZM123.645 16.216L121.299 14.1337L121.297 14.1356L123.645 16.216ZM142.333 12.632L140.689 15.3037L140.689 15.3037L142.333 12.632ZM143.549 19.928L145.768 22.1462V22.1462L143.549 19.928ZM135.997 15L133.06 13.8985L133.029 13.9806L133.003 14.0643L135.997 15ZM137.369 9.50785L135.961 9.37984L135.393 15.6282L136.801 15.7562L137.369 9.50785ZM135.677 9.36696C132.174 9.36696 129.782 11.6479 128.327 14.5571L133.939 17.3629C134.789 15.6641 135.426 15.641 135.677 15.641V9.36696ZM128.338 14.536C126.878 17.4029 126.268 20.9811 126.268 25.048H132.542C132.542 21.5202 133.085 19.0397 133.929 17.384L128.338 14.536ZM126.268 25.048C126.268 30.0317 127.132 34.3875 129.099 37.9063L134.576 34.8457C133.3 32.5619 132.542 29.3656 132.542 25.048H126.268ZM129.099 37.9063C131.108 41.5021 134.151 43.865 138.237 43.865V37.591C137.033 37.591 135.809 37.0526 134.576 34.8457L129.099 37.9063ZM138.237 43.865C139.972 43.865 141.61 43.2862 143.101 42.4028L139.902 37.0052C139.089 37.4871 138.551 37.591 138.237 37.591V43.865ZM142.969 42.4765C143.908 41.9793 144.776 41.3777 145.512 40.6422L141.075 36.2058C140.872 36.409 140.545 36.6607 140.034 36.9315L142.969 42.4765ZM145.512 40.6422C146.257 39.897 146.969 38.8648 147.647 37.734L142.267 34.506C141.666 35.5085 141.269 36.0124 141.075 36.2058L145.512 40.6422ZM141.849 35.6961C141.601 37.5117 141.338 38.6537 141.113 39.2719L147.009 41.4161C147.467 40.157 147.801 38.4829 148.066 36.5439L141.849 35.6961ZM141.085 39.352C140.917 39.8557 140.565 40.5527 139.916 41.455L145.007 45.121C145.893 43.8899 146.608 42.6243 147.037 41.336L141.085 39.352ZM139.956 41.4003C138.221 43.7023 135.984 44.823 132.925 44.823V51.097C137.888 51.097 142.008 49.103 144.967 45.1757L139.956 41.4003ZM132.925 44.823C129.779 44.823 127.373 43.6273 125.443 41.0755L120.439 44.8605C123.544 48.9647 127.794 51.097 132.925 51.097V44.823ZM125.443 41.0755C123.452 38.4435 122.302 34.7583 122.302 29.72H116.028C116.028 35.6897 117.396 40.8365 120.439 44.8605L125.443 41.0755ZM122.302 29.72C122.302 24.6553 123.633 20.9599 125.993 18.2964L121.297 14.1356C117.684 18.2134 116.028 23.5207 116.028 29.72H122.302ZM125.992 18.2983C128.366 15.6233 131.488 14.233 135.677 14.233V7.95896C129.883 7.95896 124.984 9.98199 121.299 14.1337L125.992 18.2983ZM135.677 14.233C138.102 14.233 139.685 14.6859 140.689 15.3037L143.977 9.96032C141.653 8.53007 138.8 7.95896 135.677 7.95896V14.233ZM140.689 15.3037C141.555 15.8363 141.692 16.2757 141.692 16.792H147.966C147.966 13.8096 146.44 11.4757 143.977 9.96032L140.689 15.3037ZM141.692 16.792C141.692 17.2209 141.58 17.4612 141.331 17.7098L145.768 22.1462C147.226 20.6881 147.966 18.8377 147.966 16.792H141.692ZM141.331 17.7098C141.125 17.9155 140.864 18.071 140.285 18.071V24.345C142.352 24.345 144.267 23.6472 145.768 22.1462L141.331 17.7098ZM140.285 18.071C139.97 18.071 139.662 17.9863 139.251 17.5948L134.919 22.1332C136.386 23.5337 138.211 24.345 140.285 24.345V18.071ZM139.251 17.5948C138.847 17.2085 138.814 16.9744 138.814 16.792H132.54C132.54 18.9136 133.447 20.7275 134.919 22.1332L139.251 17.5948ZM138.814 16.792C138.814 16.6954 138.838 16.426 138.992 15.9357L133.003 14.0643C132.73 14.9394 132.54 15.8646 132.54 16.792H138.814ZM138.935 16.1015C139.132 15.5763 139.434 14.9093 139.864 14.0876L134.306 11.1764C133.798 12.1467 133.375 13.0584 133.06 13.8985L138.935 16.1015ZM166.972 11.16L169.297 13.2666L175.155 6.80226L166.522 8.0555L166.972 11.16ZM164.412 14.68L167.218 16.0829L167.23 16.0583L167.242 16.0335L164.412 14.68ZM163.132 18.776L160.065 18.1187L160.057 18.1538L160.051 18.189L163.132 18.776ZM162.684 21.976L165.805 22.2988V22.2988L162.684 21.976ZM164.732 37.464L161.911 38.8355L161.915 38.8433L161.919 38.8511L164.732 37.464ZM174.844 39.576L177.465 41.3002L174.844 39.576ZM176.316 30.68L173.207 31.0946L173.209 31.1091L173.211 31.1236L176.316 30.68ZM175.868 27.992L178.953 27.4208L178.935 27.3253L178.912 27.2312L175.868 27.992ZM174.972 25.112L172.018 26.1671L172.065 26.2992L172.124 26.4266L174.972 25.112ZM173.372 22.104L176.055 20.4781L174.323 17.6209L171.581 19.5288L173.372 22.104ZM167.676 21.272L170.176 19.376V19.376L167.676 21.272ZM176.764 16.216L173.917 17.5329L173.927 17.5544L173.937 17.5758L176.764 16.216ZM175.548 42.84L178.114 44.6453L175.548 42.84ZM155.516 42.968L153.003 44.8451L155.516 42.968ZM156.732 15.64L159.018 17.7883L159.023 17.7831L156.732 15.64ZM160.764 12.696L159.529 9.81261L159.513 9.81916L159.498 9.82587L160.764 12.696ZM164.648 9.05342C163.327 10.511 162.243 11.946 161.582 13.3265L167.242 16.0335C167.521 15.4513 168.143 14.5397 169.297 13.2666L164.648 9.05342ZM161.606 13.2771C160.963 14.5646 160.47 16.2296 160.065 18.1187L166.2 19.4333C166.563 17.7384 166.923 16.6727 167.218 16.0829L161.606 13.2771ZM160.051 18.189C159.859 19.1974 159.698 20.3567 159.564 21.6532L165.805 22.2988C165.927 21.1206 166.065 20.1466 166.214 19.363L160.051 18.189ZM159.564 21.6532C159.427 22.9807 159.355 24.2416 159.355 25.432H165.629C165.629 24.4891 165.686 23.446 165.805 22.2988L159.564 21.6532ZM159.355 25.432C159.355 30.659 160.138 35.1883 161.911 38.8355L167.554 36.0925C166.34 33.5957 165.629 30.1037 165.629 25.432H159.355ZM161.919 38.8511C163.716 42.4975 166.581 45.145 170.684 45.145V38.871C169.838 38.871 168.735 38.4892 167.546 36.077L161.919 38.8511ZM170.684 45.145C173.606 45.145 175.911 43.6617 177.465 41.3002L172.224 37.8518C171.644 38.7329 171.176 38.871 170.684 38.871V45.145ZM177.465 41.3002C178.975 39.005 179.581 36.185 179.581 33.112H173.307C173.307 35.415 172.847 36.9044 172.224 37.8518L177.465 41.3002ZM179.581 33.112C179.581 32.0265 179.538 31.047 179.422 30.2364L173.211 31.1236C173.266 31.5076 173.307 32.1495 173.307 33.112H179.581ZM179.426 30.2654C179.33 29.547 179.169 28.5903 178.953 27.4208L172.784 28.5632C172.994 29.6977 173.132 30.533 173.207 31.0946L179.426 30.2654ZM178.912 27.2312C178.568 25.8564 178.211 24.6436 177.821 23.7974L172.124 26.4266C172.245 26.6897 172.486 27.3969 172.825 28.7528L178.912 27.2312ZM177.927 24.0569C177.593 23.1223 176.898 21.8695 176.055 20.4781L170.69 23.7299C171.553 25.1545 171.925 25.907 172.018 26.1671L177.927 24.0569ZM171.581 19.5288C171.221 19.7794 170.97 19.9089 170.822 19.9697C170.67 20.032 170.702 19.991 170.876 19.991V26.265C172.523 26.265 174.005 25.485 175.164 24.6792L171.581 19.5288ZM170.876 19.991C170.85 19.991 170.825 19.9917 170.754 19.9504C170.661 19.8961 170.457 19.7464 170.176 19.376L165.177 23.168C166.515 24.931 168.418 26.265 170.876 26.265V19.991ZM170.176 19.376C169.681 18.7242 169.405 17.9514 169.405 16.92H163.131C163.131 19.2166 163.794 21.3451 165.177 23.168L170.176 19.376ZM169.405 16.92C169.405 15.848 169.68 15.1921 170.053 14.7311L165.172 10.7889C163.752 12.5466 163.131 14.664 163.131 16.92H169.405ZM170.053 14.7311C170.384 14.3213 170.634 14.233 171.004 14.233V7.95896C168.644 7.95896 166.633 8.98002 165.172 10.7889L170.053 14.7311ZM171.004 14.233C171.359 14.233 172.484 14.4334 173.917 17.5329L179.612 14.8991C177.888 11.1719 175.172 7.95896 171.004 7.95896V14.233ZM173.937 17.5758C175.304 20.418 176.059 24.0222 176.059 28.504H182.333C182.333 23.3431 181.467 18.7553 179.591 14.8562L173.937 17.5758ZM176.059 28.504C176.059 34.2337 174.911 38.2944 172.983 41.0347L178.114 44.6453C181.05 40.4736 182.333 34.977 182.333 28.504H176.059ZM172.983 41.0347C171.145 43.6462 168.758 44.887 165.5 44.887V51.161C170.776 51.161 175.088 48.9458 178.114 44.6453L172.983 41.0347ZM165.5 44.887C162.37 44.887 159.966 43.6841 158.03 41.0909L153.003 44.8451C156.101 48.9933 160.353 51.161 165.5 51.161V44.887ZM158.03 41.0909C156.026 38.4084 154.877 34.6918 154.877 29.656H148.603C148.603 35.6282 149.972 40.7863 153.003 44.8451L158.03 41.0909ZM154.877 29.656C154.877 24.4871 156.34 20.6382 159.018 17.7883L154.446 13.4917C150.469 17.7245 148.603 23.2195 148.603 29.656H154.877ZM159.023 17.7831C160.012 16.7257 161.018 16.0127 162.031 15.5661L159.498 9.82587C157.609 10.6593 155.927 11.909 154.441 13.4969L159.023 17.7831ZM162 15.5794C163.134 15.0936 164.898 14.631 167.423 14.2645L166.522 8.0555C163.756 8.45699 161.382 9.01841 159.529 9.81261L162 15.5794ZM187.902 47L184.95 45.9374L183.438 50.137H187.902V47ZM188.478 45.4L191.429 46.4626L191.503 46.2585L191.548 46.0463L188.478 45.4ZM188.99 19.352H192.127V19.2598L192.121 19.1678L188.99 19.352ZM188.798 16.088H185.661V16.1802L185.666 16.2722L188.798 16.088ZM188.478 13.656L185.434 14.4168L185.439 14.4356L185.444 14.4544L188.478 13.656ZM187.902 11.928V8.79096H183.489L184.939 12.9586L187.902 11.928ZM199.614 11.928H202.751V8.79096H199.614V11.928ZM199.614 20.44H196.477L202.507 21.6532L199.614 20.44ZM201.022 17.368L198.28 15.8445L198.264 15.8722L198.249 15.9002L201.022 17.368ZM202.622 15.128L204.974 17.2035L204.981 17.196L204.987 17.1883L202.622 15.128ZM217.47 14.488L220.276 13.0851L220.244 13.0218L220.21 12.96L217.47 14.488ZM218.43 16.92L215.386 17.6808L215.392 17.7046L215.399 17.7283L218.43 16.92ZM218.686 20.248H215.549L221.492 21.6509L218.686 20.248ZM222.142 14.808L219.864 12.6505L219.852 12.6635L219.84 12.6767L222.142 14.808ZM236.862 13.912L239.378 12.0392L236.862 13.912ZM238.91 39.704H235.773V39.7944L235.778 39.8847L238.91 39.704ZM239.102 43.032H242.239V42.9416L242.234 42.8513L239.102 43.032ZM239.23 44.888L236.154 45.5032L236.192 45.6947L236.254 45.88L239.23 44.888ZM239.998 47V50.137H244.525L242.935 45.8985L239.998 47ZM227.39 47L224.369 46.1542L223.254 50.137H227.39V47ZM227.838 45.4L230.859 46.2458L230.871 46.2035L230.881 46.1608L227.838 45.4ZM228.158 42.968L231.286 43.2086V43.2086L228.158 42.968ZM227.518 18.968L224.803 20.5398L224.853 20.6256L224.908 20.7081L227.518 18.968ZM221.95 18.968L224.048 21.2997L224.08 21.2715L224.11 21.2423L221.95 18.968ZM219.646 22.552L222.525 23.7971L222.531 23.7833L222.537 23.7693L219.646 22.552ZM218.622 39.832H215.485V39.8947L215.487 39.9574L218.622 39.832ZM218.75 43.032H221.887V42.9693L221.884 42.9066L218.75 43.032ZM218.878 44.696L215.802 45.3112L215.802 45.3112L218.878 44.696ZM219.582 47V50.137H223.987L222.546 45.9738L219.582 47ZM208.254 47L205.266 46.0439L203.956 50.137H208.254V47ZM208.766 45.4L211.754 46.3561L211.78 46.2724L211.802 46.1873L208.766 45.4ZM202.622 19.032L204.654 21.4222L204.687 21.3935L204.72 21.3637L202.622 19.032ZM200.446 22.424L197.522 21.287L200.446 22.424ZM199.55 39.832H196.413V39.926L196.418 40.0199L199.55 39.832ZM199.742 43.032L196.61 43.2199L196.616 43.3131L196.627 43.4058L199.742 43.032ZM199.998 45.208L196.88 45.5544L196.903 45.7641L196.954 45.9688L199.998 45.208ZM200.574 47V50.137H204.995L203.535 45.9637L200.574 47ZM190.853 48.0626L191.429 46.4626L185.526 44.3374L184.95 45.9374L190.853 48.0626ZM191.548 46.0463C191.943 44.1657 192.127 42.0862 192.127 39.832H185.853C185.853 41.7591 185.695 43.3916 185.408 44.7537L191.548 46.0463ZM192.127 39.832V19.352H185.853V39.832H192.127ZM192.121 19.1678L191.929 15.9038L185.666 16.2722L185.858 19.5362L192.121 19.1678ZM191.935 16.088C191.935 14.9988 191.791 13.92 191.512 12.8576L185.444 14.4544C185.591 15.0133 185.661 15.5558 185.661 16.088H191.935ZM191.521 12.8952C191.435 12.5499 191.177 11.7965 190.865 10.8974L184.939 12.9586C185.108 13.444 185.236 13.8188 185.326 14.088C185.371 14.2231 185.403 14.3231 185.425 14.3926C185.453 14.4802 185.448 14.4718 185.434 14.4168L191.521 12.8952ZM187.902 15.065H199.614V8.79096H187.902V15.065ZM196.477 11.928V20.44H202.751V11.928H196.477ZM202.507 21.6532C203.048 20.3635 203.475 19.439 203.794 18.8358L198.249 15.9002C197.801 16.7477 197.289 17.8712 196.721 19.2268L202.507 21.6532ZM203.764 18.8915C204.071 18.3397 204.469 17.7763 204.974 17.2035L200.27 13.0525C199.495 13.9304 198.826 14.8603 198.28 15.8445L203.764 18.8915ZM204.987 17.1883C206.751 15.1638 208.687 14.297 210.942 14.297V8.02296C206.711 8.02296 203.101 9.80149 200.256 13.0677L204.987 17.1883ZM210.942 14.297C213.223 14.297 214.18 15.0301 214.73 16.0159L220.21 12.96C218.285 9.50855 214.89 8.02296 210.942 8.02296V14.297ZM214.664 15.8909C215.076 16.7144 215.291 17.2999 215.386 17.6808L221.473 16.1592C221.227 15.1748 220.803 14.139 220.276 13.0851L214.664 15.8909ZM215.399 17.7283C215.453 17.9311 215.549 18.6704 215.549 20.248H221.823C221.823 18.6683 221.748 17.1889 221.461 16.1117L215.399 17.7283ZM221.492 21.6509C222.681 19.2726 223.676 17.7685 224.444 16.9393L219.84 12.6767C218.474 14.1515 217.165 16.2741 215.88 18.8451L221.492 21.6509ZM224.419 16.9655C226.153 15.1355 228.112 14.297 230.462 14.297V8.02296C226.326 8.02296 222.739 9.61653 219.864 12.6505L224.419 16.9655ZM230.462 14.297C232.666 14.297 233.728 14.9554 234.345 15.7848L239.378 12.0392C237.265 9.19926 234.06 8.02296 230.462 8.02296V14.297ZM234.345 15.7848C235.106 16.8068 235.773 18.8796 235.773 22.616H242.047C242.047 18.4164 241.349 14.6866 239.378 12.0392L234.345 15.7848ZM235.773 22.616V39.704H242.047V22.616H235.773ZM235.778 39.8847L235.97 43.2127L242.234 42.8513L242.042 39.5233L235.778 39.8847ZM235.965 43.032C235.965 43.9049 236.007 44.7695 236.154 45.5032L242.306 44.2728C242.282 44.1531 242.239 43.7804 242.239 43.032H235.965ZM236.254 45.88C236.403 46.3268 236.678 47.0822 237.061 48.1015L242.935 45.8985C242.549 44.8698 242.313 44.2172 242.206 43.896L236.254 45.88ZM239.998 43.863H227.39V50.137H239.998V43.863ZM230.411 47.8458L230.859 46.2458L224.817 44.5542L224.369 46.1542L230.411 47.8458ZM230.881 46.1608C231.077 45.3776 231.198 44.3453 231.286 43.2086L225.03 42.7274C224.947 43.8094 224.855 44.3984 224.794 44.6392L230.881 46.1608ZM231.286 43.2086C231.376 42.0296 231.423 40.9034 231.423 39.832H225.149C225.149 40.7233 225.11 41.6878 225.03 42.7274L231.286 43.2086ZM231.423 39.832V22.936H225.149V39.832H231.423ZM231.423 22.936C231.423 20.9641 231.19 18.821 230.128 17.2279L224.908 20.7081C224.852 20.6249 224.932 20.7076 225.014 21.1321C225.092 21.5373 225.149 22.1257 225.149 22.936H231.423ZM230.233 17.3962C229.044 15.3435 226.98 14.615 225.022 14.615V20.889C225.277 20.889 225.286 20.9335 225.168 20.8762C225.106 20.8461 225.03 20.7976 224.956 20.7281C224.882 20.6588 224.832 20.5902 224.803 20.5398L230.233 17.3962ZM225.022 14.615C223.036 14.615 221.235 15.3199 219.789 16.6936L224.11 21.2423C224.371 20.9947 224.618 20.889 225.022 20.889V14.615ZM219.851 16.6363C218.521 17.8332 217.53 19.4928 216.755 21.3347L222.537 23.7693C223.127 22.3685 223.672 21.6388 224.048 21.2997L219.851 16.6363ZM216.766 21.3069C215.983 23.1194 215.485 24.9442 215.485 26.712H221.759C221.759 26.0905 221.944 25.142 222.525 23.7971L216.766 21.3069ZM215.485 26.712V39.832H221.759V26.712H215.485ZM215.487 39.9574L215.615 43.1574L221.884 42.9066L221.756 39.7066L215.487 39.9574ZM215.613 43.032C215.613 43.8189 215.66 44.6016 215.802 45.3112L221.954 44.0808C221.925 43.937 221.887 43.6104 221.887 43.032H215.613ZM215.802 45.3112C215.935 45.9761 216.24 46.9346 216.617 48.0262L222.546 45.9738C222.156 44.8467 221.992 44.2692 221.954 44.0808L215.802 45.3112ZM219.582 43.863H208.254V50.137H219.582V43.863ZM211.242 47.9561L211.754 46.3561L205.778 44.4439L205.266 46.0439L211.242 47.9561ZM211.802 46.1873C212.208 44.6229 212.351 42.4256 212.351 39.832H206.077C206.077 42.3584 205.921 43.8731 205.729 44.6127L211.802 46.1873ZM212.351 39.832V22.936H206.077V39.832H212.351ZM212.351 22.936C212.351 21.8633 212.286 20.8568 212.127 19.956C211.972 19.087 211.696 18.1177 211.144 17.2638L205.876 20.6722C205.793 20.5437 205.869 20.5984 205.949 21.052C206.024 21.4738 206.077 22.0887 206.077 22.936H212.351ZM211.144 17.2638C209.869 15.2945 207.752 14.743 205.95 14.743V21.017C206.108 21.017 206.212 21.0288 206.27 21.0389C206.327 21.0488 206.328 21.055 206.291 21.0391C206.251 21.0221 206.178 20.9844 206.093 20.9147C206.007 20.8438 205.933 20.7595 205.876 20.6722L211.144 17.2638ZM205.95 14.743C203.964 14.743 202.058 15.3187 200.523 16.7003L204.72 21.3637C204.892 21.2093 205.204 21.017 205.95 21.017V14.743ZM200.59 16.6418C199.197 17.8262 198.226 19.478 197.522 21.287L203.37 23.561C203.861 22.298 204.34 21.6885 204.654 21.4222L200.59 16.6418ZM197.522 21.287C196.803 23.1366 196.413 25.0151 196.413 26.904H202.687C202.687 25.8915 202.894 24.7834 203.37 23.561L197.522 21.287ZM196.413 26.904V39.832H202.687V26.904H196.413ZM196.418 40.0199L196.61 43.2199L202.873 42.8441L202.681 39.6441L196.418 40.0199ZM196.627 43.4058C196.755 44.4739 196.839 45.1861 196.88 45.5544L203.116 44.8616C203.071 44.4619 202.984 43.7234 202.857 42.6582L196.627 43.4058ZM196.954 45.9688C197.079 46.4671 197.317 47.1897 197.613 48.0363L203.535 45.9637C203.234 45.1036 203.087 44.6315 203.041 44.4472L196.954 45.9688ZM200.574 43.863H187.902V50.137H200.574V43.863ZM260.284 32.728V29.591H256.288L257.236 33.4729L260.284 32.728ZM261.628 37.016L264.484 35.7179H264.484L261.628 37.016ZM263.484 39.896L261.065 41.8939L261.074 41.9045L261.083 41.915L263.484 39.896ZM272.956 41.944L271.454 39.19H271.454L272.956 41.944ZM276.092 38.936L278.967 40.1895L273.608 37.0199L276.092 38.936ZM273.98 42.904L271.405 41.1125L271.352 41.1889L271.303 41.2682L273.98 42.904ZM252.86 42.968L255.288 40.9815L252.86 42.968ZM253.372 16.152L255.731 18.2198L253.372 16.152ZM273.468 13.656L271.378 15.9951L271.404 16.0185L271.43 16.0413L273.468 13.656ZM270.46 30.552L271.983 33.2943L271.997 33.2868L272.01 33.2792L270.46 30.552ZM266.108 32.28L266.778 35.3446L266.108 32.28ZM260.54 15.448L257.746 14.0203L257.734 14.0451L257.722 14.0702L260.54 15.448ZM259.708 29.528L256.804 30.7158L256.827 30.7714L256.852 30.8261L259.708 29.528ZM266.108 28.248L268.859 29.7548L268.867 29.7412L268.874 29.7276L266.108 28.248ZM266.812 14.424L263.913 15.6234V15.6235L266.812 14.424ZM257.236 33.4729C257.718 35.4438 258.221 37.1025 258.772 38.3141L264.484 35.7179C264.181 35.0522 263.788 33.8522 263.331 31.9831L257.236 33.4729ZM258.772 38.3141C259.336 39.555 260.118 40.7473 261.065 41.8939L265.902 37.8981C265.228 37.0821 264.773 36.3544 264.484 35.7179L258.772 38.3141ZM261.083 41.915C263.214 44.4489 266.012 45.849 269.308 45.849V39.575C267.996 39.575 266.911 39.0978 265.885 37.877L261.083 41.915ZM269.308 45.849C271.129 45.849 272.912 45.5413 274.458 44.698L271.454 39.19C271.122 39.3707 270.473 39.575 269.308 39.575V45.849ZM274.458 44.698C275.966 43.8754 277.33 42.4664 278.576 40.8521L273.608 37.0199C272.549 38.3923 271.823 38.9886 271.454 39.19L274.458 44.698ZM273.216 37.6825C272.535 39.2441 271.926 40.3631 271.405 41.1125L276.555 44.6954C277.399 43.4822 278.198 41.9559 278.967 40.1895L273.216 37.6825ZM271.303 41.2682C270.728 42.209 269.821 43.0449 268.405 43.7209L271.107 49.3831C273.445 48.2671 275.354 46.671 276.657 44.5398L271.303 41.2682ZM268.405 43.7209C266.977 44.4022 265.395 44.759 263.612 44.759V51.033C266.266 51.033 268.78 50.4938 271.107 49.3831L268.405 43.7209ZM263.612 44.759C260.013 44.759 257.343 43.4935 255.288 40.9815L250.432 44.9545C253.753 49.0132 258.251 51.033 263.612 51.033V44.759ZM255.288 40.9815C253.179 38.4047 251.965 34.7816 251.965 29.784H245.691C245.691 35.7944 247.164 40.9606 250.432 44.9545L255.288 40.9815ZM251.965 29.784C251.965 24.734 253.31 20.9822 255.731 18.2198L251.013 14.0842C247.375 18.2338 245.691 23.57 245.691 29.784H251.965ZM255.731 18.2198C258.115 15.5003 261.216 14.105 265.34 14.105V7.83096C259.565 7.83096 254.688 9.89174 251.013 14.0842L255.731 18.2198ZM265.34 14.105C268.197 14.105 270.089 14.8439 271.378 15.9951L275.558 11.3168C272.836 8.88405 269.31 7.83096 265.34 7.83096V14.105ZM271.43 16.0413C272.699 17.1253 273.403 18.5786 273.403 20.76H279.677C279.677 16.9681 278.332 13.6854 275.505 11.2707L271.43 16.0413ZM273.403 20.76C273.403 23.7203 272.106 26.008 268.91 27.8248L272.01 33.2792C276.921 30.488 279.677 26.2477 279.677 20.76H273.403ZM268.936 27.8097C267.602 28.551 266.439 28.9963 265.437 29.2154L266.778 35.3446C268.507 34.9663 270.246 34.2597 271.983 33.2943L268.936 27.8097ZM265.437 29.2154C264.401 29.4421 262.724 29.591 260.284 29.591V35.865C262.878 35.865 265.084 35.7152 266.778 35.3446L265.437 29.2154ZM264.252 9.43096C261.088 9.43096 258.995 11.5772 257.746 14.0203L263.333 16.8757C263.689 16.1802 263.982 15.879 264.127 15.7665C264.224 15.691 264.237 15.705 264.252 15.705V9.43096ZM257.722 14.0702C256.495 16.579 255.995 19.6677 255.995 23.128H262.269C262.269 20.1883 262.707 18.1569 263.358 16.8258L257.722 14.0702ZM255.995 23.128V24.152H262.269V23.128H255.995ZM255.995 24.152C255.995 25.5399 256.045 26.769 256.157 27.8142C256.264 28.8137 256.446 29.8402 256.804 30.7158L262.611 28.3402C262.611 28.3404 262.601 28.3151 262.584 28.2576C262.568 28.2009 262.547 28.1217 262.525 28.0165C262.48 27.8034 262.435 27.5171 262.395 27.1458C262.315 26.399 262.269 25.4095 262.269 24.152H255.995ZM256.852 30.8261C257.286 31.7809 257.973 32.653 258.968 33.2608C259.947 33.8594 261.014 34.073 262.012 34.073V27.799C261.9 27.799 262.028 27.778 262.24 27.9072C262.34 27.9685 262.423 28.0425 262.484 28.1144C262.543 28.1837 262.564 28.2308 262.564 28.2299L256.852 30.8261ZM262.012 34.073C265.122 34.073 267.439 32.3489 268.859 29.7548L263.356 26.7412C262.814 27.7311 262.401 27.799 262.012 27.799V34.073ZM268.874 29.7276C270.205 27.2392 270.717 24.0414 270.717 20.44H264.443C264.443 23.58 263.973 25.5874 263.342 26.7684L268.874 29.7276ZM270.717 20.44C270.717 17.6013 270.473 15.0672 269.71 13.2245L263.913 15.6235C264.175 16.2555 264.443 17.732 264.443 20.44H270.717ZM269.71 13.2246C269.292 12.2132 268.637 11.2228 267.629 10.4922C266.597 9.74395 265.419 9.43096 264.252 9.43096V15.705C264.279 15.705 264.247 15.7082 264.177 15.687C264.103 15.6647 264.021 15.6256 263.946 15.5718C263.792 15.4599 263.82 15.3974 263.913 15.6234L269.71 13.2246ZM306.564 0.855999V-2.28104H302.164L303.599 1.87864L306.564 0.855999ZM332.548 1.24L333.126 -1.84331L332.548 1.24ZM336.708 2.712L338.196 -0.0500727L338.17 -0.0636406L338.145 -0.0767469L336.708 2.712ZM337.028 19.096L335.356 16.4419L335.334 16.456L335.312 16.4704L337.028 19.096ZM333.828 20.632L332.95 17.6204L332.932 17.6256L332.915 17.6309L333.828 20.632ZM329.476 21.4L329.13 18.2822L329.087 24.5128L329.476 21.4ZM334.916 22.36L334.082 25.3841L334.142 25.4007L334.203 25.415L334.916 22.36ZM338.692 23.768L340.176 21.0038L340.155 20.9925L340.134 20.9816L338.692 23.768ZM342.852 27.736L345.542 26.122L342.852 27.736ZM342.724 39.576L345.441 41.1454L345.448 41.1325L345.455 41.1196L342.724 39.576ZM338.244 44.12L339.782 46.8542L339.811 46.8378L339.84 46.8208L338.244 44.12ZM306.564 47L303.613 45.9374L302.101 50.137H306.564V47ZM307.14 45.4L310.092 46.4626L310.171 46.2435L310.216 46.0152L307.14 45.4ZM307.46 42.776L304.338 42.4738L307.46 42.776ZM307.652 8.216H310.789V8.15451L310.787 8.09307L307.652 8.216ZM307.524 4.952L310.659 4.82907L310.653 4.67556L310.632 4.52336L307.524 4.952ZM307.204 2.904H304.067V3.41308L304.228 3.89603L307.204 2.904ZM319.428 3.096L319.337 -0.0397234L316.291 0.0485697V3.096H319.428ZM319.428 20.824H316.291V23.961H319.428V20.824ZM328.772 18.392L326.279 16.4888V16.4888L328.772 18.392ZM328.836 5.272L326.327 7.15422L326.356 7.19343L326.387 7.23169L328.836 5.272ZM323.844 2.968V-0.169039H323.799L323.753 -0.167722L323.844 2.968ZM319.364 22.872V19.735H316.227V22.872H319.364ZM319.364 44.952H316.227V48.089H319.364V44.952ZM329.86 25.816L332.305 23.8498V23.8498L329.86 25.816ZM306.564 3.99304H326.852V-2.28104H306.564V3.99304ZM326.852 3.99304C329.211 3.99304 330.886 4.12 331.97 4.32331L333.126 -1.84331C331.48 -2.152 329.357 -2.28104 326.852 -2.28104V3.99304ZM331.97 4.32331C332.998 4.51604 334.097 4.89555 335.272 5.50074L338.145 -0.0767469C336.504 -0.922223 334.829 -1.52404 333.126 -1.84331L331.97 4.32331ZM335.221 5.47407C336.479 6.15129 337.273 6.92529 337.768 7.74316C338.261 8.558 338.563 9.59443 338.563 10.968H344.837C344.837 8.62957 344.308 6.434 343.137 4.49683C341.967 2.5627 340.266 1.06471 338.196 -0.0500727L335.221 5.47407ZM338.563 10.968C338.563 13.2645 337.631 15.0086 335.356 16.4419L338.701 21.7501C342.655 19.258 344.837 15.5835 344.837 10.968H338.563ZM335.312 16.4704C334.401 17.0657 333.615 17.4264 332.95 17.6204L334.707 23.6436C336.089 23.2403 337.437 22.577 338.745 21.7216L335.312 16.4704ZM332.915 17.6309C332.215 17.8439 330.994 18.075 329.13 18.2822L329.823 24.5178C331.798 24.2983 333.479 24.0175 334.742 23.6331L332.915 17.6309ZM329.087 24.5128C331.432 24.8059 333.066 25.1039 334.082 25.3841L335.751 19.3359C334.292 18.9334 332.299 18.5914 329.865 18.2872L329.087 24.5128ZM334.203 25.415C335.216 25.6512 336.231 26.0266 337.251 26.5544L340.134 20.9816C338.679 20.2294 337.177 19.6661 335.629 19.305L334.203 25.415ZM337.209 26.5322C338.458 27.2026 339.429 28.1273 340.162 29.35L345.542 26.122C344.228 23.9314 342.425 22.2107 340.176 21.0038L337.209 26.5322ZM340.162 29.35C340.885 30.5545 341.251 31.8713 341.251 33.368H347.525C347.525 30.7687 346.868 28.3308 345.542 26.122L340.162 29.35ZM341.251 33.368C341.251 34.9831 340.846 36.523 339.993 38.0324L345.455 41.1196C346.821 38.7037 347.525 36.1049 347.525 33.368H341.251ZM340.008 38.0066C339.164 39.4677 338.053 40.5892 336.648 41.4192L339.84 46.8208C342.19 45.4321 344.066 43.5243 345.441 41.1454L340.008 38.0066ZM336.706 41.3858C333.933 42.9461 329.942 43.863 324.484 43.863V50.137C330.547 50.137 335.729 49.1339 339.782 46.8542L336.706 41.3858ZM324.484 43.863H306.564V50.137H324.484V43.863ZM309.516 48.0626L310.092 46.4626L304.189 44.3374L303.613 45.9374L309.516 48.0626ZM310.216 46.0152C310.338 45.4066 310.458 44.3723 310.583 43.0782L304.338 42.4738C304.207 43.8251 304.113 44.5401 304.064 44.7848L310.216 46.0152ZM310.583 43.0782C310.712 41.7378 310.789 40.6312 310.789 39.832H304.515C304.515 40.3128 304.464 41.1689 304.338 42.4738L310.583 43.0782ZM310.789 39.832V8.216H304.515V39.832H310.789ZM310.787 8.09307L310.659 4.82907L304.39 5.07493L304.518 8.33893L310.787 8.09307ZM310.632 4.52336C310.546 3.89835 310.473 3.3967 310.416 3.02771C310.387 2.84496 310.36 2.6773 310.333 2.53568C310.322 2.47371 310.272 2.18765 310.18 1.91197L304.228 3.89603C304.199 3.80863 304.182 3.74169 304.175 3.71465C304.166 3.68226 304.161 3.6598 304.16 3.65203C304.156 3.63744 304.157 3.64119 304.163 3.67231C304.174 3.73336 304.192 3.8377 304.217 3.99628C304.266 4.30997 304.332 4.76832 304.417 5.38064L310.632 4.52336ZM310.341 2.904C310.341 2.38986 310.2 1.91299 310.198 1.90565C310.154 1.73731 310.098 1.54959 310.039 1.3603C309.918 0.975268 309.747 0.461461 309.53 -0.166646L303.599 1.87864C303.809 2.48787 303.957 2.93406 304.05 3.2317C304.098 3.38374 304.122 3.46802 304.131 3.50235C304.135 3.521 304.129 3.49675 304.118 3.44522C304.113 3.41877 304.103 3.3653 304.093 3.2936C304.085 3.23405 304.067 3.09115 304.067 2.904H310.341ZM316.291 3.096V20.824H322.565V3.096H316.291ZM319.428 23.961H323.652V17.687H319.428V23.961ZM323.652 23.961C326.731 23.961 329.391 22.7525 331.266 20.2952L326.279 16.4888C325.679 17.2741 324.926 17.687 323.652 17.687V23.961ZM331.266 20.2952C333.054 17.9528 333.765 14.9824 333.765 11.736H327.491C327.491 14.1216 326.966 15.5885 326.279 16.4888L331.266 20.2952ZM333.765 11.736C333.765 8.53243 333.093 5.57129 331.286 3.31231L326.387 7.23169C326.969 7.95938 327.491 9.30756 327.491 11.736H333.765ZM331.346 3.38978C329.517 0.95065 326.857 -0.169039 323.844 -0.169039V6.10504C325.184 6.10504 325.852 6.52135 326.327 7.15422L331.346 3.38978ZM323.753 -0.167722L319.337 -0.0397234L319.519 6.23172L323.935 6.10372L323.753 -0.167722ZM316.227 22.872V44.952H322.501V22.872H316.227ZM319.364 48.089H323.14V41.815H319.364V48.089ZM323.14 48.089C326.853 48.089 330.139 46.9056 332.398 44.1058C334.553 41.4348 335.365 37.7825 335.365 33.688H329.091C329.091 37.1028 328.389 39.0825 327.515 40.1662C326.744 41.1211 325.486 41.815 323.14 41.815V48.089ZM335.365 33.688C335.365 29.9072 334.452 26.5198 332.305 23.8498L327.416 27.7822C328.426 29.0376 329.091 30.8981 329.091 33.688H335.365ZM332.305 23.8498C330.086 21.0915 327.025 19.735 323.46 19.735V26.009C325.272 26.009 326.477 26.6151 327.416 27.7822L332.305 23.8498ZM323.46 19.735H319.364V26.009H323.46V19.735ZM371.006 24.536L371.49 27.6354L374.143 27.2209V24.536H371.006ZM370.11 14.68L372.586 12.754L372.564 12.726L372.542 12.6984L370.11 14.68ZM363.518 13.208L364.38 16.2243V16.2243L363.518 13.208ZM360.958 14.36L359.471 11.5979L354.374 14.3422L359.456 17.114L360.958 14.36ZM362.942 15.96L360.363 17.7456L360.396 17.7946L360.432 17.8422L362.942 15.96ZM362.302 20.952L364.52 23.1702L362.302 20.952ZM356.414 20.952L354.082 23.0506L354.137 23.1119L354.196 23.1702L356.414 20.952ZM358.782 13.016L360.284 15.77V15.77L358.782 13.016ZM379.134 14.872L381.45 12.7568L381.421 12.7241L381.39 12.6923L379.134 14.872ZM380.99 18.2L377.966 19.0342L377.97 19.048L377.973 19.0618L380.99 18.2ZM381.502 39.832H378.365V39.926L378.37 40.0199L381.502 39.832ZM381.694 43.032H384.831V42.938L384.825 42.8441L381.694 43.032ZM381.758 44.568L384.834 43.9528V43.9527L381.758 44.568ZM382.526 47V50.137H386.878L385.502 46.008L382.526 47ZM370.942 47H367.805V50.137H370.942V47ZM370.942 41.176H374.079V29.2771L368.213 39.6294L370.942 41.176ZM365.758 46.616L367.101 49.4511L367.167 49.4198L367.231 49.3856L365.758 46.616ZM363.006 47.512L362.366 44.4409L362.305 44.4536L362.245 44.4686L363.006 47.512ZM353.534 45.464L351.258 47.6231L351.286 47.653L351.316 47.6822L353.534 45.464ZM356.414 29.016L354.725 26.3724L354.718 26.3769L354.711 26.3814L356.414 29.016ZM361.406 26.712L362.333 29.7088L362.392 29.6906L362.45 29.6702L361.406 26.712ZM365.246 25.56L365.951 28.6167L365.246 25.56ZM370.878 26.2H374.015V22.6039L370.452 23.092L370.878 26.2ZM363.838 29.016L365.832 31.4376L365.898 31.3835L365.96 31.3259L363.838 29.016ZM362.046 31.832L364.991 32.9119L362.046 31.832ZM362.622 40.536L359.986 42.2367L360.018 42.2864L360.052 42.335L362.622 40.536ZM374.143 24.536V18.84H367.869V24.536H374.143ZM374.143 18.84C374.143 16.7495 373.877 14.4137 372.586 12.754L367.634 16.606C367.541 16.4874 367.623 16.5292 367.715 16.9565C367.803 17.3642 367.869 17.976 367.869 18.84H374.143ZM372.542 12.6984C370.829 10.5963 368.339 9.81496 365.758 9.81496V16.089C367.102 16.089 367.513 16.4597 367.678 16.6616L372.542 12.6984ZM365.758 9.81496C364.687 9.81496 363.627 9.91417 362.656 10.1917L364.38 16.2243C364.603 16.1605 365.036 16.089 365.758 16.089V9.81496ZM362.656 10.1917C361.718 10.4596 360.619 10.9793 359.471 11.5979L362.445 17.1221C363.515 16.5461 364.123 16.2978 364.38 16.2243L362.656 10.1917ZM359.456 17.114C359.8 17.302 360.036 17.4626 360.189 17.5859C360.343 17.7106 360.379 17.7694 360.363 17.7456L365.521 14.1744C364.742 13.0493 363.603 12.2295 362.46 11.606L359.456 17.114ZM360.432 17.8422C360.402 17.8018 360.381 17.7656 360.368 17.7384C360.355 17.7118 360.352 17.6989 360.354 17.7053C360.358 17.7209 360.381 17.8123 360.381 18.008H366.655C366.655 16.7006 366.36 15.2886 365.451 14.0778L360.432 17.8422ZM360.381 18.008C360.381 18.3325 360.303 18.5146 360.084 18.7338L364.52 23.1702C365.922 21.768 366.655 19.9875 366.655 18.008H360.381ZM360.084 18.7338C359.864 18.9529 359.682 19.031 359.358 19.031V25.305C361.337 25.305 363.118 24.5724 364.52 23.1702L360.084 18.7338ZM359.358 19.031C359.033 19.031 358.851 18.9529 358.632 18.7338L354.196 23.1702C355.598 24.5724 357.378 25.305 359.358 25.305V19.031ZM358.746 18.8534C358.498 18.5783 358.399 18.324 358.399 17.944H352.125C352.125 19.868 352.794 21.619 354.082 23.0506L358.746 18.8534ZM358.399 17.944C358.399 17.468 358.559 16.7109 360.284 15.77L357.28 10.262C354.311 11.8811 352.125 14.4093 352.125 17.944H358.399ZM360.284 15.77C362.017 14.8249 364.518 14.233 367.998 14.233V7.95896C363.883 7.95896 360.24 8.64712 357.28 10.262L360.284 15.77ZM367.998 14.233C372.506 14.233 375.251 15.3678 376.878 17.0516L381.39 12.6923C378.153 9.34155 373.473 7.95896 367.998 7.95896V14.233ZM376.817 16.9872C377.392 17.6166 377.761 18.2908 377.966 19.0342L384.014 17.3658C383.536 15.6346 382.668 14.0901 381.45 12.7568L376.817 16.9872ZM377.973 19.0618C378.192 19.8251 378.365 21.2621 378.365 23.576H384.639C384.639 21.1112 384.471 18.9642 384.006 17.3382L377.973 19.0618ZM378.365 23.576V39.832H384.639V23.576H378.365ZM378.37 40.0199L378.562 43.2199L384.825 42.8441L384.633 39.6441L378.37 40.0199ZM378.557 43.032C378.557 43.7405 378.565 44.6 378.682 45.1833L384.834 43.9527C384.856 44.0611 384.858 44.1177 384.855 44.0763C384.852 44.0489 384.848 43.9907 384.844 43.8934C384.836 43.6983 384.831 43.4156 384.831 43.032H378.557ZM378.682 45.1832C378.744 45.4941 378.881 45.9336 378.99 46.2807C379.126 46.7092 379.313 47.282 379.55 47.992L385.502 46.008C385.269 45.31 385.094 44.7734 384.973 44.3913C384.913 44.1995 384.87 44.0585 384.841 43.9616C384.804 43.832 384.815 43.8586 384.834 43.9528L378.682 45.1832ZM382.526 43.863H370.942V50.137H382.526V43.863ZM374.079 47V41.176H367.805V47H374.079ZM368.213 39.6294C366.97 41.8216 365.629 43.1314 364.285 43.8464L367.231 49.3856C369.897 47.9673 372.012 45.6504 373.671 42.7226L368.213 39.6294ZM364.415 43.7809C363.862 44.0429 363.186 44.27 362.366 44.4409L363.646 50.5831C364.873 50.3273 366.032 49.9571 367.101 49.4511L364.415 43.7809ZM362.245 44.4686C361.414 44.6765 360.735 44.759 360.19 44.759V51.033C361.352 51.033 362.55 50.8596 363.767 50.5554L362.245 44.4686ZM360.19 44.759C358.004 44.759 356.656 44.1501 355.752 43.2458L351.316 47.6822C353.654 50.0206 356.743 51.033 360.19 51.033V44.759ZM355.81 43.3049C354.912 42.3587 354.303 40.9428 354.303 38.68H348.029C348.029 42.1345 348.998 45.2413 351.258 47.6231L355.81 43.3049ZM354.303 38.68C354.303 35.5585 355.516 33.3314 358.117 31.6506L354.711 26.3814C350.314 29.2233 348.029 33.4388 348.029 38.68H354.303ZM358.103 31.6596C359.395 30.8339 360.802 30.1828 362.333 29.7088L360.478 23.7152C358.426 24.3506 356.505 25.2354 354.725 26.3724L358.103 31.6596ZM362.45 29.6702C363.825 29.1847 364.988 28.8389 365.951 28.6167L364.54 22.5033C363.285 22.7931 361.888 23.2152 360.362 23.7538L362.45 29.6702ZM365.951 28.6167C366.939 28.3887 368.759 28.0622 371.49 27.6354L370.522 21.4366C367.791 21.8632 365.771 22.2193 364.54 22.5033L365.951 28.6167ZM374.015 34.392V26.2H367.741V34.392H374.015ZM370.452 23.092C366.985 23.567 363.938 24.6639 361.715 26.7061L365.96 31.3259C366.895 30.4668 368.542 29.6863 371.304 29.308L370.452 23.092ZM361.844 26.5944C360.536 27.6713 359.681 29.17 359.101 30.7521L364.991 32.9119C365.35 31.934 365.689 31.5554 365.832 31.4376L361.844 26.5944ZM359.101 30.7521C358.513 32.3553 358.205 34.0001 358.205 35.672H364.479C364.479 34.7839 364.64 33.8687 364.991 32.9119L359.101 30.7521ZM358.205 35.672C358.205 38.0618 358.74 40.3055 359.986 42.2367L365.258 38.8353C364.797 38.1211 364.479 37.1222 364.479 35.672H358.205ZM360.052 42.335C361.413 44.2796 363.408 45.593 365.95 45.593V39.319C365.846 39.319 365.622 39.3524 365.192 38.737L360.052 42.335ZM365.95 45.593C368.628 45.593 370.902 44.4 372.323 42.0758C373.589 40.0031 374.015 37.2974 374.015 34.392H367.741C367.741 36.8626 367.345 38.1889 366.969 38.8042C366.809 39.0656 366.68 39.1564 366.604 39.198C366.521 39.2429 366.336 39.319 365.95 39.319V45.593ZM409.298 12.632L412.077 14.0876L414.253 9.93252L409.582 9.50785L409.298 12.632ZM407.89 12.504L408.174 9.37984L408.032 9.36696H407.89V12.504ZM403.346 15.96L406.141 17.384L406.146 17.3735L406.152 17.3629L403.346 15.96ZM413.714 39.704L412.246 36.9315L412.179 36.9668L412.115 37.0052L413.714 39.704ZM415.506 38.424L417.724 40.6422L415.506 38.424ZM417.17 36.12L420.278 36.5439L414.48 34.506L417.17 36.12ZM416.274 40.344L413.326 39.2719L413.311 39.3118L413.298 39.352L416.274 40.344ZM414.674 43.288L417.179 45.1757L417.2 45.1486L417.22 45.121L414.674 43.288ZM395.154 42.968L392.652 44.8605L395.154 42.968ZM395.858 16.216L393.512 14.1337L393.51 14.1356L395.858 16.216ZM414.546 12.632L412.902 15.3037V15.3037L414.546 12.632ZM415.762 19.928L417.98 22.1462V22.1462L415.762 19.928ZM408.21 15L405.273 13.8985L405.242 13.9806L405.216 14.0643L408.21 15ZM409.582 9.50785L408.174 9.37984L407.606 15.6282L409.014 15.7562L409.582 9.50785ZM407.89 9.36696C404.387 9.36696 401.995 11.6479 400.54 14.5571L406.152 17.3629C407.001 15.6641 407.638 15.641 407.89 15.641V9.36696ZM400.551 14.536C399.09 17.4029 398.481 20.9811 398.481 25.048H404.755C404.755 21.5202 405.298 19.0397 406.141 17.384L400.551 14.536ZM398.481 25.048C398.481 30.0317 399.345 34.3875 401.311 37.9063L406.788 34.8457C405.512 32.5619 404.755 29.3656 404.755 25.048H398.481ZM401.311 37.9063C403.321 41.5021 406.364 43.865 410.45 43.865V37.591C409.245 37.591 408.022 37.0526 406.788 34.8457L401.311 37.9063ZM410.45 43.865C412.184 43.865 413.822 43.2862 415.313 42.4028L412.115 37.0052C411.301 37.4871 410.763 37.591 410.45 37.591V43.865ZM415.182 42.4765C416.121 41.9793 416.989 41.3777 417.724 40.6422L413.288 36.2058C413.084 36.409 412.758 36.6607 412.246 36.9315L415.182 42.4765ZM417.724 40.6422C418.469 39.897 419.181 38.8648 419.86 37.734L414.48 34.506C413.878 35.5085 413.481 36.0124 413.288 36.2058L417.724 40.6422ZM414.062 35.6961C413.814 37.5117 413.55 38.6537 413.326 39.2719L419.222 41.4161C419.68 40.157 420.014 38.4829 420.278 36.5439L414.062 35.6961ZM413.298 39.352C413.13 39.8557 412.778 40.5527 412.128 41.455L417.22 45.121C418.106 43.8899 418.82 42.6243 419.25 41.336L413.298 39.352ZM412.168 41.4003C410.434 43.7023 408.196 44.823 405.138 44.823V51.097C410.101 51.097 414.22 49.103 417.179 45.1757L412.168 41.4003ZM405.138 44.823C401.992 44.823 399.586 43.6273 397.656 41.0755L392.652 44.8605C395.756 48.9647 400.007 51.097 405.138 51.097V44.823ZM397.656 41.0755C395.665 38.4435 394.515 34.7583 394.515 29.72H388.241C388.241 35.6897 389.608 40.8365 392.652 44.8605L397.656 41.0755ZM394.515 29.72C394.515 24.6553 395.846 20.9599 398.206 18.2964L393.51 14.1356C389.897 18.2134 388.241 23.5207 388.241 29.72H394.515ZM398.204 18.2983C400.578 15.6233 403.7 14.233 407.89 14.233V7.95896C402.095 7.95896 397.196 9.98199 393.512 14.1337L398.204 18.2983ZM407.89 14.233C410.314 14.233 411.898 14.6859 412.902 15.3037L416.19 9.96032C413.866 8.53007 411.012 7.95896 407.89 7.95896V14.233ZM412.902 15.3037C413.767 15.8363 413.905 16.2757 413.905 16.792H420.179C420.179 13.8096 418.652 11.4757 416.19 9.96032L412.902 15.3037ZM413.905 16.792C413.905 17.2209 413.792 17.4612 413.544 17.7098L417.98 22.1462C419.438 20.6881 420.179 18.8377 420.179 16.792H413.905ZM413.544 17.7098C413.338 17.9155 413.076 18.071 412.498 18.071V24.345C414.565 24.345 416.479 23.6472 417.98 22.1462L413.544 17.7098ZM412.498 18.071C412.183 18.071 411.874 17.9863 411.464 17.5948L407.132 22.1332C408.599 23.5337 410.423 24.345 412.498 24.345V18.071ZM411.464 17.5948C411.059 17.2085 411.027 16.9744 411.027 16.792H404.753C404.753 18.9136 405.659 20.7275 407.132 22.1332L411.464 17.5948ZM411.027 16.792C411.027 16.6954 411.051 16.426 411.204 15.9357L405.216 14.0643C404.942 14.9394 404.753 15.8646 404.753 16.792H411.027ZM411.147 16.1015C411.344 15.5763 411.646 14.9093 412.077 14.0876L406.519 11.1764C406.011 12.1467 405.588 13.0584 405.273 13.8985L411.147 16.1015ZM424.977 47L422.025 45.9374L420.513 50.137H424.977V47ZM425.553 45.4L428.504 46.4626L428.572 46.2751L428.615 46.0805L425.553 45.4ZM426.065 8.28H429.202V8.18781L429.196 8.09579L426.065 8.28ZM425.873 5.016L429.004 4.83179L428.999 4.73488L428.987 4.63852L425.873 5.016ZM424.977 0.855999V-2.28104H420.71L421.983 1.7917L424.977 0.855999ZM436.625 0.855999H439.762V-2.28104H436.625V0.855999ZM436.625 27.224H433.488V35.7584L439.015 29.2557L436.625 27.224ZM437.713 25.944L440.103 27.9757L440.126 27.9492L440.148 27.9222L437.713 25.944ZM439.057 23.96L441.825 25.4363V25.4362L439.057 23.96ZM441.425 18.968L438.619 17.5651L438.596 17.6103L438.575 17.6563L441.425 18.968ZM442.193 17.432L444.999 18.8349V18.8349L442.193 17.432ZM443.537 15.192L446.126 16.9634L446.133 16.9525L446.141 16.9415L443.537 15.192ZM454.097 12.248L456.138 9.86618V9.86618L454.097 12.248ZM454.225 18.072L452.067 15.7947L454.225 18.072ZM447.121 15.32L443.988 15.1633L443.984 15.2416V15.32H447.121ZM447.185 14.04L450.318 14.1967L450.693 6.70251L445.096 11.7L447.185 14.04ZM444.753 16.408L442.343 14.3997L442.291 14.4615L442.243 14.5258L444.753 16.408ZM443.345 18.904L446.138 20.3328L446.155 20.2991L446.171 20.2649L443.345 18.904ZM441.937 21.656L444.615 23.2892L444.676 23.1891L444.73 23.0848L441.937 21.656ZM440.337 24.28L437.658 22.6468L431.8 32.2551L441.784 27.0632L440.337 24.28ZM442.833 23.192L442.025 20.1609L441.998 20.168L441.971 20.1757L442.833 23.192ZM451.217 25.944L453.666 23.9843L453.661 23.978L453.656 23.9717L451.217 25.944ZM453.393 29.72L450.492 30.9144L450.514 30.9667L450.537 31.0181L453.393 29.72ZM455.249 35.288L452.212 36.0753L452.22 36.1053L452.228 36.1352L455.249 35.288ZM456.721 40.536L459.764 39.7752L459.753 39.7318L459.741 39.6888L456.721 40.536ZM457.745 43.672L454.861 44.9077L454.873 44.9336L454.884 44.9593L457.745 43.672ZM459.537 47V50.137H465.048L462.234 45.3984L459.537 47ZM448.593 47L446.165 48.9865L447.106 50.137H448.593V47ZM446.993 44.696L444.15 46.0226L444.168 46.061L444.187 46.0989L446.993 44.696ZM446.161 41.816L449.237 41.2008L449.232 41.1751L449.226 41.1496L446.161 41.816ZM445.201 37.4L442.133 38.0573L442.135 38.0664L445.201 37.4ZM444.241 33.432L447.246 32.5306V32.5306L444.241 33.432ZM443.281 30.936L440.368 32.1011L440.404 32.1912L440.446 32.2789L443.281 30.936ZM436.625 30.168L434.546 27.8184L433.488 28.7547V30.168H436.625ZM436.625 39.704H433.488V39.7944L433.493 39.8847L436.625 39.704ZM436.817 43.032H439.954V42.9416L439.949 42.8513L436.817 43.032ZM436.881 44.568L433.786 45.0837V45.0837L436.881 44.568ZM437.649 47V50.137H442.044L440.615 45.9802L437.649 47ZM427.928 48.0626L428.504 46.4626L422.601 44.3374L422.025 45.9374L427.928 48.0626ZM428.615 46.0805C429.023 44.2475 429.202 42.104 429.202 39.704H422.928C422.928 41.8267 422.766 43.4805 422.491 44.7195L428.615 46.0805ZM429.202 39.704V8.28H422.928V39.704H429.202ZM429.196 8.09579L429.004 4.83179L422.741 5.20021L422.933 8.46421L429.196 8.09579ZM428.987 4.63852C428.793 3.03956 428.454 1.4661 427.971 -0.0797005L421.983 1.7917C422.353 2.97656 422.611 4.17644 422.759 5.39348L428.987 4.63852ZM424.977 3.99304H436.625V-2.28104H424.977V3.99304ZM433.488 0.855999V27.224H439.762V0.855999H433.488ZM439.015 29.2557L440.103 27.9757L435.323 23.9123L434.235 25.1923L439.015 29.2557ZM440.148 27.9222C440.803 27.115 441.371 26.2866 441.825 25.4363L436.289 22.4837C436.06 22.9134 435.732 23.4077 435.278 23.9658L440.148 27.9222ZM441.825 25.4362C442.219 24.6965 443.052 22.9354 444.274 20.2797L438.575 17.6563C437.323 20.3766 436.577 21.9435 436.289 22.4837L441.825 25.4362ZM444.231 20.3709C444.572 19.6883 444.828 19.1763 444.999 18.8349L439.387 16.0291C439.216 16.3704 438.96 16.8824 438.619 17.5651L444.231 20.3709ZM444.999 18.8349C445.261 18.31 445.63 17.6879 446.126 16.9634L440.948 13.4206C440.334 14.3175 439.807 15.1887 439.387 16.0291L444.999 18.8349ZM446.141 16.9415C447.484 14.9426 448.938 14.233 450.641 14.233V7.95896C446.541 7.95896 443.259 9.98011 440.933 13.4425L446.141 16.9415ZM450.641 14.233C451.452 14.233 451.833 14.4395 452.055 14.6298L456.138 9.86618C454.568 8.52051 452.646 7.95896 450.641 7.95896V14.233ZM452.055 14.6298C452.218 14.7696 452.304 14.8837 452.304 15.256H458.578C458.578 13.1536 457.767 11.2624 456.138 9.86618L452.055 14.6298ZM452.304 15.256C452.304 15.4975 452.257 15.6146 452.067 15.7947L456.382 20.3493C457.814 18.9934 458.578 17.2332 458.578 15.256H452.304ZM452.067 15.7947C451.835 16.0147 451.646 16.087 451.345 16.087V22.361C453.263 22.361 454.993 21.6653 456.382 20.3493L452.067 15.7947ZM451.345 16.087C450.891 16.087 450.679 15.9697 450.494 15.7947L446.179 20.3493C447.616 21.7103 449.409 22.361 451.345 22.361V16.087ZM450.494 15.7947C450.276 15.5879 450.258 15.4809 450.258 15.32H443.984C443.984 17.2924 444.776 19.0201 446.179 20.3493L450.494 15.7947ZM450.254 15.4767L450.318 14.1967L444.052 13.8833L443.988 15.1633L450.254 15.4767ZM445.096 11.7C443.901 12.7668 442.933 13.6917 442.343 14.3997L447.163 18.4163C447.426 18.1003 448.08 17.4465 449.274 16.38L445.096 11.7ZM442.243 14.5258C441.669 15.2919 441.092 16.351 440.518 17.5431L446.171 20.2649C446.707 19.153 447.069 18.5481 447.262 18.2902L442.243 14.5258ZM440.552 17.4752L439.144 20.2272L444.73 23.0848L446.138 20.3328L440.552 17.4752ZM439.258 20.0228L437.658 22.6468L443.015 25.9132L444.615 23.2892L439.258 20.0228ZM441.784 27.0632C442.803 26.5334 443.409 26.2899 443.695 26.2083L441.971 20.1757C441.062 20.4354 440.004 20.9172 438.89 21.4968L441.784 27.0632ZM443.641 26.2231C443.966 26.1364 444.413 26.073 445.009 26.073V19.799C443.984 19.799 442.979 19.9063 442.025 20.1609L443.641 26.2231ZM445.009 26.073C446.552 26.073 447.735 26.6268 448.777 27.9163L453.656 23.9717C451.456 21.2506 448.5 19.799 445.009 19.799V26.073ZM448.767 27.9037C449.409 28.7065 449.992 29.699 450.492 30.9144L456.294 28.5256C455.599 26.8397 454.731 25.3149 453.666 23.9843L448.767 27.9037ZM450.537 31.0181C451.074 32.1985 451.639 33.8637 452.212 36.0753L458.285 34.5007C457.664 32.1043 456.992 30.0575 456.249 28.4219L450.537 31.0181ZM452.228 36.1352L453.7 41.3832L459.741 39.6888L458.269 34.4408L452.228 36.1352ZM453.677 41.2968C454.007 42.6137 454.397 43.8241 454.861 44.9077L460.628 42.4363C460.325 41.7279 460.032 40.8477 459.764 39.7752L453.677 41.2968ZM454.884 44.9593C455.338 45.969 456.004 47.1941 456.839 48.6016L462.234 45.3984C461.449 44.0753 460.919 43.0817 460.606 42.3847L454.884 44.9593ZM459.537 43.863H448.593V50.137H459.537V43.863ZM451.021 45.0135C450.301 44.1343 449.941 43.5785 449.799 43.2931L444.187 46.0989C444.642 47.0081 445.348 47.9883 446.165 48.9865L451.021 45.0135ZM449.836 43.3694C449.697 43.0726 449.478 42.4049 449.237 41.2008L443.085 42.4312C443.356 43.787 443.691 45.0394 444.15 46.0226L449.836 43.3694ZM449.226 41.1496L448.266 36.7336L442.135 38.0664L443.095 42.4824L449.226 41.1496ZM448.268 36.7427C447.881 34.9353 447.54 33.5105 447.246 32.5306L441.236 34.3334C441.454 35.0602 441.753 36.2807 442.133 38.0573L448.268 36.7427ZM447.246 32.5306C446.944 31.525 446.567 30.5455 446.116 29.5931L440.446 32.2789C440.763 32.9479 441.026 33.6324 441.236 34.3334L447.246 32.5306ZM446.194 29.7709C445.709 28.56 444.928 27.4447 443.752 26.6536C442.579 25.8637 441.253 25.559 439.953 25.559V31.833C440.118 31.833 440.21 31.8521 440.245 31.862C440.277 31.8706 440.271 31.8732 440.249 31.8584C440.227 31.8436 440.225 31.8355 440.242 31.8572C440.261 31.8824 440.309 31.9542 440.368 32.1011L446.194 29.7709ZM439.953 25.559C437.852 25.559 436.034 26.5021 434.546 27.8184L438.703 32.5176C439.434 31.8712 439.835 31.833 439.953 31.833V25.559ZM433.488 30.168V39.704H439.762V30.168H433.488ZM433.493 39.8847L433.685 43.2127L439.949 42.8513L439.757 39.5233L433.493 39.8847ZM433.68 43.032C433.68 43.7586 433.694 44.5298 433.786 45.0837L439.975 44.0523C439.984 44.1027 439.983 44.1147 439.979 44.0675C439.976 44.0261 439.971 43.9592 439.967 43.8614C439.959 43.6646 439.954 43.3916 439.954 43.032H433.68ZM433.786 45.0837C433.851 45.4707 434.001 45.9567 434.113 46.3127C434.253 46.7545 434.444 47.3268 434.682 48.0198L440.615 45.9802C440.384 45.3079 440.213 44.7922 440.096 44.4233C440.038 44.2382 439.998 44.1059 439.974 44.0182C439.941 43.9004 439.956 43.9389 439.975 44.0523L433.786 45.0837ZM437.649 43.863H424.977V50.137H437.649V43.863Z" fill="white" mask="url(#path-1-outside-1_743_2105)"/>
</g>
<defs>
<filter id="filter0_d_743_2105" x="0.286133" y="0.855988" width="463.957" height="55.7949" filterUnits="userSpaceOnUse" color-interpolation-filters="sRGB">
<feFlood flood-opacity="0" result="BackgroundImageFix"/>
<feColorMatrix in="SourceAlpha" type="matrix" values="0 0 0 0 0 0 0 0 0 0 0 0 0 0 0 0 0 0 127 0" result="hardAlpha"/>
<feOffset dx="4.70556" dy="8.62685"/>
<feComposite in2="hardAlpha" operator="out"/>
<feColorMatrix type="matrix" values="0 0 0 0 0 0 0 0 0 0 0 0 0 0 0 0 0 0 0.25 0"/>
<feBlend mode="normal" in2="BackgroundImageFix" result="effect1_dropShadow_743_2105"/>
<feBlend mode="normal" in="SourceGraphic" in2="effect1_dropShadow_743_2105" result="shape"/>
</filter>
</defs>
</svg>
