<svg width="277" height="72" viewBox="0 0 277 72" fill="none" xmlns="http://www.w3.org/2000/svg">
<g style="mix-blend-mode:hard-light" filter="url(#filter0_d_1484_1342)">
<mask id="path-1-outside-1_1484_1342" maskUnits="userSpaceOnUse" x="-2" y="-2" width="276" height="70" fill="black">
<rect fill="white" x="-2" y="-2" width="276" height="70"/>
<path d="M0.00301269 2.68C0.339013 2.008 0.867013 1.492 1.58701 1.132C2.33101 0.747999 3.20701 0.555999 4.21501 0.555999C5.79901 0.555999 7.05901 1.132 7.99501 2.284C8.95501 3.412 9.43501 5.224 9.43501 7.72V20.572L17.679 1.276H21.927L22.899 19.492L22.791 20.536L31.359 1.276H36.291L24.771 25H17.103L16.383 14.056L11.631 25H2.95501L1.87501 7.72C1.80301 6.424 1.58701 5.356 1.22701 4.516C0.891013 3.652 0.483013 3.04 0.00301269 2.68ZM49.9794 22.3C49.9794 20.62 50.3154 18.1 50.9874 14.74H45.6594L43.6794 25H36.1554L40.7274 1.24H48.3234L46.2354 11.86H51.5634L53.5435 1.24H61.1395C60.8035 3.016 60.4195 4.9 59.9875 6.892L58.7634 12.76C57.8514 17.32 57.3954 20.596 57.3954 22.588C57.3954 23.404 57.5275 24.04 57.7915 24.496C56.5915 25.312 55.2835 25.72 53.8675 25.72C52.4755 25.72 51.4795 25.384 50.8795 24.712C50.2794 24.04 49.9794 23.236 49.9794 22.3ZM79.6086 25.72C76.5366 25.72 74.8566 23.536 74.5686 19.168H68.3766C67.8966 20.272 67.4886 21.304 67.1526 22.264L66.2166 25H61.1766L72.5166 1.24H80.2566L81.7686 18.736C82.0086 21.256 82.6086 22.888 83.5686 23.632C82.8726 25.024 81.5526 25.72 79.6086 25.72ZM69.4926 16.54H74.4606L74.0286 7.288V6.316L71.4726 11.968L69.4926 16.54ZM89.6486 7.468C88.8326 6.844 88.4246 5.872 88.4246 4.552C88.4246 3.208 88.8566 2.188 89.7206 1.492C90.6086 0.795998 91.8086 0.447999 93.3206 0.447999C94.2806 0.447999 95.9006 0.615999 98.1806 0.951998L100.629 1.312C101.445 1.408 102.273 1.456 103.113 1.456C103.977 1.456 104.697 1.276 105.273 0.915999C106.137 1.684 106.569 2.62 106.569 3.724C106.569 4.828 106.077 5.776 105.093 6.568C104.085 7.408 102.933 7.828 101.637 7.828C101.013 7.828 100.197 7.744 99.1886 7.576C98.0126 11.272 97.4246 14.404 97.4246 16.972C97.4246 19.54 98.0726 21.496 99.3686 22.84C98.7686 23.92 98.0246 24.664 97.1366 25.072C96.2486 25.504 95.1326 25.72 93.7886 25.72C92.4686 25.72 91.3886 25.36 90.5486 24.64C89.7326 23.896 89.3246 22.768 89.3246 21.256C89.3246 19.504 89.8046 17.188 90.7646 14.308C91.7246 11.452 92.9246 8.932 94.3646 6.748C93.6686 6.676 92.9606 6.64 92.2406 6.64C90.7526 6.64 89.8886 6.916 89.6486 7.468ZM132.223 25.72C129.151 25.72 127.471 23.536 127.183 19.168H120.991C120.511 20.272 120.103 21.304 119.767 22.264L118.831 25H113.791L125.131 1.24H132.871L134.383 18.736C134.623 21.256 135.223 22.888 136.183 23.632C135.487 25.024 134.167 25.72 132.223 25.72ZM122.107 16.54H127.075L126.643 7.288V6.316L124.087 11.968L122.107 16.54ZM139.763 25L144.155 1.348C146.531 1.084 149.447 0.951998 152.903 0.951998C156.383 0.951998 158.927 1.456 160.535 2.464C162.143 3.472 162.947 4.996 162.947 7.036C162.947 9.052 162.419 10.696 161.363 11.968C160.331 13.24 158.915 14.08 157.115 14.488C157.523 16.48 158.195 18.28 159.131 19.888C159.995 21.4 160.931 22.396 161.939 22.876C161.579 23.884 161.027 24.604 160.283 25.036C159.563 25.492 158.675 25.72 157.619 25.72C156.587 25.72 155.663 25.42 154.847 24.82C154.031 24.196 153.299 23.32 152.651 22.192C151.283 19.744 150.527 16.588 150.383 12.724H150.635C152.411 12.676 153.743 12.196 154.631 11.284C155.519 10.348 155.963 8.908 155.963 6.964C155.963 4.54 154.943 3.28 152.903 3.184H152.111C151.895 3.184 151.727 3.196 151.607 3.22L147.467 25H139.763ZM181.763 19.456C182.219 20.032 182.447 20.788 182.447 21.724C182.447 23.02 181.967 24.016 181.007 24.712C180.047 25.384 178.811 25.72 177.299 25.72C176.435 25.72 175.343 25.624 174.023 25.432C171.431 25.024 169.739 24.82 168.947 24.82C168.155 24.82 167.603 24.844 167.291 24.892C166.979 24.916 166.571 24.952 166.067 25L170.495 1.24H186.011C186.011 2.704 185.651 3.82 184.931 4.588C184.235 5.356 183.191 5.74 181.799 5.74C180.407 5.74 179.003 5.416 177.587 4.768L176.471 11.068H182.879C182.879 12.34 182.567 13.336 181.943 14.056C181.319 14.752 180.479 15.1 179.423 15.1C178.391 15.1 177.551 14.98 176.903 14.74C176.255 14.5 175.895 14.344 175.823 14.272L174.527 21.076C175.103 21.148 175.931 21.184 177.011 21.184C178.859 21.184 180.443 20.608 181.763 19.456ZM202.288 14.416C201.592 7.912 200.02 3.964 197.572 2.572C198.076 1.948 198.736 1.468 199.552 1.132C200.368 0.771999 201.268 0.591999 202.252 0.591999C203.236 0.591999 204.1 0.771999 204.844 1.132C205.588 1.468 206.2 2.008 206.68 2.752C207.592 4.168 208.048 6.568 208.048 9.952V12.544C209.488 8.32 210.928 5.296 212.368 3.472C213.832 1.6 215.476 0.663998 217.3 0.663998C218.02 0.663998 218.62 0.855998 219.1 1.24C219.58 1.6 219.94 2.056 220.18 2.608C218.332 3.424 216.52 5.008 214.744 7.36C212.968 9.712 211.504 12.532 210.352 15.82L208.228 25H200.2L202.288 14.416ZM220.002 16.216C220.002 11.68 221.178 7.984 223.53 5.128C226.026 2.032 229.446 0.483998 233.79 0.483998C236.934 0.483998 239.298 1.252 240.882 2.788C242.466 4.3 243.258 6.664 243.258 9.88C243.258 14.776 242.01 18.652 239.514 21.508C237.042 24.316 233.73 25.72 229.578 25.72C226.338 25.72 223.926 24.916 222.342 23.308C220.782 21.676 220.002 19.312 220.002 16.216ZM229.47 8.764C228.39 13.084 227.85 16.948 227.85 20.356C227.85 21.172 227.982 21.844 228.246 22.372C228.534 22.9 229.038 23.164 229.758 23.164C230.502 23.164 231.102 22.996 231.558 22.66C232.014 22.3 232.422 21.724 232.782 20.932C233.358 19.636 233.91 17.62 234.438 14.884C234.99 12.124 235.29 10.18 235.338 9.052C235.386 7.9 235.41 6.892 235.41 6.028C235.41 5.164 235.278 4.456 235.014 3.904C234.75 3.352 234.258 3.076 233.538 3.076C232.842 3.076 232.254 3.292 231.774 3.724C230.886 4.54 230.118 6.22 229.47 8.764ZM247.505 19.672C247.505 18.736 247.625 17.668 247.865 16.468L250.781 1.24H258.737L255.857 16.576C255.641 17.704 255.533 18.688 255.533 19.528C255.533 20.344 255.701 20.968 256.037 21.4C256.397 21.832 256.901 22.048 257.549 22.048C258.197 22.048 258.725 21.964 259.133 21.796C259.541 21.628 259.913 21.34 260.249 20.932C260.897 20.116 261.425 18.664 261.833 16.576L264.749 1.24H270.185L267.305 16.54C266.633 19.948 265.373 22.336 263.525 23.704C261.725 25.048 259.049 25.72 255.497 25.72C252.833 25.72 250.793 25.144 249.377 23.992C248.129 22.984 247.505 21.544 247.505 19.672ZM7.77607 42.68C8.11207 42.008 8.64007 41.492 9.36007 41.132C10.1041 40.748 10.9801 40.556 11.9881 40.556C13.5721 40.556 14.8321 41.132 15.7681 42.284C16.7281 43.412 17.2081 45.224 17.2081 47.72V60.572L25.4521 41.276H29.7001L30.6721 59.492L30.5641 60.536L39.1321 41.276H44.0641L32.5441 65H24.8761L24.1561 54.056L19.4041 65H10.7281L9.64807 47.72C9.57607 46.424 9.36007 45.356 9.00007 44.516C8.66407 43.652 8.25607 43.04 7.77607 42.68ZM59.2144 65.72C56.1424 65.72 54.4624 63.536 54.1744 59.168H47.9824C47.5024 60.272 47.0944 61.304 46.7584 62.264L45.8224 65H40.7824L52.1224 41.24H59.8624L61.3744 58.736C61.6144 61.256 62.2144 62.888 63.1744 63.632C62.4784 65.024 61.1584 65.72 59.2144 65.72ZM49.0984 56.54H54.0664L53.6344 47.288V46.316L51.0784 51.968L49.0984 56.54ZM66.6816 65L71.2536 41.24H79.1736L74.5296 65H66.6816ZM84.66 47.468C83.844 46.844 83.436 45.872 83.436 44.552C83.436 43.208 83.868 42.188 84.732 41.492C85.62 40.796 86.82 40.448 88.332 40.448C89.292 40.448 90.912 40.616 93.192 40.952L95.64 41.312C96.456 41.408 97.284 41.456 98.124 41.456C98.988 41.456 99.708 41.276 100.284 40.916C101.148 41.684 101.58 42.62 101.58 43.724C101.58 44.828 101.088 45.776 100.104 46.568C99.096 47.408 97.944 47.828 96.648 47.828C96.024 47.828 95.208 47.744 94.2 47.576C93.024 51.272 92.436 54.404 92.436 56.972C92.436 59.54 93.084 61.496 94.38 62.84C93.78 63.92 93.036 64.664 92.148 65.072C91.26 65.504 90.144 65.72 88.8 65.72C87.48 65.72 86.4 65.36 85.56 64.64C84.744 63.896 84.336 62.768 84.336 61.256C84.336 59.504 84.816 57.188 85.776 54.308C86.736 51.452 87.936 48.932 89.376 46.748C88.68 46.676 87.972 46.64 87.252 46.64C85.764 46.64 84.9 46.916 84.66 47.468ZM101.817 65L106.389 41.24H114.309L109.665 65H101.817ZM116.663 65L120.983 41.24H128.723L134.339 57.584L137.327 41.24L141.323 41.276L136.931 65H128.687L123.503 49.268L120.623 65H116.663ZM165.88 52.76C164.152 56.552 163.288 60.644 163.288 65.036C162.64 65.492 161.836 65.72 160.876 65.72C159.94 65.72 159.172 65.492 158.572 65.036C157.972 64.604 157.612 64.16 157.492 63.704C156.892 64.328 156.1 64.82 155.116 65.18C154.156 65.54 153.16 65.72 152.128 65.72C151.096 65.72 150.124 65.552 149.212 65.216C148.324 64.88 147.532 64.34 146.836 63.596C145.3 61.964 144.532 59.6 144.532 56.504C144.532 51.704 145.816 47.864 148.384 44.984C151.024 42.008 154.684 40.52 159.364 40.52C162.604 40.52 164.8 41.36 165.952 43.04C166.312 43.568 166.492 44.156 166.492 44.804C166.492 45.428 166.348 46.016 166.06 46.568C165.796 47.096 165.448 47.576 165.016 48.008C163.984 48.968 162.832 49.448 161.56 49.448C161.056 49.448 160.564 49.364 160.084 49.196C160.18 48.476 160.228 47.696 160.228 46.856C160.228 46.016 160.192 45.404 160.12 45.02C160.072 44.636 159.976 44.288 159.832 43.976C159.52 43.328 159.016 43.004 158.32 43.004C157.648 43.004 156.928 43.376 156.16 44.12C155.416 44.84 154.744 45.8 154.144 47C152.824 49.688 152.164 52.652 152.164 55.892C152.164 57.38 152.452 58.652 153.028 59.708C153.652 60.86 154.516 61.436 155.62 61.436C156.004 61.436 156.364 61.34 156.7 61.148C157.06 60.956 157.312 60.788 157.456 60.644L158.608 53.408L165.88 52.76ZM195.051 45.92C193.107 45.92 191.427 45.596 190.011 44.948L188.859 50.78H195.807C195.807 52.052 195.483 53.096 194.835 53.912C194.211 54.704 193.323 55.1 192.171 55.1C190.923 55.1 189.723 54.872 188.571 54.416C188.331 54.32 188.199 54.26 188.175 54.236L186.123 65H178.275L182.847 41.24H198.903C198.903 42.704 198.555 43.856 197.859 44.696C197.187 45.512 196.251 45.92 195.051 45.92ZM200.347 56.216C200.347 51.68 201.523 47.984 203.875 45.128C206.371 42.032 209.791 40.484 214.135 40.484C217.279 40.484 219.643 41.252 221.227 42.788C222.811 44.3 223.603 46.664 223.603 49.88C223.603 54.776 222.355 58.652 219.859 61.508C217.387 64.316 214.075 65.72 209.923 65.72C206.683 65.72 204.271 64.916 202.687 63.308C201.127 61.676 200.347 59.312 200.347 56.216ZM209.815 48.764C208.735 53.084 208.195 56.948 208.195 60.356C208.195 61.172 208.327 61.844 208.591 62.372C208.879 62.9 209.383 63.164 210.103 63.164C210.847 63.164 211.447 62.996 211.903 62.66C212.359 62.3 212.767 61.724 213.127 60.932C213.703 59.636 214.255 57.62 214.783 54.884C215.335 52.124 215.635 50.18 215.683 49.052C215.731 47.9 215.755 46.892 215.755 46.028C215.755 45.164 215.623 44.456 215.359 43.904C215.095 43.352 214.603 43.076 213.883 43.076C213.187 43.076 212.599 43.292 212.119 43.724C211.231 44.54 210.463 46.22 209.815 48.764ZM226.841 65L231.233 41.348C233.609 41.084 236.525 40.952 239.981 40.952C243.461 40.952 246.005 41.456 247.613 42.464C249.221 43.472 250.025 44.996 250.025 47.036C250.025 49.052 249.497 50.696 248.441 51.968C247.409 53.24 245.993 54.08 244.193 54.488C244.601 56.48 245.273 58.28 246.209 59.888C247.073 61.4 248.009 62.396 249.017 62.876C248.657 63.884 248.105 64.604 247.361 65.036C246.641 65.492 245.753 65.72 244.697 65.72C243.665 65.72 242.741 65.42 241.925 64.82C241.109 64.196 240.377 63.32 239.729 62.192C238.361 59.744 237.605 56.588 237.461 52.724H237.713C239.489 52.676 240.821 52.196 241.709 51.284C242.597 50.348 243.041 48.908 243.041 46.964C243.041 44.54 242.021 43.28 239.981 43.184H239.189C238.973 43.184 238.805 43.196 238.685 43.22L234.545 65H226.841ZM254.369 62.876C254.369 61.964 254.717 61.256 255.413 60.752C256.133 60.248 256.997 59.996 258.005 59.996C259.013 59.996 259.817 60.248 260.417 60.752C261.041 61.256 261.353 61.964 261.353 62.876C261.353 63.788 261.005 64.496 260.309 65C259.637 65.48 258.797 65.72 257.789 65.72C256.781 65.72 255.953 65.48 255.305 65C254.681 64.496 254.369 63.788 254.369 62.876ZM261.641 47.756C261.113 47.9 260.321 47.972 259.265 47.972C258.209 47.972 257.297 47.756 256.529 47.324C255.761 46.892 255.377 46.304 255.377 45.56C255.377 44.792 255.557 44.108 255.917 43.508C256.301 42.908 256.889 42.392 257.681 41.96C259.337 41 261.593 40.52 264.449 40.52C267.305 40.52 269.297 40.916 270.425 41.708C271.553 42.5 272.117 43.568 272.117 44.912C272.117 46.952 271.097 48.764 269.057 50.348C268.457 50.828 267.785 51.308 267.041 51.788L260.165 56.252C259.229 56.876 258.761 57.644 258.761 58.556C258.065 58.556 257.489 58.256 257.033 57.656C256.577 57.056 256.349 56.336 256.349 55.496C256.349 53.576 257.261 52.052 259.085 50.924L263.153 48.404C264.281 47.732 265.145 46.808 265.745 45.632C265.937 45.248 266.033 44.816 266.033 44.336C266.033 43.232 265.481 42.68 264.377 42.68C263.513 42.68 262.781 43.028 262.181 43.724C261.653 44.348 261.377 45.068 261.353 45.884C261.329 46.7 261.425 47.324 261.641 47.756Z"/>
</mask>
<path d="M0.00301269 2.68C0.339013 2.008 0.867013 1.492 1.58701 1.132C2.33101 0.747999 3.20701 0.555999 4.21501 0.555999C5.79901 0.555999 7.05901 1.132 7.99501 2.284C8.95501 3.412 9.43501 5.224 9.43501 7.72V20.572L17.679 1.276H21.927L22.899 19.492L22.791 20.536L31.359 1.276H36.291L24.771 25H17.103L16.383 14.056L11.631 25H2.95501L1.87501 7.72C1.80301 6.424 1.58701 5.356 1.22701 4.516C0.891013 3.652 0.483013 3.04 0.00301269 2.68ZM49.9794 22.3C49.9794 20.62 50.3154 18.1 50.9874 14.74H45.6594L43.6794 25H36.1554L40.7274 1.24H48.3234L46.2354 11.86H51.5634L53.5435 1.24H61.1395C60.8035 3.016 60.4195 4.9 59.9875 6.892L58.7634 12.76C57.8514 17.32 57.3954 20.596 57.3954 22.588C57.3954 23.404 57.5275 24.04 57.7915 24.496C56.5915 25.312 55.2835 25.72 53.8675 25.72C52.4755 25.72 51.4795 25.384 50.8795 24.712C50.2794 24.04 49.9794 23.236 49.9794 22.3ZM79.6086 25.72C76.5366 25.72 74.8566 23.536 74.5686 19.168H68.3766C67.8966 20.272 67.4886 21.304 67.1526 22.264L66.2166 25H61.1766L72.5166 1.24H80.2566L81.7686 18.736C82.0086 21.256 82.6086 22.888 83.5686 23.632C82.8726 25.024 81.5526 25.72 79.6086 25.72ZM69.4926 16.54H74.4606L74.0286 7.288V6.316L71.4726 11.968L69.4926 16.54ZM89.6486 7.468C88.8326 6.844 88.4246 5.872 88.4246 4.552C88.4246 3.208 88.8566 2.188 89.7206 1.492C90.6086 0.795998 91.8086 0.447999 93.3206 0.447999C94.2806 0.447999 95.9006 0.615999 98.1806 0.951998L100.629 1.312C101.445 1.408 102.273 1.456 103.113 1.456C103.977 1.456 104.697 1.276 105.273 0.915999C106.137 1.684 106.569 2.62 106.569 3.724C106.569 4.828 106.077 5.776 105.093 6.568C104.085 7.408 102.933 7.828 101.637 7.828C101.013 7.828 100.197 7.744 99.1886 7.576C98.0126 11.272 97.4246 14.404 97.4246 16.972C97.4246 19.54 98.0726 21.496 99.3686 22.84C98.7686 23.92 98.0246 24.664 97.1366 25.072C96.2486 25.504 95.1326 25.72 93.7886 25.72C92.4686 25.72 91.3886 25.36 90.5486 24.64C89.7326 23.896 89.3246 22.768 89.3246 21.256C89.3246 19.504 89.8046 17.188 90.7646 14.308C91.7246 11.452 92.9246 8.932 94.3646 6.748C93.6686 6.676 92.9606 6.64 92.2406 6.64C90.7526 6.64 89.8886 6.916 89.6486 7.468ZM132.223 25.72C129.151 25.72 127.471 23.536 127.183 19.168H120.991C120.511 20.272 120.103 21.304 119.767 22.264L118.831 25H113.791L125.131 1.24H132.871L134.383 18.736C134.623 21.256 135.223 22.888 136.183 23.632C135.487 25.024 134.167 25.72 132.223 25.72ZM122.107 16.54H127.075L126.643 7.288V6.316L124.087 11.968L122.107 16.54ZM139.763 25L144.155 1.348C146.531 1.084 149.447 0.951998 152.903 0.951998C156.383 0.951998 158.927 1.456 160.535 2.464C162.143 3.472 162.947 4.996 162.947 7.036C162.947 9.052 162.419 10.696 161.363 11.968C160.331 13.24 158.915 14.08 157.115 14.488C157.523 16.48 158.195 18.28 159.131 19.888C159.995 21.4 160.931 22.396 161.939 22.876C161.579 23.884 161.027 24.604 160.283 25.036C159.563 25.492 158.675 25.72 157.619 25.72C156.587 25.72 155.663 25.42 154.847 24.82C154.031 24.196 153.299 23.32 152.651 22.192C151.283 19.744 150.527 16.588 150.383 12.724H150.635C152.411 12.676 153.743 12.196 154.631 11.284C155.519 10.348 155.963 8.908 155.963 6.964C155.963 4.54 154.943 3.28 152.903 3.184H152.111C151.895 3.184 151.727 3.196 151.607 3.22L147.467 25H139.763ZM181.763 19.456C182.219 20.032 182.447 20.788 182.447 21.724C182.447 23.02 181.967 24.016 181.007 24.712C180.047 25.384 178.811 25.72 177.299 25.72C176.435 25.72 175.343 25.624 174.023 25.432C171.431 25.024 169.739 24.82 168.947 24.82C168.155 24.82 167.603 24.844 167.291 24.892C166.979 24.916 166.571 24.952 166.067 25L170.495 1.24H186.011C186.011 2.704 185.651 3.82 184.931 4.588C184.235 5.356 183.191 5.74 181.799 5.74C180.407 5.74 179.003 5.416 177.587 4.768L176.471 11.068H182.879C182.879 12.34 182.567 13.336 181.943 14.056C181.319 14.752 180.479 15.1 179.423 15.1C178.391 15.1 177.551 14.98 176.903 14.74C176.255 14.5 175.895 14.344 175.823 14.272L174.527 21.076C175.103 21.148 175.931 21.184 177.011 21.184C178.859 21.184 180.443 20.608 181.763 19.456ZM202.288 14.416C201.592 7.912 200.02 3.964 197.572 2.572C198.076 1.948 198.736 1.468 199.552 1.132C200.368 0.771999 201.268 0.591999 202.252 0.591999C203.236 0.591999 204.1 0.771999 204.844 1.132C205.588 1.468 206.2 2.008 206.68 2.752C207.592 4.168 208.048 6.568 208.048 9.952V12.544C209.488 8.32 210.928 5.296 212.368 3.472C213.832 1.6 215.476 0.663998 217.3 0.663998C218.02 0.663998 218.62 0.855998 219.1 1.24C219.58 1.6 219.94 2.056 220.18 2.608C218.332 3.424 216.52 5.008 214.744 7.36C212.968 9.712 211.504 12.532 210.352 15.82L208.228 25H200.2L202.288 14.416ZM220.002 16.216C220.002 11.68 221.178 7.984 223.53 5.128C226.026 2.032 229.446 0.483998 233.79 0.483998C236.934 0.483998 239.298 1.252 240.882 2.788C242.466 4.3 243.258 6.664 243.258 9.88C243.258 14.776 242.01 18.652 239.514 21.508C237.042 24.316 233.73 25.72 229.578 25.72C226.338 25.72 223.926 24.916 222.342 23.308C220.782 21.676 220.002 19.312 220.002 16.216ZM229.47 8.764C228.39 13.084 227.85 16.948 227.85 20.356C227.85 21.172 227.982 21.844 228.246 22.372C228.534 22.9 229.038 23.164 229.758 23.164C230.502 23.164 231.102 22.996 231.558 22.66C232.014 22.3 232.422 21.724 232.782 20.932C233.358 19.636 233.91 17.62 234.438 14.884C234.99 12.124 235.29 10.18 235.338 9.052C235.386 7.9 235.41 6.892 235.41 6.028C235.41 5.164 235.278 4.456 235.014 3.904C234.75 3.352 234.258 3.076 233.538 3.076C232.842 3.076 232.254 3.292 231.774 3.724C230.886 4.54 230.118 6.22 229.47 8.764ZM247.505 19.672C247.505 18.736 247.625 17.668 247.865 16.468L250.781 1.24H258.737L255.857 16.576C255.641 17.704 255.533 18.688 255.533 19.528C255.533 20.344 255.701 20.968 256.037 21.4C256.397 21.832 256.901 22.048 257.549 22.048C258.197 22.048 258.725 21.964 259.133 21.796C259.541 21.628 259.913 21.34 260.249 20.932C260.897 20.116 261.425 18.664 261.833 16.576L264.749 1.24H270.185L267.305 16.54C266.633 19.948 265.373 22.336 263.525 23.704C261.725 25.048 259.049 25.72 255.497 25.72C252.833 25.72 250.793 25.144 249.377 23.992C248.129 22.984 247.505 21.544 247.505 19.672ZM7.77607 42.68C8.11207 42.008 8.64007 41.492 9.36007 41.132C10.1041 40.748 10.9801 40.556 11.9881 40.556C13.5721 40.556 14.8321 41.132 15.7681 42.284C16.7281 43.412 17.2081 45.224 17.2081 47.72V60.572L25.4521 41.276H29.7001L30.6721 59.492L30.5641 60.536L39.1321 41.276H44.0641L32.5441 65H24.8761L24.1561 54.056L19.4041 65H10.7281L9.64807 47.72C9.57607 46.424 9.36007 45.356 9.00007 44.516C8.66407 43.652 8.25607 43.04 7.77607 42.68ZM59.2144 65.72C56.1424 65.72 54.4624 63.536 54.1744 59.168H47.9824C47.5024 60.272 47.0944 61.304 46.7584 62.264L45.8224 65H40.7824L52.1224 41.24H59.8624L61.3744 58.736C61.6144 61.256 62.2144 62.888 63.1744 63.632C62.4784 65.024 61.1584 65.72 59.2144 65.72ZM49.0984 56.54H54.0664L53.6344 47.288V46.316L51.0784 51.968L49.0984 56.54ZM66.6816 65L71.2536 41.24H79.1736L74.5296 65H66.6816ZM84.66 47.468C83.844 46.844 83.436 45.872 83.436 44.552C83.436 43.208 83.868 42.188 84.732 41.492C85.62 40.796 86.82 40.448 88.332 40.448C89.292 40.448 90.912 40.616 93.192 40.952L95.64 41.312C96.456 41.408 97.284 41.456 98.124 41.456C98.988 41.456 99.708 41.276 100.284 40.916C101.148 41.684 101.58 42.62 101.58 43.724C101.58 44.828 101.088 45.776 100.104 46.568C99.096 47.408 97.944 47.828 96.648 47.828C96.024 47.828 95.208 47.744 94.2 47.576C93.024 51.272 92.436 54.404 92.436 56.972C92.436 59.54 93.084 61.496 94.38 62.84C93.78 63.92 93.036 64.664 92.148 65.072C91.26 65.504 90.144 65.72 88.8 65.72C87.48 65.72 86.4 65.36 85.56 64.64C84.744 63.896 84.336 62.768 84.336 61.256C84.336 59.504 84.816 57.188 85.776 54.308C86.736 51.452 87.936 48.932 89.376 46.748C88.68 46.676 87.972 46.64 87.252 46.64C85.764 46.64 84.9 46.916 84.66 47.468ZM101.817 65L106.389 41.24H114.309L109.665 65H101.817ZM116.663 65L120.983 41.24H128.723L134.339 57.584L137.327 41.24L141.323 41.276L136.931 65H128.687L123.503 49.268L120.623 65H116.663ZM165.88 52.76C164.152 56.552 163.288 60.644 163.288 65.036C162.64 65.492 161.836 65.72 160.876 65.72C159.94 65.72 159.172 65.492 158.572 65.036C157.972 64.604 157.612 64.16 157.492 63.704C156.892 64.328 156.1 64.82 155.116 65.18C154.156 65.54 153.16 65.72 152.128 65.72C151.096 65.72 150.124 65.552 149.212 65.216C148.324 64.88 147.532 64.34 146.836 63.596C145.3 61.964 144.532 59.6 144.532 56.504C144.532 51.704 145.816 47.864 148.384 44.984C151.024 42.008 154.684 40.52 159.364 40.52C162.604 40.52 164.8 41.36 165.952 43.04C166.312 43.568 166.492 44.156 166.492 44.804C166.492 45.428 166.348 46.016 166.06 46.568C165.796 47.096 165.448 47.576 165.016 48.008C163.984 48.968 162.832 49.448 161.56 49.448C161.056 49.448 160.564 49.364 160.084 49.196C160.18 48.476 160.228 47.696 160.228 46.856C160.228 46.016 160.192 45.404 160.12 45.02C160.072 44.636 159.976 44.288 159.832 43.976C159.52 43.328 159.016 43.004 158.32 43.004C157.648 43.004 156.928 43.376 156.16 44.12C155.416 44.84 154.744 45.8 154.144 47C152.824 49.688 152.164 52.652 152.164 55.892C152.164 57.38 152.452 58.652 153.028 59.708C153.652 60.86 154.516 61.436 155.62 61.436C156.004 61.436 156.364 61.34 156.7 61.148C157.06 60.956 157.312 60.788 157.456 60.644L158.608 53.408L165.88 52.76ZM195.051 45.92C193.107 45.92 191.427 45.596 190.011 44.948L188.859 50.78H195.807C195.807 52.052 195.483 53.096 194.835 53.912C194.211 54.704 193.323 55.1 192.171 55.1C190.923 55.1 189.723 54.872 188.571 54.416C188.331 54.32 188.199 54.26 188.175 54.236L186.123 65H178.275L182.847 41.24H198.903C198.903 42.704 198.555 43.856 197.859 44.696C197.187 45.512 196.251 45.92 195.051 45.92ZM200.347 56.216C200.347 51.68 201.523 47.984 203.875 45.128C206.371 42.032 209.791 40.484 214.135 40.484C217.279 40.484 219.643 41.252 221.227 42.788C222.811 44.3 223.603 46.664 223.603 49.88C223.603 54.776 222.355 58.652 219.859 61.508C217.387 64.316 214.075 65.72 209.923 65.72C206.683 65.72 204.271 64.916 202.687 63.308C201.127 61.676 200.347 59.312 200.347 56.216ZM209.815 48.764C208.735 53.084 208.195 56.948 208.195 60.356C208.195 61.172 208.327 61.844 208.591 62.372C208.879 62.9 209.383 63.164 210.103 63.164C210.847 63.164 211.447 62.996 211.903 62.66C212.359 62.3 212.767 61.724 213.127 60.932C213.703 59.636 214.255 57.62 214.783 54.884C215.335 52.124 215.635 50.18 215.683 49.052C215.731 47.9 215.755 46.892 215.755 46.028C215.755 45.164 215.623 44.456 215.359 43.904C215.095 43.352 214.603 43.076 213.883 43.076C213.187 43.076 212.599 43.292 212.119 43.724C211.231 44.54 210.463 46.22 209.815 48.764ZM226.841 65L231.233 41.348C233.609 41.084 236.525 40.952 239.981 40.952C243.461 40.952 246.005 41.456 247.613 42.464C249.221 43.472 250.025 44.996 250.025 47.036C250.025 49.052 249.497 50.696 248.441 51.968C247.409 53.24 245.993 54.08 244.193 54.488C244.601 56.48 245.273 58.28 246.209 59.888C247.073 61.4 248.009 62.396 249.017 62.876C248.657 63.884 248.105 64.604 247.361 65.036C246.641 65.492 245.753 65.72 244.697 65.72C243.665 65.72 242.741 65.42 241.925 64.82C241.109 64.196 240.377 63.32 239.729 62.192C238.361 59.744 237.605 56.588 237.461 52.724H237.713C239.489 52.676 240.821 52.196 241.709 51.284C242.597 50.348 243.041 48.908 243.041 46.964C243.041 44.54 242.021 43.28 239.981 43.184H239.189C238.973 43.184 238.805 43.196 238.685 43.22L234.545 65H226.841ZM254.369 62.876C254.369 61.964 254.717 61.256 255.413 60.752C256.133 60.248 256.997 59.996 258.005 59.996C259.013 59.996 259.817 60.248 260.417 60.752C261.041 61.256 261.353 61.964 261.353 62.876C261.353 63.788 261.005 64.496 260.309 65C259.637 65.48 258.797 65.72 257.789 65.72C256.781 65.72 255.953 65.48 255.305 65C254.681 64.496 254.369 63.788 254.369 62.876ZM261.641 47.756C261.113 47.9 260.321 47.972 259.265 47.972C258.209 47.972 257.297 47.756 256.529 47.324C255.761 46.892 255.377 46.304 255.377 45.56C255.377 44.792 255.557 44.108 255.917 43.508C256.301 42.908 256.889 42.392 257.681 41.96C259.337 41 261.593 40.52 264.449 40.52C267.305 40.52 269.297 40.916 270.425 41.708C271.553 42.5 272.117 43.568 272.117 44.912C272.117 46.952 271.097 48.764 269.057 50.348C268.457 50.828 267.785 51.308 267.041 51.788L260.165 56.252C259.229 56.876 258.761 57.644 258.761 58.556C258.065 58.556 257.489 58.256 257.033 57.656C256.577 57.056 256.349 56.336 256.349 55.496C256.349 53.576 257.261 52.052 259.085 50.924L263.153 48.404C264.281 47.732 265.145 46.808 265.745 45.632C265.937 45.248 266.033 44.816 266.033 44.336C266.033 43.232 265.481 42.68 264.377 42.68C263.513 42.68 262.781 43.028 262.181 43.724C261.653 44.348 261.377 45.068 261.353 45.884C261.329 46.7 261.425 47.324 261.641 47.756Z" fill="#2D2D2D"/>
<path d="M0.00301266 2.68L-1.33863 2.00918L-1.89848 3.12888L-0.896987 3.88L0.00301266 2.68ZM1.58701 1.132L2.25783 2.47364L2.26643 2.46934L2.27498 2.46493L1.58701 1.132ZM7.99501 2.284L6.83084 3.22989L6.84162 3.24316L6.8527 3.25618L7.99501 2.284ZM9.43501 20.572H7.93501L10.8144 21.1613L9.43501 20.572ZM17.679 1.276V-0.224001H16.6887L16.2996 0.686673L17.679 1.276ZM21.927 1.276L23.4249 1.19607L23.3491 -0.224001H21.927V1.276ZM22.899 19.492L24.3911 19.6463L24.4031 19.5294L24.3969 19.4121L22.899 19.492ZM22.791 20.536L21.299 20.3817L24.1615 21.1457L22.791 20.536ZM31.359 1.276V-0.224001H30.3846L29.9885 0.666316L31.359 1.276ZM36.291 1.276L37.6403 1.93121L38.6869 -0.224001H36.291V1.276ZM24.771 25V26.5H25.7101L26.1203 25.6552L24.771 25ZM17.103 25L15.6062 25.0985L15.6985 26.5H17.103V25ZM16.383 14.056L17.8798 13.9575L15.0071 13.4586L16.383 14.056ZM11.631 25V26.5H12.615L13.0069 25.5974L11.631 25ZM2.95501 25L1.45793 25.0936L1.54584 26.5H2.95501V25ZM1.87501 7.72L0.377286 7.80321L0.377934 7.81357L1.87501 7.72ZM1.22701 4.516L-0.170994 5.05967L-0.161751 5.08344L-0.151705 5.10688L1.22701 4.516ZM1.34465 3.35082C1.52486 2.99041 1.80608 2.69952 2.25783 2.47364L0.916191 -0.209641C-0.0720536 0.284482 -0.846833 1.02559 -1.33863 2.00918L1.34465 3.35082ZM2.27498 2.46493C2.76708 2.21094 3.398 2.056 4.21501 2.056V-0.944001C3.01602 -0.944001 1.89494 -0.714942 0.899049 -0.200933L2.27498 2.46493ZM4.21501 2.056C5.38212 2.056 6.20092 2.4546 6.83084 3.22989L9.15918 1.33811C7.9171 -0.190603 6.2159 -0.944001 4.21501 -0.944001V2.056ZM6.8527 3.25618C7.46915 3.9805 7.93501 5.35571 7.93501 7.72H10.935C10.935 5.09228 10.4409 2.8435 9.13732 1.31182L6.8527 3.25618ZM7.93501 7.72V20.572H10.935V7.72H7.93501ZM10.8144 21.1613L19.0584 1.86532L16.2996 0.686673L8.05563 19.9827L10.8144 21.1613ZM17.679 2.776H21.927V-0.224001H17.679V2.776ZM20.4291 1.35592L21.4011 19.5719L24.3969 19.4121L23.4249 1.19607L20.4291 1.35592ZM21.407 19.3377L21.299 20.3817L24.2831 20.6903L24.3911 19.6463L21.407 19.3377ZM24.1615 21.1457L32.7295 1.88568L29.9885 0.666316L21.4205 19.9263L24.1615 21.1457ZM31.359 2.776H36.291V-0.224001H31.359V2.776ZM34.9417 0.620785L23.4217 24.3448L26.1203 25.6552L37.6403 1.93121L34.9417 0.620785ZM24.771 23.5H17.103V26.5H24.771V23.5ZM18.5998 24.9015L17.8798 13.9575L14.8862 14.1545L15.6062 25.0985L18.5998 24.9015ZM15.0071 13.4586L10.2551 24.4026L13.0069 25.5974L17.7589 14.6534L15.0071 13.4586ZM11.631 23.5H2.95501V26.5H11.631V23.5ZM4.45209 24.9064L3.37209 7.62643L0.377934 7.81357L1.45793 25.0936L4.45209 24.9064ZM3.3727 7.63679C3.29474 6.23343 3.0571 4.97832 2.60573 3.92512L-0.151705 5.10688C0.116922 5.73368 0.311287 6.61456 0.377322 7.8032L3.3727 7.63679ZM2.62502 3.97233C2.23848 2.97837 1.69774 2.07605 0.903012 1.48L-0.896987 3.88C-0.731718 4.00395 -0.456456 4.32562 -0.170994 5.05967L2.62502 3.97233ZM50.9874 14.74L52.4583 15.0342L52.8172 13.24H50.9874V14.74ZM45.6595 14.74V13.24H44.4212L44.1866 14.4558L45.6595 14.74ZM43.6795 25V26.5H44.9177L45.1523 25.2842L43.6795 25ZM36.1554 25L34.6825 24.7166L34.3393 26.5H36.1554V25ZM40.7274 1.24V-0.260001H39.4886L39.2545 0.956563L40.7274 1.24ZM48.3234 1.24L49.7953 1.52937L50.1471 -0.260001H48.3234V1.24ZM46.2355 11.86L44.7636 11.5706L44.4118 13.36H46.2355V11.86ZM51.5634 11.86V13.36H52.8096L53.038 12.1349L51.5634 11.86ZM53.5434 1.24V-0.260001H52.2973L52.0689 0.965075L53.5434 1.24ZM61.1395 1.24L62.6133 1.51884L62.9498 -0.260001H61.1395V1.24ZM59.9874 6.892L58.5215 6.57408L58.5191 6.58571L59.9874 6.892ZM58.7635 12.76L57.295 12.4537L57.2926 12.4658L58.7635 12.76ZM57.7915 24.496L58.6349 25.7364L59.7886 24.9519L59.0896 23.7444L57.7915 24.496ZM51.4795 22.3C51.4795 20.7752 51.7901 18.3754 52.4583 15.0342L49.5166 14.4458C48.8408 17.8246 48.4795 20.4648 48.4795 22.3H51.4795ZM50.9874 13.24H45.6595V16.24H50.9874V13.24ZM44.1866 14.4558L42.2066 24.7158L45.1523 25.2842L47.1323 15.0242L44.1866 14.4558ZM43.6795 23.5H36.1554V26.5H43.6795V23.5ZM37.6284 25.2834L42.2004 1.52344L39.2545 0.956563L34.6825 24.7166L37.6284 25.2834ZM40.7274 2.74H48.3234V-0.260001H40.7274V2.74ZM46.8516 0.950624L44.7636 11.5706L47.7073 12.1494L49.7953 1.52937L46.8516 0.950624ZM46.2355 13.36H51.5634V10.36H46.2355V13.36ZM53.038 12.1349L55.018 1.51492L52.0689 0.965075L50.0889 11.5851L53.038 12.1349ZM53.5434 2.74H61.1395V-0.260001H53.5434V2.74ZM59.6656 0.961162C59.3324 2.72258 58.9511 4.59347 58.5215 6.57409L61.4534 7.20991C61.8878 5.20653 62.2746 3.30942 62.6133 1.51884L59.6656 0.961162ZM58.5191 6.58571L57.2951 12.4537L60.2318 13.0663L61.4558 7.19829L58.5191 6.58571ZM57.2926 12.4658C56.3799 17.029 55.8955 20.4336 55.8955 22.588H58.8955C58.8955 20.7584 59.323 17.611 60.2343 13.0542L57.2926 12.4658ZM55.8955 22.588C55.8955 23.5355 56.0436 24.4708 56.4933 25.2476L59.0896 23.7444C59.0113 23.6092 58.8955 23.2725 58.8955 22.588H55.8955ZM56.948 23.2556C55.9902 23.9069 54.9748 24.22 53.8675 24.22V27.22C55.5921 27.22 57.1927 26.7171 58.6349 25.7364L56.948 23.2556ZM53.8675 24.22C52.6712 24.22 52.1893 23.9269 51.9984 23.713L49.7605 25.711C50.7696 26.8411 52.2797 27.22 53.8675 27.22V24.22ZM51.9984 23.713C51.6541 23.3274 51.4795 22.8832 51.4795 22.3H48.4795C48.4795 23.5888 48.9048 24.7526 49.7605 25.711L51.9984 23.713ZM74.5686 19.168L76.0653 19.0693L75.9729 17.668H74.5686V19.168ZM68.3766 19.168V17.668H67.3931L67.001 18.5699L68.3766 19.168ZM67.1526 22.264L65.7367 21.7685L65.7333 21.7785L67.1526 22.264ZM66.2166 25V26.5H67.2888L67.6358 25.4855L66.2166 25ZM61.1766 25L59.8229 24.3539L58.7986 26.5H61.1766V25ZM72.5166 1.24V-0.260001H71.5704L71.1628 0.593904L72.5166 1.24ZM80.2566 1.24L81.751 1.11085L81.6325 -0.260001H80.2566V1.24ZM81.7686 18.736L80.2741 18.8652L80.2753 18.8782L81.7686 18.736ZM83.5686 23.632L84.9102 24.3028L85.4611 23.201L84.4874 22.4464L83.5686 23.632ZM69.4926 16.54L68.1161 15.9439L67.2083 18.04H69.4926V16.54ZM74.4606 16.54V18.04H76.0322L75.9589 16.47L74.4606 16.54ZM74.0286 7.288H72.5286V7.323L72.5302 7.35796L74.0286 7.288ZM74.0286 6.316H75.5286L72.6618 5.69792L74.0286 6.316ZM71.4726 11.968L70.1058 11.3499L70.1009 11.3609L70.0961 11.3719L71.4726 11.968ZM79.6086 24.22C78.477 24.22 77.7542 23.8443 77.2335 23.1674C76.6525 22.4121 76.2003 21.1169 76.0653 19.0693L73.0718 19.2667C73.2248 21.5871 73.7566 23.5679 74.8556 24.9966C76.0149 26.5037 77.6681 27.22 79.6086 27.22V24.22ZM74.5686 17.668H68.3766V20.668H74.5686V17.668ZM67.001 18.5699C66.5089 19.7017 66.0869 20.7682 65.7368 21.7685L68.5684 22.7595C68.8903 21.8398 69.2843 20.8423 69.7522 19.7661L67.001 18.5699ZM65.7333 21.7785L64.7973 24.5145L67.6358 25.4855L68.5718 22.7495L65.7333 21.7785ZM66.2166 23.5H61.1766V26.5H66.2166V23.5ZM62.5303 25.6461L73.8703 1.88609L71.1628 0.593904L59.8229 24.3539L62.5303 25.6461ZM72.5166 2.74H80.2566V-0.260001H72.5166V2.74ZM78.7621 1.36915L80.2741 18.8651L83.263 18.6069L81.751 1.11085L78.7621 1.36915ZM80.2753 18.8782C80.4025 20.2138 80.6311 21.3894 80.9907 22.3676C81.348 23.3395 81.871 24.2141 82.6497 24.8176L84.4874 22.4464C84.3062 22.3059 84.0491 21.9925 83.8064 21.3324C83.5661 20.6786 83.3746 19.7782 83.2618 18.5938L80.2753 18.8782ZM82.2269 22.9612C81.8529 23.7093 81.1539 24.22 79.6086 24.22V27.22C81.9513 27.22 83.8923 26.3387 84.9102 24.3028L82.2269 22.9612ZM69.4926 18.04H74.4606V15.04H69.4926V18.04ZM75.9589 16.47L75.5269 7.21804L72.5302 7.35796L72.9622 16.61L75.9589 16.47ZM75.5286 7.288V6.316H72.5286V7.288H75.5286ZM72.6618 5.69792L70.1058 11.3499L72.8393 12.5861L75.3953 6.93408L72.6618 5.69792ZM70.0961 11.3719L68.1161 15.9439L70.869 17.1361L72.849 12.5641L70.0961 11.3719ZM89.6486 7.468L88.7375 8.65954L90.26 9.82383L91.0242 8.06609L89.6486 7.468ZM89.7206 1.492L88.7953 0.311414L88.7874 0.317588L88.7796 0.323868L89.7206 1.492ZM98.1806 0.951999L97.962 2.43597L97.9624 2.43604L98.1806 0.951999ZM100.629 1.312L100.41 2.79604L100.432 2.79919L100.453 2.80172L100.629 1.312ZM105.273 0.915999L106.269 -0.205115L105.43 -0.951154L104.478 -0.355999L105.273 0.915999ZM105.093 6.568L104.152 5.39948L104.142 5.40749L104.132 5.41567L105.093 6.568ZM99.1886 7.576L99.4352 6.09641L98.1533 5.88275L97.7593 7.12119L99.1886 7.576ZM99.3686 22.84L100.68 23.5685L101.219 22.598L100.448 21.7988L99.3686 22.84ZM97.1366 25.072L96.5104 23.709L96.4953 23.7159L96.4804 23.7231L97.1366 25.072ZM90.5486 24.64L89.538 25.7484L89.555 25.7639L89.5724 25.7789L90.5486 24.64ZM90.7646 14.308L89.3428 13.8301L89.3416 13.8337L90.7646 14.308ZM94.3646 6.748L95.6169 7.57369L96.9774 5.51028L94.519 5.25596L94.3646 6.748ZM90.5598 6.27646C90.2172 6.01444 89.9246 5.55058 89.9246 4.552H86.9246C86.9246 6.19342 87.4481 7.67356 88.7375 8.65954L90.5598 6.27646ZM89.9246 4.552C89.9246 3.55574 90.2262 3.01086 90.6616 2.66013L88.7796 0.323868C87.487 1.36514 86.9246 2.86026 86.9246 4.552H89.9246ZM90.646 2.67258C91.1925 2.24419 92.0304 1.948 93.3206 1.948V-1.052C91.5869 -1.052 90.0247 -0.65219 88.7953 0.311414L90.646 2.67258ZM93.3206 1.948C94.1594 1.948 95.6822 2.1 97.962 2.43597L98.3993 -0.531974C96.1191 -0.868007 94.4019 -1.052 93.3206 -1.052V1.948ZM97.9624 2.43604L100.41 2.79604L100.847 -0.17204L98.3989 -0.53204L97.9624 2.43604ZM100.453 2.80172C101.329 2.90472 102.215 2.956 103.113 2.956V-0.0440016C102.33 -0.0440016 101.56 -0.0887218 100.804 -0.177728L100.453 2.80172ZM103.113 2.956C104.182 2.956 105.196 2.73257 106.068 2.188L104.478 -0.355999C104.197 -0.180573 103.771 -0.0440016 103.113 -0.0440016V2.956ZM104.276 2.03711C104.837 2.53568 105.069 3.07084 105.069 3.724H108.069C108.069 2.16915 107.436 0.832316 106.269 -0.205115L104.276 2.03711ZM105.069 3.724C105.069 4.30494 104.84 4.84598 104.152 5.39948L106.033 7.73652C107.313 6.70602 108.069 5.35106 108.069 3.724H105.069ZM104.132 5.41567C103.39 6.03408 102.577 6.328 101.637 6.328V9.328C103.288 9.328 104.779 8.78192 106.053 7.72033L104.132 5.41567ZM101.637 6.328C101.131 6.328 100.406 6.25822 99.4352 6.09641L98.942 9.05559C99.9872 9.22977 100.895 9.328 101.637 9.328V6.328ZM97.7593 7.12119C96.5578 10.8972 95.9246 14.1923 95.9246 16.972H98.9246C98.9246 14.6157 99.4675 11.6468 100.618 8.0308L97.7593 7.12119ZM95.9246 16.972C95.9246 19.7803 96.6355 22.1666 98.2889 23.8812L100.448 21.7988C99.5098 20.8254 98.9246 19.2997 98.9246 16.972H95.9246ZM98.0574 22.1115C97.5711 22.9869 97.0396 23.4658 96.5104 23.709L97.7629 26.435C99.0097 25.8622 99.9662 24.8531 100.68 23.5685L98.0574 22.1115ZM96.4804 23.7231C95.8569 24.0265 94.983 24.22 93.7886 24.22V27.22C95.2822 27.22 96.6404 26.9815 97.7928 26.4209L96.4804 23.7231ZM93.7886 24.22C92.7542 24.22 92.0426 23.9449 91.5248 23.5011L89.5724 25.7789C90.7347 26.7751 92.1831 27.22 93.7886 27.22V24.22ZM91.5593 23.5316C91.1573 23.165 90.8246 22.5079 90.8246 21.256H87.8246C87.8246 23.0281 88.308 24.627 89.538 25.7484L91.5593 23.5316ZM90.8246 21.256C90.8246 19.7415 91.2471 17.6042 92.1877 14.7823L89.3416 13.8337C88.3622 16.7718 87.8246 19.2665 87.8246 21.256H90.8246ZM92.1865 14.7859C93.1113 12.0345 94.258 9.63467 95.6169 7.57369L93.1123 5.92231C91.5912 8.22933 90.338 10.8695 89.3428 13.8301L92.1865 14.7859ZM94.519 5.25596C93.7703 5.1785 93.0107 5.14 92.2406 5.14V8.14C92.9106 8.14 93.567 8.17349 94.2103 8.24004L94.519 5.25596ZM92.2406 5.14C91.4275 5.14 90.6638 5.21255 90.0202 5.41813C89.3867 5.62051 88.6373 6.03215 88.273 6.86991L91.0242 8.06609C90.9 8.35185 90.7026 8.34949 90.9331 8.27586C91.1535 8.20545 91.5658 8.14 92.2406 8.14V5.14ZM127.183 19.168L128.68 19.0693L128.588 17.668H127.183V19.168ZM120.991 19.168V17.668H120.008L119.616 18.5699L120.991 19.168ZM119.767 22.264L118.352 21.7685L118.348 21.7785L119.767 22.264ZM118.831 25V26.5H119.904L120.251 25.4855L118.831 25ZM113.791 25L112.438 24.3539L111.413 26.5H113.791V25ZM125.131 1.24V-0.260001H124.185L123.778 0.593904L125.131 1.24ZM132.871 1.24L134.366 1.11085L134.247 -0.260001H132.871V1.24ZM134.383 18.736L132.889 18.8652L132.89 18.8782L134.383 18.736ZM136.183 23.632L137.525 24.3028L138.076 23.201L137.102 22.4464L136.183 23.632ZM122.107 16.54L120.731 15.9439L119.823 18.04H122.107V16.54ZM127.075 16.54V18.04H128.647L128.574 16.47L127.075 16.54ZM126.643 7.288H125.143V7.323L125.145 7.35796L126.643 7.288ZM126.643 6.316H128.143L125.277 5.69792L126.643 6.316ZM124.087 11.968L122.721 11.3499L122.716 11.3609L122.711 11.3719L124.087 11.968ZM132.223 24.22C131.092 24.22 130.369 23.8443 129.848 23.1674C129.267 22.4121 128.815 21.1169 128.68 19.0693L125.687 19.2667C125.84 21.5871 126.371 23.5679 127.47 24.9966C128.63 26.5037 130.283 27.22 132.223 27.22V24.22ZM127.183 17.668H120.991V20.668H127.183V17.668ZM119.616 18.5699C119.124 19.7017 118.702 20.7682 118.352 21.7685L121.183 22.7595C121.505 21.8398 121.899 20.8423 122.367 19.7661L119.616 18.5699ZM118.348 21.7785L117.412 24.5145L120.251 25.4855L121.187 22.7495L118.348 21.7785ZM118.831 23.5H113.791V26.5H118.831V23.5ZM115.145 25.6461L126.485 1.88609L123.778 0.593904L112.438 24.3539L115.145 25.6461ZM125.131 2.74H132.871V-0.260001H125.131V2.74ZM131.377 1.36915L132.889 18.8651L135.878 18.6069L134.366 1.11085L131.377 1.36915ZM132.89 18.8782C133.017 20.2138 133.246 21.3894 133.606 22.3676C133.963 23.3395 134.486 24.2141 135.265 24.8176L137.102 22.4464C136.921 22.3059 136.664 21.9925 136.421 21.3324C136.181 20.6786 135.989 19.7782 135.877 18.5938L132.89 18.8782ZM134.842 22.9612C134.468 23.7093 133.769 24.22 132.223 24.22V27.22C134.566 27.22 136.507 26.3387 137.525 24.3028L134.842 22.9612ZM122.107 18.04H127.075V15.04H122.107V18.04ZM128.574 16.47L128.142 7.21804L125.145 7.35796L125.577 16.61L128.574 16.47ZM128.143 7.288V6.316H125.143V7.288H128.143ZM125.277 5.69792L122.721 11.3499L125.454 12.5861L128.01 6.93408L125.277 5.69792ZM122.711 11.3719L120.731 15.9439L123.484 17.1361L125.464 12.5641L122.711 11.3719ZM139.763 25L138.288 24.7261L137.958 26.5H139.763V25ZM144.155 1.348L143.989 -0.142826L142.883 -0.0199389L142.68 1.07414L144.155 1.348ZM160.535 2.464L161.331 1.19307L160.535 2.464ZM161.363 11.968L160.208 11.0099L160.203 11.0164L160.198 11.0229L161.363 11.968ZM157.115 14.488L156.783 13.0251L155.35 13.3498L155.645 14.789L157.115 14.488ZM159.131 19.888L160.433 19.1438L160.427 19.1334L159.131 19.888ZM161.939 22.876L163.351 23.3805L163.807 22.1043L162.584 21.5217L161.939 22.876ZM160.283 25.036L159.529 23.7388L159.504 23.7533L159.48 23.7688L160.283 25.036ZM154.847 24.82L153.935 26.0115L153.947 26.0201L153.958 26.0285L154.847 24.82ZM152.651 22.192L151.341 22.9237L151.346 22.9315L151.35 22.9392L152.651 22.192ZM150.383 12.724V11.224H148.826L148.884 12.7799L150.383 12.724ZM150.635 12.724V14.224H150.655L150.675 14.2235L150.635 12.724ZM154.631 11.284L155.705 12.3304L155.712 12.3235L155.719 12.3164L154.631 11.284ZM152.903 3.184L152.973 1.68566L152.938 1.684H152.903V3.184ZM151.607 3.22L151.312 1.74913L150.322 1.94728L150.133 2.93989L151.607 3.22ZM147.467 25V26.5H148.708L148.94 25.2801L147.467 25ZM141.237 25.2739L145.629 1.62186L142.68 1.07414L138.288 24.7261L141.237 25.2739ZM144.32 2.83883C146.623 2.58296 149.48 2.452 152.903 2.452V-0.548001C149.413 -0.548001 146.438 -0.414967 143.989 -0.142826L144.32 2.83883ZM152.903 2.452C156.302 2.452 158.495 2.95609 159.738 3.73493L161.331 1.19307C159.358 -0.0440979 156.463 -0.548001 152.903 -0.548001V2.452ZM159.738 3.73493C160.87 4.4448 161.447 5.46598 161.447 7.036H164.447C164.447 4.52601 163.415 2.4992 161.331 1.19307L159.738 3.73493ZM161.447 7.036C161.447 8.78165 160.995 10.0626 160.208 11.0099L162.517 12.9261C163.842 11.3294 164.447 9.32235 164.447 7.036H161.447ZM160.198 11.0229C159.404 12.0009 158.299 12.6815 156.783 13.0251L157.446 15.9509C159.53 15.4785 161.257 14.4791 162.527 12.9131L160.198 11.0229ZM155.645 14.789C156.083 16.9258 156.809 18.8813 157.834 20.6426L160.427 19.1334C159.58 17.6787 158.962 16.0342 158.584 14.187L155.645 14.789ZM157.828 20.6322C158.765 22.2719 159.894 23.5639 161.294 24.2303L162.584 21.5217C161.967 21.2281 161.224 20.5281 160.433 19.1438L157.828 20.6322ZM160.526 22.3715C160.255 23.1298 159.898 23.5251 159.529 23.7388L161.036 26.3332C162.156 25.6829 162.902 24.6382 163.351 23.3805L160.526 22.3715ZM159.48 23.7688C159.052 24.0401 158.458 24.22 157.619 24.22V27.22C158.891 27.22 160.074 26.9439 161.085 26.3032L159.48 23.7688ZM157.619 24.22C156.9 24.22 156.288 24.0183 155.735 23.6115L153.958 26.0285C155.037 26.8217 156.273 27.22 157.619 27.22V24.22ZM155.758 23.6285C155.136 23.1528 154.526 22.4445 153.951 21.4448L151.35 22.9392C152.072 24.1955 152.925 25.2392 153.935 26.0115L155.758 23.6285ZM153.96 21.4603C152.743 19.2827 152.02 16.38 151.882 12.6681L148.884 12.7799C149.033 16.796 149.822 20.2053 151.341 22.9237L153.96 21.4603ZM150.383 14.224H150.635V11.224H150.383V14.224ZM150.675 14.2235C152.685 14.1691 154.452 13.6174 155.705 12.3304L153.556 10.2376C153.033 10.7746 152.136 11.1829 150.594 11.2245L150.675 14.2235ZM155.719 12.3164C156.978 10.9888 157.463 9.10164 157.463 6.964H154.463C154.463 8.71436 154.059 9.70719 153.542 10.2516L155.719 12.3164ZM157.463 6.964C157.463 5.57188 157.174 4.25838 156.363 3.2572C155.517 2.21186 154.301 1.74816 152.973 1.68566L152.832 4.68234C153.544 4.71583 153.858 4.93014 154.032 5.1448C154.241 5.40361 154.463 5.93212 154.463 6.964H157.463ZM152.903 1.684H152.111V4.684H152.903V1.684ZM152.111 1.684C151.858 1.684 151.576 1.69646 151.312 1.74913L151.901 4.69087C151.881 4.69486 151.887 4.69223 151.929 4.68919C151.97 4.68632 152.029 4.684 152.111 4.684V1.684ZM150.133 2.93989L145.993 24.7199L148.94 25.2801L153.08 3.50011L150.133 2.93989ZM147.467 23.5H139.763V26.5H147.467V23.5ZM181.763 19.456L182.939 18.5249L181.962 17.2911L180.776 18.3259L181.763 19.456ZM181.007 24.712L181.867 25.9408L181.877 25.9337L181.887 25.9264L181.007 24.712ZM174.023 25.432L173.789 26.9138L173.798 26.9151L173.807 26.9164L174.023 25.432ZM167.291 24.892L167.406 26.3876L167.462 26.3832L167.519 26.3746L167.291 24.892ZM166.067 25L164.592 24.7252L164.227 26.682L166.209 26.4932L166.067 25ZM170.495 1.24V-0.260001H169.248L169.02 0.965185L170.495 1.24ZM186.011 1.24H187.511V-0.260001H186.011V1.24ZM184.931 4.588L183.836 3.56209L183.828 3.57133L183.819 3.58072L184.931 4.588ZM177.587 4.768L178.211 3.40404L176.448 2.59724L176.11 4.50636L177.587 4.768ZM176.471 11.068L174.994 10.8064L174.681 12.568H176.471V11.068ZM182.879 11.068H184.379V9.568H182.879V11.068ZM181.943 14.056L183.059 15.0573L183.068 15.0479L183.076 15.0384L181.943 14.056ZM176.903 14.74L177.423 13.3334L176.903 14.74ZM175.823 14.272L176.883 13.2113L174.879 11.2074L174.349 13.9913L175.823 14.272ZM174.527 21.076L173.053 20.7953L172.754 22.3661L174.34 22.5644L174.527 21.076ZM180.586 20.3871C180.781 20.6327 180.947 21.0319 180.947 21.724H183.947C183.947 20.5441 183.656 19.4313 182.939 18.5249L180.586 20.3871ZM180.947 21.724C180.947 22.5913 180.657 23.1129 180.126 23.4976L181.887 25.9264C183.276 24.9191 183.947 23.4487 183.947 21.724H180.947ZM180.146 23.4832C179.503 23.9337 178.592 24.22 177.299 24.22V27.22C179.029 27.22 180.59 26.8343 181.867 25.9408L180.146 23.4832ZM177.299 24.22C176.534 24.22 175.521 24.1342 174.238 23.9476L173.807 26.9164C175.164 27.1138 176.335 27.22 177.299 27.22V24.22ZM174.256 23.9502C171.692 23.5467 169.878 23.32 168.947 23.32V26.32C169.599 26.32 171.169 26.5013 173.789 26.9138L174.256 23.9502ZM168.947 23.32C168.158 23.32 167.501 23.342 167.062 23.4094L167.519 26.3746C167.704 26.346 168.151 26.32 168.947 26.32V23.32ZM167.175 23.3964C166.851 23.4214 166.433 23.4583 165.924 23.5068L166.209 26.4932C166.708 26.4457 167.106 26.4106 167.406 26.3876L167.175 23.3964ZM167.541 25.2748L171.969 1.51481L169.02 0.965185L164.592 24.7252L167.541 25.2748ZM170.495 2.74H186.011V-0.260001H170.495V2.74ZM184.511 1.24C184.511 2.47293 184.208 3.16503 183.836 3.56209L186.025 5.61391C187.093 4.47497 187.511 2.93507 187.511 1.24H184.511ZM183.819 3.58072C183.496 3.93765 182.919 4.24 181.799 4.24V7.24C183.462 7.24 184.973 6.77435 186.042 5.59528L183.819 3.58072ZM181.799 4.24C180.646 4.24 179.454 3.97309 178.211 3.40404L176.962 6.13196C178.551 6.85891 180.167 7.24 181.799 7.24V4.24ZM176.11 4.50636L174.994 10.8064L177.948 11.3296L179.064 5.02964L176.11 4.50636ZM176.471 12.568H182.879V9.568H176.471V12.568ZM181.379 11.068C181.379 12.1014 181.127 12.7064 180.809 13.0736L183.076 15.0384C184.006 13.9656 184.379 12.5786 184.379 11.068H181.379ZM180.826 13.0547C180.525 13.3903 180.114 13.6 179.423 13.6V16.6C180.843 16.6 182.112 16.1137 183.059 15.0573L180.826 13.0547ZM179.423 13.6C178.489 13.6 177.844 13.4891 177.423 13.3334L176.382 16.1466C177.257 16.4709 178.292 16.6 179.423 16.6V13.6ZM177.423 13.3334C177.109 13.2169 176.886 13.1288 176.743 13.0667C176.708 13.0517 176.682 13.0396 176.662 13.0302C176.652 13.0256 176.644 13.022 176.639 13.0193C176.636 13.018 176.634 13.0169 176.633 13.0162C176.631 13.0155 176.631 13.0152 176.631 13.0152C176.631 13.0152 176.632 13.0156 176.633 13.0166C176.635 13.0175 176.638 13.019 176.641 13.021C176.648 13.0248 176.66 13.0321 176.677 13.0429C176.696 13.0555 176.784 13.1117 176.883 13.2113L174.762 15.3327C174.957 15.5273 175.177 15.6403 175.23 15.6683C175.332 15.7221 175.443 15.773 175.55 15.8193C175.767 15.9132 176.048 16.0231 176.382 16.1466L177.423 13.3334ZM174.349 13.9913L173.053 20.7953L176 21.3567L177.296 14.5527L174.349 13.9913ZM174.34 22.5644C175.01 22.6481 175.911 22.684 177.011 22.684V19.684C175.95 19.684 175.195 19.6479 174.713 19.5876L174.34 22.5644ZM177.011 22.684C179.2 22.684 181.14 21.9905 182.749 20.5861L180.776 18.3259C179.745 19.2255 178.517 19.684 177.011 19.684V22.684ZM202.288 14.416L203.759 14.7063L203.803 14.4829L203.779 14.2564L202.288 14.416ZM197.572 2.572L196.405 1.62949L195.295 3.00313L196.83 3.87593L197.572 2.572ZM199.552 1.132L200.123 2.51902L200.14 2.51191L200.157 2.50438L199.552 1.132ZM204.844 1.132L204.19 2.48224L204.208 2.49088L204.226 2.49905L204.844 1.132ZM206.68 2.752L207.941 1.93978L207.94 1.93881L206.68 2.752ZM208.048 12.544H206.548L209.467 13.028L208.048 12.544ZM212.368 3.472L213.545 4.40147L213.549 4.39605L212.368 3.472ZM219.1 1.24L218.163 2.4113L218.181 2.42594L218.2 2.44L219.1 1.24ZM220.18 2.608L220.785 3.98018L222.15 3.37772L221.555 2.00991L220.18 2.608ZM210.352 15.82L208.936 15.324L208.909 15.4017L208.89 15.4819L210.352 15.82ZM208.228 25V26.5H209.42L209.689 25.3381L208.228 25ZM200.2 25L198.728 24.7097L198.375 26.5H200.2V25ZM203.779 14.2564C203.423 10.9334 202.836 8.17156 201.98 6.02211C201.129 3.88558 199.951 2.19929 198.313 1.26806L196.83 3.87593C197.64 4.33671 198.472 5.32042 199.193 7.13189C199.909 8.93044 200.456 11.3946 200.796 14.5756L203.779 14.2564ZM198.738 3.5145C199.069 3.10544 199.516 2.769 200.123 2.51902L198.98 -0.255019C197.956 0.167001 197.082 0.790559 196.405 1.62949L198.738 3.5145ZM200.157 2.50438C200.763 2.23686 201.454 2.092 202.252 2.092V-0.908001C201.081 -0.908001 199.972 -0.692865 198.946 -0.240379L200.157 2.50438ZM202.252 2.092C203.052 2.092 203.685 2.23784 204.19 2.48224L205.497 -0.218241C204.514 -0.693843 203.419 -0.908001 202.252 -0.908001V2.092ZM204.226 2.49905C204.685 2.70613 205.082 3.04247 205.419 3.56519L207.94 1.93881C207.317 0.973524 206.49 0.229871 205.461 -0.235058L204.226 2.49905ZM205.419 3.56421C206.082 4.59475 206.548 6.61716 206.548 9.952H209.548C209.548 6.51884 209.101 3.74125 207.941 1.93978L205.419 3.56421ZM206.548 9.952V12.544H209.548V9.952H206.548ZM209.467 13.028C210.893 8.84519 212.268 6.01939 213.545 4.40146L211.19 2.54253C209.588 4.57261 208.082 7.79481 206.628 12.06L209.467 13.028ZM213.549 4.39605C214.822 2.76807 216.07 2.164 217.3 2.164V-0.836002C214.881 -0.836002 212.841 0.431925 211.186 2.54794L213.549 4.39605ZM217.3 2.164C217.74 2.164 217.992 2.27526 218.163 2.4113L220.037 0.068697C219.247 -0.563264 218.299 -0.836002 217.3 -0.836002V2.164ZM218.2 2.44C218.471 2.64346 218.667 2.89176 218.804 3.20609L221.555 2.00991C221.212 1.22024 220.688 0.556542 220 0.039999L218.2 2.44ZM219.574 1.23582C217.409 2.19166 215.411 3.98749 213.547 6.4561L215.941 8.2639C217.629 6.02851 219.254 4.65634 220.785 3.98018L219.574 1.23582ZM213.547 6.4561C211.662 8.95211 210.13 11.9155 208.936 15.324L211.767 16.316C212.877 13.1485 214.273 10.4719 215.941 8.2639L213.547 6.4561ZM208.89 15.4819L206.766 24.6619L209.689 25.3381L211.813 16.1581L208.89 15.4819ZM208.228 23.5H200.2V26.5H208.228V23.5ZM201.671 25.2903L203.759 14.7063L200.816 14.1257L198.728 24.7097L201.671 25.2903ZM223.53 5.128L224.688 6.08156L224.693 6.07553L224.698 6.06945L223.53 5.128ZM240.882 2.788L239.838 3.86488L239.847 3.87303L240.882 2.788ZM239.514 21.508L240.64 22.4992L240.644 22.4951L239.514 21.508ZM222.342 23.308L221.258 24.3445L221.266 24.3526L221.274 24.3607L222.342 23.308ZM229.47 8.764L228.017 8.39374L228.015 8.4002L229.47 8.764ZM228.246 22.372L226.905 23.0428L226.917 23.0668L226.93 23.0903L228.246 22.372ZM231.558 22.66L232.448 23.8676L232.468 23.8528L232.488 23.8373L231.558 22.66ZM232.782 20.932L234.148 21.5527L234.153 21.5412L232.782 20.932ZM234.438 14.884L232.967 14.5898L232.966 14.5998L234.438 14.884ZM235.338 9.052L236.837 9.11577L236.837 9.11444L235.338 9.052ZM235.014 3.904L236.368 3.25682V3.25682L235.014 3.904ZM231.774 3.724L230.771 2.60906L230.765 2.61425L230.759 2.61951L231.774 3.724ZM221.502 16.216C221.502 11.9466 222.604 8.61232 224.688 6.08156L222.372 4.17444C219.753 7.35568 218.502 11.4134 218.502 16.216H221.502ZM224.698 6.06945C226.881 3.36227 229.852 1.984 233.79 1.984V-1.016C229.041 -1.016 225.172 0.701727 222.363 4.18655L224.698 6.06945ZM233.79 1.984C236.711 1.984 238.634 2.69733 239.838 3.86485L241.927 1.71115C239.963 -0.19333 237.158 -1.016 233.79 -1.016V1.984ZM239.847 3.87303C241.019 4.9919 241.758 6.88111 241.758 9.88H244.758C244.758 6.44689 243.914 3.6081 241.918 1.70297L239.847 3.87303ZM241.758 9.88C241.758 14.5211 240.579 18.01 238.385 20.5209L240.644 22.4951C243.441 19.294 244.758 15.0309 244.758 9.88H241.758ZM238.389 20.5168C236.234 22.9636 233.352 24.22 229.578 24.22V27.22C234.108 27.22 237.85 25.6684 240.64 22.4992L238.389 20.5168ZM229.578 24.22C226.564 24.22 224.61 23.4722 223.411 22.2553L221.274 24.3607C223.243 26.3598 226.113 27.22 229.578 27.22V24.22ZM223.427 22.2715C222.22 21.0086 221.502 19.0715 221.502 16.216H218.502C218.502 19.5525 219.345 22.3434 221.258 24.3445L223.427 22.2715ZM228.015 8.4002C226.914 12.8051 226.35 16.7946 226.35 20.356H229.35C229.35 17.1014 229.867 13.3629 230.926 9.1278L228.015 8.4002ZM226.35 20.356C226.35 21.3208 226.505 22.2425 226.905 23.0428L229.588 21.7012C229.46 21.4455 229.35 21.0232 229.35 20.356H226.35ZM226.93 23.0903C227.537 24.2039 228.619 24.664 229.758 24.664V21.664C229.578 21.664 229.524 21.6308 229.536 21.6373C229.543 21.6405 229.554 21.6478 229.564 21.6578C229.573 21.6674 229.572 21.6692 229.563 21.6537L226.93 23.0903ZM229.758 24.664C230.723 24.664 231.664 24.4453 232.448 23.8676L230.669 21.4524C230.541 21.5467 230.282 21.664 229.758 21.664V24.664ZM232.488 23.8373C233.202 23.2738 233.734 22.4629 234.148 21.5527L231.417 20.3113C231.111 20.9851 230.827 21.3262 230.629 21.4827L232.488 23.8373ZM234.153 21.5412C234.801 20.0839 235.378 17.9307 235.911 15.1682L232.966 14.5998C232.443 17.3093 231.916 19.1881 231.412 20.3228L234.153 21.5412ZM235.909 15.1782C236.461 12.4213 236.784 10.3734 236.837 9.11577L233.84 8.98823C233.797 9.98659 233.52 11.8267 232.968 14.5898L235.909 15.1782ZM236.837 9.11444C236.886 7.94803 236.91 6.91836 236.91 6.028H233.91C233.91 6.86564 233.887 7.85197 233.84 8.98955L236.837 9.11444ZM236.91 6.028C236.91 5.0262 236.76 4.0764 236.368 3.25682L233.661 4.55118C233.797 4.8356 233.91 5.3018 233.91 6.028H236.91ZM236.368 3.25682C236.114 2.72675 235.72 2.27697 235.181 1.97478C234.657 1.68092 234.086 1.576 233.538 1.576V4.576C233.711 4.576 233.745 4.60908 233.714 4.59121C233.698 4.58237 233.68 4.56867 233.666 4.55315C233.653 4.5385 233.653 4.53391 233.661 4.55118L236.368 3.25682ZM233.538 1.576C232.503 1.576 231.549 1.90897 230.771 2.60906L232.778 4.83894C232.96 4.67503 233.182 4.576 233.538 4.576V1.576ZM230.759 2.61951C229.52 3.75857 228.67 5.82997 228.017 8.39375L230.924 9.13425C231.567 6.61003 232.253 5.32143 232.789 4.82849L230.759 2.61951ZM247.865 16.468L249.336 16.7622L249.338 16.7501L247.865 16.468ZM250.781 1.24V-0.260001H249.541L249.308 0.957891L250.781 1.24ZM258.737 1.24L260.211 1.51685L260.545 -0.260001H258.737V1.24ZM255.857 16.576L257.33 16.8581L257.331 16.8528L255.857 16.576ZM256.037 21.4L254.853 22.3209L254.868 22.3409L254.885 22.3603L256.037 21.4ZM259.133 21.796L259.704 23.183L259.133 21.796ZM260.249 20.932L261.407 21.8856L261.415 21.8753L261.424 21.8648L260.249 20.932ZM261.833 16.576L263.305 16.8637L263.307 16.8562L261.833 16.576ZM264.749 1.24V-0.260001H263.507L263.275 0.959808L264.749 1.24ZM270.185 1.24L271.659 1.51748L271.994 -0.260001H270.185V1.24ZM267.305 16.54L268.777 16.8302L268.779 16.8175L267.305 16.54ZM263.525 23.704L262.633 22.4984L262.628 22.5021L263.525 23.704ZM249.377 23.992L250.324 22.8284L250.319 22.8251L249.377 23.992ZM249.005 19.672C249.005 18.8595 249.11 17.893 249.336 16.7622L246.394 16.1738C246.14 17.443 246.005 18.6125 246.005 19.672H249.005ZM249.338 16.7501L252.254 1.52211L249.308 0.957891L246.392 16.1859L249.338 16.7501ZM250.781 2.74H258.737V-0.260001H250.781V2.74ZM257.263 0.963148L254.383 16.2991L257.331 16.8528L260.211 1.51685L257.263 0.963148ZM254.384 16.2939C254.156 17.4836 254.033 18.5661 254.033 19.528H257.033C257.033 18.8099 257.126 17.9244 257.33 16.8581L254.384 16.2939ZM254.033 19.528C254.033 20.5208 254.233 21.5241 254.853 22.3209L257.221 20.4791C257.169 20.4119 257.033 20.1672 257.033 19.528H254.033ZM254.885 22.3603C255.575 23.1885 256.532 23.548 257.549 23.548V20.548C257.27 20.548 257.219 20.4755 257.189 20.4397L254.885 22.3603ZM257.549 23.548C258.309 23.548 259.051 23.452 259.704 23.183L258.562 20.409C258.399 20.476 258.085 20.548 257.549 20.548V23.548ZM259.704 23.183C260.381 22.9041 260.945 22.4466 261.407 21.8856L259.091 19.9784C258.881 20.2334 258.701 20.3519 258.562 20.409L259.704 23.183ZM261.424 21.8648C262.309 20.7495 262.89 18.9906 263.305 16.8637L260.361 16.2883C259.96 18.3374 259.485 19.4825 259.074 19.9992L261.424 21.8648ZM263.307 16.8562L266.223 1.52019L263.275 0.959808L260.359 16.2958L263.307 16.8562ZM264.749 2.74H270.185V-0.260001H264.749V2.74ZM268.711 0.962519L265.831 16.2625L268.779 16.8175L271.659 1.51748L268.711 0.962519ZM265.833 16.2498C265.198 19.4732 264.059 21.4428 262.633 22.4984L264.417 24.9096C266.687 23.2292 268.068 20.4228 268.777 16.8302L265.833 16.2498ZM262.628 22.5021C261.199 23.5691 258.9 24.22 255.497 24.22V27.22C259.198 27.22 262.251 26.5269 264.422 24.9059L262.628 22.5021ZM255.497 24.22C253.024 24.22 251.373 23.6824 250.324 22.8284L248.43 25.1556C250.213 26.6056 252.642 27.22 255.497 27.22V24.22ZM250.319 22.8251C249.485 22.1511 249.005 21.1754 249.005 19.672H246.005C246.005 21.9126 246.773 23.8169 248.434 25.1589L250.319 22.8251ZM7.77607 42.68L6.43443 42.0092L5.87458 43.1289L6.87607 43.88L7.77607 42.68ZM9.36007 41.132L10.0309 42.4736L10.0395 42.4693L10.048 42.4649L9.36007 41.132ZM15.7681 42.284L14.6039 43.2299L14.6147 43.2432L14.6258 43.2562L15.7681 42.284ZM17.2081 60.572H15.7081L18.5875 61.1613L17.2081 60.572ZM25.4521 41.276V39.776H24.4618L24.0727 40.6867L25.4521 41.276ZM29.7001 41.276L31.1979 41.1961L31.1222 39.776H29.7001V41.276ZM30.6721 59.492L32.1641 59.6463L32.1762 59.5294L32.1699 59.4121L30.6721 59.492ZM30.5641 60.536L29.072 60.3817L31.9346 61.1457L30.5641 60.536ZM39.1321 41.276V39.776H38.1576L37.7616 40.6663L39.1321 41.276ZM44.0641 41.276L45.4134 41.9312L46.4599 39.776H44.0641V41.276ZM32.5441 65V66.5H33.4832L33.8934 65.6552L32.5441 65ZM24.8761 65L23.3793 65.0985L23.4715 66.5H24.8761V65ZM24.1561 54.056L25.6528 53.9575L22.7802 53.4586L24.1561 54.056ZM19.4041 65V66.5H20.3881L20.78 65.5974L19.4041 65ZM10.7281 65L9.23099 65.0936L9.31889 66.5H10.7281V65ZM9.64807 47.72L8.15034 47.8032L8.15099 47.8136L9.64807 47.72ZM9.00007 44.516L7.60206 45.0597L7.61131 45.0834L7.62135 45.1069L9.00007 44.516ZM9.11771 43.3508C9.29791 42.9904 9.57913 42.6995 10.0309 42.4736L8.68925 39.7904C7.701 40.2845 6.92622 41.0256 6.43443 42.0092L9.11771 43.3508ZM10.048 42.4649C10.5401 42.2109 11.1711 42.056 11.9881 42.056V39.056C10.7891 39.056 9.668 39.2851 8.6721 39.7991L10.048 42.4649ZM11.9881 42.056C13.1552 42.056 13.974 42.4546 14.6039 43.2299L16.9322 41.3381C15.6902 39.8094 13.989 39.056 11.9881 39.056V42.056ZM14.6258 43.2562C15.2422 43.9805 15.7081 45.3557 15.7081 47.72H18.7081C18.7081 45.0923 18.2139 42.8435 16.9104 41.3118L14.6258 43.2562ZM15.7081 47.72V60.572H18.7081V47.72H15.7081ZM18.5875 61.1613L26.8315 41.8653L24.0727 40.6867L15.8287 59.9827L18.5875 61.1613ZM25.4521 42.776H29.7001V39.776H25.4521V42.776ZM28.2022 41.3559L29.1742 59.5719L32.1699 59.4121L31.1979 41.1961L28.2022 41.3559ZM29.18 59.3376L29.072 60.3817L32.0561 60.6903L32.1641 59.6463L29.18 59.3376ZM31.9346 61.1457L40.5026 41.8857L37.7616 40.6663L29.1936 59.9263L31.9346 61.1457ZM39.1321 42.776H44.0641V39.776H39.1321V42.776ZM42.7147 40.6208L31.1947 64.3448L33.8934 65.6552L45.4134 41.9312L42.7147 40.6208ZM32.5441 63.5H24.8761V66.5H32.5441V63.5ZM26.3728 64.9015L25.6528 53.9575L22.6593 54.1545L23.3793 65.0985L26.3728 64.9015ZM22.7802 53.4586L18.0282 64.4026L20.78 65.5974L25.532 54.6534L22.7802 53.4586ZM19.4041 63.5H10.7281V66.5H19.4041V63.5ZM12.2251 64.9064L11.1451 47.6264L8.15099 47.8136L9.23099 65.0936L12.2251 64.9064ZM11.1458 47.6368C11.0678 46.2334 10.8302 44.9783 10.3788 43.9251L7.62135 45.1069C7.88998 45.7337 8.08434 46.6146 8.15038 47.8032L11.1458 47.6368ZM10.3981 43.9723C10.0115 42.9784 9.4708 42.076 8.67607 41.48L6.87607 43.88C7.04134 44.004 7.3166 44.3256 7.60206 45.0597L10.3981 43.9723ZM54.1744 59.168L55.6712 59.0693L55.5788 57.668H54.1744V59.168ZM47.9824 59.168V57.668H46.999L46.6068 58.5699L47.9824 59.168ZM46.7584 62.264L45.3426 61.7685L45.3392 61.7785L46.7584 62.264ZM45.8224 65V66.5H46.8946L47.2417 65.4855L45.8224 65ZM40.7824 65L39.4287 64.3539L38.4044 66.5H40.7824V65ZM52.1224 41.24V39.74H51.1763L50.7687 40.5939L52.1224 41.24ZM59.8624 41.24L61.3569 41.1109L61.2384 39.74H59.8624V41.24ZM61.3744 58.736L59.88 58.8652L59.8812 58.8782L61.3744 58.736ZM63.1744 63.632L64.5161 64.3028L65.067 63.201L64.0933 62.4464L63.1744 63.632ZM49.0984 56.54L47.722 55.9439L46.8142 58.04H49.0984V56.54ZM54.0664 56.54V58.04H55.6381L55.5648 56.47L54.0664 56.54ZM53.6344 47.288H52.1344V47.323L52.1361 47.358L53.6344 47.288ZM53.6344 46.316H55.1344L52.2677 45.6979L53.6344 46.316ZM51.0784 51.968L49.7117 51.3499L49.7068 51.3609L49.702 51.3719L51.0784 51.968ZM59.2144 64.22C58.0829 64.22 57.3601 63.8443 56.8394 63.1674C56.2584 62.4121 55.8062 61.1169 55.6712 59.0693L52.6777 59.2667C52.8307 61.5871 53.3625 63.5679 54.4615 64.9966C55.6208 66.5037 57.274 67.22 59.2144 67.22V64.22ZM54.1744 57.668H47.9824V60.668H54.1744V57.668ZM46.6068 58.5699C46.1148 59.7017 45.6927 60.7682 45.3427 61.7685L48.1742 62.7595C48.4961 61.8398 48.8901 60.8423 49.358 59.7661L46.6068 58.5699ZM45.3392 61.7785L44.4032 64.5145L47.2417 65.4855L48.1777 62.7495L45.3392 61.7785ZM45.8224 63.5H40.7824V66.5H45.8224V63.5ZM42.1362 65.6461L53.4762 41.8861L50.7687 40.5939L39.4287 64.3539L42.1362 65.6461ZM52.1224 42.74H59.8624V39.74H52.1224V42.74ZM58.368 41.3691L59.88 58.8652L62.8689 58.6068L61.3569 41.1109L58.368 41.3691ZM59.8812 58.8782C60.0084 60.2138 60.237 61.3894 60.5966 62.3676C60.9539 63.3395 61.4769 64.2141 62.2556 64.8176L64.0933 62.4464C63.912 62.3059 63.655 61.9925 63.4123 61.3324C63.1719 60.6786 62.9805 59.7782 62.8677 58.5938L59.8812 58.8782ZM61.8328 62.9612C61.4587 63.7093 60.7597 64.22 59.2144 64.22V67.22C61.5572 67.22 63.4982 66.3387 64.5161 64.3028L61.8328 62.9612ZM49.0984 58.04H54.0664V55.04H49.0984V58.04ZM55.5648 56.47L55.1328 47.218L52.1361 47.358L52.5681 56.61L55.5648 56.47ZM55.1344 47.288V46.316H52.1344V47.288H55.1344ZM52.2677 45.6979L49.7117 51.3499L52.4452 52.5861L55.0012 46.9341L52.2677 45.6979ZM49.702 51.3719L47.722 55.9439L50.4749 57.1361L52.4549 52.5641L49.702 51.3719ZM66.6816 65L65.2086 64.7166L64.8655 66.5H66.6816V65ZM71.2536 41.24V39.74H70.0147L69.7807 40.9566L71.2536 41.24ZM79.1736 41.24L80.6458 41.5277L80.9952 39.74H79.1736V41.24ZM74.5296 65V66.5H75.7648L76.0018 65.2877L74.5296 65ZM68.1546 65.2834L72.7266 41.5234L69.7807 40.9566L65.2086 64.7166L68.1546 65.2834ZM71.2536 42.74H79.1736V39.74H71.2536V42.74ZM77.7015 40.9523L73.0575 64.7123L76.0018 65.2877L80.6458 41.5277L77.7015 40.9523ZM74.5296 63.5H66.6816V66.5H74.5296V63.5ZM84.66 47.468L83.7488 48.6595L85.2713 49.8238L86.0356 48.0661L84.66 47.468ZM84.732 41.492L83.8067 40.3114L83.7988 40.3176L83.791 40.3239L84.732 41.492ZM93.192 40.952L92.9733 42.436L92.9737 42.436L93.192 40.952ZM95.64 41.312L95.4217 42.796L95.4432 42.7992L95.4647 42.8017L95.64 41.312ZM100.284 40.916L101.281 39.7949L100.441 39.0488L99.489 39.644L100.284 40.916ZM100.104 46.568L99.1635 45.3995L99.1535 45.4075L99.1437 45.4157L100.104 46.568ZM94.2 47.576L94.4466 46.0964L93.1646 45.8828L92.7706 47.1212L94.2 47.576ZM94.38 62.84L95.6912 63.5685L96.2304 62.598L95.4597 61.7988L94.38 62.84ZM92.148 65.072L91.5217 63.709L91.5067 63.7159L91.4918 63.7231L92.148 65.072ZM85.56 64.64L84.5493 65.7484L84.5663 65.7639L84.5838 65.7789L85.56 64.64ZM85.776 54.308L84.3541 53.8301L84.353 53.8337L85.776 54.308ZM89.376 46.748L90.6283 47.5737L91.9888 45.5103L89.5303 45.256L89.376 46.748ZM85.5712 46.2765C85.2285 46.0144 84.936 45.5506 84.936 44.552H81.936C81.936 46.1934 82.4594 47.6736 83.7488 48.6595L85.5712 46.2765ZM84.936 44.552C84.936 43.5557 85.2376 43.0109 85.673 42.6601L83.791 40.3239C82.4984 41.3651 81.936 42.8603 81.936 44.552H84.936ZM85.6573 42.6726C86.2039 42.2442 87.0417 41.948 88.332 41.948V38.948C86.5982 38.948 85.0361 39.3478 83.8067 40.3114L85.6573 42.6726ZM88.332 41.948C89.1707 41.948 90.6935 42.1 92.9733 42.436L93.4107 39.468C91.1304 39.132 89.4132 38.948 88.332 38.948V41.948ZM92.9737 42.436L95.4217 42.796L95.8582 39.828L93.4102 39.468L92.9737 42.436ZM95.4647 42.8017C96.3402 42.9047 97.2267 42.956 98.124 42.956V39.956C97.3412 39.956 96.5718 39.9113 95.8152 39.8223L95.4647 42.8017ZM98.124 42.956C99.1934 42.956 100.208 42.7326 101.079 42.188L99.489 39.644C99.2083 39.8194 98.7825 39.956 98.124 39.956V42.956ZM99.2874 42.0371C99.8483 42.5357 100.08 43.0708 100.08 43.724H103.08C103.08 42.1692 102.448 40.8323 101.281 39.7949L99.2874 42.0371ZM100.08 43.724C100.08 44.3049 99.8511 44.846 99.1635 45.3995L101.044 47.7365C102.325 46.706 103.08 45.3511 103.08 43.724H100.08ZM99.1437 45.4157C98.4016 46.0341 97.5883 46.328 96.648 46.328V49.328C98.2996 49.328 99.7904 48.7819 101.064 47.7203L99.1437 45.4157ZM96.648 46.328C96.1419 46.328 95.4175 46.2582 94.4466 46.0964L93.9534 49.0556C94.9985 49.2298 95.9061 49.328 96.648 49.328V46.328ZM92.7706 47.1212C91.5691 50.8972 90.936 54.1923 90.936 56.972H93.936C93.936 54.6157 94.4788 51.6468 95.6294 48.0308L92.7706 47.1212ZM90.936 56.972C90.936 59.7803 91.6468 62.1666 93.3002 63.8812L95.4597 61.7988C94.5211 60.8254 93.936 59.2997 93.936 56.972H90.936ZM93.0687 62.1115C92.5824 62.9869 92.0509 63.4658 91.5217 63.709L92.7742 66.435C94.021 65.8622 94.9775 64.8531 95.6912 63.5685L93.0687 62.1115ZM91.4918 63.7231C90.8682 64.0265 89.9944 64.22 88.8 64.22V67.22C90.2936 67.22 91.6517 66.9815 92.8042 66.4209L91.4918 63.7231ZM88.8 64.22C87.7656 64.22 87.0539 63.9449 86.5362 63.5011L84.5838 65.7789C85.746 66.7751 87.1944 67.22 88.8 67.22V64.22ZM86.5706 63.5316C86.1686 63.165 85.836 62.5079 85.836 61.256H82.836C82.836 63.0281 83.3194 64.627 84.5493 65.7484L86.5706 63.5316ZM85.836 61.256C85.836 59.7415 86.2584 57.6041 87.199 54.7823L84.353 53.8337C83.3736 56.7719 82.836 59.2665 82.836 61.256H85.836ZM87.1978 54.7859C88.1226 52.0345 89.2694 49.6347 90.6283 47.5737L88.1237 45.9223C86.6026 48.2293 85.3493 50.8695 84.3541 53.8301L87.1978 54.7859ZM89.5303 45.256C88.7816 45.1785 88.022 45.14 87.252 45.14V48.14C87.9219 48.14 88.5784 48.1735 89.2216 48.24L89.5303 45.256ZM87.252 45.14C86.4388 45.14 85.6751 45.2125 85.0315 45.4181C84.398 45.6205 83.6486 46.0321 83.2844 46.8699L86.0356 48.0661C85.9113 48.3519 85.7139 48.3495 85.9444 48.2759C86.1648 48.2054 86.5771 48.14 87.252 48.14V45.14ZM101.817 65L100.344 64.7166L100.001 66.5H101.817V65ZM106.389 41.24V39.74H105.15L104.916 40.9566L106.389 41.24ZM114.309 41.24L115.781 41.5277L116.13 39.74H114.309V41.24ZM109.665 65V66.5H110.9L111.137 65.2877L109.665 65ZM103.29 65.2834L107.862 41.5234L104.916 40.9566L100.344 64.7166L103.29 65.2834ZM106.389 42.74H114.309V39.74H106.389V42.74ZM112.837 40.9523L108.193 64.7123L111.137 65.2877L115.781 41.5277L112.837 40.9523ZM109.665 63.5H101.817V66.5H109.665V63.5ZM116.663 65L115.187 64.7317L114.866 66.5H116.663V65ZM120.983 41.24V39.74H119.731L119.507 40.9717L120.983 41.24ZM128.723 41.24L130.142 40.7526L129.794 39.74H128.723V41.24ZM134.339 57.584L132.921 58.0714L134.784 63.4935L135.815 57.8538L134.339 57.584ZM137.327 41.24L137.341 39.7401L136.079 39.7287L135.852 40.9702L137.327 41.24ZM141.323 41.276L142.798 41.5491L143.123 39.7922L141.337 39.7761L141.323 41.276ZM136.931 65V66.5H138.179L138.406 65.2731L136.931 65ZM128.687 65L127.262 65.4695L127.602 66.5H128.687V65ZM123.503 49.268L124.928 48.7985L122.028 48.9979L123.503 49.268ZM120.623 65V66.5H121.873L122.099 65.2701L120.623 65ZM118.139 65.2683L122.459 41.5083L119.507 40.9717L115.187 64.7317L118.139 65.2683ZM120.983 42.74H128.723V39.74H120.983V42.74ZM127.305 41.7274L132.921 58.0714L135.758 57.0966L130.142 40.7526L127.305 41.7274ZM135.815 57.8538L138.803 41.5098L135.852 40.9702L132.864 57.3142L135.815 57.8538ZM137.314 42.7399L141.31 42.7759L141.337 39.7761L137.341 39.7401L137.314 42.7399ZM139.848 41.0029L135.456 64.7269L138.406 65.2731L142.798 41.5491L139.848 41.0029ZM136.931 63.5H128.687V66.5H136.931V63.5ZM130.112 64.5305L124.928 48.7985L122.078 49.7374L127.262 65.4695L130.112 64.5305ZM122.028 48.9979L119.148 64.7299L122.099 65.2701L124.979 49.5381L122.028 48.9979ZM120.623 63.5H116.663V66.5H120.623V63.5ZM165.88 52.76L167.245 53.382L168.313 51.0372L165.747 51.2659L165.88 52.76ZM163.288 65.036L164.151 66.2627L164.788 65.8146V65.036H163.288ZM158.572 65.036L159.479 63.8418L159.464 63.83L159.448 63.8187L158.572 65.036ZM157.492 63.704L158.942 63.3223L158.262 60.7384L156.41 62.6643L157.492 63.704ZM155.116 65.18L154.6 63.7713L154.589 63.7755L155.116 65.18ZM149.212 65.216L148.681 66.619L148.693 66.6235L149.212 65.216ZM146.836 63.596L147.931 62.5713L147.928 62.568L146.836 63.596ZM148.384 44.984L149.503 45.9823L149.506 45.9794L148.384 44.984ZM165.952 43.04L167.191 42.195L167.189 42.1917L165.952 43.04ZM166.06 46.568L164.73 45.8741L164.724 45.8856L164.718 45.8972L166.06 46.568ZM165.016 48.008L166.037 49.1063L166.057 49.0878L166.076 49.0687L165.016 48.008ZM160.084 49.196L158.597 48.9978L158.435 50.2083L159.588 50.6118L160.084 49.196ZM160.12 45.02L158.631 45.2061L158.637 45.2515L158.645 45.2964L160.12 45.02ZM159.832 43.976L161.194 43.3474L161.188 43.3363L161.183 43.3253L159.832 43.976ZM156.16 44.12L157.203 45.1979L157.203 45.1974L156.16 44.12ZM154.144 47L152.802 46.3292L152.797 46.3388L154.144 47ZM153.028 59.708L154.347 58.9936L154.344 58.9897L153.028 59.708ZM156.7 61.148L155.994 59.8245L155.974 59.8348L155.955 59.8456L156.7 61.148ZM157.456 60.644L158.516 61.7047L158.86 61.3605L158.937 60.8798L157.456 60.644ZM158.608 53.408L158.475 51.9139L157.31 52.0177L157.126 53.1722L158.608 53.408ZM164.515 52.138C162.693 56.1358 161.788 60.4412 161.788 65.036H164.788C164.788 60.8468 165.61 56.9682 167.245 53.382L164.515 52.138ZM162.424 63.8093C162.079 64.0527 161.593 64.22 160.876 64.22V67.22C162.078 67.22 163.201 66.9314 164.151 66.2627L162.424 63.8093ZM160.876 64.22C160.187 64.22 159.76 64.0555 159.479 63.8418L157.664 66.2302C158.583 66.9285 159.693 67.22 160.876 67.22V64.22ZM159.448 63.8187C158.979 63.481 158.936 63.2968 158.942 63.3223L156.041 64.0857C156.288 65.0232 156.964 65.727 157.695 66.2533L159.448 63.8187ZM156.41 62.6643C155.998 63.0929 155.414 63.4734 154.6 63.7713L155.631 66.5887C156.785 66.1666 157.785 65.5631 158.573 64.7437L156.41 62.6643ZM154.589 63.7755C153.798 64.0719 152.981 64.22 152.128 64.22V67.22C153.338 67.22 154.513 67.0081 155.642 66.5845L154.589 63.7755ZM152.128 64.22C151.262 64.22 150.466 64.0796 149.73 63.8085L148.693 66.6235C149.781 67.0244 150.93 67.22 152.128 67.22V64.22ZM149.742 63.8131C149.085 63.5641 148.482 63.1602 147.931 62.5713L145.74 64.6207C146.581 65.5198 147.563 66.1959 148.681 66.6189L149.742 63.8131ZM147.928 62.568C146.74 61.3056 146.032 59.3652 146.032 56.504H143.032C143.032 59.8348 143.859 62.6224 145.743 64.624L147.928 62.568ZM146.032 56.504C146.032 51.9788 147.236 48.5249 149.503 45.9823L147.264 43.9857C144.395 47.203 143.032 51.4292 143.032 56.504H146.032ZM149.506 45.9794C151.81 43.3817 155.03 42.02 159.364 42.02V39.02C154.338 39.02 150.237 40.6343 147.262 43.9886L149.506 45.9794ZM159.364 42.02C162.409 42.02 163.977 42.8132 164.715 43.8883L167.189 42.1917C165.622 39.9068 162.798 39.02 159.364 39.02V42.02ZM164.712 43.885C164.9 44.1602 164.992 44.453 164.992 44.804H167.992C167.992 43.859 167.723 42.9758 167.191 42.195L164.712 43.885ZM164.992 44.804C164.992 45.187 164.906 45.5369 164.73 45.8741L167.39 47.2618C167.79 46.4951 167.992 45.669 167.992 44.804H164.992ZM164.718 45.8972C164.529 46.276 164.277 46.6253 163.955 46.9473L166.076 49.0687C166.618 48.5267 167.063 47.916 167.401 47.2388L164.718 45.8972ZM163.994 46.9097C163.207 47.6418 162.41 47.948 161.56 47.948V50.948C163.253 50.948 164.76 50.2942 166.037 49.1063L163.994 46.9097ZM161.56 47.948C161.226 47.948 160.901 47.893 160.579 47.7802L159.588 50.6118C160.226 50.835 160.885 50.948 161.56 50.948V47.948ZM161.57 49.3942C161.676 48.5993 161.728 47.7523 161.728 46.856H158.728C158.728 47.6397 158.683 48.3527 158.597 48.9978L161.57 49.3942ZM161.728 46.856C161.728 46.0038 161.693 45.2734 161.594 44.7436L158.645 45.2964C158.69 45.5345 158.728 46.0282 158.728 46.856H161.728ZM161.608 44.8339C161.543 44.3159 161.41 43.816 161.194 43.3474L158.47 44.6046C158.541 44.76 158.6 44.9561 158.631 45.2061L161.608 44.8339ZM161.183 43.3253C160.931 42.8019 160.559 42.3247 160.031 41.9852C159.5 41.6439 158.908 41.504 158.32 41.504V44.504C158.377 44.504 158.406 44.5106 158.415 44.5129C158.421 44.5147 158.417 44.5142 158.408 44.5088C158.4 44.5035 158.402 44.5024 158.413 44.5152C158.425 44.5292 158.449 44.5626 158.48 44.6267L161.183 43.3253ZM158.32 41.504C157.082 41.504 156.005 42.1814 155.116 43.0426L157.203 45.1974C157.85 44.5706 158.213 44.504 158.32 44.504V41.504ZM155.117 43.0421C154.221 43.909 153.457 45.0201 152.802 46.3292L155.485 47.6708C156.031 46.5799 156.611 45.771 157.203 45.1979L155.117 43.0421ZM152.797 46.3388C151.368 49.2491 150.664 52.4419 150.664 55.892H153.664C153.664 52.8621 154.279 50.1269 155.49 47.6612L152.797 46.3388ZM150.664 55.892C150.664 57.5723 150.989 59.1036 151.711 60.4263L154.344 58.9897C153.914 58.2004 153.664 57.1877 153.664 55.892H150.664ZM151.709 60.4224C152.536 61.9501 153.852 62.936 155.62 62.936V59.936C155.179 59.936 154.767 59.7699 154.347 58.9936L151.709 60.4224ZM155.62 62.936C156.267 62.936 156.883 62.7708 157.444 62.4504L155.955 59.8456C155.844 59.9092 155.74 59.936 155.62 59.936V62.936ZM157.406 62.4715C157.793 62.265 158.209 62.0125 158.516 61.7047L156.395 59.5833C156.418 59.5606 156.406 59.577 156.327 59.6299C156.253 59.6793 156.144 59.7442 155.994 59.8245L157.406 62.4715ZM158.937 60.8798L160.089 53.6438L157.126 53.1722L155.974 60.4082L158.937 60.8798ZM158.741 54.9021L166.013 54.2541L165.747 51.2659L158.475 51.9139L158.741 54.9021ZM190.011 44.948L190.635 43.584L188.907 42.7934L188.539 44.6573L190.011 44.948ZM188.859 50.78L187.387 50.4893L187.033 52.28H188.859V50.78ZM195.807 50.78H197.307V49.28H195.807V50.78ZM194.835 53.912L193.66 52.9792L193.656 52.9837L194.835 53.912ZM188.571 54.416L188.014 55.8087L188.019 55.8107L188.571 54.416ZM188.175 54.236L189.235 53.1754L187.232 51.1718L186.701 53.9551L188.175 54.236ZM186.123 65V66.5H187.364L187.596 65.2809L186.123 65ZM178.275 65L176.802 64.7166L176.458 66.5H178.275V65ZM182.847 41.24V39.74H181.608L181.374 40.9566L182.847 41.24ZM198.903 41.24H200.403V39.74H198.903V41.24ZM197.859 44.696L196.704 43.739L196.701 43.7424L197.859 44.696ZM195.051 44.42C193.27 44.42 191.813 44.123 190.635 43.584L189.386 46.312C191.041 47.069 192.943 47.42 195.051 47.42V44.42ZM188.539 44.6573L187.387 50.4893L190.33 51.0707L191.482 45.2387L188.539 44.6573ZM188.859 52.28H195.807V49.28H188.859V52.28ZM194.307 50.78C194.307 51.7903 194.054 52.4831 193.66 52.9792L196.009 54.8448C196.911 53.7089 197.307 52.3137 197.307 50.78H194.307ZM193.656 52.9837C193.36 53.3602 192.937 53.6 192.171 53.6V56.6C193.708 56.6 195.061 56.0478 196.013 54.8403L193.656 52.9837ZM192.171 53.6C191.11 53.6 190.098 53.4072 189.123 53.0213L188.019 55.8107C189.348 56.3368 190.735 56.6 192.171 56.6V53.6ZM189.128 53.0233C189.015 52.9784 188.947 52.9493 188.912 52.9335C188.893 52.9248 188.901 52.9278 188.924 52.94C188.935 52.9461 188.965 52.9622 189.004 52.9873C189.024 53.0003 189.053 53.0202 189.088 53.0467C189.121 53.0715 189.174 53.1146 189.235 53.1754L187.114 55.2966C187.296 55.4784 187.496 55.5783 187.502 55.5815C187.563 55.6147 187.624 55.6432 187.671 55.6645C187.768 55.7087 187.886 55.7576 188.014 55.8087L189.128 53.0233ZM186.701 53.9551L184.649 64.7191L187.596 65.2809L189.648 54.5169L186.701 53.9551ZM186.123 63.5H178.275V66.5H186.123V63.5ZM179.748 65.2834L184.32 41.5234L181.374 40.9566L176.802 64.7166L179.748 65.2834ZM182.847 42.74H198.903V39.74H182.847V42.74ZM197.403 41.24C197.403 42.4745 197.111 43.2478 196.704 43.739L199.014 45.653C199.999 44.4642 200.403 42.9335 200.403 41.24H197.403ZM196.701 43.7424C196.354 44.1631 195.871 44.42 195.051 44.42V47.42C196.631 47.42 198.019 46.8609 199.016 45.6496L196.701 43.7424ZM203.875 45.128L205.032 46.0816L205.037 46.0755L205.042 46.0695L203.875 45.128ZM221.227 42.788L220.182 43.8649L220.191 43.873L221.227 42.788ZM219.859 61.508L220.984 62.4992L220.988 62.4951L219.859 61.508ZM202.687 63.308L201.602 64.3445L201.61 64.3526L201.618 64.3607L202.687 63.308ZM209.815 48.764L208.361 48.3937L208.359 48.4002L209.815 48.764ZM208.591 62.372L207.249 63.0428L207.261 63.0668L207.274 63.0903L208.591 62.372ZM211.903 62.66L212.792 63.8676L212.812 63.8528L212.832 63.8373L211.903 62.66ZM213.127 60.932L214.492 61.5527L214.497 61.5412L213.127 60.932ZM214.783 54.884L213.312 54.5898L213.31 54.5998L214.783 54.884ZM215.683 49.052L217.181 49.1158L217.181 49.1144L215.683 49.052ZM215.359 43.904L216.712 43.2568L215.359 43.904ZM212.119 43.724L211.115 42.6091L211.109 42.6143L211.104 42.6195L212.119 43.724ZM201.847 56.216C201.847 51.9466 202.948 48.6123 205.032 46.0816L202.717 44.1744C200.097 47.3557 198.847 51.4134 198.847 56.216H201.847ZM205.042 46.0695C207.225 43.3623 210.196 41.984 214.135 41.984V38.984C209.385 38.984 205.516 40.7017 202.707 44.1865L205.042 46.0695ZM214.135 41.984C217.055 41.984 218.978 42.6973 220.182 43.8648L222.271 41.7111C220.307 39.8067 217.502 38.984 214.135 38.984V41.984ZM220.191 43.873C221.363 44.9919 222.103 46.8811 222.103 49.88H225.103C225.103 46.4469 224.258 43.6081 222.262 41.703L220.191 43.873ZM222.103 49.88C222.103 54.5211 220.924 58.01 218.729 60.5209L220.988 62.4951C223.786 59.294 225.103 55.0309 225.103 49.88H222.103ZM218.733 60.5168C216.579 62.9636 213.697 64.22 209.923 64.22V67.22C214.453 67.22 218.194 65.6684 220.984 62.4992L218.733 60.5168ZM209.923 64.22C206.908 64.22 204.954 63.4722 203.755 62.2553L201.618 64.3607C203.587 66.3598 206.457 67.22 209.923 67.22V64.22ZM203.771 62.2715C202.564 61.0086 201.847 59.0715 201.847 56.216H198.847C198.847 59.5525 199.689 62.3434 201.602 64.3445L203.771 62.2715ZM208.359 48.4002C207.258 52.8051 206.695 56.7946 206.695 60.356H209.695C209.695 57.1014 210.211 53.3629 211.27 49.1278L208.359 48.4002ZM206.695 60.356C206.695 61.3208 206.849 62.2425 207.249 63.0428L209.932 61.7012C209.804 61.4455 209.695 61.0232 209.695 60.356H206.695ZM207.274 63.0903C207.881 64.2039 208.963 64.664 210.103 64.664V61.664C209.922 61.664 209.868 61.6308 209.881 61.6373C209.887 61.6405 209.898 61.6478 209.908 61.6578C209.917 61.6674 209.916 61.6692 209.907 61.6537L207.274 63.0903ZM210.103 64.664C211.067 64.664 212.008 64.4453 212.792 63.8676L211.013 61.4524C210.885 61.5467 210.626 61.664 210.103 61.664V64.664ZM212.832 63.8373C213.546 63.2738 214.078 62.4629 214.492 61.5527L211.761 60.3113C211.455 60.9851 211.171 61.3262 210.973 61.4827L212.832 63.8373ZM214.497 61.5412C215.145 60.0839 215.722 57.9307 216.255 55.1682L213.31 54.5998C212.787 57.3093 212.26 59.1881 211.756 60.3228L214.497 61.5412ZM216.253 55.1782C216.805 52.4213 217.128 50.3734 217.181 49.1158L214.184 48.9882C214.141 49.9866 213.864 51.8267 213.312 54.5898L216.253 55.1782ZM217.181 49.1144C217.23 47.948 217.255 46.9184 217.255 46.028H214.255C214.255 46.8656 214.231 47.852 214.184 48.9896L217.181 49.1144ZM217.255 46.028C217.255 45.0262 217.104 44.0764 216.712 43.2568L214.005 44.5512C214.141 44.8356 214.255 45.3018 214.255 46.028H217.255ZM216.712 43.2568C216.458 42.7267 216.064 42.277 215.525 41.9748C215.002 41.6809 214.43 41.576 213.883 41.576V44.576C214.055 44.576 214.09 44.6091 214.058 44.5912C214.042 44.5824 214.024 44.5687 214.01 44.5532C213.997 44.5385 213.997 44.5339 214.005 44.5512L216.712 43.2568ZM213.883 41.576C212.847 41.576 211.893 41.909 211.115 42.6091L213.122 44.8389C213.304 44.675 213.526 44.576 213.883 44.576V41.576ZM211.104 42.6195C209.864 43.7586 209.014 45.83 208.361 48.3937L211.268 49.1343C211.911 46.61 212.597 45.3214 213.133 44.8285L211.104 42.6195ZM226.841 65L225.366 64.7261L225.037 66.5H226.841V65ZM231.233 41.348L231.067 39.8572L229.962 39.9801L229.758 41.0741L231.233 41.348ZM247.613 42.464L248.41 41.1931V41.1931L247.613 42.464ZM248.441 51.968L247.287 51.0099L247.282 51.0164L247.276 51.0229L248.441 51.968ZM244.193 54.488L243.862 53.0251L242.429 53.3498L242.724 54.789L244.193 54.488ZM246.209 59.888L247.512 59.1438L247.506 59.1334L246.209 59.888ZM249.017 62.876L250.43 63.3805L250.886 62.1043L249.662 61.5217L249.017 62.876ZM247.361 65.036L246.608 63.7388L246.583 63.7533L246.559 63.7688L247.361 65.036ZM241.925 64.82L241.014 66.0115L241.025 66.0201L241.037 66.0285L241.925 64.82ZM239.729 62.192L238.42 62.9237L238.424 62.9315L238.428 62.9392L239.729 62.192ZM237.461 52.724V51.224H235.904L235.962 52.7799L237.461 52.724ZM237.713 52.724V54.224H237.733L237.754 54.2235L237.713 52.724ZM241.709 51.284L242.784 52.3304L242.791 52.3235L242.797 52.3164L241.709 51.284ZM239.981 43.184L240.052 41.6857L240.016 41.684H239.981V43.184ZM238.685 43.22L238.391 41.7491L237.4 41.9473L237.212 42.9399L238.685 43.22ZM234.545 65V66.5H235.787L236.019 65.2801L234.545 65ZM228.316 65.2739L232.708 41.6219L229.758 41.0741L225.366 64.7261L228.316 65.2739ZM231.399 42.8388C233.702 42.583 236.558 42.452 239.981 42.452V39.452C236.492 39.452 233.517 39.585 231.067 39.8572L231.399 42.8388ZM239.981 42.452C243.38 42.452 245.574 42.9561 246.816 43.7349L248.41 41.1931C246.436 39.9559 243.542 39.452 239.981 39.452V42.452ZM246.816 43.7349C247.949 44.4448 248.525 45.466 248.525 47.036H251.525C251.525 44.526 250.493 42.4992 248.41 41.1931L246.816 43.7349ZM248.525 47.036C248.525 48.7816 248.073 50.0626 247.287 51.0099L249.595 52.9261C250.921 51.3294 251.525 49.3223 251.525 47.036H248.525ZM247.276 51.0229C246.483 52.0009 245.377 52.6815 243.862 53.0251L244.525 55.9509C246.609 55.4785 248.335 54.4791 249.606 52.9131L247.276 51.0229ZM242.724 54.789C243.161 56.9258 243.888 58.8813 244.913 60.6426L247.506 59.1334C246.659 57.6787 246.041 56.0342 245.663 54.187L242.724 54.789ZM244.907 60.6322C245.844 62.2719 246.973 63.5639 248.372 64.2303L249.662 61.5217C249.046 61.2281 248.303 60.5281 247.511 59.1438L244.907 60.6322ZM247.605 62.3715C247.334 63.1298 246.976 63.5251 246.608 63.7388L248.114 66.3332C249.234 65.6829 249.981 64.6382 250.43 63.3805L247.605 62.3715ZM246.559 63.7688C246.13 64.0401 245.537 64.22 244.697 64.22V67.22C245.969 67.22 247.152 66.9439 248.164 66.3032L246.559 63.7688ZM244.697 64.22C243.978 64.22 243.367 64.0183 242.814 63.6115L241.037 66.0285C242.115 66.8217 243.352 67.22 244.697 67.22V64.22ZM242.836 63.6285C242.214 63.1528 241.604 62.4445 241.03 61.4448L238.428 62.9392C239.15 64.1954 240.004 65.2392 241.014 66.0115L242.836 63.6285ZM241.039 61.4603C239.822 59.2827 239.098 56.38 238.96 52.6681L235.962 52.7799C236.112 56.796 236.901 60.2053 238.42 62.9237L241.039 61.4603ZM237.461 54.224H237.713V51.224H237.461V54.224ZM237.754 54.2235C239.764 54.1691 241.531 53.6174 242.784 52.3304L240.634 50.2376C240.111 50.7746 239.214 51.1829 237.673 51.2245L237.754 54.2235ZM242.797 52.3164C244.057 50.9888 244.541 49.1016 244.541 46.964H241.541C241.541 48.7144 241.137 49.7072 240.621 50.2516L242.797 52.3164ZM244.541 46.964C244.541 45.5719 244.252 44.2584 243.442 43.2572C242.596 42.2119 241.38 41.7482 240.052 41.6857L239.911 44.6823C240.622 44.7158 240.936 44.9301 241.11 45.1448C241.32 45.4036 241.541 45.9321 241.541 46.964H244.541ZM239.981 41.684H239.189V44.684H239.981V41.684ZM239.189 41.684C238.937 41.684 238.654 41.6965 238.391 41.7491L238.979 44.6909C238.959 44.6949 238.965 44.6922 239.008 44.6892C239.048 44.6863 239.107 44.684 239.189 44.684V41.684ZM237.212 42.9399L233.072 64.7199L236.019 65.2801L240.159 43.5001L237.212 42.9399ZM234.545 63.5H226.841V66.5H234.545V63.5ZM255.413 60.752L254.553 59.5232L254.543 59.53L254.533 59.5371L255.413 60.752ZM260.417 60.752L259.452 61.9006L259.463 61.9098L259.475 61.9189L260.417 60.752ZM260.309 65L261.181 66.2206L261.189 66.2149L260.309 65ZM255.305 65L254.363 66.1669L254.387 66.1866L254.412 66.2053L255.305 65ZM261.641 47.756L262.036 49.2031L263.801 48.7217L262.983 47.0852L261.641 47.756ZM256.529 47.324L257.264 46.0166L256.529 47.324ZM255.917 43.508L254.654 42.6994L254.642 42.7177L254.631 42.7363L255.917 43.508ZM257.681 41.96L258.399 43.2768L258.416 43.2675L258.433 43.2577L257.681 41.96ZM270.425 41.708L271.287 40.4804L270.425 41.708ZM269.057 50.348L268.137 49.1632L268.129 49.1699L268.12 49.1767L269.057 50.348ZM267.041 51.788L266.228 50.5275L266.224 50.5299L267.041 51.788ZM260.165 56.252L259.348 54.9939L259.341 54.9989L259.333 55.0039L260.165 56.252ZM258.761 58.556V60.056H260.261V58.556H258.761ZM259.085 50.924L259.874 52.1998L259.875 52.1992L259.085 50.924ZM263.153 48.404L262.385 47.1153L262.374 47.122L262.363 47.1288L263.153 48.404ZM265.745 45.632L267.081 46.3137L267.087 46.3028L265.745 45.632ZM262.181 43.724L261.045 42.7445L261.036 42.7551L262.181 43.724ZM261.353 45.884L259.854 45.8399L261.353 45.884ZM255.869 62.876C255.869 62.4104 256.014 62.1691 256.293 61.9669L254.533 59.5371C253.421 60.3429 252.869 61.5176 252.869 62.876H255.869ZM256.273 61.9809C256.705 61.6784 257.258 61.496 258.005 61.496V58.496C256.736 58.496 255.561 58.8176 254.553 59.5232L256.273 61.9809ZM258.005 61.496C258.763 61.496 259.192 61.6821 259.452 61.9006L261.382 59.6034C260.442 58.8139 259.263 58.496 258.005 58.496V61.496ZM259.475 61.9189C259.695 62.0969 259.853 62.3472 259.853 62.876H262.853C262.853 61.5808 262.387 60.4151 261.36 59.5851L259.475 61.9189ZM259.853 62.876C259.853 63.3416 259.708 63.5829 259.429 63.7851L261.189 66.2149C262.302 65.4091 262.853 64.2344 262.853 62.876H259.853ZM259.437 63.7794C259.071 64.0408 258.555 64.22 257.789 64.22V67.22C259.04 67.22 260.203 66.9192 261.181 66.2206L259.437 63.7794ZM257.789 64.22C257.021 64.22 256.529 64.0399 256.198 63.7947L254.412 66.2053C255.377 66.9201 256.541 67.22 257.789 67.22V64.22ZM256.248 63.8331C256.027 63.6551 255.869 63.4048 255.869 62.876H252.869C252.869 64.1712 253.335 65.3369 254.363 66.1669L256.248 63.8331ZM261.246 46.3089C260.917 46.3988 260.287 46.472 259.265 46.472V49.472C260.355 49.472 261.31 49.4012 262.036 49.2031L261.246 46.3089ZM259.265 46.472C258.416 46.472 257.767 46.2995 257.264 46.0166L255.794 48.6314C256.827 49.2125 258.003 49.472 259.265 49.472V46.472ZM257.264 46.0166C256.865 45.792 256.877 45.6527 256.877 45.56H253.877C253.877 46.9553 254.657 47.9921 255.794 48.6314L257.264 46.0166ZM256.877 45.56C256.877 45.0365 256.997 44.6242 257.203 44.2797L254.631 42.7363C254.117 43.5918 253.877 44.5475 253.877 45.56H256.877ZM257.18 44.3166C257.397 43.9785 257.771 43.6195 258.399 43.2768L256.963 40.6432C256.007 41.1645 255.205 41.8375 254.654 42.6994L257.18 44.3166ZM258.433 43.2577C259.775 42.4799 261.737 42.02 264.449 42.02V39.02C261.449 39.02 258.899 39.5201 256.929 40.6623L258.433 43.2577ZM264.449 42.02C267.266 42.02 268.843 42.43 269.563 42.9356L271.287 40.4804C269.751 39.402 267.344 39.02 264.449 39.02V42.02ZM269.563 42.9356C270.303 43.4553 270.617 44.0714 270.617 44.912H273.617C273.617 43.0646 272.803 41.5447 271.287 40.4804L269.563 42.9356ZM270.617 44.912C270.617 46.3684 269.918 47.7804 268.137 49.1632L269.977 51.5328C272.276 49.7476 273.617 47.5356 273.617 44.912H270.617ZM268.12 49.1767C267.565 49.6206 266.935 50.0711 266.228 50.5276L267.854 53.0484C268.635 52.5449 269.349 52.0354 269.994 51.5193L268.12 49.1767ZM266.224 50.5299L259.348 54.9939L260.982 57.5101L267.858 53.0461L266.224 50.5299ZM259.333 55.0039C258.091 55.8322 257.261 57.0224 257.261 58.556H260.261C260.261 58.2656 260.367 57.9198 260.997 57.5001L259.333 55.0039ZM258.761 57.056C258.577 57.056 258.427 57.0109 258.227 56.7484L255.839 58.5636C256.551 59.5011 257.553 60.056 258.761 60.056V57.056ZM258.227 56.7484C257.992 56.4392 257.849 56.0478 257.849 55.496H254.849C254.849 56.6242 255.162 57.6728 255.839 58.5636L258.227 56.7484ZM257.849 55.496C257.849 54.1643 258.43 53.0925 259.874 52.1998L258.296 49.6482C256.092 51.0115 254.849 52.9877 254.849 55.496H257.849ZM259.875 52.1992L263.943 49.6792L262.363 47.1288L258.295 49.6488L259.875 52.1992ZM263.921 49.6926C265.293 48.8751 266.353 47.7401 267.081 46.3137L264.409 44.9503C263.937 45.8759 263.269 46.5889 262.385 47.1153L263.921 49.6926ZM267.087 46.3028C267.395 45.687 267.533 45.0211 267.533 44.336H264.533C264.533 44.6109 264.479 44.809 264.403 44.9612L267.087 46.3028ZM267.533 44.336C267.533 43.5528 267.336 42.6899 266.68 42.0333C266.023 41.3768 265.16 41.18 264.377 41.18V44.18C264.533 44.18 264.607 44.2 264.627 44.2065C264.64 44.2107 264.604 44.1999 264.558 44.1547C264.513 44.1094 264.502 44.0734 264.507 44.0858C264.513 44.1055 264.533 44.1805 264.533 44.336H267.533ZM264.377 41.18C263.046 41.18 261.909 41.7419 261.045 42.7446L263.317 44.7034C263.653 44.3141 263.98 44.18 264.377 44.18V41.18ZM261.036 42.7551C260.289 43.638 259.888 44.6839 259.854 45.8399L262.852 45.9281C262.866 45.4521 263.017 45.058 263.326 44.6929L261.036 42.7551ZM259.854 45.8399C259.827 46.7537 259.921 47.6696 260.299 48.4268L262.983 47.0852C262.929 46.9784 262.831 46.6463 262.852 45.9281L259.854 45.8399Z" fill="white" mask="url(#path-1-outside-1_1484_1342)"/>
</g>
<defs>
<filter id="filter0_d_1484_1342" x="0.00292969" y="0.447998" width="276.114" height="71.272" filterUnits="userSpaceOnUse" color-interpolation-filters="sRGB">
<feFlood flood-opacity="0" result="BackgroundImageFix"/>
<feColorMatrix in="SourceAlpha" type="matrix" values="0 0 0 0 0 0 0 0 0 0 0 0 0 0 0 0 0 0 127 0" result="hardAlpha"/>
<feOffset dx="4" dy="6"/>
<feComposite in2="hardAlpha" operator="out"/>
<feColorMatrix type="matrix" values="0 0 0 0 0 0 0 0 0 0 0 0 0 0 0 0 0 0 0.25 0"/>
<feBlend mode="normal" in2="BackgroundImageFix" result="effect1_dropShadow_1484_1342"/>
<feBlend mode="normal" in="SourceGraphic" in2="effect1_dropShadow_1484_1342" result="shape"/>
</filter>
</defs>
</svg>
