<svg width="34" height="34" viewBox="0 0 34 34" fill="none" xmlns="http://www.w3.org/2000/svg">
<circle cx="17" cy="17" r="16.5" stroke="white"/>
<path d="M15.0866 10.7098C15.499 9.89281 16.2659 9.25217 17.0561 9.06442C17.3662 8.99077 18.9873 8.97694 19.88 9.0403L20.568 9.08907V10.2727V11.4562L19.6473 11.4855C18.6055 11.5185 18.2414 11.6464 17.925 12.09C17.7601 12.3211 17.7481 12.4142 17.726 13.6324L17.7023 14.9289H19.06H20.4176L20.4127 15.1732C20.4099 15.3075 20.3169 15.9531 20.206 16.6077L20.0043 17.798L18.8769 17.8102L17.7496 17.8225L17.73 21.4112L17.7105 25H16.1712H14.6319L14.6125 21.4112L14.5929 17.8225L14.4238 17.8131C14.3308 17.8079 13.7474 17.7995 13.1274 17.7943L12 17.7849V16.3569V14.9289H13.3153H14.6305L14.6316 13.5197C14.6328 11.941 14.7121 11.4518 15.0866 10.7098Z" fill="white"/>
</svg>
