<svg width="32" height="32" viewBox="0 0 32 32" fill="none" xmlns="http://www.w3.org/2000/svg">
<circle cx="16" cy="16" r="16" fill="white"/>
<path d="M14.0866 9.70977C14.499 8.89281 15.2659 8.25217 16.0561 8.06442C16.3662 7.99077 17.9873 7.97694 18.88 8.0403L19.568 8.08907V9.27266V10.4562L18.6473 10.4855C17.6055 10.5185 17.2414 10.6464 16.925 11.09C16.7601 11.3211 16.7481 11.4142 16.726 12.6324L16.7023 13.9289H18.06H19.4176L19.4127 14.1732C19.4099 14.3075 19.3169 14.9531 19.206 15.6077L19.0043 16.798L17.8769 16.8102L16.7496 16.8225L16.73 20.4112L16.7105 24H15.1712H13.6319L13.6125 20.4112L13.5929 16.8225L13.4238 16.8131C13.3308 16.8079 12.7474 16.7995 12.1274 16.7943L11 16.7849V15.3569V13.9289H12.3153H13.6305L13.6316 12.5197C13.6328 10.941 13.7121 10.4518 14.0866 9.70977Z" fill="black"/>
</svg>
