<svg width="34" height="34" viewBox="0 0 34 34" fill="none" xmlns="http://www.w3.org/2000/svg">
<circle cx="17" cy="17" r="16.5" stroke="white"/>
<path fill-rule="evenodd" clip-rule="evenodd" d="M9.14622 12.2793C9.55055 10.7112 10.9361 9.37563 12.4575 9.0876C12.6857 9.04446 14.7202 9.00556 16.9787 9.00124C21.5283 8.99261 21.7968 9.01601 22.7251 9.50205C23.7333 10.03 24.6106 11.1306 24.905 12.2367C25.0789 12.8901 25.0788 21.1017 24.905 21.755C24.4876 23.3233 23.1084 24.6234 21.5508 24.917C21.2856 24.967 19.4299 25.0007 16.9881 25C13.6104 24.999 12.777 24.9763 12.3408 24.8735C10.8233 24.5158 9.54051 23.2517 9.14182 21.721C8.95019 20.9851 8.95384 13.0254 9.14622 12.2793ZM21.9665 10.6714C22.4802 10.9238 23.0938 11.5256 23.3509 12.0295C23.6804 12.6755 23.7106 13.1573 23.683 17.3277L23.6567 21.3096L23.4161 21.8308C23.1056 22.5032 22.3977 23.1751 21.7411 23.4208C21.2813 23.5928 21.1791 23.596 16.9059 23.573C12.6324 23.55 12.5324 23.5458 12.1526 23.3702C11.6709 23.1476 11.0595 22.5922 10.7902 22.1327C10.3897 21.4493 10.3451 20.9436 10.3442 17.0788C10.3437 15.027 10.3796 13.2884 10.4287 12.986C10.6229 11.7893 11.3378 10.9307 12.4861 10.515C12.7258 10.4282 13.7025 10.4091 17.1446 10.4237L21.4998 10.4423L21.9665 10.6714ZM20.9392 13.5157C20.3128 13.2184 20.244 12.3245 20.8205 11.973C21.3221 11.6672 21.9115 11.8309 22.1547 12.3435C22.3228 12.6976 22.2647 13.0097 21.9724 13.324C21.6974 13.6196 21.3099 13.6915 20.9392 13.5157ZM12.731 16.4248C12.9813 14.6826 14.3404 13.1639 16.0121 12.7584C17.4602 12.4072 19.0192 12.8578 20.1067 13.942C21.8826 15.7127 21.8175 18.552 19.9626 20.2181C18.2119 21.7906 15.5952 21.7219 13.9508 20.0601C13.0112 19.1105 12.545 17.7209 12.731 16.4248ZM19.8615 16.5531C19.7266 15.6603 19.0966 14.8276 18.2379 14.4075C17.7629 14.1752 16.8484 14.0785 16.3468 14.2077C15.5408 14.4153 14.7223 15.1045 14.3871 15.858C14.2797 16.0994 14.1994 16.4876 14.1775 16.8715C14.0967 18.286 14.9812 19.462 16.398 19.8238C16.8559 19.9408 17.0184 19.9466 17.4758 19.8625C19.0835 19.5668 20.1032 18.1524 19.8615 16.5531Z" fill="white"/>
</svg>
