<svg width="32" height="32" viewBox="0 0 32 32" fill="none" xmlns="http://www.w3.org/2000/svg">
<circle cx="16" cy="16" r="16" fill="white"/>
<path fill-rule="evenodd" clip-rule="evenodd" d="M8.14622 11.2793C8.55055 9.71115 9.9361 8.37563 11.4575 8.0876C11.6857 8.04446 13.7202 8.00556 15.9787 8.00124C20.5283 7.99261 20.7968 8.01601 21.7251 8.50205C22.7333 9.02999 23.6106 10.1306 23.905 11.2367C24.0789 11.8901 24.0788 20.1017 23.905 20.755C23.4876 22.3233 22.1084 23.6234 20.5508 23.917C20.2856 23.967 18.4299 24.0007 15.9881 24C12.6104 23.999 11.777 23.9763 11.3408 23.8735C9.82328 23.5158 8.54051 22.2517 8.14182 20.721C7.95019 19.9851 7.95384 12.0254 8.14622 11.2793ZM20.9665 9.67141C21.4802 9.92377 22.0938 10.5256 22.3509 11.0295C22.6804 11.6755 22.7106 12.1573 22.683 16.3277L22.6567 20.3096L22.4161 20.8308C22.1056 21.5032 21.3977 22.1751 20.7411 22.4208C20.2813 22.5928 20.1791 22.596 15.9059 22.573C11.6324 22.55 11.5324 22.5458 11.1526 22.3702C10.6709 22.1476 10.0595 21.5922 9.79018 21.1327C9.38974 20.4493 9.34511 19.9436 9.3442 16.0788C9.3437 14.027 9.37962 12.2884 9.42865 11.986C9.62285 10.7893 10.3378 9.93066 11.4861 9.51496C11.7258 9.42819 12.7025 9.4091 16.1446 9.4237L20.4998 9.44229L20.9665 9.67141ZM19.9392 12.5157C19.3128 12.2184 19.244 11.3245 19.8205 10.973C20.3221 10.6672 20.9115 10.8309 21.1547 11.3435C21.3228 11.6976 21.2647 12.0097 20.9724 12.324C20.6974 12.6196 20.3099 12.6915 19.9392 12.5157ZM11.731 15.4248C11.9813 13.6826 13.3404 12.1639 15.0121 11.7584C16.4602 11.4072 18.0192 11.8578 19.1067 12.942C20.8826 14.7127 20.8175 17.552 18.9626 19.2181C17.2119 20.7906 14.5952 20.7219 12.9508 19.0601C12.0112 18.1105 11.545 16.7209 11.731 15.4248ZM18.8615 15.5531C18.7266 14.6603 18.0966 13.8276 17.2379 13.4075C16.7629 13.1752 15.8484 13.0785 15.3468 13.2077C14.5408 13.4153 13.7223 14.1045 13.3871 14.858C13.2797 15.0994 13.1994 15.4876 13.1775 15.8715C13.0967 17.286 13.9812 18.462 15.398 18.8238C15.8559 18.9408 16.0184 18.9466 16.4758 18.8625C18.0835 18.5668 19.1032 17.1524 18.8615 15.5531Z" fill="black"/>
</svg>
