<svg width="32" height="32" viewBox="0 0 32 32" fill="none" xmlns="http://www.w3.org/2000/svg">
<circle cx="16" cy="16" r="16" fill="white"/>
<path d="M8.32956 9.97255C7.68726 8.95975 8.01049 7.73399 9.06705 7.1755C9.44949 6.97337 10.018 6.94275 10.4733 7.09974C11.6413 7.50262 12.1301 8.97334 11.4274 9.97088C10.6645 11.054 9.01598 11.0549 8.32956 9.97255Z" fill="black"/>
<path d="M16.6676 13.5274C16.9762 13.135 17.7562 12.6196 18.3092 12.4428C18.9869 12.2261 20.6772 12.203 21.3448 12.4012C22.3849 12.7101 23.3632 13.6876 23.6945 14.7487C23.865 15.2953 23.8779 15.6066 23.8779 19.1684V23L22.3284 22.9747L20.7788 22.9493L20.7326 19.7072C20.6902 16.7377 20.6717 16.4421 20.5122 16.1918C20.033 15.4399 19.4848 15.1131 18.706 15.115C17.866 15.117 17.2502 15.4544 16.7742 16.1735L16.5234 16.5521L16.4771 19.7508L16.4309 22.9493L14.8813 22.9747L13.3318 23V17.6762V12.3525L14.8813 12.3778L16.4309 12.4032L16.4581 13.081L16.4855 13.7588L16.6676 13.5274Z" fill="black"/>
<path d="M8.33622 23V17.6785V12.3569H9.90964H11.483L11.4592 17.6531L11.4353 22.9493L9.88576 22.9747L8.33622 23Z" fill="black"/>
</svg>
