<svg width="100" height="64" viewBox="0 0 100 64" fill="none" xmlns="http://www.w3.org/2000/svg">
<path fill-rule="evenodd" clip-rule="evenodd" d="M29.1382 14.5049C28.652 14.1617 28.0957 13.9687 27.529 13.8231C25.4279 13.281 23.2901 12.9112 21.1671 12.4663C20.4166 12.3091 20.4258 12.3253 20.443 11.5556C20.4591 10.8691 20.5017 10.1711 20.2798 9.50776C19.5741 7.3894 18.6684 5.36119 17.5351 3.43698C17.1454 2.77594 16.6029 2.33678 15.8432 2.20388C15.5685 2.15649 15.288 2.1484 15.011 2.12182C14.1547 2.04208 13.2823 2.10218 12.4513 1.81788C11.6858 1.43997 10.9008 1.11292 10.0698 0.911829C9.97555 0.864447 9.88015 0.815908 9.7859 0.768525C9.38591 0.57206 8.99627 0.360571 8.71352 0H8.44226C8.13652 0.240381 7.83079 0.479606 7.52505 0.719987C7.12046 0.876003 6.82507 1.12101 6.80093 1.59715C6.79749 1.65724 6.7699 1.71965 6.74117 1.77628C6.36991 2.49511 6.1067 3.27519 5.53891 3.88308C5.46764 3.96051 5.41592 4.06336 5.38144 4.1639C5.33431 4.29796 5.33431 4.44936 5.46994 4.5291C5.71246 4.6724 5.75729 4.91278 5.79292 5.15201C5.84464 5.50218 5.89637 5.82461 6.20785 6.07424C6.43198 6.25221 6.37796 6.47642 6.14004 6.66017C6.00556 6.76533 5.86303 6.86126 5.732 6.9722C5.35615 7.29117 4.91709 7.52924 4.57112 7.88634C4.50101 7.87825 4.45273 7.91754 4.40331 7.95799C3.72977 8.52081 3.10795 9.1391 2.60337 9.85793C2.07235 10.6126 1.45398 11.269 0.670094 11.7579C0.460905 11.8885 0.273555 12.0791 0 12.0803V12.2444C0.11264 12.2063 0.22528 12.1762 0.344817 12.1889C0.436768 12.1982 0.565499 12.1392 0.604579 12.2675C0.643658 12.3993 0.494237 12.4016 0.431021 12.4651C0.350564 12.5449 0.129881 12.5275 0.196546 12.6963C0.262061 12.8638 0.45171 12.7702 0.587338 12.7737C0.635612 12.7749 0.688484 12.7379 0.73331 12.709C0.981578 12.5449 1.22295 12.3738 1.44823 12.1774C1.87695 11.8041 2.30797 11.4262 2.87922 11.284C3.21829 11.1985 3.34357 11.3129 3.27231 11.6515C3.21714 11.9208 3.28725 12.1543 3.42748 12.3727C3.49069 12.4709 3.57345 12.598 3.69069 12.5807C3.80333 12.5645 3.80218 12.4085 3.82402 12.3103C3.97689 11.633 4.1355 10.9547 4.25734 10.2705C4.31825 9.93073 4.45618 9.6788 4.75847 9.51931C5.30328 9.26969 5.85614 9.0374 6.3906 8.76697C6.82277 8.5497 7.26414 8.34283 7.63769 8.02387C8.00549 7.81931 8.01584 7.82047 8.33422 8.12094C8.48479 8.26309 8.63766 8.40409 8.78708 8.54854C8.87213 8.63175 8.94799 8.68954 8.98133 8.51272C9.02155 8.28736 9.1181 8.3775 9.20776 8.47342C9.4112 8.69416 9.41579 8.94725 9.2089 9.27084C8.76639 9.95963 8.38594 10.6865 8.21928 11.4874C8.09859 12.0687 7.62964 12.5957 7.94228 13.2649C8.02503 13.4394 8.12618 13.4995 8.26641 13.5318C8.44571 13.5734 8.42732 13.3966 8.4572 13.3007C8.50203 13.1643 8.52157 13.0199 8.54916 12.8777C8.59858 12.6304 8.63421 12.3773 8.76294 12.1531C9.00776 11.7232 9.16753 11.7163 9.4112 12.1265C9.42039 12.1415 9.42614 12.16 9.43648 12.1739C9.49051 12.2386 9.4997 12.3761 9.61234 12.3449C9.71579 12.3161 9.69165 12.1959 9.6905 12.108C9.6859 11.6642 9.65487 11.2228 9.58705 10.7836C9.53303 10.4335 9.55027 10.111 9.90773 9.91109C9.98474 9.86717 10.0445 9.79436 10.0686 9.70076C10.2491 9.63488 10.5192 9.81517 10.5813 9.5563C10.8525 9.80361 11.1364 10.0648 11.4249 10.3237C11.4675 10.3618 11.5376 10.4612 11.5606 10.4184C11.7491 10.0868 11.8088 10.4739 11.949 10.4727C12.0008 10.1156 12.218 10.3872 12.3778 10.3826C12.4329 10.0706 12.3019 9.76663 12.3582 9.41415C12.6031 9.80939 12.8237 10.163 13.0456 10.5236C13.1099 10.4647 13.1099 10.4277 13.0927 10.3953C12.6709 9.60252 12.4375 8.73345 12.0996 7.90714C11.9582 7.56275 11.9536 7.25996 12.2169 6.97798C12.3146 6.87281 12.4111 6.76418 12.5077 6.65786C12.6444 6.61047 12.7525 6.6879 12.8605 6.74916C13.6145 7.17791 14.3478 7.63903 15.0375 8.1637C15.7742 8.72652 16.034 9.49042 15.8156 10.3803C15.5581 11.4343 15.2271 12.4686 15.18 13.5642C15.1398 14.4991 15.2846 15.3809 15.8972 16.1136C16.2719 16.5632 16.3972 17.0474 16.3581 17.6206C16.3144 18.2632 16.1639 18.8895 16.1213 19.5309C16.0547 20.5237 16.0489 21.521 15.9121 22.5091C15.7604 23.6163 15.4443 24.6598 14.7926 25.5879C14.3754 26.1819 14.057 26.8314 13.7961 27.5097C13.2708 28.8815 12.9674 30.318 12.5525 31.7222C12.4318 32.1278 12.3582 32.552 12.1123 32.9091C11.9031 33.1032 11.6594 33.2257 11.3824 33.3032C11.0318 33.4014 10.8905 33.5805 10.8801 33.9226C10.8594 34.6703 10.7135 35.3949 10.5135 36.1114C10.4031 36.5055 10.3135 36.9008 10.3882 37.3145C10.4893 37.8635 10.6341 38.3916 11.0548 38.7961C11.2111 38.9463 11.3583 38.9648 11.4743 38.7637C11.7709 38.2483 12.0962 37.7444 12.2755 37.1689C12.5582 36.5229 12.7801 35.8514 13.1076 35.225C14.9558 31.7014 16.8018 28.1766 18.6431 24.6494C18.8063 24.3339 19.0293 24.0947 19.3155 23.889C21.643 22.2214 24.1015 20.7548 26.4992 19.1946C27.5037 18.5405 28.56 17.9615 29.4508 17.1398C29.6899 16.9191 29.8853 16.6764 29.9289 16.3447C30.0301 15.5739 29.7715 14.9533 29.1382 14.5049ZM23.882 17.9095C23.0027 18.6156 22.1234 19.3229 21.2166 19.9921C20.812 20.2902 20.3407 20.4069 19.8718 20.5283C19.6821 20.578 19.6178 20.4486 19.6557 20.2902C19.8706 19.4119 20.0775 18.5324 20.3223 17.6622C20.4511 17.2069 20.8361 17.0069 21.2786 16.9942C22.4223 16.9642 23.5659 16.9908 24.7073 17.0555C24.7303 17.0578 24.7532 17.0774 24.813 17.1063C24.4935 17.3837 24.1958 17.6564 23.882 17.9095Z" fill="white"/>
<path fill-rule="evenodd" clip-rule="evenodd" d="M34.4295 49.4102C34.3525 49.7211 34.2134 50.0042 34.0858 50.2943C34.0628 50.3475 34.0513 50.4295 33.9663 50.4191C33.864 50.4076 33.8778 50.3197 33.8697 50.2516C33.8192 49.7569 33.7732 49.2611 33.718 48.7665C33.6617 48.2626 33.5353 47.783 33.1479 47.4225C32.6962 47.0041 32.1491 46.996 31.5939 47.1093C30.6043 47.3115 29.8411 47.9021 29.1883 48.6359C27.5205 50.5104 26.5872 52.7501 26.1114 55.1863C25.9183 56.1744 26.1401 57.1694 26.3343 58.1471C26.7332 60.1696 27.6205 61.9609 28.8768 63.5788C28.9722 63.7013 29.0825 63.8238 29.1228 63.9902C29.017 64.0272 28.9756 63.9509 28.932 63.907C27.4538 62.4532 26.0585 60.9242 24.8827 59.208C23.9321 57.8201 23.4379 56.2657 23.2689 54.5946C23.2069 53.9821 23.0977 53.3765 23.008 52.7675C22.9965 52.6912 23.0057 52.5756 22.8919 52.5941C22.8034 52.6091 22.8517 52.7166 22.8436 52.7813C22.7563 53.4574 22.7368 54.145 22.8 54.8165C22.9103 56.0126 23.0126 57.211 23.1942 58.4002C23.3023 59.1156 23.3643 59.839 23.5632 60.5382C23.8034 61.39 24.2356 62.1573 24.6022 62.9536C24.6746 63.1084 24.7344 63.2702 24.7884 63.432C24.8057 63.484 24.8528 63.5603 24.7758 63.6031C24.7045 63.6435 24.6631 63.573 24.6172 63.5349C24.1045 63.1073 23.7068 62.5803 23.3482 62.0244C22.9655 61.4316 22.6299 60.811 22.4046 60.1372C22.2195 59.7547 22.0839 59.3513 21.9678 58.9422C21.7207 58.3228 21.5322 57.6849 21.3793 57.0342C21.1253 56.2703 20.9862 55.4798 20.838 54.6917C20.8092 54.5426 20.7885 54.3923 20.7518 54.1577C20.569 54.5772 20.5357 54.9505 20.515 55.318C20.4564 56.3605 20.6357 57.3821 20.8023 58.4048C20.9541 59.3444 21.1242 60.2759 21.4908 61.1577C21.5874 61.3911 21.7069 61.6153 21.8138 61.8453C21.8391 61.8985 21.9034 61.9609 21.8448 62.0152C21.7736 62.081 21.7092 62.0071 21.6586 61.9643C21.2839 61.6454 20.9885 61.2582 20.7437 60.8329C20.3311 60.1176 20.0242 59.356 19.807 58.5597C19.5254 57.8906 19.3886 57.181 19.215 56.4818C18.953 55.4278 18.8288 54.3519 18.676 53.2794C18.6081 52.7964 18.515 52.3179 18.4254 51.8394C18.3518 51.4431 18.4875 51.2547 18.8806 51.2755C19.23 51.2951 19.5771 51.3529 19.9242 51.3945C20.4437 51.4627 20.9667 51.4327 21.4885 51.4315C21.6632 51.3853 21.8391 51.3402 22.0138 51.294C22.1437 51.2293 22.2724 51.1657 22.4011 51.0998C23.0011 50.6607 23.3574 50.062 23.5678 49.3536C23.8114 48.5319 24.3425 47.998 25.1677 47.7276C26.5297 47.2826 27.9239 46.9336 29.2687 46.454C31.6779 45.593 33.2813 43.8965 33.9559 41.3783C34.0146 41.161 34.0203 40.931 34.0559 40.708C34.0697 40.6178 34.0307 40.5069 34.1502 40.4341C34.3433 40.6826 34.3146 40.983 34.3479 41.2604C34.526 42.7061 34.741 44.1496 34.7893 45.6092C34.8272 46.8897 34.7352 48.1598 34.4295 49.4102Z" fill="white"/>
<path fill-rule="evenodd" clip-rule="evenodd" d="M99.3408 62.1386C99.3307 62.216 99.3458 62.3027 99.2777 62.3905C99.0924 61.8912 99.0153 61.3689 98.8801 60.8696C98.4594 59.321 98.2942 57.7285 98.2 56.1129C98.1119 54.5955 97.8916 53.0942 97.6572 51.5965C97.0904 47.9884 96.2401 44.4729 95.0533 41.0683C93.492 36.5912 91.4169 32.4596 88.7749 28.7141C85.3538 23.8625 81.1105 20.347 76.0118 18.202C73.2237 17.0302 70.3654 16.1842 67.434 15.6642C66.9563 15.5786 66.4776 15.4908 65.9989 15.403C65.2607 15.3105 64.5216 15.2192 63.7825 15.1279C63.1977 15.0898 62.6118 15.0482 62.0269 15.0147C61.3078 14.9742 60.5898 14.9395 59.8697 14.9026C58.9784 14.9072 58.086 14.906 57.1947 14.9187C56.6398 14.9268 56.086 14.9546 55.5312 14.9731C55.2678 15.0828 54.9884 15.0378 54.72 15.0563C53.8747 15.1152 53.0324 15.1984 52.1932 15.3036C51.2608 15.4203 50.3344 15.596 49.406 15.7485C49.1376 15.7924 48.8702 15.8491 48.5768 15.8444C48.8542 15.5879 49.1316 15.3325 49.408 15.0748C49.8477 14.6656 50.2964 14.2716 50.721 13.844C51.3609 13.1979 51.8307 12.3924 52.2433 11.5465C52.4796 11.0634 52.7871 10.8565 53.2728 10.882C54.0249 10.9224 54.7801 10.8993 55.5342 10.9039C56.3865 10.8843 57.2387 10.8669 58.092 10.9282C58.5677 10.9629 59.0444 10.9767 59.5222 10.9975C59.6403 11.0022 59.7575 11.0079 59.8697 11.0518C60.5417 11.0599 61.2087 11.1686 61.8777 11.2321C62.4375 11.2853 62.9964 11.3639 63.5552 11.4332C63.6323 11.4436 63.7074 11.4679 63.7835 11.4864C64.5437 11.5661 65.2978 11.6967 66.0469 11.8712C67.2728 12.085 68.4816 12.4028 69.6824 12.7507C72.6278 13.6036 75.4861 14.7431 78.2091 16.3079C81.2307 18.046 83.9858 20.2198 86.4054 22.9519C87.7464 24.4669 88.8871 26.1716 90.0398 27.8704C91.8065 30.4788 93.3418 33.2513 94.6087 36.2225C96.3903 40.4037 97.6853 44.7757 98.4985 49.3394C98.8981 51.578 99.1835 53.8339 99.3237 56.1105C99.3988 57.3402 99.3858 58.5744 99.3978 59.8064C99.4059 60.5853 99.4439 61.3643 99.3408 62.1386Z" fill="white"/>
<path fill-rule="evenodd" clip-rule="evenodd" d="M36.8338 39.2574C36.7613 40.8869 36.5797 42.5049 36.1522 44.0847C36.0625 44.4163 35.9522 44.7422 35.8039 45.0543C35.7568 45.1537 35.7349 45.2808 35.5913 45.3328C35.5292 45.2195 35.5591 45.1017 35.5579 44.9919C35.5361 43.523 35.4671 42.0611 35.0717 40.6338C34.8844 39.9589 34.5947 39.3279 34.3005 38.6957C34.212 38.5802 34.1338 38.4577 34.0913 38.3167C33.9833 38.1826 33.8879 38.0393 33.8223 37.8787C33.6787 37.74 33.5925 37.5609 33.4982 37.3887C33.0994 36.9842 32.9339 36.53 33.0545 35.9429C33.2074 35.194 33.2867 34.4313 33.4005 33.6755C33.4109 33.605 33.4373 33.5356 33.4557 33.4663C33.5637 32.7775 33.6718 32.0887 33.7798 31.4C33.8706 30.8198 33.9614 30.2397 34.0522 29.6595C34.1338 29.1198 34.1821 28.5755 34.3212 28.0381C34.4338 28.0785 34.458 28.1537 34.4798 28.2322C35.5464 29.8329 36.097 31.6322 36.4671 33.4963C36.8452 35.3986 36.9188 37.3251 36.8338 39.2574Z" fill="white"/>
<path fill-rule="evenodd" clip-rule="evenodd" d="M54.4823 6.44346C54.3938 7.94006 53.826 9.27833 53.103 10.5623C52.7548 11.2545 52.3192 11.889 51.8111 12.4715C51.0318 13.455 50.1054 14.2697 49.0434 14.9319C48.6641 15.148 48.3101 15.4057 47.9205 15.6068C47.2182 15.9674 46.4803 16.1662 45.6895 16.1639C45.5286 16.1627 45.3665 16.1639 45.1585 16.0749C46.4274 15.0371 47.6814 14.0316 48.9813 13.0817C49.6848 12.5246 50.3192 11.9029 50.8123 11.1424C51.1525 10.6143 51.3962 10.0445 51.6134 9.45978C51.8111 8.76752 51.8847 8.04985 52.041 7.34951C52.064 7.24434 52.1192 7.11491 52.041 7.03979C51.9514 6.95196 51.8468 7.06983 51.7479 7.09526C51.6548 7.11837 51.5767 7.19349 51.4721 7.17847C50.9238 7.48588 50.3319 7.69275 49.7595 7.94468C49.3779 8.11341 48.9894 8.26712 48.6032 8.4266C48.0572 8.71552 47.4572 8.79526 46.8584 8.86576C45.8941 8.97901 44.9757 9.26678 44.0585 9.56379C43.8884 9.6181 43.7712 9.74061 43.6597 9.87582C42.4126 11.3805 41.2322 12.9372 40.0058 14.4581C38.584 16.224 37.0013 17.8327 35.2266 19.2461C35.1358 19.3177 35.0507 19.3998 34.914 19.4229C34.8898 19.2992 34.9645 19.216 35.0197 19.1305C36.899 16.1766 38.7771 13.2238 40.6598 10.2722C40.8103 10.0365 40.9919 9.82035 41.1494 9.58921C41.2712 9.40893 41.3758 9.22055 41.4161 9.00097C41.4988 8.55141 41.7724 8.29139 42.2057 8.17235C43.4643 7.82449 44.7355 7.52864 45.9803 7.12993C46.8216 6.86181 47.6446 6.54169 48.4756 6.24584C49.4307 5.8113 50.3859 5.37677 51.341 4.94223C51.8709 4.651 52.4203 4.40369 52.987 4.19335C53.1915 4.10321 53.3915 4.00151 53.6019 3.92293C53.9134 3.80736 54.0065 3.8559 54.1272 4.18526C54.3915 4.91334 54.5271 5.66684 54.4823 6.44346Z" fill="white"/>
<path fill-rule="evenodd" clip-rule="evenodd" d="M13.2302 26.2621C13.1348 27.0953 12.813 27.8673 12.5842 28.6636C12.4774 29.0346 12.3486 29.4009 12.2302 29.7696C12.0808 30.3705 11.9521 30.9772 11.7452 31.562C11.6647 31.7908 11.5601 32.0104 11.3682 32.1722C11.2464 32.3606 11.0636 32.4796 10.8774 32.5894C10.1441 33.0205 9.92456 33.5082 10.097 34.3611C10.2004 34.8765 10.1533 35.3688 9.89698 35.8346C9.81537 35.9825 9.71997 36.1258 9.53492 36.1212C9.33607 36.1165 9.28205 35.9409 9.22458 35.7883C9.07401 35.3896 8.88206 34.9666 8.90965 34.5633C8.93953 34.1357 9.0108 33.6919 9.10964 33.2609C9.35906 32.1757 9.84755 31.1841 10.2533 30.1602C10.4257 29.7233 10.6406 29.3027 10.7395 28.8381C10.7717 28.689 10.8291 28.5214 10.6981 28.4012C10.5682 28.2822 10.4085 28.3504 10.2636 28.3989C9.54641 28.6393 8.94643 29.0993 8.29473 29.4656C8.08324 29.5847 7.8775 29.7164 7.67291 29.8481C7.26487 30.1105 7.17867 30.3312 7.27407 30.8143C7.38096 31.3644 7.47636 31.9168 7.589 32.4669C7.63957 32.7154 7.66256 33.0748 7.50739 33.1465C7.32809 33.2297 7.10281 32.9604 6.94419 32.7755C6.33157 32.0566 5.87296 31.2558 5.66492 30.3231C5.56952 29.8978 5.68216 29.5153 5.92468 29.1675C6.10629 28.9051 6.33272 28.6821 6.59478 28.5018C8.04071 27.5125 9.53377 26.6042 11.1544 25.9223C11.2038 25.9015 11.2556 25.8853 11.3061 25.868C11.5693 25.749 11.8302 25.6253 12.1187 25.5768C12.2072 25.4993 12.3233 25.5144 12.4279 25.497C12.9934 25.3976 13.2969 25.6935 13.2302 26.2621Z" fill="white"/>
<path fill-rule="evenodd" clip-rule="evenodd" d="M99.4113 43.7015V44.1903C99.2681 44.195 99.273 44.0424 99.2379 43.9476C98.5657 42.0939 97.9022 40.2356 97.228 38.383C96.13 35.3679 94.7952 32.5053 93.2481 29.7837C93.2062 29.7085 93.1701 29.6288 93.1321 29.5514C92.5787 28.6546 92.0448 27.7416 91.4603 26.8725C90.7715 25.8486 90.071 24.8362 89.3013 23.8943C89.2643 23.8504 89.2419 23.7903 89.2126 23.7383C88.6768 23.105 88.1507 22.4601 87.6021 21.843C85.564 19.5524 83.3348 17.5612 80.9206 15.8635C80.8689 15.8265 80.8222 15.7803 80.7725 15.7399C79.9775 15.2429 79.2019 14.7032 78.3933 14.2352C75.3185 12.4543 72.0975 11.198 68.748 10.3914C66.5441 9.86093 64.3189 9.53387 62.0771 9.3767C60.8115 9.28887 59.543 9.24033 58.2755 9.26922C57.0937 9.29465 55.9099 9.34203 54.7301 9.45182C54.4417 9.47956 54.4349 9.468 54.5167 9.1525C54.6239 8.73761 54.7457 8.32735 54.8392 7.90783C54.9035 7.6166 55.0506 7.51028 55.2874 7.52184C56.173 7.5646 57.0586 7.59349 57.9423 7.64781C58.7041 7.69519 59.4651 7.768 60.2269 7.83503C61.4078 7.93788 62.5808 8.12048 63.7558 8.29036C65.1792 8.49839 66.6006 8.7249 68.0124 9.03578C70.9625 9.68527 73.8327 10.6583 76.6152 11.9874C77.7132 12.5121 78.7996 13.0783 79.8313 13.7694C80.184 14.0063 80.5659 14.1809 80.8952 14.4663C81.51 14.8327 82.0858 15.2776 82.6616 15.7214C85.0739 17.5832 87.2543 19.7755 89.2311 22.2567C89.2672 22.3018 89.2945 22.3573 89.3256 22.4081C89.957 23.142 90.5172 23.9533 91.0774 24.7634C91.848 25.8821 92.5797 27.0389 93.2695 28.2304C93.2909 28.2674 93.3065 28.3078 93.326 28.3471C93.9135 29.2983 94.4386 30.2979 94.9462 31.3091C96.4905 34.3879 97.796 37.6018 98.781 40.9926C99.0109 41.7807 99.1522 42.5978 99.3207 43.4068C99.3422 43.5062 99.3373 43.6217 99.4113 43.7015Z" fill="white"/>
<path fill-rule="evenodd" clip-rule="evenodd" d="M32.5313 41.7895C32.3841 42.0357 32.2554 42.2969 32.0543 42.5084C31.7393 43.0041 31.3497 43.4329 30.9037 43.8108C30.4244 44.2685 29.8877 44.6371 29.2808 44.8995C28.7015 45.2242 28.0624 45.3791 27.4291 45.5513C26.1786 45.8899 24.9878 46.3706 23.8637 47.0167C23.3005 47.3402 22.9385 47.8106 22.781 48.4428C22.7201 48.6889 22.635 48.927 22.5235 49.1558C22.2235 49.7718 21.7327 50.1162 21.0627 50.2375C20.019 50.4259 19.0156 50.1994 18.0087 49.9787C17.5007 49.8666 17.0754 49.6354 16.6927 49.2772C16.1387 48.7583 16.0203 48.1469 16.2007 47.4443C16.3582 46.8283 16.7295 46.3614 17.2398 46.0008C17.4352 45.8633 17.6087 45.9176 17.7789 46.0621C18.2421 46.455 18.7788 46.6746 19.3857 46.6838C20.2052 46.6965 20.8948 46.3822 21.458 45.7905C21.7707 45.4623 22.0638 45.1179 22.3281 44.7515C22.7546 44.1598 23.3373 43.7808 23.9867 43.4826C24.7568 43.1301 25.5177 42.7557 26.2878 42.4043C27.4107 41.8901 28.4015 41.2048 29.1681 40.2178C29.1992 40.1635 29.2268 40.1057 29.2624 40.056C29.5141 39.7024 29.5049 39.3545 29.2463 39.009C29.198 38.9443 29.1555 38.8749 29.1107 38.8079C28.5797 38.2035 28.013 37.6383 27.3682 37.153C25.9223 36.0655 24.3223 35.2646 22.6454 34.6105C22.2672 34.4637 21.8971 34.3007 21.5764 34.043C21.0155 33.5912 20.8247 32.9336 21.1052 32.2679C21.281 31.853 21.4971 31.4543 21.7086 31.0556C21.8396 30.8083 22.035 30.6881 22.3454 30.6962C23.5109 30.7251 24.574 31.0995 25.5821 31.6404C26.5981 32.1858 27.5751 32.7949 28.4509 33.5588C28.7279 33.7992 29.0268 34.0153 29.2831 34.2799C29.89 34.8185 30.4371 35.409 30.9095 36.0701C31.3301 36.5751 31.6922 37.1194 31.9922 37.7054C32.406 38.3849 32.7899 39.0841 32.9381 39.8734C33.0669 40.5553 32.8853 41.1967 32.5313 41.7895Z" fill="white"/>
<path fill-rule="evenodd" clip-rule="evenodd" d="M44.7084 1.06436C44.175 1.22846 43.6291 1.34518 43.1119 1.56245C42.2969 1.79359 41.5096 2.09753 40.7464 2.46272C39.951 2.8441 39.7419 3.89114 40.3143 4.5545C40.5602 4.83995 40.5625 4.90005 40.3407 5.20861C39.7614 6.01412 39.181 6.81963 38.6017 7.62398C38.112 8.29543 37.6201 8.96456 37.1327 9.63717C35.5006 11.8873 33.8685 14.1374 32.2386 16.3886C32.1007 16.5793 31.9421 16.7376 31.6984 16.7527C31.526 16.7631 31.3904 16.837 31.2536 16.9272C27.3767 19.4731 23.501 22.0179 19.6229 24.5616C19.3988 24.7084 19.2253 24.8967 19.1011 25.136C17.6299 27.9466 16.1564 30.756 14.6863 33.5678C14.6484 33.6406 14.5702 33.7145 14.6323 33.822C14.6645 33.8035 14.6978 33.7897 14.7242 33.7689C15.7943 32.8778 16.9012 32.0365 17.9966 31.1801C18.7655 30.5792 19.5965 30.1077 20.5344 29.8268C21.7217 29.4709 22.9194 29.5229 24.1205 29.7298C25.0756 29.8939 26.0135 30.1215 26.8423 30.6497C27.5572 31.105 28.2709 31.5673 28.9456 32.0793C30.1755 33.013 31.1249 34.208 31.9329 35.5197C31.9904 35.6122 32.0226 35.73 32.1398 35.7948C32.1616 35.7185 32.1869 35.6595 32.1961 35.5971C32.4352 33.9861 32.6731 32.3728 32.9099 30.7618C33.0375 29.8997 33.1765 29.0387 33.2834 28.1731C33.334 27.7593 33.4237 27.3514 33.4639 26.9388C33.5168 26.4026 33.6317 25.8767 33.6869 25.3405C33.7397 24.8158 33.8834 24.3004 33.9466 23.7757C34.011 23.2314 34.1018 22.6905 34.1731 22.1485C34.2662 21.4459 34.1949 20.7975 33.8156 20.207C33.6363 19.9273 33.6328 19.6788 33.7926 19.4119C33.9972 19.0686 34.2144 18.7347 34.4167 18.3914C35.1604 17.1306 35.9017 15.8674 36.642 14.6031C37.3661 13.3665 38.0856 12.1265 38.8074 10.8888C38.8545 10.824 38.9051 10.7616 38.9476 10.6923C39.8131 9.23153 40.6717 7.76497 41.5441 6.30766C42.0671 5.43281 42.5671 4.54063 43.2544 3.77673C43.4693 3.59876 43.6659 3.39073 43.9026 3.24858C44.2452 3.04172 44.4233 2.73662 44.5578 2.38298C44.7038 1.9993 44.7762 1.59943 44.8428 1.19726C44.8612 1.07129 44.8463 1.0216 44.7084 1.06436ZM30.9582 25.6167C30.9375 25.6826 30.9237 25.7577 30.8122 25.7889C30.826 25.6468 30.8387 25.5185 30.849 25.3879C30.9318 24.2831 30.8306 23.1805 30.8019 22.0769C30.7962 21.8769 30.6835 21.8018 30.4973 21.8342C30.2755 21.8735 30.064 21.9405 29.8629 22.0526C27.4848 23.3851 25.1492 24.7846 22.9274 26.3714C22.8263 26.443 22.7274 26.532 22.5976 26.5482C22.4125 26.5736 22.07 26.3864 22.0125 26.2223C21.9309 25.9888 22.0723 25.8317 22.2367 25.7184C24.4228 24.2311 26.6216 22.761 29.0721 21.7325C29.4778 21.5614 29.9042 21.4389 30.3261 21.313C30.9467 21.1269 31.2548 21.3303 31.3421 21.9706C31.5088 23.2187 31.3272 24.4275 30.9582 25.6167Z" fill="white"/>
<path fill-rule="evenodd" clip-rule="evenodd" d="M22.9402 35.7528C22.8919 35.8672 22.7655 35.8452 22.6563 35.8244C22.2621 35.7528 21.8598 35.7216 21.4724 35.6083C20.7529 35.5378 20.0598 35.339 19.3553 35.1888C18.5438 35.0178 17.9381 35.2824 17.5254 35.9978C17.2139 36.5375 16.9185 37.0876 16.6105 37.6296C16.5737 37.6955 16.5461 37.8087 16.4599 37.7995C16.3645 37.7902 16.3381 37.6735 16.3071 37.5926C16.1496 37.1916 16.1278 36.7617 16.0852 36.341C16.0393 35.8857 15.8921 35.5193 15.5002 35.2385C14.9002 34.8074 14.9083 34.3359 15.4807 33.869C15.9875 33.4564 16.568 33.1594 17.122 32.8208C18.1541 32.191 19.1943 31.5762 20.2334 30.9602C20.5115 30.7949 20.7931 30.6343 21.1552 30.6378C21.0724 30.9717 20.8977 31.2456 20.769 31.538C20.6633 31.7784 20.5437 32.0119 20.4414 32.2534C20.1794 32.8728 20.3024 33.4241 20.7679 33.8944C21.015 34.1441 21.2839 34.3717 21.5437 34.6087C21.9598 34.9034 22.3781 35.1969 22.7942 35.4928C22.885 35.5575 22.9873 35.6384 22.9402 35.7528Z" fill="white"/>
<path fill-rule="evenodd" clip-rule="evenodd" d="M35.3058 10.9961C35.0575 11.3139 34.8047 11.6294 34.5541 11.946C34.5047 12.0084 34.4656 12.0847 34.3736 12.094C34.3782 12.1853 34.315 12.2442 34.2656 12.3054C33.5116 13.2415 32.7553 14.1742 32.0013 15.1103C31.8289 15.3241 31.6174 15.4928 31.4048 15.6592C31.2553 15.7759 31.0795 15.8395 30.9002 15.7413C30.7358 15.6511 30.6761 15.4836 30.6887 15.301C30.7358 14.6399 30.3922 14.2297 29.8416 13.9488C28.8428 13.4392 27.7646 13.1976 26.6716 13.0069C26.513 12.9781 26.3543 12.9469 26.1946 12.9145C26.1704 12.9099 26.1498 12.8914 26.1061 12.8683C28.7922 11.857 31.5082 11.0458 34.3656 10.7984C34.7185 10.7603 35.0713 10.7071 35.4299 10.7337C35.4472 10.8574 35.3633 10.9221 35.3058 10.9961Z" fill="white"/>
<path fill-rule="evenodd" clip-rule="evenodd" d="M15.9791 43.3788C15.8653 43.3776 15.7423 43.4019 15.6412 43.3175C15.4849 43.2967 15.3412 43.2366 15.209 43.1511C14.5159 42.8795 13.9401 42.4346 13.4378 41.896C12.7827 41.1922 12.1666 40.4572 11.9287 39.4876C11.8275 39.0727 11.87 38.6971 12.2206 38.4047C12.3355 38.3088 12.3976 38.2938 12.4643 38.4695C12.5528 38.7052 12.5401 38.9491 12.5781 39.1894C12.7171 40.0481 13.1907 40.7034 13.8332 41.2512C14.0872 41.4684 14.3562 41.6661 14.6228 41.8671C14.7067 41.9296 14.8079 42.0047 14.9182 41.933C15.0136 41.8706 15.0033 41.7574 14.9952 41.6591C14.9159 40.7311 14.8102 39.8031 14.7562 38.8739C14.7033 37.9714 14.4516 37.1138 14.27 36.2378C14.1826 35.8183 14.2343 35.3896 14.3309 34.9712C14.3596 34.8464 14.4171 34.6962 14.5447 34.6939C14.6631 34.6927 14.7665 34.8117 14.8044 34.9423C15.0044 35.6253 15.2711 36.2933 15.3481 37.0098C15.4527 37.5449 15.4458 38.0881 15.4274 38.6266C15.3941 39.5697 15.4469 40.5 15.7147 41.4095C15.8964 41.9561 16.1285 42.4877 16.2504 43.0529C16.3216 43.3776 16.3101 43.3845 15.9791 43.3788Z" fill="white"/>
<path fill-rule="evenodd" clip-rule="evenodd" d="M28.5621 39.7522C28.4816 39.892 28.3885 40.0203 28.2621 40.1232C27.6897 40.7807 26.9575 41.2314 26.2288 41.6787C24.9771 42.4472 23.6289 42.9985 22.222 43.4064C22.0577 43.4538 21.891 43.4966 21.7175 43.4873C21.5784 43.4804 21.4347 43.4573 21.3818 43.3093C21.3313 43.1649 21.4094 43.0459 21.5186 42.9522C21.7255 42.7766 21.945 42.6183 22.191 42.5015C23.7955 41.7411 25.0357 40.5496 26.1104 39.1616C26.2437 38.9906 26.3679 38.8091 26.5196 38.6566C27.0391 38.1319 27.9023 38.2325 28.2575 38.8496C28.6805 39.0507 28.7862 39.3616 28.5621 39.7522Z" fill="white"/>
<path fill-rule="evenodd" clip-rule="evenodd" d="M21.4332 45.0295C21.3171 45.0538 21.2711 44.9729 21.2148 44.9093C19.9447 44.1442 19.0712 43.0302 18.4494 41.6145C18.2666 42.0998 18.2287 42.5078 18.2172 42.9227C18.1931 43.7605 18.3574 44.5822 18.4206 45.4109C18.4252 45.4652 18.431 45.5183 18.4356 45.5726C18.4402 45.6293 18.4425 45.6859 18.377 45.7079C18.3115 45.731 18.2804 45.679 18.2494 45.6339C18.0747 45.3831 18.0046 45.0942 17.9425 44.8007C17.631 43.3225 17.5678 41.8433 17.854 40.3536C17.923 39.9977 18.0931 39.6926 18.2597 39.384C18.3241 39.265 18.4471 39.154 18.5528 39.1794C18.6804 39.2107 18.7195 39.3771 18.7172 39.5158C18.7034 40.0346 18.7551 40.5489 18.9022 41.0459C19.2183 42.1091 19.8034 42.9897 20.6849 43.6692C20.9022 43.8368 21.1436 43.9952 21.2217 44.2899C21.4297 44.4979 21.4148 44.7648 21.4332 45.0295Z" fill="white"/>
<path fill-rule="evenodd" clip-rule="evenodd" d="M14.5846 33.8804L14.5814 33.8647L14.5929 33.8668L14.5846 33.8804Z" fill="white"/>
<path d="M53.5731 33.1763C53.9472 33.1763 54.2207 33.2626 54.3937 33.4365C54.5238 33.5673 54.5734 33.7183 54.5452 33.8922C54.5305 34.0365 54.4983 34.1497 54.4487 34.2292C54.3977 34.3088 54.3441 34.3708 54.2864 34.414C54.214 34.4571 54.1309 34.5043 54.0384 34.5555C53.9445 34.6068 53.8399 34.6391 53.7246 34.6539C53.3505 34.6836 53.0474 34.7079 52.8168 34.7294C52.5862 34.751 52.3917 34.7659 52.2335 34.7726C52.0753 34.7807 51.9278 34.7874 51.791 34.7942C51.6542 34.8023 51.5 34.809 51.327 34.8157C51.1541 34.8238 50.9449 34.8373 50.7008 34.8589C50.4554 34.8805 50.139 34.9061 49.7501 34.9344C49.6777 35.3982 49.5879 36.0062 49.4806 36.7586C49.372 37.5122 49.254 38.4452 49.1239 39.5602C48.7203 42.761 48.4615 45.4386 48.3462 47.5971C48.3314 47.887 48.3381 48.2308 48.3676 48.6285C48.3971 49.0263 48.4468 49.4793 48.5192 49.9862C48.5339 50.0873 48.5044 50.1736 48.4334 50.2464C48.3757 50.3044 48.3033 50.3327 48.2161 50.3327H48.1719C47.9238 50.2896 47.6677 50.1952 47.4062 50.0509C47.3767 50.0361 47.3593 50.0253 47.3512 50.0186C47.3432 50.0105 47.3258 49.9997 47.2963 49.9862C46.9168 49.5521 46.7277 48.8281 46.7277 47.8142C46.7277 46.2502 46.8591 44.035 47.1219 41.1673C47.3848 38.3441 47.5162 36.5482 47.5162 35.7811C47.5162 35.6651 47.5121 35.5532 47.5054 35.444C47.4974 35.3348 47.4947 35.231 47.4947 35.1285C47.1152 35.1285 46.7237 35.1393 46.3201 35.1609C45.9151 35.1825 45.5115 35.2229 45.1092 35.2809C44.7056 35.3389 44.3248 35.4224 43.9641 35.5303C43.6034 35.6395 43.295 35.7797 43.0348 35.9537C42.8914 36.0548 42.819 36.1343 42.819 36.1923C42.819 36.222 42.8337 36.2651 42.8619 36.3231C42.89 36.3811 42.9986 36.4458 43.1864 36.5186C43.3446 36.5914 43.5565 36.6494 43.8233 36.6925C44.0901 36.7356 44.4026 36.7437 44.7633 36.7141C44.9363 36.6992 45.1588 36.6709 45.4324 36.6278C45.7059 36.5846 45.9647 36.5482 46.2101 36.5186C46.4542 36.4903 46.6687 36.4822 46.8497 36.497C47.0308 36.5118 47.1219 36.5698 47.1219 36.6709C47.1219 36.7289 47.1072 36.7869 47.0777 36.8448C46.902 37.1347 46.7103 37.3585 46.5011 37.5176C46.2919 37.6767 46.0653 37.7994 45.8199 37.887C45.6617 37.945 45.4954 37.9963 45.3238 38.0394C45.1508 38.0825 44.8558 38.1122 44.4388 38.1257C43.9198 38.1405 43.4773 38.1001 43.1099 38.0057C42.7425 37.9113 42.4368 37.7778 42.1914 37.6039C41.946 37.4017 41.7516 37.1549 41.6081 36.8651C41.4646 36.5752 41.4056 36.2206 41.4351 35.8013C41.4351 35.7002 41.4566 35.5667 41.4995 35.3995C41.5424 35.2337 41.6188 35.0625 41.7261 34.8885C41.8347 34.7146 41.9889 34.5515 42.1901 34.4005C42.3912 34.2481 42.6513 34.1295 42.9678 34.0418C43.299 33.9556 43.7737 33.8679 44.3932 33.7816C45.0127 33.6953 45.7328 33.6158 46.5534 33.543C46.8296 33.5282 47.0361 33.5147 47.1756 33.4998C47.3137 33.485 47.4344 33.4742 47.5363 33.4675C47.6382 33.4608 47.7401 33.4567 47.8433 33.4567C47.9453 33.4567 48.0941 33.4527 48.2899 33.4459C48.4856 33.4392 48.7565 33.4284 49.1025 33.4136C49.4484 33.3987 49.9084 33.3772 50.4849 33.3488C51.1903 33.3205 51.6985 33.2949 52.0082 33.2733C52.318 33.2518 52.5446 33.2342 52.6881 33.2194C52.8315 33.2046 52.9469 33.1938 53.034 33.1871C53.1185 33.179 53.2982 33.1763 53.5731 33.1763Z" fill="white"/>
<path d="M79.0299 45.7445C78.9427 45.2861 78.7912 44.7064 78.574 44.0296C78.3782 43.3959 78.2267 42.8391 78.1288 42.3806C78.0309 41.9222 77.9773 41.5393 77.9773 41.2225C77.9773 41.0701 78.0202 40.8396 78.0966 40.5349C78.1623 40.3057 78.1945 40.152 78.2159 40.0765C78.2267 39.9996 78.2374 39.9457 78.2374 39.912C78.2374 39.8581 78.2267 39.7812 78.1945 39.6936C78.173 39.6167 78.1288 39.5305 78.0644 39.4428C77.9987 39.3552 77.8901 39.2905 77.7386 39.2244C77.5978 39.1705 77.4127 39.1368 77.1848 39.1368C76.8804 39.1368 76.6417 39.2244 76.4674 39.3983C76.3038 39.5736 76.218 39.8136 76.218 40.1196C76.218 40.6441 76.1965 41.1349 76.1523 41.6054C76.1094 42.0746 76.0222 42.5114 75.9029 42.9267C75.8707 43.0575 75.8372 43.1882 75.805 43.3312C75.7285 43.6156 75.6535 43.8988 75.577 44.194C75.5448 44.314 75.5234 44.434 75.4899 44.5432C75.4362 44.7077 75.4027 44.8601 75.3598 44.9801C75.2941 45.2201 75.2405 45.3953 75.219 45.4937C75.1868 45.5922 75.1654 45.6582 75.1426 45.669V45.6906C74.9803 46.2043 74.8275 46.5966 74.6867 46.8811C74.5459 47.1656 74.4373 47.3732 74.3286 47.504C74.2308 47.6348 74.1543 47.7116 74.1007 47.744C74.0457 47.7763 74.0135 47.7871 74.0028 47.7871C73.9599 47.744 73.9049 47.6563 73.862 47.5363C73.8298 47.4271 73.8084 47.2748 73.7856 47.0672C73.7641 46.8595 73.7534 46.575 73.7534 46.2259C73.7534 44.9801 73.9492 43.3972 74.3514 41.4854C74.3943 41.3438 74.3514 41.2239 74.2106 41.1362C73.7333 40.8302 73.3632 40.6778 73.0923 40.6778C72.7665 40.6778 72.5493 40.7439 72.4514 40.8747C72.3428 41.0054 72.2663 41.1254 72.2449 41.2239V41.5191C72.2449 41.6068 72.2234 41.7591 72.1684 41.9883C72.1255 42.2175 72.0598 42.5343 71.9619 42.9172C71.8748 43.3109 71.7447 43.8233 71.5811 44.4462C71.3639 45.2659 71.1788 45.8659 71.038 46.2488C70.8972 46.6317 70.7779 46.8824 70.68 47.0024C70.68 46.9256 70.68 46.8393 70.6693 46.7409C70.6693 46.6425 70.6586 46.5117 70.6586 46.3364C70.6586 45.9211 70.68 45.4412 70.735 44.8736C70.7779 44.3167 70.8329 43.6831 70.9093 42.9847V42.9523C70.9093 42.3402 70.8329 41.8818 70.6814 41.5757C70.562 41.3142 70.4212 41.1497 70.2576 41.0728C70.1061 40.996 69.964 40.9529 69.8339 40.9529C69.6381 40.9529 69.4652 41.0068 69.323 41.1173C69.1822 41.2265 69.0508 41.3465 68.9543 41.5002C68.8564 41.6418 68.7799 41.7847 68.7156 41.9371C68.6619 42.0786 68.607 42.1878 68.5855 42.2647C68.434 42.6476 68.2704 43.1707 68.1189 43.8489C67.9674 44.5149 67.8038 45.3562 67.6187 46.3607C67.5865 46.4699 67.553 46.5791 67.5316 46.6775C67.4994 46.7759 67.4658 46.8744 67.4337 46.9836C67.4229 46.8312 67.4122 46.6775 67.4122 46.5144V46.0223C67.4122 45.3117 67.4658 44.7226 67.5758 44.2426C67.6951 43.6857 67.7608 43.0736 67.7608 42.4292C67.7608 42.1555 67.7287 41.9263 67.6522 41.7632C67.5865 41.5879 67.5114 41.4679 67.4136 41.3695C67.3264 41.2818 67.2178 41.2171 67.1092 41.1834C66.9898 41.151 66.8919 41.1403 66.7941 41.1403C66.5876 41.1403 66.4025 41.2171 66.251 41.3695C65.968 41.6755 65.8702 42.2863 65.9251 43.1936C65.9251 43.2368 65.9359 43.2705 65.9466 43.2813V43.2921C65.9466 43.3136 65.9359 43.3244 65.9359 43.3352C65.8594 43.6089 65.7951 43.7828 65.7616 43.8812C65.5993 44.2304 65.425 44.4489 65.2507 44.5257C65.0763 44.6026 64.9248 44.6349 64.784 44.6349C64.6754 44.6349 64.5883 44.6026 64.5118 44.5473C64.5118 43.8812 64.5011 43.346 64.4796 42.9092C64.4689 42.4831 64.4582 42.1447 64.4367 41.8939C64.426 41.6324 64.4045 41.4463 64.3831 41.3263C64.3616 41.2063 64.3402 41.1079 64.3295 41.0526C64.1551 40.5726 63.8078 40.1466 63.2755 39.7637C62.7432 39.3592 62.243 39.1624 61.7764 39.1624C61.6892 39.1624 61.5913 39.1732 61.4827 39.1947C61.3741 39.2163 61.2655 39.2716 61.1569 39.3471C61.059 39.4239 60.9504 39.5331 60.8525 39.6639C60.7546 39.8055 60.6782 39.9916 60.6352 40.2208C60.5588 40.5268 60.5052 40.7452 60.4717 40.8868C60.4502 41.0284 60.4287 41.1268 60.4059 41.1821C60.3188 41.2805 60.2544 41.4328 60.2209 41.662V41.8912C60.2209 41.9573 60.2316 42.0328 60.2531 42.1312V42.262C60.0466 42.742 59.938 43.5294 59.9058 44.6214C59.8843 44.6983 59.8629 44.7738 59.8401 44.8399C59.71 45.332 59.5679 45.7688 59.4056 46.1288C59.2541 46.4995 59.112 46.8056 58.9926 47.0577C58.8518 47.3638 58.7432 47.5485 58.6561 47.6361C58.5689 47.713 58.5153 47.7561 58.5045 47.7561C58.3745 47.7561 58.2659 47.6145 58.1894 47.3301C58.113 47.0456 58.0701 46.664 58.0701 46.1827C58.0701 44.7738 58.2766 42.9388 58.7003 40.7102L58.7218 40.5349L58.5917 40.4257C58.2337 40.1088 57.9615 39.912 57.7992 39.8473C57.6356 39.7704 57.5056 39.7381 57.3969 39.7381C57.2561 39.7381 57.1033 39.792 56.9625 39.9012C56.811 40.0104 56.6903 40.2396 56.6259 40.5996C56.5937 40.7749 56.5066 41.1457 56.3658 41.724C56.225 42.2917 56.0292 43.0669 55.7798 44.0619C55.6712 44.4772 55.5626 44.8587 55.4647 45.2093C55.3775 45.5585 55.2904 45.8753 55.2153 46.1598V46.1166C55.2046 46.0398 55.1938 45.9643 55.1831 45.8982C55.1831 45.8322 55.1724 45.7782 55.1724 45.7337C55.1724 45.6906 55.1724 45.6461 55.1616 45.6245C55.1616 44.5109 55.2488 43.1127 55.4218 41.4517C55.6068 39.7812 55.8777 37.8371 56.2371 35.5868C56.28 35.27 56.3671 34.9208 56.4972 34.5487C56.5951 34.2211 56.6487 33.9258 56.6487 33.6534C56.6487 33.2058 56.3993 32.9658 55.8884 32.9321H55.8227C55.5398 32.9321 55.3225 32.9982 55.171 33.1074C55.0302 33.2274 54.9323 33.3474 54.8774 33.4566L54.8559 33.5227V34.244C54.8559 34.6592 54.8023 35.3468 54.7151 36.3189C54.6172 37.2802 54.4872 38.5031 54.3128 39.9996C54.1278 41.5178 53.987 42.7406 53.8998 43.6588C53.8127 44.5756 53.7698 45.2201 53.7698 45.603C53.7698 47.0227 53.8677 48.0608 54.0742 48.7161C54.2807 49.3713 54.585 49.7097 55.0088 49.7097C55.171 49.7097 55.3453 49.6544 55.4982 49.5574L55.6068 49.4913L55.6283 49.3605C55.9005 48.1592 56.1392 47.1656 56.3229 46.3782C56.5079 45.603 56.6702 44.9585 56.8002 44.4448V45.9953L56.8217 46.3121V46.3337C56.996 48.2671 57.5927 49.2284 58.6359 49.2284C59.179 49.2284 59.6135 48.8239 59.9286 48.0271C59.9608 47.9395 60.0157 47.7871 60.0801 47.5687C60.1565 47.8748 60.2544 48.1471 60.363 48.3884C60.7103 49.1205 61.2534 49.4913 61.9815 49.4913C62.5675 49.4913 63.0677 49.1637 63.4592 48.5192C63.5464 48.3669 63.655 48.1592 63.7529 47.8963C63.8615 47.6456 63.9808 47.3071 64.1216 46.9135V46.8703C64.1645 46.6843 64.2088 46.5103 64.241 46.3458C64.2839 46.1814 64.3174 46.029 64.3496 45.8767C64.5668 45.9535 64.7076 46.0074 64.784 46.029C64.8605 46.0506 64.9248 46.0614 64.9691 46.0614C65.3928 46.0614 65.7723 45.8982 66.0981 45.5693C66.0874 45.7877 66.0874 45.9737 66.0767 46.1369C66.0659 46.4106 66.0659 46.629 66.0659 46.7921C66.0659 47.0982 66.0767 47.415 66.0981 47.7426C66.1196 48.0595 66.1746 48.3547 66.2496 48.6271C66.3261 48.8886 66.4347 49.1192 66.5648 49.2931C66.7056 49.4684 66.8906 49.5547 67.14 49.5547C67.781 49.5547 68.3026 48.8994 68.7156 47.5997C68.8564 47.1413 69.0964 46.0708 69.433 44.3774C69.4759 44.1158 69.5201 43.919 69.563 43.7761C69.5523 44.0269 69.5416 44.2898 69.5309 44.5621C69.5201 44.8358 69.5094 45.1297 69.4772 45.4358C69.3793 46.5386 69.3364 47.1939 69.3364 47.3907C69.3364 47.7615 69.3793 48.0676 69.4558 48.2968C69.5322 48.5367 69.6194 48.7228 69.7387 48.8644C69.858 49.0059 69.9774 49.0936 70.1195 49.1381C70.2496 49.1812 70.3917 49.2149 70.5325 49.2149C71.097 49.2149 71.5865 48.6689 71.9887 47.5768C72.0424 47.4676 72.0974 47.3031 72.1631 47.0847C72.2395 46.8555 72.3267 46.5818 72.4353 46.2434V46.7894C72.4353 46.811 72.4353 46.811 72.4567 46.811C72.631 48.4168 73.1513 49.2136 74.0095 49.2136C74.4989 49.2136 74.9334 48.8967 75.3236 48.2738C75.3893 48.4923 75.5194 48.6999 75.7259 48.9075C76.1818 49.4212 76.7034 49.672 77.2786 49.672C77.8324 49.672 78.2991 49.3875 78.6799 48.8199C79.0165 48.3278 79.1801 47.6833 79.1801 46.8865C79.1707 46.5966 79.1278 46.2137 79.0299 45.7445ZM62.9751 46.0937C62.9094 46.3782 62.7579 46.7705 62.53 47.2842C62.3999 47.5687 62.2913 47.7642 62.2256 47.8626C62.1599 47.961 62.1062 48.0258 62.074 48.0595C61.9225 48.0487 61.8018 47.961 61.716 47.7979C61.6181 47.6334 61.5417 47.4379 61.4988 47.1966C61.4452 46.9566 61.4009 46.7166 61.3902 46.4537C61.3794 46.1921 61.3687 45.9508 61.3687 45.7324C61.3687 45.3832 61.4009 44.9679 61.4559 44.4866C61.5216 43.9945 61.6074 43.4377 61.7388 42.7932C61.8152 42.3779 61.8796 42.0395 61.956 41.778C62.0217 41.5164 62.0861 41.3196 62.1411 41.1659C62.184 41.0243 62.239 40.9151 62.2712 40.8598C62.3141 40.7938 62.3369 40.7614 62.3583 40.7398C62.4777 40.7398 62.5755 40.7722 62.652 40.849C62.7284 40.9151 62.7606 41.0567 62.7606 41.2751V41.4719C62.7606 41.5488 62.7606 41.658 62.7391 41.778C62.7177 41.898 62.6962 42.0072 62.6962 42.1056V42.3564C62.6962 42.4332 62.707 42.564 62.7284 42.7501C62.7499 42.9253 62.8156 43.2637 62.9027 43.7545C62.9684 44.1145 63.0113 44.4313 63.0435 44.7266C63.0757 45.0111 63.0864 45.2726 63.0864 45.4803C63.0837 45.6016 63.0516 45.8092 62.9751 46.0937ZM77.4114 48.0163C77.3135 48.1808 77.2264 48.29 77.1177 48.3224C77.0198 48.3655 76.9327 48.3884 76.8576 48.3884C76.6726 48.3884 76.4768 48.1592 76.2596 47.7224C76.2488 47.4163 76.1831 47.2195 76.0531 47.1548C75.9873 47.1224 75.9444 47.0887 75.8895 47.0779C76.0638 46.6087 76.2368 46.1166 76.4003 45.603C76.4111 45.5706 76.4218 45.549 76.4218 45.5153C76.4218 45.5045 76.4325 45.5045 76.4325 45.4937C76.509 45.3953 76.5626 45.2753 76.6068 45.1661C76.6498 45.0461 76.694 44.9477 76.7262 44.8816V44.8601C76.7798 44.674 76.8348 44.4893 76.8777 44.3032C76.9313 44.1064 76.9756 43.9203 77.04 43.7356C77.0721 43.8341 77.0936 43.9217 77.1164 44.0201C77.1486 44.1293 77.17 44.217 77.2036 44.2938V44.3154C77.5079 45.3751 77.6595 46.2043 77.6595 46.7948C77.6608 47.3058 77.5736 47.7103 77.4114 48.0163Z" fill="white"/>
<path d="M87.1764 41.2991C86.872 41.2991 86.6762 41.5283 86.5904 41.9867C86.4496 42.6204 86.341 43.068 86.2538 43.3296C86.1666 43.6033 86.113 43.7772 86.0795 43.8756C85.9159 44.2248 85.7429 44.4432 85.5686 44.5201C85.3943 44.5969 85.232 44.6293 85.102 44.6293C84.9933 44.6293 84.8955 44.5969 84.819 44.5416C84.819 43.8756 84.819 43.3404 84.7976 42.9035C84.7868 42.4775 84.7654 42.1391 84.7547 41.8883C84.7439 41.6267 84.7225 41.4407 84.6997 41.3207C84.6782 41.2007 84.6568 41.1023 84.646 41.047C84.4717 40.567 84.1244 40.141 83.5921 39.7581C83.0598 39.3536 82.5596 39.1567 82.093 39.1567C81.9951 39.1567 81.8972 39.1675 81.7993 39.1891C81.6907 39.2107 81.5821 39.2659 81.4735 39.3415C81.3648 39.4183 81.2669 39.5275 81.1691 39.6583C81.0712 39.7999 80.9947 39.9859 80.9518 40.2151C80.8754 40.5212 80.8218 40.7396 80.7882 40.8811C80.7547 41.0227 80.7346 41.1211 80.7225 41.1764C80.6354 41.2748 80.571 41.4272 80.5375 41.6564V41.8856C80.5375 41.9517 80.5482 42.0272 80.5589 42.1256V42.2564C80.3203 42.8577 80.2009 43.9268 80.2009 45.4571C80.2009 46.746 80.3525 47.7181 80.6783 48.3841C81.0256 49.1162 81.5687 49.487 82.2968 49.487C82.8828 49.487 83.3829 49.1594 83.7745 48.5149C83.8616 48.3626 83.9595 48.1549 84.0681 47.892C84.1767 47.6413 84.2961 47.3028 84.4369 46.9092V46.866C84.4798 46.68 84.524 46.506 84.5562 46.3416C84.5991 46.1771 84.6326 46.0247 84.6648 45.8724C84.8713 45.9492 85.0228 46.0031 85.0993 46.0247C85.1757 46.0463 85.2293 46.0571 85.2843 46.0571C86.0232 46.0571 86.6199 45.5542 87.0664 44.5605C87.2944 44.0576 87.4579 43.5776 87.5666 43.1192C87.6752 42.6716 87.7301 42.2456 87.7301 41.8411C87.7301 41.4838 87.5451 41.2991 87.1764 41.2991ZM83.2984 46.0935C83.2327 46.378 83.0812 46.7703 82.8532 47.284C82.7232 47.5685 82.6146 47.764 82.5489 47.8624C82.4724 47.9608 82.4295 48.0255 82.3973 48.0592C82.2458 48.0484 82.1251 47.9608 82.0286 47.7977C81.9414 47.6332 81.865 47.4377 81.8114 47.1963C81.7577 46.9564 81.7242 46.7164 81.7135 46.4535C81.692 46.1919 81.692 45.9506 81.692 45.7321C81.692 45.3829 81.7242 44.9677 81.7792 44.4864C81.8449 43.9943 81.9307 43.4374 82.0514 42.793C82.1278 42.3777 82.2029 42.0393 82.2686 41.7777C82.345 41.5162 82.3987 41.3193 82.4537 41.1656C82.5073 41.0241 82.5515 40.9149 82.5945 40.8596C82.6266 40.7935 82.6602 40.7612 82.6709 40.7396C82.801 40.7396 82.8988 40.7719 82.9753 40.8488C83.0517 40.9149 83.0839 41.0564 83.0839 41.2748V41.4717C83.0839 41.5485 83.0839 41.6577 83.0624 41.7777C83.0302 41.8977 83.0195 42.0069 83.0195 42.1054V42.3561C83.0195 42.433 83.0303 42.5638 83.0517 42.7498C83.0732 42.9251 83.1281 43.2635 83.226 43.7543C83.2917 44.1142 83.3346 44.4311 83.3668 44.7263C83.3883 45.0108 83.4097 45.2724 83.4097 45.48C83.407 45.6014 83.3735 45.809 83.2984 46.0935Z" fill="white"/>
</svg>
