<svg width="100" height="64" viewBox="0 0 100 64" fill="none" xmlns="http://www.w3.org/2000/svg">
<path fill-rule="evenodd" clip-rule="evenodd" d="M29.1382 14.5049C28.652 14.1617 28.0957 13.9687 27.529 13.8231C25.4279 13.281 23.2901 12.9112 21.1671 12.4663C20.4166 12.3091 20.4258 12.3253 20.443 11.5556C20.4591 10.8691 20.5017 10.1711 20.2798 9.50776C19.5741 7.3894 18.6684 5.36119 17.5351 3.43698C17.1454 2.77594 16.6029 2.33678 15.8432 2.20388C15.5685 2.15649 15.288 2.1484 15.011 2.12182C14.1547 2.04208 13.2823 2.10218 12.4513 1.81788C11.6858 1.43997 10.9008 1.11292 10.0698 0.911829C9.97555 0.864447 9.88015 0.815908 9.7859 0.768525C9.38591 0.57206 8.99627 0.360571 8.71352 0H8.44226C8.13652 0.240381 7.83079 0.479606 7.52505 0.719987C7.12046 0.876003 6.82507 1.12101 6.80093 1.59715C6.79749 1.65724 6.7699 1.71965 6.74117 1.77628C6.36991 2.49511 6.1067 3.27519 5.53891 3.88308C5.46764 3.96051 5.41592 4.06336 5.38144 4.1639C5.33431 4.29796 5.33431 4.44936 5.46994 4.5291C5.71246 4.6724 5.75729 4.91278 5.79292 5.15201C5.84464 5.50218 5.89637 5.82461 6.20785 6.07424C6.43198 6.25221 6.37796 6.47642 6.14004 6.66017C6.00556 6.76533 5.86303 6.86126 5.732 6.9722C5.35615 7.29117 4.91709 7.52924 4.57112 7.88634C4.50101 7.87825 4.45273 7.91754 4.40331 7.95799C3.72977 8.52081 3.10795 9.1391 2.60337 9.85793C2.07235 10.6126 1.45398 11.269 0.670094 11.7579C0.460905 11.8885 0.273555 12.0791 0 12.0803V12.2444C0.11264 12.2063 0.22528 12.1762 0.344817 12.1889C0.436768 12.1982 0.565499 12.1392 0.604579 12.2675C0.643658 12.3993 0.494237 12.4016 0.431021 12.4651C0.350564 12.5449 0.129881 12.5275 0.196546 12.6963C0.262061 12.8638 0.45171 12.7702 0.587338 12.7737C0.635612 12.7749 0.688484 12.7379 0.73331 12.709C0.981578 12.5449 1.22295 12.3738 1.44823 12.1774C1.87695 11.8041 2.30797 11.4262 2.87922 11.284C3.21829 11.1985 3.34357 11.3129 3.27231 11.6515C3.21714 11.9208 3.28725 12.1543 3.42748 12.3727C3.49069 12.4709 3.57345 12.598 3.69069 12.5807C3.80333 12.5645 3.80218 12.4085 3.82402 12.3103C3.97689 11.633 4.1355 10.9547 4.25734 10.2705C4.31825 9.93073 4.45618 9.6788 4.75847 9.51931C5.30328 9.26969 5.85614 9.0374 6.3906 8.76697C6.82277 8.5497 7.26414 8.34283 7.63769 8.02387C8.00549 7.81931 8.01584 7.82047 8.33422 8.12094C8.48479 8.26309 8.63766 8.40408 8.78708 8.54854C8.87213 8.63175 8.94799 8.68954 8.98133 8.51272C9.02155 8.28736 9.1181 8.3775 9.20776 8.47343C9.4112 8.69416 9.41579 8.94725 9.2089 9.27084C8.76639 9.95963 8.38594 10.6865 8.21928 11.4874C8.09859 12.0687 7.62964 12.5957 7.94228 13.2649C8.02503 13.4394 8.12618 13.4995 8.26641 13.5318C8.44571 13.5734 8.42732 13.3966 8.4572 13.3007C8.50203 13.1643 8.52157 13.0199 8.54916 12.8777C8.59858 12.6304 8.63421 12.3773 8.76294 12.1531C9.00776 11.7232 9.16753 11.7163 9.4112 12.1265C9.42039 12.1415 9.42614 12.16 9.43648 12.1739C9.4905 12.2386 9.4997 12.3761 9.61234 12.3449C9.71578 12.3161 9.69165 12.1959 9.6905 12.108C9.6859 11.6642 9.65487 11.2228 9.58705 10.7836C9.53303 10.4335 9.55027 10.111 9.90773 9.91109C9.98474 9.86717 10.0445 9.79436 10.0686 9.70075C10.2491 9.63488 10.5192 9.81517 10.5813 9.5563C10.8525 9.80361 11.1364 10.0648 11.4249 10.3237C11.4675 10.3618 11.5376 10.4612 11.5606 10.4184C11.7491 10.0868 11.8088 10.4739 11.949 10.4727C12.0008 10.1156 12.218 10.3872 12.3778 10.3826C12.4329 10.0706 12.3019 9.76663 12.3582 9.41415C12.603 9.80939 12.8237 10.163 13.0456 10.5236C13.1099 10.4647 13.1099 10.4277 13.0927 10.3953C12.6709 9.60252 12.4375 8.73345 12.0996 7.90714C11.9582 7.56275 11.9536 7.25996 12.2169 6.97798C12.3146 6.87281 12.4111 6.76418 12.5077 6.65786C12.6444 6.61047 12.7525 6.6879 12.8605 6.74916C13.6145 7.17791 14.3478 7.63903 15.0375 8.1637C15.7742 8.72652 16.034 9.49042 15.8156 10.3803C15.5581 11.4343 15.2271 12.4686 15.18 13.5642C15.1398 14.4991 15.2846 15.3809 15.8972 16.1136C16.2719 16.5632 16.3972 17.0474 16.3581 17.6206C16.3144 18.2632 16.1639 18.8895 16.1213 19.5309C16.0547 20.5237 16.0489 21.521 15.9121 22.5091C15.7604 23.6163 15.4443 24.6598 14.7926 25.5878C14.3754 26.1819 14.057 26.8314 13.7961 27.5097C13.2708 28.8815 12.9674 30.318 12.5525 31.7222C12.4318 32.1278 12.3582 32.552 12.1123 32.9091C11.9031 33.1032 11.6594 33.2257 11.3824 33.3032C11.0318 33.4014 10.8905 33.5805 10.8801 33.9226C10.8594 34.6703 10.7135 35.3949 10.5135 36.1114C10.4031 36.5055 10.3135 36.9008 10.3882 37.3145C10.4893 37.8635 10.6341 38.3916 11.0548 38.7961C11.2111 38.9463 11.3583 38.9648 11.4743 38.7637C11.7709 38.2483 12.0962 37.7444 12.2755 37.1689C12.5582 36.5229 12.7801 35.8514 13.1076 35.225C14.9558 31.7014 16.8018 28.1766 18.6431 24.6494C18.8063 24.3339 19.0293 24.0947 19.3155 23.889C21.643 22.2214 24.1015 20.7548 26.4992 19.1946C27.5037 18.5405 28.56 17.9615 29.4508 17.1398C29.6899 16.9191 29.8853 16.6764 29.9289 16.3447C30.0301 15.5739 29.7715 14.9533 29.1382 14.5049ZM23.882 17.9095C23.0027 18.6156 22.1234 19.3229 21.2166 19.9921C20.812 20.2902 20.3407 20.4069 19.8718 20.5283C19.6821 20.578 19.6178 20.4486 19.6557 20.2902C19.8706 19.4119 20.0775 18.5324 20.3223 17.6622C20.4511 17.2069 20.8361 17.0069 21.2786 16.9942C22.4223 16.9642 23.5659 16.9908 24.7073 17.0555C24.7303 17.0578 24.7532 17.0774 24.813 17.1063C24.4935 17.3837 24.1958 17.6564 23.882 17.9095Z" fill="white"/>
<path fill-rule="evenodd" clip-rule="evenodd" d="M34.4295 49.4103C34.3525 49.7212 34.2134 50.0043 34.0858 50.2944C34.0628 50.3475 34.0513 50.4296 33.9663 50.4192C33.864 50.4076 33.8778 50.3198 33.8697 50.2516C33.8192 49.757 33.7732 49.2612 33.718 48.7666C33.6617 48.2627 33.5353 47.7831 33.1479 47.4225C32.6962 47.0042 32.1491 46.9961 31.5939 47.1093C30.6043 47.3116 29.8411 47.9021 29.1883 48.636C27.5205 50.5105 26.5872 52.7502 26.1114 55.1863C25.9183 56.1745 26.1401 57.1695 26.3343 58.1472C26.7332 60.1696 27.6205 61.9609 28.8768 63.5789C28.9722 63.7014 29.0825 63.8239 29.1228 63.9903C29.017 64.0273 28.9756 63.951 28.932 63.9071C27.4538 62.4532 26.0585 60.9243 24.8827 59.2081C23.9321 57.8201 23.4379 56.2658 23.2689 54.5946C23.2069 53.9821 23.0977 53.3766 23.008 52.7675C22.9965 52.6912 23.0057 52.5757 22.8919 52.5942C22.8034 52.6092 22.8517 52.7167 22.8436 52.7814C22.7563 53.4575 22.7368 54.1451 22.8 54.8165C22.9103 56.0127 23.0126 57.2111 23.1942 58.4003C23.3023 59.1156 23.3643 59.8391 23.5632 60.5383C23.8034 61.39 24.2356 62.1574 24.6022 62.9536C24.6746 63.1085 24.7344 63.2703 24.7884 63.4321C24.8057 63.4841 24.8528 63.5604 24.7758 63.6031C24.7045 63.6436 24.6631 63.5731 24.6172 63.535C24.1045 63.1074 23.7068 62.5804 23.3482 62.0245C22.9655 61.4316 22.6299 60.811 22.4046 60.1373C22.2195 59.7547 22.0839 59.3514 21.9678 58.9423C21.7207 58.3229 21.5322 57.6849 21.3793 57.0343C21.1253 56.2704 20.9862 55.4799 20.838 54.6917C20.8092 54.5426 20.7885 54.3924 20.7518 54.1578C20.569 54.5773 20.5357 54.9506 20.515 55.3181C20.4564 56.3605 20.6357 57.3821 20.8023 58.4049C20.9541 59.3445 21.1242 60.2759 21.4908 61.1577C21.5874 61.3912 21.7069 61.6154 21.8138 61.8454C21.8391 61.8985 21.9034 61.9609 21.8448 62.0152C21.7736 62.0811 21.7092 62.0071 21.6586 61.9644C21.2839 61.6454 20.9885 61.2583 20.7437 60.833C20.3311 60.1176 20.0242 59.356 19.807 58.5598C19.5254 57.8906 19.3886 57.181 19.215 56.4819C18.953 55.4279 18.8288 54.352 18.676 53.2795C18.6081 52.7964 18.515 52.318 18.4254 51.8395C18.3518 51.4431 18.4875 51.2547 18.8806 51.2755C19.23 51.2952 19.5771 51.353 19.9242 51.3946C20.4437 51.4628 20.9667 51.4327 21.4885 51.4316C21.6632 51.3853 21.8391 51.3403 22.0138 51.294C22.1437 51.2293 22.2724 51.1658 22.4011 51.0999C23.0011 50.6607 23.3574 50.0621 23.5678 49.3537C23.8114 48.532 24.3425 47.998 25.1677 47.7276C26.5297 47.2827 27.9239 46.9337 29.2687 46.4541C31.6779 45.5931 33.2813 43.8965 33.9559 41.3783C34.0146 41.1611 34.0203 40.9311 34.0559 40.708C34.0697 40.6179 34.0307 40.507 34.1502 40.4341C34.3433 40.6826 34.3146 40.9831 34.3479 41.2605C34.526 42.7062 34.741 44.1496 34.7893 45.6093C34.8272 46.8898 34.7352 48.1598 34.4295 49.4103Z" fill="white"/>
<path fill-rule="evenodd" clip-rule="evenodd" d="M99.3407 62.1387C99.3307 62.2161 99.3457 62.3028 99.2776 62.3906C99.0923 61.8914 99.0152 61.369 98.88 60.8698C98.4594 59.3212 98.2941 57.7286 98.2 56.113C98.1119 54.5956 97.8915 53.0944 97.6572 51.5966C97.0903 47.9886 96.2401 44.473 95.0533 41.0684C93.4919 36.5913 91.4168 32.4598 88.7749 28.7142C85.3538 23.8627 81.1104 20.3471 76.0118 18.2022C73.2236 17.0303 70.3653 16.1844 67.4339 15.6643C66.9562 15.5788 66.4775 15.491 65.9988 15.4031C65.2607 15.3107 64.5216 15.2194 63.7825 15.1281C63.1976 15.0899 62.6117 15.0483 62.0268 15.0148C61.3078 14.9744 60.5897 14.9397 59.8696 14.9027C58.9783 14.9073 58.086 14.9062 57.1946 14.9189C56.6398 14.927 56.086 14.9547 55.5311 14.9732C55.2677 15.083 54.9883 15.0379 54.7199 15.0564C53.8746 15.1154 53.0324 15.1986 52.1931 15.3037C51.2607 15.4205 50.3344 15.5961 49.406 15.7487C49.1376 15.7926 48.8702 15.8492 48.5767 15.8446C48.8541 15.588 49.1316 15.3326 49.408 15.0749C49.8476 14.6658 50.2963 14.2717 50.7209 13.8441C51.3609 13.1981 51.8306 12.3926 52.2432 11.5466C52.4796 11.0636 52.787 10.8567 53.2727 10.8821C54.0249 10.9226 54.78 10.8994 55.5341 10.9041C56.3864 10.8844 57.2387 10.8671 58.092 10.9283C58.5677 10.963 59.0444 10.9769 59.5221 10.9977C59.6403 11.0023 59.7575 11.0081 59.8696 11.052C60.5416 11.0601 61.2086 11.1687 61.8776 11.2323C62.4375 11.2854 62.9963 11.364 63.5551 11.4334C63.6323 11.4438 63.7074 11.468 63.7835 11.4865C64.5436 11.5663 65.2977 11.6969 66.0469 11.8714C67.2727 12.0852 68.4815 12.403 69.6823 12.7508C72.6277 13.6037 75.486 14.7432 78.2091 16.308C81.2306 18.0462 83.9857 20.22 86.4053 22.952C87.7463 24.4671 88.8871 26.1717 90.0398 27.8706C91.8064 30.4789 93.3417 33.2514 94.6086 36.2226C96.3903 40.4039 97.6852 44.7758 98.4984 49.3396C98.898 51.5781 99.1835 53.834 99.3237 56.1107C99.3988 57.3403 99.3858 58.5746 99.3978 59.8066C99.4058 60.5855 99.4438 61.3644 99.3407 62.1387Z" fill="white"/>
<path fill-rule="evenodd" clip-rule="evenodd" d="M36.8338 39.2572C36.7614 40.8868 36.5798 42.5047 36.1522 44.0845C36.0625 44.4162 35.9522 44.7421 35.8039 45.0541C35.7568 45.1535 35.735 45.2806 35.5913 45.3326C35.5292 45.2194 35.5591 45.1015 35.558 44.9917C35.5361 43.5229 35.4672 42.0609 35.0718 40.6337C34.8844 39.9587 34.5948 39.3277 34.3005 38.6956C34.212 38.58 34.1339 38.4575 34.0913 38.3165C33.9833 38.1825 33.8879 38.0392 33.8224 37.8785C33.6787 37.7398 33.5925 37.5607 33.4982 37.3885C33.0994 36.984 32.9339 36.5298 33.0546 35.9428C33.2074 35.1939 33.2868 34.4311 33.4005 33.6753C33.4109 33.6048 33.4373 33.5355 33.4557 33.4661C33.5638 32.7774 33.6718 32.0886 33.7798 31.3998C33.8706 30.8196 33.9614 30.2395 34.0523 29.6593C34.1339 29.1196 34.1821 28.5753 34.3212 28.0379C34.4338 28.0784 34.458 28.1535 34.4798 28.2321C35.5465 29.8327 36.097 31.6321 36.4671 33.4962C36.8453 35.3984 36.9188 37.325 36.8338 39.2572Z" fill="white"/>
<path fill-rule="evenodd" clip-rule="evenodd" d="M54.4824 6.44309C54.3939 7.93969 53.8261 9.27797 53.1031 10.5619C52.7548 11.2542 52.3192 11.8886 51.8112 12.4711C51.0319 13.4546 50.1055 14.2693 49.0435 14.9315C48.6642 15.1477 48.3102 15.4054 47.9205 15.6065C47.2182 15.967 46.4803 16.1658 45.6895 16.1635C45.5286 16.1623 45.3666 16.1635 45.1585 16.0745C46.4275 15.0367 47.6814 14.0313 48.9814 13.0813C49.6848 12.5243 50.3193 11.9025 50.8124 11.1421C51.1526 10.6139 51.3963 10.0442 51.6135 9.45941C51.8112 8.76716 51.8848 8.04948 52.0411 7.34914C52.0641 7.24398 52.1192 7.11454 52.0411 7.03942C51.9514 6.95159 51.8468 7.06947 51.748 7.09489C51.6549 7.11801 51.5767 7.19313 51.4721 7.1781C50.9239 7.48551 50.3319 7.69238 49.7595 7.94432C49.3779 8.11305 48.9894 8.26675 48.6032 8.42623C48.0573 8.71515 47.4573 8.79489 46.8585 8.86539C45.8941 8.97865 44.9758 9.26641 44.0586 9.56342C43.8885 9.61774 43.7712 9.74024 43.6597 9.87545C42.4126 11.3801 41.2322 12.9368 40.0058 14.4577C38.584 16.2236 37.0013 17.8323 35.2267 19.2457C35.1359 19.3173 35.0508 19.3994 34.914 19.4225C34.8899 19.2988 34.9646 19.2156 35.0198 19.1301C36.899 16.1762 38.7771 13.2235 40.6598 10.2719C40.8104 10.0361 40.992 9.81998 41.1495 9.58885C41.2713 9.40856 41.3759 9.22018 41.4161 9.00061C41.4989 8.55105 41.7724 8.29102 42.2058 8.17198C43.4643 7.82413 44.7356 7.52827 45.9803 7.12956C46.8217 6.86145 47.6447 6.54132 48.4757 6.24547C49.4308 5.81094 50.386 5.3764 51.3411 4.94187C51.871 4.65064 52.4204 4.40332 52.987 4.19299C53.1916 4.10284 53.3916 4.00115 53.6019 3.92256C53.9134 3.80699 54.0065 3.85553 54.1272 4.1849C54.3916 4.91297 54.5272 5.66648 54.4824 6.44309Z" fill="white"/>
<path fill-rule="evenodd" clip-rule="evenodd" d="M13.2303 26.2621C13.1349 27.0953 12.813 27.8673 12.5843 28.6636C12.4774 29.0346 12.3487 29.4009 12.2303 29.7696C12.0809 30.3705 11.9521 30.9772 11.7453 31.562C11.6648 31.7908 11.5602 32.0104 11.3683 32.1722C11.2464 32.3606 11.0637 32.4796 10.8775 32.5894C10.1442 33.0205 9.92462 33.5082 10.097 34.3611C10.2005 34.8765 10.1534 35.3688 9.89704 35.8346C9.81543 35.9825 9.72003 36.1258 9.53498 36.1212C9.33613 36.1165 9.28211 35.9409 9.22464 35.7883C9.07407 35.3896 8.88212 34.9666 8.90971 34.5633C8.93959 34.1357 9.01086 33.6919 9.1097 33.2609C9.35912 32.1757 9.84761 31.1841 10.2533 30.1602C10.4258 29.7233 10.6407 29.3027 10.7395 28.8381C10.7717 28.689 10.8292 28.5214 10.6982 28.4012C10.5683 28.2822 10.4085 28.3504 10.2637 28.3989C9.54647 28.6393 8.94649 29.0993 8.29479 29.4656C8.0833 29.5847 7.87756 29.7164 7.67297 29.8481C7.26493 30.1105 7.17873 30.3312 7.27413 30.8143C7.38102 31.3644 7.47642 31.9168 7.58906 32.4669C7.63963 32.7154 7.66262 33.0748 7.50746 33.1465C7.32815 33.2297 7.10287 32.9604 6.94425 32.7755C6.33163 32.0566 5.87302 31.2558 5.66498 30.3231C5.56958 29.8978 5.68222 29.5153 5.92475 29.1675C6.10635 28.9051 6.33278 28.6821 6.59484 28.5018C8.04077 27.5125 9.53383 26.6042 11.1545 25.9223C11.2039 25.9015 11.2556 25.8853 11.3062 25.868C11.5694 25.749 11.8303 25.6253 12.1188 25.5768C12.2073 25.4993 12.3234 25.5144 12.428 25.497C12.9935 25.3976 13.2969 25.6935 13.2303 26.2621Z" fill="white"/>
<path fill-rule="evenodd" clip-rule="evenodd" d="M99.4113 43.7015V44.1903C99.2681 44.1949 99.273 44.0424 99.2379 43.9476C98.5657 42.0939 97.9022 40.2356 97.228 38.383C96.13 35.3679 94.7952 32.5053 93.2481 29.7837C93.2062 29.7085 93.1701 29.6288 93.1321 29.5514C92.5787 28.6546 92.0448 27.7416 91.4603 26.8725C90.7715 25.8486 90.071 24.8362 89.3013 23.8943C89.2643 23.8504 89.2419 23.7903 89.2126 23.7383C88.6768 23.105 88.1507 22.4601 87.6021 21.843C85.564 19.5524 83.3348 17.5612 80.9206 15.8635C80.8689 15.8265 80.8222 15.7803 80.7725 15.7399C79.9775 15.2429 79.2019 14.7032 78.3933 14.2352C75.3185 12.4543 72.0975 11.198 68.748 10.3914C66.5441 9.86093 64.3189 9.53387 62.0771 9.3767C60.8115 9.28887 59.543 9.24033 58.2755 9.26922C57.0937 9.29465 55.9099 9.34203 54.7301 9.45182C54.4417 9.47956 54.4349 9.468 54.5167 9.1525C54.6239 8.73761 54.7457 8.32735 54.8392 7.90783C54.9035 7.6166 55.0506 7.51028 55.2874 7.52184C56.173 7.5646 57.0586 7.59349 57.9423 7.64781C58.7041 7.69519 59.4651 7.768 60.2269 7.83503C61.4078 7.93788 62.5808 8.12048 63.7558 8.29036C65.1792 8.49839 66.6006 8.7249 68.0124 9.03578C70.9625 9.68527 73.8327 10.6583 76.6152 11.9874C77.7132 12.5121 78.7996 13.0783 79.8313 13.7694C80.184 14.0063 80.5659 14.1809 80.8952 14.4663C81.51 14.8327 82.0858 15.2776 82.6616 15.7214C85.0739 17.5832 87.2543 19.7755 89.2311 22.2567C89.2672 22.3018 89.2945 22.3573 89.3256 22.4081C89.957 23.142 90.5172 23.9533 91.0774 24.7634C91.848 25.8821 92.5797 27.0389 93.2695 28.2304C93.2909 28.2674 93.3065 28.3078 93.326 28.3471C93.9135 29.2983 94.4386 30.2979 94.9462 31.3091C96.4905 34.3879 97.796 37.6018 98.781 40.9926C99.0109 41.7807 99.1522 42.5978 99.3207 43.4068C99.3422 43.5062 99.3373 43.6217 99.4113 43.7015Z" fill="white"/>
<path fill-rule="evenodd" clip-rule="evenodd" d="M32.5314 41.7894C32.3842 42.0355 32.2555 42.2967 32.0544 42.5082C31.7394 43.004 31.3498 43.4327 30.9038 43.8107C30.4245 44.2683 29.8878 44.637 29.2809 44.8993C28.7016 45.224 28.0625 45.3789 27.4292 45.5511C26.1787 45.8897 24.9879 46.3705 23.8638 47.0165C23.3006 47.3401 22.9386 47.8105 22.7811 48.4426C22.7202 48.6888 22.6351 48.9268 22.5236 49.1557C22.2236 49.7716 21.7328 50.116 21.0627 50.2374C20.0191 50.4258 19.0157 50.1992 18.0088 49.9785C17.5008 49.8664 17.0755 49.6353 16.6928 49.277C16.1388 48.7581 16.0204 48.1468 16.2008 47.4441C16.3583 46.8281 16.7296 46.3612 17.2399 46.0007C17.4353 45.8631 17.6088 45.9175 17.7789 46.0619C18.2421 46.4548 18.7789 46.6744 19.3858 46.6837C20.2053 46.6964 20.8949 46.382 21.4581 45.7903C21.7708 45.4621 22.0639 45.1177 22.3282 44.7514C22.7546 44.1597 23.3374 43.7806 23.9868 43.4824C24.7569 43.13 25.5178 42.7555 26.2879 42.4042C27.4108 41.8899 28.4016 41.2046 29.1682 40.2177C29.1993 40.1633 29.2269 40.1056 29.2625 40.0559C29.5142 39.7022 29.505 39.3544 29.2464 39.0088C29.1981 38.9441 29.1556 38.8748 29.1108 38.8077C28.5797 38.2033 28.0131 37.6382 27.3683 37.1528C25.9224 36.0653 24.3224 35.2644 22.6455 34.6103C22.2673 34.4635 21.8972 34.3006 21.5765 34.0429C21.0156 33.591 20.8248 32.9334 21.1053 32.2678C21.2811 31.8529 21.4972 31.4542 21.7087 31.0554C21.8397 30.8081 22.0351 30.6879 22.3455 30.696C23.5109 30.7249 24.5741 31.0994 25.5821 31.6402C26.5982 32.1857 27.5752 32.7947 28.451 33.5586C28.728 33.799 29.0269 34.0151 29.2832 34.2798C29.8901 34.8183 30.4372 35.4089 30.9096 36.0699C31.3302 36.575 31.6923 37.1193 31.9923 37.7052C32.4061 38.3848 32.79 39.0839 32.9382 39.8733C33.067 40.5551 32.8854 41.1965 32.5314 41.7894Z" fill="white"/>
<path fill-rule="evenodd" clip-rule="evenodd" d="M44.7084 1.06393C44.175 1.22803 43.6291 1.34476 43.1119 1.56202C42.2969 1.79316 41.5096 2.0971 40.7464 2.4623C39.951 2.84367 39.7419 3.89071 40.3143 4.55407C40.5602 4.83952 40.5625 4.89962 40.3407 5.20819C39.7614 6.01369 39.181 6.8192 38.6017 7.62355C38.112 8.295 37.6201 8.96414 37.1327 9.63674C35.5006 11.8868 33.8685 14.1369 32.2386 16.3882C32.1007 16.5789 31.9421 16.7372 31.6984 16.7522C31.526 16.7626 31.3904 16.8366 31.2536 16.9268C27.3767 19.4727 23.501 22.0175 19.6229 24.5612C19.3988 24.7079 19.2253 24.8963 19.1011 25.1355C17.6299 27.9461 16.1564 30.7556 14.6863 33.5673C14.6484 33.6402 14.5702 33.7141 14.6323 33.8216C14.6645 33.8031 14.6978 33.7892 14.7242 33.7684C15.7943 32.8774 16.9012 32.0361 17.9966 31.1797C18.7655 30.5788 19.5965 30.1072 20.5344 29.8264C21.7217 29.4705 22.9194 29.5225 24.1205 29.7293C25.0756 29.8934 26.0135 30.1211 26.8423 30.6493C27.5572 31.1046 28.2709 31.5669 28.9456 32.0788C30.1755 33.0126 31.1249 34.2076 31.9329 35.5193C31.9904 35.6117 32.0226 35.7296 32.1398 35.7943C32.1616 35.7181 32.1869 35.6591 32.1961 35.5967C32.4352 33.9857 32.6731 32.3724 32.9099 30.7614C33.0375 29.8992 33.1765 29.0382 33.2834 28.1726C33.334 27.7589 33.4237 27.351 33.4639 26.9384C33.5168 26.4021 33.6317 25.8763 33.6869 25.3401C33.7397 24.8154 33.8834 24.3 33.9466 23.7753C34.011 23.231 34.1018 22.6901 34.1731 22.1481C34.2662 21.4454 34.1949 20.7971 33.8156 20.2066C33.6363 19.9269 33.6328 19.6784 33.7926 19.4115C33.9972 19.0682 34.2144 18.7342 34.4167 18.391C35.1604 17.1301 35.9017 15.867 36.642 14.6027C37.3661 13.3661 38.0856 12.1261 38.8074 10.8883C38.8545 10.8236 38.9051 10.7612 38.9476 10.6919C39.8131 9.2311 40.6717 7.76454 41.5441 6.30723C42.0671 5.43239 42.5671 4.5402 43.2544 3.7763C43.4693 3.59833 43.6659 3.39031 43.9026 3.24816C44.2452 3.04129 44.4233 2.73619 44.5578 2.38256C44.7038 1.99887 44.7762 1.59901 44.8428 1.19683C44.8612 1.07086 44.8463 1.02117 44.7084 1.06393ZM30.9582 25.6163C30.9375 25.6822 30.9237 25.7573 30.8122 25.7885C30.826 25.6463 30.8387 25.5181 30.849 25.3875C30.9318 24.2826 30.8306 23.1801 30.8019 22.0764C30.7962 21.8765 30.6835 21.8014 30.4973 21.8338C30.2755 21.873 30.064 21.9401 29.8629 22.0522C27.4848 23.3847 25.1492 24.7842 22.9274 26.3709C22.8263 26.4426 22.7274 26.5316 22.5976 26.5478C22.4125 26.5732 22.07 26.386 22.0125 26.2219C21.9309 25.9884 22.0723 25.8312 22.2367 25.718C24.4228 24.2306 26.6216 22.7606 29.0721 21.7321C29.4778 21.561 29.9042 21.4385 30.3261 21.3125C30.9467 21.1265 31.2548 21.3299 31.3421 21.9701C31.5088 23.2183 31.3272 24.4271 30.9582 25.6163Z" fill="white"/>
<path fill-rule="evenodd" clip-rule="evenodd" d="M22.9402 35.7527C22.892 35.8671 22.7655 35.8452 22.6563 35.8244C22.2621 35.7527 21.8598 35.7215 21.4725 35.6083C20.7529 35.5378 20.0599 35.339 19.3553 35.1887C18.5438 35.0177 17.9381 35.2824 17.5255 35.9977C17.214 36.5374 16.9186 37.0875 16.6105 37.6295C16.5738 37.6954 16.5462 37.8087 16.46 37.7994C16.3646 37.7902 16.3381 37.6735 16.3071 37.5926C16.1496 37.1915 16.1278 36.7616 16.0853 36.341C16.0393 35.8856 15.8922 35.5193 15.5002 35.2384C14.9003 34.8074 14.9083 34.3359 15.4807 33.869C15.9876 33.4564 16.568 33.1594 17.122 32.8208C18.1542 32.1909 19.1944 31.5761 20.2334 30.9601C20.5116 30.7949 20.7932 30.6342 21.1552 30.6377C21.0725 30.9717 20.8978 31.2456 20.769 31.538C20.6633 31.7783 20.5438 32.0118 20.4415 32.2533C20.1794 32.8728 20.3024 33.424 20.7679 33.8944C21.015 34.144 21.284 34.3717 21.5437 34.6086C21.9598 34.9033 22.3782 35.1968 22.7943 35.4927C22.8851 35.5574 22.9874 35.6383 22.9402 35.7527Z" fill="white"/>
<path fill-rule="evenodd" clip-rule="evenodd" d="M35.3058 10.9959C35.0575 11.3137 34.8046 11.6292 34.5541 11.9458C34.5046 12.0082 34.4656 12.0845 34.3736 12.0937C34.3782 12.185 34.315 12.244 34.2656 12.3052C33.5116 13.2413 32.7553 14.174 32.0013 15.1101C31.8289 15.3239 31.6174 15.4926 31.4047 15.659C31.2553 15.7757 31.0795 15.8393 30.9002 15.7411C30.7358 15.6509 30.676 15.4834 30.6887 15.3008C30.7358 14.6397 30.3921 14.2294 29.8416 13.9486C28.8427 13.439 27.7646 13.1974 26.6715 13.0067C26.5129 12.9778 26.3543 12.9466 26.1946 12.9143C26.1704 12.9097 26.1497 12.8912 26.106 12.8681C28.7922 11.8568 31.5082 11.0455 34.3656 10.7982C34.7184 10.7601 35.0713 10.7069 35.4299 10.7335C35.4471 10.8572 35.3632 10.9219 35.3058 10.9959Z" fill="white"/>
<path fill-rule="evenodd" clip-rule="evenodd" d="M15.9791 43.3783C15.8653 43.3772 15.7424 43.4015 15.6412 43.3171C15.4849 43.2963 15.3412 43.2362 15.209 43.1507C14.516 42.8791 13.9401 42.4342 13.4378 41.8956C12.7827 41.1918 12.1666 40.4568 11.9287 39.4872C11.8275 39.0723 11.8701 38.6967 12.2206 38.4043C12.3356 38.3084 12.3976 38.2934 12.4643 38.469C12.5528 38.7048 12.5402 38.9486 12.5781 39.189C12.7172 40.0477 13.1907 40.703 13.8332 41.2507C14.0872 41.468 14.3562 41.6656 14.6229 41.8667C14.7068 41.9291 14.8079 42.0042 14.9183 41.9326C15.0137 41.8702 15.0033 41.7569 14.9953 41.6587C14.916 40.7307 14.8102 39.8027 14.7562 38.8735C14.7033 37.9709 14.4516 37.1134 14.27 36.2374C14.1826 35.8179 14.2344 35.3891 14.3309 34.9708C14.3597 34.846 14.4171 34.6957 14.5447 34.6934C14.6631 34.6923 14.7665 34.8113 14.8045 34.9419C15.0045 35.6249 15.2711 36.2929 15.3481 37.0094C15.4527 37.5445 15.4458 38.0877 15.4274 38.6262C15.3941 39.5692 15.447 40.4996 15.7148 41.4091C15.8964 41.9557 16.1286 42.4873 16.2504 43.0524C16.3217 43.3772 16.3102 43.3841 15.9791 43.3783Z" fill="white"/>
<path fill-rule="evenodd" clip-rule="evenodd" d="M28.5621 39.7522C28.4816 39.892 28.3885 40.0203 28.2621 40.1232C27.6897 40.7807 26.9575 41.2314 26.2288 41.6787C24.9771 42.4472 23.6289 42.9985 22.222 43.4064C22.0577 43.4538 21.891 43.4966 21.7175 43.4873C21.5784 43.4804 21.4347 43.4573 21.3818 43.3093C21.3313 43.1649 21.4094 43.0459 21.5186 42.9522C21.7255 42.7766 21.945 42.6183 22.191 42.5015C23.7955 41.7411 25.0357 40.5496 26.1104 39.1616C26.2437 38.9906 26.3679 38.8091 26.5196 38.6566C27.0391 38.1319 27.9023 38.2325 28.2575 38.8496C28.6805 39.0507 28.7862 39.3616 28.5621 39.7522Z" fill="white"/>
<path fill-rule="evenodd" clip-rule="evenodd" d="M21.4332 45.0293C21.3171 45.0535 21.2711 44.9726 21.2148 44.9091C19.9447 44.144 19.0712 43.0299 18.4494 41.6142C18.2666 42.0996 18.2287 42.5076 18.2172 42.9225C18.193 43.7603 18.3574 44.582 18.4206 45.4106C18.4252 45.465 18.431 45.5181 18.4356 45.5724C18.4402 45.6291 18.4425 45.6857 18.3769 45.7077C18.3114 45.7308 18.2804 45.6788 18.2494 45.6337C18.0746 45.3829 18.0045 45.094 17.9425 44.8004C17.631 43.3223 17.5678 41.8431 17.854 40.3534C17.9229 39.9975 18.093 39.6924 18.2597 39.3838C18.3241 39.2648 18.4471 39.1538 18.5528 39.1792C18.6804 39.2104 18.7195 39.3769 18.7172 39.5155C18.7034 40.0344 18.7551 40.5487 18.9022 41.0457C19.2183 42.1089 19.8033 42.9895 20.6849 43.669C20.9021 43.8366 21.1435 43.9949 21.2217 44.2896C21.4297 44.4977 21.4148 44.7646 21.4332 45.0293Z" fill="white"/>
<path fill-rule="evenodd" clip-rule="evenodd" d="M14.5846 33.8804L14.5815 33.8647L14.593 33.8668L14.5846 33.8804Z" fill="white"/>
<path d="M53.5731 33.1761C53.9472 33.1761 54.2207 33.2624 54.3937 33.4363C54.5238 33.5671 54.5734 33.7181 54.5452 33.892C54.5305 34.0363 54.4983 34.1496 54.4487 34.2291C54.3977 34.3086 54.3441 34.3707 54.2864 34.4138C54.214 34.457 54.1309 34.5041 54.0384 34.5554C53.9445 34.6066 53.8399 34.639 53.7246 34.6538C53.3505 34.6835 53.0474 34.7077 52.8168 34.7293C52.5862 34.7509 52.3917 34.7657 52.2335 34.7724C52.0753 34.7805 51.9278 34.7873 51.791 34.794C51.6542 34.8021 51.5 34.8088 51.327 34.8156C51.1541 34.8237 50.9449 34.8372 50.7008 34.8587C50.4554 34.8803 50.139 34.9059 49.7501 34.9342C49.6777 35.398 49.5879 36.0061 49.4806 36.7584C49.372 37.5121 49.254 38.4451 49.1239 39.5601C48.7203 42.7608 48.4615 45.4384 48.3462 47.597C48.3314 47.8868 48.3381 48.2306 48.3676 48.6284C48.3971 49.0261 48.4468 49.4791 48.5192 49.9861C48.5339 50.0872 48.5044 50.1735 48.4334 50.2463C48.3757 50.3042 48.3033 50.3326 48.2161 50.3326H48.1719C47.9238 50.2894 47.6677 50.195 47.4062 50.0508C47.3767 50.0359 47.3593 50.0252 47.3512 50.0184C47.3432 50.0103 47.3258 49.9995 47.2963 49.9861C46.9168 49.5519 46.7277 48.8279 46.7277 47.814C46.7277 46.2501 46.8591 44.0349 47.1219 41.1672C47.3848 38.3439 47.5162 36.5481 47.5162 35.7809C47.5162 35.665 47.5121 35.5531 47.5054 35.4439C47.4974 35.3347 47.4947 35.2308 47.4947 35.1284C47.1152 35.1284 46.7237 35.1392 46.3201 35.1607C45.9151 35.1823 45.5115 35.2228 45.1092 35.2807C44.7056 35.3387 44.3248 35.4223 43.9641 35.5302C43.6034 35.6394 43.295 35.7796 43.0348 35.9535C42.8914 36.0546 42.819 36.1342 42.819 36.1921C42.819 36.2218 42.8337 36.2649 42.8619 36.3229C42.89 36.3809 42.9986 36.4456 43.1864 36.5184C43.3446 36.5912 43.5565 36.6492 43.8233 36.6923C44.0901 36.7355 44.4026 36.7436 44.7633 36.7139C44.9363 36.6991 45.1588 36.6708 45.4324 36.6276C45.7059 36.5845 45.9647 36.5481 46.2101 36.5184C46.4542 36.4901 46.6687 36.482 46.8497 36.4968C47.0308 36.5117 47.1219 36.5697 47.1219 36.6708C47.1219 36.7287 47.1072 36.7867 47.0777 36.8447C46.902 37.1346 46.7103 37.3584 46.5011 37.5175C46.2919 37.6766 46.0653 37.7993 45.8199 37.8869C45.6617 37.9449 45.4954 37.9961 45.3238 38.0392C45.1508 38.0824 44.8558 38.112 44.4388 38.1255C43.9198 38.1404 43.4773 38.0999 43.1099 38.0055C42.7425 37.9112 42.4368 37.7777 42.1914 37.6038C41.946 37.4015 41.7516 37.1548 41.6081 36.8649C41.4646 36.575 41.4056 36.2205 41.4351 35.8012C41.4351 35.7 41.4566 35.5666 41.4995 35.3994C41.5424 35.2335 41.6188 35.0623 41.7261 34.8884C41.8347 34.7145 41.9889 34.5513 42.1901 34.4003C42.3912 34.248 42.6513 34.1293 42.9678 34.0417C43.299 33.9554 43.7737 33.8678 44.3932 33.7815C45.0127 33.6952 45.7328 33.6156 46.5534 33.5428C46.8296 33.528 47.0361 33.5145 47.1756 33.4997C47.3137 33.4849 47.4344 33.4741 47.5363 33.4673C47.6382 33.4606 47.7401 33.4566 47.8433 33.4566C47.9453 33.4566 48.0941 33.4525 48.2899 33.4458C48.4856 33.439 48.7565 33.4282 49.1025 33.4134C49.4484 33.3986 49.9084 33.377 50.4849 33.3487C51.1903 33.3204 51.6985 33.2948 52.0082 33.2732C52.318 33.2516 52.5446 33.2341 52.6881 33.2193C52.8315 33.2044 52.9469 33.1936 53.034 33.1869C53.1185 33.1788 53.2982 33.1761 53.5731 33.1761Z" fill="white"/>
<path d="M79.0299 45.7441C78.9428 45.2857 78.7912 44.7059 78.574 44.0291C78.3782 43.3955 78.2267 42.8386 78.1288 42.3802C78.0309 41.9218 77.9773 41.5389 77.9773 41.2221C77.9773 41.0697 78.0202 40.8392 78.0966 40.5345C78.1623 40.3053 78.1945 40.1516 78.216 40.0761C78.2267 39.9992 78.2374 39.9453 78.2374 39.9116C78.2374 39.8576 78.2267 39.7808 78.1945 39.6932C78.1731 39.6163 78.1288 39.53 78.0645 39.4424C77.9987 39.3548 77.8901 39.29 77.7386 39.224C77.5978 39.17 77.4128 39.1363 77.1848 39.1363C76.8804 39.1363 76.6417 39.224 76.4674 39.3979C76.3038 39.5732 76.218 39.8132 76.218 40.1192C76.218 40.6437 76.1966 41.1344 76.1523 41.605C76.1094 42.0742 76.0222 42.511 75.9029 42.9263C75.8707 43.057 75.8372 43.1878 75.805 43.3307C75.7286 43.6152 75.6535 43.8983 75.5771 44.1936C75.5449 44.3136 75.5234 44.4336 75.4899 44.5428C75.4363 44.7073 75.4027 44.8596 75.3598 44.9796C75.2941 45.2196 75.2405 45.3949 75.219 45.4933C75.1868 45.5917 75.1654 45.6578 75.1426 45.6686V45.6902C74.9804 46.2039 74.8275 46.5962 74.6867 46.8807C74.5459 47.1651 74.4373 47.3728 74.3287 47.5036C74.2308 47.6343 74.1544 47.7112 74.1007 47.7435C74.0457 47.7759 74.0136 47.7867 74.0028 47.7867C73.9599 47.7435 73.9049 47.6559 73.862 47.5359C73.8298 47.4267 73.8084 47.2744 73.7856 47.0667C73.7641 46.8591 73.7534 46.5746 73.7534 46.2254C73.7534 44.9796 73.9492 43.3968 74.3515 41.485C74.3944 41.3434 74.3515 41.2234 74.2107 41.1358C73.7333 40.8297 73.3632 40.6774 73.0923 40.6774C72.7665 40.6774 72.5493 40.7434 72.4514 40.8742C72.3428 41.005 72.2663 41.125 72.2449 41.2234V41.5187C72.2449 41.6063 72.2234 41.7587 72.1685 41.9879C72.1255 42.2171 72.0598 42.5339 71.962 42.9168C71.8748 43.3105 71.7447 43.8228 71.5811 44.4457C71.3639 45.2655 71.1789 45.8654 71.0381 46.2483C70.8973 46.6312 70.7779 46.882 70.68 47.002C70.68 46.9252 70.68 46.8389 70.6693 46.7405C70.6693 46.642 70.6586 46.5112 70.6586 46.336C70.6586 45.9207 70.68 45.4407 70.735 44.8731C70.7779 44.3163 70.8329 43.6826 70.9093 42.9842V42.9519C70.9093 42.3398 70.8329 41.8814 70.6814 41.5753C70.562 41.3138 70.4212 41.1493 70.2577 41.0724C70.1061 40.9956 69.964 40.9524 69.8339 40.9524C69.6382 40.9524 69.4652 41.0064 69.323 41.1169C69.1822 41.2261 69.0508 41.3461 68.9543 41.4998C68.8564 41.6414 68.78 41.7843 68.7156 41.9366C68.662 42.0782 68.607 42.1874 68.5855 42.2643C68.434 42.6472 68.2704 43.1703 68.1189 43.8485C67.9674 44.5145 67.8038 45.3558 67.6187 46.3602C67.5866 46.4695 67.553 46.5787 67.5316 46.6771C67.4994 46.7755 67.4659 46.8739 67.4337 46.9831C67.423 46.8308 67.4122 46.6771 67.4122 46.5139V46.0218C67.4122 45.3113 67.4659 44.7221 67.5758 44.2421C67.6952 43.6853 67.7609 43.0732 67.7609 42.4288C67.7609 42.1551 67.7287 41.9259 67.6523 41.7627C67.5866 41.5875 67.5115 41.4675 67.4136 41.369C67.3264 41.2814 67.2178 41.2167 67.1092 41.183C66.9899 41.1506 66.892 41.1398 66.7941 41.1398C66.5876 41.1398 66.4025 41.2167 66.251 41.369C65.9681 41.6751 65.8702 42.2858 65.9252 43.1932C65.9252 43.2364 65.9359 43.2701 65.9466 43.2808V43.2916C65.9466 43.3132 65.9359 43.324 65.9359 43.3348C65.8595 43.6085 65.7951 43.7824 65.7616 43.8808C65.5993 44.23 65.425 44.4484 65.2507 44.5253C65.0764 44.6021 64.9249 44.6345 64.7841 44.6345C64.6754 44.6345 64.5883 44.6021 64.5119 44.5469C64.5119 43.8808 64.5011 43.3456 64.4797 42.9087C64.4689 42.4827 64.4582 42.1443 64.4368 41.8935C64.426 41.6319 64.4046 41.4459 64.3831 41.3259C64.3617 41.2059 64.3402 41.1075 64.3295 41.0522C64.1552 40.5722 63.8079 40.1462 63.2755 39.7633C62.7432 39.3588 62.243 39.162 61.7764 39.162C61.6892 39.162 61.5913 39.1727 61.4827 39.1943C61.3741 39.2159 61.2655 39.2712 61.1569 39.3467C61.059 39.4235 60.9504 39.5327 60.8525 39.6635C60.7546 39.8051 60.6782 39.9911 60.6353 40.2203C60.5588 40.5264 60.5052 40.7448 60.4717 40.8864C60.4502 41.0279 60.4288 41.1264 60.406 41.1816C60.3188 41.2801 60.2545 41.4324 60.2209 41.6616V41.8908C60.2209 41.9569 60.2317 42.0324 60.2531 42.1308V42.2616C60.0466 42.7415 59.938 43.5289 59.9058 44.621C59.8844 44.6979 59.8629 44.7734 59.8401 44.8394C59.71 45.3315 59.5679 45.7684 59.4057 46.1283C59.2541 46.4991 59.112 46.8052 58.9927 47.0573C58.8519 47.3633 58.7432 47.5481 58.6561 47.6357C58.5689 47.7125 58.5153 47.7557 58.5046 47.7557C58.3745 47.7557 58.2659 47.6141 58.1895 47.3296C58.113 47.0452 58.0701 46.6636 58.0701 46.1823C58.0701 44.7734 58.2766 42.9384 58.7003 40.7097L58.7218 40.5345L58.5917 40.4253C58.2337 40.1084 57.9615 39.9116 57.7992 39.8469C57.6357 39.77 57.5056 39.7377 57.397 39.7377C57.2562 39.7377 57.1033 39.7916 56.9625 39.9008C56.811 40.01 56.6903 40.2392 56.6259 40.5992C56.5938 40.7745 56.5066 41.1452 56.3658 41.7236C56.225 42.2912 56.0292 43.0665 55.7798 44.0615C55.6712 44.4767 55.5626 44.8583 55.4647 45.2088C55.3776 45.558 55.2904 45.8749 55.2153 46.1594V46.1162C55.2046 46.0394 55.1939 45.9639 55.1831 45.8978C55.1831 45.8317 55.1724 45.7778 55.1724 45.7333C55.1724 45.6902 55.1724 45.6457 55.1617 45.6241C55.1617 44.5104 55.2488 43.1123 55.4218 41.4513C55.6069 39.7808 55.8777 37.8366 56.2371 35.5864C56.28 35.2696 56.3672 34.9204 56.4972 34.5482C56.5951 34.2206 56.6487 33.9254 56.6487 33.653C56.6487 33.2054 56.3993 32.9654 55.8884 32.9317H55.8227C55.5398 32.9317 55.3226 32.9978 55.1711 33.107C55.0303 33.227 54.9324 33.347 54.8774 33.4562L54.8559 33.5222V34.2435C54.8559 34.6588 54.8023 35.3464 54.7151 36.3185C54.6173 37.2798 54.4872 38.5027 54.3129 39.9992C54.1278 41.5173 53.987 42.7402 53.8999 43.6584C53.8127 44.5752 53.7698 45.2196 53.7698 45.6025C53.7698 47.0222 53.8677 48.0604 54.0742 48.7156C54.2807 49.3709 54.5851 49.7093 55.0088 49.7093C55.1711 49.7093 55.3454 49.654 55.4982 49.5569L55.6069 49.4909L55.6283 49.3601C55.9005 48.1588 56.1392 47.1651 56.3229 46.3778C56.5079 45.6025 56.6702 44.9581 56.8003 44.4444V45.9949L56.8217 46.3117V46.3333C56.996 48.2667 57.5927 49.228 58.636 49.228C59.179 49.228 59.6135 48.8235 59.9286 48.0267C59.9608 47.939 60.0158 47.7867 60.0801 47.5683C60.1566 47.8743 60.2545 48.1467 60.3631 48.388C60.7104 49.1201 61.2534 49.4909 61.9816 49.4909C62.5675 49.4909 63.0677 49.1633 63.4592 48.5188C63.5464 48.3664 63.655 48.1588 63.7529 47.8959C63.8615 47.6451 63.9808 47.3067 64.1216 46.913V46.8699C64.1646 46.6838 64.2088 46.5099 64.241 46.3454C64.2839 46.1809 64.3174 46.0286 64.3496 45.8762C64.5668 45.9531 64.7076 46.007 64.7841 46.0286C64.8605 46.0501 64.9248 46.0609 64.9691 46.0609C65.3928 46.0609 65.7723 45.8978 66.0982 45.5688C66.0874 45.7872 66.0874 45.9733 66.0767 46.1364C66.066 46.4101 66.066 46.6285 66.066 46.7917C66.066 47.0977 66.0767 47.4146 66.0982 47.7422C66.1196 48.059 66.1746 48.3543 66.2497 48.6267C66.3261 48.8882 66.4347 49.1188 66.5648 49.2927C66.7056 49.468 66.8906 49.5542 67.14 49.5542C67.781 49.5542 68.3026 48.899 68.7156 47.5993C68.8564 47.1409 69.0964 46.0704 69.433 44.377C69.4759 44.1154 69.5202 43.9186 69.5631 43.7757C69.5523 44.0264 69.5416 44.2893 69.5309 44.5617C69.5202 44.8354 69.5094 45.1293 69.4773 45.4353C69.3794 46.5382 69.3365 47.1935 69.3365 47.3903C69.3365 47.7611 69.3794 48.0671 69.4558 48.2963C69.5322 48.5363 69.6194 48.7224 69.7387 48.8639C69.8581 49.0055 69.9774 49.0931 70.1195 49.1376C70.2496 49.1808 70.3918 49.2145 70.5325 49.2145C71.0971 49.2145 71.5865 48.6684 71.9888 47.5764C72.0424 47.4672 72.0974 47.3027 72.1631 47.0843C72.2395 46.8551 72.3267 46.5814 72.4353 46.2429V46.789C72.4353 46.8106 72.4353 46.8106 72.4568 46.8106C72.6311 48.4163 73.1514 49.2131 74.0095 49.2131C74.499 49.2131 74.9334 48.8963 75.3236 48.2734C75.3893 48.4918 75.5194 48.6995 75.7259 48.9071C76.1818 49.4208 76.7034 49.6715 77.2787 49.6715C77.8325 49.6715 78.2991 49.3871 78.6799 48.8195C79.0165 48.3273 79.1801 47.6829 79.1801 46.8861C79.1707 46.5962 79.1278 46.2133 79.0299 45.7441ZM62.9752 46.0933C62.9095 46.3778 62.7579 46.7701 62.53 47.2838C62.3999 47.5683 62.2913 47.7638 62.2256 47.8622C62.1599 47.9606 62.1063 48.0253 62.0741 48.059C61.9226 48.0483 61.8019 47.9606 61.716 47.7975C61.6182 47.633 61.5417 47.4375 61.4988 47.1962C61.4452 46.9562 61.4009 46.7162 61.3902 46.4533C61.3795 46.1917 61.3688 45.9504 61.3688 45.732C61.3688 45.3828 61.4009 44.9675 61.4559 44.4862C61.5216 43.9941 61.6074 43.4372 61.7388 42.7928C61.8153 42.3775 61.8796 42.0391 61.9561 41.7776C62.0218 41.516 62.0861 41.3192 62.1411 41.1655C62.184 41.0239 62.239 40.9147 62.2712 40.8594C62.3141 40.7933 62.3369 40.761 62.3583 40.7394C62.4777 40.7394 62.5756 40.7718 62.652 40.8486C62.7284 40.9147 62.7606 41.0562 62.7606 41.2747V41.4715C62.7606 41.5484 62.7606 41.6576 62.7392 41.7776C62.7177 41.8975 62.6963 42.0068 62.6963 42.1052V42.356C62.6963 42.4328 62.707 42.5636 62.7284 42.7496C62.7499 42.9249 62.8156 43.2633 62.9028 43.7541C62.9685 44.1141 63.0114 44.4309 63.0436 44.7262C63.0757 45.0106 63.0865 45.2722 63.0865 45.4798C63.0838 45.6012 63.0516 45.8088 62.9752 46.0933ZM77.4114 48.0159C77.3135 48.1804 77.2264 48.2896 77.1178 48.3219C77.0199 48.3651 76.9327 48.388 76.8576 48.388C76.6726 48.388 76.4768 48.1588 76.2596 47.722C76.2489 47.4159 76.1832 47.2191 76.0531 47.1544C75.9874 47.122 75.9445 47.0883 75.8895 47.0775C76.0638 46.6083 76.2368 46.1162 76.4004 45.6025C76.4111 45.5702 76.4218 45.5486 76.4218 45.5149C76.4218 45.5041 76.4326 45.5041 76.4326 45.4933C76.509 45.3949 76.5626 45.2749 76.6069 45.1657C76.6498 45.0457 76.694 44.9473 76.7262 44.8812V44.8596C76.7799 44.6736 76.8348 44.4889 76.8777 44.3028C76.9314 44.106 76.9756 43.9199 77.04 43.7352C77.0722 43.8336 77.0936 43.9213 77.1164 44.0197C77.1486 44.1289 77.1701 44.2165 77.2036 44.2934V44.315C77.508 45.3747 77.6595 46.2039 77.6595 46.7944C77.6608 47.3054 77.5737 47.7098 77.4114 48.0159Z" fill="white"/>
<path d="M87.1763 41.299C86.8719 41.299 86.6762 41.5282 86.5903 41.9866C86.4495 42.6202 86.3409 43.0679 86.2538 43.3294C86.1666 43.6031 86.113 43.777 86.0795 43.8755C85.9159 44.2246 85.7429 44.4431 85.5686 44.5199C85.3942 44.5968 85.232 44.6291 85.1019 44.6291C84.9933 44.6291 84.8954 44.5968 84.819 44.5415C84.819 43.8755 84.819 43.3402 84.7975 42.9034C84.7868 42.4773 84.7654 42.1389 84.7546 41.8881C84.7439 41.6266 84.7225 41.4405 84.6997 41.3205C84.6782 41.2005 84.6567 41.1021 84.646 41.0468C84.4717 40.5669 84.1244 40.1408 83.5921 39.7579C83.0597 39.3534 82.5596 39.1566 82.0929 39.1566C81.995 39.1566 81.8971 39.1674 81.7993 39.1889C81.6906 39.2105 81.582 39.2658 81.4734 39.3413C81.3648 39.4181 81.2669 39.5274 81.169 39.6581C81.0711 39.7997 80.9947 39.9858 80.9518 40.215C80.8754 40.521 80.8217 40.7394 80.7882 40.881C80.7547 41.0226 80.7346 41.121 80.7225 41.1763C80.6354 41.2747 80.571 41.427 80.5375 41.6562V41.8854C80.5375 41.9515 80.5482 42.027 80.5589 42.1254V42.2562C80.3202 42.8575 80.2009 43.9267 80.2009 45.4569C80.2009 46.7459 80.3524 47.718 80.6783 48.384C81.0256 49.1161 81.5686 49.4869 82.2967 49.4869C82.8827 49.4869 83.3829 49.1592 83.7744 48.5148C83.8616 48.3624 83.9595 48.1548 84.0681 47.8919C84.1767 47.6411 84.296 47.3027 84.4368 46.909V46.8659C84.4797 46.6798 84.524 46.5059 84.5562 46.3414C84.5991 46.1769 84.6326 46.0246 84.6648 45.8722C84.8713 45.9491 85.0228 46.003 85.0992 46.0246C85.1757 46.0461 85.2293 46.0569 85.2843 46.0569C86.0231 46.0569 86.6198 45.554 87.0664 44.5604C87.2943 44.0575 87.4579 43.5775 87.5665 43.1191C87.6751 42.6715 87.7301 42.2454 87.7301 41.8409C87.7301 41.4837 87.5451 41.299 87.1763 41.299ZM83.2984 46.0933C83.2327 46.3778 83.0812 46.7701 82.8532 47.2838C82.7231 47.5683 82.6145 47.7638 82.5488 47.8622C82.4724 47.9606 82.4295 48.0254 82.3973 48.0591C82.2458 48.0483 82.1251 47.9606 82.0286 47.7975C81.9414 47.633 81.865 47.4375 81.8113 47.1962C81.7577 46.9562 81.7242 46.7162 81.7134 46.4533C81.692 46.1917 81.692 45.9504 81.692 45.732C81.692 45.3828 81.7242 44.9675 81.7792 44.4862C81.8449 43.9941 81.9307 43.4373 82.0514 42.7928C82.1278 42.3775 82.2029 42.0391 82.2686 41.7776C82.345 41.516 82.3987 41.3192 82.4536 41.1655C82.5073 41.0239 82.5515 40.9147 82.5944 40.8594C82.6266 40.7934 82.6601 40.761 82.6709 40.7394C82.8009 40.7394 82.8988 40.7718 82.9752 40.8486C83.0517 40.9147 83.0839 41.0563 83.0839 41.2747V41.4715C83.0839 41.5484 83.0839 41.6576 83.0624 41.7776C83.0302 41.8976 83.0195 42.0068 83.0195 42.1052V42.356C83.0195 42.4328 83.0302 42.5636 83.0517 42.7497C83.0731 42.9249 83.1281 43.2633 83.226 43.7541C83.2917 44.1141 83.3346 44.4309 83.3668 44.7262C83.3882 45.0107 83.4097 45.2722 83.4097 45.4799C83.407 45.6012 83.3735 45.8088 83.2984 46.0933Z" fill="white"/>
</svg>
