<svg width="34" height="34" viewBox="0 0 34 34" fill="none" xmlns="http://www.w3.org/2000/svg">
<circle cx="17" cy="17" r="16.5" stroke="white"/>
<path d="M17.0154 11.4159C17.55 10.2996 18.3453 9.60393 19.5717 9.17983C20.2325 8.95129 21.3185 8.93904 22.0356 9.15193C22.336 9.24121 22.8978 9.5305 23.2839 9.79485L23.986 10.2756L24.4738 10.0926C24.7421 9.99201 25.2397 9.77087 25.5797 9.60129C25.9197 9.43171 26.2216 9.31655 26.2505 9.3455C26.3647 9.4595 25.6898 10.5 25.2121 10.9469C24.7214 11.4059 24.7149 11.4197 24.9925 11.4171C25.1498 11.4156 25.5994 11.305 25.9917 11.1713C26.384 11.0377 26.7049 10.9604 26.7049 10.9998C26.7049 11.2448 25.8143 12.2149 25.1934 12.6463C24.904 12.8474 24.8958 12.8803 24.8557 14.0145C24.7446 17.1535 23.5893 19.7678 21.4009 21.8323C19.9175 23.2317 17.8504 24.3214 15.7695 24.8011C14.7255 25.0418 11.894 25.0708 10.9093 24.851C9.87744 24.6205 8.66483 24.2122 7.805 23.8056L7 23.4249L8.05656 23.3503C9.99007 23.2138 11.7823 22.6266 12.4728 21.9032L12.7684 21.5935L12.2477 21.5318C11.1329 21.3998 9.90449 20.4887 9.34049 19.3756L9.07096 18.8438L9.77876 18.8559C10.8172 18.8738 10.9179 18.7405 10.1349 18.3852C8.94492 17.845 8.05667 16.6768 7.81123 15.3291C7.75311 15.0095 7.72089 14.7324 7.7398 14.7131C7.75861 14.694 7.88518 14.7508 8.02095 14.8394C8.3151 15.0313 9.24995 15.2544 9.44541 15.1794C9.53501 15.145 9.37916 14.9222 9.00049 14.5436C8.63555 14.1785 8.29175 13.693 8.08096 13.2449C7.79083 12.6282 7.74562 12.4197 7.75439 11.7368C7.76125 11.1942 7.83785 10.7528 7.99728 10.3369C8.12545 10.0028 8.24252 9.72934 8.25741 9.72934C8.27242 9.72934 8.6719 10.1063 9.14524 10.5671C11.1438 12.5126 13.702 13.761 15.9066 13.8663L16.6696 13.9028L16.7024 12.9519C16.7289 12.185 16.7895 11.8877 17.0154 11.4159Z" fill="white"/>
</svg>
