<svg width="34" height="34" viewBox="0 0 34 34" fill="none" xmlns="http://www.w3.org/2000/svg">
<circle cx="17" cy="17" r="16.5" stroke="white"/>
<path fill-rule="evenodd" clip-rule="evenodd" d="M12.7694 9.109C9.51063 9.26743 8.14478 9.52472 7.33764 10.1327C6.79704 10.5397 6.34824 11.5289 6.21194 12.6138C5.85555 15.4487 5.96583 20.7954 6.4139 22.4019C6.56954 22.9601 6.74707 23.2613 7.17033 23.6846C8.16253 24.6766 9.55343 24.8851 15.8252 24.9812C21.7324 25.0718 25.3609 24.8341 26.629 24.2733C28.1069 23.6198 28.4634 22.5585 28.6463 18.2679C28.7266 16.3852 28.5617 13.2573 28.3218 12.1106C28.0472 10.7982 27.4063 10.0139 26.2956 9.63124C24.7202 9.08845 18.2941 8.8404 12.7694 9.109ZM20.85 16.9825C20.8199 16.9336 19.5437 16.1769 18.0143 15.3009C16.485 14.4249 15.1716 13.7081 15.0959 13.7081C14.9965 13.7081 14.9581 14.6418 14.9581 17.0519C14.9581 19.0998 15.0032 20.3957 15.0745 20.3957C15.2848 20.3957 20.9063 17.0736 20.85 16.9825Z" fill="white"/>
</svg>
