<svg width="32" height="32" viewBox="0 0 32 32" fill="none" xmlns="http://www.w3.org/2000/svg">
<circle cx="16" cy="16" r="16" fill="white"/>
<path fill-rule="evenodd" clip-rule="evenodd" d="M11.7694 8.109C8.51063 8.26743 7.14478 8.52472 6.33764 9.13268C5.79704 9.53965 5.34824 10.5289 5.21194 11.6138C4.85555 14.4487 4.96583 19.7954 5.4139 21.4019C5.56954 21.9601 5.74707 22.2613 6.17033 22.6846C7.16253 23.6766 8.55343 23.8851 14.8252 23.9812C20.7324 24.0718 24.3609 23.8341 25.629 23.2733C27.1069 22.6198 27.4634 21.5585 27.6463 17.2679C27.7266 15.3852 27.5617 12.2573 27.3218 11.1106C27.0472 9.79816 26.4063 9.01389 25.2956 8.63124C23.7202 8.08845 17.2941 7.8404 11.7694 8.109ZM19.85 15.9825C19.8199 15.9336 18.5437 15.1769 17.0143 14.3009C15.485 13.4249 14.1716 12.7081 14.0959 12.7081C13.9965 12.7081 13.9581 13.6418 13.9581 16.0519C13.9581 18.0998 14.0032 19.3957 14.0745 19.3957C14.2848 19.3957 19.9063 16.0736 19.85 15.9825Z" fill="black"/>
</svg>
