<svg width="20" height="10" viewBox="0 0 20 10" fill="none" xmlns="http://www.w3.org/2000/svg">
<path d="M0.0398052 0.248046L9.31828 9.74219C9.6551 10.0859 10.3445 10.0859 10.6787 9.74219L19.9598 0.248048C19.9827 0.224698 19.9964 0.19711 19.9994 0.168341C20.0024 0.139573 19.9946 0.110748 19.9769 0.0850615C19.9592 0.0593754 19.9322 0.0378316 19.899 0.0228176C19.8658 0.00780364 19.8277 -9.3698e-05 19.7888 9.3521e-07L17.8152 7.62674e-07C17.681 7.50942e-07 17.5547 0.0488284 17.4758 0.128906L9.99982 7.77734L2.52389 0.128905C2.44495 0.0488271 2.31864 -5.9208e-07 2.18443 -6.03812e-07L0.210849 -7.76348e-07C0.0398053 -7.91301e-07 -0.0601896 0.144531 0.0398052 0.248046Z" fill="white"/>
</svg>
