<svg width="34" height="34" viewBox="0 0 34 34" fill="none" xmlns="http://www.w3.org/2000/svg">
<circle cx="17" cy="17" r="16.5" stroke="white"/>
<path d="M9.32956 10.9725C8.68726 9.95975 9.01049 8.73399 10.0671 8.1755C10.4495 7.97337 11.018 7.94275 11.4733 8.09974C12.6413 8.50262 13.1301 9.97334 12.4274 10.9709C11.6645 12.054 10.016 12.0549 9.32956 10.9725Z" fill="white"/>
<path d="M17.6676 14.5274C17.9762 14.135 18.7562 13.6196 19.3092 13.4428C19.9869 13.2261 21.6772 13.203 22.3448 13.4012C23.3849 13.7101 24.3632 14.6876 24.6945 15.7487C24.865 16.2953 24.8779 16.6066 24.8779 20.1684V24L23.3284 23.9747L21.7788 23.9493L21.7326 20.7072C21.6902 17.7377 21.6717 17.4421 21.5122 17.1918C21.033 16.4399 20.4848 16.1131 19.706 16.115C18.866 16.117 18.2502 16.4544 17.7742 17.1735L17.5234 17.5521L17.4771 20.7508L17.4309 23.9493L15.8813 23.9747L14.3318 24V18.6762V13.3525L15.8813 13.3778L17.4309 13.4032L17.4581 14.081L17.4855 14.7588L17.6676 14.5274Z" fill="white"/>
<path d="M9.33622 24V18.6785V13.3569H10.9096H12.483L12.4592 18.6531L12.4353 23.9493L10.8858 23.9747L9.33622 24Z" fill="white"/>
</svg>
