<svg width="100" height="64" viewBox="0 0 100 64" fill="none" xmlns="http://www.w3.org/2000/svg">
<path d="M49.896 36.5C50.1387 36.5 50.316 36.556 50.428 36.668C50.512 36.752 50.5447 36.85 50.526 36.962C50.5167 37.0553 50.4933 37.13 50.456 37.186C50.428 37.2327 50.3953 37.27 50.358 37.298C50.3113 37.326 50.2553 37.3587 50.19 37.396C50.134 37.424 50.0687 37.4427 49.994 37.452C49.7513 37.4707 49.5553 37.4893 49.406 37.508C49.2567 37.5173 49.1307 37.5267 49.028 37.536C48.9253 37.536 48.8273 37.5407 48.734 37.55C48.65 37.55 48.552 37.5547 48.44 37.564C48.328 37.564 48.1927 37.5733 48.034 37.592C47.8753 37.6013 47.67 37.6153 47.418 37.634C47.3713 37.9327 47.3107 38.3247 47.236 38.81C47.1707 39.2953 47.096 39.8973 47.012 40.616C46.7507 42.6787 46.5827 44.4053 46.508 45.796C46.4987 45.9827 46.5033 46.2067 46.522 46.468C46.5407 46.72 46.5733 47.0093 46.62 47.336C46.6293 47.4013 46.6107 47.4573 46.564 47.504C46.5267 47.5413 46.48 47.56 46.424 47.56H46.396C46.2373 47.532 46.074 47.4713 45.906 47.378C45.8873 47.3687 45.8733 47.3593 45.864 47.35C45.864 47.35 45.8547 47.3453 45.836 47.336C45.5933 47.056 45.472 46.5893 45.472 45.936C45.472 44.928 45.556 43.5 45.724 41.652C45.892 39.832 45.976 38.6747 45.976 38.18C45.976 38.1053 45.9713 38.0353 45.962 37.97C45.962 37.8953 45.962 37.8253 45.962 37.76C45.7193 37.76 45.4673 37.7693 45.206 37.788C44.9447 37.7973 44.6833 37.8207 44.422 37.858C44.1607 37.8953 43.9133 37.9513 43.68 38.026C43.4467 38.0913 43.246 38.18 43.078 38.292C42.9847 38.3573 42.938 38.4087 42.938 38.446C42.938 38.4647 42.9473 38.4927 42.966 38.53C42.9847 38.5673 43.0547 38.6093 43.176 38.656C43.2787 38.7027 43.414 38.74 43.582 38.768C43.7593 38.796 43.9647 38.8007 44.198 38.782C44.31 38.7727 44.4547 38.754 44.632 38.726C44.8093 38.698 44.9773 38.6747 45.136 38.656C45.2947 38.6373 45.43 38.6327 45.542 38.642C45.6633 38.6513 45.724 38.6887 45.724 38.754C45.724 38.7913 45.7147 38.8287 45.696 38.866C45.584 39.0527 45.458 39.1973 45.318 39.3C45.1873 39.4027 45.0427 39.482 44.884 39.538C44.7813 39.5753 44.674 39.608 44.562 39.636C44.45 39.664 44.2587 39.6827 43.988 39.692C43.652 39.7013 43.3627 39.678 43.12 39.622C42.8867 39.5567 42.6907 39.468 42.532 39.356C42.3733 39.2253 42.2473 39.0667 42.154 38.88C42.0607 38.6933 42.0233 38.4647 42.042 38.194C42.042 38.1287 42.056 38.0447 42.084 37.942C42.112 37.83 42.1587 37.718 42.224 37.606C42.2987 37.494 42.4013 37.3913 42.532 37.298C42.6627 37.1953 42.8307 37.116 43.036 37.06C43.2507 37.004 43.5587 36.948 43.96 36.892C44.3613 36.836 44.828 36.7847 45.36 36.738C45.5373 36.7287 45.668 36.7193 45.752 36.71C45.8453 36.7007 45.9247 36.696 45.99 36.696C46.0553 36.6867 46.1207 36.682 46.186 36.682C46.2513 36.682 46.3447 36.682 46.466 36.682C46.5967 36.6727 46.774 36.6633 46.998 36.654C47.222 36.6447 47.5207 36.6307 47.894 36.612C48.3513 36.5933 48.678 36.5793 48.874 36.57C49.0793 36.5513 49.2287 36.5373 49.322 36.528C49.4153 36.5187 49.49 36.514 49.546 36.514C49.602 36.5047 49.7187 36.5 49.896 36.5ZM54.7574 42.156C54.9067 42.156 54.9814 42.2913 54.9814 42.562C54.9814 42.5807 54.9767 42.6087 54.9674 42.646C54.9674 42.6833 54.9487 42.772 54.9114 42.912C54.8834 43.052 54.8321 43.2573 54.7574 43.528C54.6921 43.7893 54.5941 44.1533 54.4634 44.62C54.2394 45.432 54.0947 45.9173 54.0294 46.076C53.8241 46.5893 53.5441 46.846 53.1894 46.846C52.5174 46.846 52.1254 46.2253 52.0134 44.984V44.97L51.9994 44.76V43.766C51.9154 44.0927 51.8127 44.508 51.6914 45.012C51.5701 45.516 51.4207 46.1553 51.2434 46.93L51.2294 47.014L51.1594 47.056C51.0567 47.1213 50.9494 47.154 50.8374 47.154C50.5667 47.154 50.3661 46.944 50.2354 46.524C50.1047 46.0947 50.0394 45.4227 50.0394 44.508C50.0394 44.2653 50.0674 43.85 50.1234 43.262C50.1794 42.6647 50.2681 41.876 50.3894 40.896C50.5014 39.9347 50.5854 39.146 50.6414 38.53C50.7067 37.9047 50.7394 37.4567 50.7394 37.186V36.724L50.7534 36.682C50.7907 36.6073 50.8561 36.5327 50.9494 36.458C51.0427 36.3833 51.1827 36.346 51.3694 36.346H51.4114C51.7381 36.3647 51.9014 36.5187 51.9014 36.808C51.9014 36.9853 51.8687 37.1767 51.8034 37.382C51.7194 37.6247 51.6634 37.8487 51.6354 38.054C51.4021 39.5007 51.2247 40.7607 51.1034 41.834C50.9914 42.9073 50.9354 43.8033 50.9354 44.522C50.9447 44.5407 50.9494 44.564 50.9494 44.592C50.9494 44.62 50.9494 44.6573 50.9494 44.704C50.9587 44.7413 50.9681 44.788 50.9774 44.844V44.872C51.0241 44.6853 51.0754 44.48 51.1314 44.256C51.1967 44.032 51.2667 43.7847 51.3414 43.514C51.5001 42.8793 51.6261 42.38 51.7194 42.016C51.8127 41.6427 51.8687 41.4 51.8874 41.288C51.9341 41.0547 52.0041 40.9053 52.0974 40.84C52.2001 40.7653 52.2981 40.728 52.3914 40.728C52.4567 40.728 52.5407 40.7513 52.6434 40.798C52.7554 40.8447 52.9281 40.9707 53.1614 41.176L53.2454 41.246L53.2314 41.358C52.9607 42.7953 52.8254 43.9713 52.8254 44.886C52.8254 45.194 52.8487 45.4413 52.8954 45.628C52.9514 45.8053 53.0214 45.894 53.1054 45.894C53.1147 45.894 53.1474 45.8707 53.2034 45.824C53.2594 45.768 53.3341 45.642 53.4274 45.446C53.5021 45.2873 53.5907 45.0913 53.6934 44.858C53.7961 44.6153 53.8894 44.3353 53.9734 44.018C54.0201 43.85 54.0807 43.654 54.1554 43.43C54.2301 43.1967 54.3047 42.9353 54.3794 42.646C54.3981 42.5713 54.4307 42.4733 54.4774 42.352C54.5334 42.2213 54.6267 42.156 54.7574 42.156ZM58.452 42.03C58.676 42.03 58.788 42.142 58.788 42.366C58.788 42.6087 58.7553 42.87 58.69 43.15C58.6246 43.4207 58.522 43.71 58.382 44.018C58.1113 44.6247 57.7473 44.928 57.29 44.928C57.262 44.928 57.2246 44.9233 57.178 44.914C57.1313 44.8953 57.0426 44.8627 56.912 44.816C56.8933 44.9093 56.87 45.0073 56.842 45.11C56.8233 45.2033 56.8 45.306 56.772 45.418V45.446C56.688 45.6887 56.6133 45.8893 56.548 46.048C56.4826 46.2067 56.422 46.3327 56.366 46.426C56.1233 46.818 55.82 47.014 55.456 47.014C55.008 47.014 54.6766 46.79 54.462 46.342C54.266 45.9407 54.168 45.348 54.168 44.564C54.168 43.6307 54.2426 42.982 54.392 42.618V42.534C54.3826 42.478 54.378 42.4313 54.378 42.394C54.378 42.3473 54.378 42.3053 54.378 42.268V42.254C54.3966 42.114 54.434 42.016 54.49 41.96C54.4993 41.9227 54.5133 41.862 54.532 41.778C54.5506 41.694 54.5833 41.5587 54.63 41.372C54.658 41.232 54.7 41.12 54.756 41.036C54.8213 40.952 54.8866 40.8867 54.952 40.84C55.0173 40.7933 55.0826 40.7653 55.148 40.756C55.2133 40.7373 55.274 40.728 55.33 40.728C55.6193 40.728 55.9273 40.8493 56.254 41.092C56.5806 41.3253 56.7953 41.5867 56.898 41.876C56.9073 41.9133 56.9166 41.9693 56.926 42.044C56.9446 42.1187 56.9586 42.2353 56.968 42.394C56.9773 42.5433 56.9866 42.7487 56.996 43.01C57.0053 43.2713 57.01 43.6027 57.01 44.004C57.0566 44.0413 57.1126 44.06 57.178 44.06C57.262 44.06 57.3553 44.0367 57.458 43.99C57.57 43.9433 57.6773 43.8127 57.78 43.598C57.7986 43.542 57.8313 43.4347 57.878 43.276C57.934 43.108 58.004 42.8327 58.088 42.45C58.144 42.17 58.2653 42.03 58.452 42.03ZM55.792 45.67C55.932 45.362 56.0206 45.124 56.058 44.956C56.1046 44.7787 56.128 44.6527 56.128 44.578C56.128 44.4473 56.1186 44.2933 56.1 44.116C56.0813 43.9387 56.0533 43.7427 56.016 43.528C55.96 43.2293 55.9226 43.024 55.904 42.912C55.8946 42.8 55.89 42.7207 55.89 42.674C55.89 42.6273 55.89 42.576 55.89 42.52C55.89 42.464 55.8993 42.3987 55.918 42.324C55.9273 42.2493 55.932 42.1887 55.932 42.142C55.932 42.086 55.932 42.044 55.932 42.016C55.932 41.8853 55.9086 41.8013 55.862 41.764C55.8153 41.7173 55.7546 41.694 55.68 41.694C55.6706 41.7033 55.652 41.7267 55.624 41.764C55.6053 41.8013 55.5773 41.8667 55.54 41.96C55.512 42.044 55.4746 42.1653 55.428 42.324C55.3906 42.4827 55.3486 42.688 55.302 42.94C55.2273 43.332 55.1713 43.6773 55.134 43.976C55.0966 44.2653 55.078 44.5173 55.078 44.732C55.078 44.8627 55.0826 45.0073 55.092 45.166C55.1013 45.3247 55.12 45.4787 55.148 45.628C55.1853 45.768 55.232 45.8893 55.288 45.992C55.344 46.0853 55.4186 46.1367 55.512 46.146C55.5306 46.1273 55.5586 46.09 55.596 46.034C55.6426 45.9687 55.708 45.8473 55.792 45.67ZM64.5517 41.932C64.6264 41.932 64.6964 41.96 64.7617 42.016C64.827 42.072 64.8597 42.17 64.8597 42.31C64.8597 42.338 64.855 42.38 64.8457 42.436C64.8457 42.492 64.8364 42.5713 64.8177 42.674C64.799 42.7767 64.771 42.9073 64.7337 43.066C64.6964 43.2247 64.645 43.4207 64.5797 43.654C64.477 43.9993 64.3744 44.3307 64.2717 44.648C64.169 44.9653 64.0617 45.2687 63.9497 45.558C63.6324 46.4167 63.2497 46.846 62.8017 46.846C62.279 46.846 61.9617 46.3607 61.8497 45.39C61.8404 45.39 61.8357 45.3853 61.8357 45.376V45.04C61.7704 45.2453 61.7144 45.418 61.6677 45.558C61.6304 45.6887 61.5977 45.7867 61.5697 45.852C61.3177 46.5147 61.019 46.846 60.6737 46.846C60.5897 46.846 60.5057 46.832 60.4217 46.804C60.3377 46.776 60.2584 46.72 60.1837 46.636C60.1184 46.552 60.0624 46.44 60.0157 46.3C59.969 46.1507 59.9457 45.964 59.9457 45.74C59.9457 45.6187 59.9737 45.222 60.0297 44.55C60.0484 44.3633 60.0577 44.186 60.0577 44.018C60.067 43.85 60.0764 43.6913 60.0857 43.542C60.0577 43.626 60.0297 43.7473 60.0017 43.906C59.7964 44.9327 59.6517 45.586 59.5677 45.866C59.3157 46.6593 58.9937 47.056 58.6017 47.056C58.4524 47.056 58.3357 47.0047 58.2517 46.902C58.1677 46.79 58.1024 46.6547 58.0557 46.496C58.009 46.328 57.9764 46.146 57.9577 45.95C57.9484 45.754 57.9437 45.5627 57.9437 45.376C57.9437 45.2733 57.9437 45.1427 57.9437 44.984C57.953 44.816 57.9624 44.6153 57.9717 44.382C57.981 44.186 57.9857 44.0227 57.9857 43.892C57.9857 43.752 57.9857 43.6353 57.9857 43.542L57.8737 43.234C57.8644 43.2247 57.8597 43.206 57.8597 43.178C57.8224 42.6273 57.8877 42.2587 58.0557 42.072C58.149 41.9787 58.261 41.932 58.3917 41.932C58.4477 41.932 58.5084 41.9413 58.5737 41.96C58.6484 41.9787 58.7137 42.016 58.7697 42.072C58.8257 42.128 58.8724 42.2073 58.9097 42.31C58.9564 42.4127 58.9797 42.548 58.9797 42.716C58.9797 43.108 58.9424 43.4767 58.8677 43.822C58.8024 44.1113 58.7697 44.4707 58.7697 44.9C58.7697 45.0027 58.7697 45.1053 58.7697 45.208C58.7697 45.3013 58.7744 45.3947 58.7837 45.488C58.8024 45.4227 58.821 45.362 58.8397 45.306C58.8584 45.2407 58.877 45.1753 58.8957 45.11C59.0077 44.494 59.1104 43.9853 59.2037 43.584C59.297 43.1733 59.3904 42.8513 59.4837 42.618C59.5024 42.5713 59.5304 42.506 59.5677 42.422C59.605 42.3287 59.6517 42.24 59.7077 42.156C59.773 42.0627 59.8477 41.9833 59.9317 41.918C60.025 41.8527 60.1324 41.82 60.2537 41.82C60.3284 41.82 60.4124 41.8433 60.5057 41.89C60.6084 41.9367 60.697 42.0393 60.7717 42.198C60.865 42.3847 60.9117 42.6647 60.9117 43.038V43.052C60.865 43.4813 60.8277 43.8687 60.7997 44.214C60.7717 44.55 60.7577 44.844 60.7577 45.096C60.7577 45.1987 60.7577 45.2827 60.7577 45.348C60.767 45.404 60.7717 45.4553 60.7717 45.502C60.8277 45.4273 60.8977 45.2733 60.9817 45.04C61.075 44.8067 61.187 44.4427 61.3177 43.948C61.4204 43.5653 61.4997 43.2573 61.5557 43.024C61.6117 42.7813 61.6537 42.59 61.6817 42.45C61.7097 42.31 61.7237 42.2167 61.7237 42.17C61.7237 42.114 61.7237 42.0767 61.7237 42.058V41.988C61.7424 41.9227 61.7844 41.8527 61.8497 41.778C61.915 41.694 62.0457 41.652 62.2417 41.652C62.4097 41.652 62.6384 41.7453 62.9277 41.932C63.0117 41.988 63.0397 42.058 63.0117 42.142C62.769 43.3087 62.6477 44.27 62.6477 45.026C62.6477 45.2407 62.6524 45.4133 62.6617 45.544C62.6804 45.6653 62.699 45.7587 62.7177 45.824C62.7457 45.8987 62.7737 45.95 62.8017 45.978C62.811 45.978 62.8297 45.9687 62.8577 45.95C62.895 45.9313 62.9417 45.8847 62.9977 45.81C63.063 45.726 63.1377 45.6 63.2217 45.432C63.3057 45.2547 63.399 45.012 63.5017 44.704V44.69C63.511 44.6807 63.525 44.648 63.5437 44.592C63.5624 44.5267 63.5904 44.4193 63.6277 44.27C63.6744 44.1207 63.7304 43.9153 63.7957 43.654C63.8704 43.3927 63.9637 43.0567 64.0757 42.646C64.0944 42.5993 64.1084 42.548 64.1177 42.492C64.1364 42.436 64.155 42.38 64.1737 42.324L64.2017 42.198V42.184C64.267 42.016 64.3837 41.932 64.5517 41.932ZM65.2317 41.988C65.2317 42.1747 65.2597 42.408 65.3157 42.688C65.381 42.968 65.4744 43.304 65.5957 43.696C65.7264 44.1067 65.8197 44.4567 65.8757 44.746C65.9317 45.026 65.9597 45.2547 65.9597 45.432C65.9597 45.9173 65.857 46.3093 65.6517 46.608C65.4184 46.9533 65.1337 47.126 64.7977 47.126C64.443 47.126 64.1257 46.972 63.8457 46.664C63.6497 46.4587 63.5517 46.2533 63.5517 46.048C63.5517 45.7587 63.645 45.5907 63.8317 45.544C63.841 45.544 63.8504 45.544 63.8597 45.544C63.8597 45.5347 63.8644 45.53 63.8737 45.53C63.9204 45.53 63.981 45.5533 64.0557 45.6C64.1304 45.6373 64.1724 45.7493 64.1817 45.936C64.3124 46.2067 64.4337 46.342 64.5457 46.342C64.5924 46.342 64.6437 46.3327 64.6997 46.314C64.765 46.286 64.8257 46.2207 64.8817 46.118C64.9844 45.9313 65.0357 45.684 65.0357 45.376C65.0357 45.012 64.9424 44.508 64.7557 43.864V43.85C64.737 43.8033 64.7184 43.752 64.6997 43.696C64.6904 43.6307 64.6764 43.57 64.6577 43.514C64.6204 43.626 64.5877 43.7427 64.5597 43.864C64.5317 43.976 64.499 44.088 64.4617 44.2V44.214C64.443 44.2513 64.4197 44.3073 64.3917 44.382C64.3637 44.4567 64.3264 44.5313 64.2797 44.606C64.233 44.6713 64.177 44.732 64.1117 44.788C64.0464 44.8347 63.967 44.858 63.8737 44.858C63.799 44.858 63.729 44.8393 63.6637 44.802C63.561 44.7553 63.5284 44.6807 63.5657 44.578C63.631 44.3167 63.6964 44.0553 63.7617 43.794C63.827 43.5327 63.8924 43.276 63.9577 43.024C64.0324 42.772 64.0837 42.506 64.1117 42.226C64.1397 41.9367 64.1537 41.6333 64.1537 41.316C64.1537 41.1293 64.205 40.9847 64.3077 40.882C64.4104 40.77 64.555 40.714 64.7417 40.714C64.8817 40.714 64.9937 40.7327 65.0777 40.77C65.171 40.8073 65.2364 40.854 65.2737 40.91C65.3204 40.9567 65.3484 41.008 65.3577 41.064C65.3764 41.1107 65.3857 41.1527 65.3857 41.19C65.3857 41.2087 65.381 41.2413 65.3717 41.288C65.3624 41.3347 65.339 41.428 65.3017 41.568C65.255 41.7547 65.2317 41.8947 65.2317 41.988ZM70.8797 42.03C71.1037 42.03 71.2157 42.142 71.2157 42.366C71.2157 42.6087 71.183 42.87 71.1177 43.15C71.0524 43.4207 70.9497 43.71 70.8097 44.018C70.539 44.6247 70.175 44.928 69.7177 44.928C69.6897 44.928 69.6524 44.9233 69.6057 44.914C69.559 44.8953 69.4704 44.8627 69.3397 44.816C69.321 44.9093 69.2977 45.0073 69.2697 45.11C69.251 45.2033 69.2277 45.306 69.1997 45.418V45.446C69.1157 45.6887 69.041 45.8893 68.9757 46.048C68.9104 46.2067 68.8497 46.3327 68.7937 46.426C68.551 46.818 68.2477 47.014 67.8837 47.014C67.4357 47.014 67.1044 46.79 66.8897 46.342C66.6937 45.9407 66.5957 45.348 66.5957 44.564C66.5957 43.6307 66.6704 42.982 66.8197 42.618V42.534C66.8104 42.478 66.8057 42.4313 66.8057 42.394C66.8057 42.3473 66.8057 42.3053 66.8057 42.268V42.254C66.8244 42.114 66.8617 42.016 66.9177 41.96C66.927 41.9227 66.941 41.862 66.9597 41.778C66.9784 41.694 67.011 41.5587 67.0577 41.372C67.0857 41.232 67.1277 41.12 67.1837 41.036C67.249 40.952 67.3144 40.8867 67.3797 40.84C67.445 40.7933 67.5104 40.7653 67.5757 40.756C67.641 40.7373 67.7017 40.728 67.7577 40.728C68.047 40.728 68.355 40.8493 68.6817 41.092C69.0084 41.3253 69.223 41.5867 69.3257 41.876C69.335 41.9133 69.3444 41.9693 69.3537 42.044C69.3724 42.1187 69.3864 42.2353 69.3957 42.394C69.405 42.5433 69.4144 42.7487 69.4237 43.01C69.433 43.2713 69.4377 43.6027 69.4377 44.004C69.4844 44.0413 69.5404 44.06 69.6057 44.06C69.6897 44.06 69.783 44.0367 69.8857 43.99C69.9977 43.9433 70.105 43.8127 70.2077 43.598C70.2264 43.542 70.259 43.4347 70.3057 43.276C70.3617 43.108 70.4317 42.8327 70.5157 42.45C70.5717 42.17 70.693 42.03 70.8797 42.03ZM68.2197 45.67C68.3597 45.362 68.4484 45.124 68.4857 44.956C68.5324 44.7787 68.5557 44.6527 68.5557 44.578C68.5557 44.4473 68.5464 44.2933 68.5277 44.116C68.509 43.9387 68.481 43.7427 68.4437 43.528C68.3877 43.2293 68.3504 43.024 68.3317 42.912C68.3224 42.8 68.3177 42.7207 68.3177 42.674C68.3177 42.6273 68.3177 42.576 68.3177 42.52C68.3177 42.464 68.327 42.3987 68.3457 42.324C68.355 42.2493 68.3597 42.1887 68.3597 42.142C68.3597 42.086 68.3597 42.044 68.3597 42.016C68.3597 41.8853 68.3364 41.8013 68.2897 41.764C68.243 41.7173 68.1824 41.694 68.1077 41.694C68.0984 41.7033 68.0797 41.7267 68.0517 41.764C68.033 41.8013 68.005 41.8667 67.9677 41.96C67.9397 42.044 67.9024 42.1653 67.8557 42.324C67.8184 42.4827 67.7764 42.688 67.7297 42.94C67.655 43.332 67.599 43.6773 67.5617 43.976C67.5244 44.2653 67.5057 44.5173 67.5057 44.732C67.5057 44.8627 67.5104 45.0073 67.5197 45.166C67.529 45.3247 67.5477 45.4787 67.5757 45.628C67.613 45.768 67.6597 45.8893 67.7157 45.992C67.7717 46.0853 67.8464 46.1367 67.9397 46.146C67.9584 46.1273 67.9864 46.09 68.0237 46.034C68.0704 45.9687 68.1357 45.8473 68.2197 45.67ZM72.3093 37.158C72.2253 37.4847 72.118 37.8393 71.9873 38.222C71.8567 38.6047 71.712 38.9873 71.5533 39.37C71.404 39.7433 71.2547 40.098 71.1053 40.434H70.1953C70.2607 40.1727 70.326 39.8927 70.3913 39.594C70.466 39.2953 70.5313 38.9967 70.5873 38.698C70.6527 38.39 70.7087 38.0913 70.7553 37.802C70.8113 37.5127 70.858 37.2467 70.8953 37.004H72.2113L72.3093 37.158ZM80.0906 46.342C80.1746 46.3607 80.2726 46.3933 80.3846 46.44C80.4966 46.4773 80.5526 46.5613 80.5526 46.692C80.5526 46.8693 80.5106 47.0233 80.4266 47.154C80.3893 47.2007 80.3333 47.2427 80.2586 47.28C80.1933 47.3173 80.1093 47.336 80.0066 47.336C79.9786 47.3267 79.9459 47.3173 79.9086 47.308C79.8713 47.308 79.8013 47.3033 79.6986 47.294C79.5679 47.2753 79.3579 47.2613 79.0686 47.252C78.7886 47.2427 78.4246 47.238 77.9766 47.238C77.2859 47.238 76.6046 47.322 75.9326 47.49C75.2513 47.6673 74.7893 47.756 74.5466 47.756C74.2106 47.756 73.9633 47.6813 73.8046 47.532C73.6179 47.364 73.5246 47.1353 73.5246 46.846C73.5246 46.7433 73.5666 46.6453 73.6506 46.552C73.7346 46.4493 73.8839 46.3327 74.0986 46.202C74.3133 46.0807 74.4719 45.9827 74.5746 45.908C74.6773 45.8333 74.7473 45.7727 74.7846 45.726C75.2699 45.1473 75.7319 44.55 76.1706 43.934C76.6093 43.318 76.9779 42.66 77.2766 41.96C77.5753 41.26 77.8039 40.616 77.9626 40.028C78.1306 39.4307 78.2146 38.866 78.2146 38.334C78.2146 38.1567 78.1679 37.9793 78.0746 37.802C77.9906 37.6153 77.8739 37.4567 77.7246 37.326C77.5753 37.186 77.4073 37.0787 77.2206 37.004C77.0433 36.9293 76.8566 36.906 76.6606 36.934C76.3899 36.962 76.1473 37.046 75.9326 37.186C75.7273 37.3167 75.5499 37.4707 75.4006 37.648C75.2606 37.8253 75.1439 38.012 75.0506 38.208C74.9666 38.3947 74.9199 38.558 74.9106 38.698C74.8919 38.894 74.8826 39.0713 74.8826 39.23C74.8826 39.3793 74.8919 39.524 74.9106 39.664C74.9293 39.7947 74.9526 39.93 74.9806 40.07C75.0086 40.21 75.0459 40.364 75.0926 40.532C75.1206 40.672 75.1486 40.8167 75.1766 40.966C75.2046 41.1153 75.2186 41.2507 75.2186 41.372C75.2186 41.484 75.1953 41.5773 75.1486 41.652C75.1019 41.7267 75.0179 41.764 74.8966 41.764C74.7099 41.764 74.5279 41.652 74.3506 41.428C74.1826 41.204 74.0426 40.9053 73.9306 40.532C73.8279 40.1493 73.7673 39.7107 73.7486 39.216C73.7393 38.712 73.8093 38.18 73.9586 37.62C74.0053 37.4707 74.0846 37.3027 74.1966 37.116C74.3179 36.92 74.4766 36.738 74.6726 36.57C74.8686 36.3927 75.1066 36.2433 75.3866 36.122C75.6666 35.9913 75.9886 35.9167 76.3526 35.898C76.7353 35.8793 77.1179 35.9307 77.5006 36.052C77.8926 36.164 78.2426 36.3413 78.5506 36.584C78.8586 36.8173 79.1106 37.1113 79.3066 37.466C79.5026 37.8207 79.6006 38.2313 79.6006 38.698C79.6006 38.9407 79.5726 39.202 79.5166 39.482C79.4699 39.762 79.3953 40.0513 79.2926 40.35C79.0966 40.9753 78.8026 41.6567 78.4106 42.394C78.0653 43.0473 77.6779 43.6867 77.2486 44.312C76.8286 44.9373 76.3666 45.544 75.8626 46.132C76.1986 46.1133 76.5299 46.104 76.8566 46.104C77.1833 46.104 77.5006 46.104 77.8086 46.104C77.9766 46.104 78.1773 46.1133 78.4106 46.132C78.6533 46.1507 78.9379 46.1787 79.2646 46.216C79.4513 46.244 79.6099 46.2673 79.7406 46.286C79.8713 46.3047 79.9879 46.3233 80.0906 46.342ZM86.5725 43.458C86.5725 43.5327 86.5538 43.6213 86.5165 43.724C86.4792 43.8173 86.3812 43.9013 86.2225 43.976C86.1385 44.0227 86.0358 44.0413 85.9145 44.032C85.7932 44.0227 85.6532 44.018 85.4945 44.018H85.3265H85.2005H85.0465C85.0278 44.1767 85.0092 44.3587 84.9905 44.564C84.9812 44.76 84.9718 44.956 84.9625 45.152C84.9532 45.348 84.9438 45.5533 84.9345 45.768C84.9252 45.9827 84.9205 46.1273 84.9205 46.202C84.9205 46.3047 84.9298 46.4167 84.9485 46.538C84.9765 46.6593 85.0232 46.7993 85.0885 46.958C85.1632 47.1353 85.2098 47.2473 85.2285 47.294C85.2565 47.35 85.2705 47.3827 85.2705 47.392C85.2705 47.4013 85.2752 47.4153 85.2845 47.434C85.2938 47.4527 85.2985 47.4667 85.2985 47.476C85.2985 47.4853 85.3032 47.4993 85.3125 47.518C85.3125 47.5647 85.2938 47.6207 85.2565 47.686C85.2285 47.7513 85.1492 47.8073 85.0185 47.854C84.9718 47.8633 84.9158 47.868 84.8505 47.868C84.7852 47.8773 84.7105 47.882 84.6265 47.882C84.5145 47.882 84.3932 47.854 84.2625 47.798C84.1412 47.742 84.0338 47.616 83.9405 47.42C83.8192 47.1773 83.7585 46.8133 83.7585 46.328C83.7585 46.2627 83.7632 46.118 83.7725 45.894C83.7818 45.67 83.7958 45.362 83.8145 44.97C83.8425 44.5687 83.8425 44.256 83.8145 44.032H83.7585C83.3572 44.032 82.8858 44.088 82.3445 44.2C81.8778 44.312 81.4858 44.4007 81.1685 44.466C80.8605 44.5313 80.6365 44.536 80.4965 44.48L80.4265 44.452C80.2678 44.3493 80.1372 44.2327 80.0345 44.102C79.9412 43.9713 79.8525 43.8407 79.7685 43.71C79.6472 43.514 79.5865 43.3413 79.5865 43.192C79.5865 43.1547 79.5912 43.1127 79.6005 43.066C79.6192 43.01 79.6518 42.9353 79.6985 42.842C79.7452 42.7487 79.8105 42.6273 79.8945 42.478C79.9785 42.3287 80.0952 42.142 80.2445 41.918C80.5152 41.498 80.7532 41.12 80.9585 40.784C81.1638 40.448 81.3365 40.14 81.4765 39.86C81.6818 39.468 81.9198 39.048 82.1905 38.6C82.4612 38.1427 82.7692 37.662 83.1145 37.158C83.2172 36.9993 83.3198 36.8407 83.4225 36.682C83.5252 36.5233 83.6278 36.3647 83.7305 36.206H83.7445C83.9778 35.8607 84.2205 35.6787 84.4725 35.66H84.4865H84.5145C84.7758 35.688 85.0792 35.8373 85.4245 36.108C85.7698 36.3973 85.9425 36.654 85.9425 36.878C85.9425 36.9247 85.9332 36.9993 85.9145 37.102C85.8958 37.1953 85.8538 37.3493 85.7885 37.564C85.7418 37.732 85.7045 37.8767 85.6765 37.998C85.6578 38.1193 85.6392 38.222 85.6205 38.306C85.4618 39.5287 85.3358 40.5227 85.2425 41.288C85.1585 42.0533 85.1072 42.59 85.0885 42.898C85.2192 42.9167 85.2985 42.9307 85.3265 42.94C85.3545 42.94 85.4338 42.94 85.5645 42.94C85.6485 42.94 85.7045 42.94 85.7325 42.94C85.7698 42.94 85.7978 42.94 85.8165 42.94C85.8445 42.94 85.8725 42.9447 85.9005 42.954C85.9378 42.954 85.9985 42.954 86.0825 42.954H86.0965C86.2552 42.9727 86.3718 43.0287 86.4465 43.122C86.5305 43.2153 86.5725 43.3273 86.5725 43.458ZM84.1365 40.056C84.1552 39.8133 84.1832 39.566 84.2205 39.314C84.2672 39.0527 84.3092 38.8053 84.3465 38.572C84.3838 38.3293 84.4118 38.1053 84.4305 37.9C84.4585 37.6853 84.4725 37.508 84.4725 37.368C84.4445 37.4053 84.3932 37.466 84.3185 37.55C84.2532 37.6247 84.1785 37.7133 84.0945 37.816C84.0198 37.9093 83.9405 38.012 83.8565 38.124C83.7725 38.2267 83.7025 38.3247 83.6465 38.418V38.432C83.3385 38.908 83.0958 39.272 82.9185 39.524C82.7505 39.776 82.6432 39.93 82.5965 39.986C82.4285 40.2193 82.2558 40.4947 82.0785 40.812C81.9012 41.1293 81.7238 41.484 81.5465 41.876C81.3598 42.2867 81.2198 42.5947 81.1265 42.8C81.0425 42.996 80.9958 43.122 80.9865 43.178C81.0052 43.1873 81.0285 43.1967 81.0565 43.206C81.0938 43.206 81.1452 43.206 81.2105 43.206C81.3412 43.206 81.5698 43.192 81.8965 43.164C82.0645 43.136 82.2185 43.108 82.3585 43.08C82.5078 43.0427 82.6152 43.024 82.6805 43.024C82.9885 43.024 83.2825 43.01 83.5625 42.982C83.6372 42.9727 83.6978 42.968 83.7445 42.968C83.7912 42.9587 83.8378 42.954 83.8845 42.954C83.9032 42.6367 83.9358 42.2447 83.9825 41.778C84.0385 41.3113 84.0898 40.7373 84.1365 40.056Z" fill="#545454"/>
<path fill-rule="evenodd" clip-rule="evenodd" d="M29.1382 14.5049C28.652 14.1617 28.0957 13.9687 27.5291 13.8231C25.428 13.2811 23.2901 12.9112 21.1672 12.4663C20.4166 12.3091 20.4258 12.3253 20.4431 11.5556C20.4592 10.8692 20.5017 10.1711 20.2798 9.50777C19.5741 7.38941 18.6684 5.36119 17.5351 3.43699C17.1455 2.77594 16.6029 2.33678 15.8432 2.20388C15.5685 2.1565 15.288 2.14841 15.011 2.12183C14.1547 2.04208 13.2824 2.10218 12.4513 1.81788C11.6859 1.43998 10.9008 1.11292 10.0698 0.911831C9.97556 0.864448 9.88016 0.815909 9.78591 0.768526C9.38592 0.572061 8.99628 0.360572 8.71353 0H8.44227C8.13654 0.240381 7.8308 0.479607 7.52506 0.719988C7.12047 0.876005 6.82508 1.12101 6.80094 1.59715C6.7975 1.65724 6.76991 1.71965 6.74118 1.77628C6.36992 2.49511 6.10671 3.27519 5.53891 3.88308C5.46765 3.96051 5.41593 4.06337 5.38145 4.16391C5.33432 4.29797 5.33432 4.44936 5.46995 4.52911C5.71247 4.67241 5.7573 4.91279 5.79293 5.15202C5.84465 5.50219 5.89637 5.82462 6.20786 6.07425C6.43199 6.25222 6.37797 6.47642 6.14004 6.66018C6.00557 6.76534 5.86304 6.86127 5.73201 6.97221C5.35616 7.29118 4.91709 7.52925 4.57113 7.88635C4.50101 7.87826 4.45274 7.91756 4.40332 7.958C3.72977 8.52082 3.10795 9.13911 2.60337 9.85794C2.07235 10.6126 1.45398 11.269 0.670095 11.7579C0.460906 11.8885 0.273555 12.0792 0 12.0803V12.2444C0.11264 12.2063 0.225281 12.1762 0.344817 12.1889C0.436768 12.1982 0.5655 12.1392 0.604579 12.2675C0.643659 12.3993 0.494238 12.4016 0.431021 12.4652C0.350564 12.5449 0.129881 12.5276 0.196546 12.6963C0.262061 12.8639 0.45171 12.7703 0.587339 12.7737C0.635613 12.7749 0.688485 12.7379 0.733311 12.709C0.981579 12.5449 1.22295 12.3739 1.44823 12.1774C1.87695 11.8041 2.30798 11.4262 2.87922 11.284C3.21829 11.1985 3.34358 11.3129 3.27231 11.6516C3.21714 11.9208 3.28726 12.1543 3.42748 12.3727C3.4907 12.4709 3.57346 12.5981 3.69069 12.5807C3.80333 12.5645 3.80218 12.4085 3.82402 12.3103C3.97689 11.6331 4.13551 10.9547 4.25734 10.2705C4.31826 9.93075 4.45619 9.67881 4.75848 9.51933C5.30329 9.2697 5.85615 9.03741 6.39061 8.76698C6.82278 8.54971 7.26415 8.34284 7.6377 8.02388C8.0055 7.81932 8.01585 7.82048 8.33423 8.12095C8.4848 8.2631 8.63767 8.4041 8.78709 8.54856C8.87215 8.63177 8.94801 8.68955 8.98134 8.51273C9.02157 8.28737 9.11812 8.37752 9.20777 8.47344C9.41121 8.69417 9.41581 8.94727 9.20892 9.27085C8.7664 9.95964 8.38595 10.6866 8.21929 11.4874C8.09861 12.0688 7.62965 12.5957 7.94229 13.2649C8.02504 13.4394 8.12619 13.4995 8.26642 13.5318C8.44572 13.5734 8.42733 13.3966 8.45722 13.3007C8.50204 13.1643 8.52158 13.0199 8.54917 12.8777C8.59859 12.6304 8.63422 12.3773 8.76295 12.1531C9.00777 11.7232 9.16754 11.7163 9.41121 12.1265C9.4204 12.1416 9.42615 12.1601 9.4365 12.1739C9.49052 12.2386 9.49971 12.3762 9.61235 12.345C9.7158 12.3161 9.69166 12.1959 9.69051 12.108C9.68591 11.6643 9.65488 11.2228 9.58707 10.7836C9.53304 10.4335 9.55029 10.111 9.90775 9.9111C9.98476 9.86719 10.0445 9.79438 10.0687 9.70077C10.2491 9.63489 10.5192 9.81518 10.5813 9.55631C10.8525 9.80362 11.1364 10.0648 11.4249 10.3237C11.4675 10.3618 11.5376 10.4612 11.5606 10.4184C11.7491 10.0868 11.8088 10.4739 11.9491 10.4728C12.0008 10.1157 12.218 10.3872 12.3778 10.3826C12.433 10.0706 12.3019 9.76664 12.3582 9.41416C12.6031 9.8094 12.8238 10.163 13.0456 10.5236C13.1099 10.4647 13.1099 10.4277 13.0927 10.3953C12.6709 9.60253 12.4376 8.73346 12.0996 7.90715C11.9583 7.56276 11.9537 7.25997 12.2169 6.97799C12.3146 6.87282 12.4111 6.76419 12.5077 6.65787C12.6444 6.61048 12.7525 6.68791 12.8605 6.74916C13.6145 7.17792 14.3478 7.63904 15.0375 8.16371C15.7742 8.72653 16.034 9.49043 15.8156 10.3803C15.5582 11.4343 15.2271 12.4686 15.18 13.5642C15.1398 14.4991 15.2846 15.3809 15.8972 16.1136C16.2719 16.5632 16.3972 17.0474 16.3581 17.6206C16.3145 18.2632 16.1639 18.8896 16.1214 19.531C16.0547 20.5237 16.0489 21.5211 15.9122 22.5092C15.7604 23.6163 15.4444 24.6599 14.7927 25.5879C14.3754 26.1819 14.057 26.8314 13.7961 27.5098C13.2709 28.8816 12.9674 30.3181 12.5525 31.7222C12.4318 32.1279 12.3582 32.552 12.1123 32.9091C11.9031 33.1033 11.6594 33.2258 11.3824 33.3032C11.0319 33.4014 10.8905 33.5806 10.8801 33.9226C10.8594 34.6704 10.7135 35.395 10.5135 36.1115C10.4031 36.5056 10.3135 36.9008 10.3882 37.3146C10.4893 37.8635 10.6342 38.3917 11.0548 38.7961C11.2112 38.9464 11.3583 38.9649 11.4744 38.7638C11.7709 38.2483 12.0962 37.7445 12.2755 37.1689C12.5582 36.5229 12.7801 35.8515 13.1076 35.2251C14.9559 31.7014 16.8018 28.1766 18.6431 24.6495C18.8063 24.334 19.0293 24.0947 19.3155 23.889C21.643 22.2214 24.1016 20.7548 26.4992 19.1947C27.5038 18.5406 28.5601 17.9616 29.4508 17.1399C29.6899 16.9191 29.8853 16.6764 29.929 16.3448C30.0301 15.5739 29.7715 14.9533 29.1382 14.5049ZM23.882 17.9096C23.0028 18.6157 22.1235 19.323 21.2166 19.9921C20.812 20.2903 20.3408 20.407 19.8718 20.5283C19.6822 20.578 19.6178 20.4486 19.6557 20.2903C19.8707 19.4119 20.0776 18.5325 20.3224 17.6622C20.4511 17.2069 20.8362 17.007 21.2787 16.9943C22.4223 16.9642 23.566 16.9908 24.7073 17.0555C24.7303 17.0578 24.7533 17.0775 24.813 17.1064C24.4935 17.3837 24.1958 17.6565 23.882 17.9096Z" fill="#545454"/>
<path fill-rule="evenodd" clip-rule="evenodd" d="M34.4295 49.41C34.3525 49.7209 34.2134 50.004 34.0858 50.2941C34.0629 50.3472 34.0514 50.4293 33.9663 50.4189C33.864 50.4073 33.8778 50.3195 33.8698 50.2513C33.8192 49.7567 33.7732 49.2609 33.718 48.7663C33.6617 48.2624 33.5353 47.7828 33.1479 47.4222C32.6962 47.0039 32.1491 46.9958 31.594 47.109C30.6043 47.3113 29.8411 47.9018 29.1883 48.6357C27.5205 50.5102 26.5872 52.7499 26.1114 55.1861C25.9183 56.1742 26.1401 57.1692 26.3344 58.1469C26.7332 60.1693 27.6205 61.9606 28.8768 63.5786C28.9722 63.7011 29.0825 63.8236 29.1228 63.99C29.017 64.027 28.9757 63.9507 28.932 63.9068C27.4539 62.453 26.0585 60.924 24.8827 59.2078C23.9321 57.8199 23.4379 56.2655 23.2689 54.5944C23.2069 53.9818 23.0977 53.3763 23.008 52.7672C22.9965 52.691 23.0057 52.5754 22.8919 52.5939C22.8034 52.6089 22.8517 52.7164 22.8437 52.7811C22.7563 53.4572 22.7368 54.1448 22.8 54.8162C22.9103 56.0124 23.0126 57.2108 23.1942 58.4C23.3023 59.1154 23.3643 59.8388 23.5632 60.538C23.8034 61.3897 24.2356 62.1571 24.6022 62.9534C24.6746 63.1082 24.7344 63.27 24.7884 63.4318C24.8057 63.4838 24.8528 63.5601 24.7758 63.6029C24.7045 63.6433 24.6631 63.5728 24.6172 63.5347C24.1045 63.1071 23.7068 62.5801 23.3482 62.0242C22.9655 61.4313 22.6299 60.8107 22.4046 60.137C22.2195 59.7545 22.0839 59.3511 21.9678 58.942C21.7207 58.3226 21.5322 57.6846 21.3793 57.034C21.1253 56.2701 20.9862 55.4796 20.838 54.6914C20.8092 54.5424 20.7885 54.3921 20.7518 54.1575C20.569 54.577 20.5357 54.9503 20.515 55.3178C20.4564 56.3602 20.6357 57.3818 20.8023 58.4046C20.9541 59.3442 21.1242 60.2757 21.4908 61.1574C21.5874 61.3909 21.7069 61.6151 21.8138 61.8451C21.8391 61.8982 21.9035 61.9606 21.8448 62.015C21.7736 62.0808 21.7092 62.0069 21.6586 61.9641C21.2839 61.6451 20.9885 61.258 20.7437 60.8327C20.3311 60.1173 20.0242 59.3557 19.807 58.5595C19.5254 57.8903 19.3886 57.1808 19.215 56.4816C18.953 55.4276 18.8288 54.3517 18.676 53.2792C18.6081 52.7961 18.515 52.3177 18.4254 51.8392C18.3518 51.4428 18.4875 51.2544 18.8806 51.2753C19.23 51.2949 19.5771 51.3527 19.9242 51.3943C20.4437 51.4625 20.9667 51.4324 21.4885 51.4313C21.6632 51.385 21.8391 51.34 22.0138 51.2937C22.1437 51.229 22.2724 51.1655 22.4011 51.0996C23.0011 50.6604 23.3574 50.0618 23.5678 49.3534C23.8114 48.5317 24.3425 47.9977 25.1677 47.7273C26.5298 47.2824 27.924 46.9334 29.2687 46.4538C31.6779 45.5928 33.2813 43.8962 33.956 41.378C34.0146 41.1608 34.0203 40.9308 34.056 40.7077C34.0698 40.6176 34.0307 40.5066 34.1502 40.4338C34.3433 40.6823 34.3146 40.9828 34.3479 41.2602C34.5261 42.7059 34.741 44.1493 34.7893 45.609C34.8272 46.8895 34.7353 48.1595 34.4295 49.41Z" fill="#545454"/>
<path fill-rule="evenodd" clip-rule="evenodd" d="M99.3412 62.1389C99.3312 62.2163 99.3462 62.303 99.2781 62.3908C99.0928 61.8916 99.0157 61.3692 98.8805 60.8699C98.4599 59.3213 98.2946 57.7288 98.2005 56.1132C98.1123 54.5958 97.892 53.0945 97.6577 51.5968C97.0908 47.9887 96.2405 44.4732 95.0538 41.0685C93.4924 36.5914 91.4173 32.4599 88.7754 28.7143C85.3542 23.8628 81.1109 20.3472 76.0122 18.2023C73.2241 17.0304 70.3658 16.1845 67.4344 15.6644C66.9567 15.5789 66.478 15.4911 65.9992 15.4032C65.2611 15.3108 64.522 15.2195 63.7829 15.1282C63.198 15.09 62.6122 15.0484 62.0273 15.0149C61.3082 14.9745 60.5901 14.9398 59.8701 14.9028C58.9787 14.9074 58.0864 14.9063 57.1951 14.919C56.6402 14.9271 56.0864 14.9548 55.5316 14.9733C55.2682 15.0831 54.9888 15.038 54.7203 15.0565C53.8751 15.1155 53.0328 15.1987 52.1936 15.3038C51.2612 15.4206 50.3348 15.5962 49.4064 15.7488C49.138 15.7927 48.8706 15.8493 48.5771 15.8447C48.8546 15.5881 49.132 15.3327 49.4084 15.075C49.8481 14.6659 50.2967 14.2718 50.7214 13.8442C51.3613 13.1982 51.831 12.3927 52.2436 11.5467C52.48 11.0636 52.7875 10.8568 53.2732 10.8822C54.0253 10.9227 54.7804 10.8995 55.5346 10.9042C56.3868 10.8845 57.2391 10.8672 58.0924 10.9284C58.5681 10.9631 59.0448 10.977 59.5225 10.9978C59.6407 11.0024 59.7579 11.0082 59.8701 11.0521C60.5421 11.0602 61.2091 11.1688 61.8781 11.2324C62.4379 11.2855 62.9967 11.3641 63.5556 11.4335C63.6327 11.4439 63.7078 11.4681 63.7839 11.4866C64.5441 11.5664 65.2982 11.697 66.0473 11.8715C67.2732 12.0853 68.482 12.4031 69.6828 12.7509C72.6282 13.6038 75.4865 14.7433 78.2095 16.3081C81.2311 18.0463 83.9862 20.2201 86.4058 22.9521C87.7468 24.4672 88.8875 26.1718 90.0403 27.8707C91.8069 30.4791 93.3422 33.2515 94.6091 36.2228C96.3908 40.404 97.6857 44.776 98.4989 49.3397C98.8985 51.5783 99.1839 53.8342 99.3242 56.1109C99.3993 57.3405 99.3862 58.5748 99.3983 59.8067C99.4063 60.5856 99.4443 61.3646 99.3412 62.1389Z" fill="#545454"/>
<path fill-rule="evenodd" clip-rule="evenodd" d="M36.8335 39.2574C36.7611 40.8869 36.5795 42.5049 36.1519 44.0847C36.0623 44.4164 35.9519 44.7423 35.8037 45.0543C35.7565 45.1537 35.7347 45.2808 35.591 45.3328C35.529 45.2196 35.5588 45.1017 35.5577 44.9919C35.5358 43.523 35.4669 42.0611 35.0715 40.6338C34.8841 39.9589 34.5945 39.3279 34.3002 38.6958C34.2117 38.5802 34.1336 38.4577 34.0911 38.3167C33.983 38.1826 33.8876 38.0393 33.8221 37.8787C33.6784 37.74 33.5922 37.5609 33.498 37.3887C33.0991 36.9842 32.9336 36.53 33.0543 35.9429C33.2072 35.194 33.2865 34.4313 33.4003 33.6755C33.4106 33.605 33.4371 33.5356 33.4554 33.4663C33.5635 32.7775 33.6715 32.0887 33.7796 31.4C33.8704 30.8198 33.9612 30.2397 34.052 29.6595C34.1336 29.1198 34.1819 28.5755 34.3209 28.0381C34.4336 28.0785 34.4577 28.1537 34.4796 28.2322C35.5462 29.8329 36.0968 31.6322 36.4669 33.4964C36.845 35.3986 36.9186 37.3251 36.8335 39.2574Z" fill="#545454"/>
<path fill-rule="evenodd" clip-rule="evenodd" d="M54.4822 6.44346C54.3937 7.94007 53.8259 9.27834 53.1029 10.5623C52.7547 11.2546 52.3191 11.889 51.811 12.4715C51.0317 13.455 50.1053 14.2697 49.0433 14.9319C48.664 15.148 48.31 15.4058 47.9203 15.6068C47.2181 15.9674 46.4802 16.1662 45.6894 16.1639C45.5285 16.1627 45.3664 16.1639 45.1584 16.0749C46.4273 15.0371 47.6813 14.0316 48.9812 13.0817C49.6847 12.5246 50.3191 11.9029 50.8122 11.1425C51.1524 10.6143 51.3961 10.0446 51.6133 9.45978C51.811 8.76753 51.8846 8.04985 52.0409 7.34951C52.0639 7.24435 52.1191 7.11491 52.0409 7.03979C51.9513 6.95196 51.8467 7.06984 51.7478 7.09526C51.6547 7.11838 51.5766 7.1935 51.472 7.17847C50.9237 7.48588 50.3318 7.69275 49.7594 7.94469C49.3778 8.11342 48.9893 8.26712 48.6031 8.42661C48.0571 8.71553 47.4571 8.79527 46.8583 8.86576C45.894 8.97902 44.9756 9.26678 44.0584 9.56379C43.8883 9.61811 43.771 9.74061 43.6596 9.87583C42.4125 11.3805 41.232 12.9372 40.0056 14.4581C38.5838 16.224 37.0011 17.8327 35.2265 19.2461C35.1357 19.3177 35.0506 19.3998 34.9138 19.4229C34.8897 19.2992 34.9644 19.216 35.0196 19.1305C36.8988 16.1766 38.7769 13.2238 40.6596 10.2722C40.8102 10.0365 40.9918 9.82035 41.1493 9.58922C41.2711 9.40893 41.3757 9.22056 41.4159 9.00098C41.4987 8.55142 41.7723 8.29139 42.2056 8.17236C43.4642 7.8245 44.7354 7.52864 45.9802 7.12993C46.8215 6.86182 47.6445 6.54169 48.4755 6.24584C49.4306 5.8113 50.3858 5.37677 51.3409 4.94223C51.8708 4.651 52.4202 4.40369 52.9869 4.19335C53.1915 4.10321 53.3914 4.00151 53.6018 3.92293C53.9133 3.80736 54.0064 3.8559 54.1271 4.18526C54.3914 4.91334 54.527 5.66684 54.4822 6.44346Z" fill="#545454"/>
<path fill-rule="evenodd" clip-rule="evenodd" d="M13.2302 26.2621C13.1348 27.0953 12.813 27.8673 12.5843 28.6636C12.4774 29.0346 12.3486 29.4009 12.2302 29.7696C12.0808 30.3705 11.9521 30.9773 11.7452 31.562C11.6647 31.7909 11.5602 32.0104 11.3682 32.1722C11.2464 32.3606 11.0636 32.4796 10.8774 32.5894C10.1441 33.0205 9.92457 33.5082 10.097 34.3611C10.2004 34.8765 10.1533 35.3688 9.89698 35.8346C9.81537 35.9825 9.71998 36.1258 9.53492 36.1212C9.33608 36.1166 9.28206 35.9409 9.22459 35.7883C9.07402 35.3896 8.88207 34.9667 8.90965 34.5633C8.93954 34.1357 9.0108 33.6919 9.10965 33.2609C9.35907 32.1757 9.84756 31.1841 10.2533 30.1602C10.4257 29.7233 10.6406 29.3027 10.7395 28.8381C10.7717 28.689 10.8291 28.5214 10.6981 28.4012C10.5682 28.2822 10.4085 28.3504 10.2636 28.3989C9.54642 28.6393 8.94643 29.0993 8.29473 29.4656C8.08324 29.5847 7.8775 29.7164 7.67291 29.8482C7.26487 30.1105 7.17867 30.3312 7.27407 30.8143C7.38096 31.3644 7.47636 31.9168 7.589 32.4669C7.63958 32.7154 7.66256 33.0748 7.5074 33.1465C7.32809 33.2297 7.10281 32.9604 6.9442 32.7755C6.33157 32.0567 5.87296 31.2558 5.66492 30.3231C5.56952 29.8978 5.68216 29.5153 5.92469 29.1675C6.10629 28.9051 6.33272 28.6821 6.59478 28.5018C8.04071 27.5125 9.53377 26.6042 11.1544 25.9223C11.2038 25.9015 11.2556 25.8853 11.3061 25.868C11.5693 25.749 11.8303 25.6253 12.1188 25.5768C12.2073 25.4993 12.3233 25.5144 12.4279 25.497C12.9934 25.3976 13.2969 25.6935 13.2302 26.2621Z" fill="#545454"/>
<path fill-rule="evenodd" clip-rule="evenodd" d="M99.4115 43.701V44.1899C99.2683 44.1945 99.2732 44.042 99.2381 43.9472C98.5659 42.0935 97.9024 40.2352 97.2282 38.3826C96.1302 35.3674 94.7954 32.5048 93.2483 29.7832C93.2064 29.7081 93.1703 29.6283 93.1323 29.5509C92.5789 28.6541 92.045 27.7411 91.4605 26.872C90.7716 25.8481 90.0711 24.8357 89.3015 23.8939C89.2644 23.8499 89.242 23.7898 89.2128 23.7378C88.6769 23.1045 88.1508 22.4597 87.6023 21.8425C85.5641 19.552 83.335 17.5607 80.9207 15.863C80.8691 15.8261 80.8223 15.7798 80.7726 15.7394C79.9776 15.2424 79.2021 14.7027 78.3934 14.2347C75.3186 12.4538 72.0977 11.1976 68.7481 10.3909C66.5443 9.86044 64.319 9.53339 62.0772 9.37621C60.8116 9.28838 59.5431 9.23984 58.2756 9.26874C57.0938 9.29416 55.91 9.34154 54.7302 9.45133C54.4418 9.47907 54.435 9.46751 54.5168 9.15201C54.624 8.73712 54.7458 8.32686 54.8393 7.90735C54.9036 7.61612 55.0507 7.50979 55.2875 7.52135C56.1731 7.56411 57.0587 7.593 57.9424 7.64732C58.7043 7.6947 59.4652 7.76751 60.2271 7.83454C61.4079 7.93739 62.5809 8.11999 63.7559 8.28988C65.1793 8.4979 66.6008 8.72441 68.0125 9.03529C70.9626 9.68478 73.8329 10.6579 76.6154 11.9869C77.7134 12.5116 78.7997 13.0779 79.8315 13.769C80.1842 14.0059 80.5661 14.1804 80.8954 14.4658C81.5102 14.8322 82.086 15.2771 82.6618 15.7209C85.0741 17.5827 87.2545 19.775 89.2313 22.2563C89.2674 22.3013 89.2946 22.3568 89.3258 22.4076C89.9571 23.1415 90.5174 23.9528 91.0776 24.7629C91.8482 25.8816 92.5799 27.0385 93.2697 28.23C93.2911 28.2669 93.3067 28.3074 93.3262 28.3467C93.9137 29.2978 94.4388 30.2975 94.9464 31.3087C96.4906 34.3874 97.7962 37.6014 98.7812 40.9921C99.0111 41.7803 99.1524 42.5974 99.3209 43.4063C99.3424 43.5057 99.3375 43.6213 99.4115 43.701Z" fill="#545454"/>
<path fill-rule="evenodd" clip-rule="evenodd" d="M32.5314 41.7898C32.3843 42.0359 32.2556 42.2971 32.0544 42.5086C31.7395 43.0044 31.3498 43.4332 30.9039 43.8111C30.4246 44.2687 29.8878 44.6374 29.2809 44.8997C28.7016 45.2245 28.0626 45.3793 27.4293 45.5515C26.1787 45.8901 24.988 46.3709 23.8638 47.0169C23.3006 47.3405 22.9386 47.8109 22.7811 48.443C22.7202 48.6892 22.6351 48.9273 22.5237 49.1561C22.2237 49.7721 21.7329 50.1165 21.0628 50.2378C20.0191 50.4262 19.0157 50.1997 18.0089 49.9789C17.5008 49.8668 17.0755 49.6357 16.6928 49.2774C16.1388 48.7585 16.0204 48.1472 16.2009 47.4445C16.3583 46.8285 16.7296 46.3617 17.2399 46.0011C17.4353 45.8636 17.6089 45.9179 17.779 46.0623C18.2422 46.4553 18.7789 46.6748 19.3858 46.6841C20.2053 46.6968 20.895 46.3825 21.4582 45.7907C21.7708 45.4625 22.0639 45.1181 22.3283 44.7518C22.7547 44.1601 23.3374 43.781 23.9868 43.4829C24.7569 43.1304 25.5178 42.7559 26.2879 42.4046C27.4109 41.8903 28.4016 41.205 29.1683 40.2181C29.1993 40.1637 29.2269 40.106 29.2625 40.0563C29.5143 39.7026 29.5051 39.3548 29.2464 39.0092C29.1982 38.9445 29.1556 38.8752 29.1108 38.8081C28.5798 38.2037 28.0131 37.6386 27.3683 37.1532C25.9224 36.0657 24.3225 35.2648 22.6455 34.6107C22.2673 34.4639 21.8972 34.301 21.5766 34.0433C21.0157 33.5914 20.8249 32.9338 21.1053 32.2682C21.2812 31.8533 21.4973 31.4546 21.7087 31.0558C21.8398 30.8085 22.0352 30.6883 22.3455 30.6964C23.511 30.7253 24.5742 31.0998 25.5822 31.6406C26.5982 32.1861 27.5752 32.7951 28.4511 33.559C28.7281 33.7994 29.0269 34.0155 29.2832 34.2802C29.8901 34.8187 30.4372 35.4093 30.9096 36.0703C31.3303 36.5754 31.6923 37.1197 31.9923 37.7056C32.4061 38.3852 32.79 39.0843 32.9383 39.8737C33.067 40.5555 32.8854 41.1969 32.5314 41.7898Z" fill="#545454"/>
<path fill-rule="evenodd" clip-rule="evenodd" d="M44.7082 1.06387C44.1748 1.22797 43.6289 1.3447 43.1117 1.56196C42.2967 1.7931 41.5094 2.09704 40.7462 2.46224C39.9508 2.84361 39.7416 3.89066 40.314 4.55402C40.56 4.83947 40.5623 4.89956 40.3405 5.20813C39.7612 6.01364 39.1807 6.81915 38.6014 7.6235C38.1118 8.29495 37.6199 8.96409 37.1325 9.63669C35.5004 11.8868 33.8683 14.1369 32.2384 16.3882C32.1005 16.5789 31.9419 16.7372 31.6982 16.7522C31.5258 16.7626 31.3902 16.8366 31.2534 16.9267C27.3765 19.4727 23.5008 22.0175 19.6227 24.5611C19.3986 24.7079 19.225 24.8963 19.1009 25.1355C17.6297 27.9461 16.1561 30.7556 14.6861 33.5673C14.6481 33.6401 14.57 33.7141 14.632 33.8216C14.6642 33.8031 14.6976 33.7892 14.724 33.7684C15.7941 32.8774 16.9009 32.0361 17.9963 31.1797C18.7653 30.5787 19.5963 30.1072 20.5342 29.8264C21.7215 29.4704 22.9192 29.5225 24.1203 29.7293C25.0754 29.8934 26.0133 30.1211 26.842 30.6492C27.557 31.1046 28.2707 31.5668 28.9454 32.0788C30.1753 33.0126 31.1247 34.2076 31.9327 35.5193C31.9902 35.6117 32.0223 35.7296 32.1396 35.7943C32.1614 35.718 32.1867 35.6591 32.1959 35.5967C32.435 33.9857 32.6729 32.3724 32.9097 30.7613C33.0372 29.8992 33.1763 29.0382 33.2832 28.1726C33.3338 27.7589 33.4234 27.3509 33.4637 26.9384C33.5165 26.4021 33.6315 25.8763 33.6867 25.3401C33.7395 24.8154 33.8832 24.2999 33.9464 23.7753C34.0108 23.2309 34.1016 22.6901 34.1728 22.1481C34.2659 21.4454 34.1947 20.7971 33.8154 20.2065C33.6361 19.9269 33.6326 19.6784 33.7924 19.4114C33.997 19.0682 34.2142 18.7342 34.4165 18.391C35.1602 17.1301 35.9015 15.867 36.6417 14.6026C37.3659 13.3661 38.0854 12.126 38.8072 10.8883C38.8543 10.8236 38.9049 10.7612 38.9474 10.6918C39.8129 9.23105 40.6715 7.76449 41.5439 6.30718C42.0669 5.43233 42.5668 4.54015 43.2542 3.77624C43.4691 3.59827 43.6657 3.39025 43.9024 3.2481C44.245 3.04123 44.4231 2.73613 44.5576 2.3825C44.7036 1.99881 44.776 1.59895 44.8426 1.19677C44.861 1.0708 44.8461 1.02111 44.7082 1.06387ZM30.958 25.6163C30.9373 25.6821 30.9235 25.7573 30.812 25.7885C30.8258 25.6463 30.8385 25.518 30.8488 25.3874C30.9316 24.2826 30.8304 23.1801 30.8017 22.0764C30.7959 21.8765 30.6833 21.8014 30.4971 21.8337C30.2753 21.873 30.0638 21.94 29.8626 22.0521C27.4845 23.3846 25.149 24.7842 22.9272 26.3709C22.8261 26.4426 22.7272 26.5316 22.5973 26.5477C22.4123 26.5732 22.0698 26.3859 22.0123 26.2218C21.9307 25.9884 22.0721 25.8312 22.2364 25.718C24.4226 24.2306 26.6213 22.7606 29.0718 21.732C29.4776 21.561 29.904 21.4385 30.3258 21.3125C30.9465 21.1264 31.2545 21.3298 31.3419 21.9701C31.5086 23.2182 31.327 24.4271 30.958 25.6163Z" fill="#545454"/>
<path fill-rule="evenodd" clip-rule="evenodd" d="M22.9402 35.7528C22.8919 35.8672 22.7655 35.8452 22.6563 35.8244C22.2621 35.7528 21.8598 35.7216 21.4724 35.6083C20.7529 35.5378 20.0598 35.3391 19.3553 35.1888C18.5438 35.0178 17.9381 35.2824 17.5254 35.9978C17.2139 36.5375 16.9186 37.0876 16.6105 37.6296C16.5737 37.6955 16.5461 37.8087 16.4599 37.7995C16.3645 37.7902 16.3381 37.6735 16.3071 37.5926C16.1496 37.1916 16.1278 36.7617 16.0852 36.341C16.0393 35.8857 15.8921 35.5193 15.5002 35.2385C14.9002 34.8074 14.9083 34.3359 15.4807 33.869C15.9875 33.4565 16.568 33.1594 17.122 32.8208C18.1541 32.191 19.1943 31.5762 20.2334 30.9602C20.5115 30.7949 20.7931 30.6343 21.1552 30.6378C21.0725 30.9717 20.8977 31.2456 20.769 31.538C20.6633 31.7784 20.5437 32.0119 20.4414 32.2534C20.1794 32.8728 20.3024 33.4241 20.7679 33.8945C21.015 34.1441 21.2839 34.3718 21.5437 34.6087C21.9598 34.9034 22.3782 35.1969 22.7942 35.4928C22.885 35.5575 22.9873 35.6384 22.9402 35.7528Z" fill="#545454"/>
<path fill-rule="evenodd" clip-rule="evenodd" d="M35.3062 10.9961C35.0579 11.3139 34.805 11.6294 34.5545 11.946C34.505 12.0084 34.466 12.0847 34.374 12.094C34.3786 12.1853 34.3154 12.2442 34.266 12.3055C33.512 13.2416 32.7557 14.1742 32.0017 15.1103C31.8293 15.3241 31.6178 15.4928 31.4051 15.6592C31.2557 15.776 31.0799 15.8395 30.9006 15.7413C30.7362 15.6511 30.6764 15.4836 30.6891 15.301C30.7362 14.6399 30.3925 14.2297 29.842 13.9488C28.8431 13.4392 27.765 13.1976 26.6719 13.0069C26.5133 12.9781 26.3547 12.9469 26.1949 12.9145C26.1708 12.9099 26.1501 12.8914 26.1064 12.8683C28.7926 11.857 31.5086 11.0458 34.366 10.7984C34.7188 10.7603 35.0717 10.7071 35.4303 10.7337C35.4475 10.8574 35.3636 10.9221 35.3062 10.9961Z" fill="#545454"/>
<path fill-rule="evenodd" clip-rule="evenodd" d="M15.9786 43.378C15.8648 43.3769 15.7419 43.4012 15.6407 43.3168C15.4844 43.296 15.3407 43.2359 15.2085 43.1504C14.5155 42.8788 13.9396 42.4339 13.4373 41.8953C12.7822 41.1915 12.1661 40.4565 11.9282 39.4869C11.827 39.072 11.8696 38.6964 12.2201 38.404C12.3351 38.3081 12.3971 38.2931 12.4638 38.4687C12.5523 38.7045 12.5396 38.9483 12.5776 39.1887C12.7167 40.0474 13.1902 40.7027 13.8327 41.2504C14.0867 41.4677 14.3557 41.6653 14.6223 41.8664C14.7063 41.9288 14.8074 42.0039 14.9177 41.9323C15.0131 41.8699 15.0028 41.7566 14.9947 41.6584C14.9154 40.7304 14.8097 39.8024 14.7557 38.8732C14.7028 37.9706 14.4511 37.1131 14.2695 36.2371C14.1821 35.8176 14.2339 35.3888 14.3304 34.9705C14.3591 34.8457 14.4166 34.6954 14.5442 34.6931C14.6626 34.692 14.766 34.811 14.8039 34.9416C15.0039 35.6246 15.2706 36.2926 15.3476 37.0091C15.4522 37.5442 15.4453 38.0874 15.4269 38.6259C15.3936 39.5689 15.4465 40.4993 15.7143 41.4088C15.8959 41.9554 16.128 42.487 16.2499 43.0521C16.3211 43.3769 16.3097 43.3838 15.9786 43.378Z" fill="#545454"/>
<path fill-rule="evenodd" clip-rule="evenodd" d="M28.562 39.7522C28.4815 39.892 28.3884 40.0203 28.262 40.1232C27.6896 40.7807 26.9574 41.2314 26.2287 41.6787C24.977 42.4472 23.6288 42.9985 22.2219 43.4064C22.0575 43.4538 21.8909 43.4966 21.7173 43.4873C21.5783 43.4804 21.4346 43.4573 21.3817 43.3094C21.3311 43.1649 21.4093 43.0459 21.5185 42.9523C21.7254 42.7766 21.9449 42.6183 22.1909 42.5015C23.7954 41.7411 25.0356 40.5496 26.1103 39.1616C26.2436 38.9906 26.3678 38.8091 26.5195 38.6566C27.039 38.1319 27.9022 38.2325 28.2574 38.8496C28.6803 39.0507 28.7861 39.3616 28.562 39.7522Z" fill="#545454"/>
<path fill-rule="evenodd" clip-rule="evenodd" d="M21.4328 45.0292C21.3167 45.0535 21.2708 44.9726 21.2145 44.9091C19.9444 44.144 19.0708 43.0299 18.449 41.6142C18.2663 42.0996 18.2283 42.5076 18.2168 42.9224C18.1927 43.7603 18.3571 44.582 18.4203 45.4106C18.4249 45.4649 18.4306 45.5181 18.4352 45.5724C18.4398 45.629 18.4421 45.6857 18.3766 45.7076C18.3111 45.7307 18.2801 45.6787 18.249 45.6337C18.0743 45.3829 18.0042 45.094 17.9421 44.8004C17.6306 43.3223 17.5674 41.843 17.8536 40.3534C17.9226 39.9974 18.0927 39.6923 18.2594 39.3838C18.3237 39.2647 18.4467 39.1538 18.5525 39.1792C18.68 39.2104 18.7191 39.3768 18.7168 39.5155C18.703 40.0344 18.7548 40.5487 18.9019 41.0456C19.218 42.1088 19.803 42.9895 20.6846 43.669C20.9018 43.8366 21.1432 43.9949 21.2213 44.2896C21.4294 44.4976 21.4144 44.7646 21.4328 45.0292Z" fill="#545454"/>
<path fill-rule="evenodd" clip-rule="evenodd" d="M14.5851 33.883L14.5815 33.8652L14.5946 33.8676L14.5851 33.883Z" fill="#545454"/>
</svg>
