<svg width="67" height="47" viewBox="0 0 67 47" fill="none" xmlns="http://www.w3.org/2000/svg">
<path d="M2.99525 36.1002C2.99525 37.187 2.38455 38.1102 1.53296 38.4499L1.56039 38.5827H8.44544C8.55099 38.5885 8.65654 38.5915 8.76373 38.5915C12.0704 38.5915 14.729 35.9015 14.5212 32.6607C14.3414 29.8858 12.0045 27.6261 9.13261 27.4542C5.77802 27.2526 2.99515 29.8204 2.99515 33.0171L2.99624 33.1223H2.99515V36.1002H2.99525Z" fill="#535252"/>
<path d="M5.42267 39.1182C2.42824 39.1182 0 41.4639 0 44.3576V46.9001H17.5249V44.3576C17.5249 41.4639 15.0972 39.1182 12.1022 39.1182H5.42267Z" fill="#535252"/>
<path d="M57.3763 25.8955V2.98348C57.3763 1.33893 56.0481 0 54.4153 0H12.1761C10.5445 0 9.21509 1.33884 9.21509 2.98348V26.2143C9.89464 26.2653 10.5279 26.3806 11.1074 26.5636V2.98348C11.1074 2.34574 11.5863 1.82676 12.1761 1.82676H54.4153C55.0063 1.82676 55.4851 2.34574 55.4851 2.98348V26.4642C56.0569 26.204 56.6902 26.013 57.3763 25.8955Z" fill="#535252"/>
<path d="M17.6084 33.8944C17.6084 36.1842 19.5292 38.0407 21.8975 38.0407C24.2692 38.0407 26.1916 36.1842 26.1916 33.8944C26.1916 31.6037 24.2692 29.7463 21.8975 29.7463C19.5292 29.7464 17.6084 31.6037 17.6084 33.8944Z" fill="#535252"/>
<path d="M27.667 32.9171C27.667 36.0171 30.2695 38.5312 33.4778 38.5312C36.6878 38.5312 39.2897 36.0171 39.2897 32.9171C39.2897 29.8161 36.6877 27.3019 33.4778 27.3019C30.2695 27.3019 27.667 29.8161 27.667 32.9171Z" fill="#535252"/>
<path d="M30.1141 39.0612C27.0972 39.0612 24.6519 41.4237 24.6519 44.3391V46.9H42.3042V44.3391C42.3042 41.4237 39.8601 39.0612 36.8408 39.0612H30.1141Z" fill="#535252"/>
<path d="M58.1741 27.3019C54.9647 27.3019 52.3633 29.8161 52.3633 32.9171C52.3633 36.0171 54.9647 38.5312 58.1741 38.5312C61.3835 38.5312 63.9855 36.0171 63.9855 32.9171C63.9855 29.8161 61.3835 27.3019 58.1741 27.3019Z" fill="#535252"/>
<path d="M54.8125 39.0612C51.7954 39.0612 49.3491 41.4237 49.3491 44.3391V46.9H67.0005V44.3391C67.0005 41.4237 64.5563 39.0612 61.5377 39.0612H54.8125Z" fill="#535252"/>
<path d="M42.5724 38.4322C41.6367 38.4322 40.7753 38.7427 40.0908 39.2603C41.8214 40.2962 42.9858 42.126 43.0276 44.2227H48.7043C48.7395 42.5279 49.5146 41.01 50.7323 39.9524C49.994 39.0292 48.8406 38.4321 47.5405 38.4321L42.5724 38.4322Z" fill="#535252"/>
<path d="M16.2239 39.9526C17.4399 41.0102 18.2167 42.5281 18.2513 44.2228H23.9434C23.9852 42.1294 25.1463 40.301 26.8703 39.2652C26.1842 38.7452 25.3233 38.4324 24.3833 38.4324H19.4141C18.115 38.4323 16.9606 39.0294 16.2239 39.9526Z" fill="#535252"/>
<path d="M44.7403 29.7628C42.599 29.8914 40.8552 31.5747 40.7223 33.6453C40.5661 36.0614 42.5485 38.0672 45.0136 38.0672L45.2511 38.0608H50.3852L50.405 37.9611C49.77 37.708 49.3153 37.0199 49.3153 36.21V33.9891H49.3131L49.3153 33.9108C49.3153 31.5272 47.24 29.6125 44.7403 29.7628Z" fill="#535252"/>
<path d="M40.3863 6.06918C38.9184 4.75526 36.7277 3.8701 34.416 3.82568L34.3611 12.0692L40.3863 6.06918Z" fill="#535252"/>
<path d="M32.811 3.77002C26.771 3.77002 22.3108 8.50162 22.3108 14.3372C22.3108 20.1726 27.2058 24.9045 33.247 24.9045C37.4806 24.9045 41.4195 22.4875 42.8708 19.3698L33.0309 14.3372V3.77537L32.811 3.77002Z" fill="#535252"/>
<path d="M37.779 15.205L40.0242 8.2926L38.4492 9.85676L36.8665 14.7326L37.779 15.205Z" fill="#A5B9B3"/>
<path d="M36.5944 14.5912L37.9832 10.3196L36.4075 11.8829L35.6802 14.1187L36.5944 14.5912Z" fill="#A5B9B3"/>
<path d="M41.3328 17.0438L43.5476 10.2244C43.3608 9.78116 43.1431 9.35565 42.8951 8.94849L40.418 16.5713L41.3328 17.0438Z" fill="#A5B9B3"/>
<path d="M42.5175 17.657L44.191 12.5073C44.0982 11.876 43.9386 11.2582 43.7226 10.6641L41.6028 17.1836L42.5175 17.657Z" fill="#A5B9B3"/>
<path d="M43.3237 18.0745C44.0109 16.7903 44.2835 15.2823 44.2835 13.7379C44.2835 13.5719 44.278 13.4069 44.2665 13.2423L42.7871 17.7967L43.3237 18.0745Z" fill="#A5B9B3"/>
<path d="M38.0493 15.3449L38.9641 15.8168L41.7085 7.36875C41.5887 7.23806 41.466 7.11088 41.3385 6.98792L40.4908 7.82963L38.0493 15.3449Z" fill="#A5B9B3"/>
<path d="M35.9419 12.3469L34.6797 13.5998L35.4108 13.979L35.9419 12.3469Z" fill="#A5B9B3"/>
<path d="M40.1484 16.4307L42.686 8.61768C42.4584 8.27107 42.2088 7.93983 41.9406 7.62781L39.2336 15.9582L40.1484 16.4307Z" fill="#A5B9B3"/>
</svg>
