<svg width="100" height="64" viewBox="0 0 100 64" fill="none" xmlns="http://www.w3.org/2000/svg">
<path d="M50.1909 36.5C50.4336 36.5 50.6109 36.556 50.7229 36.668C50.8069 36.752 50.8396 36.85 50.8209 36.962C50.8116 37.0553 50.7883 37.13 50.7509 37.186C50.7229 37.2327 50.6903 37.27 50.6529 37.298C50.6063 37.326 50.5503 37.3587 50.4849 37.396C50.4289 37.424 50.3636 37.4427 50.2889 37.452C50.0463 37.4707 49.8503 37.4893 49.7009 37.508C49.5516 37.5173 49.4256 37.5267 49.3229 37.536C49.2203 37.536 49.1223 37.5407 49.0289 37.55C48.9449 37.55 48.8469 37.5547 48.7349 37.564C48.6229 37.564 48.4876 37.5733 48.3289 37.592C48.1703 37.6013 47.9649 37.6153 47.7129 37.634C47.6663 37.9327 47.6056 38.3247 47.5309 38.81C47.4656 39.2953 47.3909 39.8973 47.3069 40.616C47.0456 42.6787 46.8776 44.4053 46.8029 45.796C46.7936 45.9827 46.7983 46.2067 46.8169 46.468C46.8356 46.72 46.8683 47.0093 46.9149 47.336C46.9243 47.4013 46.9056 47.4573 46.8589 47.504C46.8216 47.5413 46.7749 47.56 46.7189 47.56H46.6909C46.5323 47.532 46.3689 47.4713 46.2009 47.378C46.1823 47.3687 46.1683 47.3593 46.1589 47.35C46.1589 47.35 46.1496 47.3453 46.1309 47.336C45.8883 47.056 45.7669 46.5893 45.7669 45.936C45.7669 44.928 45.8509 43.5 46.0189 41.652C46.1869 39.832 46.2709 38.6747 46.2709 38.18C46.2709 38.1053 46.2663 38.0353 46.2569 37.97C46.2569 37.8953 46.2569 37.8253 46.2569 37.76C46.0143 37.76 45.7623 37.7693 45.5009 37.788C45.2396 37.7973 44.9783 37.8207 44.7169 37.858C44.4556 37.8953 44.2083 37.9513 43.9749 38.026C43.7416 38.0913 43.5409 38.18 43.3729 38.292C43.2796 38.3573 43.2329 38.4087 43.2329 38.446C43.2329 38.4647 43.2423 38.4927 43.2609 38.53C43.2796 38.5673 43.3496 38.6093 43.4709 38.656C43.5736 38.7027 43.7089 38.74 43.8769 38.768C44.0543 38.796 44.2596 38.8007 44.4929 38.782C44.6049 38.7727 44.7496 38.754 44.9269 38.726C45.1043 38.698 45.2723 38.6747 45.4309 38.656C45.5896 38.6373 45.7249 38.6327 45.8369 38.642C45.9583 38.6513 46.0189 38.6887 46.0189 38.754C46.0189 38.7913 46.0096 38.8287 45.9909 38.866C45.8789 39.0527 45.7529 39.1973 45.6129 39.3C45.4823 39.4027 45.3376 39.482 45.1789 39.538C45.0763 39.5753 44.9689 39.608 44.8569 39.636C44.7449 39.664 44.5536 39.6827 44.2829 39.692C43.9469 39.7013 43.6576 39.678 43.4149 39.622C43.1816 39.5567 42.9856 39.468 42.8269 39.356C42.6683 39.2253 42.5423 39.0667 42.4489 38.88C42.3556 38.6933 42.3183 38.4647 42.3369 38.194C42.3369 38.1287 42.3509 38.0447 42.3789 37.942C42.4069 37.83 42.4536 37.718 42.5189 37.606C42.5936 37.494 42.6963 37.3913 42.8269 37.298C42.9576 37.1953 43.1256 37.116 43.3309 37.06C43.5456 37.004 43.8536 36.948 44.2549 36.892C44.6563 36.836 45.1229 36.7847 45.6549 36.738C45.8323 36.7287 45.9629 36.7193 46.0469 36.71C46.1403 36.7007 46.2196 36.696 46.2849 36.696C46.3503 36.6867 46.4156 36.682 46.4809 36.682C46.5463 36.682 46.6396 36.682 46.7609 36.682C46.8916 36.6727 47.0689 36.6633 47.2929 36.654C47.5169 36.6447 47.8156 36.6307 48.1889 36.612C48.6463 36.5933 48.9729 36.5793 49.1689 36.57C49.3743 36.5513 49.5236 36.5373 49.6169 36.528C49.7103 36.5187 49.7849 36.514 49.8409 36.514C49.8969 36.5047 50.0136 36.5 50.1909 36.5ZM55.0523 42.156C55.2016 42.156 55.2763 42.2913 55.2763 42.562C55.2763 42.5807 55.2716 42.6087 55.2623 42.646C55.2623 42.6833 55.2436 42.772 55.2063 42.912C55.1783 43.052 55.127 43.2573 55.0523 43.528C54.987 43.7893 54.889 44.1533 54.7583 44.62C54.5343 45.432 54.3896 45.9173 54.3243 46.076C54.119 46.5893 53.839 46.846 53.4843 46.846C52.8123 46.846 52.4203 46.2253 52.3083 44.984V44.97L52.2943 44.76V43.766C52.2103 44.0927 52.1076 44.508 51.9863 45.012C51.865 45.516 51.7156 46.1553 51.5383 46.93L51.5243 47.014L51.4543 47.056C51.3516 47.1213 51.2443 47.154 51.1323 47.154C50.8616 47.154 50.661 46.944 50.5303 46.524C50.3996 46.0947 50.3343 45.4227 50.3343 44.508C50.3343 44.2653 50.3623 43.85 50.4183 43.262C50.4743 42.6647 50.563 41.876 50.6843 40.896C50.7963 39.9347 50.8803 39.146 50.9363 38.53C51.0016 37.9047 51.0343 37.4567 51.0343 37.186V36.724L51.0483 36.682C51.0856 36.6073 51.151 36.5327 51.2443 36.458C51.3376 36.3833 51.4776 36.346 51.6643 36.346H51.7063C52.033 36.3647 52.1963 36.5187 52.1963 36.808C52.1963 36.9853 52.1636 37.1767 52.0983 37.382C52.0143 37.6247 51.9583 37.8487 51.9303 38.054C51.697 39.5007 51.5196 40.7607 51.3983 41.834C51.2863 42.9073 51.2303 43.8033 51.2303 44.522C51.2396 44.5407 51.2443 44.564 51.2443 44.592C51.2443 44.62 51.2443 44.6573 51.2443 44.704C51.2536 44.7413 51.263 44.788 51.2723 44.844V44.872C51.319 44.6853 51.3703 44.48 51.4263 44.256C51.4916 44.032 51.5616 43.7847 51.6363 43.514C51.795 42.8793 51.921 42.38 52.0143 42.016C52.1076 41.6427 52.1636 41.4 52.1823 41.288C52.229 41.0547 52.299 40.9053 52.3923 40.84C52.495 40.7653 52.593 40.728 52.6863 40.728C52.7516 40.728 52.8356 40.7513 52.9383 40.798C53.0503 40.8447 53.223 40.9707 53.4563 41.176L53.5403 41.246L53.5263 41.358C53.2556 42.7953 53.1203 43.9713 53.1203 44.886C53.1203 45.194 53.1436 45.4413 53.1903 45.628C53.2463 45.8053 53.3163 45.894 53.4003 45.894C53.4096 45.894 53.4423 45.8707 53.4983 45.824C53.5543 45.768 53.629 45.642 53.7223 45.446C53.797 45.2873 53.8856 45.0913 53.9883 44.858C54.091 44.6153 54.1843 44.3353 54.2683 44.018C54.315 43.85 54.3756 43.654 54.4503 43.43C54.525 43.1967 54.5996 42.9353 54.6743 42.646C54.693 42.5713 54.7256 42.4733 54.7723 42.352C54.8283 42.2213 54.9216 42.156 55.0523 42.156ZM58.7469 42.03C58.9709 42.03 59.0829 42.142 59.0829 42.366C59.0829 42.6087 59.0502 42.87 58.9849 43.15C58.9196 43.4207 58.8169 43.71 58.6769 44.018C58.4062 44.6247 58.0422 44.928 57.5849 44.928C57.5569 44.928 57.5196 44.9233 57.4729 44.914C57.4262 44.8953 57.3376 44.8627 57.2069 44.816C57.1882 44.9093 57.1649 45.0073 57.1369 45.11C57.1182 45.2033 57.0949 45.306 57.0669 45.418V45.446C56.9829 45.6887 56.9082 45.8893 56.8429 46.048C56.7776 46.2067 56.7169 46.3327 56.6609 46.426C56.4182 46.818 56.1149 47.014 55.7509 47.014C55.3029 47.014 54.9716 46.79 54.7569 46.342C54.5609 45.9407 54.4629 45.348 54.4629 44.564C54.4629 43.6307 54.5376 42.982 54.6869 42.618V42.534C54.6776 42.478 54.6729 42.4313 54.6729 42.394C54.6729 42.3473 54.6729 42.3053 54.6729 42.268V42.254C54.6916 42.114 54.7289 42.016 54.7849 41.96C54.7942 41.9227 54.8082 41.862 54.8269 41.778C54.8456 41.694 54.8782 41.5587 54.9249 41.372C54.9529 41.232 54.9949 41.12 55.0509 41.036C55.1162 40.952 55.1816 40.8867 55.2469 40.84C55.3122 40.7933 55.3776 40.7653 55.4429 40.756C55.5082 40.7373 55.5689 40.728 55.6249 40.728C55.9142 40.728 56.2222 40.8493 56.5489 41.092C56.8756 41.3253 57.0902 41.5867 57.1929 41.876C57.2022 41.9133 57.2116 41.9693 57.2209 42.044C57.2396 42.1187 57.2536 42.2353 57.2629 42.394C57.2722 42.5433 57.2816 42.7487 57.2909 43.01C57.3002 43.2713 57.3049 43.6027 57.3049 44.004C57.3516 44.0413 57.4076 44.06 57.4729 44.06C57.5569 44.06 57.6502 44.0367 57.7529 43.99C57.8649 43.9433 57.9722 43.8127 58.0749 43.598C58.0936 43.542 58.1262 43.4347 58.1729 43.276C58.2289 43.108 58.2989 42.8327 58.3829 42.45C58.4389 42.17 58.5602 42.03 58.7469 42.03ZM56.0869 45.67C56.2269 45.362 56.3156 45.124 56.3529 44.956C56.3996 44.7787 56.4229 44.6527 56.4229 44.578C56.4229 44.4473 56.4136 44.2933 56.3949 44.116C56.3762 43.9387 56.3482 43.7427 56.3109 43.528C56.2549 43.2293 56.2176 43.024 56.1989 42.912C56.1896 42.8 56.1849 42.7207 56.1849 42.674C56.1849 42.6273 56.1849 42.576 56.1849 42.52C56.1849 42.464 56.1942 42.3987 56.2129 42.324C56.2222 42.2493 56.2269 42.1887 56.2269 42.142C56.2269 42.086 56.2269 42.044 56.2269 42.016C56.2269 41.8853 56.2036 41.8013 56.1569 41.764C56.1102 41.7173 56.0496 41.694 55.9749 41.694C55.9656 41.7033 55.9469 41.7267 55.9189 41.764C55.9002 41.8013 55.8722 41.8667 55.8349 41.96C55.8069 42.044 55.7696 42.1653 55.7229 42.324C55.6856 42.4827 55.6436 42.688 55.5969 42.94C55.5222 43.332 55.4662 43.6773 55.4289 43.976C55.3916 44.2653 55.3729 44.5173 55.3729 44.732C55.3729 44.8627 55.3776 45.0073 55.3869 45.166C55.3962 45.3247 55.4149 45.4787 55.4429 45.628C55.4802 45.768 55.5269 45.8893 55.5829 45.992C55.6389 46.0853 55.7136 46.1367 55.8069 46.146C55.8256 46.1273 55.8536 46.09 55.8909 46.034C55.9376 45.9687 56.0029 45.8473 56.0869 45.67ZM64.8466 41.932C64.9213 41.932 64.9913 41.96 65.0566 42.016C65.122 42.072 65.1546 42.17 65.1546 42.31C65.1546 42.338 65.15 42.38 65.1406 42.436C65.1406 42.492 65.1313 42.5713 65.1126 42.674C65.094 42.7767 65.066 42.9073 65.0286 43.066C64.9913 43.2247 64.94 43.4207 64.8746 43.654C64.772 43.9993 64.6693 44.3307 64.5666 44.648C64.464 44.9653 64.3566 45.2687 64.2446 45.558C63.9273 46.4167 63.5446 46.846 63.0966 46.846C62.574 46.846 62.2566 46.3607 62.1446 45.39C62.1353 45.39 62.1306 45.3853 62.1306 45.376V45.04C62.0653 45.2453 62.0093 45.418 61.9626 45.558C61.9253 45.6887 61.8926 45.7867 61.8646 45.852C61.6126 46.5147 61.314 46.846 60.9686 46.846C60.8846 46.846 60.8006 46.832 60.7166 46.804C60.6326 46.776 60.5533 46.72 60.4786 46.636C60.4133 46.552 60.3573 46.44 60.3106 46.3C60.264 46.1507 60.2406 45.964 60.2406 45.74C60.2406 45.6187 60.2686 45.222 60.3246 44.55C60.3433 44.3633 60.3526 44.186 60.3526 44.018C60.362 43.85 60.3713 43.6913 60.3806 43.542C60.3526 43.626 60.3246 43.7473 60.2966 43.906C60.0913 44.9327 59.9466 45.586 59.8626 45.866C59.6106 46.6593 59.2886 47.056 58.8966 47.056C58.7473 47.056 58.6306 47.0047 58.5466 46.902C58.4626 46.79 58.3973 46.6547 58.3506 46.496C58.304 46.328 58.2713 46.146 58.2526 45.95C58.2433 45.754 58.2386 45.5627 58.2386 45.376C58.2386 45.2733 58.2386 45.1427 58.2386 44.984C58.248 44.816 58.2573 44.6153 58.2666 44.382C58.276 44.186 58.2806 44.0227 58.2806 43.892C58.2806 43.752 58.2806 43.6353 58.2806 43.542L58.1686 43.234C58.1593 43.2247 58.1546 43.206 58.1546 43.178C58.1173 42.6273 58.1826 42.2587 58.3506 42.072C58.444 41.9787 58.556 41.932 58.6866 41.932C58.7426 41.932 58.8033 41.9413 58.8686 41.96C58.9433 41.9787 59.0086 42.016 59.0646 42.072C59.1206 42.128 59.1673 42.2073 59.2046 42.31C59.2513 42.4127 59.2746 42.548 59.2746 42.716C59.2746 43.108 59.2373 43.4767 59.1626 43.822C59.0973 44.1113 59.0646 44.4707 59.0646 44.9C59.0646 45.0027 59.0646 45.1053 59.0646 45.208C59.0646 45.3013 59.0693 45.3947 59.0786 45.488C59.0973 45.4227 59.116 45.362 59.1346 45.306C59.1533 45.2407 59.172 45.1753 59.1906 45.11C59.3026 44.494 59.4053 43.9853 59.4986 43.584C59.592 43.1733 59.6853 42.8513 59.7786 42.618C59.7973 42.5713 59.8253 42.506 59.8626 42.422C59.9 42.3287 59.9466 42.24 60.0026 42.156C60.068 42.0627 60.1426 41.9833 60.2266 41.918C60.32 41.8527 60.4273 41.82 60.5486 41.82C60.6233 41.82 60.7073 41.8433 60.8006 41.89C60.9033 41.9367 60.992 42.0393 61.0666 42.198C61.16 42.3847 61.2066 42.6647 61.2066 43.038V43.052C61.16 43.4813 61.1226 43.8687 61.0946 44.214C61.0666 44.55 61.0526 44.844 61.0526 45.096C61.0526 45.1987 61.0526 45.2827 61.0526 45.348C61.062 45.404 61.0666 45.4553 61.0666 45.502C61.1226 45.4273 61.1926 45.2733 61.2766 45.04C61.37 44.8067 61.482 44.4427 61.6126 43.948C61.7153 43.5653 61.7946 43.2573 61.8506 43.024C61.9066 42.7813 61.9486 42.59 61.9766 42.45C62.0046 42.31 62.0186 42.2167 62.0186 42.17C62.0186 42.114 62.0186 42.0767 62.0186 42.058V41.988C62.0373 41.9227 62.0793 41.8527 62.1446 41.778C62.21 41.694 62.3406 41.652 62.5366 41.652C62.7046 41.652 62.9333 41.7453 63.2226 41.932C63.3066 41.988 63.3346 42.058 63.3066 42.142C63.064 43.3087 62.9426 44.27 62.9426 45.026C62.9426 45.2407 62.9473 45.4133 62.9566 45.544C62.9753 45.6653 62.994 45.7587 63.0126 45.824C63.0406 45.8987 63.0686 45.95 63.0966 45.978C63.106 45.978 63.1246 45.9687 63.1526 45.95C63.19 45.9313 63.2366 45.8847 63.2926 45.81C63.358 45.726 63.4326 45.6 63.5166 45.432C63.6006 45.2547 63.694 45.012 63.7966 44.704V44.69C63.806 44.6807 63.82 44.648 63.8386 44.592C63.8573 44.5267 63.8853 44.4193 63.9226 44.27C63.9693 44.1207 64.0253 43.9153 64.0906 43.654C64.1653 43.3927 64.2586 43.0567 64.3706 42.646C64.3893 42.5993 64.4033 42.548 64.4126 42.492C64.4313 42.436 64.45 42.38 64.4686 42.324L64.4966 42.198V42.184C64.562 42.016 64.6786 41.932 64.8466 41.932ZM65.5266 41.988C65.5266 42.1747 65.5546 42.408 65.6106 42.688C65.6759 42.968 65.7693 43.304 65.8906 43.696C66.0213 44.1067 66.1146 44.4567 66.1706 44.746C66.2266 45.026 66.2546 45.2547 66.2546 45.432C66.2546 45.9173 66.1519 46.3093 65.9466 46.608C65.7133 46.9533 65.4286 47.126 65.0926 47.126C64.7379 47.126 64.4206 46.972 64.1406 46.664C63.9446 46.4587 63.8466 46.2533 63.8466 46.048C63.8466 45.7587 63.9399 45.5907 64.1266 45.544C64.1359 45.544 64.1453 45.544 64.1546 45.544C64.1546 45.5347 64.1593 45.53 64.1686 45.53C64.2153 45.53 64.2759 45.5533 64.3506 45.6C64.4253 45.6373 64.4673 45.7493 64.4766 45.936C64.6073 46.2067 64.7286 46.342 64.8406 46.342C64.8873 46.342 64.9386 46.3327 64.9946 46.314C65.0599 46.286 65.1206 46.2207 65.1766 46.118C65.2793 45.9313 65.3306 45.684 65.3306 45.376C65.3306 45.012 65.2373 44.508 65.0506 43.864V43.85C65.0319 43.8033 65.0133 43.752 64.9946 43.696C64.9853 43.6307 64.9713 43.57 64.9526 43.514C64.9153 43.626 64.8826 43.7427 64.8546 43.864C64.8266 43.976 64.7939 44.088 64.7566 44.2V44.214C64.7379 44.2513 64.7146 44.3073 64.6866 44.382C64.6586 44.4567 64.6213 44.5313 64.5746 44.606C64.5279 44.6713 64.4719 44.732 64.4066 44.788C64.3413 44.8347 64.2619 44.858 64.1686 44.858C64.0939 44.858 64.0239 44.8393 63.9586 44.802C63.8559 44.7553 63.8233 44.6807 63.8606 44.578C63.9259 44.3167 63.9913 44.0553 64.0566 43.794C64.1219 43.5327 64.1873 43.276 64.2526 43.024C64.3273 42.772 64.3786 42.506 64.4066 42.226C64.4346 41.9367 64.4486 41.6333 64.4486 41.316C64.4486 41.1293 64.4999 40.9847 64.6026 40.882C64.7053 40.77 64.8499 40.714 65.0366 40.714C65.1766 40.714 65.2886 40.7327 65.3726 40.77C65.4659 40.8073 65.5313 40.854 65.5686 40.91C65.6153 40.9567 65.6433 41.008 65.6526 41.064C65.6713 41.1107 65.6806 41.1527 65.6806 41.19C65.6806 41.2087 65.6759 41.2413 65.6666 41.288C65.6573 41.3347 65.6339 41.428 65.5966 41.568C65.5499 41.7547 65.5266 41.8947 65.5266 41.988ZM71.1746 42.03C71.3986 42.03 71.5106 42.142 71.5106 42.366C71.5106 42.6087 71.478 42.87 71.4126 43.15C71.3473 43.4207 71.2446 43.71 71.1046 44.018C70.834 44.6247 70.47 44.928 70.0126 44.928C69.9846 44.928 69.9473 44.9233 69.9006 44.914C69.854 44.8953 69.7653 44.8627 69.6346 44.816C69.616 44.9093 69.5926 45.0073 69.5646 45.11C69.546 45.2033 69.5226 45.306 69.4946 45.418V45.446C69.4106 45.6887 69.336 45.8893 69.2706 46.048C69.2053 46.2067 69.1446 46.3327 69.0886 46.426C68.846 46.818 68.5426 47.014 68.1786 47.014C67.7306 47.014 67.3993 46.79 67.1846 46.342C66.9886 45.9407 66.8906 45.348 66.8906 44.564C66.8906 43.6307 66.9653 42.982 67.1146 42.618V42.534C67.1053 42.478 67.1006 42.4313 67.1006 42.394C67.1006 42.3473 67.1006 42.3053 67.1006 42.268V42.254C67.1193 42.114 67.1566 42.016 67.2126 41.96C67.222 41.9227 67.236 41.862 67.2546 41.778C67.2733 41.694 67.306 41.5587 67.3526 41.372C67.3806 41.232 67.4226 41.12 67.4786 41.036C67.544 40.952 67.6093 40.8867 67.6746 40.84C67.74 40.7933 67.8053 40.7653 67.8706 40.756C67.936 40.7373 67.9966 40.728 68.0526 40.728C68.342 40.728 68.65 40.8493 68.9766 41.092C69.3033 41.3253 69.518 41.5867 69.6206 41.876C69.63 41.9133 69.6393 41.9693 69.6486 42.044C69.6673 42.1187 69.6813 42.2353 69.6906 42.394C69.7 42.5433 69.7093 42.7487 69.7186 43.01C69.728 43.2713 69.7326 43.6027 69.7326 44.004C69.7793 44.0413 69.8353 44.06 69.9006 44.06C69.9846 44.06 70.078 44.0367 70.1806 43.99C70.2926 43.9433 70.4 43.8127 70.5026 43.598C70.5213 43.542 70.554 43.4347 70.6006 43.276C70.6566 43.108 70.7266 42.8327 70.8106 42.45C70.8666 42.17 70.988 42.03 71.1746 42.03ZM68.5146 45.67C68.6546 45.362 68.7433 45.124 68.7806 44.956C68.8273 44.7787 68.8506 44.6527 68.8506 44.578C68.8506 44.4473 68.8413 44.2933 68.8226 44.116C68.804 43.9387 68.776 43.7427 68.7386 43.528C68.6826 43.2293 68.6453 43.024 68.6266 42.912C68.6173 42.8 68.6126 42.7207 68.6126 42.674C68.6126 42.6273 68.6126 42.576 68.6126 42.52C68.6126 42.464 68.622 42.3987 68.6406 42.324C68.65 42.2493 68.6546 42.1887 68.6546 42.142C68.6546 42.086 68.6546 42.044 68.6546 42.016C68.6546 41.8853 68.6313 41.8013 68.5846 41.764C68.538 41.7173 68.4773 41.694 68.4026 41.694C68.3933 41.7033 68.3746 41.7267 68.3466 41.764C68.328 41.8013 68.3 41.8667 68.2626 41.96C68.2346 42.044 68.1973 42.1653 68.1506 42.324C68.1133 42.4827 68.0713 42.688 68.0246 42.94C67.95 43.332 67.894 43.6773 67.8566 43.976C67.8193 44.2653 67.8006 44.5173 67.8006 44.732C67.8006 44.8627 67.8053 45.0073 67.8146 45.166C67.824 45.3247 67.8426 45.4787 67.8706 45.628C67.908 45.768 67.9546 45.8893 68.0106 45.992C68.0666 46.0853 68.1413 46.1367 68.2346 46.146C68.2533 46.1273 68.2813 46.09 68.3186 46.034C68.3653 45.9687 68.4306 45.8473 68.5146 45.67ZM72.6043 37.158C72.5203 37.4847 72.4129 37.8393 72.2823 38.222C72.1516 38.6047 72.0069 38.9873 71.8483 39.37C71.6989 39.7433 71.5496 40.098 71.4003 40.434H70.4903C70.5556 40.1727 70.6209 39.8927 70.6863 39.594C70.7609 39.2953 70.8263 38.9967 70.8823 38.698C70.9476 38.39 71.0036 38.0913 71.0503 37.802C71.1063 37.5127 71.1529 37.2467 71.1903 37.004H72.5063L72.6043 37.158ZM80.3855 46.342C80.4695 46.3607 80.5675 46.3933 80.6795 46.44C80.7915 46.4773 80.8475 46.5613 80.8475 46.692C80.8475 46.8693 80.8055 47.0233 80.7215 47.154C80.6842 47.2007 80.6282 47.2427 80.5535 47.28C80.4882 47.3173 80.4042 47.336 80.3015 47.336C80.2735 47.3267 80.2409 47.3173 80.2035 47.308C80.1662 47.308 80.0962 47.3033 79.9935 47.294C79.8629 47.2753 79.6529 47.2613 79.3635 47.252C79.0835 47.2427 78.7195 47.238 78.2715 47.238C77.5809 47.238 76.8995 47.322 76.2275 47.49C75.5462 47.6673 75.0842 47.756 74.8415 47.756C74.5055 47.756 74.2582 47.6813 74.0995 47.532C73.9129 47.364 73.8195 47.1353 73.8195 46.846C73.8195 46.7433 73.8615 46.6453 73.9455 46.552C74.0295 46.4493 74.1789 46.3327 74.3935 46.202C74.6082 46.0807 74.7669 45.9827 74.8695 45.908C74.9722 45.8333 75.0422 45.7727 75.0795 45.726C75.5649 45.1473 76.0269 44.55 76.4655 43.934C76.9042 43.318 77.2729 42.66 77.5715 41.96C77.8702 41.26 78.0989 40.616 78.2575 40.028C78.4255 39.4307 78.5095 38.866 78.5095 38.334C78.5095 38.1567 78.4629 37.9793 78.3695 37.802C78.2855 37.6153 78.1689 37.4567 78.0195 37.326C77.8702 37.186 77.7022 37.0787 77.5155 37.004C77.3382 36.9293 77.1515 36.906 76.9555 36.934C76.6849 36.962 76.4422 37.046 76.2275 37.186C76.0222 37.3167 75.8449 37.4707 75.6955 37.648C75.5555 37.8253 75.4389 38.012 75.3455 38.208C75.2615 38.3947 75.2149 38.558 75.2055 38.698C75.1869 38.894 75.1775 39.0713 75.1775 39.23C75.1775 39.3793 75.1869 39.524 75.2055 39.664C75.2242 39.7947 75.2475 39.93 75.2755 40.07C75.3035 40.21 75.3409 40.364 75.3875 40.532C75.4155 40.672 75.4435 40.8167 75.4715 40.966C75.4995 41.1153 75.5135 41.2507 75.5135 41.372C75.5135 41.484 75.4902 41.5773 75.4435 41.652C75.3969 41.7267 75.3129 41.764 75.1915 41.764C75.0049 41.764 74.8229 41.652 74.6455 41.428C74.4775 41.204 74.3375 40.9053 74.2255 40.532C74.1229 40.1493 74.0622 39.7107 74.0435 39.216C74.0342 38.712 74.1042 38.18 74.2535 37.62C74.3002 37.4707 74.3795 37.3027 74.4915 37.116C74.6129 36.92 74.7715 36.738 74.9675 36.57C75.1635 36.3927 75.4015 36.2433 75.6815 36.122C75.9615 35.9913 76.2835 35.9167 76.6475 35.898C77.0302 35.8793 77.4129 35.9307 77.7955 36.052C78.1875 36.164 78.5375 36.3413 78.8455 36.584C79.1535 36.8173 79.4055 37.1113 79.6015 37.466C79.7975 37.8207 79.8955 38.2313 79.8955 38.698C79.8955 38.9407 79.8675 39.202 79.8115 39.482C79.7649 39.762 79.6902 40.0513 79.5875 40.35C79.3915 40.9753 79.0975 41.6567 78.7055 42.394C78.3602 43.0473 77.9729 43.6867 77.5435 44.312C77.1235 44.9373 76.6615 45.544 76.1575 46.132C76.4935 46.1133 76.8249 46.104 77.1515 46.104C77.4782 46.104 77.7955 46.104 78.1035 46.104C78.2715 46.104 78.4722 46.1133 78.7055 46.132C78.9482 46.1507 79.2329 46.1787 79.5595 46.216C79.7462 46.244 79.9049 46.2673 80.0355 46.286C80.1662 46.3047 80.2829 46.3233 80.3855 46.342ZM86.8674 43.458C86.8674 43.5327 86.8488 43.6213 86.8114 43.724C86.7741 43.8173 86.6761 43.9013 86.5174 43.976C86.4334 44.0227 86.3308 44.0413 86.2094 44.032C86.0881 44.0227 85.9481 44.018 85.7894 44.018H85.6214H85.4954H85.3414C85.3228 44.1767 85.3041 44.3587 85.2854 44.564C85.2761 44.76 85.2668 44.956 85.2574 45.152C85.2481 45.348 85.2388 45.5533 85.2294 45.768C85.2201 45.9827 85.2154 46.1273 85.2154 46.202C85.2154 46.3047 85.2248 46.4167 85.2434 46.538C85.2714 46.6593 85.3181 46.7993 85.3834 46.958C85.4581 47.1353 85.5048 47.2473 85.5234 47.294C85.5514 47.35 85.5654 47.3827 85.5654 47.392C85.5654 47.4013 85.5701 47.4153 85.5794 47.434C85.5888 47.4527 85.5934 47.4667 85.5934 47.476C85.5934 47.4853 85.5981 47.4993 85.6074 47.518C85.6074 47.5647 85.5888 47.6207 85.5514 47.686C85.5234 47.7513 85.4441 47.8073 85.3134 47.854C85.2668 47.8633 85.2108 47.868 85.1454 47.868C85.0801 47.8773 85.0054 47.882 84.9214 47.882C84.8094 47.882 84.6881 47.854 84.5574 47.798C84.4361 47.742 84.3288 47.616 84.2354 47.42C84.1141 47.1773 84.0534 46.8133 84.0534 46.328C84.0534 46.2627 84.0581 46.118 84.0674 45.894C84.0768 45.67 84.0908 45.362 84.1094 44.97C84.1374 44.5687 84.1374 44.256 84.1094 44.032H84.0534C83.6521 44.032 83.1808 44.088 82.6394 44.2C82.1728 44.312 81.7808 44.4007 81.4634 44.466C81.1554 44.5313 80.9314 44.536 80.7914 44.48L80.7214 44.452C80.5628 44.3493 80.4321 44.2327 80.3294 44.102C80.2361 43.9713 80.1474 43.8407 80.0634 43.71C79.9421 43.514 79.8814 43.3413 79.8814 43.192C79.8814 43.1547 79.8861 43.1127 79.8954 43.066C79.9141 43.01 79.9468 42.9353 79.9934 42.842C80.0401 42.7487 80.1054 42.6273 80.1894 42.478C80.2734 42.3287 80.3901 42.142 80.5394 41.918C80.8101 41.498 81.0481 41.12 81.2534 40.784C81.4588 40.448 81.6314 40.14 81.7714 39.86C81.9768 39.468 82.2148 39.048 82.4854 38.6C82.7561 38.1427 83.0641 37.662 83.4094 37.158C83.5121 36.9993 83.6148 36.8407 83.7174 36.682C83.8201 36.5233 83.9228 36.3647 84.0254 36.206H84.0394C84.2728 35.8607 84.5154 35.6787 84.7674 35.66H84.7814H84.8094C85.0708 35.688 85.3741 35.8373 85.7194 36.108C86.0648 36.3973 86.2374 36.654 86.2374 36.878C86.2374 36.9247 86.2281 36.9993 86.2094 37.102C86.1908 37.1953 86.1488 37.3493 86.0834 37.564C86.0368 37.732 85.9994 37.8767 85.9714 37.998C85.9528 38.1193 85.9341 38.222 85.9154 38.306C85.7568 39.5287 85.6308 40.5227 85.5374 41.288C85.4534 42.0533 85.4021 42.59 85.3834 42.898C85.5141 42.9167 85.5934 42.9307 85.6214 42.94C85.6494 42.94 85.7288 42.94 85.8594 42.94C85.9434 42.94 85.9994 42.94 86.0274 42.94C86.0648 42.94 86.0928 42.94 86.1114 42.94C86.1394 42.94 86.1674 42.9447 86.1954 42.954C86.2328 42.954 86.2934 42.954 86.3774 42.954H86.3914C86.5501 42.9727 86.6668 43.0287 86.7414 43.122C86.8254 43.2153 86.8674 43.3273 86.8674 43.458ZM84.4314 40.056C84.4501 39.8133 84.4781 39.566 84.5154 39.314C84.5621 39.0527 84.6041 38.8053 84.6414 38.572C84.6788 38.3293 84.7068 38.1053 84.7254 37.9C84.7534 37.6853 84.7674 37.508 84.7674 37.368C84.7394 37.4053 84.6881 37.466 84.6134 37.55C84.5481 37.6247 84.4734 37.7133 84.3894 37.816C84.3148 37.9093 84.2354 38.012 84.1514 38.124C84.0674 38.2267 83.9974 38.3247 83.9414 38.418V38.432C83.6334 38.908 83.3908 39.272 83.2134 39.524C83.0454 39.776 82.9381 39.93 82.8914 39.986C82.7234 40.2193 82.5508 40.4947 82.3734 40.812C82.1961 41.1293 82.0188 41.484 81.8414 41.876C81.6548 42.2867 81.5148 42.5947 81.4214 42.8C81.3374 42.996 81.2908 43.122 81.2814 43.178C81.3001 43.1873 81.3234 43.1967 81.3514 43.206C81.3888 43.206 81.4401 43.206 81.5054 43.206C81.6361 43.206 81.8648 43.192 82.1914 43.164C82.3594 43.136 82.5134 43.108 82.6534 43.08C82.8028 43.0427 82.9101 43.024 82.9754 43.024C83.2834 43.024 83.5774 43.01 83.8574 42.982C83.9321 42.9727 83.9928 42.968 84.0394 42.968C84.0861 42.9587 84.1328 42.954 84.1794 42.954C84.1981 42.6367 84.2308 42.2447 84.2774 41.778C84.3334 41.3113 84.3848 40.7373 84.4314 40.056Z" fill="black"/>
<path fill-rule="evenodd" clip-rule="evenodd" d="M29.4331 14.5049C28.9469 14.1617 28.3906 13.9687 27.824 13.8231C25.7229 13.2811 23.585 12.9112 21.4621 12.4663C20.7115 12.3091 20.7207 12.3253 20.738 11.5556C20.7541 10.8692 20.7966 10.1711 20.5748 9.50777C19.869 7.38941 18.9633 5.36119 17.83 3.43699C17.4404 2.77594 16.8979 2.33678 16.1381 2.20388C15.8634 2.1565 15.583 2.14841 15.306 2.12183C14.4497 2.04208 13.5773 2.10218 12.7463 1.81788C11.9808 1.43998 11.1957 1.11292 10.3647 0.911831C10.2705 0.864448 10.1751 0.815909 10.0808 0.768526C9.68085 0.572061 9.2912 0.360572 9.00845 0H8.7372C8.43146 0.240381 8.12572 0.479607 7.81998 0.719988C7.4154 0.876005 7.12 1.12101 7.09587 1.59715C7.09242 1.65724 7.06483 1.71965 7.0361 1.77628C6.66484 2.49511 6.40163 3.27519 5.83384 3.88308C5.76257 3.96051 5.71085 4.06337 5.67637 4.16391C5.62924 4.29797 5.62924 4.44936 5.76487 4.52911C6.00739 4.67241 6.05222 4.91279 6.08785 5.15202C6.13957 5.50219 6.1913 5.82462 6.50278 6.07425C6.72691 6.25222 6.67289 6.47642 6.43497 6.66018C6.30049 6.76534 6.15796 6.86127 6.02693 6.97221C5.65108 7.29118 5.21201 7.52925 4.86605 7.88635C4.79594 7.87826 4.74766 7.91756 4.69824 7.958C4.02469 8.52082 3.40287 9.13911 2.89829 9.85794C2.36727 10.6126 1.7489 11.269 0.965017 11.7579C0.755827 11.8885 0.568477 12.0792 0.294922 12.0803V12.2444C0.407562 12.2063 0.520202 12.1762 0.639739 12.1889C0.73169 12.1982 0.860422 12.1392 0.899501 12.2675C0.938581 12.3993 0.78916 12.4016 0.725943 12.4652C0.645486 12.5449 0.424803 12.5276 0.491468 12.6963C0.556983 12.8639 0.746632 12.7703 0.88226 12.7737C0.930535 12.7749 0.983407 12.7379 1.02823 12.709C1.2765 12.5449 1.51787 12.3739 1.74315 12.1774C2.17188 11.8041 2.6029 11.4262 3.17415 11.284C3.51322 11.1985 3.6385 11.3129 3.56724 11.6516C3.51207 11.9208 3.58218 12.1543 3.7224 12.3727C3.78562 12.4709 3.86838 12.5981 3.98562 12.5807C4.09826 12.5645 4.09711 12.4085 4.11894 12.3103C4.27181 11.6331 4.43043 10.9547 4.55226 10.2705C4.61318 9.93075 4.75111 9.67881 5.0534 9.51933C5.59821 9.2697 6.15107 9.03741 6.68553 8.76698C7.1177 8.54971 7.55907 8.34284 7.93262 8.02388C8.30043 7.81932 8.31077 7.82048 8.62915 8.12095C8.77972 8.2631 8.93259 8.4041 9.08201 8.54856C9.16707 8.63177 9.24293 8.68955 9.27626 8.51273C9.31649 8.28737 9.41304 8.37752 9.50269 8.47344C9.70613 8.69417 9.71073 8.94727 9.50384 9.27085C9.06132 9.95964 8.68087 10.6866 8.51421 11.4874C8.39353 12.0688 7.92458 12.5957 8.23721 13.2649C8.31997 13.4394 8.42111 13.4995 8.56134 13.5318C8.74064 13.5734 8.72225 13.3966 8.75214 13.3007C8.79696 13.1643 8.8165 13.0199 8.84409 12.8777C8.89351 12.6304 8.92914 12.3773 9.05788 12.1531C9.3027 11.7232 9.46246 11.7163 9.70613 12.1265C9.71533 12.1416 9.72107 12.1601 9.73142 12.1739C9.78544 12.2386 9.79463 12.3762 9.90728 12.345C10.0107 12.3161 9.98658 12.1959 9.98543 12.108C9.98084 11.6643 9.9498 11.2228 9.88199 10.7836C9.82797 10.4335 9.84521 10.111 10.2027 9.9111C10.2797 9.86719 10.3394 9.79438 10.3636 9.70077C10.544 9.63489 10.8141 9.81518 10.8762 9.55631C11.1475 9.80362 11.4314 10.0648 11.7199 10.3237C11.7624 10.3618 11.8325 10.4612 11.8555 10.4184C12.044 10.0868 12.1038 10.4739 12.244 10.4728C12.2957 10.1157 12.5129 10.3872 12.6727 10.3826C12.7279 10.0706 12.5968 9.76664 12.6532 9.41416C12.898 9.8094 13.1187 10.163 13.3405 10.5236C13.4049 10.4647 13.4049 10.4277 13.3876 10.3953C12.9658 9.60253 12.7325 8.73346 12.3946 7.90715C12.2532 7.56276 12.2486 7.25997 12.5118 6.97799C12.6095 6.87282 12.706 6.76419 12.8026 6.65787C12.9394 6.61048 13.0474 6.68791 13.1555 6.74916C13.9095 7.17792 14.6428 7.63904 15.3324 8.16371C16.0692 8.72653 16.3289 9.49043 16.1105 10.3803C15.8531 11.4343 15.522 12.4686 15.4749 13.5642C15.4347 14.4991 15.5795 15.3809 16.1921 16.1136C16.5668 16.5632 16.6921 17.0474 16.653 17.6206C16.6094 18.2632 16.4588 18.8896 16.4163 19.531C16.3496 20.5237 16.3439 21.5211 16.2071 22.5092C16.0554 23.6163 15.7393 24.6599 15.0876 25.5879C14.6704 26.1819 14.352 26.8314 14.0911 27.5098C13.5658 28.8816 13.2623 30.3181 12.8474 31.7222C12.7267 32.1279 12.6532 32.552 12.4072 32.9091C12.198 33.1033 11.9543 33.2258 11.6773 33.3032C11.3268 33.4014 11.1854 33.5806 11.1751 33.9226C11.1544 34.6704 11.0084 35.395 10.8084 36.1115C10.6981 36.5056 10.6084 36.9008 10.6831 37.3146C10.7843 37.8635 10.9291 38.3917 11.3498 38.7961C11.5061 38.9464 11.6532 38.9649 11.7693 38.7638C12.0658 38.2483 12.3911 37.7445 12.5704 37.1689C12.8532 36.5229 13.075 35.8515 13.4026 35.2251C15.2508 31.7014 17.0967 28.1766 18.938 24.6495C19.1013 24.334 19.3242 24.0947 19.6104 23.889C21.9379 22.2214 24.3965 20.7548 26.7941 19.1947C27.7987 18.5406 28.855 17.9616 29.7458 17.1399C29.9848 16.9191 30.1802 16.6764 30.2239 16.3448C30.325 15.5739 30.0664 14.9533 29.4331 14.5049ZM24.177 17.9096C23.2977 18.6157 22.4184 19.323 21.5115 19.9921C21.1069 20.2903 20.6357 20.407 20.1667 20.5283C19.9771 20.578 19.9127 20.4486 19.9507 20.2903C20.1656 19.4119 20.3725 18.5325 20.6173 17.6622C20.746 17.2069 21.1311 17.007 21.5736 16.9943C22.7172 16.9642 23.8609 16.9908 25.0022 17.0555C25.0252 17.0578 25.0482 17.0775 25.108 17.1064C24.7884 17.3837 24.4907 17.6565 24.177 17.9096Z" fill="black"/>
<path fill-rule="evenodd" clip-rule="evenodd" d="M34.7244 49.4101C34.6474 49.721 34.5083 50.0041 34.3808 50.2942C34.3578 50.3474 34.3463 50.4294 34.2612 50.419C34.1589 50.4075 34.1727 50.3196 34.1647 50.2514C34.1141 49.7568 34.0681 49.261 34.013 48.7664C33.9566 48.2625 33.8302 47.7829 33.4429 47.4223C32.9912 47.004 32.444 46.9959 31.8889 47.1092C30.8993 47.3114 30.1361 47.9019 29.4832 48.6358C27.8154 50.5103 26.8821 52.75 26.4063 55.1862C26.2132 56.1743 26.435 57.1693 26.6293 58.147C27.0281 60.1695 27.9154 61.9608 29.1717 63.5787C29.2671 63.7012 29.3775 63.8237 29.4177 63.9901C29.312 64.0271 29.2706 63.9508 29.2269 63.9069C27.7488 62.4531 26.3534 60.9241 25.1776 59.2079C24.227 57.82 23.7328 56.2656 23.5639 54.5945C23.5018 53.982 23.3926 53.3764 23.3029 52.7673C23.2914 52.6911 23.3006 52.5755 23.1869 52.594C23.0983 52.609 23.1466 52.7165 23.1386 52.7812C23.0512 53.4573 23.0317 54.1449 23.0949 54.8164C23.2052 56.0125 23.3075 57.2109 23.4891 58.4001C23.5972 59.1155 23.6592 59.8389 23.8581 60.5381C24.0983 61.3899 24.5305 62.1572 24.8971 62.9535C24.9696 63.1083 25.0293 63.2701 25.0833 63.4319C25.1006 63.4839 25.1477 63.5602 25.0707 63.603C24.9994 63.6434 24.9581 63.5729 24.9121 63.5348C24.3995 63.1072 24.0018 62.5802 23.6432 62.0243C23.2604 61.4315 22.9248 60.8109 22.6995 60.1371C22.5145 59.7546 22.3788 59.3512 22.2627 58.9421C22.0156 58.3227 21.8271 57.6848 21.6743 57.0341C21.4202 56.2702 21.2812 55.4797 21.1329 54.6916C21.1042 54.5425 21.0835 54.3922 21.0467 54.1576C20.8639 54.5771 20.8306 54.9504 20.8099 55.3179C20.7513 56.3604 20.9306 57.382 21.0973 58.4047C21.249 59.3443 21.4191 60.2758 21.7857 61.1576C21.8823 61.391 22.0018 61.6152 22.1087 61.8452C22.134 61.8984 22.1984 61.9608 22.1398 62.0151C22.0685 62.081 22.0041 62.007 21.9536 61.9642C21.5789 61.6453 21.2835 61.2581 21.0386 60.8328C20.626 60.1175 20.3191 59.3559 20.1019 58.5596C19.8203 57.8905 19.6835 57.1809 19.5099 56.4817C19.2479 55.4277 19.1238 54.3518 18.9709 53.2793C18.9031 52.7962 18.81 52.3178 18.7203 51.8393C18.6468 51.4429 18.7824 51.2546 19.1755 51.2754C19.5249 51.295 19.872 51.3528 20.2191 51.3944C20.7386 51.4626 21.2616 51.4325 21.7834 51.4314C21.9582 51.3852 22.134 51.3401 22.3087 51.2939C22.4386 51.2291 22.5673 51.1656 22.6961 51.0997C23.296 50.6606 23.6524 50.0619 23.8627 49.3535C24.1064 48.5318 24.6374 47.9979 25.4626 47.7274C26.8247 47.2825 28.2189 46.9335 29.5637 46.4539C31.9728 45.5929 33.5762 43.8964 34.2509 41.3781C34.3095 41.1609 34.3153 40.9309 34.3509 40.7079C34.3647 40.6177 34.3256 40.5068 34.4451 40.434C34.6382 40.6824 34.6095 40.9829 34.6428 41.2603C34.821 42.706 35.0359 44.1495 35.0842 45.6091C35.1221 46.8896 35.0302 48.1597 34.7244 49.4101Z" fill="black"/>
<path fill-rule="evenodd" clip-rule="evenodd" d="M99.6371 62.1389C99.6271 62.2163 99.6421 62.303 99.574 62.3908C99.3887 61.8916 99.3116 61.3692 99.1764 60.8699C98.7558 59.3213 98.5905 57.7288 98.4964 56.1132C98.4082 54.5958 98.1879 53.0945 97.9536 51.5968C97.3867 47.9887 96.5364 44.4732 95.3497 41.0685C93.7883 36.5914 91.7132 32.4599 89.0713 28.7143C85.6501 23.8628 81.4068 20.3472 76.3081 18.2023C73.52 17.0304 70.6617 16.1845 67.7303 15.6644C67.2526 15.5789 66.7739 15.4911 66.2951 15.4032C65.557 15.3108 64.8179 15.2195 64.0788 15.1282C63.4939 15.09 62.9081 15.0484 62.3232 15.0149C61.6041 14.9745 60.886 14.9398 60.166 14.9028C59.2746 14.9074 58.3823 14.9063 57.491 14.919C56.9361 14.9271 56.3823 14.9548 55.8275 14.9733C55.5641 15.0831 55.2846 15.038 55.0162 15.0565C54.171 15.1155 53.3287 15.1987 52.4895 15.3038C51.5571 15.4206 50.6307 15.5962 49.7023 15.7488C49.4339 15.7927 49.1665 15.8493 48.873 15.8447C49.1505 15.5881 49.4279 15.3327 49.7043 15.075C50.1439 14.6659 50.5926 14.2718 51.0173 13.8442C51.6572 13.1982 52.1269 12.3927 52.5395 11.5467C52.7759 11.0636 53.0834 10.8568 53.5691 10.8822C54.3212 10.9227 55.0763 10.8995 55.8305 10.9042C56.6827 10.8845 57.535 10.8672 58.3883 10.9284C58.864 10.9631 59.3407 10.977 59.8184 10.9978C59.9366 11.0024 60.0538 11.0082 60.166 11.0521C60.838 11.0602 61.505 11.1688 62.174 11.2324C62.7338 11.2855 63.2926 11.3641 63.8515 11.4335C63.9286 11.4439 64.0037 11.4681 64.0798 11.4866C64.84 11.5664 65.5941 11.697 66.3432 11.8715C67.569 12.0853 68.7779 12.4031 69.9787 12.7509C72.9241 13.6038 75.7824 14.7433 78.5054 16.3081C81.527 18.0463 84.2821 20.2201 86.7017 22.9521C88.0427 24.4672 89.1834 26.1718 90.3362 27.8707C92.1028 30.4791 93.6381 33.2515 94.905 36.2228C96.6867 40.404 97.9816 44.776 98.7948 49.3397C99.1944 51.5783 99.4798 53.8342 99.6201 56.1109C99.6952 57.3405 99.6821 58.5748 99.6942 59.8067C99.7022 60.5856 99.7402 61.3646 99.6371 62.1389Z" fill="black"/>
<path fill-rule="evenodd" clip-rule="evenodd" d="M37.1284 39.2574C37.056 40.8869 36.8744 42.5048 36.4468 44.0846C36.3572 44.4163 36.2468 44.7422 36.0986 45.0542C36.0515 45.1536 36.0296 45.2807 35.8859 45.3328C35.8239 45.2195 35.8538 45.1016 35.8526 44.9918C35.8308 43.523 35.7618 42.061 35.3664 40.6338C35.1791 39.9588 34.8894 39.3278 34.5952 38.6957C34.5067 38.5801 34.4285 38.4576 34.386 38.3166C34.2779 38.1826 34.1825 38.0393 34.117 37.8786C33.9733 37.7399 33.8871 37.5608 33.7929 37.3886C33.3941 36.9841 33.2285 36.53 33.3492 35.9429C33.5021 35.194 33.5814 34.4312 33.6952 33.6754C33.7055 33.6049 33.732 33.5356 33.7504 33.4662C33.8584 32.7775 33.9665 32.0887 34.0745 31.3999C34.1653 30.8197 34.2561 30.2396 34.3469 29.6594C34.4285 29.1197 34.4768 28.5754 34.6159 28.038C34.7285 28.0785 34.7526 28.1536 34.7745 28.2322C35.8411 29.8328 36.3917 31.6322 36.7618 33.4963C37.1399 35.3985 37.2135 37.3251 37.1284 39.2574Z" fill="black"/>
<path fill-rule="evenodd" clip-rule="evenodd" d="M54.7762 6.4434C54.6877 7.94 54.1199 9.27828 53.3969 10.5622C53.0486 11.2545 52.613 11.889 52.105 12.4714C51.3257 13.4549 50.3993 14.2697 49.3372 14.9319C48.9579 15.148 48.6039 15.4057 48.2143 15.6068C47.512 15.9674 46.7741 16.1661 45.9833 16.1638C45.8224 16.1627 45.6603 16.1638 45.4523 16.0748C46.7212 15.037 47.9752 14.0316 49.2752 13.0816C49.9786 12.5246 50.6131 11.9028 51.1062 11.1424C51.4464 10.6142 51.69 10.0445 51.9073 9.45972C52.105 8.76747 52.1785 8.04979 52.3349 7.34945C52.3578 7.24429 52.413 7.11485 52.3349 7.03973C52.2452 6.9519 52.1406 7.06978 52.0418 7.0952C51.9487 7.11832 51.8705 7.19344 51.7659 7.17841C51.2176 7.48582 50.6257 7.69269 50.0533 7.94463C49.6717 8.11336 49.2832 8.26706 48.897 8.42655C48.3511 8.71547 47.7511 8.79521 47.1523 8.8657C46.1879 8.97896 45.2696 9.26672 44.3523 9.56373C44.1822 9.61805 44.065 9.74055 43.9535 9.87577C42.7064 11.3805 41.526 12.9372 40.2996 14.458C38.8778 16.2239 37.2951 17.8326 35.5204 19.246C35.4296 19.3177 35.3446 19.3997 35.2078 19.4228C35.1837 19.2992 35.2584 19.216 35.3135 19.1304C37.1928 16.1765 39.0709 13.2238 40.9536 10.2722C41.1042 10.0364 41.2858 9.82029 41.4432 9.58916C41.5651 9.40887 41.6697 9.2205 41.7099 9.00092C41.7926 8.55136 42.0662 8.29133 42.4995 8.1723C43.7581 7.82444 45.0293 7.52858 46.2741 7.12987C47.1155 6.86176 47.9384 6.54163 48.7694 6.24578C49.7246 5.81124 50.6797 5.37671 51.6349 4.94217C52.1647 4.65094 52.7142 4.40363 53.2808 4.19329C53.4854 4.10315 53.6854 4.00145 53.8957 3.92286C54.2072 3.8073 54.3003 3.85583 54.421 4.1852C54.6854 4.91328 54.821 5.66678 54.7762 6.4434Z" fill="black"/>
<path fill-rule="evenodd" clip-rule="evenodd" d="M13.5249 26.262C13.4295 27.0953 13.1077 27.8673 12.8789 28.6635C12.772 29.0345 12.6433 29.4008 12.5249 29.7695C12.3755 30.3705 12.2468 30.9772 12.0399 31.562C11.9594 31.7908 11.8548 32.0104 11.6629 32.1722C11.541 32.3605 11.3583 32.4796 11.1721 32.5894C10.4388 33.0204 10.2192 33.5081 10.3917 34.361C10.4951 34.8765 10.448 35.3688 10.1917 35.8345C10.1101 35.9824 10.0147 36.1257 9.8296 36.1211C9.63076 36.1165 9.57673 35.9408 9.51926 35.7883C9.36869 35.3896 9.17675 34.9666 9.20433 34.5633C9.23422 34.1357 9.30548 33.6919 9.40433 33.2608C9.65374 32.1756 10.1422 31.1841 10.548 30.1601C10.7204 29.7233 10.9353 29.3026 11.0342 28.838C11.0663 28.6889 11.1238 28.5214 10.9928 28.4012C10.8629 28.2821 10.7031 28.3503 10.5583 28.3989C9.84109 28.6393 9.24111 29.0992 8.58941 29.4656C8.37792 29.5846 8.17218 29.7163 7.96759 29.8481C7.55955 30.1104 7.47335 30.3312 7.56875 30.8142C7.67564 31.3643 7.77104 31.9168 7.88368 32.4669C7.93425 32.7153 7.95724 33.0747 7.80207 33.1464C7.62277 33.2296 7.39749 32.9603 7.23887 32.7754C6.62625 32.0566 6.16764 31.2557 5.9596 30.3231C5.8642 29.8978 5.97684 29.5153 6.21936 29.1674C6.40097 28.9051 6.6274 28.682 6.88946 28.5017C8.33539 27.5125 9.82845 26.6041 11.4491 25.9223C11.4985 25.9014 11.5502 25.8853 11.6008 25.8679C11.864 25.7489 12.1249 25.6252 12.4134 25.5767C12.5019 25.4993 12.618 25.5143 12.7226 25.497C13.2881 25.3976 13.5916 25.6934 13.5249 26.262Z" fill="black"/>
<path fill-rule="evenodd" clip-rule="evenodd" d="M99.7055 43.7011V44.1899C99.5623 44.1946 99.5671 44.042 99.5321 43.9473C98.8598 42.0935 98.1963 40.2352 97.5221 38.3827C96.4241 35.3675 95.0894 32.5049 93.5422 29.7833C93.5003 29.7081 93.4643 29.6284 93.4263 29.551C92.8729 28.6542 92.339 27.7412 91.7544 26.8721C91.0656 25.8482 90.3651 24.8358 89.5954 23.8939C89.5584 23.85 89.536 23.7899 89.5067 23.7379C88.9709 23.1046 88.4448 22.4597 87.8963 21.8426C85.8581 19.552 83.6289 17.5608 81.2147 15.8631C81.163 15.8261 81.1163 15.7799 81.0666 15.7394C80.2716 15.2425 79.496 14.7028 78.6874 14.2347C75.6126 12.4538 72.3916 11.1976 69.042 10.391C66.8382 9.86051 64.613 9.53345 62.3712 9.37628C61.1056 9.28844 59.8371 9.23991 58.5695 9.2688C57.3877 9.29422 56.204 9.34161 55.0241 9.4514C54.7358 9.47913 54.7289 9.46757 54.8108 9.15207C54.9179 8.73719 55.0397 8.32692 55.1333 7.90741C55.1976 7.61618 55.3447 7.50985 55.5814 7.52141C56.467 7.56417 57.3527 7.59306 58.2363 7.64738C58.9982 7.69476 59.7591 7.76757 60.521 7.8346C61.7018 7.93746 62.8749 8.12005 64.0498 8.28994C65.4733 8.49796 66.8947 8.72447 68.3065 9.03535C71.2566 9.68484 74.1268 10.6579 76.9093 11.987C78.0073 12.5116 79.0937 13.0779 80.1254 13.769C80.4781 14.0059 80.86 14.1804 81.1893 14.4659C81.8041 14.8322 82.3799 15.2772 82.9557 15.721C85.368 17.5828 87.5484 19.7751 89.5253 22.2563C89.5613 22.3014 89.5886 22.3569 89.6198 22.4077C90.2511 23.1416 90.8113 23.9529 91.3715 24.763C92.1422 25.8817 92.8738 27.0385 93.5636 28.23C93.5851 28.267 93.6007 28.3074 93.6201 28.3467C94.2076 29.2979 94.7328 30.2975 95.2404 31.3088C96.7846 34.3875 98.0901 37.6014 99.0751 40.9922C99.305 41.7804 99.4463 42.5974 99.6149 43.4064C99.6363 43.5058 99.6314 43.6214 99.7055 43.7011Z" fill="black"/>
<path fill-rule="evenodd" clip-rule="evenodd" d="M32.8268 41.7899C32.6797 42.0361 32.551 42.2973 32.3498 42.5087C32.0349 43.0045 31.6452 43.4333 31.1993 43.8112C30.72 44.2688 30.1832 44.6375 29.5763 44.8998C28.997 45.2246 28.358 45.3794 27.7247 45.5516C26.4741 45.8903 25.2834 46.371 24.1593 47.017C23.5961 47.3406 23.234 47.811 23.0765 48.4432C23.0156 48.6893 22.9306 48.9274 22.8191 49.1562C22.5191 49.7722 22.0283 50.1166 21.3582 50.2379C20.3145 50.4263 19.3111 50.1998 18.3043 49.9791C17.7962 49.8669 17.371 49.6358 16.9882 49.2776C16.4342 48.7587 16.3158 48.1473 16.4963 47.4446C16.6537 46.8287 17.025 46.3618 17.5353 46.0012C17.7307 45.8637 17.9043 45.918 18.0744 46.0625C18.5376 46.4554 19.0744 46.675 19.6812 46.6842C20.5007 46.6969 21.1904 46.3826 21.7536 45.7909C22.0662 45.4627 22.3593 45.1183 22.6237 44.7519C23.0501 44.1602 23.6328 43.7811 24.2822 43.483C25.0523 43.1305 25.8132 42.7561 26.5833 42.4047C27.7063 41.8905 28.6971 41.2051 29.4637 40.2182C29.4947 40.1639 29.5223 40.1061 29.5579 40.0564C29.8097 39.7028 29.8005 39.3549 29.5419 39.0093C29.4936 38.9446 29.4511 38.8753 29.4062 38.8083C28.8752 38.2038 28.3086 37.6387 27.6637 37.1533C26.2178 36.0658 24.6179 35.2649 22.9409 34.6108C22.5628 34.4641 22.1927 34.3011 21.872 34.0434C21.3111 33.5915 21.1203 32.9339 21.4007 32.2683C21.5766 31.8534 21.7927 31.4547 22.0042 31.056C22.1352 30.8086 22.3306 30.6885 22.6409 30.6965C23.8064 30.7254 24.8696 31.0999 25.8776 31.6407C26.8937 32.1862 27.8706 32.7953 28.7465 33.5592C29.0235 33.7995 29.3223 34.0157 29.5786 34.2803C30.1855 34.8189 30.7326 35.4094 31.205 36.0705C31.6257 36.5755 31.9878 37.1198 32.2877 37.7057C32.7015 38.3853 33.0854 39.0845 33.2337 39.8738C33.3624 40.5556 33.1808 41.197 32.8268 41.7899Z" fill="black"/>
<path fill-rule="evenodd" clip-rule="evenodd" d="M45.0036 1.06399C44.4703 1.2281 43.9243 1.34482 43.4071 1.56209C42.5922 1.79322 41.8048 2.09717 41.0416 2.46236C40.2462 2.84373 40.0371 3.89078 40.6095 4.55414C40.8554 4.83959 40.8577 4.89969 40.6359 5.20825C40.0566 6.01376 39.4762 6.81927 38.8969 7.62362C38.4072 8.29507 37.9153 8.96421 37.4279 9.63681C35.7958 11.8869 34.1637 14.137 32.5338 16.3883C32.3959 16.579 32.2373 16.7373 31.9936 16.7523C31.8212 16.7627 31.6856 16.8367 31.5488 16.9268C27.6719 19.4728 23.7962 22.0176 19.9181 24.5612C19.694 24.708 19.5204 24.8964 19.3963 25.1356C17.9251 27.9462 16.4516 30.7557 14.9815 33.5675C14.9435 33.6403 14.8654 33.7142 14.9275 33.8217C14.9596 33.8032 14.993 33.7893 15.0194 33.7685C16.0895 32.8775 17.1964 32.0362 18.2917 31.1798C19.0607 30.5789 19.8917 30.1073 20.8296 29.8265C22.0169 29.4706 23.2146 29.5226 24.4157 29.7294C25.3708 29.8935 26.3087 30.1212 27.1374 30.6494C27.8524 31.1047 28.5661 31.567 29.2408 32.0789C30.4707 33.0127 31.4201 34.2077 32.2281 35.5194C32.2856 35.6118 32.3177 35.7297 32.435 35.7944C32.4568 35.7182 32.4821 35.6592 32.4913 35.5968C32.7304 33.9858 32.9683 32.3725 33.2051 30.7615C33.3327 29.8993 33.4717 29.0383 33.5786 28.1727C33.6292 27.759 33.7189 27.3511 33.7591 26.9385C33.812 26.4022 33.9269 25.8764 33.9821 25.3402C34.0349 24.8155 34.1786 24.3001 34.2418 23.7754C34.3062 23.2311 34.397 22.6902 34.4683 22.1482C34.5614 21.4455 34.4901 20.7972 34.1108 20.2066C33.9315 19.927 33.928 19.6785 34.0878 19.4115C34.2924 19.0683 34.5096 18.7343 34.7119 18.3911C35.4556 17.1302 36.1969 15.8671 36.9371 14.6028C37.6613 13.3662 38.3808 12.1261 39.1026 10.8884C39.1497 10.8237 39.2003 10.7613 39.2428 10.6919C40.1083 9.23117 40.9669 7.76461 41.8393 6.3073C42.3623 5.43245 42.8623 4.54027 43.5496 3.77637C43.7645 3.59839 43.9611 3.39037 44.1979 3.24822C44.5404 3.04136 44.7185 2.73626 44.853 2.38262C44.999 1.99893 45.0714 1.59907 45.1381 1.19689C45.1564 1.07092 45.1415 1.02123 45.0036 1.06399ZM31.2534 25.6164C31.2327 25.6823 31.2189 25.7574 31.1074 25.7886C31.1212 25.6464 31.1339 25.5181 31.1442 25.3876C31.227 24.2827 31.1258 23.1802 31.0971 22.0765C31.0913 21.8766 30.9787 21.8015 30.7925 21.8338C30.5707 21.8731 30.3592 21.9402 30.158 22.0523C27.7799 23.3848 25.4444 24.7843 23.2226 26.371C23.1215 26.4427 23.0226 26.5317 22.8927 26.5479C22.7077 26.5733 22.3652 26.3861 22.3077 26.222C22.2261 25.9885 22.3675 25.8313 22.5318 25.7181C24.718 24.2307 26.9168 22.7607 29.3673 21.7321C29.773 21.5611 30.1994 21.4386 30.6212 21.3126C31.2419 21.1266 31.55 21.33 31.6373 21.9702C31.804 23.2183 31.6224 24.4272 31.2534 25.6164Z" fill="black"/>
<path fill-rule="evenodd" clip-rule="evenodd" d="M23.2351 35.7529C23.1869 35.8673 23.0604 35.8454 22.9512 35.8246C22.557 35.7529 22.1547 35.7217 21.7674 35.6084C21.0478 35.538 20.3548 35.3392 19.6502 35.1889C18.8387 35.0179 18.233 35.2825 17.8204 35.9979C17.5089 36.5376 17.2135 37.0877 16.9054 37.6297C16.8687 37.6956 16.8411 37.8089 16.7549 37.7996C16.6595 37.7904 16.633 37.6736 16.602 37.5927C16.4445 37.1917 16.4227 36.7618 16.3802 36.3411C16.3342 35.8858 16.1871 35.5195 15.7951 35.2386C15.1951 34.8076 15.2032 34.336 15.7756 33.8691C16.2825 33.4566 16.8629 33.1596 17.4169 32.821C18.4491 32.1911 19.4893 31.5763 20.5283 30.9603C20.8065 30.795 21.0881 30.6344 21.4501 30.6379C21.3674 30.9719 21.1927 31.2458 21.0639 31.5381C20.9582 31.7785 20.8387 32.012 20.7364 32.2535C20.4743 32.873 20.5973 33.4242 21.0628 33.8946C21.3099 34.1442 21.5789 34.3719 21.8386 34.6088C22.2547 34.9035 22.6731 35.197 23.0892 35.4929C23.18 35.5576 23.2823 35.6385 23.2351 35.7529Z" fill="black"/>
<path fill-rule="evenodd" clip-rule="evenodd" d="M35.6001 10.9963C35.3518 11.3141 35.099 11.6296 34.8484 11.9462C34.799 12.0086 34.7599 12.0849 34.668 12.0941C34.6726 12.1854 34.6093 12.2444 34.5599 12.3056C33.8059 13.2417 33.0496 14.1744 32.2956 15.1105C32.1232 15.3243 31.9117 15.493 31.6991 15.6594C31.5497 15.7761 31.3738 15.8397 31.1945 15.7415C31.0301 15.6513 30.9704 15.4838 30.983 15.3012C31.0301 14.6401 30.6865 14.2298 30.1359 13.949C29.1371 13.4394 28.059 13.1978 26.9659 13.0071C26.8073 12.9782 26.6487 12.947 26.4889 12.9147C26.4648 12.9101 26.4441 12.8916 26.4004 12.8685C29.0865 11.8572 31.8025 11.0459 34.6599 10.7986C35.0128 10.7605 35.3656 10.7073 35.7242 10.7339C35.7415 10.8576 35.6576 10.9223 35.6001 10.9963Z" fill="black"/>
<path fill-rule="evenodd" clip-rule="evenodd" d="M16.274 43.3782C16.1602 43.377 16.0373 43.4013 15.9361 43.3169C15.7798 43.2961 15.6361 43.236 15.5039 43.1505C14.8109 42.8789 14.235 42.434 13.7327 41.8954C13.0776 41.1916 12.4615 40.4566 12.2236 39.487C12.1224 39.0721 12.165 38.6965 12.5155 38.4041C12.6305 38.3082 12.6925 38.2932 12.7592 38.4688C12.8477 38.7046 12.8351 38.9485 12.873 39.1888C13.0121 40.0475 13.4856 40.7028 14.1281 41.2506C14.3821 41.4678 14.6511 41.6655 14.9178 41.8665C15.0017 41.9289 15.1028 42.0041 15.2131 41.9324C15.3085 41.87 15.2982 41.7568 15.2902 41.6585C15.2109 40.7305 15.1051 39.8025 15.0511 38.8733C14.9982 37.9708 14.7465 37.1132 14.5649 36.2372C14.4775 35.8177 14.5293 35.389 14.6258 34.9706C14.6545 34.8458 14.712 34.6956 14.8396 34.6932C14.958 34.6921 15.0614 34.8111 15.0994 34.9417C15.2994 35.6247 15.566 36.2927 15.643 37.0092C15.7476 37.5443 15.7407 38.0875 15.7223 38.626C15.689 39.5691 15.7419 40.4994 16.0097 41.4089C16.1913 41.9555 16.4235 42.4871 16.5453 43.0523C16.6166 43.377 16.6051 43.3839 16.274 43.3782Z" fill="black"/>
<path fill-rule="evenodd" clip-rule="evenodd" d="M28.8561 39.7521C28.7757 39.892 28.6826 40.0202 28.5561 40.1231C27.9838 40.7807 27.2516 41.2314 26.5229 41.6786C25.2712 42.4472 23.923 42.9984 22.5161 43.4064C22.3517 43.4538 22.1851 43.4965 22.0115 43.4873C21.8724 43.4803 21.7288 43.4572 21.6759 43.3093C21.6253 43.1648 21.7035 43.0458 21.8127 42.9522C22.0196 42.7765 22.2391 42.6182 22.4851 42.5015C24.0896 41.741 25.3298 40.5495 26.4045 39.1616C26.5378 38.9905 26.662 38.8091 26.8137 38.6565C27.3332 38.1319 28.1964 38.2324 28.5516 38.8495C28.9745 39.0506 29.0803 39.3615 28.8561 39.7521Z" fill="black"/>
<path fill-rule="evenodd" clip-rule="evenodd" d="M21.7275 45.0294C21.6114 45.0536 21.5654 44.9727 21.5091 44.9092C20.2391 44.1441 19.3655 43.03 18.7437 41.6143C18.5609 42.0997 18.523 42.5077 18.5115 42.9226C18.4874 43.7604 18.6517 44.5821 18.715 45.4107C18.7196 45.4651 18.7253 45.5182 18.7299 45.5725C18.7345 45.6292 18.7368 45.6858 18.6713 45.7078C18.6058 45.7309 18.5747 45.6789 18.5437 45.6338C18.369 45.383 18.2989 45.0941 18.2368 44.8005C17.9253 43.3224 17.8621 41.8432 18.1483 40.3535C18.2173 39.9975 18.3874 39.6924 18.554 39.3839C18.6184 39.2648 18.7414 39.1539 18.8471 39.1793C18.9747 39.2105 19.0138 39.3769 19.0115 39.5156C18.9977 40.0345 19.0494 40.5488 19.1966 41.0457C19.5126 42.109 20.0977 42.9896 20.9793 43.6691C21.1965 43.8367 21.4379 43.995 21.516 44.2897C21.7241 44.4978 21.7091 44.7647 21.7275 45.0294Z" fill="black"/>
<path fill-rule="evenodd" clip-rule="evenodd" d="M14.8805 33.8832L14.877 33.8654L14.89 33.8678L14.8805 33.8832Z" fill="black"/>
</svg>
