<svg width="84" height="54" viewBox="0 0 84 54" fill="none" xmlns="http://www.w3.org/2000/svg">
<path fill-rule="evenodd" clip-rule="evenodd" d="M24.4032 12.1479C23.996 11.8604 23.5301 11.6988 23.0555 11.5768C21.2959 11.1229 19.5054 10.8131 17.7275 10.4405C17.0989 10.3089 17.1066 10.3224 17.121 9.67783C17.1345 9.10291 17.1701 8.51831 16.9843 7.96274C16.3933 6.18862 15.6348 4.48999 14.6856 2.87847C14.3593 2.32485 13.9049 1.95705 13.2687 1.84575C13.0386 1.80606 12.8037 1.79929 12.5717 1.77703C11.8546 1.71024 11.124 1.76057 10.428 1.52247C9.78689 1.20598 9.12942 0.932068 8.43345 0.763657C8.35452 0.723974 8.27462 0.683323 8.19569 0.64364C7.8607 0.4791 7.53437 0.301978 7.29757 0H7.07039C6.81434 0.201319 6.55828 0.40167 6.30223 0.602989C5.96339 0.733653 5.716 0.938843 5.69578 1.33761C5.69289 1.38794 5.66979 1.4402 5.64573 1.48763C5.3348 2.08965 5.11436 2.74297 4.63883 3.25207C4.57915 3.31692 4.53583 3.40306 4.50695 3.48727C4.46749 3.59954 4.46749 3.72634 4.58108 3.79312C4.78419 3.91314 4.82173 4.11446 4.85157 4.31481C4.89489 4.60807 4.9382 4.87811 5.19907 5.08717C5.38678 5.23623 5.34154 5.424 5.14228 5.57789C5.02965 5.66597 4.91029 5.7463 4.80055 5.83922C4.48578 6.10635 4.11806 6.30573 3.82831 6.60481C3.76959 6.59803 3.72916 6.63094 3.68777 6.66482C3.12368 7.13617 2.60291 7.65399 2.18032 8.25601C1.73559 8.88804 1.21771 9.43779 0.561203 9.8472C0.386008 9.95657 0.229102 10.1163 0 10.1172V10.2547C0.0943361 10.2227 0.188672 10.1976 0.288784 10.2082C0.365793 10.216 0.473606 10.1666 0.506334 10.274C0.539063 10.3844 0.413924 10.3863 0.36098 10.4395C0.293597 10.5063 0.108775 10.4918 0.164607 10.6331C0.219476 10.7735 0.378307 10.6951 0.491895 10.698C0.532325 10.6989 0.576605 10.668 0.614147 10.6438C0.822071 10.5063 1.02422 10.3631 1.21289 10.1985C1.57195 9.88592 1.93293 9.56942 2.41135 9.45037C2.69532 9.37875 2.80024 9.47457 2.74056 9.75816C2.69435 9.98368 2.75307 10.1792 2.87051 10.3621C2.92346 10.4444 2.99276 10.5509 3.09095 10.5363C3.18529 10.5228 3.18432 10.3921 3.20261 10.3099C3.33064 9.74267 3.46348 9.17453 3.56552 8.60154C3.61654 8.31699 3.73205 8.10599 3.98522 7.97242C4.4415 7.76336 4.90451 7.56882 5.35213 7.34233C5.71407 7.16037 6.08371 6.98712 6.39656 6.71999C6.7046 6.54867 6.71326 6.54964 6.97991 6.80129C7.10601 6.92034 7.23404 7.03842 7.35918 7.1594C7.43041 7.22909 7.49394 7.27749 7.52186 7.1294C7.55555 6.94066 7.63641 7.01616 7.71149 7.09649C7.88188 7.28136 7.88573 7.49332 7.71245 7.76433C7.34185 8.34118 7.02322 8.94998 6.88365 9.62072C6.78257 10.1076 6.38982 10.5489 6.65166 11.1093C6.72096 11.2555 6.80567 11.3058 6.92311 11.3329C7.07328 11.3677 7.05788 11.2197 7.08291 11.1393C7.12045 11.0251 7.13681 10.9041 7.15992 10.7851C7.20131 10.578 7.23115 10.366 7.33896 10.1782C7.544 9.81817 7.6778 9.81236 7.88188 10.156C7.88958 10.1685 7.89439 10.184 7.90305 10.1956C7.9483 10.2498 7.956 10.365 8.05033 10.3389C8.13697 10.3147 8.11675 10.214 8.11579 10.1405C8.11194 9.76881 8.08595 9.39908 8.02915 9.03128C7.98391 8.73802 7.99835 8.46798 8.29772 8.30053C8.36222 8.26375 8.41228 8.20278 8.43249 8.12438C8.58362 8.06921 8.80983 8.2202 8.86182 8.0034C9.08899 8.21052 9.32676 8.42926 9.56837 8.64607C9.60399 8.67801 9.66271 8.76124 9.68196 8.72543C9.83983 8.44765 9.88989 8.77189 10.0073 8.77092C10.0506 8.47185 10.2326 8.6993 10.3664 8.69543C10.4126 8.4341 10.3028 8.17955 10.35 7.88435C10.5551 8.21536 10.7399 8.51153 10.9257 8.81351C10.9796 8.76415 10.9796 8.73318 10.9651 8.70607C10.6118 8.04211 10.4164 7.31426 10.1334 6.62223C10.015 6.3338 10.0112 6.08022 10.2316 5.84406C10.3134 5.75598 10.3943 5.665 10.4752 5.57595C10.5897 5.53627 10.6802 5.60112 10.7707 5.65242C11.4022 6.0115 12.0163 6.39768 12.5939 6.8371C13.2109 7.30846 13.4285 7.94823 13.2456 8.69349C13.0299 9.5762 12.7527 10.4425 12.7132 11.36C12.6795 12.143 12.8008 12.8815 13.3139 13.4951C13.6277 13.8716 13.7326 14.2772 13.6999 14.7573C13.6633 15.2954 13.5372 15.82 13.5016 16.3572C13.4458 17.1886 13.441 18.0238 13.3264 18.8514C13.1993 19.7786 12.9346 20.6526 12.3888 21.4298C12.0394 21.9273 11.7728 22.4713 11.5542 23.0394C11.1143 24.1883 10.8602 25.3913 10.5127 26.5673C10.4116 26.907 10.35 27.2623 10.144 27.5613C9.96882 27.7239 9.76475 27.8265 9.53276 27.8914C9.23916 27.9736 9.12076 28.1237 9.11209 28.4102C9.09477 29.0364 8.97252 29.6432 8.80502 30.2433C8.71261 30.5734 8.63753 30.9044 8.7001 31.2509C8.78481 31.7106 8.9061 32.153 9.25841 32.4917C9.38933 32.6175 9.51254 32.633 9.60977 32.4646C9.85812 32.0329 10.1305 31.6109 10.2807 31.1289C10.5175 30.5879 10.7033 30.0256 10.9776 29.501C12.5255 26.5499 14.0715 23.5979 15.6136 20.6439C15.7503 20.3797 15.937 20.1793 16.1767 20.007C18.126 18.6104 20.185 17.3821 22.193 16.0755C23.0344 15.5277 23.919 15.0428 24.665 14.3546C24.8653 14.1698 25.0289 13.9665 25.0655 13.6887C25.1502 13.0431 24.9336 12.5234 24.4032 12.1479ZM20.0012 14.9992C19.2648 15.5906 18.5284 16.1829 17.7689 16.7433C17.43 16.9931 17.0354 17.0908 16.6426 17.1924C16.4838 17.2341 16.4299 17.1257 16.4616 16.9931C16.6417 16.2575 16.8149 15.5209 17.02 14.7921C17.1278 14.4108 17.4502 14.2433 17.8209 14.2327C18.7787 14.2075 19.7365 14.2298 20.6923 14.284C20.7116 14.2859 20.7308 14.3024 20.7809 14.3266C20.5133 14.5588 20.264 14.7873 20.0012 14.9992Z" fill="black"/>
<path fill-rule="evenodd" clip-rule="evenodd" d="M28.8345 41.381C28.77 41.6414 28.6535 41.8785 28.5467 42.1215C28.5274 42.166 28.5178 42.2347 28.4466 42.226C28.3609 42.2163 28.3724 42.1428 28.3657 42.0857C28.3234 41.6714 28.2848 41.2562 28.2386 40.8419C28.1915 40.4199 28.0856 40.0183 27.7612 39.7163C27.3829 39.3659 26.9247 39.3591 26.4597 39.454C25.6309 39.6234 24.9917 40.118 24.445 40.7326C23.0482 42.3025 22.2666 44.1782 21.8681 46.2185C21.7063 47.046 21.8921 47.8794 22.0548 48.6982C22.3888 50.392 23.132 51.8922 24.1841 53.2472C24.264 53.3498 24.3564 53.4524 24.3901 53.5918C24.3016 53.6228 24.2669 53.5589 24.2303 53.5221C22.9924 52.3045 21.8238 51.024 20.839 49.5867C20.043 48.4243 19.629 47.1225 19.4875 45.7229C19.4355 45.21 19.3441 44.7028 19.269 44.1927C19.2594 44.1288 19.2671 44.0321 19.1718 44.0475C19.0977 44.0601 19.1381 44.1501 19.1314 44.2043C19.0582 44.7705 19.0418 45.3464 19.0948 45.9088C19.1872 46.9105 19.2729 47.9142 19.425 48.9102C19.5154 49.5093 19.5674 50.1152 19.734 50.7007C19.9351 51.4141 20.2971 52.0567 20.6042 52.7236C20.6648 52.8533 20.7149 52.9888 20.7601 53.1243C20.7745 53.1679 20.814 53.2317 20.7495 53.2676C20.6898 53.3014 20.6552 53.2424 20.6167 53.2104C20.1873 52.8523 19.8543 52.411 19.5539 51.9454C19.2334 51.4489 18.9523 50.9292 18.7636 50.3649C18.6087 50.0445 18.4951 49.7067 18.3978 49.3641C18.1909 48.8453 18.033 48.311 17.905 47.7661C17.6923 47.1264 17.5758 46.4643 17.4516 45.8042C17.4275 45.6794 17.4102 45.5536 17.3794 45.3571C17.2263 45.7084 17.1984 46.021 17.1811 46.3288C17.132 47.2019 17.2822 48.0575 17.4218 48.914C17.5488 49.7009 17.6913 50.481 17.9984 51.2195C18.0792 51.415 18.1793 51.6028 18.2689 51.7954C18.29 51.8399 18.3439 51.8922 18.2948 51.9377C18.2352 51.9929 18.1813 51.9309 18.1389 51.8951C17.8251 51.628 17.5777 51.3037 17.3727 50.9475C17.0271 50.3484 16.7701 49.7106 16.5881 49.0437C16.3523 48.4833 16.2377 47.8891 16.0924 47.3035C15.8729 46.4208 15.769 45.5197 15.6409 44.6215C15.5841 44.2169 15.5062 43.8162 15.4311 43.4155C15.3695 43.0835 15.4831 42.9258 15.8123 42.9432C16.1049 42.9596 16.3956 43.008 16.6863 43.0429C17.1214 43.1 17.5594 43.0748 17.9964 43.0739C18.1428 43.0351 18.29 42.9974 18.4364 42.9587C18.5451 42.9045 18.6529 42.8512 18.7608 42.7961C19.2632 42.4283 19.5616 41.9269 19.7378 41.3336C19.9419 40.6455 20.3866 40.1983 21.0778 39.9718C22.2185 39.5992 23.3861 39.3069 24.5124 38.9052C26.53 38.1841 27.8729 36.7633 28.4379 34.6543C28.487 34.4723 28.4918 34.2797 28.5217 34.0929C28.5332 34.0174 28.5005 33.9245 28.6006 33.8635C28.7623 34.0716 28.7382 34.3233 28.7662 34.5556C28.9154 35.7664 29.0954 36.9753 29.1358 38.1977C29.1676 39.2701 29.0906 40.3338 28.8345 41.381Z" fill="black"/>
<path fill-rule="evenodd" clip-rule="evenodd" d="M83.1979 52.0412C83.1895 52.106 83.2021 52.1786 83.1451 52.2522C82.9899 51.8341 82.9253 51.3966 82.8121 50.9785C82.4598 49.6815 82.3214 48.3478 82.2426 46.9947C82.1688 45.7238 81.9842 44.4666 81.788 43.2122C81.3132 40.1905 80.6011 37.2462 79.6072 34.3948C78.2996 30.6452 76.5617 27.1851 74.3491 24.0482C71.4839 19.985 67.9301 17.0407 63.66 15.2444C61.3249 14.2629 58.9311 13.5544 56.476 13.1189C56.0759 13.0473 55.675 12.9737 55.2741 12.9001C54.6559 12.8227 54.0369 12.7463 53.4179 12.6698C52.9281 12.6379 52.4374 12.603 51.9476 12.5749C51.3454 12.5411 50.744 12.512 50.1409 12.4811C49.3944 12.4849 48.6471 12.484 47.9006 12.4946C47.4359 12.5014 46.9721 12.5246 46.5074 12.5401C46.2868 12.632 46.0528 12.5943 45.828 12.6098C45.1201 12.6591 44.4147 12.7288 43.7118 12.8169C42.931 12.9147 42.1551 13.0618 41.3776 13.1895C41.1528 13.2263 40.9289 13.2737 40.6831 13.2699C40.9154 13.055 41.1478 12.8411 41.3793 12.6253C41.7475 12.2826 42.1232 11.9526 42.4789 11.5945C43.0148 11.0534 43.4082 10.3788 43.7538 9.67033C43.9517 9.26576 44.2092 9.09251 44.616 9.1138C45.2459 9.14768 45.8784 9.12832 46.5099 9.13219C47.2237 9.11574 47.9375 9.10122 48.6521 9.15252C49.0505 9.18155 49.4498 9.19317 49.8499 9.21059C49.9488 9.21446 50.047 9.2193 50.1409 9.25608C50.7037 9.26286 51.2623 9.35384 51.8226 9.40707C52.2915 9.45159 52.7595 9.51741 53.2275 9.57548C53.2921 9.58419 53.355 9.60452 53.4188 9.62C54.0554 9.68679 54.687 9.79616 55.3143 9.94231C56.341 10.1214 57.3534 10.3875 58.359 10.6789C60.8258 11.3932 63.2196 12.3475 65.5002 13.658C68.0307 15.1137 70.3381 16.9343 72.3646 19.2223C73.4876 20.4912 74.443 21.9188 75.4084 23.3416C76.888 25.5261 78.1738 27.8481 79.2348 30.3365C80.7269 33.8383 81.8115 37.4998 82.4925 41.3219C82.8272 43.1967 83.0662 45.086 83.1837 46.9927C83.2466 48.0226 83.2357 49.0562 83.2457 50.088C83.2524 50.7404 83.2843 51.3927 83.1979 52.0412Z" fill="black"/>
<path fill-rule="evenodd" clip-rule="evenodd" d="M30.8484 32.8781C30.7877 34.2428 30.6356 35.5978 30.2775 36.9209C30.2024 37.1987 30.11 37.4717 29.9858 37.733C29.9464 37.8162 29.9281 37.9227 29.8078 37.9662C29.7558 37.8714 29.7808 37.7727 29.7799 37.6807C29.7616 36.4505 29.7038 35.2262 29.3727 34.0309C29.2158 33.4656 28.9732 32.9371 28.7267 32.4077C28.6526 32.3109 28.5872 32.2083 28.5516 32.0903C28.4611 31.978 28.3812 31.858 28.3263 31.7234C28.206 31.6073 28.1338 31.4573 28.0548 31.313C27.7208 30.9743 27.5822 30.5939 27.6833 30.1022C27.8113 29.475 27.8777 28.8362 27.973 28.2032C27.9817 28.1442 28.0038 28.0861 28.0192 28.0281C28.1097 27.4512 28.2002 26.8744 28.2907 26.2975C28.3667 25.8116 28.4428 25.3257 28.5188 24.8399C28.5872 24.3879 28.6276 23.932 28.7441 23.4819C28.8384 23.5158 28.8586 23.5787 28.8769 23.6445C29.7702 24.985 30.2313 26.492 30.5413 28.0532C30.858 29.6464 30.9196 31.2598 30.8484 32.8781Z" fill="black"/>
<path fill-rule="evenodd" clip-rule="evenodd" d="M45.6287 5.39599C45.5546 6.6494 45.0791 7.7702 44.4736 8.84552C44.1819 9.42527 43.8171 9.95664 43.3916 10.4445C42.739 11.2681 41.9631 11.9505 41.0736 12.5051C40.756 12.6861 40.4595 12.9019 40.1332 13.0703C39.545 13.3723 38.927 13.5388 38.2647 13.5368C38.13 13.5359 37.9942 13.5368 37.82 13.4623C38.8827 12.5931 39.9329 11.7511 41.0217 10.9555C41.6108 10.489 42.1421 9.96826 42.5551 9.33139C42.84 8.88907 43.0441 8.4119 43.226 7.92216C43.3916 7.3424 43.4532 6.74135 43.5841 6.15481C43.6034 6.06673 43.6496 5.95833 43.5841 5.89542C43.509 5.82186 43.4214 5.92058 43.3387 5.94188C43.2607 5.96123 43.1952 6.02415 43.1076 6.01156C42.6485 6.26902 42.1527 6.44227 41.6733 6.65327C41.3538 6.79458 41.0284 6.92331 40.705 7.05687C40.2477 7.29884 39.7452 7.36563 39.2437 7.42467C38.4361 7.51952 37.6669 7.76052 36.8988 8.00927C36.7563 8.05476 36.6581 8.15735 36.5648 8.2706C35.5203 9.53077 34.5317 10.8345 33.5046 12.1082C32.3139 13.5872 30.9883 14.9344 29.5021 16.1182C29.426 16.1782 29.3548 16.2469 29.2402 16.2662C29.22 16.1627 29.2826 16.093 29.3288 16.0214C30.9027 13.5475 32.4756 11.0745 34.0523 8.60258C34.1784 8.40513 34.3305 8.22414 34.4624 8.03056C34.5644 7.87957 34.652 7.72181 34.6857 7.53791C34.755 7.16141 34.9841 6.94363 35.3471 6.84394C36.4011 6.55261 37.4658 6.30483 38.5083 5.97091C39.2129 5.74636 39.9021 5.47826 40.5981 5.23048C41.398 4.86656 42.198 4.50264 42.9979 4.13872C43.4417 3.89481 43.9018 3.68768 44.3764 3.51153C44.5477 3.43604 44.7152 3.35086 44.8914 3.28505C45.1522 3.18826 45.2302 3.22891 45.3313 3.50476C45.5527 4.11452 45.6663 4.74558 45.6287 5.39599Z" fill="black"/>
<path fill-rule="evenodd" clip-rule="evenodd" d="M11.0801 21.9943C11.0002 22.6921 10.7306 23.3387 10.5391 24.0055C10.4496 24.3162 10.3417 24.6231 10.2426 24.9318C10.1175 25.4351 10.0096 25.9432 9.83637 26.433C9.76899 26.6246 9.68139 26.8085 9.52063 26.944C9.41859 27.1018 9.26554 27.2015 9.1096 27.2934C8.49545 27.6545 8.31159 28.0629 8.45598 28.7772C8.54262 29.2089 8.50315 29.6212 8.28849 30.0112C8.22014 30.1351 8.14024 30.2551 7.98526 30.2513C7.81873 30.2474 7.77349 30.1003 7.72536 29.9725C7.59926 29.6386 7.4385 29.2844 7.4616 28.9466C7.48663 28.5885 7.54631 28.2168 7.6291 27.8558C7.83798 26.9469 8.24709 26.1165 8.5869 25.2589C8.73129 24.8931 8.9113 24.5408 8.99408 24.1517C9.02104 24.0268 9.06917 23.8865 8.95943 23.7858C8.85065 23.6861 8.71685 23.7432 8.59556 23.7839C7.99489 23.9852 7.49241 24.3704 6.9466 24.6773C6.76948 24.7769 6.59717 24.8873 6.42583 24.9976C6.0841 25.2173 6.01191 25.4022 6.0918 25.8068C6.18133 26.2675 6.26122 26.7301 6.35556 27.1908C6.39791 27.3989 6.41717 27.6999 6.28721 27.7599C6.13705 27.8296 5.94837 27.6041 5.81553 27.4493C5.30246 26.8472 4.91838 26.1765 4.74414 25.3954C4.66425 25.0392 4.75858 24.7189 4.96169 24.4275C5.11379 24.2078 5.30342 24.021 5.5229 23.87C6.73387 23.0415 7.9843 22.2808 9.34159 21.7097C9.38298 21.6923 9.4263 21.6788 9.46865 21.6642C9.68909 21.5646 9.9076 21.461 10.1492 21.4203C10.2233 21.3555 10.3206 21.3681 10.4082 21.3536C10.8818 21.2703 11.1359 21.5181 11.0801 21.9943Z" fill="black"/>
<path fill-rule="evenodd" clip-rule="evenodd" d="M83.2567 36.5997V37.0091C83.1367 37.013 83.1408 36.8853 83.1115 36.8059C82.5484 35.2534 81.9928 33.6971 81.4281 32.1455C80.5086 29.6203 79.3907 27.2229 78.095 24.9436C78.0599 24.8806 78.0297 24.8139 77.9979 24.749C77.5344 23.9979 77.0872 23.2333 76.5977 22.5055C76.0208 21.6479 75.4341 20.8001 74.7895 20.0112C74.7585 19.9745 74.7397 19.9241 74.7153 19.8806C74.2665 19.3502 73.8259 18.8101 73.3665 18.2933C71.6595 16.3749 69.7926 14.7073 67.7707 13.2854C67.7274 13.2545 67.6883 13.2158 67.6466 13.1819C66.9808 12.7657 66.3313 12.3137 65.6541 11.9217C63.0789 10.4302 60.3814 9.37811 57.5761 8.70253C55.7304 8.25828 53.8668 7.98437 51.9893 7.85274C50.9293 7.77918 49.867 7.73853 48.8054 7.76272C47.8156 7.78402 46.8243 7.8237 45.8361 7.91565C45.5946 7.93888 45.5889 7.9292 45.6574 7.66497C45.7472 7.3175 45.8492 6.9739 45.9275 6.62256C45.9814 6.37866 46.1046 6.28961 46.3029 6.29929C47.0446 6.3351 47.7863 6.3593 48.5263 6.40479C49.1644 6.44447 49.8017 6.50545 50.4398 6.56158C51.4287 6.64773 52.4111 6.80065 53.3951 6.94293C54.5873 7.11715 55.7777 7.30685 56.9601 7.56721C59.4308 8.11116 61.8346 8.92611 64.165 10.0392C65.0845 10.4786 65.9943 10.9529 66.8584 11.5316C67.1538 11.7301 67.4737 11.8762 67.7495 12.1153C68.2643 12.4221 68.7465 12.7947 69.2288 13.1664C71.2491 14.7256 73.0752 16.5617 74.7308 18.6398C74.761 18.6775 74.7838 18.724 74.8099 18.7665C75.3387 19.3811 75.8078 20.0606 76.277 20.7391C76.9224 21.676 77.5352 22.6448 78.1129 23.6427C78.1309 23.6737 78.1439 23.7076 78.1602 23.7405C78.6523 24.537 79.0921 25.3743 79.5172 26.2212C80.8105 28.7996 81.9038 31.4913 82.7288 34.331C82.9213 34.9911 83.0396 35.6754 83.1808 36.3529C83.1988 36.4362 83.1947 36.5329 83.2567 36.5997Z" fill="black"/>
<path fill-rule="evenodd" clip-rule="evenodd" d="M27.2448 34.9988C27.1216 35.2049 27.0138 35.4237 26.8453 35.6008C26.5816 36.016 26.2553 36.3751 25.8818 36.6916C25.4804 37.0749 25.0308 37.3836 24.5226 37.6033C24.0374 37.8753 23.5022 38.005 22.9718 38.1492C21.9245 38.4328 20.9272 38.8354 19.9858 39.3765C19.5141 39.6475 19.2109 40.0414 19.079 40.5708C19.028 40.777 18.9567 40.9764 18.8634 41.168C18.6121 41.6839 18.2011 41.9723 17.6399 42.074C16.7658 42.2317 15.9255 42.042 15.0822 41.8572C14.6567 41.7633 14.3006 41.5697 13.98 41.2697C13.516 40.8351 13.4169 40.3231 13.568 39.7346C13.6999 39.2187 14.0108 38.8277 14.4382 38.5257C14.6019 38.4105 14.7472 38.456 14.8897 38.577C15.2776 38.9061 15.7272 39.09 16.2354 39.0977C16.9218 39.1084 17.4993 38.8451 17.971 38.3496C18.2328 38.0747 18.4783 37.7863 18.6997 37.4794C19.0568 36.9839 19.5449 36.6664 20.0888 36.4167C20.7337 36.1215 21.371 35.8079 22.0159 35.5137C22.9564 35.083 23.7862 34.509 24.4282 33.6824C24.4542 33.637 24.4773 33.5886 24.5072 33.5469C24.718 33.2508 24.7103 32.9594 24.4937 32.67C24.4532 32.6158 24.4176 32.5578 24.3801 32.5016C23.9354 31.9954 23.4608 31.5221 22.9208 31.1156C21.7098 30.2049 20.3698 29.5341 18.9654 28.9863C18.6487 28.8634 18.3387 28.7269 18.0702 28.5111C17.6004 28.1326 17.4406 27.5819 17.6755 27.0244C17.8228 26.6769 18.0037 26.343 18.1809 26.0091C18.2906 25.802 18.4542 25.7013 18.7141 25.7081C19.6902 25.7323 20.5807 26.0459 21.4249 26.4988C22.2758 26.9557 23.094 27.4658 23.8275 28.1055C24.0595 28.3068 24.3098 28.4878 24.5245 28.7095C25.0327 29.1605 25.4909 29.6551 25.8866 30.2087C26.2389 30.6317 26.5421 31.0876 26.7934 31.5783C27.1399 32.1474 27.4614 32.733 27.5856 33.394C27.6934 33.9651 27.5413 34.5022 27.2448 34.9988Z" fill="black"/>
<path fill-rule="evenodd" clip-rule="evenodd" d="M37.443 0.891013C36.9963 1.02845 36.5391 1.12621 36.1059 1.30817C35.4234 1.50174 34.764 1.7563 34.1248 2.06215C33.4587 2.38155 33.2835 3.25845 33.7629 3.81401C33.9689 4.05307 33.9708 4.1034 33.785 4.36183C33.2999 5.03644 32.8138 5.71105 32.3286 6.3847C31.9185 6.94703 31.5065 7.50744 31.0984 8.07074C29.7315 9.9552 28.3646 11.8397 26.9996 13.7251C26.8841 13.8848 26.7512 14.0174 26.5471 14.03C26.4028 14.0387 26.2892 14.1006 26.1746 14.1761C22.9277 16.3084 19.6818 18.4396 16.4339 20.5699C16.2462 20.6929 16.1009 20.8506 15.9969 21.051C14.7648 23.4049 13.5307 25.7578 12.2995 28.1126C12.2677 28.1736 12.2023 28.2355 12.2543 28.3256C12.2812 28.3101 12.3091 28.2985 12.3313 28.281C13.2275 27.5348 14.1545 26.8302 15.0718 26.113C15.7158 25.6097 16.4118 25.2148 17.1973 24.9796C18.1917 24.6815 19.1947 24.725 20.2006 24.8983C21.0006 25.0357 21.7861 25.2264 22.4801 25.6687C23.0788 26.0501 23.6766 26.4372 24.2417 26.866C25.2717 27.648 26.0668 28.6488 26.7435 29.7474C26.7916 29.8248 26.8186 29.9235 26.9168 29.9777C26.9351 29.9138 26.9563 29.8645 26.964 29.8122C27.1642 28.463 27.3634 27.1118 27.5617 25.7626C27.6686 25.0406 27.7851 24.3195 27.8746 23.5946C27.9169 23.2481 27.992 22.9064 28.0257 22.5609C28.07 22.1118 28.1663 21.6714 28.2125 21.2223C28.2567 20.7829 28.3771 20.3512 28.43 19.9118C28.4839 19.4559 28.56 19.0029 28.6197 18.549C28.6976 17.9605 28.6379 17.4176 28.3203 16.923C28.1701 16.6887 28.1672 16.4806 28.301 16.2571C28.4724 15.9696 28.6543 15.6899 28.8237 15.4024C29.4465 14.3465 30.0674 13.2886 30.6873 12.2297C31.2938 11.1941 31.8964 10.1556 32.5009 9.11896C32.5404 9.06475 32.5827 9.01249 32.6183 8.95442C33.3432 7.73102 34.0623 6.50278 34.7929 5.28228C35.2309 4.5496 35.6496 3.80239 36.2253 3.16263C36.4053 3.01357 36.5699 2.83935 36.7682 2.72031C37.055 2.54705 37.2042 2.29153 37.3169 1.99536C37.4391 1.67403 37.4998 1.33914 37.5556 1.00232C37.571 0.89682 37.5585 0.855201 37.443 0.891013ZM25.9272 21.4536C25.9099 21.5088 25.8983 21.5717 25.805 21.5978C25.8165 21.4788 25.8271 21.3713 25.8358 21.262C25.9051 20.3367 25.8204 19.4133 25.7963 18.489C25.7915 18.3216 25.6972 18.2586 25.5412 18.2857C25.3554 18.3186 25.1783 18.3748 25.0099 18.4687C23.0182 19.5846 21.0622 20.7567 19.2014 22.0856C19.1167 22.1456 19.0339 22.2202 18.9252 22.2337C18.7702 22.255 18.4833 22.0982 18.4352 21.9608C18.3669 21.7653 18.4853 21.6336 18.6229 21.5388C20.4538 20.2931 22.2953 19.062 24.3476 18.2006C24.6874 18.0573 25.0445 17.9547 25.3978 17.8492C25.9176 17.6934 26.1756 17.8637 26.2487 18.4C26.3883 19.4453 26.2362 20.4577 25.9272 21.4536Z" fill="black"/>
<path fill-rule="evenodd" clip-rule="evenodd" d="M19.2119 29.9428C19.1714 30.0386 19.0656 30.0202 18.9741 30.0028C18.6439 29.9428 18.307 29.9167 17.9826 29.8218C17.38 29.7628 16.7996 29.5963 16.2095 29.4705C15.5299 29.3272 15.0226 29.5489 14.677 30.148C14.4161 30.6 14.1687 31.0607 13.9108 31.5147C13.88 31.5698 13.8569 31.6647 13.7847 31.6569C13.7048 31.6492 13.6826 31.5514 13.6566 31.4837C13.5248 31.1478 13.5065 30.7878 13.4709 30.4355C13.4323 30.0541 13.3091 29.7473 12.9809 29.5121C12.4784 29.1511 12.4851 28.7562 12.9645 28.3652C13.389 28.0196 13.8752 27.7709 14.3391 27.4873C15.2036 26.9598 16.0747 26.4449 16.9449 25.929C17.1779 25.7906 17.4137 25.6561 17.7169 25.659C17.6476 25.9387 17.5013 26.1681 17.3935 26.413C17.3049 26.6143 17.2048 26.8098 17.1192 27.0121C16.8997 27.5309 17.0027 27.9925 17.3925 28.3865C17.5995 28.5955 17.8248 28.7862 18.0423 28.9846C18.3908 29.2314 18.7412 29.4773 19.0896 29.725C19.1657 29.7792 19.2513 29.847 19.2119 29.9428Z" fill="black"/>
<path fill-rule="evenodd" clip-rule="evenodd" d="M29.568 9.20911C29.3601 9.47528 29.1483 9.73951 28.9385 10.0047C28.8971 10.057 28.8644 10.1209 28.7874 10.1286C28.7912 10.2051 28.7383 10.2544 28.6969 10.3057C28.0654 11.0897 27.432 11.8708 26.8005 12.6548C26.6561 12.8338 26.479 12.9751 26.3009 13.1145C26.1758 13.2123 26.0285 13.2655 25.8783 13.1832C25.7407 13.1077 25.6906 12.9674 25.7012 12.8145C25.7407 12.2608 25.4529 11.9172 24.9918 11.682C24.1553 11.2552 23.2523 11.0529 22.3369 10.8932C22.204 10.869 22.0712 10.8429 21.9374 10.8158C21.9172 10.8119 21.8999 10.7964 21.8633 10.7771C24.1129 9.93018 26.3876 9.25073 28.7806 9.0436C29.0761 9.01166 29.3717 8.96714 29.672 8.9894C29.6864 9.09296 29.6162 9.14716 29.568 9.20911Z" fill="black"/>
<path fill-rule="evenodd" clip-rule="evenodd" d="M13.382 36.3293C13.2867 36.3283 13.1837 36.3486 13.099 36.278C12.9681 36.2606 12.8477 36.2102 12.737 36.1386C12.1566 35.9112 11.6743 35.5385 11.2537 35.0875C10.705 34.4981 10.189 33.8825 9.98974 33.0704C9.90503 32.723 9.94065 32.4084 10.2342 32.1635C10.3305 32.0832 10.3825 32.0706 10.4383 32.2177C10.5124 32.4152 10.5019 32.6194 10.5336 32.8207C10.6501 33.5399 11.0467 34.0886 11.5848 34.5474C11.7975 34.7294 12.0228 34.8949 12.2461 35.0633C12.3164 35.1156 12.4011 35.1785 12.4935 35.1185C12.5734 35.0662 12.5647 34.9714 12.558 34.8891C12.4916 34.1119 12.403 33.3347 12.3578 32.5565C12.3135 31.8006 12.1027 31.0824 11.9506 30.3488C11.8774 29.9974 11.9207 29.6383 12.0016 29.288C12.0257 29.1834 12.0738 29.0576 12.1806 29.0557C12.2798 29.0547 12.3664 29.1544 12.3982 29.2638C12.5657 29.8358 12.789 30.3952 12.8535 30.9953C12.9411 31.4434 12.9353 31.8983 12.9199 32.3494C12.892 33.1392 12.9363 33.9183 13.1606 34.68C13.3127 35.1378 13.5071 35.583 13.6092 36.0563C13.6688 36.3283 13.6592 36.3341 13.382 36.3293Z" fill="black"/>
<path fill-rule="evenodd" clip-rule="evenodd" d="M23.9207 33.2923C23.8533 33.4094 23.7753 33.5168 23.6694 33.603C23.19 34.1537 22.5769 34.5312 21.9666 34.9058C20.9183 35.5494 19.7891 36.0111 18.6109 36.3527C18.4732 36.3924 18.3337 36.4282 18.1883 36.4205C18.0718 36.4147 17.9515 36.3953 17.9072 36.2714C17.8649 36.1504 17.9303 36.0507 18.0218 35.9724C18.195 35.8252 18.3789 35.6926 18.5849 35.5949C19.9287 34.958 20.9674 33.9601 21.8674 32.7977C21.9791 32.6545 22.083 32.5025 22.2101 32.3747C22.6452 31.9353 23.3681 32.0195 23.6656 32.5364C24.0198 32.7048 24.1084 32.9652 23.9207 33.2923Z" fill="black"/>
<path fill-rule="evenodd" clip-rule="evenodd" d="M17.9501 37.712C17.8528 37.7324 17.8143 37.6646 17.7672 37.6114C16.7035 36.9706 15.9719 36.0376 15.4511 34.852C15.2981 35.2585 15.2663 35.6001 15.2567 35.9476C15.2365 36.6493 15.3741 37.3375 15.427 38.0314C15.4309 38.0769 15.4357 38.1215 15.4396 38.1669C15.4434 38.2144 15.4453 38.2618 15.3905 38.2802C15.3356 38.2995 15.3096 38.256 15.2836 38.2182C15.1373 38.0082 15.0786 37.7662 15.0266 37.5204C14.7657 36.2825 14.7128 35.0436 14.9525 33.796C15.0102 33.4979 15.1527 33.2424 15.2923 32.984C15.3462 32.8843 15.4492 32.7913 15.5377 32.8126C15.6446 32.8388 15.6773 32.9781 15.6754 33.0943C15.6639 33.5289 15.7072 33.9596 15.8304 34.3758C16.0951 35.2662 16.5851 36.0037 17.3234 36.5728C17.5053 36.7132 17.7075 36.8458 17.7729 37.0926C17.9472 37.2668 17.9347 37.4904 17.9501 37.712Z" fill="black"/>
<path fill-rule="evenodd" clip-rule="evenodd" d="M12.2142 28.3755L12.2114 28.3618L12.2215 28.3636L12.2142 28.3755Z" fill="black"/>
<path d="M44.8675 27.7849C45.1808 27.7849 45.4099 27.8572 45.5548 28.0028C45.6637 28.1124 45.7053 28.2388 45.6817 28.3845C45.6693 28.5053 45.6424 28.6002 45.6008 28.6668C45.5582 28.7334 45.5132 28.7853 45.465 28.8215C45.4043 28.8576 45.3347 28.8971 45.2572 28.94C45.1786 28.9829 45.091 29.01 44.9944 29.0225C44.6811 29.0473 44.4273 29.0676 44.2341 29.0857C44.041 29.1038 43.8781 29.1162 43.7456 29.1218C43.6131 29.1286 43.4896 29.1343 43.375 29.1399C43.2605 29.1467 43.1313 29.1523 42.9865 29.158C42.8416 29.1647 42.6664 29.176 42.462 29.1941C42.2565 29.2122 41.9915 29.2336 41.6658 29.2573C41.6052 29.6458 41.5299 30.155 41.4401 30.7851C41.3491 31.4163 41.2503 32.1977 41.1414 33.1315C40.8033 35.8121 40.5866 38.0546 40.49 39.8624C40.4777 40.1051 40.4833 40.3931 40.508 40.7262C40.5327 41.0593 40.5742 41.4387 40.6349 41.8632C40.6472 41.9479 40.6225 42.0202 40.563 42.0812C40.5147 42.1297 40.4541 42.1534 40.3811 42.1534H40.344C40.1363 42.1173 39.9218 42.0382 39.7028 41.9174C39.6781 41.905 39.6635 41.896 39.6567 41.8903C39.65 41.8836 39.6354 41.8745 39.6107 41.8632C39.2929 41.4996 39.1345 40.8933 39.1345 40.0442C39.1345 38.7343 39.2446 36.8791 39.4647 34.4774C39.6848 32.113 39.7949 30.6089 39.7949 29.9664C39.7949 29.8693 39.7915 29.7756 39.7859 29.6842C39.7791 29.5927 39.7769 29.5057 39.7769 29.4199C39.4591 29.4199 39.1312 29.429 38.7931 29.447C38.454 29.4651 38.116 29.499 37.7791 29.5475C37.441 29.5961 37.1221 29.6661 36.82 29.7564C36.5179 29.8479 36.2596 29.9653 36.0417 30.111C35.9216 30.1957 35.8609 30.2623 35.8609 30.3108C35.8609 30.3357 35.8733 30.3718 35.8969 30.4204C35.9205 30.4689 36.0114 30.5231 36.1686 30.5841C36.3012 30.6451 36.4786 30.6936 36.7021 30.7297C36.9256 30.7659 37.1872 30.7727 37.4893 30.7478C37.6342 30.7354 37.8206 30.7117 38.0497 30.6756C38.2788 30.6394 38.4955 30.6089 38.701 30.5841C38.9054 30.5604 39.0851 30.5536 39.2367 30.566C39.3883 30.5784 39.4647 30.627 39.4647 30.7117C39.4647 30.7602 39.4523 30.8088 39.4276 30.8573C39.2805 31.1001 39.1199 31.2876 38.9447 31.4208C38.7695 31.554 38.5798 31.6568 38.3742 31.7302C38.2417 31.7787 38.1025 31.8216 37.9587 31.8578C37.8139 31.8939 37.5668 31.9188 37.2175 31.93C36.7829 31.9425 36.4123 31.9086 36.1046 31.8296C35.7969 31.7505 35.5409 31.6387 35.3354 31.4931C35.1299 31.3237 34.967 31.1171 34.8469 30.8743C34.7267 30.6315 34.6773 30.3345 34.702 29.9834C34.702 29.8987 34.72 29.7869 34.7559 29.6469C34.7918 29.508 34.8558 29.3646 34.9457 29.2189C35.0367 29.0733 35.1658 28.9366 35.3343 28.8102C35.5027 28.6826 35.7206 28.5832 35.9856 28.5098C36.263 28.4376 36.6605 28.3642 37.1794 28.2919C37.6982 28.2196 38.3013 28.153 38.9885 28.092C39.2199 28.0796 39.3928 28.0683 39.5096 28.0559C39.6253 28.0435 39.7264 28.0345 39.8117 28.0288C39.8971 28.0232 39.9824 28.0198 40.0689 28.0198C40.1542 28.0198 40.2789 28.0164 40.4428 28.0107C40.6068 28.0051 40.8336 27.9961 41.1234 27.9836C41.4131 27.9712 41.7983 27.9532 42.2812 27.9294C42.8719 27.9057 43.2975 27.8843 43.557 27.8662C43.8164 27.8481 44.0062 27.8335 44.1263 27.821C44.2465 27.8086 44.3431 27.7996 44.4161 27.7939C44.4868 27.7872 44.6373 27.7849 44.8675 27.7849Z" fill="black"/>
<path d="M66.1876 38.3107C66.1146 37.9268 65.9877 37.4412 65.8057 36.8744C65.6418 36.3437 65.5149 35.8774 65.4329 35.4935C65.3509 35.1095 65.306 34.7889 65.306 34.5235C65.306 34.3959 65.3419 34.2028 65.4059 33.9476C65.461 33.7557 65.4879 33.627 65.5059 33.5637C65.5149 33.4994 65.5239 33.4542 65.5239 33.426C65.5239 33.3808 65.5149 33.3164 65.4879 33.243C65.4699 33.1787 65.4329 33.1064 65.379 33.033C65.324 32.9596 65.233 32.9054 65.1061 32.8501C64.9882 32.8049 64.8332 32.7767 64.6423 32.7767C64.3874 32.7767 64.1875 32.8501 64.0415 32.9958C63.9045 33.1425 63.8326 33.3435 63.8326 33.5999C63.8326 34.0391 63.8146 34.4501 63.7776 34.8442C63.7416 35.2371 63.6686 35.603 63.5687 35.9508C63.5417 36.0603 63.5137 36.1698 63.4867 36.2895C63.4227 36.5278 63.3598 36.7649 63.2958 37.0122C63.2688 37.1127 63.2509 37.2132 63.2228 37.3046C63.1779 37.4424 63.1498 37.57 63.1139 37.6705C63.0588 37.8715 63.0139 38.0182 62.9959 38.1007C62.969 38.1831 62.951 38.2384 62.9319 38.2475V38.2655C62.7961 38.6957 62.668 39.0243 62.5501 39.2626C62.4322 39.5008 62.3412 39.6747 62.2503 39.7842C62.1683 39.8938 62.1043 39.9581 62.0594 39.9852C62.0133 40.0123 61.9864 40.0214 61.9774 40.0214C61.9414 39.9852 61.8954 39.9118 61.8595 39.8114C61.8325 39.7199 61.8145 39.5923 61.7954 39.4184C61.7775 39.2445 61.7685 39.0063 61.7685 38.7138C61.7685 37.6705 61.9325 36.3448 62.2694 34.7437C62.3053 34.6251 62.2694 34.5246 62.1514 34.4512C61.7517 34.1949 61.4417 34.0673 61.2148 34.0673C60.942 34.0673 60.76 34.1227 60.6781 34.2322C60.5871 34.3417 60.5231 34.4422 60.5051 34.5246V34.7719C60.5051 34.8453 60.4871 34.9729 60.4411 35.1649C60.4052 35.3568 60.3501 35.6222 60.2681 35.9429C60.1952 36.2726 60.0862 36.7017 59.9492 37.2233C59.7673 37.9098 59.6123 38.4123 59.4944 38.733C59.3765 39.0537 59.2765 39.2637 59.1945 39.3642C59.1945 39.2998 59.1945 39.2276 59.1856 39.1451C59.1856 39.0627 59.1766 38.9532 59.1766 38.8064C59.1766 38.4586 59.1945 38.0566 59.2406 37.5813C59.2765 37.1149 59.3226 36.5842 59.3866 35.9993V35.9722C59.3866 35.4596 59.3226 35.0757 59.1957 34.8193C59.0957 34.6003 58.9778 34.4625 58.8408 34.3982C58.7139 34.3338 58.5949 34.2977 58.4859 34.2977C58.322 34.2977 58.1771 34.3428 58.0581 34.4354C57.9401 34.5269 57.8301 34.6274 57.7492 34.7561C57.6673 34.8747 57.6032 34.9944 57.5493 35.122C57.5044 35.2405 57.4584 35.332 57.4404 35.3963C57.3135 35.717 57.1765 36.1551 57.0496 36.7231C56.9227 37.2809 56.7857 37.9855 56.6307 38.8267C56.6038 38.9182 56.5757 39.0096 56.5577 39.0921C56.5308 39.1745 56.5027 39.2569 56.4757 39.3484C56.4667 39.2208 56.4578 39.0921 56.4578 38.9554V38.5433C56.4578 37.9482 56.5027 37.4548 56.5948 37.0528C56.6947 36.5865 56.7497 36.0738 56.7497 35.5341C56.7497 35.3049 56.7228 35.1129 56.6588 34.9763C56.6038 34.8295 56.5409 34.729 56.4589 34.6466C56.3859 34.5732 56.2949 34.519 56.204 34.4908C56.104 34.4637 56.022 34.4546 55.9401 34.4546C55.7671 34.4546 55.6121 34.519 55.4852 34.6466C55.2483 34.9029 55.1663 35.4144 55.2123 36.1743C55.2123 36.2105 55.2213 36.2387 55.2303 36.2477V36.2568C55.2303 36.2748 55.2213 36.2839 55.2213 36.2929C55.1573 36.5221 55.1034 36.6678 55.0753 36.7502C54.9395 37.0427 54.7935 37.2256 54.6475 37.2899C54.5015 37.3543 54.3746 37.3814 54.2567 37.3814C54.1657 37.3814 54.0927 37.3543 54.0287 37.308C54.0287 36.7502 54.0197 36.3019 54.0017 35.9361C53.9928 35.5793 53.9838 35.2959 53.9658 35.0858C53.9568 34.8668 53.9388 34.7109 53.9209 34.6105C53.9029 34.51 53.8849 34.4275 53.876 34.3812C53.73 33.9793 53.4391 33.6224 52.9933 33.3018C52.5474 32.963 52.1285 32.7982 51.7377 32.7982C51.6647 32.7982 51.5828 32.8072 51.4918 32.8253C51.4008 32.8433 51.3099 32.8896 51.2189 32.9528C51.1369 33.0172 51.046 33.1087 50.964 33.2182C50.882 33.3368 50.818 33.4926 50.7821 33.6845C50.718 33.9409 50.6731 34.1238 50.645 34.2423C50.6271 34.3609 50.6091 34.4433 50.59 34.4896C50.517 34.5721 50.4631 34.6997 50.435 34.8916V35.0836C50.435 35.1389 50.444 35.2021 50.462 35.2846V35.3941C50.2891 35.7961 50.1981 36.4555 50.1711 37.3701C50.1532 37.4345 50.1352 37.4977 50.1161 37.553C50.0072 37.9652 49.8881 38.331 49.7523 38.6325C49.6254 38.943 49.5063 39.1993 49.4064 39.4105C49.2884 39.6668 49.1975 39.8215 49.1245 39.8949C49.0515 39.9593 49.0066 39.9954 48.9976 39.9954C48.8887 39.9954 48.7977 39.8768 48.7337 39.6386C48.6697 39.4003 48.6337 39.0808 48.6337 38.6777C48.6337 37.4977 48.8067 35.9609 49.1615 34.0944L49.1795 33.9476L49.0706 33.8562C48.7707 33.5908 48.5428 33.426 48.4069 33.3718C48.2699 33.3074 48.1609 33.2803 48.07 33.2803C47.9521 33.2803 47.824 33.3255 47.7061 33.4169C47.5792 33.5084 47.4781 33.7004 47.4242 34.0018C47.3973 34.1486 47.3243 34.4591 47.2064 34.9436C47.0885 35.4189 46.9245 36.0682 46.7156 36.9015C46.6247 37.2493 46.5337 37.5688 46.4517 37.8624C46.3787 38.1549 46.3057 38.4202 46.2428 38.6585V38.6223C46.2339 38.558 46.2249 38.4948 46.2159 38.4394C46.2159 38.3841 46.2069 38.3389 46.2069 38.3017C46.2069 38.2655 46.2069 38.2283 46.1979 38.2102C46.1979 37.2775 46.2709 36.1066 46.4158 34.7155C46.5708 33.3164 46.7976 31.6882 47.0986 29.8036C47.1345 29.5383 47.2075 29.2458 47.3164 28.9342C47.3984 28.6598 47.4433 28.4125 47.4433 28.1844C47.4433 27.8095 47.2345 27.6086 46.8066 27.5803H46.7516C46.5146 27.5803 46.3327 27.6356 46.2058 27.7271C46.0879 27.8276 46.0059 27.9281 45.9598 28.0196L45.9419 28.0749V28.679C45.9419 29.0268 45.8969 29.6026 45.8239 30.4168C45.742 31.2219 45.633 32.246 45.487 33.4994C45.3321 34.7708 45.2142 35.7949 45.1412 36.5639C45.0682 37.3317 45.0322 37.8715 45.0322 38.1921C45.0322 39.3811 45.1142 40.2506 45.2871 40.7994C45.4601 41.3481 45.715 41.6316 46.0699 41.6316C46.2058 41.6316 46.3518 41.5853 46.4798 41.504L46.5708 41.4486L46.5887 41.3391C46.8167 40.333 47.0166 39.5008 47.1704 38.8414C47.3254 38.1921 47.4613 37.6524 47.5702 37.2222V38.5207L47.5882 38.7861V38.8041C47.7342 40.4234 48.2339 41.2284 49.1076 41.2284C49.5625 41.2284 49.9263 40.8897 50.1902 40.2224C50.2172 40.149 50.2632 40.0214 50.3171 39.8384C50.3811 40.0948 50.4631 40.3229 50.5541 40.525C50.8449 41.1381 51.2998 41.4486 51.9096 41.4486C52.4003 41.4486 52.8192 41.1742 53.1471 40.6345C53.2201 40.5069 53.3111 40.333 53.3931 40.1128C53.484 39.9028 53.584 39.6194 53.7019 39.2897V39.2535C53.7378 39.0977 53.7749 38.9521 53.8018 38.8143C53.8378 38.6765 53.8659 38.549 53.8928 38.4214C54.0747 38.4857 54.1926 38.5309 54.2567 38.549C54.3207 38.567 54.3746 38.5761 54.4116 38.5761C54.7665 38.5761 55.0843 38.4394 55.3572 38.1639C55.3482 38.3468 55.3482 38.5027 55.3392 38.6393C55.3303 38.8685 55.3303 39.0514 55.3303 39.1881C55.3303 39.4444 55.3392 39.7097 55.3572 39.9841C55.3752 40.2495 55.4212 40.4967 55.4841 40.7248C55.5481 40.9439 55.6391 41.137 55.748 41.2826C55.8659 41.4294 56.0209 41.5017 56.2298 41.5017C56.7666 41.5017 57.2034 40.9529 57.5493 39.8644C57.6672 39.4805 57.8683 38.584 58.1501 37.1657C58.1861 36.9467 58.2231 36.7818 58.2591 36.6621C58.2501 36.8722 58.2411 37.0923 58.2321 37.3204C58.2231 37.5496 58.2142 37.7958 58.1872 38.0521C58.1052 38.9758 58.0693 39.5245 58.0693 39.6894C58.0693 39.9999 58.1052 40.2562 58.1692 40.4482C58.2332 40.6492 58.3062 40.805 58.4062 40.9236C58.5061 41.0421 58.6061 41.1155 58.7251 41.1528C58.8341 41.1889 58.9531 41.2171 59.071 41.2171C59.5438 41.2171 59.9537 40.7598 60.2906 39.8452C60.3355 39.7538 60.3816 39.616 60.4366 39.4331C60.5006 39.2411 60.5736 39.0119 60.6646 38.7285V39.1858C60.6646 39.2039 60.6646 39.2039 60.6825 39.2039C60.8285 40.5487 61.2643 41.216 61.983 41.216C62.3929 41.216 62.7567 40.9507 63.0835 40.429C63.1386 40.6119 63.2475 40.7858 63.4205 40.9597C63.8023 41.3899 64.2391 41.5999 64.7209 41.5999C65.1847 41.5999 65.5755 41.3617 65.8944 40.8863C66.1763 40.4742 66.3133 39.9344 66.3133 39.2671C66.3055 39.0243 66.2695 38.7036 66.1876 38.3107ZM52.7417 38.6032C52.6867 38.8414 52.5598 39.17 52.3689 39.6002C52.2599 39.8384 52.169 40.0022 52.1139 40.0846C52.0589 40.167 52.014 40.2212 51.987 40.2495C51.8601 40.2404 51.7591 40.167 51.6872 40.0304C51.6052 39.8926 51.5412 39.7289 51.5053 39.5268C51.4604 39.3258 51.4233 39.1248 51.4143 38.9046C51.4053 38.6856 51.3963 38.4835 51.3963 38.3005C51.3963 38.0081 51.4233 37.6603 51.4693 37.2572C51.5244 36.8451 51.5962 36.3787 51.7063 35.839C51.7703 35.4912 51.8242 35.2078 51.8882 34.9887C51.9433 34.7697 51.9972 34.6048 52.0432 34.4761C52.0791 34.3575 52.1252 34.2661 52.1521 34.2198C52.1881 34.1644 52.2072 34.1373 52.2251 34.1193C52.3251 34.1193 52.4071 34.1464 52.4711 34.2107C52.5351 34.2661 52.562 34.3846 52.562 34.5675V34.7324C52.562 34.7968 52.562 34.8882 52.5441 34.9887C52.5261 35.0892 52.5081 35.1807 52.5081 35.2631V35.4731C52.5081 35.5375 52.5171 35.647 52.5351 35.8028C52.553 35.9496 52.6081 36.2331 52.6811 36.6441C52.7361 36.9455 52.772 37.2109 52.799 37.4582C52.8259 37.6964 52.8349 37.9155 52.8349 38.0894C52.8327 38.191 52.8057 38.3649 52.7417 38.6032ZM64.8321 40.2133C64.7501 40.3511 64.6771 40.4425 64.5861 40.4696C64.5042 40.5058 64.4312 40.525 64.3683 40.525C64.2133 40.525 64.0493 40.333 63.8674 39.9672C63.8584 39.7109 63.8034 39.546 63.6945 39.4918C63.6394 39.4647 63.6035 39.4365 63.5575 39.4274C63.7034 39.0345 63.8483 38.6223 63.9853 38.1921C63.9943 38.165 64.0033 38.147 64.0033 38.1187C64.0033 38.1097 64.0123 38.1097 64.0123 38.1007C64.0763 38.0182 64.1212 37.9178 64.1583 37.8263C64.1942 37.7258 64.2313 37.6434 64.2582 37.588V37.57C64.3031 37.4142 64.3492 37.2595 64.3851 37.1036C64.43 36.9388 64.4671 36.783 64.521 36.6283C64.548 36.7107 64.5659 36.7841 64.585 36.8665C64.612 36.958 64.6299 37.0314 64.658 37.0957V37.1138C64.9129 38.0013 65.0398 38.6957 65.0398 39.1903C65.041 39.6183 64.968 39.957 64.8321 40.2133Z" fill="black"/>
<path d="M73.0104 34.5877C72.7555 34.5877 72.5915 34.7796 72.5196 35.1636C72.4017 35.6943 72.3107 36.0691 72.2377 36.2882C72.1647 36.5174 72.1198 36.6631 72.0917 36.7455C71.9547 37.038 71.8099 37.2209 71.6639 37.2852C71.5179 37.3496 71.382 37.3767 71.2731 37.3767C71.1821 37.3767 71.1001 37.3496 71.0361 37.3033C71.0361 36.7455 71.0361 36.2972 71.0181 35.9314C71.0092 35.5746 70.9912 35.2912 70.9822 35.0811C70.9732 34.8621 70.9553 34.7063 70.9362 34.6058C70.9182 34.5053 70.9002 34.4228 70.8912 34.3765C70.7453 33.9746 70.4544 33.6177 70.0086 33.2971C69.5627 32.9583 69.1438 32.7935 68.753 32.7935C68.671 32.7935 68.5891 32.8025 68.5071 32.8206C68.4161 32.8386 68.3252 32.8849 68.2342 32.9482C68.1432 33.0125 68.0612 33.104 67.9793 33.2135C67.8973 33.3321 67.8333 33.4879 67.7973 33.6798C67.7333 33.9362 67.6884 34.1191 67.6603 34.2376C67.6323 34.3562 67.6154 34.4386 67.6053 34.4849C67.5323 34.5674 67.4784 34.695 67.4503 34.8869V35.0789C67.4503 35.1342 67.4593 35.1974 67.4683 35.2799V35.3894C67.2684 35.893 67.1685 36.7884 67.1685 38.07C67.1685 39.1495 67.2954 39.9636 67.5682 40.5214C67.8591 41.1345 68.3139 41.4451 68.9237 41.4451C69.4145 41.4451 69.8334 41.1707 70.1613 40.6309C70.2343 40.5033 70.3163 40.3295 70.4072 40.1093C70.4982 39.8992 70.5981 39.6158 70.7161 39.2861V39.25C70.752 39.0942 70.7891 38.9485 70.816 38.8107C70.8519 38.673 70.88 38.5454 70.907 38.4178C71.0799 38.4821 71.2068 38.5273 71.2708 38.5454C71.3348 38.5634 71.3798 38.5725 71.4258 38.5725C72.0446 38.5725 72.5443 38.1513 72.9183 37.3191C73.1092 36.8979 73.2462 36.496 73.3372 36.1121C73.4281 35.7372 73.4742 35.3804 73.4742 35.0416C73.4742 34.7424 73.3192 34.5877 73.0104 34.5877ZM69.7626 38.603C69.7076 38.8412 69.5807 39.1698 69.3898 39.6C69.2808 39.8383 69.1899 40.002 69.1349 40.0844C69.0708 40.1669 69.0349 40.2211 69.008 40.2493C68.8811 40.2402 68.78 40.1669 68.6991 40.0302C68.6261 39.8925 68.5621 39.7287 68.5172 39.5266C68.4723 39.3256 68.4442 39.1246 68.4352 38.9045C68.4172 38.6854 68.4172 38.4833 68.4172 38.3004C68.4172 38.0079 68.4442 37.6601 68.4902 37.257C68.5453 36.8449 68.6171 36.3785 68.7182 35.8388C68.7822 35.491 68.8451 35.2076 68.9001 34.9885C68.9642 34.7695 69.0091 34.6046 69.0551 34.4759C69.1 34.3573 69.1371 34.2659 69.173 34.2196C69.2 34.1643 69.2281 34.1372 69.237 34.1191C69.346 34.1191 69.428 34.1462 69.492 34.2106C69.556 34.2659 69.5829 34.3844 69.5829 34.5674V34.7322C69.5829 34.7966 69.5829 34.888 69.565 34.9885C69.538 35.089 69.529 35.1805 69.529 35.2629V35.4729C69.529 35.5373 69.538 35.6468 69.556 35.8027C69.574 35.9495 69.62 36.2329 69.702 36.6439C69.757 36.9454 69.7929 37.2107 69.8199 37.458C69.8379 37.6963 69.8558 37.9153 69.8558 38.0892C69.8536 38.1908 69.8255 38.3647 69.7626 38.603Z" fill="black"/>
</svg>
