<svg width="32" height="32" viewBox="0 0 32 32" fill="none" xmlns="http://www.w3.org/2000/svg">
<circle cx="16" cy="16" r="16" fill="white"/>
<path d="M16.0154 10.4159C16.55 9.29957 17.3453 8.60393 18.5717 8.17983C19.2325 7.95129 20.3185 7.93904 21.0356 8.15193C21.336 8.24121 21.8978 8.5305 22.2839 8.79485L22.986 9.27559L23.4738 9.09259C23.7421 8.99201 24.2397 8.77087 24.5797 8.60129C24.9197 8.43171 25.2216 8.31655 25.2505 8.3455C25.3647 8.4595 24.6898 9.5 24.2121 9.94693C23.7214 10.4059 23.7149 10.4197 23.9925 10.4171C24.1498 10.4156 24.5994 10.305 24.9917 10.1713C25.384 10.0377 25.7049 9.96045 25.7049 9.99975C25.7049 10.2448 24.8143 11.2149 24.1934 11.6463C23.904 11.8474 23.8958 11.8803 23.8557 13.0145C23.7446 16.1535 22.5893 18.7678 20.4009 20.8323C18.9175 22.2317 16.8504 23.3214 14.7695 23.8011C13.7255 24.0418 10.894 24.0708 9.90928 23.851C8.87744 23.6205 7.66483 23.2122 6.805 22.8056L6 22.4249L7.05656 22.3503C8.99007 22.2138 10.7823 21.6266 11.4728 20.9032L11.7684 20.5935L11.2477 20.5318C10.1329 20.3998 8.90449 19.4887 8.34049 18.3756L8.07096 17.8438L8.77876 17.8559C9.81715 17.8738 9.91794 17.7405 9.13493 17.3852C7.94492 16.845 7.05667 15.6768 6.81123 14.3291C6.75311 14.0095 6.72089 13.7324 6.7398 13.7131C6.75861 13.694 6.88518 13.7508 7.02095 13.8394C7.3151 14.0313 8.24995 14.2544 8.44541 14.1794C8.53501 14.145 8.37916 13.9222 8.00049 13.5436C7.63555 13.1785 7.29175 12.693 7.08096 12.2449C6.79083 11.6282 6.74562 11.4197 6.75439 10.7368C6.76125 10.1942 6.83785 9.75284 6.99728 9.33687C7.12545 9.00278 7.24252 8.72934 7.25741 8.72934C7.27242 8.72934 7.6719 9.10632 8.14524 9.56709C10.1438 11.5126 12.702 12.761 14.9066 12.8663L15.6696 12.9028L15.7024 11.9519C15.7289 11.185 15.7895 10.8877 16.0154 10.4159Z" fill="black"/>
</svg>
