<svg width="20" height="10" viewBox="0 0 20 10" fill="none" xmlns="http://www.w3.org/2000/svg">
<path d="M19.9602 9.75195L10.6817 0.257812C10.3449 -0.0859375 9.65546 -0.0859375 9.32127 0.257812L0.040162 9.75195C0.017322 9.7753 0.00363969 9.80289 0.000631333 9.83166C-0.00237703 9.86043 0.00540622 9.88925 0.0231184 9.91494C0.0408306 9.94062 0.0677798 9.96217 0.100979 9.97718C0.134178 9.9922 0.17233 10.0001 0.211206 10H2.18479C2.31899 10 2.4453 9.95117 2.52425 9.87109L10.0002 2.22266L17.4761 9.87109C17.5551 9.95117 17.6814 10 17.8156 10H19.7892C19.9602 10 20.0602 9.85547 19.9602 9.75195Z" fill="white"/>
</svg>
