<svg width="873" height="67" viewBox="0 0 873 67" fill="none" xmlns="http://www.w3.org/2000/svg">
<g filter="url(#filter0_d_1502_1457)">
<mask id="path-1-outside-1_1502_1457" maskUnits="userSpaceOnUse" x="-4" y="-4" width="867" height="57" fill="black">
<rect fill="white" x="-4" y="-4" width="867" height="57"/>
<path d="M0.94 4.6C1.59333 3.29333 2.62 2.29 4.02 1.59C5.46667 0.843331 7.17 0.469999 9.13 0.469999C12.21 0.469999 14.66 1.59 16.48 3.83C18.3467 6.02333 19.28 9.54666 19.28 14.4V39.39L35.31 1.87H43.57L45.46 37.29L45.25 39.32L61.91 1.87H71.5L49.1 48H34.19L32.79 26.72L23.55 48H6.68L4.58 14.4C4.44 11.88 4.02 9.80333 3.32 8.17C2.66667 6.49 1.87333 5.3 0.94 4.6ZM105.116 42.75C105.116 39.4833 105.77 34.5833 107.076 28.05H96.7164L92.8664 48H78.2364L87.1264 1.8H101.896L97.8364 22.45H108.196L112.046 1.8H126.816C126.163 5.25333 125.416 8.91666 124.576 12.79L122.196 24.2C120.423 33.0667 119.536 39.4367 119.536 43.31C119.536 44.8967 119.793 46.1333 120.306 47.02C117.973 48.6067 115.43 49.4 112.676 49.4C109.97 49.4 108.033 48.7467 106.866 47.44C105.7 46.1333 105.116 44.57 105.116 42.75ZM169.729 49.4C163.755 49.4 160.489 45.1533 159.929 36.66H147.889C146.955 38.8067 146.162 40.8133 145.509 42.68L143.689 48H133.889L155.939 1.8H170.989L173.929 35.82C174.395 40.72 175.562 43.8933 177.429 45.34C176.075 48.0467 173.509 49.4 169.729 49.4ZM150.059 31.55H159.719L158.879 13.56V11.67L153.909 22.66L150.059 31.55ZM196.251 13.91C194.664 12.6967 193.871 10.8067 193.871 8.24C193.871 5.62667 194.711 3.64333 196.391 2.29C198.118 0.936663 200.451 0.259997 203.391 0.259997C205.258 0.259997 208.408 0.586664 212.841 1.24L217.601 1.94C219.188 2.12666 220.798 2.22 222.431 2.22C224.111 2.22 225.511 1.87 226.631 1.17C228.311 2.66333 229.151 4.48333 229.151 6.63C229.151 8.77667 228.194 10.62 226.281 12.16C224.321 13.7933 222.081 14.61 219.561 14.61C218.348 14.61 216.761 14.4467 214.801 14.12C212.514 21.3067 211.371 27.3967 211.371 32.39C211.371 37.3833 212.631 41.1867 215.151 43.8C213.984 45.9 212.538 47.3467 210.811 48.14C209.084 48.98 206.914 49.4 204.301 49.4C201.734 49.4 199.634 48.7 198.001 47.3C196.414 45.8533 195.621 43.66 195.621 40.72C195.621 37.3133 196.554 32.81 198.421 27.21C200.288 21.6567 202.621 16.7567 205.421 12.51C204.068 12.37 202.691 12.3 201.291 12.3C198.398 12.3 196.718 12.8367 196.251 13.91ZM307.735 18.95C307.735 38.83 296.955 48.77 275.395 48.77C271.942 48.77 267.369 48.35 261.675 47.51L269.515 6.14C269.889 4.27333 270.192 2.80333 270.425 1.73C277.519 1.21666 282.629 0.959996 285.755 0.959996C288.929 0.959996 291.962 1.28666 294.855 1.94C297.749 2.59333 300.152 3.64333 302.065 5.09C305.845 7.93666 307.735 12.5567 307.735 18.95ZM293.315 16.36C293.315 9.40667 290.819 5.93 285.825 5.93H285.125C284.892 5.93 284.659 5.95333 284.425 6L277.215 43.59C277.402 43.6833 277.589 43.73 277.775 43.73H278.335C280.062 43.73 281.812 43.1933 283.585 42.12C285.405 41.0467 287.015 39.4133 288.415 37.22C291.682 32.1333 293.315 25.18 293.315 16.36ZM322.869 30.92C322.869 22.1 325.156 14.9133 329.729 9.36C334.582 3.34 341.232 0.329996 349.679 0.329996C355.792 0.329996 360.389 1.82333 363.469 4.81C366.549 7.75 368.089 12.3467 368.089 18.6C368.089 28.12 365.662 35.6567 360.809 41.21C356.002 46.67 349.562 49.4 341.489 49.4C335.189 49.4 330.499 47.8367 327.419 44.71C324.386 41.5367 322.869 36.94 322.869 30.92ZM341.279 16.43C339.179 24.83 338.129 32.3433 338.129 38.97C338.129 40.5567 338.386 41.8633 338.899 42.89C339.459 43.9167 340.439 44.43 341.839 44.43C343.286 44.43 344.452 44.1033 345.339 43.45C346.226 42.75 347.019 41.63 347.719 40.09C348.839 37.57 349.912 33.65 350.939 28.33C352.012 22.9633 352.596 19.1833 352.689 16.99C352.782 14.75 352.829 12.79 352.829 11.11C352.829 9.43 352.572 8.05333 352.059 6.98C351.546 5.90666 350.589 5.37 349.189 5.37C347.836 5.37 346.692 5.79 345.759 6.63C344.032 8.21666 342.539 11.4833 341.279 16.43ZM408.69 4.6C409.343 3.29333 410.37 2.29 411.77 1.59C413.217 0.843331 414.92 0.469999 416.88 0.469999C419.96 0.469999 422.41 1.59 424.23 3.83C426.097 6.02333 427.03 9.54666 427.03 14.4V39.39L443.06 1.87H451.32L453.21 37.29L453 39.32L469.66 1.87H479.25L456.85 48H441.94L440.54 26.72L431.3 48H414.43L412.33 14.4C412.19 11.88 411.77 9.80333 411.07 8.17C410.417 6.49 409.623 5.3 408.69 4.6ZM516.646 37.22C517.533 38.34 517.976 39.81 517.976 41.63C517.976 44.15 517.043 46.0867 515.176 47.44C513.31 48.7467 510.906 49.4 507.966 49.4C506.286 49.4 504.163 49.2133 501.596 48.84C496.556 48.0467 493.266 47.65 491.726 47.65C490.186 47.65 489.113 47.6967 488.506 47.79C487.9 47.8367 487.106 47.9067 486.126 48L494.736 1.8H524.906C524.906 4.64666 524.206 6.81666 522.806 8.31C521.453 9.80333 519.423 10.55 516.716 10.55C514.01 10.55 511.28 9.92 508.526 8.66L506.356 20.91H518.816C518.816 23.3833 518.21 25.32 516.996 26.72C515.783 28.0733 514.15 28.75 512.096 28.75C510.09 28.75 508.456 28.5167 507.196 28.05C505.936 27.5833 505.236 27.28 505.096 27.14L502.576 40.37C503.696 40.51 505.306 40.58 507.406 40.58C511 40.58 514.08 39.46 516.646 37.22ZM560.896 30.92C560.896 22.1 563.183 14.9133 567.756 9.36C572.61 3.34 579.26 0.329996 587.706 0.329996C593.82 0.329996 598.416 1.82333 601.496 4.81C604.576 7.75 606.116 12.3467 606.116 18.6C606.116 28.12 603.69 35.6567 598.836 41.21C594.03 46.67 587.59 49.4 579.516 49.4C573.216 49.4 568.526 47.8367 565.446 44.71C562.413 41.5367 560.896 36.94 560.896 30.92ZM579.306 16.43C577.206 24.83 576.156 32.3433 576.156 38.97C576.156 40.5567 576.413 41.8633 576.926 42.89C577.486 43.9167 578.466 44.43 579.866 44.43C581.313 44.43 582.48 44.1033 583.366 43.45C584.253 42.75 585.046 41.63 585.746 40.09C586.866 37.57 587.94 33.65 588.966 28.33C590.04 22.9633 590.623 19.1833 590.716 16.99C590.81 14.75 590.856 12.79 590.856 11.11C590.856 9.43 590.6 8.05333 590.086 6.98C589.573 5.90666 588.616 5.37 587.216 5.37C585.863 5.37 584.72 5.79 583.786 6.63C582.06 8.21666 580.566 11.4833 579.306 16.43ZM651.894 10.9C648.114 10.9 644.847 10.27 642.094 9.01L639.854 20.35H653.364C653.364 22.8233 652.734 24.8533 651.474 26.44C650.26 27.98 648.534 28.75 646.294 28.75C643.867 28.75 641.534 28.3067 639.294 27.42C638.827 27.2333 638.57 27.1167 638.524 27.07L634.534 48H619.274L628.164 1.8H659.384C659.384 4.64666 658.707 6.88666 657.354 8.52C656.047 10.1067 654.227 10.9 651.894 10.9ZM699.991 10.9C696.211 10.9 692.945 10.27 690.191 9.01L687.951 20.35H701.461C701.461 22.8233 700.831 24.8533 699.571 26.44C698.358 27.98 696.631 28.75 694.391 28.75C691.965 28.75 689.631 28.3067 687.391 27.42C686.925 27.2333 686.668 27.1167 686.621 27.07L682.631 48H667.371L676.261 1.8H707.481C707.481 4.64666 706.805 6.88666 705.451 8.52C704.145 10.1067 702.325 10.9 699.991 10.9ZM746.129 37.22C747.015 38.34 747.459 39.81 747.459 41.63C747.459 44.15 746.525 46.0867 744.659 47.44C742.792 48.7467 740.389 49.4 737.449 49.4C735.769 49.4 733.645 49.2133 731.079 48.84C726.039 48.0467 722.749 47.65 721.209 47.65C719.669 47.65 718.595 47.6967 717.989 47.79C717.382 47.8367 716.589 47.9067 715.609 48L724.219 1.8H754.389C754.389 4.64666 753.689 6.81666 752.289 8.31C750.935 9.80333 748.905 10.55 746.199 10.55C743.492 10.55 740.762 9.92 738.009 8.66L735.839 20.91H748.299C748.299 23.3833 747.692 25.32 746.479 26.72C745.265 28.0733 743.632 28.75 741.579 28.75C739.572 28.75 737.939 28.5167 736.679 28.05C735.419 27.5833 734.719 27.28 734.579 27.14L732.059 40.37C733.179 40.51 734.789 40.58 736.889 40.58C740.482 40.58 743.562 39.46 746.129 37.22ZM763.775 48L772.315 2.01C776.935 1.49666 782.605 1.24 789.325 1.24C796.092 1.24 801.038 2.22 804.165 4.18C807.292 6.14 808.855 9.10333 808.855 13.07C808.855 16.99 807.828 20.1867 805.775 22.66C803.768 25.1333 801.015 26.7667 797.515 27.56C798.308 31.4333 799.615 34.9333 801.435 38.06C803.115 41 804.935 42.9367 806.895 43.87C806.195 45.83 805.122 47.23 803.675 48.07C802.275 48.9567 800.548 49.4 798.495 49.4C796.488 49.4 794.692 48.8167 793.105 47.65C791.518 46.4367 790.095 44.7333 788.835 42.54C786.175 37.78 784.705 31.6433 784.425 24.13H784.915C788.368 24.0367 790.958 23.1033 792.685 21.33C794.412 19.51 795.275 16.71 795.275 12.93C795.275 8.21666 793.292 5.76666 789.325 5.58H787.785C787.365 5.58 787.038 5.60333 786.805 5.65L778.755 48H763.775ZM824.301 43.87C824.301 42.0967 824.978 40.72 826.331 39.74C827.731 38.76 829.411 38.27 831.371 38.27C833.331 38.27 834.895 38.76 836.061 39.74C837.275 40.72 837.881 42.0967 837.881 43.87C837.881 45.6433 837.205 47.02 835.851 48C834.545 48.9333 832.911 49.4 830.951 49.4C828.991 49.4 827.381 48.9333 826.121 48C824.908 47.02 824.301 45.6433 824.301 43.87ZM838.441 14.47C837.415 14.75 835.875 14.89 833.821 14.89C831.768 14.89 829.995 14.47 828.501 13.63C827.008 12.79 826.261 11.6467 826.261 10.2C826.261 8.70666 826.611 7.37667 827.311 6.21C828.058 5.04333 829.201 4.04 830.741 3.2C833.961 1.33333 838.348 0.399999 843.901 0.399999C849.455 0.399999 853.328 1.17 855.521 2.71C857.715 4.25 858.811 6.32666 858.811 8.94C858.811 12.9067 856.828 16.43 852.861 19.51C851.695 20.4433 850.388 21.3767 848.941 22.31L835.571 30.99C833.751 32.2033 832.841 33.6967 832.841 35.47C831.488 35.47 830.368 34.8867 829.481 33.72C828.595 32.5533 828.151 31.1533 828.151 29.52C828.151 25.7867 829.925 22.8233 833.471 20.63L841.381 15.73C843.575 14.4233 845.255 12.6267 846.421 10.34C846.795 9.59333 846.981 8.75333 846.981 7.82C846.981 5.67333 845.908 4.6 843.761 4.6C842.081 4.6 840.658 5.27667 839.491 6.63C838.465 7.84333 837.928 9.24333 837.881 10.83C837.835 12.4167 838.021 13.63 838.441 14.47Z"/>
</mask>
<path d="M0.94 4.6C1.59333 3.29333 2.62 2.29 4.02 1.59C5.46667 0.843331 7.17 0.469999 9.13 0.469999C12.21 0.469999 14.66 1.59 16.48 3.83C18.3467 6.02333 19.28 9.54666 19.28 14.4V39.39L35.31 1.87H43.57L45.46 37.29L45.25 39.32L61.91 1.87H71.5L49.1 48H34.19L32.79 26.72L23.55 48H6.68L4.58 14.4C4.44 11.88 4.02 9.80333 3.32 8.17C2.66667 6.49 1.87333 5.3 0.94 4.6ZM105.116 42.75C105.116 39.4833 105.77 34.5833 107.076 28.05H96.7164L92.8664 48H78.2364L87.1264 1.8H101.896L97.8364 22.45H108.196L112.046 1.8H126.816C126.163 5.25333 125.416 8.91666 124.576 12.79L122.196 24.2C120.423 33.0667 119.536 39.4367 119.536 43.31C119.536 44.8967 119.793 46.1333 120.306 47.02C117.973 48.6067 115.43 49.4 112.676 49.4C109.97 49.4 108.033 48.7467 106.866 47.44C105.7 46.1333 105.116 44.57 105.116 42.75ZM169.729 49.4C163.755 49.4 160.489 45.1533 159.929 36.66H147.889C146.955 38.8067 146.162 40.8133 145.509 42.68L143.689 48H133.889L155.939 1.8H170.989L173.929 35.82C174.395 40.72 175.562 43.8933 177.429 45.34C176.075 48.0467 173.509 49.4 169.729 49.4ZM150.059 31.55H159.719L158.879 13.56V11.67L153.909 22.66L150.059 31.55ZM196.251 13.91C194.664 12.6967 193.871 10.8067 193.871 8.24C193.871 5.62667 194.711 3.64333 196.391 2.29C198.118 0.936663 200.451 0.259997 203.391 0.259997C205.258 0.259997 208.408 0.586664 212.841 1.24L217.601 1.94C219.188 2.12666 220.798 2.22 222.431 2.22C224.111 2.22 225.511 1.87 226.631 1.17C228.311 2.66333 229.151 4.48333 229.151 6.63C229.151 8.77667 228.194 10.62 226.281 12.16C224.321 13.7933 222.081 14.61 219.561 14.61C218.348 14.61 216.761 14.4467 214.801 14.12C212.514 21.3067 211.371 27.3967 211.371 32.39C211.371 37.3833 212.631 41.1867 215.151 43.8C213.984 45.9 212.538 47.3467 210.811 48.14C209.084 48.98 206.914 49.4 204.301 49.4C201.734 49.4 199.634 48.7 198.001 47.3C196.414 45.8533 195.621 43.66 195.621 40.72C195.621 37.3133 196.554 32.81 198.421 27.21C200.288 21.6567 202.621 16.7567 205.421 12.51C204.068 12.37 202.691 12.3 201.291 12.3C198.398 12.3 196.718 12.8367 196.251 13.91ZM307.735 18.95C307.735 38.83 296.955 48.77 275.395 48.77C271.942 48.77 267.369 48.35 261.675 47.51L269.515 6.14C269.889 4.27333 270.192 2.80333 270.425 1.73C277.519 1.21666 282.629 0.959996 285.755 0.959996C288.929 0.959996 291.962 1.28666 294.855 1.94C297.749 2.59333 300.152 3.64333 302.065 5.09C305.845 7.93666 307.735 12.5567 307.735 18.95ZM293.315 16.36C293.315 9.40667 290.819 5.93 285.825 5.93H285.125C284.892 5.93 284.659 5.95333 284.425 6L277.215 43.59C277.402 43.6833 277.589 43.73 277.775 43.73H278.335C280.062 43.73 281.812 43.1933 283.585 42.12C285.405 41.0467 287.015 39.4133 288.415 37.22C291.682 32.1333 293.315 25.18 293.315 16.36ZM322.869 30.92C322.869 22.1 325.156 14.9133 329.729 9.36C334.582 3.34 341.232 0.329996 349.679 0.329996C355.792 0.329996 360.389 1.82333 363.469 4.81C366.549 7.75 368.089 12.3467 368.089 18.6C368.089 28.12 365.662 35.6567 360.809 41.21C356.002 46.67 349.562 49.4 341.489 49.4C335.189 49.4 330.499 47.8367 327.419 44.71C324.386 41.5367 322.869 36.94 322.869 30.92ZM341.279 16.43C339.179 24.83 338.129 32.3433 338.129 38.97C338.129 40.5567 338.386 41.8633 338.899 42.89C339.459 43.9167 340.439 44.43 341.839 44.43C343.286 44.43 344.452 44.1033 345.339 43.45C346.226 42.75 347.019 41.63 347.719 40.09C348.839 37.57 349.912 33.65 350.939 28.33C352.012 22.9633 352.596 19.1833 352.689 16.99C352.782 14.75 352.829 12.79 352.829 11.11C352.829 9.43 352.572 8.05333 352.059 6.98C351.546 5.90666 350.589 5.37 349.189 5.37C347.836 5.37 346.692 5.79 345.759 6.63C344.032 8.21666 342.539 11.4833 341.279 16.43ZM408.69 4.6C409.343 3.29333 410.37 2.29 411.77 1.59C413.217 0.843331 414.92 0.469999 416.88 0.469999C419.96 0.469999 422.41 1.59 424.23 3.83C426.097 6.02333 427.03 9.54666 427.03 14.4V39.39L443.06 1.87H451.32L453.21 37.29L453 39.32L469.66 1.87H479.25L456.85 48H441.94L440.54 26.72L431.3 48H414.43L412.33 14.4C412.19 11.88 411.77 9.80333 411.07 8.17C410.417 6.49 409.623 5.3 408.69 4.6ZM516.646 37.22C517.533 38.34 517.976 39.81 517.976 41.63C517.976 44.15 517.043 46.0867 515.176 47.44C513.31 48.7467 510.906 49.4 507.966 49.4C506.286 49.4 504.163 49.2133 501.596 48.84C496.556 48.0467 493.266 47.65 491.726 47.65C490.186 47.65 489.113 47.6967 488.506 47.79C487.9 47.8367 487.106 47.9067 486.126 48L494.736 1.8H524.906C524.906 4.64666 524.206 6.81666 522.806 8.31C521.453 9.80333 519.423 10.55 516.716 10.55C514.01 10.55 511.28 9.92 508.526 8.66L506.356 20.91H518.816C518.816 23.3833 518.21 25.32 516.996 26.72C515.783 28.0733 514.15 28.75 512.096 28.75C510.09 28.75 508.456 28.5167 507.196 28.05C505.936 27.5833 505.236 27.28 505.096 27.14L502.576 40.37C503.696 40.51 505.306 40.58 507.406 40.58C511 40.58 514.08 39.46 516.646 37.22ZM560.896 30.92C560.896 22.1 563.183 14.9133 567.756 9.36C572.61 3.34 579.26 0.329996 587.706 0.329996C593.82 0.329996 598.416 1.82333 601.496 4.81C604.576 7.75 606.116 12.3467 606.116 18.6C606.116 28.12 603.69 35.6567 598.836 41.21C594.03 46.67 587.59 49.4 579.516 49.4C573.216 49.4 568.526 47.8367 565.446 44.71C562.413 41.5367 560.896 36.94 560.896 30.92ZM579.306 16.43C577.206 24.83 576.156 32.3433 576.156 38.97C576.156 40.5567 576.413 41.8633 576.926 42.89C577.486 43.9167 578.466 44.43 579.866 44.43C581.313 44.43 582.48 44.1033 583.366 43.45C584.253 42.75 585.046 41.63 585.746 40.09C586.866 37.57 587.94 33.65 588.966 28.33C590.04 22.9633 590.623 19.1833 590.716 16.99C590.81 14.75 590.856 12.79 590.856 11.11C590.856 9.43 590.6 8.05333 590.086 6.98C589.573 5.90666 588.616 5.37 587.216 5.37C585.863 5.37 584.72 5.79 583.786 6.63C582.06 8.21666 580.566 11.4833 579.306 16.43ZM651.894 10.9C648.114 10.9 644.847 10.27 642.094 9.01L639.854 20.35H653.364C653.364 22.8233 652.734 24.8533 651.474 26.44C650.26 27.98 648.534 28.75 646.294 28.75C643.867 28.75 641.534 28.3067 639.294 27.42C638.827 27.2333 638.57 27.1167 638.524 27.07L634.534 48H619.274L628.164 1.8H659.384C659.384 4.64666 658.707 6.88666 657.354 8.52C656.047 10.1067 654.227 10.9 651.894 10.9ZM699.991 10.9C696.211 10.9 692.945 10.27 690.191 9.01L687.951 20.35H701.461C701.461 22.8233 700.831 24.8533 699.571 26.44C698.358 27.98 696.631 28.75 694.391 28.75C691.965 28.75 689.631 28.3067 687.391 27.42C686.925 27.2333 686.668 27.1167 686.621 27.07L682.631 48H667.371L676.261 1.8H707.481C707.481 4.64666 706.805 6.88666 705.451 8.52C704.145 10.1067 702.325 10.9 699.991 10.9ZM746.129 37.22C747.015 38.34 747.459 39.81 747.459 41.63C747.459 44.15 746.525 46.0867 744.659 47.44C742.792 48.7467 740.389 49.4 737.449 49.4C735.769 49.4 733.645 49.2133 731.079 48.84C726.039 48.0467 722.749 47.65 721.209 47.65C719.669 47.65 718.595 47.6967 717.989 47.79C717.382 47.8367 716.589 47.9067 715.609 48L724.219 1.8H754.389C754.389 4.64666 753.689 6.81666 752.289 8.31C750.935 9.80333 748.905 10.55 746.199 10.55C743.492 10.55 740.762 9.92 738.009 8.66L735.839 20.91H748.299C748.299 23.3833 747.692 25.32 746.479 26.72C745.265 28.0733 743.632 28.75 741.579 28.75C739.572 28.75 737.939 28.5167 736.679 28.05C735.419 27.5833 734.719 27.28 734.579 27.14L732.059 40.37C733.179 40.51 734.789 40.58 736.889 40.58C740.482 40.58 743.562 39.46 746.129 37.22ZM763.775 48L772.315 2.01C776.935 1.49666 782.605 1.24 789.325 1.24C796.092 1.24 801.038 2.22 804.165 4.18C807.292 6.14 808.855 9.10333 808.855 13.07C808.855 16.99 807.828 20.1867 805.775 22.66C803.768 25.1333 801.015 26.7667 797.515 27.56C798.308 31.4333 799.615 34.9333 801.435 38.06C803.115 41 804.935 42.9367 806.895 43.87C806.195 45.83 805.122 47.23 803.675 48.07C802.275 48.9567 800.548 49.4 798.495 49.4C796.488 49.4 794.692 48.8167 793.105 47.65C791.518 46.4367 790.095 44.7333 788.835 42.54C786.175 37.78 784.705 31.6433 784.425 24.13H784.915C788.368 24.0367 790.958 23.1033 792.685 21.33C794.412 19.51 795.275 16.71 795.275 12.93C795.275 8.21666 793.292 5.76666 789.325 5.58H787.785C787.365 5.58 787.038 5.60333 786.805 5.65L778.755 48H763.775ZM824.301 43.87C824.301 42.0967 824.978 40.72 826.331 39.74C827.731 38.76 829.411 38.27 831.371 38.27C833.331 38.27 834.895 38.76 836.061 39.74C837.275 40.72 837.881 42.0967 837.881 43.87C837.881 45.6433 837.205 47.02 835.851 48C834.545 48.9333 832.911 49.4 830.951 49.4C828.991 49.4 827.381 48.9333 826.121 48C824.908 47.02 824.301 45.6433 824.301 43.87ZM838.441 14.47C837.415 14.75 835.875 14.89 833.821 14.89C831.768 14.89 829.995 14.47 828.501 13.63C827.008 12.79 826.261 11.6467 826.261 10.2C826.261 8.70666 826.611 7.37667 827.311 6.21C828.058 5.04333 829.201 4.04 830.741 3.2C833.961 1.33333 838.348 0.399999 843.901 0.399999C849.455 0.399999 853.328 1.17 855.521 2.71C857.715 4.25 858.811 6.32666 858.811 8.94C858.811 12.9067 856.828 16.43 852.861 19.51C851.695 20.4433 850.388 21.3767 848.941 22.31L835.571 30.99C833.751 32.2033 832.841 33.6967 832.841 35.47C831.488 35.47 830.368 34.8867 829.481 33.72C828.595 32.5533 828.151 31.1533 828.151 29.52C828.151 25.7867 829.925 22.8233 833.471 20.63L841.381 15.73C843.575 14.4233 845.255 12.6267 846.421 10.34C846.795 9.59333 846.981 8.75333 846.981 7.82C846.981 5.67333 845.908 4.6 843.761 4.6C842.081 4.6 840.658 5.27667 839.491 6.63C838.465 7.84333 837.928 9.24333 837.881 10.83C837.835 12.4167 838.021 13.63 838.441 14.47Z" fill="#535252"/>
<path d="M0.94 4.6L-2.02817 3.11591L-3.26676 5.59308L-1.05111 7.25482L0.94 4.6ZM4.02 1.59L5.50409 4.55817L5.52311 4.54866L5.54201 4.5389L4.02 1.59ZM16.48 3.83L13.9045 5.92263L13.9283 5.95199L13.9528 5.98079L16.48 3.83ZM19.28 39.39H15.9615L22.3317 40.6938L19.28 39.39ZM35.31 1.87V-1.44852H33.1191L32.2583 0.566205L35.31 1.87ZM43.57 1.87L46.8838 1.69317L46.7162 -1.44852H43.57V1.87ZM45.46 37.29L48.7609 37.6315L48.7877 37.3728L48.7738 37.1132L45.46 37.29ZM45.25 39.32L41.9491 38.9785L48.282 40.6688L45.25 39.32ZM61.91 1.87V-1.44852H59.7542L58.878 0.521168L61.91 1.87ZM71.5 1.87L74.4852 3.31956L76.8005 -1.44852H71.5V1.87ZM49.1 48V51.3185H51.1777L52.0852 49.4496L49.1 48ZM34.19 48L30.8786 48.2179L31.0826 51.3185H34.19V48ZM32.79 26.72L36.1014 26.5021L29.746 25.3983L32.79 26.72ZM23.55 48V51.3185H25.7269L26.594 49.3217L23.55 48ZM6.68 48L3.36794 48.207L3.56241 51.3185H6.68V48ZM4.58 14.4L1.26659 14.5841L1.26723 14.5955L1.26794 14.607L4.58 14.4ZM3.32 8.17L0.227125 9.37278L0.247575 9.42537L0.269801 9.47723L3.32 8.17ZM3.90817 6.08409C4.21684 5.46676 4.69754 4.96144 5.50409 4.55817L2.53591 -1.37817C0.542461 -0.381448 -1.03017 1.1199 -2.02817 3.11591L3.90817 6.08409ZM5.54201 4.5389C6.43141 4.07986 7.59254 3.78852 9.13 3.78852V-2.84852C6.74746 -2.84852 4.50193 -2.3932 2.49799 -1.35891L5.54201 4.5389ZM9.13 3.78852C11.2877 3.78852 12.7616 4.51605 13.9045 5.92263L19.0555 1.73736C16.5584 -1.33605 13.1323 -2.84852 9.13 -2.84852V3.78852ZM13.9528 5.98079C15.0594 7.28105 15.9615 9.83806 15.9615 14.4H22.5985C22.5985 9.25526 21.6339 4.76561 19.0072 1.6792L13.9528 5.98079ZM15.9615 14.4V39.39H22.5985V14.4H15.9615ZM22.3317 40.6938L38.3617 3.17379L32.2583 0.566205L16.2283 38.0862L22.3317 40.6938ZM35.31 5.18852H43.57V-1.44852H35.31V5.18852ZM40.2562 2.04682L42.1462 37.4668L48.7738 37.1132L46.8838 1.69317L40.2562 2.04682ZM42.1591 36.9485L41.9491 38.9785L48.5509 39.6615L48.7609 37.6315L42.1591 36.9485ZM48.282 40.6688L64.942 3.21883L58.878 0.521168L42.218 37.9712L48.282 40.6688ZM61.91 5.18852H71.5V-1.44852H61.91V5.18852ZM68.5148 0.420438L46.1148 46.5504L52.0852 49.4496L74.4852 3.31956L68.5148 0.420438ZM49.1 44.6815H34.19V51.3185H49.1V44.6815ZM37.5014 47.7821L36.1014 26.5021L29.4786 26.9379L30.8786 48.2179L37.5014 47.7821ZM29.746 25.3983L20.5061 46.6783L26.594 49.3217L35.834 28.0417L29.746 25.3983ZM23.55 44.6815H6.68V51.3185H23.55V44.6815ZM9.99206 47.793L7.89206 14.193L1.26794 14.607L3.36794 48.207L9.99206 47.793ZM7.89341 14.2159C7.74021 11.4584 7.27235 8.96778 6.3702 6.86277L0.269801 9.47723C0.767652 10.6389 1.13979 12.3016 1.26659 14.5841L7.89341 14.2159ZM6.41288 6.96721C5.64773 4.99971 4.56074 3.1674 2.93111 1.94518L-1.05111 7.25482C-0.81407 7.4326 -0.3144 7.98029 0.227125 9.37278L6.41288 6.96721ZM107.076 28.05L110.33 28.7008L111.124 24.7315H107.076V28.05ZM96.7164 28.05V24.7315H93.9771L93.458 27.4212L96.7164 28.05ZM92.8664 48V51.3185H95.6057L96.1248 48.6288L92.8664 48ZM78.2364 48L74.9777 47.3729L74.2184 51.3185H78.2364V48ZM87.1264 1.8V-1.51852H84.3856L83.8677 1.17294L87.1264 1.8ZM101.896 1.8L105.153 2.4402L105.931 -1.51852H101.896V1.8ZM97.8364 22.45L94.5802 21.8098L93.8019 25.7685H97.8364V22.45ZM108.196 22.45V25.7685H110.953L111.459 23.0582L108.196 22.45ZM112.046 1.8V-1.51852H109.289L108.784 1.19177L112.046 1.8ZM126.816 1.8L130.077 2.41688L130.822 -1.51852H126.816V1.8ZM124.576 12.79L121.333 12.0867L121.33 12.0995L121.328 12.1124L124.576 12.79ZM122.196 24.2L118.948 23.5224L118.945 23.5358L118.942 23.5492L122.196 24.2ZM120.306 47.02L122.172 49.7642L124.725 48.0285L123.178 45.3573L120.306 47.02ZM108.435 42.75C108.435 39.8266 109.032 35.1927 110.33 28.7008L103.822 27.3992C102.507 33.974 101.798 39.14 101.798 42.75H108.435ZM107.076 24.7315H96.7164V31.3685H107.076V24.7315ZM93.458 27.4212L89.608 47.3712L96.1248 48.6288L99.9748 28.6788L93.458 27.4212ZM92.8664 44.6815H78.2364V51.3185H92.8664V44.6815ZM81.4951 48.6271L90.3851 2.42706L83.8677 1.17294L74.9777 47.3729L81.4951 48.6271ZM87.1264 5.11852H101.896V-1.51852H87.1264V5.11852ZM98.6402 1.1598L94.5802 21.8098L101.093 23.0902L105.153 2.4402L98.6402 1.1598ZM97.8364 25.7685H108.196V19.1315H97.8364V25.7685ZM111.459 23.0582L115.309 2.40822L108.784 1.19177L104.934 21.8418L111.459 23.0582ZM112.046 5.11852H126.816V-1.51852H112.046V5.11852ZM123.556 1.18311C122.909 4.60419 122.168 8.23852 121.333 12.0867L127.82 13.4933C128.665 9.59481 129.418 5.90247 130.077 2.41688L123.556 1.18311ZM121.328 12.1124L118.948 23.5224L125.445 24.8776L127.825 13.4676L121.328 12.1124ZM118.942 23.5492C117.168 32.423 116.218 39.0773 116.218 43.31H122.855C122.855 39.796 123.679 33.7104 125.45 24.8508L118.942 23.5492ZM116.218 43.31C116.218 45.1876 116.51 47.0865 117.434 48.6827L123.178 45.3573C123.076 45.1802 122.855 44.6057 122.855 43.31H116.218ZM118.44 44.2758C116.643 45.4981 114.747 46.0815 112.676 46.0815V52.7185C116.113 52.7185 119.303 51.7152 122.172 49.7642L118.44 44.2758ZM112.676 46.0815C110.403 46.0815 109.604 45.523 109.342 45.2298L104.391 49.6502C106.463 51.9704 109.537 52.7185 112.676 52.7185V46.0815ZM109.342 45.2298C108.741 44.5568 108.435 43.7896 108.435 42.75H101.798C101.798 45.3504 102.659 47.7099 104.391 49.6502L109.342 45.2298ZM159.929 36.66L163.24 36.4417L163.036 33.3415H159.929V36.66ZM147.889 36.66V33.3415H145.713L144.845 35.3368L147.889 36.66ZM145.509 42.68L142.376 41.5837L142.373 41.5948L142.369 41.6058L145.509 42.68ZM143.689 48V51.3185H146.061L146.828 49.0742L143.689 48ZM133.889 48L130.894 46.5706L128.628 51.3185H133.889V48ZM155.939 1.8V-1.51852H153.845L152.944 0.370614L155.939 1.8ZM170.989 1.8L174.295 1.51428L174.033 -1.51852H170.989V1.8ZM173.929 35.82L170.622 36.1057L170.624 36.1202L170.625 36.1346L173.929 35.82ZM177.429 45.34L180.397 46.8241L181.616 44.3865L179.461 42.717L177.429 45.34ZM150.059 31.55L147.013 30.2312L145.005 34.8685H150.059V31.55ZM159.719 31.55V34.8685H163.196L163.034 31.3952L159.719 31.55ZM158.879 13.56H155.56V13.6374L155.564 13.7148L158.879 13.56ZM158.879 11.67H162.197L155.855 10.3026L158.879 11.67ZM153.909 22.66L150.885 21.2926L150.874 21.3168L150.863 21.3412L153.909 22.66ZM169.729 46.0815C167.637 46.0815 166.356 45.3967 165.429 44.1917C164.369 42.8132 163.5 40.3866 163.24 36.4417L156.617 36.8783C156.917 41.4267 157.962 45.3701 160.168 48.2383C162.508 51.28 165.847 52.7185 169.729 52.7185V46.0815ZM159.929 33.3415H147.889V39.9785H159.929V33.3415ZM144.845 35.3368C143.885 37.5449 143.061 39.628 142.376 41.5837L148.641 43.7763C149.263 41.9987 150.025 40.0684 150.932 37.9832L144.845 35.3368ZM142.369 41.6058L140.549 46.9258L146.828 49.0742L148.648 43.7542L142.369 41.6058ZM143.689 44.6815H133.889V51.3185H143.689V44.6815ZM136.883 49.4294L158.933 3.22938L152.944 0.370614L130.894 46.5706L136.883 49.4294ZM155.939 5.11852H170.989V-1.51852H155.939V5.11852ZM167.682 2.08572L170.622 36.1057L177.235 35.5343L174.295 1.51428L167.682 2.08572ZM170.625 36.1346C170.874 38.7519 171.324 41.0747 172.039 43.0201C172.749 44.9517 173.802 46.7275 175.396 47.963L179.461 42.717C179.189 42.5059 178.725 41.9716 178.268 40.7299C177.817 39.502 177.45 37.7881 177.232 35.5054L170.625 36.1346ZM174.46 43.8559C173.819 45.1382 172.627 46.0815 169.729 46.0815V52.7185C174.391 52.7185 178.331 50.9552 180.397 46.8241L174.46 43.8559ZM150.059 34.8685H159.719V28.2315H150.059V34.8685ZM163.034 31.3952L162.193 13.4052L155.564 13.7148L156.404 31.7048L163.034 31.3952ZM162.197 13.56V11.67H155.56V13.56H162.197ZM155.855 10.3026L150.885 21.2926L156.932 24.0274L161.902 13.0374L155.855 10.3026ZM150.863 21.3412L147.013 30.2312L153.104 32.8688L156.954 23.9788L150.863 21.3412ZM196.251 13.91L194.235 16.5461L197.604 19.1219L199.294 15.2332L196.251 13.91ZM196.391 2.29L194.344 -0.321864L194.326 -0.308204L194.309 -0.294312L196.391 2.29ZM212.841 1.24L212.357 4.52306L212.358 4.5232L212.841 1.24ZM217.601 1.94L217.118 5.2232L217.166 5.23018L217.213 5.23579L217.601 1.94ZM226.631 1.17L228.836 -1.31029L226.979 -2.96079L224.872 -1.6441L226.631 1.17ZM226.281 12.16L224.2 9.57483L224.178 9.59255L224.156 9.61064L226.281 12.16ZM214.801 14.12L215.346 10.8466L212.51 10.3739L211.639 13.1138L214.801 14.12ZM215.151 43.8L218.052 45.4116L219.245 43.2645L217.54 41.4965L215.151 43.8ZM210.811 48.14L209.425 45.1245L209.392 45.1398L209.359 45.1559L210.811 48.14ZM198.001 47.3L195.765 49.7522L195.803 49.7865L195.841 49.8196L198.001 47.3ZM198.421 27.21L195.275 26.1527L195.273 26.1606L198.421 27.21ZM205.421 12.51L208.191 14.3367L211.201 9.77174L205.762 9.2091L205.421 12.51ZM198.267 11.2739C197.727 10.8614 197.189 10.0956 197.189 8.24H190.552C190.552 11.5177 191.601 14.5319 194.235 16.5461L198.267 11.2739ZM197.189 8.24C197.189 6.39598 197.741 5.46378 198.473 4.8743L194.309 -0.294312C191.681 1.82288 190.552 4.85735 190.552 8.24H197.189ZM198.438 4.90186C199.409 4.14056 200.942 3.57852 203.391 3.57852V-3.05852C199.96 -3.05852 196.826 -2.26723 194.344 -0.321864L198.438 4.90186ZM203.391 3.57852C204.989 3.57852 207.924 3.8698 212.357 4.52306L213.325 -2.04306C208.891 -2.69647 205.526 -3.05852 203.391 -3.05852V3.57852ZM212.358 4.5232L217.118 5.2232L218.084 -1.34321L213.324 -2.04321L212.358 4.5232ZM217.213 5.23579C218.931 5.43793 220.671 5.53852 222.431 5.53852V-1.09852C220.924 -1.09852 219.444 -1.1846 217.989 -1.35579L217.213 5.23579ZM222.431 5.53852C224.565 5.53852 226.616 5.09244 228.39 3.9841L224.872 -1.6441C224.405 -1.35244 223.656 -1.09852 222.431 -1.09852V5.53852ZM224.426 3.65029C225.436 4.54755 225.832 5.48076 225.832 6.63H232.469C232.469 3.48591 231.186 0.779114 228.836 -1.31029L224.426 3.65029ZM225.832 6.63C225.832 7.61948 225.458 8.56248 224.2 9.57483L228.362 14.7452C230.931 12.6775 232.469 9.93385 232.469 6.63H225.832ZM224.156 9.61064C222.785 10.7537 221.294 11.2915 219.561 11.2915V17.9285C222.868 17.9285 225.857 16.8329 228.405 14.7094L224.156 9.61064ZM219.561 11.2915C218.608 11.2915 217.224 11.1596 215.346 10.8466L214.255 17.3934C216.297 17.7337 218.087 17.9285 219.561 17.9285V11.2915ZM211.639 13.1138C209.296 20.4776 208.052 26.9283 208.052 32.39H214.689C214.689 27.865 215.733 22.1358 217.963 15.1262L211.639 13.1138ZM208.052 32.39C208.052 37.9149 209.452 42.6703 212.762 46.1035L217.54 41.4965C215.81 39.7031 214.689 36.8518 214.689 32.39H208.052ZM212.25 42.1884C211.335 43.8356 210.358 44.6959 209.425 45.1245L212.196 51.1555C214.717 49.9974 216.634 47.9644 218.052 45.4116L212.25 42.1884ZM209.359 45.1559C208.218 45.7113 206.583 46.0815 204.301 46.0815V52.7185C207.245 52.7185 209.951 52.2487 212.263 51.1241L209.359 45.1559ZM204.301 46.0815C202.366 46.0815 201.081 45.5693 200.161 44.7804L195.841 49.8196C198.188 51.8307 201.102 52.7185 204.301 52.7185V46.0815ZM200.237 44.8478C199.566 44.2362 198.939 43.0846 198.939 40.72H192.302C192.302 44.2354 193.262 47.4705 195.765 49.7522L200.237 44.8478ZM198.939 40.72C198.939 37.8388 199.745 33.7307 201.569 28.2594L195.273 26.1606C193.363 31.8893 192.302 36.7879 192.302 40.72H198.939ZM201.567 28.2673C203.355 22.9454 205.571 18.3112 208.191 14.3367L202.65 10.6833C199.671 15.2021 197.22 20.3679 195.275 26.1527L201.567 28.2673ZM205.762 9.2091C204.292 9.05702 202.802 8.98148 201.291 8.98148V15.6185C202.58 15.6185 203.843 15.683 205.079 15.8109L205.762 9.2091ZM201.291 8.98148C199.691 8.98148 198.159 9.1235 196.851 9.54135C195.565 9.9521 193.981 10.8073 193.208 12.5868L199.294 15.2332C198.987 15.9393 198.477 15.9896 198.871 15.8636C199.243 15.7448 199.997 15.6185 201.291 15.6185V8.98148ZM261.675 47.51L258.415 46.8921L257.771 50.2884L261.191 50.793L261.675 47.51ZM269.515 6.14L266.261 5.48918L266.258 5.50563L266.255 5.5221L269.515 6.14ZM270.425 1.73L270.186 -1.57986L267.71 -1.40069L267.182 1.02505L270.425 1.73ZM294.855 1.94L294.124 5.17702L294.855 1.94ZM302.065 5.09L300.064 7.73705L300.069 7.74088L302.065 5.09ZM284.425 6L283.774 2.74592L281.586 3.18351L281.166 5.37488L284.425 6ZM277.215 43.59L273.956 42.9649L273.483 45.4339L275.731 46.5582L277.215 43.59ZM283.585 42.12L281.899 39.2615L281.883 39.2712L281.867 39.281L283.585 42.12ZM288.415 37.22L285.623 35.4268L285.618 35.4345L288.415 37.22ZM304.417 18.95C304.417 28.3062 301.892 34.7335 297.401 38.8753C292.858 43.0641 285.727 45.4515 275.395 45.4515V52.0885C286.623 52.0885 295.663 49.5059 301.9 43.7547C308.188 37.9565 311.054 29.4738 311.054 18.95H304.417ZM275.395 45.4515C272.175 45.4515 267.783 45.0567 262.16 44.227L261.191 50.793C266.954 51.6433 271.709 52.0885 275.395 52.0885V45.4515ZM264.936 48.1279L272.776 6.75789L266.255 5.5221L258.415 46.8921L264.936 48.1279ZM272.769 6.79081C273.141 4.93123 273.44 3.4819 273.668 2.43495L267.182 1.02505C266.943 2.12476 266.636 3.61544 266.261 5.48918L272.769 6.79081ZM270.665 5.03986C277.753 4.52693 282.759 4.27851 285.755 4.27851V-2.35852C282.499 -2.35852 277.285 -2.0936 270.186 -1.57986L270.665 5.03986ZM285.755 4.27851C288.7 4.27851 291.487 4.58147 294.124 5.17702L295.586 -1.29702C292.437 -2.00815 289.157 -2.35852 285.755 -2.35852V4.27851ZM294.124 5.17702C296.663 5.7503 298.605 6.63424 300.064 7.73705L304.067 2.44295C301.699 0.652425 298.834 -0.563643 295.586 -1.29702L294.124 5.17702ZM300.069 7.74088C302.745 9.75611 304.417 13.2043 304.417 18.95H311.054C311.054 11.9091 308.946 6.11722 304.062 2.43912L300.069 7.74088ZM296.634 16.36C296.634 12.5859 295.974 9.15835 294.138 6.60181C292.157 3.84228 289.187 2.61148 285.825 2.61148V9.24852C287.457 9.24852 288.232 9.75606 288.747 10.4732C289.408 11.3933 289.997 13.1807 289.997 16.36H296.634ZM285.825 2.61148H285.125V9.24852H285.825V2.61148ZM285.125 2.61148C284.669 2.61148 284.218 2.65725 283.774 2.74592L285.076 9.25408C285.099 9.24941 285.115 9.24852 285.125 9.24852V2.61148ZM281.166 5.37488L273.956 42.9649L280.474 44.2151L287.684 6.62512L281.166 5.37488ZM275.731 46.5582C276.324 46.8544 277.015 47.0485 277.775 47.0485V40.4115C278.162 40.4115 278.48 40.5123 278.699 40.6218L275.731 46.5582ZM277.775 47.0485H278.335V40.4115H277.775V47.0485ZM278.335 47.0485C280.779 47.0485 283.116 46.2828 285.304 44.959L281.867 39.281C280.507 40.1039 279.345 40.4115 278.335 40.4115V47.0485ZM285.271 44.9785C287.633 43.5855 289.595 41.5388 291.212 39.0055L285.618 35.4345C284.435 37.2879 283.177 38.5078 281.899 39.2615L285.271 44.9785ZM291.208 39.0132C294.941 33.1991 296.634 25.5401 296.634 16.36H289.997C289.997 24.8199 288.422 31.0675 285.623 35.4268L291.208 39.0132ZM329.729 9.36L332.291 11.4696L332.302 11.4563L332.312 11.4428L329.729 9.36ZM363.469 4.81L361.159 7.19236L361.168 7.20145L361.178 7.21046L363.469 4.81ZM360.809 41.21L363.3 43.4028L363.308 43.3938L360.809 41.21ZM327.419 44.71L325.02 47.003L325.037 47.0211L325.055 47.0388L327.419 44.71ZM341.279 16.43L338.063 15.6109L338.061 15.618L338.059 15.6251L341.279 16.43ZM338.899 42.89L335.931 44.3741L335.957 44.4271L335.986 44.4791L338.899 42.89ZM345.339 43.45L347.307 46.1216L347.352 46.0888L347.395 46.0546L345.339 43.45ZM347.719 40.09L350.74 41.4632L350.746 41.4505L350.751 41.4378L347.719 40.09ZM350.939 28.33L347.685 27.6792L347.683 27.6902L347.681 27.7012L350.939 28.33ZM352.689 16.99L356.004 17.1311L356.005 17.1281L352.689 16.99ZM352.059 6.98L355.053 5.54821L355.053 5.5482L352.059 6.98ZM345.759 6.63L343.539 4.16336L343.526 4.17486L343.514 4.18648L345.759 6.63ZM326.187 30.92C326.187 22.6899 328.31 16.3034 332.291 11.4696L327.167 7.25039C322.001 13.5233 319.55 21.5101 319.55 30.92H326.187ZM332.312 11.4428C336.472 6.28302 342.13 3.64851 349.679 3.64851V-2.98852C340.334 -2.98852 332.692 0.396976 327.145 7.27718L332.312 11.4428ZM349.679 3.64851C355.298 3.64851 358.919 5.0209 361.159 7.19236L365.779 2.42763C361.858 -1.37424 356.287 -2.98852 349.679 -2.98852V3.64851ZM361.178 7.21046C363.346 9.28072 364.77 12.827 364.77 18.6H371.407C371.407 11.8664 369.751 6.21927 365.76 2.40953L361.178 7.21046ZM364.77 18.6C364.77 27.5561 362.496 34.2363 358.31 39.0262L363.308 43.3938C368.828 37.0771 371.407 28.6839 371.407 18.6H364.77ZM358.318 39.0172C354.215 43.6781 348.726 46.0815 341.489 46.0815V52.7185C350.398 52.7185 357.79 49.6619 363.3 43.4028L358.318 39.0172ZM341.489 46.0815C335.688 46.0815 332.01 44.6424 329.783 42.3812L325.055 47.0388C328.987 51.031 334.69 52.7185 341.489 52.7185V46.0815ZM329.818 42.417C327.565 40.0602 326.187 36.408 326.187 30.92H319.55C319.55 37.472 321.206 43.0131 325.02 47.003L329.818 42.417ZM338.059 15.6251C335.913 24.2129 334.81 32.0039 334.81 38.97H341.447C341.447 32.6828 342.445 25.4471 344.498 17.2349L338.059 15.6251ZM334.81 38.97C334.81 40.8859 335.116 42.745 335.931 44.3741L341.867 41.4059C341.655 40.9816 341.447 40.2274 341.447 38.97H334.81ZM335.986 44.4791C337.252 46.8013 339.51 47.7485 341.839 47.7485V41.1115C341.536 41.1115 341.499 41.0558 341.594 41.1054C341.641 41.1303 341.696 41.1685 341.744 41.2172C341.767 41.2399 341.784 41.2605 341.796 41.2765C341.808 41.2924 341.812 41.3014 341.812 41.3009L335.986 44.4791ZM341.839 47.7485C343.773 47.7485 345.695 47.3097 347.307 46.1216L343.37 40.7784C343.21 40.8969 342.798 41.1115 341.839 41.1115V47.7485ZM347.395 46.0546C348.852 44.9043 349.921 43.2648 350.74 41.4632L344.698 38.7168C344.117 39.9952 343.599 40.5957 343.283 40.8454L347.395 46.0546ZM350.751 41.4378C352.03 38.5608 353.159 34.3373 354.197 28.9588L347.681 27.7012C346.665 32.9627 345.648 36.5792 344.686 38.7422L350.751 41.4378ZM354.193 28.9808C355.265 23.6211 355.899 19.6112 356.004 17.1311L349.373 16.8489C349.292 18.7554 348.76 22.3055 347.685 27.6792L354.193 28.9808ZM356.005 17.1281C356.099 14.8563 356.147 12.8483 356.147 11.11H349.51C349.51 12.7317 349.465 14.6437 349.373 16.8518L356.005 17.1281ZM356.147 11.11C356.147 9.12514 355.849 7.21352 355.053 5.54821L349.065 8.41179C349.295 8.89314 349.51 9.73486 349.51 11.11H356.147ZM355.053 5.5482C354.527 4.44945 353.706 3.50985 352.58 2.87827C351.487 2.26511 350.304 2.05148 349.189 2.05148V8.68852C349.474 8.68852 349.469 8.74322 349.333 8.66672C349.265 8.62867 349.197 8.57524 349.14 8.5132C349.085 8.45304 349.065 8.41056 349.065 8.41179L355.053 5.5482ZM349.189 2.05148C347.085 2.05148 345.131 2.73025 343.539 4.16336L347.979 9.09663C348.253 8.84974 348.586 8.68852 349.189 8.68852V2.05148ZM343.514 4.18648C341.009 6.48788 339.334 10.6204 338.063 15.6109L344.495 17.2491C345.744 12.3462 347.055 9.94545 348.004 9.07351L343.514 4.18648ZM408.69 4.6L405.722 3.11591L404.483 5.59308L406.699 7.25482L408.69 4.6ZM411.77 1.59L413.254 4.55817L413.273 4.54866L413.292 4.5389L411.77 1.59ZM424.23 3.83L421.654 5.92263L421.678 5.95199L421.703 5.98079L424.23 3.83ZM427.03 39.39H423.711L430.082 40.6938L427.03 39.39ZM443.06 1.87V-1.44852H440.869L440.008 0.566205L443.06 1.87ZM451.32 1.87L454.634 1.69317L454.466 -1.44852H451.32V1.87ZM453.21 37.29L456.511 37.6315L456.538 37.3728L456.524 37.1132L453.21 37.29ZM453 39.32L449.699 38.9785L456.032 40.6688L453 39.32ZM469.66 1.87V-1.44852H467.504L466.628 0.521168L469.66 1.87ZM479.25 1.87L482.235 3.31956L484.551 -1.44852H479.25V1.87ZM456.85 48V51.3185H458.928L459.835 49.4496L456.85 48ZM441.94 48L438.629 48.2179L438.833 51.3185H441.94V48ZM440.54 26.72L443.851 26.5021L437.496 25.3983L440.54 26.72ZM431.3 48V51.3185H433.477L434.344 49.3217L431.3 48ZM414.43 48L411.118 48.207L411.312 51.3185H414.43V48ZM412.33 14.4L409.017 14.5841L409.017 14.5955L409.018 14.607L412.33 14.4ZM411.07 8.17L407.977 9.37278L407.998 9.42537L408.02 9.47723L411.07 8.17ZM411.658 6.08409C411.967 5.46676 412.448 4.96144 413.254 4.55817L410.286 -1.37817C408.292 -0.381448 406.72 1.1199 405.722 3.11591L411.658 6.08409ZM413.292 4.5389C414.181 4.07986 415.343 3.78852 416.88 3.78852V-2.84852C414.497 -2.84852 412.252 -2.3932 410.248 -1.35891L413.292 4.5389ZM416.88 3.78852C419.038 3.78852 420.512 4.51605 421.654 5.92263L426.806 1.73736C424.308 -1.33605 420.882 -2.84852 416.88 -2.84852V3.78852ZM421.703 5.98079C422.809 7.28105 423.711 9.83806 423.711 14.4H430.349C430.349 9.25526 429.384 4.76561 426.757 1.6792L421.703 5.98079ZM423.711 14.4V39.39H430.349V14.4H423.711ZM430.082 40.6938L446.112 3.17379L440.008 0.566205L423.978 38.0862L430.082 40.6938ZM443.06 5.18852H451.32V-1.44852H443.06V5.18852ZM448.006 2.04682L449.896 37.4668L456.524 37.1132L454.634 1.69317L448.006 2.04682ZM449.909 36.9485L449.699 38.9785L456.301 39.6615L456.511 37.6315L449.909 36.9485ZM456.032 40.6688L472.692 3.21883L466.628 0.521168L449.968 37.9712L456.032 40.6688ZM469.66 5.18852H479.25V-1.44852H469.66V5.18852ZM476.265 0.420438L453.865 46.5504L459.835 49.4496L482.235 3.31956L476.265 0.420438ZM456.85 44.6815H441.94V51.3185H456.85V44.6815ZM445.251 47.7821L443.851 26.5021L437.229 26.9379L438.629 48.2179L445.251 47.7821ZM437.496 25.3983L428.256 46.6783L434.344 49.3217L443.584 28.0417L437.496 25.3983ZM431.3 44.6815H414.43V51.3185H431.3V44.6815ZM417.742 47.793L415.642 14.193L409.018 14.607L411.118 48.207L417.742 47.793ZM415.643 14.2159C415.49 11.4584 415.022 8.96778 414.12 6.86277L408.02 9.47723C408.518 10.6389 408.89 12.3016 409.017 14.5841L415.643 14.2159ZM414.163 6.96721C413.398 4.99971 412.311 3.1674 410.681 1.94518L406.699 7.25482C406.936 7.4326 407.436 7.98029 407.977 9.37278L414.163 6.96721ZM516.646 37.22L519.248 35.1602L517.087 32.4306L514.464 34.7197L516.646 37.22ZM515.176 47.44L517.079 50.1586L517.102 50.1429L517.124 50.1267L515.176 47.44ZM501.596 48.84L501.08 52.1182L501.1 52.1212L501.119 52.124L501.596 48.84ZM488.506 47.79L488.761 51.0987L488.887 51.0891L489.011 51.0699L488.506 47.79ZM486.126 48L482.864 47.392L482.057 51.7211L486.441 51.3036L486.126 48ZM494.736 1.8V-1.51852H491.979L491.474 1.19201L494.736 1.8ZM524.906 1.8H528.225V-1.51852H524.906V1.8ZM522.806 8.31L520.385 6.04033L520.366 6.06078L520.347 6.08155L522.806 8.31ZM508.526 8.66L509.907 5.64244L506.007 3.85752L505.259 8.08116L508.526 8.66ZM506.356 20.91L503.089 20.3312L502.398 24.2285H506.356V20.91ZM518.816 20.91H522.135V17.5915H518.816V20.91ZM516.996 26.72L519.467 28.9353L519.486 28.9145L519.504 28.8934L516.996 26.72ZM507.196 28.05L508.349 24.9381L507.196 28.05ZM505.096 27.14L507.443 24.7935L503.01 20.3601L501.836 26.5191L505.096 27.14ZM502.576 40.37L499.316 39.7491L498.655 43.2241L502.165 43.6629L502.576 40.37ZM514.045 39.2798C514.353 39.6689 514.658 40.3496 514.658 41.63H521.295C521.295 39.2704 520.714 37.0111 519.248 35.1602L514.045 39.2798ZM514.658 41.63C514.658 43.2016 514.145 44.0888 513.229 44.7533L517.124 50.1267C519.941 48.0846 521.295 45.0984 521.295 41.63H514.658ZM513.273 44.7214C512.107 45.5381 510.422 46.0815 507.966 46.0815V52.7185C511.39 52.7185 514.513 51.9552 517.079 50.1586L513.273 44.7214ZM507.966 46.0815C506.508 46.0815 504.558 45.9173 502.074 45.556L501.119 52.124C503.768 52.5094 506.065 52.7185 507.966 52.7185V46.0815ZM502.112 45.5618C497.135 44.7783 493.575 44.3315 491.726 44.3315V50.9685C492.957 50.9685 495.978 51.315 501.08 52.1182L502.112 45.5618ZM491.726 44.3315C490.195 44.3315 488.889 44.3736 488.002 44.5101L489.011 51.0699C489.338 51.0197 490.178 50.9685 491.726 50.9685V44.3315ZM488.252 44.4813C487.617 44.5301 486.801 44.6022 485.812 44.6964L486.441 51.3036C487.412 51.2111 488.183 51.1432 488.761 51.0987L488.252 44.4813ZM489.389 48.608L497.999 2.40798L491.474 1.19201L482.864 47.392L489.389 48.608ZM494.736 5.11852H524.906V-1.51852H494.736V5.11852ZM521.588 1.8C521.588 4.13545 521.016 5.36765 520.385 6.04033L525.227 10.5797C527.397 8.26568 528.225 5.15788 528.225 1.8H521.588ZM520.347 6.08155C519.818 6.66545 518.823 7.23148 516.716 7.23148V13.8685C520.023 13.8685 523.088 12.9412 525.265 10.5384L520.347 6.08155ZM516.716 7.23148C514.54 7.23148 512.279 6.72778 509.907 5.64244L507.145 11.6776C510.281 13.1122 513.479 13.8685 516.716 13.8685V7.23148ZM505.259 8.08116L503.089 20.3312L509.624 21.4888L511.794 9.23884L505.259 8.08116ZM506.356 24.2285H518.816V17.5915H506.356V24.2285ZM515.498 20.91C515.498 22.8554 515.026 23.927 514.489 24.5466L519.504 28.8934C521.394 26.713 522.135 23.9112 522.135 20.91H515.498ZM514.526 24.5047C514.027 25.0609 513.342 25.4315 512.096 25.4315V32.0685C514.957 32.0685 517.539 31.0858 519.467 28.9353L514.526 24.5047ZM512.096 25.4315C510.308 25.4315 509.105 25.2182 508.349 24.9381L506.044 31.1619C507.807 31.8151 509.871 32.0685 512.096 32.0685V25.4315ZM508.349 24.9381C507.74 24.7125 507.315 24.5441 507.046 24.4276C506.908 24.3679 506.854 24.3403 506.855 24.3408C506.856 24.3411 506.903 24.3655 506.976 24.4125C507.013 24.4369 507.072 24.4765 507.144 24.531C507.212 24.5828 507.32 24.6703 507.443 24.7935L502.75 29.4865C503.176 29.9124 503.655 30.1562 503.757 30.2105C503.968 30.3218 504.195 30.4254 504.407 30.5174C504.838 30.7043 505.393 30.9208 506.044 31.1619L508.349 24.9381ZM501.836 26.5191L499.316 39.7491L505.836 40.9909L508.356 27.7609L501.836 26.5191ZM502.165 43.6629C503.491 43.8287 505.264 43.8985 507.406 43.8985V37.2615C505.349 37.2615 503.901 37.1913 502.988 37.0771L502.165 43.6629ZM507.406 43.8985C511.754 43.8985 515.622 42.5185 518.828 39.7203L514.464 34.7197C512.537 36.4015 510.245 37.2615 507.406 37.2615V43.8985ZM567.756 9.36L570.318 11.4696L570.329 11.4563L570.34 11.4428L567.756 9.36ZM601.496 4.81L599.186 7.19236L599.195 7.20145L599.205 7.21046L601.496 4.81ZM598.836 41.21L601.327 43.4028L601.335 43.3938L598.836 41.21ZM565.446 44.71L563.047 47.003L563.065 47.0211L563.082 47.0388L565.446 44.71ZM579.306 16.43L576.09 15.6109L576.089 15.618L576.087 15.6251L579.306 16.43ZM576.926 42.89L573.958 44.3741L573.985 44.4271L574.013 44.4791L576.926 42.89ZM583.366 43.45L585.335 46.1216L585.379 46.0888L585.423 46.0546L583.366 43.45ZM585.746 40.09L588.767 41.4632L588.773 41.4505L588.779 41.4378L585.746 40.09ZM588.966 28.33L585.712 27.6792L585.71 27.6902L585.708 27.7012L588.966 28.33ZM590.716 16.99L594.032 17.1311L594.032 17.1281L590.716 16.99ZM590.086 6.98L593.08 5.54821V5.5482L590.086 6.98ZM583.786 6.63L581.566 4.16336L581.554 4.17486L581.541 4.18648L583.786 6.63ZM564.215 30.92C564.215 22.6899 566.337 16.3034 570.318 11.4696L565.195 7.25039C560.029 13.5233 557.578 21.5101 557.578 30.92H564.215ZM570.34 11.4428C574.5 6.28302 580.158 3.64851 587.706 3.64851V-2.98852C578.362 -2.98852 570.72 0.396976 565.173 7.27718L570.34 11.4428ZM587.706 3.64851C593.325 3.64851 596.947 5.0209 599.186 7.19236L603.806 2.42763C599.886 -1.37424 594.314 -2.98852 587.706 -2.98852V3.64851ZM599.205 7.21046C601.374 9.28072 602.798 12.827 602.798 18.6H609.435C609.435 11.8664 607.779 6.21927 603.788 2.40953L599.205 7.21046ZM602.798 18.6C602.798 27.5561 600.524 34.2363 596.338 39.0262L601.335 43.3938C606.855 37.0771 609.435 28.6839 609.435 18.6H602.798ZM596.345 39.0172C592.242 43.6781 586.753 46.0815 579.516 46.0815V52.7185C588.426 52.7185 595.817 49.6619 601.327 43.4028L596.345 39.0172ZM579.516 46.0815C573.715 46.0815 570.038 44.6424 567.81 42.3812L563.082 47.0388C567.015 51.031 572.717 52.7185 579.516 52.7185V46.0815ZM567.845 42.417C565.592 40.0602 564.215 36.408 564.215 30.92H557.578C557.578 37.472 559.233 43.0131 563.047 47.003L567.845 42.417ZM576.087 15.6251C573.94 24.2129 572.838 32.0039 572.838 38.97H579.475C579.475 32.6828 580.473 25.4471 582.526 17.2349L576.087 15.6251ZM572.838 38.97C572.838 40.8859 573.144 42.745 573.958 44.3741L579.894 41.4059C579.682 40.9816 579.475 40.2274 579.475 38.97H572.838ZM574.013 44.4791C575.28 46.8013 577.538 47.7485 579.866 47.7485V41.1115C579.564 41.1115 579.526 41.0558 579.621 41.1054C579.669 41.1303 579.723 41.1685 579.772 41.2172C579.794 41.2399 579.811 41.2605 579.823 41.2765C579.835 41.2924 579.84 41.3014 579.84 41.3009L574.013 44.4791ZM579.866 47.7485C581.8 47.7485 583.722 47.3097 585.335 46.1216L581.398 40.7784C581.237 40.8969 580.826 41.1115 579.866 41.1115V47.7485ZM585.423 46.0546C586.88 44.9043 587.948 43.2648 588.767 41.4632L582.725 38.7168C582.144 39.9952 581.626 40.5957 581.31 40.8454L585.423 46.0546ZM588.779 41.4378C590.057 38.5608 591.187 34.3373 592.225 28.9588L585.708 27.7012C584.693 32.9627 583.675 36.5792 582.714 38.7422L588.779 41.4378ZM592.22 28.9808C593.292 23.6211 593.926 19.6112 594.032 17.1311L587.401 16.8489C587.32 18.7554 586.787 22.3055 585.712 27.6792L592.22 28.9808ZM594.032 17.1281C594.127 14.8563 594.175 12.8483 594.175 11.11H587.538C587.538 12.7317 587.493 14.6437 587.401 16.8518L594.032 17.1281ZM594.175 11.11C594.175 9.12514 593.876 7.21352 593.08 5.54821L587.093 8.41179C587.323 8.89314 587.538 9.73486 587.538 11.11H594.175ZM593.08 5.5482C592.555 4.44945 591.733 3.50985 590.607 2.87827C589.514 2.26511 588.331 2.05148 587.216 2.05148V8.68852C587.501 8.68852 587.497 8.74322 587.36 8.66672C587.292 8.62867 587.224 8.57524 587.167 8.5132C587.113 8.45304 587.092 8.41056 587.093 8.41179L593.08 5.5482ZM587.216 2.05148C585.112 2.05148 583.159 2.73025 581.566 4.16336L586.006 9.09663C586.281 8.84974 586.613 8.68852 587.216 8.68852V2.05148ZM581.541 4.18648C579.036 6.48788 577.362 10.6204 576.09 15.6109L582.522 17.2491C583.771 12.3462 585.083 9.94545 586.032 9.07351L581.541 4.18648ZM642.094 9.01L643.474 5.99244L639.652 4.24339L638.838 8.36691L642.094 9.01ZM639.854 20.35L636.598 19.7069L635.815 23.6685H639.854V20.35ZM653.364 20.35H656.682V17.0315H653.364V20.35ZM651.474 26.44L648.875 24.3763L648.867 24.3863L651.474 26.44ZM639.294 27.42L638.061 30.5012L638.072 30.5056L639.294 27.42ZM638.523 27.07L640.87 24.7235L636.438 20.2908L635.264 26.4486L638.523 27.07ZM634.534 48V51.3185H637.279L637.793 48.6214L634.534 48ZM619.273 48L616.015 47.3729L615.256 51.3185H619.273V48ZM628.164 1.8V-1.51852H625.423L624.905 1.17294L628.164 1.8ZM659.384 1.8H662.702V-1.51852H659.384V1.8ZM657.354 8.52L654.798 6.40271L654.792 6.41039L657.354 8.52ZM651.893 7.58148C648.475 7.58148 645.701 7.01128 643.474 5.99244L640.713 12.0276C643.993 13.5287 647.752 14.2185 651.893 14.2185V7.58148ZM638.838 8.36691L636.598 19.7069L643.109 20.9931L645.349 9.65308L638.838 8.36691ZM639.854 23.6685H653.364V17.0315H639.854V23.6685ZM650.045 20.35C650.045 22.2443 649.573 23.4973 648.875 24.3763L654.072 28.5037C655.894 26.2093 656.682 23.4024 656.682 20.35H650.045ZM648.867 24.3863C648.378 25.0071 647.681 25.4315 646.294 25.4315V32.0685C649.386 32.0685 652.143 30.9529 654.08 28.4937L648.867 24.3863ZM646.294 25.4315C644.282 25.4315 642.363 25.066 640.515 24.3344L638.072 30.5056C640.704 31.5473 643.452 32.0685 646.294 32.0685V25.4315ZM640.526 24.3388C640.31 24.2523 640.184 24.1984 640.124 24.1714C640.091 24.1564 640.116 24.1664 640.171 24.1963C640.199 24.211 640.266 24.248 640.354 24.3047C640.399 24.3338 640.465 24.3784 640.543 24.4375C640.616 24.4928 640.735 24.5886 640.87 24.7235L636.177 29.4165C636.578 29.8171 637.017 30.0358 637.025 30.04C637.156 30.1107 637.283 30.1703 637.378 30.2136C637.575 30.3032 637.811 30.401 638.061 30.5012L640.526 24.3388ZM635.264 26.4486L631.274 47.3786L637.793 48.6214L641.783 27.6914L635.264 26.4486ZM634.534 44.6815H619.273V51.3185H634.534V44.6815ZM622.532 48.6271L631.422 2.42706L624.905 1.17294L616.015 47.3729L622.532 48.6271ZM628.164 5.11852H659.384V-1.51852H628.164V5.11852ZM656.065 1.8C656.065 4.13885 655.512 5.5412 654.798 6.40272L659.909 10.6373C661.902 8.23213 662.702 5.15448 662.702 1.8H656.065ZM654.792 6.41039C654.206 7.12236 653.386 7.58148 651.893 7.58148V14.2185C655.068 14.2185 657.888 13.091 659.915 10.6296L654.792 6.41039ZM690.191 9.01L691.572 5.99244L687.75 4.24339L686.936 8.36691L690.191 9.01ZM687.951 20.35L684.696 19.7069L683.913 23.6685H687.951V20.35ZM701.461 20.35H704.78V17.0315H701.461V20.35ZM699.571 26.44L696.972 24.3763L696.964 24.3863L699.571 26.44ZM687.391 27.42L686.159 30.5012L686.17 30.5056L687.391 27.42ZM686.621 27.07L688.968 24.7235L684.535 20.2908L683.361 26.4486L686.621 27.07ZM682.631 48V51.3185H685.377L685.891 48.6214L682.631 48ZM667.371 48L664.112 47.3729L663.353 51.3185H667.371V48ZM676.261 1.8V-1.51852H673.52L673.002 1.17294L676.261 1.8ZM707.481 1.8H710.8V-1.51852H707.481V1.8ZM705.451 8.52L702.896 6.40271L702.89 6.41039L705.451 8.52ZM699.991 7.58148C696.573 7.58148 693.798 7.01128 691.572 5.99244L688.81 12.0276C692.091 13.5287 695.85 14.2185 699.991 14.2185V7.58148ZM686.936 8.36691L684.696 19.7069L691.207 20.9931L693.447 9.65308L686.936 8.36691ZM687.951 23.6685H701.461V17.0315H687.951V23.6685ZM698.143 20.35C698.143 22.2443 697.67 23.4973 696.972 24.3763L702.17 28.5037C703.992 26.2093 704.78 23.4024 704.78 20.35H698.143ZM696.964 24.3863C696.475 25.0071 695.778 25.4315 694.391 25.4315V32.0685C697.484 32.0685 700.24 30.9529 702.178 28.4937L696.964 24.3863ZM694.391 25.4315C692.38 25.4315 690.461 25.066 688.613 24.3344L686.17 30.5056C688.802 31.5473 691.549 32.0685 694.391 32.0685V25.4315ZM688.624 24.3388C688.407 24.2523 688.281 24.1984 688.222 24.1714C688.189 24.1564 688.213 24.1664 688.269 24.1963C688.296 24.211 688.364 24.248 688.451 24.3047C688.496 24.3338 688.563 24.3784 688.64 24.4375C688.713 24.4928 688.833 24.5886 688.968 24.7235L684.275 29.4165C684.675 29.8171 685.114 30.0358 685.122 30.04C685.254 30.1107 685.38 30.1703 685.475 30.2136C685.673 30.3032 685.908 30.401 686.159 30.5012L688.624 24.3388ZM683.361 26.4486L679.371 47.3786L685.891 48.6214L689.881 27.6914L683.361 26.4486ZM682.631 44.6815H667.371V51.3185H682.631V44.6815ZM670.63 48.6271L679.52 2.42706L673.002 1.17294L664.112 47.3729L670.63 48.6271ZM676.261 5.11852H707.481V-1.51852H676.261V5.11852ZM704.163 1.8C704.163 4.13885 703.61 5.5412 702.896 6.40272L708.007 10.6373C709.999 8.23213 710.8 5.15448 710.8 1.8H704.163ZM702.89 6.41039C702.303 7.12236 701.484 7.58148 699.991 7.58148V14.2185C703.165 14.2185 705.986 13.091 708.013 10.6296L702.89 6.41039ZM746.129 37.22L748.731 35.1602L746.57 32.4306L743.947 34.7197L746.129 37.22ZM744.659 47.44L746.562 50.1586L746.584 50.1429L746.607 50.1267L744.659 47.44ZM731.079 48.84L730.563 52.1182L730.582 52.1212L730.601 52.124L731.079 48.84ZM717.989 47.79L718.243 51.0987L718.369 51.0891L718.493 51.0699L717.989 47.79ZM715.609 48L712.346 47.392L711.54 51.7211L715.923 51.3036L715.609 48ZM724.219 1.8V-1.51852H721.462L720.956 1.19201L724.219 1.8ZM754.389 1.8H757.707V-1.51852H754.389V1.8ZM752.289 8.31L749.868 6.04033L749.849 6.06078L749.83 6.08155L752.289 8.31ZM738.009 8.66L739.39 5.64244L735.489 3.85752L734.741 8.08116L738.009 8.66ZM735.839 20.91L732.571 20.3312L731.881 24.2285H735.839V20.91ZM748.299 20.91H751.617V17.5915H748.299V20.91ZM746.479 26.72L748.95 28.9353L748.968 28.9145L748.987 28.8934L746.479 26.72ZM736.679 28.05L737.831 24.9381L736.679 28.05ZM734.579 27.14L736.925 24.7935L732.492 20.3601L731.319 26.5191L734.579 27.14ZM732.059 40.37L728.799 39.7491L728.137 43.2241L731.647 43.6629L732.059 40.37ZM743.527 39.2798C743.835 39.6689 744.14 40.3496 744.14 41.63H750.777C750.777 39.2704 750.196 37.0111 748.731 35.1602L743.527 39.2798ZM744.14 41.63C744.14 43.2016 743.628 44.0888 742.711 44.7533L746.607 50.1267C749.423 48.0846 750.777 45.0984 750.777 41.63H744.14ZM742.756 44.7214C741.589 45.5381 739.905 46.0815 737.449 46.0815V52.7185C740.873 52.7185 743.995 51.9552 746.562 50.1586L742.756 44.7214ZM737.449 46.0815C735.99 46.0815 734.04 45.9173 731.557 45.556L730.601 52.124C733.251 52.5094 735.548 52.7185 737.449 52.7185V46.0815ZM731.595 45.5618C726.617 44.7783 723.058 44.3315 721.209 44.3315V50.9685C722.44 50.9685 725.461 51.315 730.563 52.1182L731.595 45.5618ZM721.209 44.3315C719.677 44.3315 718.371 44.3736 717.484 44.5101L718.493 51.0699C718.82 51.0197 719.661 50.9685 721.209 50.9685V44.3315ZM717.734 44.4813C717.099 44.5301 716.284 44.6022 715.294 44.6964L715.923 51.3036C716.894 51.2111 717.665 51.1432 718.243 51.0987L717.734 44.4813ZM718.871 48.608L727.481 2.40798L720.956 1.19201L712.346 47.392L718.871 48.608ZM724.219 5.11852H754.389V-1.51852H724.219V5.11852ZM751.07 1.8C751.07 4.13545 750.498 5.36765 749.868 6.04033L754.71 10.5797C756.879 8.26568 757.707 5.15788 757.707 1.8H751.07ZM749.83 6.08155C749.301 6.66545 748.305 7.23148 746.199 7.23148V13.8685C749.506 13.8685 752.57 12.9412 754.748 10.5384L749.83 6.08155ZM746.199 7.23148C744.022 7.23148 741.761 6.72778 739.39 5.64244L736.628 11.6776C739.763 13.1122 742.962 13.8685 746.199 13.8685V7.23148ZM734.741 8.08116L732.571 20.3312L739.106 21.4888L741.276 9.23884L734.741 8.08116ZM735.839 24.2285H748.299V17.5915H735.839V24.2285ZM744.98 20.91C744.98 22.8554 744.508 23.927 743.971 24.5466L748.987 28.8934C750.876 26.713 751.617 23.9112 751.617 20.91H744.98ZM744.008 24.5047C743.509 25.0609 742.825 25.4315 741.579 25.4315V32.0685C744.439 32.0685 747.022 31.0858 748.95 28.9353L744.008 24.5047ZM741.579 25.4315C739.79 25.4315 738.588 25.2182 737.831 24.9381L735.526 31.1619C737.29 31.8151 739.354 32.0685 741.579 32.0685V25.4315ZM737.831 24.9381C737.222 24.7125 736.797 24.5441 736.528 24.4276C736.391 24.3679 736.337 24.3403 736.338 24.3408C736.338 24.3411 736.385 24.3655 736.458 24.4125C736.496 24.4369 736.555 24.4765 736.626 24.531C736.694 24.5828 736.802 24.6703 736.925 24.7935L732.232 29.4865C732.658 29.9124 733.137 30.1562 733.24 30.2105C733.451 30.3218 733.677 30.4254 733.889 30.5174C734.321 30.7043 734.875 30.9208 735.526 31.1619L737.831 24.9381ZM731.319 26.5191L728.799 39.7491L735.319 40.9909L737.839 27.7609L731.319 26.5191ZM731.647 43.6629C732.974 43.8287 734.747 43.8985 736.889 43.8985V37.2615C734.831 37.2615 733.384 37.1913 732.47 37.0771L731.647 43.6629ZM736.889 43.8985C741.237 43.8985 745.105 42.5185 748.311 39.7203L743.947 34.7197C742.02 36.4015 739.728 37.2615 736.889 37.2615V43.8985ZM763.775 48L760.512 47.3941L759.783 51.3185H763.775V48ZM772.315 2.01L771.948 -1.28822L769.502 -1.01635L769.052 1.40413L772.315 2.01ZM804.165 4.18L805.927 1.36826V1.36826L804.165 4.18ZM805.775 22.66L803.222 20.5403L803.21 20.5547L803.198 20.5692L805.775 22.66ZM797.515 27.56L796.781 24.3236L793.612 25.042L794.264 28.2259L797.515 27.56ZM801.435 38.06L804.316 36.4136L804.31 36.402L804.303 36.3906L801.435 38.06ZM806.895 43.87L810.02 44.9861L811.028 42.1628L808.322 40.8738L806.895 43.87ZM803.675 48.07L802.008 45.2002L801.953 45.2323L801.899 45.2665L803.675 48.07ZM793.105 47.65L791.089 50.2861L791.114 50.3051L791.139 50.3236L793.105 47.65ZM788.835 42.54L785.938 44.1588L785.948 44.176L785.957 44.193L788.835 42.54ZM784.425 24.13V20.8115H780.98L781.109 24.2536L784.425 24.13ZM784.915 24.13V27.4485H784.96L785.005 27.4473L784.915 24.13ZM792.685 21.33L795.062 23.6451L795.078 23.6296L795.092 23.614L792.685 21.33ZM789.325 5.58L789.481 2.26515L789.403 2.26148H789.325V5.58ZM786.805 5.65L786.154 2.39592L783.962 2.8343L783.545 5.0303L786.805 5.65ZM778.755 48V51.3185H781.502L782.015 48.6197L778.755 48ZM767.038 48.6059L775.578 2.61587L769.052 1.40413L760.512 47.3941L767.038 48.6059ZM772.681 5.30822C777.139 4.8129 782.678 4.55852 789.325 4.55852V-2.07852C782.531 -2.07852 776.73 -1.81957 771.948 -1.28822L772.681 5.30822ZM789.325 4.55852C795.913 4.55852 800.084 5.53873 802.402 6.99174L805.927 1.36826C801.992 -1.09873 796.27 -2.07852 789.325 -2.07852V4.55852ZM802.402 6.99173C804.477 8.29217 805.536 10.1431 805.536 13.07H812.173C812.173 8.06356 810.106 3.98783 805.927 1.36826L802.402 6.99173ZM805.536 13.07C805.536 16.3919 804.678 18.7854 803.222 20.5403L808.328 24.7797C810.978 21.588 812.173 17.5881 812.173 13.07H805.536ZM803.198 20.5692C801.719 22.3921 799.653 23.6727 796.781 24.3236L798.248 30.7964C802.377 29.8606 805.818 27.8746 808.352 24.7508L803.198 20.5692ZM794.264 28.2259C795.123 32.4196 796.549 36.2637 798.567 39.7294L804.303 36.3906C802.68 33.603 801.494 30.447 800.766 26.8941L794.264 28.2259ZM798.554 39.7064C800.395 42.9289 802.642 45.5204 805.468 46.8662L808.322 40.8738C807.228 40.3529 805.835 39.0711 804.316 36.4136L798.554 39.7064ZM803.77 42.7539C803.267 44.1614 802.624 44.843 802.008 45.2002L805.341 50.9398C807.619 49.617 809.123 47.4986 810.02 44.9861L803.77 42.7539ZM801.899 45.2665C801.144 45.7445 800.07 46.0815 798.495 46.0815V52.7185C801.027 52.7185 803.405 52.1688 805.45 50.8735L801.899 45.2665ZM798.495 46.0815C797.181 46.0815 796.076 45.7157 795.071 44.9764L791.139 50.3236C793.307 51.9177 795.795 52.7185 798.495 52.7185V46.0815ZM795.121 45.0139C793.963 44.1288 792.809 42.7965 791.712 40.887L785.957 44.193C787.38 46.6701 789.073 48.7445 791.089 50.2861L795.121 45.0139ZM791.732 40.9212C789.406 36.7594 788.009 31.1832 787.741 24.0064L781.109 24.2536C781.401 32.1035 782.944 38.8006 785.938 44.1588L791.732 40.9212ZM784.425 27.4485H784.915V20.8115H784.425V27.4485ZM785.005 27.4473C788.976 27.34 792.528 26.2479 795.062 23.6451L790.307 19.0149C789.388 19.9588 787.76 20.7334 784.825 20.8127L785.005 27.4473ZM795.092 23.614C797.641 20.9277 798.593 17.1384 798.593 12.93H791.956C791.956 16.2816 791.182 18.0923 790.277 19.046L795.092 23.614ZM798.593 12.93C798.593 10.1748 798.023 7.51567 796.367 5.46949C794.631 3.32561 792.146 2.39058 789.481 2.26515L789.169 8.89485C790.47 8.95609 790.96 9.33938 791.208 9.6455C791.535 10.0493 791.956 10.9718 791.956 12.93H798.593ZM789.325 2.26148H787.785V8.89852H789.325V2.26148ZM787.785 2.26148C787.285 2.26148 786.705 2.28582 786.154 2.39592L787.456 8.90408C787.396 8.91611 787.389 8.91272 787.461 8.90759C787.528 8.90285 787.633 8.89852 787.785 8.89852V2.26148ZM783.545 5.0303L775.495 47.3803L782.015 48.6197L790.065 6.2697L783.545 5.0303ZM778.755 44.6815H763.775V51.3185H778.755V44.6815ZM826.331 39.74L824.428 37.0214L824.406 37.0366L824.385 37.0522L826.331 39.74ZM836.061 39.74L833.927 42.281L833.951 42.3015L833.976 42.3216L836.061 39.74ZM835.851 48L837.78 50.7004L837.789 50.6941L837.798 50.6878L835.851 48ZM826.121 48L824.036 50.5816L824.09 50.6253L824.146 50.6666L826.121 48ZM838.441 14.47L839.315 17.6716L843.22 16.6065L841.409 12.9859L838.441 14.47ZM828.501 13.63L830.128 10.7377V10.7377L828.501 13.63ZM827.311 6.21L824.516 4.42114L824.49 4.46152L824.466 4.50264L827.311 6.21ZM830.741 3.2L832.33 6.11331L832.368 6.09263L832.406 6.07098L830.741 3.2ZM855.521 2.71L857.428 -0.00592041L855.521 2.71ZM852.861 19.51L850.826 16.8889L850.807 16.9036L850.788 16.9187L852.861 19.51ZM848.941 22.31L847.142 19.5214L847.134 19.5266L848.941 22.31ZM835.571 30.99L833.764 28.2066L833.747 28.2176L833.731 28.2288L835.571 30.99ZM832.841 35.47V38.7885H836.16V35.47H832.841ZM833.471 20.63L835.217 23.4524L835.219 23.4511L833.471 20.63ZM841.381 15.73L839.683 12.8791L839.658 12.8938L839.634 12.9089L841.381 15.73ZM846.421 10.34L849.377 11.8482L849.383 11.8362L849.39 11.8241L846.421 10.34ZM839.491 6.63L836.978 4.46321L836.968 4.47477L836.958 4.48643L839.491 6.63ZM837.881 10.83L834.564 10.7324L837.881 10.83ZM827.62 43.87C827.62 43.0842 827.846 42.7401 828.278 42.4278L824.385 37.0522C822.11 38.6999 820.983 41.1091 820.983 43.87H827.62ZM828.234 42.4586C828.997 41.9245 829.989 41.5885 831.371 41.5885V34.9515C828.834 34.9515 826.465 35.5955 824.428 37.0214L828.234 42.4586ZM831.371 41.5885C832.779 41.5885 833.512 41.9326 833.927 42.281L838.196 37.199C836.277 35.5874 833.884 34.9515 831.371 34.9515V41.5885ZM833.976 42.3216C834.296 42.5803 834.563 42.9444 834.563 43.87H841.2C841.2 41.2489 840.253 38.8597 838.146 37.1584L833.976 42.3216ZM834.563 43.87C834.563 44.6558 834.336 44.9999 833.905 45.3122L837.798 50.6878C840.073 49.0401 841.2 46.6309 841.2 43.87H834.563ZM833.922 45.2996C833.293 45.7493 832.375 46.0815 830.951 46.0815V52.7185C833.448 52.7185 835.796 52.1174 837.78 50.7004L833.922 45.2996ZM830.951 46.0815C829.522 46.0815 828.655 45.7474 828.097 45.3334L824.146 50.6666C826.107 52.1193 828.46 52.7185 830.951 52.7185V46.0815ZM828.206 45.4184C827.886 45.1597 827.62 44.7956 827.62 43.87H820.983C820.983 46.4911 821.93 48.8803 824.036 50.5816L828.206 45.4184ZM837.568 11.2684C836.98 11.4288 835.799 11.5715 833.821 11.5715V18.2085C835.95 18.2085 837.849 18.0712 839.315 17.6716L837.568 11.2684ZM833.821 11.5715C832.225 11.5715 831.035 11.2476 830.128 10.7377L826.874 16.5223C828.954 17.6924 831.311 18.2085 833.821 18.2085V11.5715ZM830.128 10.7377C829.731 10.514 829.617 10.3536 829.6 10.328C829.591 10.3148 829.591 10.3112 829.59 10.3089C829.589 10.305 829.58 10.2734 829.58 10.2H822.943C822.943 13.0876 824.566 15.2237 826.874 16.5223L830.128 10.7377ZM829.58 10.2C829.58 9.24759 829.796 8.51873 830.157 7.91736L824.466 4.50264C823.427 6.2346 822.943 8.16574 822.943 10.2H829.58ZM830.106 7.99886C830.482 7.41164 831.153 6.75572 832.33 6.11331L829.152 0.286684C827.25 1.32427 825.634 2.67502 824.516 4.42114L830.106 7.99886ZM832.406 6.07098C834.931 4.60728 838.666 3.71852 843.901 3.71852V-2.91852C838.03 -2.91852 832.992 -1.94062 829.077 0.329013L832.406 6.07098ZM843.901 3.71852C849.369 3.71852 852.323 4.51954 853.614 5.42592L857.428 -0.00592041C854.332 -2.17954 849.54 -2.91852 843.901 -2.91852V3.71852ZM853.614 5.42592C854.95 6.36349 855.493 7.4403 855.493 8.94H862.13C862.13 5.21303 860.48 2.1365 857.428 -0.00592041L853.614 5.42592ZM855.493 8.94C855.493 11.6155 854.22 14.2539 850.826 16.8889L854.897 22.1311C859.436 18.6061 862.13 14.1978 862.13 8.94H855.493ZM850.788 16.9187C849.722 17.772 848.508 18.6402 847.142 19.5215L850.74 25.0985C852.268 24.1131 853.668 23.1146 854.934 22.1013L850.788 16.9187ZM847.134 19.5266L833.764 28.2066L837.378 33.7734L850.748 25.0934L847.134 19.5266ZM833.731 28.2288C831.233 29.894 829.523 32.3214 829.523 35.47H836.16C836.16 35.0719 836.27 34.5127 837.412 33.7512L833.731 28.2288ZM832.841 32.1515C832.62 32.1515 832.443 32.132 832.123 31.712L826.839 35.728C828.293 37.6413 830.355 38.7885 832.841 38.7885V32.1515ZM832.123 31.712C831.726 31.1888 831.47 30.5156 831.47 29.52H824.833C824.833 31.791 825.464 33.9179 826.839 35.728L832.123 31.712ZM831.47 29.52C831.47 27.0881 832.512 25.1253 835.217 23.4524L831.726 17.8076C827.338 20.5214 824.833 24.4852 824.833 29.52H831.47ZM835.219 23.4511L843.129 18.5511L839.634 12.9089L831.724 17.8089L835.219 23.4511ZM843.08 18.5809C845.814 16.9523 847.928 14.6887 849.377 11.8482L843.465 8.83183C842.581 10.5646 841.336 11.8944 839.683 12.8791L843.08 18.5809ZM849.39 11.8241C850.019 10.5646 850.3 9.20705 850.3 7.82H843.663C843.663 8.29962 843.57 8.62204 843.453 8.85591L849.39 11.8241ZM850.3 7.82C850.3 6.23513 849.901 4.43696 848.523 3.05845C847.144 1.67994 845.346 1.28148 843.761 1.28148V7.91852C843.893 7.91852 843.986 7.92681 844.047 7.93548C844.107 7.94411 844.129 7.95221 844.121 7.94947C844.111 7.94639 844.073 7.93237 844.016 7.89842C843.958 7.86376 843.893 7.81507 843.83 7.75155C843.766 7.68802 843.718 7.62294 843.683 7.56518C843.649 7.50859 843.635 7.4699 843.632 7.46066C843.629 7.45245 843.637 7.4742 843.646 7.53462C843.655 7.59532 843.663 7.68867 843.663 7.82H850.3ZM843.761 1.28148C841.048 1.28148 838.729 2.43144 836.978 4.46321L842.005 8.79679C842.587 8.12189 843.114 7.91852 843.761 7.91852V1.28148ZM836.958 4.48643C835.447 6.27255 834.633 8.39364 834.564 10.7324L841.198 10.9276C841.223 10.093 841.483 9.41411 842.025 8.77357L836.958 4.48643ZM834.564 10.7324C834.511 12.5356 834.693 14.3945 835.473 15.9541L841.409 12.9859C841.349 12.8655 841.158 12.2978 841.198 10.9276L834.564 10.7324Z" fill="white" mask="url(#path-1-outside-1_1502_1457)"/>
</g>
<defs>
<filter id="filter0_d_1502_1457" x="0.939941" y="0.26001" width="871.145" height="66.2067" filterUnits="userSpaceOnUse" color-interpolation-filters="sRGB">
<feFlood flood-opacity="0" result="BackgroundImageFix"/>
<feColorMatrix in="SourceAlpha" type="matrix" values="0 0 0 0 0 0 0 0 0 0 0 0 0 0 0 0 0 0 127 0" result="hardAlpha"/>
<feOffset dx="9.48148" dy="13.2741"/>
<feGaussianBlur stdDeviation="1.8963"/>
<feComposite in2="hardAlpha" operator="out"/>
<feColorMatrix type="matrix" values="0 0 0 0 0 0 0 0 0 0 0 0 0 0 0 0 0 0 0.25 0"/>
<feBlend mode="normal" in2="BackgroundImageFix" result="effect1_dropShadow_1502_1457"/>
<feBlend mode="normal" in="SourceGraphic" in2="effect1_dropShadow_1502_1457" result="shape"/>
</filter>
</defs>
</svg>
